<svg width="180" height="254" viewBox="0 0 180 254" fill="none" xmlns="http://www.w3.org/2000/svg">
<rect x="0.5" y="0.5" width="179" height="253" rx="14.5" fill="white" stroke="#1D1D1B"/>
<path d="M16.78 25.9898H7.96997V23.7498H11.33V12.3098H7.96997V10.0698H13.5V23.7498H16.79V25.9898H16.78Z" fill="#1D1D1B"/>
<path d="M19.5 20.8398V15.1998C19.5 13.7298 20.01 12.4598 21.02 11.3998C22.03 10.3398 23.27 9.7998 24.73 9.7998C26.19 9.7998 27.42 10.3298 28.44 11.3998C29.45 12.4598 29.96 13.7298 29.96 15.1998V20.8398C29.96 22.3098 29.45 23.5898 28.44 24.6698C27.43 25.7498 26.19 26.2898 24.73 26.2898C23.27 26.2898 22.04 25.7498 21.02 24.6698C20 23.5898 19.5 22.3098 19.5 20.8398ZM21.7 15.1998V20.8398C21.7 21.6998 21.99 22.4498 22.58 23.0898C23.17 23.7298 23.88 24.0498 24.72 24.0498C25.56 24.0498 26.27 23.7298 26.86 23.0798C27.45 22.4298 27.74 21.6898 27.74 20.8398V15.1998C27.74 14.3498 27.44 13.6198 26.86 12.9998C26.27 12.3798 25.56 12.0698 24.72 12.0698C23.88 12.0698 23.17 12.3798 22.58 12.9998C22 13.6098 21.7 14.3498 21.7 15.1998Z" fill="#1D1D1B"/>
<path d="M158.67 229.53H167.49V231.77H164.13V243.21H167.49V245.45H161.96V231.77H158.67V229.53Z" fill="#1D1D1B"/>
<path d="M155.95 234.68V240.32C155.95 241.79 155.44 243.06 154.43 244.12C153.42 245.18 152.18 245.72 150.72 245.72C149.26 245.72 148.03 245.19 147.01 244.12C146 243.06 145.49 241.79 145.49 240.32V234.68C145.49 233.21 146 231.93 147.01 230.85C148.02 229.77 149.26 229.23 150.72 229.23C152.18 229.23 153.41 229.77 154.43 230.85C155.44 231.93 155.95 233.21 155.95 234.68ZM153.74 240.32V234.68C153.74 233.82 153.45 233.07 152.86 232.43C152.27 231.79 151.56 231.47 150.72 231.47C149.88 231.47 149.17 231.79 148.58 232.44C147.99 233.09 147.7 233.83 147.7 234.68V240.32C147.7 241.17 147.99 241.9 148.58 242.52C149.17 243.14 149.88 243.45 150.72 243.45C151.56 243.45 152.27 243.14 152.86 242.52C153.45 241.9 153.74 241.17 153.74 240.32Z" fill="#1D1D1B"/>
<path d="M16.52 43.2799C16.89 44.4099 17.58 45.9899 18.75 46.6799H13.92C15.16 45.6999 15.73 44.2699 15.99 43.2599C15.31 44.4499 14.02 45.2499 12.55 45.2499C10.36 45.2499 8.58997 43.4699 8.58997 41.2899C8.58997 39.0999 10.36 37.3299 12.55 37.3299C12.99 37.3299 13.42 37.3999 13.81 37.5299C13.04 36.8099 12.55 35.7799 12.55 34.6299C12.55 32.4399 14.32 30.6699 16.51 30.6699C18.7 30.6699 20.47 32.4499 20.47 34.6299C20.47 35.8499 19.92 36.9399 19.05 37.6699C19.37 37.5799 19.71 37.5399 20.06 37.5399C22.25 37.5399 24.02 39.3099 24.02 41.4999C24.02 43.6899 22.25 45.4599 20.06 45.4599C18.51 45.4599 17.17 44.5699 16.52 43.2799Z" fill="#1D1D1B"/>
<path d="M163.54 211.25C163.17 210.12 162.48 208.54 161.31 207.85H166.14C164.9 208.83 164.33 210.26 164.07 211.27C164.76 210.08 166.04 209.28 167.51 209.28C169.7 209.28 171.47 211.06 171.47 213.24C171.47 215.43 169.7 217.2 167.51 217.2C167.07 217.2 166.64 217.13 166.25 217C167.02 217.72 167.51 218.75 167.51 219.9C167.51 222.09 165.74 223.86 163.55 223.86C161.36 223.86 159.59 222.08 159.59 219.9C159.59 218.68 160.14 217.59 161.01 216.86C160.69 216.95 160.35 216.99 160 216.99C157.81 216.99 156.04 215.22 156.04 213.03C156.04 210.84 157.81 209.07 160 209.07C161.54 209.06 162.89 209.95 163.54 211.25Z" fill="#1D1D1B"/>
<path d="M47.67 47.8998C48.47 50.3698 49.9901 53.8198 52.5401 55.3298H41.9701C44.6801 53.1798 45.9201 50.0698 46.4901 47.8498C44.9901 50.4498 42.1901 52.1998 38.9701 52.1998C34.1801 52.1998 30.3 48.3198 30.3 43.5298C30.3 38.7398 34.1801 34.8598 38.9701 34.8598C39.9301 34.8598 40.86 35.0198 41.73 35.3098C40.04 33.7298 38.98 31.4698 38.98 28.9698C38.98 24.1798 42.8601 20.2998 47.6501 20.2998C52.4401 20.2998 56.32 24.1798 56.32 28.9698C56.32 31.6398 55.11 34.0298 53.21 35.6198C53.92 35.4298 54.66 35.3298 55.43 35.3298C60.2201 35.3298 64.1 39.2098 64.1 43.9998C64.1 48.7898 60.2201 52.6698 55.43 52.6698C52.0301 52.6798 49.09 50.7398 47.67 47.8998Z" fill="#1D1D1B"/>
<path d="M46.72 207.34C45.92 204.87 44.4 201.42 41.84 199.91H52.41C49.7 202.06 48.46 205.17 47.89 207.39C49.39 204.79 52.19 203.04 55.41 203.04C60.2 203.04 64.08 206.92 64.08 211.71C64.08 216.5 60.2 220.38 55.41 220.38C54.45 220.38 53.52 220.22 52.65 219.93C54.35 221.51 55.4 223.77 55.4 226.27C55.4 231.06 51.52 234.94 46.73 234.94C41.94 234.94 38.06 231.06 38.06 226.27C38.06 223.6 39.27 221.21 41.17 219.62C40.46 219.81 39.72 219.91 38.95 219.91C34.16 219.91 30.28 216.03 30.28 211.24C30.28 206.45 34.16 202.57 38.95 202.57C42.36 202.56 45.29 204.5 46.72 207.34Z" fill="#1D1D1B"/>
<path d="M133.58 47.8998C134.38 50.3698 135.9 53.8198 138.46 55.3298H127.89C130.6 53.1798 131.84 50.0698 132.41 47.8498C130.91 50.4498 128.11 52.1998 124.89 52.1998C120.1 52.1998 116.22 48.3198 116.22 43.5298C116.22 38.7398 120.1 34.8598 124.89 34.8598C125.85 34.8598 126.78 35.0198 127.65 35.3098C125.95 33.7298 124.9 31.4698 124.9 28.9698C124.9 24.1798 128.78 20.2998 133.57 20.2998C138.36 20.2998 142.24 24.1798 142.24 28.9698C142.24 31.6398 141.03 34.0298 139.13 35.6198C139.84 35.4298 140.58 35.3298 141.35 35.3298C146.14 35.3298 150.02 39.2098 150.02 43.9998C150.02 48.7898 146.14 52.6698 141.35 52.6698C137.94 52.6798 135 50.7398 133.58 47.8998Z" fill="#1D1D1B"/>
<path d="M132.63 207.34C131.83 204.87 130.31 201.42 127.76 199.91H138.33C135.62 202.06 134.38 205.17 133.81 207.39C135.31 204.79 138.11 203.04 141.33 203.04C146.12 203.04 150 206.92 150 211.71C150 216.5 146.12 220.38 141.33 220.38C140.37 220.38 139.44 220.22 138.57 219.93C140.26 221.51 141.32 223.77 141.32 226.27C141.32 231.06 137.44 234.94 132.65 234.94C127.86 234.94 123.98 231.06 123.98 226.27C123.98 223.6 125.19 221.21 127.09 219.62C126.38 219.81 125.64 219.91 124.87 219.91C120.08 219.91 116.2 216.03 116.2 211.24C116.2 206.45 120.08 202.57 124.87 202.57C128.27 202.56 131.21 204.5 132.63 207.34Z" fill="#1D1D1B"/>
<path d="M47.67 108.06C48.47 110.53 49.9901 113.98 52.5401 115.49H41.9701C44.6801 113.34 45.9201 110.23 46.4901 108.01C44.9901 110.61 42.1901 112.36 38.9701 112.36C34.1801 112.36 30.3 108.48 30.3 103.69C30.3 98.9 34.1801 95.02 38.9701 95.02C39.9301 95.02 40.86 95.18 41.73 95.47C40.04 93.89 38.98 91.63 38.98 89.13C38.98 84.34 42.8601 80.46 47.6501 80.46C52.4401 80.46 56.32 84.34 56.32 89.13C56.32 91.8 55.11 94.19 53.21 95.78C53.9 95.6 54.65 95.5 55.42 95.5C60.21 95.5 64.09 99.38 64.09 104.17C64.09 108.96 60.21 112.84 55.42 112.84C52.03 112.83 49.09 110.89 47.67 108.06Z" fill="#1D1D1B"/>
<path d="M133.58 108.06C134.38 110.53 135.9 113.98 138.46 115.49H127.89C130.6 113.34 131.84 110.23 132.41 108.01C130.91 110.61 128.11 112.36 124.89 112.36C120.1 112.36 116.22 108.48 116.22 103.69C116.22 98.9 120.1 95.02 124.89 95.02C125.85 95.02 126.78 95.18 127.65 95.47C125.95 93.89 124.9 91.63 124.9 89.13C124.9 84.34 128.78 80.46 133.57 80.46C138.36 80.46 142.24 84.34 142.24 89.13C142.24 91.8 141.03 94.19 139.13 95.78C139.84 95.59 140.58 95.49 141.35 95.49C146.14 95.49 150.02 99.37 150.02 104.16C150.02 108.95 146.14 112.83 141.35 112.83C137.94 112.83 135 110.89 133.58 108.06Z" fill="#1D1D1B"/>
<path d="M132.63 147.41C131.83 144.94 130.31 141.49 127.76 139.98H138.33C135.62 142.13 134.38 145.24 133.81 147.46C135.31 144.86 138.11 143.11 141.33 143.11C146.12 143.11 150 146.99 150 151.78C150 156.57 146.12 160.45 141.33 160.45C140.37 160.45 139.44 160.29 138.57 160C140.26 161.58 141.32 163.84 141.32 166.34C141.32 171.13 137.44 175.01 132.65 175.01C127.86 175.01 123.98 171.13 123.98 166.34C123.98 163.67 125.19 161.28 127.09 159.69C126.38 159.88 125.64 159.98 124.87 159.98C120.08 159.98 116.2 156.1 116.2 151.31C116.2 146.52 120.08 142.64 124.87 142.64C128.27 142.63 131.21 144.57 132.63 147.41Z" fill="#1D1D1B"/>
<path d="M46.72 147.41C45.92 144.94 44.4 141.49 41.84 139.98H52.41C49.7 142.13 48.46 145.24 47.89 147.46C49.39 144.86 52.19 143.11 55.41 143.11C60.2 143.11 64.08 146.99 64.08 151.78C64.08 156.57 60.2 160.45 55.41 160.45C54.45 160.45 53.52 160.29 52.65 160C54.35 161.58 55.4 163.84 55.4 166.34C55.4 171.13 51.52 175.01 46.73 175.01C41.94 175.01 38.06 171.13 38.06 166.34C38.06 163.67 39.27 161.28 41.17 159.69C40.46 159.88 39.72 159.98 38.95 159.98C34.16 159.98 30.28 156.1 30.28 151.31C30.28 146.52 34.16 142.64 38.95 142.64C42.36 142.63 45.29 144.57 46.72 147.41Z" fill="#1D1D1B"/>
<path d="M89.8001 77.58C90.6001 80.05 92.1201 83.5 94.6701 85.01H84.1001C86.8101 82.86 88.0501 79.75 88.6201 77.53C87.1201 80.13 84.3201 81.88 81.1001 81.88C76.3101 81.88 72.4301 78 72.4301 73.21C72.4301 68.42 76.3101 64.54 81.1001 64.54C82.0601 64.54 82.9901 64.7 83.8601 64.99C82.1701 63.41 81.1101 61.15 81.1101 58.65C81.1101 53.86 84.9901 49.98 89.7801 49.98C94.5701 49.98 98.4501 53.86 98.4501 58.65C98.4501 61.32 97.24 63.71 95.34 65.3C96.05 65.11 96.7901 65.01 97.5601 65.01C102.35 65.01 106.23 68.89 106.23 73.68C106.23 78.47 102.35 82.35 97.5601 82.35C94.1601 82.36 91.2201 80.41 89.8001 77.58Z" fill="#1D1D1B"/>
<path d="M89.09 177.34C88.29 174.87 86.77 171.42 84.22 169.91H94.79C92.08 172.06 90.84 175.17 90.27 177.39C91.77 174.79 94.57 173.04 97.79 173.04C102.58 173.04 106.46 176.92 106.46 181.71C106.46 186.5 102.58 190.38 97.79 190.38C96.83 190.38 95.9 190.22 95.03 189.93C96.72 191.51 97.78 193.77 97.78 196.27C97.78 201.06 93.9 204.94 89.11 204.94C84.32 204.94 80.44 201.06 80.44 196.27C80.44 193.6 81.65 191.21 83.55 189.62C82.84 189.81 82.1 189.91 81.33 189.91C76.54 189.91 72.66 186.03 72.66 181.24C72.66 176.45 76.54 172.57 81.33 172.57C84.73 172.56 87.67 174.51 89.09 177.34Z" fill="#1D1D1B"/>
</svg>
