<svg width="180" height="254" viewBox="0 0 180 254" fill="none" xmlns="http://www.w3.org/2000/svg">
<rect x="0.5" y="0.5" width="179" height="253" rx="14.5" fill="white" stroke="#1D1D1B"/>
<path d="M17.15 24.5802H8.32996V22.3402H11.69V10.9002H8.32996V8.66016H13.86V22.3402H17.15V24.5802Z" fill="#E30B13"/>
<path d="M19.87 19.4301V13.7901C19.87 12.3201 20.38 11.0501 21.39 9.99014C22.4 8.93014 23.64 8.39014 25.1 8.39014C26.56 8.39014 27.79 8.92014 28.81 9.99014C29.82 11.0501 30.33 12.3201 30.33 13.7901V19.4301C30.33 20.9001 29.82 22.1801 28.81 23.2601C27.8 24.3401 26.56 24.8801 25.1 24.8801C23.64 24.8801 22.41 24.3401 21.39 23.2601C20.37 22.1801 19.87 20.9001 19.87 19.4301ZM22.07 13.7901V19.4301C22.07 20.2901 22.37 21.0401 22.95 21.6801C23.54 22.3201 24.25 22.6401 25.09 22.6401C25.93 22.6401 26.64 22.3201 27.23 21.6701C27.82 21.0201 28.11 20.2801 28.11 19.4301V13.7901C28.11 12.9401 27.82 12.2101 27.23 11.5801C26.64 10.9601 25.93 10.6501 25.09 10.6501C24.25 10.6501 23.54 10.9601 22.95 11.5801C22.37 12.2001 22.07 12.9401 22.07 13.7901Z" fill="#E30B13"/>
<path d="M158.67 230.53H167.49V232.77H164.13V244.21H167.49V246.45H161.96V232.77H158.67V230.53Z" fill="#E30B13"/>
<path d="M155.95 235.67V241.31C155.95 242.78 155.44 244.05 154.43 245.11C153.42 246.17 152.18 246.71 150.72 246.71C149.26 246.71 148.03 246.18 147.02 245.11C146.01 244.05 145.5 242.78 145.5 241.31V235.67C145.5 234.2 146.01 232.92 147.02 231.84C148.03 230.76 149.27 230.22 150.72 230.22C152.18 230.22 153.41 230.76 154.43 231.84C155.44 232.93 155.95 234.21 155.95 235.67ZM153.75 241.32V235.68C153.75 234.82 153.46 234.07 152.87 233.43C152.28 232.79 151.57 232.47 150.73 232.47C149.89 232.47 149.18 232.79 148.59 233.44C148 234.09 147.71 234.83 147.71 235.68V241.32C147.71 242.17 148 242.9 148.59 243.52C149.18 244.14 149.89 244.45 150.73 244.45C151.57 244.45 152.28 244.14 152.87 243.52C153.45 242.9 153.75 242.17 153.75 241.32Z" fill="#E30B13"/>
<path d="M10.53 37.0598L17.53 45.9098L24.62 37.0598L17.58 28.3398L10.53 37.0598Z" fill="#E30B13"/>
<path d="M156.71 214.39L163.71 223.24L170.8 214.39L163.75 205.67L156.71 214.39Z" fill="#E30B13"/>
<path d="M31.27 36.0999L45.63 54.2499L60.18 36.0999L45.72 18.1899L31.27 36.0999Z" fill="#E30B13"/>
<path d="M31.27 216.68L45.63 234.83L60.18 216.68L45.72 198.77L31.27 216.68Z" fill="#E30B13"/>
<path d="M114.86 36.6798L129.22 54.8398L143.77 36.6798L129.31 18.7798L114.86 36.6798Z" fill="#E30B13"/>
<path d="M114.86 217.26L129.22 235.41L143.77 217.26L129.31 199.35L114.86 217.26Z" fill="#E30B13"/>
<path d="M30.9 96.8202L45.26 114.97L59.81 96.8202L45.35 78.9102L30.9 96.8202Z" fill="#E30B13"/>
<path d="M114.49 97.4002L128.85 115.55L143.4 97.4002L128.94 79.4902L114.49 97.4002Z" fill="#E30B13"/>
<path d="M31.27 157.2L45.63 175.35L60.18 157.2L45.72 139.29L31.27 157.2Z" fill="#E30B13"/>
<path d="M114.86 157.78L129.22 175.94L143.77 157.78L129.31 139.88L114.86 157.78Z" fill="#E30B13"/>
<path d="M71.58 187.82L85.95 205.97L100.49 187.82L86.04 169.91L71.58 187.82Z" fill="#E30B13"/>
<path d="M71.58 67.8602L85.95 86.0102L100.49 67.8602L86.04 49.9502L71.58 67.8602Z" fill="#E30B13"/>
</svg>
