<svg width="180" height="254" viewBox="0 0 180 254" fill="none" xmlns="http://www.w3.org/2000/svg">
<rect x="0.5" y="0.5" width="179" height="253" rx="14.5" fill="white" stroke="#1D1D1B"/>
<path d="M49.09 59.3799C49.45 59.0699 49.78 58.7299 50.09 58.3499L60.64 45.4999L66.43 38.4399C69.41 34.8099 68.88 29.4499 65.25 26.4699L64.61 25.9399C60.98 22.9599 55.62 23.4899 52.64 27.1199L49.17 31.3499L45.77 27.1599C42.81 23.5099 37.46 22.9499 33.81 25.9099L33.17 26.4299C29.52 29.3899 28.96 34.7399 31.92 38.3899L48.14 58.3999C48.44 58.7599 48.75 59.0899 49.09 59.3799Z" fill="#E30B13"/>
<path d="M127.12 59.3799C127.48 59.0699 127.81 58.7299 128.12 58.3499L138.67 45.4999L144.46 38.4399C147.44 34.8099 146.91 29.4499 143.28 26.4699L142.64 25.9399C139.01 22.9599 133.65 23.4899 130.67 27.1199L127.2 31.3499L123.8 27.1599C120.84 23.5099 115.49 22.9499 111.84 25.9099L111.2 26.4299C107.55 29.3899 106.99 34.7399 109.95 38.3899L126.17 58.3999C126.47 58.7599 126.78 59.0899 127.12 59.3799Z" fill="#E30B13"/>
<path d="M50.2 117.5C50.56 117.19 50.89 116.85 51.2 116.47L61.75 103.61L67.54 96.5502C70.52 92.9202 69.99 87.5602 66.36 84.5802L65.72 84.0502C62.09 81.0702 56.73 81.6002 53.75 85.2302L50.28 89.4602L46.88 85.2702C43.92 81.6202 38.57 81.0602 34.92 84.0202L34.28 84.5402C30.63 87.5002 30.07 92.8502 33.03 96.5002L49.25 116.51C49.55 116.88 49.87 117.21 50.2 117.5Z" fill="#E30B13"/>
<path d="M128.23 117.5C128.59 117.19 128.92 116.85 129.23 116.47L139.78 103.61L145.57 96.5502C148.55 92.9202 148.02 87.5602 144.39 84.5802L143.75 84.0502C140.12 81.0702 134.76 81.6002 131.78 85.2302L128.31 89.4602L124.91 85.2702C121.95 81.6202 116.6 81.0602 112.95 84.0202L112.31 84.5402C108.66 87.5002 108.1 92.8502 111.06 96.5002L127.28 116.51C127.58 116.88 127.89 117.21 128.23 117.5Z" fill="#E30B13"/>
<path d="M48.83 198.61C48.47 198.92 48.14 199.26 47.83 199.64L37.27 212.5L31.48 219.56C28.5 223.19 29.03 228.55 32.66 231.53L33.3 232.06C36.93 235.04 42.29 234.51 45.27 230.88L48.74 226.65L52.14 230.84C55.1 234.49 60.45 235.05 64.1 232.09L64.74 231.57C68.39 228.61 68.95 223.26 65.99 219.61L49.77 199.6C49.48 199.23 49.16 198.9 48.83 198.61Z" fill="#E30B13"/>
<path d="M127.33 198.61C126.97 198.92 126.64 199.26 126.33 199.64L115.78 212.5L109.99 219.56C107.01 223.19 107.54 228.55 111.17 231.53L111.81 232.06C115.44 235.04 120.8 234.51 123.78 230.88L127.25 226.65L130.65 230.84C133.61 234.49 138.96 235.05 142.61 232.09L143.25 231.57C146.9 228.61 147.46 223.26 144.5 219.61L128.28 199.6C127.98 199.23 127.67 198.9 127.33 198.61Z" fill="#E30B13"/>
<path d="M14.61 49.34C14.79 49.19 14.95 49.02 15.11 48.83L20.35 42.44L23.23 38.93C24.71 37.13 24.45 34.47 22.65 32.98L22.33 32.72C20.53 31.24 17.87 31.5 16.38 33.31L14.66 35.41L12.97 33.33C11.5 31.52 8.84004 31.24 7.03004 32.71L6.70004 32.97C4.89004 34.44 4.61004 37.1 6.08004 38.91L14.14 48.85C14.29 49.03 14.44 49.19 14.61 49.34Z" fill="#E30B13"/>
<path d="M158.87 206.27C158.69 206.42 158.53 206.59 158.37 206.78L153.13 213.17L150.25 216.68C148.77 218.48 149.03 221.14 150.84 222.63L151.16 222.89C152.96 224.37 155.62 224.11 157.11 222.3L158.83 220.2L160.52 222.28C161.99 224.09 164.65 224.37 166.46 222.9L166.78 222.64C168.59 221.17 168.87 218.51 167.4 216.7L159.34 206.76C159.19 206.57 159.04 206.41 158.87 206.27Z" fill="#E30B13"/>
<path d="M50.18 141.54C49.82 141.85 49.49 142.19 49.18 142.57L38.63 155.43L32.84 162.49C29.86 166.12 30.39 171.48 34.02 174.46L34.66 174.99C38.29 177.97 43.65 177.44 46.63 173.81L50.1 169.58L53.5 173.77C56.46 177.42 61.81 177.98 65.46 175.02L66.1 174.5C69.75 171.54 70.31 166.19 67.35 162.54L51.12 142.53C50.83 142.16 50.52 141.83 50.18 141.54Z" fill="#E30B13"/>
<path d="M128.69 141.54C128.33 141.85 128 142.19 127.69 142.57L117.14 155.43L111.35 162.49C108.37 166.12 108.9 171.48 112.53 174.46L113.17 174.99C116.8 177.97 122.16 177.44 125.14 173.81L128.61 169.58L132.01 173.77C134.97 177.42 140.32 177.98 143.97 175.02L144.61 174.5C148.26 171.54 148.82 166.19 145.86 162.54L129.64 142.53C129.34 142.16 129.02 141.83 128.69 141.54Z" fill="#E30B13"/>
<path d="M89.22 146.66C89.58 146.35 89.91 146.01 90.22 145.63L100.77 132.77L106.56 125.71C109.54 122.08 109.01 116.72 105.38 113.74L104.74 113.21C101.11 110.23 95.75 110.76 92.77 114.39L89.3 118.62L85.9 114.43C82.94 110.78 77.59 110.22 73.94 113.18L73.3 113.7C69.65 116.66 69.09 122.01 72.05 125.66L88.27 145.67C88.57 146.04 88.88 146.37 89.22 146.66Z" fill="#E30B13"/>
<path d="M87.4299 88.8401C87.7899 88.5301 88.1199 88.1901 88.4299 87.8101L98.9799 74.9501L104.77 67.8901C107.75 64.2601 107.22 58.9001 103.59 55.9201L102.95 55.3901C99.3199 52.4101 93.9599 52.9401 90.9799 56.5701L87.5099 60.8001L84.1099 56.6101C81.1499 52.9601 75.7999 52.4001 72.1499 55.3601L71.5099 55.8801C67.8599 58.8401 67.2999 64.1901 70.2599 67.8401L86.4799 87.8501C86.7799 88.2201 87.0899 88.5501 87.4299 88.8401Z" fill="#E30B13"/>
<path d="M87.65 171.35C87.29 171.66 86.96 172 86.65 172.38L76.1 185.24L70.31 192.3C67.33 195.93 67.86 201.29 71.49 204.27L72.13 204.8C75.76 207.78 81.12 207.25 84.1 203.62L87.57 199.39L90.97 203.59C93.93 207.24 99.28 207.8 102.93 204.84L103.57 204.32C107.22 201.36 107.78 196.01 104.82 192.36L88.59 172.35C88.3 171.97 87.98 171.64 87.65 171.35Z" fill="#E30B13"/>
<path d="M16.78 26.9898H7.96997V24.7498H11.33V13.3098H7.96997V11.0698H13.5V24.7498H16.79V26.9898H16.78Z" fill="#E30B13"/>
<path d="M19.5 21.8398V16.1998C19.5 14.7298 20.01 13.4598 21.02 12.3998C22.03 11.3398 23.27 10.7998 24.73 10.7998C26.19 10.7998 27.42 11.3298 28.44 12.3998C29.45 13.4598 29.96 14.7298 29.96 16.1998V21.8398C29.96 23.3098 29.45 24.5898 28.44 25.6698C27.43 26.7498 26.19 27.2898 24.73 27.2898C23.27 27.2898 22.04 26.7498 21.02 25.6698C20 24.5898 19.5 23.3098 19.5 21.8398ZM21.7 16.1998V21.8398C21.7 22.6998 21.99 23.4498 22.58 24.0898C23.17 24.7298 23.88 25.0498 24.72 25.0498C25.56 25.0498 26.27 24.7298 26.86 24.0798C27.45 23.4298 27.74 22.6898 27.74 21.8398V16.1998C27.74 15.3498 27.44 14.6198 26.86 13.9998C26.27 13.3798 25.56 13.0698 24.72 13.0698C23.88 13.0698 23.17 13.3798 22.58 13.9998C22 14.6098 21.7 15.3498 21.7 16.1998Z" fill="#E30B13"/>
<path d="M158.67 230.53H167.49V232.77H164.13V244.21H167.49V246.45H161.96V232.77H158.67V230.53Z" fill="#E30B13"/>
<path d="M155.95 235.68V241.32C155.95 242.79 155.44 244.06 154.43 245.12C153.42 246.18 152.18 246.72 150.72 246.72C149.26 246.72 148.03 246.19 147.02 245.12C146.01 244.06 145.5 242.79 145.5 241.32V235.68C145.5 234.21 146.01 232.93 147.02 231.85C148.03 230.77 149.27 230.23 150.72 230.23C152.18 230.23 153.41 230.77 154.43 231.85C155.44 232.93 155.95 234.21 155.95 235.68ZM153.75 241.32V235.68C153.75 234.82 153.46 234.07 152.87 233.43C152.28 232.79 151.57 232.47 150.73 232.47C149.89 232.47 149.18 232.79 148.59 233.44C148 234.09 147.71 234.83 147.71 235.68V241.32C147.71 242.17 148 242.9 148.59 243.52C149.18 244.14 149.89 244.45 150.73 244.45C151.57 244.45 152.28 244.14 152.87 243.52C153.45 242.9 153.75 242.17 153.75 241.32Z" fill="#E30B13"/>
</svg>
