<svg width="180" height="254" viewBox="0 0 180 254" fill="none" xmlns="http://www.w3.org/2000/svg">
<rect x="0.5" y="0.5" width="179" height="253" rx="14.5" fill="white" stroke="#1D1D1B"/>
<path d="M16.78 25.9898H7.95996V23.7498H11.32V12.3098H7.95996V10.0698H13.49V23.7498H16.78V25.9898Z" fill="#13110C"/>
<path d="M19.5 20.8398V15.1998C19.5 13.7298 20.01 12.4598 21.02 11.3998C22.03 10.3398 23.27 9.7998 24.73 9.7998C26.19 9.7998 27.42 10.3298 28.44 11.3998C29.45 12.4598 29.96 13.7298 29.96 15.1998V20.8398C29.96 22.3098 29.45 23.5898 28.44 24.6698C27.43 25.7498 26.19 26.2898 24.73 26.2898C23.27 26.2898 22.04 25.7498 21.02 24.6698C20 23.5798 19.5 22.3098 19.5 20.8398ZM21.7 15.1998V20.8398C21.7 21.6998 21.99 22.4498 22.58 23.0898C23.17 23.7298 23.88 24.0498 24.72 24.0498C25.56 24.0498 26.27 23.7298 26.86 23.0798C27.45 22.4298 27.74 21.6898 27.74 20.8398V15.1998C27.74 14.3498 27.44 13.6198 26.86 12.9998C26.27 12.3798 25.56 12.0698 24.72 12.0698C23.88 12.0698 23.17 12.3798 22.58 12.9998C22 13.6098 21.7 14.3498 21.7 15.1998Z" fill="#13110C"/>
<path d="M158.66 229.53H167.48V231.77H164.12V243.21H167.48V245.45H161.95V231.77H158.66V229.53Z" fill="#13110C"/>
<path d="M155.95 234.67V240.31C155.95 241.78 155.44 243.05 154.43 244.11C153.42 245.17 152.18 245.71 150.72 245.71C149.26 245.71 148.03 245.18 147.01 244.11C146 243.05 145.49 241.78 145.49 240.31V234.67C145.49 233.2 146 231.92 147.01 230.84C148.02 229.76 149.26 229.22 150.72 229.22C152.18 229.22 153.41 229.76 154.43 230.84C155.44 231.93 155.95 233.21 155.95 234.67ZM153.74 240.32V234.68C153.74 233.82 153.45 233.07 152.86 232.43C152.27 231.79 151.56 231.47 150.72 231.47C149.88 231.47 149.17 231.79 148.58 232.44C147.99 233.09 147.7 233.83 147.7 234.68V240.32C147.7 241.17 147.99 241.9 148.58 242.52C149.17 243.14 149.88 243.45 150.72 243.45C151.56 243.45 152.27 243.14 152.86 242.52C153.45 241.9 153.74 241.17 153.74 240.32Z" fill="#13110C"/>
<path d="M18.33 41.2802L16.87 43.0602C15.62 44.5902 13.36 44.8102 11.83 43.5602L11.56 43.3402C10.03 42.0802 9.80998 39.8302 11.07 38.3002L13.51 35.3302L17.95 29.9202C18.08 29.7602 18.22 29.6202 18.37 29.4902C18.51 29.6102 18.64 29.7502 18.76 29.9002L25.59 38.3302C26.84 39.8702 26.6 42.1202 25.06 43.3702L24.79 43.5902C23.25 44.8402 21 44.6002 19.75 43.0602L18.33 41.2802L19.13 40.3402C19.13 40.3402 17.57 44.0902 15.24 46.3302H21.18C21.17 46.3302 18.28 43.3702 18.33 41.2802Z" fill="#13110C"/>
<path d="M18.33 41.2802L16.87 43.0602C15.62 44.5902 13.36 44.8102 11.83 43.5602L11.56 43.3402C10.03 42.0802 9.80998 39.8302 11.07 38.3002L13.51 35.3302L17.95 29.9202C18.08 29.7602 18.22 29.6202 18.37 29.4902C18.51 29.6102 18.64 29.7502 18.76 29.9002L25.59 38.3302C26.84 39.8702 26.6 42.1202 25.06 43.3702L24.79 43.5902C23.25 44.8402 21 44.6002 19.75 43.0602L18.33 41.2802ZM18.33 41.2802L19.13 40.3402C19.13 40.3402 17.57 44.0902 15.24 46.3302H21.18C21.17 46.3302 18.28 43.3702 18.33 41.2802Z" stroke="#13110C" stroke-miterlimit="10"/>
<path d="M163.7 214.03L165.16 212.25C166.41 210.72 168.67 210.5 170.2 211.75L170.47 211.97C172 213.22 172.22 215.48 170.97 217.01L168.53 219.98L164.09 225.39C163.96 225.55 163.82 225.69 163.67 225.83C163.53 225.71 163.4 225.57 163.28 225.42L156.45 216.99C155.2 215.45 155.44 213.2 156.98 211.95L157.25 211.73C158.79 210.49 161.04 210.72 162.29 212.26L163.7 214.03L162.9 214.97C162.9 214.97 164.46 211.21 166.8 208.98H160.86C160.86 208.99 163.75 211.95 163.7 214.03Z" fill="#13110C"/>
<path d="M163.7 214.03L165.16 212.25C166.41 210.72 168.67 210.5 170.2 211.75L170.47 211.97C172 213.22 172.22 215.48 170.97 217.01L168.53 219.98L164.09 225.39C163.96 225.55 163.82 225.69 163.67 225.83C163.53 225.71 163.4 225.57 163.28 225.42L156.45 216.99C155.2 215.45 155.44 213.2 156.98 211.95L157.25 211.73C158.79 210.49 161.04 210.72 162.29 212.26L163.7 214.03ZM163.7 214.03L162.9 214.97C162.9 214.97 164.46 211.21 166.8 208.98H160.86C160.86 208.99 163.75 211.95 163.7 214.03Z" stroke="#13110C" stroke-miterlimit="10"/>
<path d="M53.65 208.17L56.6099 204.56C59.1499 201.47 63.7099 201.02 66.8099 203.56L67.3499 204.01C70.4399 206.55 70.8899 211.11 68.3499 214.21L63.4099 220.22L54.4199 231.17C54.1599 231.49 53.8699 231.78 53.5699 232.05V232.06C53.2899 231.81 53.0199 231.53 52.7699 231.22L38.9499 214.18C36.4299 211.07 36.9099 206.51 40.0099 203.99L40.5599 203.54C43.6699 201.02 48.2299 201.5 50.7499 204.6L53.65 208.17L52.0299 210.08C52.0299 210.08 55.1799 202.49 59.9099 197.97H47.9099C47.9099 197.97 53.76 203.95 53.65 208.17Z" fill="#13110C"/>
<path d="M53.65 208.17L56.6099 204.56C59.1499 201.47 63.7099 201.02 66.8099 203.56L67.3499 204.01C70.4399 206.55 70.8899 211.11 68.3499 214.21L63.4099 220.22L54.4199 231.17C54.1599 231.49 53.8699 231.78 53.5699 232.05V232.06C53.2899 231.81 53.0199 231.53 52.7699 231.22L38.9499 214.18C36.4299 211.07 36.9099 206.51 40.0099 203.99L40.5599 203.54C43.6699 201.02 48.2299 201.5 50.7499 204.6L53.65 208.17ZM53.65 208.17L52.0299 210.08C52.0299 210.08 55.1799 202.49 59.9099 197.97H47.9099C47.9099 197.97 53.76 203.95 53.65 208.17Z" stroke="#13110C" stroke-miterlimit="10"/>
<path d="M53.2099 46.8299L50.2499 50.4399C47.7099 53.5299 43.1499 53.9799 40.0499 51.4399L39.5099 50.9899C36.4199 48.4499 35.9699 43.8899 38.5099 40.7899L43.4499 34.7799L52.4399 23.8299C52.6999 23.5099 52.9899 23.2099 53.2899 22.9499V22.9399C53.5699 23.1899 53.8399 23.4699 54.0899 23.7799L67.9099 40.8199C70.4299 43.9299 69.9499 48.4899 66.8499 51.0099L66.2999 51.4599C63.1899 53.9799 58.6299 53.4999 56.1099 50.3999L53.2099 46.8299L54.8299 44.9299C54.8299 44.9299 51.6799 52.5199 46.9499 57.0399H58.9599C58.9499 57.0399 53.1099 51.0499 53.2099 46.8299Z" fill="#13110C"/>
<path d="M53.2099 46.8299L50.2499 50.4399C47.7099 53.5299 43.1499 53.9799 40.0499 51.4399L39.5099 50.9899C36.4199 48.4499 35.9699 43.8899 38.5099 40.7899L43.4499 34.7799L52.4399 23.8299C52.6999 23.5099 52.9899 23.2099 53.2899 22.9499V22.9399C53.5699 23.1899 53.8399 23.4699 54.0899 23.7799L67.9099 40.8199C70.4299 43.9299 69.9499 48.4899 66.8499 51.0099L66.2999 51.4599C63.1899 53.9799 58.6299 53.4999 56.1099 50.3999L53.2099 46.8299ZM53.2099 46.8299L54.8299 44.9299C54.8299 44.9299 51.6799 52.5199 46.9499 57.0399H58.9599C58.9499 57.0399 53.1099 51.0499 53.2099 46.8299Z" stroke="#13110C" stroke-miterlimit="10"/>
<path d="M131.18 208L134.14 204.39C136.68 201.3 141.24 200.85 144.33 203.39L144.88 203.84C147.97 206.38 148.42 210.94 145.88 214.04L140.94 220.05L131.95 231C131.69 231.32 131.4 231.61 131.1 231.88V231.89C130.82 231.64 130.55 231.36 130.3 231.05L116.48 214.01C113.96 210.9 114.44 206.34 117.54 203.82L118.09 203.37C121.2 200.85 125.76 201.33 128.28 204.43L131.18 208L129.56 209.91C129.56 209.91 132.71 202.32 137.44 197.8H125.43C125.44 197.79 131.29 203.78 131.18 208Z" fill="#13110C"/>
<path d="M131.18 208L134.14 204.39C136.68 201.3 141.24 200.85 144.33 203.39L144.88 203.84C147.97 206.38 148.42 210.94 145.88 214.04L140.94 220.05L131.95 231C131.69 231.32 131.4 231.61 131.1 231.88V231.89C130.82 231.64 130.55 231.36 130.3 231.05L116.48 214.01C113.96 210.9 114.44 206.34 117.54 203.82L118.09 203.37C121.2 200.85 125.76 201.33 128.28 204.43L131.18 208ZM131.18 208L129.56 209.91C129.56 209.91 132.71 202.32 137.44 197.8H125.43C125.44 197.79 131.29 203.78 131.18 208Z" stroke="#13110C" stroke-miterlimit="10"/>
<path d="M130.74 46.66L127.78 50.27C125.24 53.36 120.68 53.81 117.58 51.27L117.04 50.82C113.95 48.28 113.5 43.72 116.04 40.62L120.97 34.61L129.96 23.66C130.23 23.34 130.51 23.04 130.82 22.78V22.77C131.11 23.02 131.37 23.3 131.62 23.61L145.44 40.65C147.96 43.76 147.48 48.32 144.38 50.84L143.83 51.29C140.72 53.81 136.16 53.33 133.64 50.23L130.74 46.66L132.36 44.76C132.36 44.76 129.21 52.35 124.48 56.87H136.49C136.48 56.87 130.63 50.88 130.74 46.66Z" fill="#13110C"/>
<path d="M130.74 46.66L127.78 50.27C125.24 53.36 120.68 53.81 117.58 51.27L117.04 50.82C113.95 48.28 113.5 43.72 116.04 40.62L120.97 34.61L129.96 23.66C130.23 23.34 130.51 23.04 130.82 22.78V22.77C131.11 23.02 131.37 23.3 131.62 23.61L145.44 40.65C147.96 43.76 147.48 48.32 144.38 50.84L143.83 51.29C140.72 53.81 136.16 53.33 133.64 50.23L130.74 46.66ZM130.74 46.66L132.36 44.76C132.36 44.76 129.21 52.35 124.48 56.87H136.49C136.48 56.87 130.63 50.88 130.74 46.66Z" stroke="#13110C" stroke-miterlimit="10"/>
<path d="M53.2099 104.86L50.2499 108.47C47.7099 111.56 43.1499 112.01 40.0499 109.47L39.5099 109.02C36.4199 106.48 35.9699 101.92 38.5099 98.8202L43.4399 92.8102L52.4299 81.8602C52.6999 81.5402 52.9799 81.2502 53.2899 80.9802V80.9702C53.5799 81.2202 53.8399 81.5002 54.0899 81.8102L67.9099 98.8502C70.4299 101.96 69.9499 106.52 66.8499 109.04L66.2999 109.49C63.1899 112.01 58.6299 111.53 56.1099 108.43L53.2099 104.86L54.8299 102.95C54.8299 102.95 51.6799 110.54 46.9499 115.06H58.9599C58.9499 115.06 53.0999 109.08 53.2099 104.86Z" fill="#13110C"/>
<path d="M53.2099 104.86L50.2499 108.47C47.7099 111.56 43.1499 112.01 40.0499 109.47L39.5099 109.02C36.4199 106.48 35.9699 101.92 38.5099 98.8202L43.4399 92.8102L52.4299 81.8602C52.6999 81.5402 52.9799 81.2502 53.2899 80.9802V80.9702C53.5799 81.2202 53.8399 81.5002 54.0899 81.8102L67.9099 98.8502C70.4299 101.96 69.9499 106.52 66.8499 109.04L66.2999 109.49C63.1899 112.01 58.6299 111.53 56.1099 108.43L53.2099 104.86ZM53.2099 104.86L54.8299 102.95C54.8299 102.95 51.6799 110.54 46.9499 115.06H58.9599C58.9499 115.06 53.0999 109.08 53.2099 104.86Z" stroke="#13110C" stroke-miterlimit="10"/>
<path d="M130.66 104.86L127.7 108.47C125.16 111.56 120.6 112.01 117.5 109.47L116.96 109.02C113.87 106.48 113.42 101.92 115.96 98.8202L120.89 92.8102L129.88 81.8602C130.15 81.5402 130.43 81.2502 130.74 80.9802V80.9702C131.03 81.2202 131.29 81.5002 131.54 81.8102L145.36 98.8502C147.88 101.96 147.4 106.52 144.3 109.04L143.75 109.49C140.64 112.01 136.08 111.53 133.56 108.43L130.66 104.86L132.28 102.95C132.28 102.95 129.13 110.54 124.4 115.06H136.41C136.4 115.06 130.55 109.08 130.66 104.86Z" fill="#13110C"/>
<path d="M130.66 104.86L127.7 108.47C125.16 111.56 120.6 112.01 117.5 109.47L116.96 109.02C113.87 106.48 113.42 101.92 115.96 98.8202L120.89 92.8102L129.88 81.8602C130.15 81.5402 130.43 81.2502 130.74 80.9802V80.9702C131.03 81.2202 131.29 81.5002 131.54 81.8102L145.36 98.8502C147.88 101.96 147.4 106.52 144.3 109.04L143.75 109.49C140.64 112.01 136.08 111.53 133.56 108.43L130.66 104.86ZM130.66 104.86L132.28 102.95C132.28 102.95 129.13 110.54 124.4 115.06H136.41C136.4 115.06 130.55 109.08 130.66 104.86Z" stroke="#13110C" stroke-miterlimit="10"/>
<path d="M52.43 149.12L55.39 145.51C57.93 142.42 62.49 141.97 65.58 144.51L66.13 144.96C69.22 147.5 69.67 152.06 67.13 155.16L62.19 161.17L53.2 172.12C52.94 172.44 52.65 172.74 52.35 173V173.01C52.07 172.76 51.8 172.48 51.55 172.17L37.73 155.13C35.21 152.02 35.69 147.46 38.79 144.94L39.34 144.49C42.45 141.97 47.01 142.45 49.53 145.55L52.43 149.12L50.81 151.02C50.81 151.02 53.96 143.43 58.69 138.91H46.69C46.69 138.92 52.54 144.9 52.43 149.12Z" fill="#13110C"/>
<path d="M52.43 149.12L55.39 145.51C57.93 142.42 62.49 141.97 65.58 144.51L66.13 144.96C69.22 147.5 69.67 152.06 67.13 155.16L62.19 161.17L53.2 172.12C52.94 172.44 52.65 172.74 52.35 173V173.01C52.07 172.76 51.8 172.48 51.55 172.17L37.73 155.13C35.21 152.02 35.69 147.46 38.79 144.94L39.34 144.49C42.45 141.97 47.01 142.45 49.53 145.55L52.43 149.12ZM52.43 149.12L50.81 151.02C50.81 151.02 53.96 143.43 58.69 138.91H46.69C46.69 138.92 52.54 144.9 52.43 149.12Z" stroke="#13110C" stroke-miterlimit="10"/>
<path d="M129.96 148.95L132.92 145.34C135.46 142.25 140.02 141.8 143.11 144.34L143.66 144.79C146.75 147.33 147.2 151.89 144.66 154.99L139.73 161L130.74 171.95C130.48 172.27 130.19 172.57 129.88 172.83V172.84C129.6 172.59 129.33 172.31 129.08 172L115.26 154.96C112.74 151.85 113.22 147.29 116.32 144.77L116.87 144.32C119.98 141.8 124.54 142.28 127.06 145.38L129.96 148.95L128.35 150.85C128.35 150.85 131.5 143.26 136.23 138.74H124.22C124.21 138.74 130.06 144.73 129.96 148.95Z" fill="#13110C"/>
<path d="M129.96 148.95L132.92 145.34C135.46 142.25 140.02 141.8 143.11 144.34L143.66 144.79C146.75 147.33 147.2 151.89 144.66 154.99L139.73 161L130.74 171.95C130.48 172.27 130.19 172.57 129.88 172.83V172.84C129.6 172.59 129.33 172.31 129.08 172L115.26 154.96C112.74 151.85 113.22 147.29 116.32 144.77L116.87 144.32C119.98 141.8 124.54 142.28 127.06 145.38L129.96 148.95ZM129.96 148.95L128.35 150.85C128.35 150.85 131.5 143.26 136.23 138.74H124.22C124.21 138.74 130.06 144.73 129.96 148.95Z" stroke="#13110C" stroke-miterlimit="10"/>
<path d="M90.4 75.91L87.44 79.52C84.9 82.61 80.34 83.06 77.24 80.52L76.7 80.07C73.61 77.53 73.16 72.97 75.7 69.87L80.63 63.86L89.62 52.91C89.89 52.59 90.17 52.29 90.48 52.03V52.02C90.77 52.27 91.03 52.55 91.28 52.86L105.1 69.9C107.62 73.01 107.14 77.57 104.04 80.09L103.49 80.54C100.38 83.06 95.82 82.58 93.3 79.48L90.4 75.91L92.02 74.01C92.02 74.01 88.87 81.6 84.14 86.12H96.15C96.14 86.11 90.29 80.13 90.4 75.91Z" fill="#13110C"/>
<path d="M90.4 75.91L87.44 79.52C84.9 82.61 80.34 83.06 77.24 80.52L76.7 80.07C73.61 77.53 73.16 72.97 75.7 69.87L80.63 63.86L89.62 52.91C89.89 52.59 90.17 52.29 90.48 52.03V52.02C90.77 52.27 91.03 52.55 91.28 52.86L105.1 69.9C107.62 73.01 107.14 77.57 104.04 80.09L103.49 80.54C100.38 83.06 95.82 82.58 93.3 79.48L90.4 75.91ZM90.4 75.91L92.02 74.01C92.02 74.01 88.87 81.6 84.14 86.12H96.15C96.14 86.11 90.29 80.13 90.4 75.91Z" stroke="#13110C" stroke-miterlimit="10"/>
<path d="M90.37 176.06L93.33 172.45C95.87 169.36 100.43 168.91 103.53 171.45L104.07 171.9C107.16 174.44 107.61 179 105.07 182.1L100.13 188.11L91.14 199.06C90.88 199.38 90.59 199.68 90.29 199.94V199.95C90.01 199.7 89.74 199.42 89.49 199.11L75.67 182.07C73.15 178.96 73.63 174.4 76.73 171.88L77.28 171.43C80.39 168.91 84.95 169.39 87.47 172.49L90.37 176.06L88.75 177.96C88.75 177.96 91.9 170.37 96.63 165.85H84.62C84.62 165.86 90.47 171.84 90.37 176.06Z" fill="#13110C"/>
<path d="M90.37 176.06L93.33 172.45C95.87 169.36 100.43 168.91 103.53 171.45L104.07 171.9C107.16 174.44 107.61 179 105.07 182.1L100.13 188.11L91.14 199.06C90.88 199.38 90.59 199.68 90.29 199.94V199.95C90.01 199.7 89.74 199.42 89.49 199.11L75.67 182.07C73.15 178.96 73.63 174.4 76.73 171.88L77.28 171.43C80.39 168.91 84.95 169.39 87.47 172.49L90.37 176.06ZM90.37 176.06L88.75 177.96C88.75 177.96 91.9 170.37 96.63 165.85H84.62C84.62 165.86 90.47 171.84 90.37 176.06Z" stroke="#13110C" stroke-miterlimit="10"/>
</svg>
