<svg width="180" height="254" viewBox="0 0 180 254" fill="none" xmlns="http://www.w3.org/2000/svg">
<rect x="0.5" y="0.5" width="179" height="253" rx="14.5" fill="white" stroke="#1D1D1B"/>
<path d="M19.72 19.7502H21.97V24.2902H10.71V23.1302C10.71 21.0202 11.49 19.1202 13.04 17.4402C13.65 16.8002 15.1 15.6402 17.39 13.9802C18.94 12.8502 19.72 11.8702 19.72 11.0602C19.72 10.3002 19.29 9.72023 18.43 9.30023C17.75 8.96023 16.98 8.80023 16.12 8.80023C14.01 8.80023 12.96 9.50023 12.96 10.9002C12.96 11.1902 13.04 11.5202 13.19 11.8902L11.09 12.7702C10.84 12.1102 10.71 11.4902 10.71 10.9002C10.71 9.44023 11.26 8.32023 12.35 7.54023C13.33 6.84023 14.58 6.49023 16.1 6.49023C17.62 6.49023 18.93 6.87023 20.04 7.62023C21.32 8.47023 21.96 9.62023 21.96 11.0602C21.96 12.4002 21.28 13.6602 19.93 14.8402C18.61 15.8502 17.29 16.8602 15.96 17.8602C14.41 19.1502 13.48 20.5202 13.15 21.9802H19.7V19.7502H19.72Z" fill="#1D1D1B"/>
<path d="M158.49 231.97H156.24V227.43H167.5V228.59C167.5 230.7 166.72 232.6 165.17 234.28C164.56 234.92 163.11 236.08 160.82 237.74C159.27 238.87 158.49 239.85 158.49 240.66C158.49 241.42 158.92 242 159.78 242.42C160.46 242.76 161.23 242.92 162.09 242.92C164.2 242.92 165.25 242.22 165.25 240.82C165.25 240.53 165.17 240.2 165.02 239.83L167.12 238.95C167.37 239.61 167.5 240.23 167.5 240.82C167.5 242.28 166.95 243.4 165.86 244.18C164.88 244.88 163.63 245.23 162.11 245.23C160.59 245.23 159.28 244.85 158.17 244.1C156.89 243.25 156.25 242.1 156.25 240.66C156.25 239.32 156.93 238.06 158.28 236.88C159.6 235.87 160.92 234.86 162.25 233.86C163.8 232.57 164.73 231.2 165.06 229.74H158.51V231.97H158.49Z" fill="#1D1D1B"/>
<path d="M16.17 42.9699C16.54 44.0999 17.23 45.6799 18.4 46.3699H13.57C14.81 45.3899 15.38 43.9599 15.63 42.9499C14.95 44.1399 13.66 44.9399 12.19 44.9399C10 44.9399 8.23 43.1599 8.23 40.9799C8.23 38.7899 10 37.0199 12.19 37.0199C12.63 37.0199 13.06 37.0899 13.45 37.2199C12.68 36.4999 12.19 35.4699 12.19 34.3199C12.19 32.1299 13.96 30.3599 16.15 30.3599C18.34 30.3599 20.11 32.1399 20.11 34.3199C20.11 35.5399 19.56 36.6299 18.69 37.3599C19.01 37.2699 19.35 37.2299 19.71 37.2299C21.9 37.2299 23.67 38.9999 23.67 41.1899C23.67 43.3799 21.9 45.1499 19.71 45.1499C18.16 45.1599 16.82 44.2699 16.17 42.9699Z" fill="#1D1D1B"/>
<path d="M163.19 210.94C162.82 209.81 162.13 208.23 160.96 207.54H165.79C164.55 208.52 163.98 209.95 163.73 210.96C164.41 209.77 165.7 208.97 167.17 208.97C169.36 208.97 171.13 210.75 171.13 212.93C171.13 215.12 169.36 216.89 167.17 216.89C166.73 216.89 166.3 216.82 165.91 216.69C166.68 217.41 167.17 218.44 167.17 219.59C167.17 221.78 165.4 223.55 163.21 223.55C161.02 223.55 159.25 221.77 159.25 219.59C159.25 218.37 159.8 217.28 160.67 216.55C160.35 216.64 160.01 216.68 159.65 216.68C157.46 216.68 155.69 214.91 155.69 212.72C155.69 210.53 157.46 208.76 159.65 208.76C161.2 208.76 162.54 209.65 163.19 210.94Z" fill="#1D1D1B"/>
<path d="M89.8 47.0199C90.6 49.4899 92.12 52.9399 94.67 54.4499H84.1C86.81 52.2999 88.05 49.1899 88.62 46.9699C87.12 49.5699 84.32 51.3199 81.1 51.3199C76.31 51.3199 72.43 47.4399 72.43 42.6499C72.43 37.8599 76.31 33.9799 81.1 33.9799C82.06 33.9799 82.99 34.1399 83.86 34.4299H83.85C82.16 32.8499 81.1 30.5899 81.1 28.0899C81.1 23.2999 84.98 19.4199 89.77 19.4199C94.56 19.4199 98.44 23.2999 98.44 28.0899C98.44 30.7599 97.23 33.1499 95.33 34.7399C96.04 34.5499 96.78 34.4499 97.55 34.4499C102.34 34.4499 106.22 38.3299 106.22 43.1199C106.22 47.9099 102.34 51.7899 97.55 51.7899C94.16 51.7999 91.22 49.8499 89.8 47.0199Z" fill="#1D1D1B"/>
<path d="M88.85 206.45C88.05 203.98 86.53 200.53 83.98 199.02H94.55C91.84 201.17 90.6 204.28 90.03 206.5C91.53 203.9 94.33 202.15 97.55 202.15C102.34 202.15 106.22 206.03 106.22 210.82C106.22 215.61 102.34 219.49 97.55 219.49C96.59 219.49 95.66 219.33 94.79 219.04H94.8C96.49 220.62 97.55 222.88 97.55 225.38C97.55 230.17 93.67 234.05 88.88 234.05C84.09 234.05 80.21 230.17 80.21 225.38C80.21 222.71 81.42 220.32 83.32 218.73C82.61 218.92 81.87 219.02 81.1 219.02C76.31 219.02 72.43 215.14 72.43 210.35C72.43 205.56 76.31 201.68 81.1 201.68C84.49 201.67 87.42 203.62 88.85 206.45Z" fill="#1D1D1B"/>
</svg>
