<svg width="180" height="254" viewBox="0 0 180 254" fill="none" xmlns="http://www.w3.org/2000/svg">
<rect x="0.5" y="0.5" width="179" height="253" rx="14.5" fill="white" stroke="#1D1D1B"/>
<path d="M19.72 20.7502H21.97V25.2902H10.71V24.1302C10.71 22.0202 11.49 20.1202 13.04 18.4402C13.65 17.8002 15.1 16.6402 17.39 14.9802C18.94 13.8502 19.72 12.8702 19.72 12.0602C19.72 11.3002 19.29 10.7202 18.43 10.3002C17.75 9.96023 16.98 9.80023 16.12 9.80023C14.01 9.80023 12.96 10.5002 12.96 11.9002C12.96 12.1902 13.04 12.5202 13.19 12.8902L11.09 13.7702C10.84 13.1102 10.71 12.4902 10.71 11.9002C10.71 10.4402 11.26 9.32023 12.35 8.54023C13.33 7.84023 14.58 7.49023 16.1 7.49023C17.62 7.49023 18.93 7.87023 20.04 8.62023C21.32 9.48023 21.96 10.6202 21.96 12.0702C21.96 13.4102 21.28 14.6702 19.93 15.8502C18.61 16.8602 17.29 17.8702 15.96 18.8702C14.41 20.1602 13.48 21.5302 13.15 22.9902H19.7V20.7502H19.72Z" fill="#E30B13"/>
<path d="M158.49 232.97H156.24V228.43H167.5V229.59C167.5 231.7 166.72 233.6 165.17 235.28C164.56 235.92 163.11 237.08 160.82 238.74C159.27 239.87 158.49 240.85 158.49 241.66C158.49 242.42 158.92 243 159.78 243.42C160.46 243.76 161.23 243.92 162.09 243.92C164.2 243.92 165.25 243.22 165.25 241.82C165.25 241.53 165.17 241.2 165.02 240.83L167.12 239.95C167.37 240.61 167.5 241.23 167.5 241.82C167.5 243.28 166.95 244.4 165.86 245.18C164.88 245.88 163.63 246.23 162.11 246.23C160.59 246.23 159.28 245.85 158.17 245.1C156.89 244.25 156.25 243.1 156.25 241.66C156.25 240.32 156.93 239.06 158.28 237.88C159.6 236.87 160.92 235.86 162.25 234.86C163.8 233.57 164.73 232.2 165.06 230.74H158.51V232.97H158.49Z" fill="#E30B13"/>
<path d="M9.07001 37.4002L16.07 46.2502L23.16 37.4002L16.12 28.6802L9.07001 37.4002Z" fill="#E30B13"/>
<path d="M155.05 214.67L162.05 223.51L169.13 214.67L162.09 205.94L155.05 214.67Z" fill="#E30B13"/>
<path d="M69 37.3402L83.36 55.4902L97.91 37.3402L83.45 19.4302L69 37.3402Z" fill="#E30B13"/>
<path d="M73.69 217.92L88.05 236.07L102.6 217.92L88.14 200.01L73.69 217.92Z" fill="#E30B13"/>
</svg>
