<svg width="180" height="254" viewBox="0 0 180 254" fill="none" xmlns="http://www.w3.org/2000/svg">
<rect x="0.5" y="0.5" width="179" height="253" rx="14.5" fill="white" stroke="#1D1D1B"/>
<path d="M90.22 57.0901C90.58 56.7801 90.91 56.4401 91.22 56.0601L101.77 43.2001L107.56 36.1401C110.54 32.5101 110.01 27.1501 106.38 24.1701L105.74 23.6401C102.11 20.6601 96.75 21.1901 93.77 24.8201L90.3 29.0501L86.9 24.8601C83.94 21.2101 78.59 20.6501 74.94 23.6101L74.3 24.1301C70.65 27.0901 70.09 32.4401 73.05 36.0901L89.28 56.1001C89.57 56.4701 89.88 56.8001 90.22 57.0901Z" fill="#E30B13"/>
<path d="M90 195.63C89.64 195.94 89.31 196.28 89 196.66L78.45 209.52L72.66 216.58C69.68 220.21 70.21 225.57 73.84 228.55L74.48 229.08C78.11 232.06 83.47 231.53 86.45 227.9L89.92 223.67L93.32 227.86C96.28 231.51 101.63 232.07 105.28 229.11L105.92 228.59C109.57 225.63 110.13 220.28 107.17 216.63L90.94 196.62C90.65 196.25 90.33 195.92 90 195.63Z" fill="#E30B13"/>
<path d="M161.2 205.38C161.02 205.53 160.86 205.7 160.7 205.89L155.46 212.28L152.58 215.78C151.1 217.58 151.36 220.24 153.16 221.73L153.48 221.99C155.28 223.47 157.94 223.21 159.43 221.41L161.16 219.31L162.85 221.39C164.32 223.2 166.98 223.48 168.79 222.01L169.11 221.75C170.92 220.28 171.2 217.62 169.73 215.81L161.67 205.87C161.53 205.69 161.37 205.52 161.2 205.38Z" fill="#E30B13"/>
<path d="M16.54 49.4998C16.72 49.3498 16.88 49.1798 17.04 48.9898L22.28 42.5998L25.16 39.0998C26.64 37.2998 26.38 34.6398 24.58 33.1498L24.26 32.8898C22.46 31.4098 19.8 31.6698 18.31 33.4698L16.58 35.5698L14.89 33.4898C13.42 31.6798 10.76 31.3998 8.95001 32.8698L8.63001 33.1298C6.82001 34.5998 6.54001 37.2598 8.01001 39.0698L16.07 49.0098C16.22 49.1898 16.38 49.3498 16.54 49.4998Z" fill="#E30B13"/>
<path d="M20.72 20.7502H22.97V25.2902H11.71V24.1302C11.71 22.0202 12.49 20.1202 14.04 18.4402C14.65 17.8002 16.1 16.6402 18.39 14.9802C19.94 13.8502 20.72 12.8702 20.72 12.0602C20.72 11.3002 20.29 10.7202 19.43 10.3002C18.75 9.96023 17.98 9.80023 17.12 9.80023C15.01 9.80023 13.96 10.5002 13.96 11.9002C13.96 12.1902 14.04 12.5202 14.19 12.8902L12.09 13.7702C11.84 13.1102 11.71 12.4902 11.71 11.9002C11.71 10.4402 12.26 9.32023 13.35 8.54023C14.33 7.84023 15.58 7.49023 17.1 7.49023C18.62 7.49023 19.93 7.87023 21.04 8.62023C22.32 9.47023 22.96 10.6202 22.96 12.0602C22.96 13.4002 22.28 14.6602 20.93 15.8402C19.61 16.8502 18.29 17.8602 16.96 18.8602C15.41 20.1502 14.48 21.5202 14.15 22.9802H20.7V20.7502H20.72Z" fill="#E30B13"/>
<path d="M157.93 234.68H155.68V230.14H166.94V231.3C166.94 233.41 166.16 235.31 164.61 236.99C164 237.63 162.55 238.79 160.26 240.45C158.71 241.58 157.93 242.56 157.93 243.37C157.93 244.13 158.36 244.71 159.22 245.13C159.9 245.47 160.67 245.63 161.53 245.63C163.64 245.63 164.69 244.93 164.69 243.53C164.69 243.24 164.61 242.91 164.46 242.54L166.56 241.66C166.81 242.32 166.94 242.94 166.94 243.53C166.94 244.99 166.39 246.11 165.3 246.89C164.32 247.59 163.07 247.94 161.55 247.94C160.03 247.94 158.72 247.56 157.61 246.81C156.33 245.96 155.69 244.81 155.69 243.37C155.69 242.03 156.37 240.77 157.72 239.59C159.04 238.58 160.36 237.57 161.69 236.57C163.24 235.28 164.17 233.91 164.5 232.45H157.95V234.68H157.93Z" fill="#E30B13"/>
</svg>
