<svg width="180" height="254" viewBox="0 0 180 254" fill="none" xmlns="http://www.w3.org/2000/svg">
<rect x="0.5" y="0.5" width="179" height="253" rx="14.5" fill="white" stroke="#1D1D1B"/>
<path d="M88.92 207.96L91.88 204.35C94.42 201.26 98.98 200.81 102.07 203.35L102.62 203.8C105.71 206.34 106.16 210.9 103.62 214L98.69 220.01L89.7 230.96C89.44 231.28 89.15 231.58 88.85 231.84V231.85C88.57 231.6 88.3 231.32 88.05 231.01L74.23 213.97C71.71 210.86 72.19 206.3 75.29 203.78L75.84 203.33C78.95 200.81 83.51 201.29 86.03 204.39L88.92 207.96L87.31 209.86C87.31 209.86 90.46 202.27 95.19 197.75H83.18C83.18 197.75 89.03 203.74 88.92 207.96Z" fill="#13110C"/>
<path d="M88.92 207.96L91.88 204.35C94.42 201.26 98.98 200.81 102.07 203.35L102.62 203.8C105.71 206.34 106.16 210.9 103.62 214L98.69 220.01L89.7 230.96C89.44 231.28 89.15 231.58 88.85 231.84V231.85C88.57 231.6 88.3 231.32 88.05 231.01L74.23 213.97C71.71 210.86 72.19 206.3 75.29 203.78L75.84 203.33C78.95 200.81 83.51 201.29 86.03 204.39L88.92 207.96ZM88.92 207.96L87.31 209.86C87.31 209.86 90.46 202.27 95.19 197.75H83.18C83.18 197.75 89.03 203.74 88.92 207.96Z" stroke="#13110C" stroke-miterlimit="10"/>
<path d="M19.72 19.7502H21.97V24.2902H10.71V23.1302C10.71 21.0202 11.49 19.1202 13.04 17.4402C13.65 16.8002 15.1 15.6402 17.39 13.9802C18.94 12.8502 19.72 11.8702 19.72 11.0602C19.72 10.3002 19.29 9.72023 18.43 9.30023C17.75 8.96023 16.98 8.80023 16.12 8.80023C14.01 8.80023 12.96 9.50023 12.96 10.9002C12.96 11.1902 13.04 11.5202 13.19 11.8902L11.09 12.7702C10.84 12.1102 10.71 11.4902 10.71 10.9002C10.71 9.44023 11.26 8.32023 12.35 7.54023C13.33 6.84023 14.58 6.49023 16.1 6.49023C17.62 6.49023 18.93 6.87023 20.04 7.62023C21.32 8.47023 21.96 9.62023 21.96 11.0602C21.96 12.4002 21.28 13.6602 19.93 14.8402C18.61 15.8502 17.29 16.8602 15.96 17.8602C14.41 19.1502 13.48 20.5202 13.15 21.9802H19.7V19.7502H19.72Z" fill="#13110C"/>
<path d="M156.93 233.68H154.68V229.14H165.94V230.3C165.94 232.41 165.16 234.31 163.61 235.99C163 236.63 161.55 237.79 159.26 239.45C157.71 240.58 156.93 241.56 156.93 242.37C156.93 243.13 157.36 243.71 158.22 244.13C158.9 244.47 159.67 244.63 160.53 244.63C162.64 244.63 163.69 243.93 163.69 242.53C163.69 242.24 163.61 241.91 163.46 241.54L165.56 240.66C165.81 241.32 165.94 241.94 165.94 242.53C165.94 243.99 165.39 245.11 164.3 245.89C163.32 246.59 162.07 246.94 160.55 246.94C159.03 246.94 157.72 246.56 156.61 245.81C155.33 244.96 154.69 243.81 154.69 242.37C154.69 241.03 155.37 239.77 156.72 238.59C158.04 237.58 159.36 236.57 160.69 235.57C162.24 234.28 163.17 232.91 163.5 231.45H156.95V233.68H156.93Z" fill="#13110C"/>
<path d="M15.69 40.3901L14.23 42.1701C12.98 43.7001 10.72 43.9201 9.19 42.6701L8.92 42.4501C7.39 41.1901 7.17 38.9401 8.42 37.4101L10.86 34.4401L15.3 29.0301C15.43 28.8701 15.57 28.7301 15.72 28.6001C15.86 28.7201 15.99 28.8601 16.11 29.0101L22.94 37.4401C24.19 38.9801 23.95 41.2301 22.41 42.4801L22.14 42.7001C20.6 43.9501 18.35 43.7101 17.1 42.1701L15.69 40.3901L16.49 39.4501C16.49 39.4501 14.93 43.2001 12.59 45.4401H18.53C18.53 45.4301 15.64 42.4701 15.69 40.3901Z" fill="#13110C"/>
<path d="M15.69 40.3901L14.23 42.1701C12.98 43.7001 10.72 43.9201 9.19 42.6701L8.92 42.4501C7.39 41.1901 7.17 38.9401 8.42 37.4101L10.86 34.4401L15.3 29.0301C15.43 28.8701 15.57 28.7301 15.72 28.6001C15.86 28.7201 15.99 28.8601 16.11 29.0101L22.94 37.4401C24.19 38.9801 23.95 41.2301 22.41 42.4801L22.14 42.7001C20.6 43.9501 18.35 43.7101 17.1 42.1701L15.69 40.3901ZM15.69 40.3901L16.49 39.4501C16.49 39.4501 14.93 43.2001 12.59 45.4401H18.53C18.53 45.4301 15.64 42.4701 15.69 40.3901Z" stroke="#13110C" stroke-miterlimit="10"/>
<path d="M161.05 213.14L162.51 211.36C163.76 209.83 166.02 209.61 167.55 210.86L167.82 211.08C169.35 212.33 169.57 214.59 168.32 216.12L165.88 219.09L161.44 224.5C161.31 224.66 161.17 224.8 161.02 224.94C160.88 224.82 160.75 224.68 160.63 224.53L153.8 216.1C152.55 214.56 152.79 212.31 154.33 211.06L154.6 210.84C156.14 209.6 158.39 209.83 159.64 211.37L161.05 213.14L160.25 214.08C160.25 214.08 161.81 210.32 164.15 208.09H158.21C158.21 208.09 161.1 211.05 161.05 213.14Z" fill="#13110C"/>
<path d="M161.05 213.14L162.51 211.36C163.76 209.83 166.02 209.61 167.55 210.86L167.82 211.08C169.35 212.33 169.57 214.59 168.32 216.12L165.88 219.09L161.44 224.5C161.31 224.66 161.17 224.8 161.02 224.94C160.88 224.82 160.75 224.68 160.63 224.53L153.8 216.1C152.55 214.56 152.79 212.31 154.33 211.06L154.6 210.84C156.14 209.6 158.39 209.83 159.64 211.37L161.05 213.14ZM161.05 213.14L160.25 214.08C160.25 214.08 161.81 210.32 164.15 208.09H158.21C158.21 208.09 161.1 211.05 161.05 213.14Z" stroke="#13110C" stroke-miterlimit="10"/>
<path d="M88.48 46.62L85.52 50.23C82.98 53.32 78.42 53.77 75.33 51.23L74.78 50.78C71.69 48.24 71.24 43.68 73.78 40.58L78.71 34.57L87.7 23.62C87.96 23.3 88.25 23.01 88.55 22.74V22.73C88.83 22.98 89.1 23.26 89.35 23.57L103.17 40.61C105.69 43.72 105.21 48.28 102.11 50.8L101.56 51.25C98.45 53.77 93.89 53.29 91.37 50.19L88.48 46.62L90.09 44.71C90.09 44.71 86.94 52.3 82.21 56.82H94.22C94.23 56.82 88.38 50.84 88.48 46.62Z" fill="#13110C"/>
<path d="M88.48 46.62L85.52 50.23C82.98 53.32 78.42 53.77 75.33 51.23L74.78 50.78C71.69 48.24 71.24 43.68 73.78 40.58L78.71 34.57L87.7 23.62C87.96 23.3 88.25 23.01 88.55 22.74V22.73C88.83 22.98 89.1 23.26 89.35 23.57L103.17 40.61C105.69 43.72 105.21 48.28 102.11 50.8L101.56 51.25C98.45 53.77 93.89 53.29 91.37 50.19L88.48 46.62ZM88.48 46.62L90.09 44.71C90.09 44.71 86.94 52.3 82.21 56.82H94.22C94.23 56.82 88.38 50.84 88.48 46.62Z" stroke="#13110C" stroke-miterlimit="10"/>
</svg>
