<svg width="180" height="254" viewBox="0 0 180 254" fill="none" xmlns="http://www.w3.org/2000/svg">
<rect x="0.5" y="0.5" width="179" height="253" rx="14.5" fill="white" stroke="#1D1D1B"/>
<path d="M16.89 25.8002C15.55 25.8002 14.34 25.3402 13.28 24.4102C12.31 23.5702 11.6 22.4802 11.14 21.1302L13.29 20.3702C13.58 21.2502 14.03 21.9602 14.62 22.5202C15.29 23.1602 16.06 23.4802 16.91 23.4802C17.98 23.4802 18.9 23.0602 19.67 22.2202C20.44 21.3802 20.83 20.4302 20.83 19.3702C20.83 18.3202 20.5 17.4702 19.84 16.8202C19.18 16.1602 18.32 15.8402 17.25 15.8402C16.76 15.8402 16.37 15.9002 16.09 16.0302C15.81 16.1602 15.47 16.4002 15.08 16.7702L13.46 15.1702L18.69 10.2602H13.65V12.5102H11.4V7.9502H22.89V9.4002L18.41 13.6402C19.83 13.9102 20.96 14.5702 21.81 15.6302C22.66 16.6902 23.08 17.9402 23.08 19.4002C23.08 21.1002 22.47 22.5902 21.25 23.8802C20.02 25.1502 18.57 25.8002 16.89 25.8002Z" fill="#1D1D1B"/>
<path d="M163.73 227.72C165.07 227.72 166.28 228.18 167.34 229.11C168.31 229.95 169.02 231.04 169.48 232.39L167.33 233.15C167.04 232.27 166.59 231.56 166 231C165.33 230.36 164.56 230.04 163.71 230.04C162.64 230.04 161.72 230.46 160.95 231.3C160.18 232.14 159.79 233.09 159.79 234.15C159.79 235.2 160.12 236.05 160.78 236.7C161.44 237.36 162.3 237.68 163.37 237.68C163.86 237.68 164.25 237.62 164.53 237.49C164.81 237.36 165.15 237.12 165.54 236.75L167.16 238.35L161.93 243.26H166.97V241.01H169.22V245.57H157.73V244.12L162.21 239.88C160.79 239.61 159.66 238.95 158.81 237.89C157.96 236.83 157.54 235.58 157.54 234.12C157.54 232.42 158.15 230.93 159.37 229.64C160.61 228.37 162.05 227.72 163.73 227.72Z" fill="#1D1D1B"/>
<path d="M16.64 43.0099C17.01 44.1399 17.7 45.7199 18.87 46.4099H14.04C15.28 45.4299 15.85 43.9999 16.1 42.9899C15.42 44.1799 14.13 44.9799 12.66 44.9799C10.47 44.9799 8.7 43.1999 8.7 41.0199C8.7 38.8299 10.47 37.0599 12.66 37.0599C13.1 37.0599 13.53 37.1299 13.92 37.2599C13.15 36.5399 12.66 35.5099 12.66 34.3599C12.66 32.1699 14.43 30.3999 16.62 30.3999C18.81 30.3999 20.58 32.1799 20.58 34.3599C20.58 35.5799 20.03 36.6699 19.16 37.3999C19.48 37.3099 19.82 37.2699 20.18 37.2699C22.37 37.2699 24.14 39.0399 24.14 41.2299C24.14 43.4199 22.37 45.1899 20.18 45.1899C18.63 45.1999 17.29 44.3099 16.64 43.0099Z" fill="#1D1D1B"/>
<path d="M163.65 210.98C163.28 209.85 162.59 208.27 161.42 207.58H166.25C165.01 208.56 164.44 209.99 164.19 211C164.87 209.81 166.16 209.01 167.63 209.01C169.82 209.01 171.59 210.79 171.59 212.97C171.59 215.16 169.82 216.93 167.63 216.93C167.19 216.93 166.76 216.86 166.37 216.73C167.14 217.45 167.63 218.48 167.63 219.63C167.63 221.82 165.86 223.59 163.67 223.59C161.48 223.59 159.71 221.81 159.71 219.63C159.71 218.41 160.26 217.32 161.13 216.59C160.81 216.68 160.47 216.72 160.11 216.72C157.92 216.72 156.15 214.95 156.15 212.76C156.15 210.57 157.92 208.8 160.11 208.8C161.66 208.79 163 209.68 163.65 210.98Z" fill="#1D1D1B"/>
<path d="M89.8 47.2802C90.6 49.7502 92.12 53.2002 94.67 54.7102H84.1C86.81 52.5602 88.05 49.4502 88.62 47.2302C87.12 49.8302 84.32 51.5802 81.1 51.5802C76.31 51.5802 72.43 47.7002 72.43 42.9102C72.43 38.1202 76.31 34.2402 81.1 34.2402C82.06 34.2402 82.99 34.4002 83.86 34.6902H83.85C82.16 33.1102 81.1 30.8502 81.1 28.3502C81.1 23.5602 84.98 19.6802 89.77 19.6802C94.56 19.6802 98.44 23.5602 98.44 28.3502C98.44 31.0202 97.23 33.4102 95.33 35.0002C96.04 34.8102 96.78 34.7102 97.55 34.7102C102.34 34.7102 106.22 38.5902 106.22 43.3802C106.22 48.1702 102.34 52.0502 97.55 52.0502C94.16 52.0602 91.22 50.1102 89.8 47.2802Z" fill="#1D1D1B"/>
<path d="M88.85 206.71C88.05 204.24 86.53 200.79 83.98 199.28H94.55C91.84 201.43 90.6 204.54 90.03 206.76C91.53 204.16 94.33 202.41 97.55 202.41C102.34 202.41 106.22 206.29 106.22 211.08C106.22 215.87 102.34 219.75 97.55 219.75C96.59 219.75 95.66 219.59 94.79 219.3H94.8C96.49 220.88 97.55 223.14 97.55 225.64C97.55 230.43 93.67 234.31 88.88 234.31C84.09 234.31 80.21 230.43 80.21 225.64C80.21 222.97 81.42 220.58 83.32 218.99C82.61 219.18 81.87 219.28 81.1 219.28C76.31 219.28 72.43 215.4 72.43 210.61C72.43 205.82 76.31 201.94 81.1 201.94C84.49 201.93 87.42 203.88 88.85 206.71Z" fill="#1D1D1B"/>
<path d="M89.8 137.07C90.6 139.54 92.12 142.99 94.67 144.5H84.1C86.81 142.35 88.05 139.24 88.62 137.02C87.12 139.62 84.32 141.37 81.1 141.37C76.31 141.37 72.43 137.49 72.43 132.7C72.43 127.91 76.31 124.03 81.1 124.03C82.06 124.03 82.99 124.19 83.86 124.48H83.85C82.16 122.9 81.1 120.64 81.1 118.14C81.1 113.35 84.98 109.47 89.77 109.47C94.56 109.47 98.44 113.35 98.44 118.14C98.44 120.81 97.23 123.2 95.33 124.79C96.04 124.6 96.78 124.5 97.55 124.5C102.34 124.5 106.22 128.38 106.22 133.17C106.22 137.96 102.34 141.84 97.55 141.84C94.16 141.85 91.22 139.91 89.8 137.07Z" fill="#1D1D1B"/>
</svg>
