<svg width="180" height="254" viewBox="0 0 180 254" fill="none" xmlns="http://www.w3.org/2000/svg">
<rect x="0.5" y="0.5" width="179" height="253" rx="14.5" fill="white" stroke="#1D1D1B"/>
<path d="M17.84 26.8002C16.5 26.8002 15.29 26.3402 14.23 25.4102C13.26 24.5702 12.55 23.4802 12.09 22.1302L14.24 21.3702C14.53 22.2502 14.98 22.9602 15.57 23.5202C16.24 24.1602 17.01 24.4802 17.86 24.4802C18.93 24.4802 19.85 24.0602 20.62 23.2202C21.39 22.3802 21.78 21.4302 21.78 20.3702C21.78 19.3202 21.45 18.4702 20.79 17.8202C20.13 17.1602 19.27 16.8402 18.2 16.8402C17.71 16.8402 17.32 16.9002 17.04 17.0302C16.76 17.1602 16.42 17.4002 16.03 17.7702L14.41 16.1702L19.64 11.2602H14.6V13.5102H12.35V8.9502H23.84V10.4002L19.36 14.6402C20.78 14.9102 21.91 15.5702 22.76 16.6302C23.61 17.6902 24.03 18.9402 24.03 20.4002C24.03 22.1002 23.42 23.5902 22.2 24.8802C20.97 26.1502 19.52 26.8002 17.84 26.8002Z" fill="#E30B13"/>
<path d="M164.68 228.72C166.02 228.72 167.23 229.18 168.29 230.11C169.26 230.95 169.97 232.04 170.43 233.39L168.28 234.15C167.99 233.27 167.54 232.56 166.95 232C166.28 231.36 165.51 231.04 164.66 231.04C163.59 231.04 162.67 231.46 161.9 232.3C161.13 233.14 160.74 234.09 160.74 235.15C160.74 236.2 161.07 237.05 161.73 237.7C162.39 238.36 163.25 238.68 164.32 238.68C164.81 238.68 165.2 238.62 165.48 238.49C165.76 238.36 166.1 238.12 166.49 237.75L168.11 239.35L162.88 244.26H167.92V242.01H170.17V246.57H158.7V245.12L163.18 240.88C161.76 240.61 160.63 239.95 159.78 238.89C158.93 237.83 158.51 236.58 158.51 235.12C158.51 233.42 159.12 231.93 160.34 230.64C161.55 229.37 163 228.72 164.68 228.72Z" fill="#E30B13"/>
<path d="M10.8 37.9898L17.8 46.8298L24.89 37.9898L17.85 29.2598L10.8 37.9898Z" fill="#E30B13"/>
<path d="M156.78 215.25L163.78 224.09L170.86 215.25L163.82 206.52L156.78 215.25Z" fill="#E30B13"/>
<path d="M75.82 34.45L90.18 52.6L104.73 34.45L90.27 16.54L75.82 34.45Z" fill="#E30B13"/>
<path d="M75.82 215.02L90.18 233.18L104.73 215.02L90.27 197.12L75.82 215.02Z" fill="#E30B13"/>
<path d="M75.82 124.33L90.18 142.48L104.73 124.33L90.27 106.42L75.82 124.33Z" fill="#E30B13"/>
</svg>
