<svg width="180" height="254" viewBox="0 0 180 254" fill="none" xmlns="http://www.w3.org/2000/svg">
<rect x="0.5" y="0.5" width="179" height="253" rx="14.5" fill="white" stroke="#1D1D1B"/>
<path d="M17.84 25.8002C16.5 25.8002 15.29 25.3402 14.23 24.4102C13.26 23.5702 12.55 22.4802 12.09 21.1302L14.24 20.3702C14.53 21.2502 14.98 21.9602 15.57 22.5202C16.24 23.1602 17.01 23.4802 17.86 23.4802C18.93 23.4802 19.85 23.0602 20.62 22.2202C21.39 21.3802 21.78 20.4302 21.78 19.3702C21.78 18.3202 21.45 17.4702 20.79 16.8202C20.13 16.1602 19.27 15.8402 18.2 15.8402C17.71 15.8402 17.32 15.9002 17.04 16.0302C16.76 16.1602 16.42 16.4002 16.03 16.7702L14.41 15.1702L19.64 10.2602H14.6V12.5102H12.35V7.9502H23.84V9.4002L19.36 13.6402C20.78 13.9102 21.91 14.5702 22.76 15.6302C23.61 16.6902 24.03 17.9402 24.03 19.4002C24.03 21.1002 23.42 22.5902 22.2 23.8802C20.97 25.1502 19.52 25.8002 17.84 25.8002Z" fill="#13110C"/>
<path d="M161.34 228.26C162.68 228.26 163.89 228.72 164.95 229.65C165.92 230.49 166.63 231.58 167.09 232.93L164.94 233.69C164.65 232.81 164.2 232.1 163.61 231.54C162.94 230.9 162.17 230.58 161.32 230.58C160.25 230.58 159.33 231 158.56 231.84C157.79 232.68 157.4 233.63 157.4 234.69C157.4 235.74 157.73 236.59 158.39 237.24C159.05 237.9 159.91 238.22 160.98 238.22C161.47 238.22 161.86 238.16 162.14 238.03C162.42 237.9 162.76 237.66 163.15 237.29L164.77 238.89L159.54 243.8H164.58V241.55H166.83V246.11H155.34V244.66L159.82 240.42C158.4 240.15 157.27 239.49 156.42 238.43C155.57 237.37 155.15 236.12 155.15 234.66C155.15 232.96 155.76 231.47 156.98 230.18C158.21 228.9 159.66 228.26 161.34 228.26Z" fill="#13110C"/>
<path d="M16.64 40.2102L15.18 41.9902C13.93 43.5202 11.67 43.7402 10.14 42.4902L9.87 42.2702C8.34 41.0202 8.12 38.7602 9.37 37.2302L11.81 34.2602L16.25 28.8502C16.38 28.6902 16.52 28.5502 16.67 28.4102C16.81 28.5302 16.94 28.6702 17.06 28.8202L23.89 37.2502C25.14 38.7902 24.9 41.0402 23.36 42.2902L23.09 42.5102C21.55 43.7502 19.3 43.5202 18.05 41.9802L16.64 40.2102L17.44 39.2702C17.44 39.2702 15.88 43.0302 13.54 45.2602H19.48C19.48 45.2602 16.59 42.3002 16.64 40.2102Z" fill="#13110C"/>
<path d="M16.64 40.2102L15.18 41.9902C13.93 43.5202 11.67 43.7402 10.14 42.4902L9.87 42.2702C8.34 41.0202 8.12 38.7602 9.37 37.2302L11.81 34.2602L16.25 28.8502C16.38 28.6902 16.52 28.5502 16.67 28.4102C16.81 28.5302 16.94 28.6702 17.06 28.8202L23.89 37.2502C25.14 38.7902 24.9 41.0402 23.36 42.2902L23.09 42.5102C21.55 43.7502 19.3 43.5202 18.05 41.9802L16.64 40.2102ZM16.64 40.2102L17.44 39.2702C17.44 39.2702 15.88 43.0302 13.54 45.2602H19.48C19.48 45.2602 16.59 42.3002 16.64 40.2102Z" stroke="#13110C" stroke-miterlimit="10"/>
<path d="M162.01 212.96L163.47 211.18C164.72 209.65 166.98 209.43 168.51 210.68L168.78 210.9C170.31 212.16 170.53 214.41 169.28 215.94L166.84 218.91L162.4 224.32C162.27 224.48 162.13 224.62 161.98 224.75C161.84 224.63 161.71 224.49 161.59 224.34L154.76 215.91C153.51 214.37 153.75 212.12 155.29 210.87L155.56 210.65C157.1 209.4 159.35 209.64 160.6 211.18L162.01 212.96L161.21 213.9C161.21 213.9 162.77 210.15 165.11 207.91H159.17C159.17 207.92 162.06 210.88 162.01 212.96Z" fill="#13110C"/>
<path d="M162.01 212.96L163.47 211.18C164.72 209.65 166.98 209.43 168.51 210.68L168.78 210.9C170.31 212.16 170.53 214.41 169.28 215.94L166.84 218.91L162.4 224.32C162.27 224.48 162.13 224.62 161.98 224.75C161.84 224.63 161.71 224.49 161.59 224.34L154.76 215.91C153.51 214.37 153.75 212.12 155.29 210.87L155.56 210.65C157.1 209.4 159.35 209.64 160.6 211.18L162.01 212.96ZM162.01 212.96L161.21 213.9C161.21 213.9 162.77 210.15 165.11 207.91H159.17C159.17 207.92 162.06 210.88 162.01 212.96Z" stroke="#13110C" stroke-miterlimit="10"/>
<path d="M90.56 208.46L93.52 204.85C96.06 201.76 100.62 201.31 103.71 203.85L104.26 204.3C107.35 206.84 107.8 211.4 105.26 214.5L100.33 220.51L91.34 231.46C91.08 231.78 90.79 232.07 90.49 232.34V232.35C90.21 232.1 89.94 231.82 89.69 231.51L75.87 214.47C73.35 211.36 73.83 206.8 76.93 204.28L77.48 203.83C80.59 201.31 85.15 201.79 87.67 204.89L90.56 208.46L88.95 210.37C88.95 210.37 92.1 202.78 96.83 198.26H84.82C84.82 198.26 90.66 204.25 90.56 208.46Z" fill="#13110C"/>
<path d="M90.56 208.46L93.52 204.85C96.06 201.76 100.62 201.31 103.71 203.85L104.26 204.3C107.35 206.84 107.8 211.4 105.26 214.5L100.33 220.51L91.34 231.46C91.08 231.78 90.79 232.07 90.49 232.34V232.35C90.21 232.1 89.94 231.82 89.69 231.51L75.87 214.47C73.35 211.36 73.83 206.8 76.93 204.28L77.48 203.83C80.59 201.31 85.15 201.79 87.67 204.89L90.56 208.46ZM90.56 208.46L88.95 210.37C88.95 210.37 92.1 202.78 96.83 198.26H84.82C84.82 198.26 90.66 204.25 90.56 208.46Z" stroke="#13110C" stroke-miterlimit="10"/>
<path d="M90.12 47.1302L87.16 50.7402C84.62 53.8302 80.06 54.2802 76.97 51.7402L76.42 51.2902C73.33 48.7502 72.88 44.1902 75.42 41.0902L80.35 35.0802L89.34 24.1302C89.6 23.8102 89.89 23.5102 90.19 23.2502V23.2402C90.47 23.4902 90.74 23.7702 90.99 24.0802L104.81 41.1202C107.33 44.2302 106.85 48.7902 103.75 51.3102L103.2 51.7602C100.09 54.2802 95.53 53.8002 93.01 50.7002L90.12 47.1302L91.73 45.2302C91.73 45.2302 88.58 52.8202 83.85 57.3402H95.86C95.86 57.3302 90.01 51.3502 90.12 47.1302Z" fill="#13110C"/>
<path d="M90.12 47.1302L87.16 50.7402C84.62 53.8302 80.06 54.2802 76.97 51.7402L76.42 51.2902C73.33 48.7502 72.88 44.1902 75.42 41.0902L80.35 35.0802L89.34 24.1302C89.6 23.8102 89.89 23.5102 90.19 23.2502V23.2402C90.47 23.4902 90.74 23.7702 90.99 24.0802L104.81 41.1202C107.33 44.2302 106.85 48.7902 103.75 51.3102L103.2 51.7602C100.09 54.2802 95.53 53.8002 93.01 50.7002L90.12 47.1302ZM90.12 47.1302L91.73 45.2302C91.73 45.2302 88.58 52.8202 83.85 57.3402H95.86C95.86 57.3302 90.01 51.3502 90.12 47.1302Z" stroke="#13110C" stroke-miterlimit="10"/>
<path d="M90.12 134.45L87.16 138.06C84.62 141.15 80.06 141.6 76.97 139.06L76.42 138.61C73.33 136.07 72.88 131.51 75.42 128.41L80.35 122.4L89.34 111.45C89.6 111.13 89.89 110.84 90.19 110.57V110.56C90.47 110.81 90.74 111.09 90.99 111.4L104.81 128.44C107.33 131.55 106.85 136.11 103.75 138.63L103.2 139.08C100.09 141.6 95.53 141.12 93.01 138.02L90.12 134.45L91.73 132.54C91.73 132.54 88.58 140.13 83.85 144.65H95.86C95.86 144.65 90.01 138.67 90.12 134.45Z" fill="#13110C"/>
<path d="M90.12 134.45L87.16 138.06C84.62 141.15 80.06 141.6 76.97 139.06L76.42 138.61C73.33 136.07 72.88 131.51 75.42 128.41L80.35 122.4L89.34 111.45C89.6 111.13 89.89 110.84 90.19 110.57V110.56C90.47 110.81 90.74 111.09 90.99 111.4L104.81 128.44C107.33 131.55 106.85 136.11 103.75 138.63L103.2 139.08C100.09 141.6 95.53 141.12 93.01 138.02L90.12 134.45ZM90.12 134.45L91.73 132.54C91.73 132.54 88.58 140.13 83.85 144.65H95.86C95.86 144.65 90.01 138.67 90.12 134.45Z" stroke="#13110C" stroke-miterlimit="10"/>
</svg>
