<svg width="180" height="254" viewBox="0 0 180 254" fill="none" xmlns="http://www.w3.org/2000/svg">
<rect x="0.5" y="0.5" width="179" height="253" rx="14.5" fill="white" stroke="#1D1D1B"/>
<path d="M14.58 21.4202H16.01V19.5702H9.04001V17.7402L16.32 6.2002H18.25V17.2702H20.41V19.5802H18.25V21.4302H19.32V23.7402H14.57V21.4202H14.58ZM12.05 17.2602H16.01V10.9802L12.05 17.2602Z" fill="#1D1D1B"/>
<path d="M161.44 230.22H160.01V232.07H166.98V233.9L159.69 245.45H157.76V234.38H155.6V232.07H157.76V230.22H156.69V227.91H161.44V230.22ZM163.97 234.38H160.01V240.66L163.97 234.38Z" fill="#1D1D1B"/>
<path d="M15.82 42.3898C16.19 43.5198 16.88 45.0998 18.05 45.7898H13.22C14.46 44.8098 15.03 43.3798 15.28 42.3698C14.6 43.5598 13.31 44.3598 11.84 44.3598C9.65 44.3598 7.88 42.5798 7.88 40.3998C7.88 38.2098 9.65 36.4398 11.84 36.4398C12.28 36.4398 12.71 36.5098 13.1 36.6398C12.33 35.9198 11.84 34.8898 11.84 33.7398C11.84 31.5498 13.61 29.7798 15.8 29.7798C17.99 29.7798 19.76 31.5598 19.76 33.7398C19.76 34.9598 19.21 36.0498 18.34 36.7798C18.66 36.6898 19 36.6498 19.36 36.6498C21.55 36.6498 23.32 38.4198 23.32 40.6098C23.32 42.7998 21.55 44.5698 19.36 44.5698C17.81 44.5798 16.47 43.6898 15.82 42.3898Z" fill="#1D1D1B"/>
<path d="M162.83 210.36C162.46 209.23 161.77 207.65 160.6 206.96H165.43C164.19 207.94 163.62 209.37 163.37 210.38C164.05 209.19 165.34 208.39 166.81 208.39C169 208.39 170.77 210.17 170.77 212.35C170.77 214.54 169 216.31 166.81 216.31C166.37 216.31 165.94 216.24 165.55 216.11C166.32 216.83 166.81 217.86 166.81 219.01C166.81 221.2 165.03 222.97 162.85 222.97C160.67 222.97 158.89 221.19 158.89 219.01C158.89 217.79 159.44 216.7 160.31 215.97C159.99 216.06 159.65 216.1 159.29 216.1C157.1 216.1 155.33 214.33 155.33 212.14C155.33 209.95 157.1 208.18 159.29 208.18C160.84 208.18 162.18 209.07 162.83 210.36Z" fill="#1D1D1B"/>
<path d="M46.69 46.6601C47.49 49.1301 49.01 52.5801 51.56 54.0901H40.99C43.7 51.9401 44.94 48.8301 45.51 46.6101C44.01 49.2101 41.21 50.9601 37.99 50.9601C33.2 50.9601 29.32 47.0801 29.32 42.2901C29.32 37.5001 33.2 33.6201 37.99 33.6201C38.95 33.6201 39.88 33.7801 40.75 34.0701H40.74C39.05 32.4901 37.99 30.2301 37.99 27.7301C37.99 22.9401 41.87 19.0601 46.66 19.0601C51.45 19.0601 55.33 22.9401 55.33 27.7301C55.33 30.4001 54.12 32.7901 52.22 34.3801C52.93 34.1901 53.67 34.0901 54.44 34.0901C59.23 34.0901 63.11 37.9701 63.11 42.7601C63.11 47.5501 59.23 51.4301 54.44 51.4301C51.05 51.4401 48.11 49.4901 46.69 46.6601Z" fill="#1D1D1B"/>
<path d="M45.74 206.09C44.94 203.62 43.42 200.17 40.87 198.66H51.44C48.73 200.81 47.49 203.92 46.92 206.14C48.42 203.54 51.22 201.79 54.44 201.79C59.23 201.79 63.11 205.67 63.11 210.46C63.11 215.25 59.23 219.13 54.44 219.13C53.48 219.13 52.55 218.97 51.68 218.68H51.69C53.38 220.26 54.44 222.52 54.44 225.02C54.44 229.81 50.56 233.69 45.77 233.69C40.98 233.69 37.1 229.81 37.1 225.02C37.1 222.35 38.31 219.96 40.21 218.37C39.5 218.56 38.76 218.66 37.99 218.66C33.2 218.66 29.32 214.78 29.32 209.99C29.32 205.2 33.2 201.32 37.99 201.32C41.38 201.31 44.31 203.26 45.74 206.09Z" fill="#1D1D1B"/>
<path d="M131.69 46.6601C132.49 49.1301 134.01 52.5801 136.56 54.0901H126C128.71 51.9401 129.95 48.8301 130.52 46.6101C129.02 49.2101 126.22 50.9601 123 50.9601C118.21 50.9601 114.33 47.0801 114.33 42.2901C114.33 37.5001 118.21 33.6201 123 33.6201C123.96 33.6201 124.89 33.7801 125.76 34.0701H125.75C124.06 32.4901 123 30.2301 123 27.7301C123 22.9401 126.88 19.0601 131.67 19.0601C136.46 19.0601 140.34 22.9401 140.34 27.7301C140.34 30.4001 139.13 32.7901 137.23 34.3801C137.94 34.1901 138.68 34.0901 139.45 34.0901C144.24 34.0901 148.12 37.9701 148.12 42.7601C148.12 47.5501 144.24 51.4301 139.45 51.4301C136.05 51.4401 133.12 49.4901 131.69 46.6601Z" fill="#1D1D1B"/>
<path d="M130.74 206.09C129.94 203.62 128.42 200.17 125.87 198.66H136.44C133.73 200.81 132.49 203.92 131.92 206.14C133.42 203.54 136.22 201.79 139.44 201.79C144.23 201.79 148.11 205.67 148.11 210.46C148.11 215.25 144.23 219.13 139.44 219.13C138.48 219.13 137.55 218.97 136.68 218.68H136.69C138.38 220.26 139.44 222.52 139.44 225.02C139.44 229.81 135.56 233.69 130.77 233.69C125.98 233.69 122.1 229.81 122.1 225.02C122.1 222.35 123.31 219.96 125.21 218.37C124.5 218.56 123.76 218.66 122.99 218.66C118.2 218.66 114.32 214.78 114.32 209.99C114.32 205.2 118.2 201.32 122.99 201.32C126.38 201.31 129.32 203.26 130.74 206.09Z" fill="#1D1D1B"/>
</svg>
