<svg width="180" height="254" viewBox="0 0 180 254" fill="none" xmlns="http://www.w3.org/2000/svg">
<rect x="0.5" y="0.5" width="179" height="253" rx="14.5" fill="white" stroke="#1D1D1B"/>
<path d="M14.58 22.4202H16.01V20.5702H9.04001V18.7402L16.32 7.2002H18.25V18.2702H20.41V20.5802H18.25V22.4302H19.32V24.7402H14.57V22.4202H14.58ZM12.05 18.2602H16.01V11.9802L12.05 18.2602Z" fill="#E30B13"/>
<path d="M161.44 231.22H160.01V233.07H166.98V234.9L159.69 246.45H157.76V235.38H155.6V233.07H157.76V231.22H156.69V228.91H161.44V231.22ZM163.97 235.38H160.01V241.66L163.97 235.38Z" fill="#E30B13"/>
<path d="M8.29001 36.97L15.29 45.82L22.38 36.97L15.33 28.25L8.29001 36.97Z" fill="#E30B13"/>
<path d="M154.47 214.3L161.47 223.14L168.55 214.3L161.51 205.57L154.47 214.3Z" fill="#E30B13"/>
<path d="M30.73 34.8402L45.1 53.0002L59.64 34.8402L45.19 16.9302L30.73 34.8402Z" fill="#E30B13"/>
<path d="M30.73 215.42L45.1 233.57L59.64 215.42L45.19 197.51L30.73 215.42Z" fill="#E30B13"/>
<path d="M114.32 35.42L128.69 53.58L143.23 35.42L128.78 17.52L114.32 35.42Z" fill="#E30B13"/>
<path d="M114.32 216L128.69 234.15L143.23 216L128.78 198.09L114.32 216Z" fill="#E30B13"/>
</svg>
