<svg width="180" height="254" viewBox="0 0 180 254" fill="none" xmlns="http://www.w3.org/2000/svg">
<rect x="0.5" y="0.5" width="179" height="253" rx="14.5" fill="white" stroke="#1D1D1B"/>
<path d="M50.17 58.76C50.53 58.45 50.86 58.11 51.17 57.73L61.72 44.87L67.51 37.81C70.49 34.18 69.96 28.82 66.33 25.84L65.69 25.31C62.06 22.33 56.7 22.86 53.72 26.49L50.25 30.72L46.85 26.53C43.89 22.88 38.54 22.32 34.89 25.28L34.25 25.8C30.6 28.76 30.04 34.11 33 37.76L49.23 57.77C49.52 58.15 49.83 58.47 50.17 58.76Z" fill="#E30B13"/>
<path d="M126.7 58.76C127.06 58.45 127.39 58.11 127.7 57.73L138.25 44.87L144.04 37.81C147.02 34.18 146.49 28.82 142.86 25.84L142.22 25.31C138.59 22.33 133.23 22.86 130.25 26.49L126.78 30.72L123.38 26.53C120.42 22.88 115.07 22.32 111.42 25.28L110.78 25.8C107.13 28.76 106.57 34.11 109.53 37.76L125.76 57.77C126.05 58.15 126.36 58.47 126.7 58.76Z" fill="#E30B13"/>
<path d="M50.39 197.99C50.03 198.3 49.7 198.64 49.39 199.02L38.84 211.88L33.05 218.94C30.07 222.57 30.6 227.93 34.23 230.91L34.87 231.44C38.5 234.42 43.86 233.89 46.84 230.26L50.31 226.03L53.71 230.23C56.67 233.88 62.02 234.44 65.67 231.48L66.31 230.96C69.96 228 70.52 222.65 67.56 219L51.33 198.99C51.04 198.61 50.72 198.28 50.39 197.99Z" fill="#E30B13"/>
<path d="M126.91 197.99C126.55 198.3 126.22 198.64 125.91 199.02L115.36 211.88L109.57 218.94C106.59 222.57 107.12 227.93 110.75 230.91L111.39 231.44C115.02 234.42 120.38 233.89 123.36 230.26L126.83 226.03L130.23 230.23C133.19 233.88 138.54 234.44 142.19 231.48L142.83 230.96C146.48 228 147.04 222.65 144.08 219L127.85 198.99C127.56 198.61 127.25 198.28 126.91 197.99Z" fill="#E30B13"/>
<path d="M14.89 48.8802C15.07 48.7302 15.23 48.5602 15.39 48.3702L20.63 41.9802L23.51 38.4802C24.99 36.6802 24.73 34.0202 22.93 32.5302L22.61 32.2702C20.81 30.7902 18.15 31.0502 16.66 32.8502L14.93 34.9502L13.24 32.8702C11.77 31.0602 9.11001 30.7802 7.30001 32.2502L6.98001 32.5102C5.17001 33.9802 4.89001 36.6402 6.36001 38.4502L14.42 48.3902C14.57 48.5702 14.73 48.7302 14.89 48.8802Z" fill="#E30B13"/>
<path d="M160.51 204.74C160.33 204.89 160.17 205.06 160.01 205.25L154.77 211.64L151.89 215.14C150.41 216.94 150.67 219.6 152.47 221.09L152.79 221.35C154.59 222.83 157.25 222.57 158.74 220.77L160.47 218.67L162.16 220.75C163.63 222.56 166.29 222.84 168.1 221.37L168.42 221.11C170.23 219.64 170.51 216.98 169.04 215.17L160.98 205.23C160.83 205.05 160.68 204.89 160.51 204.74Z" fill="#E30B13"/>
<path d="M14.58 22.4202H16.01V20.5702H9.04001V18.7402L16.32 7.2002H18.25V18.2702H20.41V20.5802H18.25V22.4302H19.32V24.7402H14.57V22.4202H14.58ZM12.05 18.2602H16.01V11.9802L12.05 18.2602Z" fill="#E30B13"/>
<path d="M161.44 231.22H160.01V233.07H166.98V234.9L159.69 246.45H157.76V235.38H155.6V233.07H157.76V231.22H156.69V228.91H161.44V231.22ZM163.97 235.38H160.01V241.66L163.97 235.38Z" fill="#E30B13"/>
</svg>
