<svg width="180" height="254" viewBox="0 0 180 254" fill="none" xmlns="http://www.w3.org/2000/svg">
<rect x="0.5" y="0.5" width="179" height="253" rx="14.5" fill="white" stroke="#1D1D1B"/>
<path d="M14.58 21.4202H16.01V19.5702H9.04001V17.7402L16.32 6.2002H18.25V17.2702H20.41V19.5802H18.25V21.4302H19.32V23.7402H14.57V21.4202H14.58ZM12.05 17.2602H16.01V10.9802L12.05 17.2602Z" fill="#13110C"/>
<path d="M161.44 230.22H160.01V232.07H166.98V233.9L159.69 245.45H157.76V234.38H155.6V232.07H157.76V230.22H156.69V227.91H161.44V230.22ZM163.97 234.38H160.01V240.66L163.97 234.38Z" fill="#13110C"/>
<path d="M14.87 40L13.41 41.78C12.16 43.31 9.90001 43.53 8.37001 42.28L8.10001 42.06C6.57001 40.8 6.35001 38.55 7.60001 37.02L10.04 34.05L14.48 28.64C14.61 28.48 14.75 28.34 14.9 28.21C15.04 28.33 15.17 28.47 15.29 28.62L22.12 37.05C23.37 38.59 23.13 40.84 21.59 42.09L21.32 42.31C19.78 43.56 17.53 43.32 16.28 41.78L14.87 40L15.67 39.06C15.67 39.06 14.11 42.81 11.78 45.05H17.72C17.7 45.04 14.81 42.09 14.87 40Z" fill="#13110C"/>
<path d="M14.87 40L13.41 41.78C12.16 43.31 9.90001 43.53 8.37001 42.28L8.10001 42.06C6.57001 40.8 6.35001 38.55 7.60001 37.02L10.04 34.05L14.48 28.64C14.61 28.48 14.75 28.34 14.9 28.21C15.04 28.33 15.17 28.47 15.29 28.62L22.12 37.05C23.37 38.59 23.13 40.84 21.59 42.09L21.32 42.31C19.78 43.56 17.53 43.32 16.28 41.78L14.87 40ZM14.87 40L15.67 39.06C15.67 39.06 14.11 42.81 11.78 45.05H17.72C17.7 45.04 14.81 42.09 14.87 40Z" stroke="#13110C" stroke-miterlimit="10"/>
<path d="M160.23 212.75L161.69 210.97C162.94 209.44 165.2 209.22 166.73 210.47L167 210.69C168.53 211.94 168.75 214.2 167.5 215.73L165.06 218.7L160.62 224.11C160.49 224.27 160.35 224.41 160.2 224.55C160.06 224.43 159.93 224.29 159.81 224.14L152.98 215.71C151.73 214.17 151.97 211.92 153.51 210.67L153.78 210.45C155.32 209.21 157.57 209.44 158.82 210.98L160.23 212.75L159.43 213.69C159.43 213.69 160.99 209.93 163.33 207.7H157.39C157.39 207.71 160.28 210.66 160.23 212.75Z" fill="#13110C"/>
<path d="M160.23 212.75L161.69 210.97C162.94 209.44 165.2 209.22 166.73 210.47L167 210.69C168.53 211.94 168.75 214.2 167.5 215.73L165.06 218.7L160.62 224.11C160.49 224.27 160.35 224.41 160.2 224.55C160.06 224.43 159.93 224.29 159.81 224.14L152.98 215.71C151.73 214.17 151.97 211.92 153.51 210.67L153.78 210.45C155.32 209.21 157.57 209.44 158.82 210.98L160.23 212.75ZM160.23 212.75L159.43 213.69C159.43 213.69 160.99 209.93 163.33 207.7H157.39C157.39 207.71 160.28 210.66 160.23 212.75Z" stroke="#13110C" stroke-miterlimit="10"/>
<path d="M52.33 207.55L55.29 203.94C57.83 200.85 62.39 200.4 65.48 202.94L66.03 203.39C69.12 205.93 69.57 210.49 67.03 213.59L62.1 219.6L53.11 230.55C52.85 230.87 52.56 231.17 52.26 231.43V231.44C51.98 231.19 51.71 230.91 51.46 230.6L37.64 213.56C35.12 210.45 35.6 205.89 38.7 203.37L39.25 202.92C42.36 200.4 46.92 200.88 49.44 203.98L52.33 207.55L50.72 209.45C50.72 209.45 53.87 201.86 58.6 197.34H46.58C46.58 197.35 52.43 203.33 52.33 207.55Z" fill="#13110C"/>
<path d="M52.33 207.55L55.29 203.94C57.83 200.85 62.39 200.4 65.48 202.94L66.03 203.39C69.12 205.93 69.57 210.49 67.03 213.59L62.1 219.6L53.11 230.55C52.85 230.87 52.56 231.17 52.26 231.43V231.44C51.98 231.19 51.71 230.91 51.46 230.6L37.64 213.56C35.12 210.45 35.6 205.89 38.7 203.37L39.25 202.92C42.36 200.4 46.92 200.88 49.44 203.98L52.33 207.55ZM52.33 207.55L50.72 209.45C50.72 209.45 53.87 201.86 58.6 197.34H46.58C46.58 197.35 52.43 203.33 52.33 207.55Z" stroke="#13110C" stroke-miterlimit="10"/>
<path d="M51.89 46.2098L48.93 49.8198C46.39 52.9098 41.83 53.3598 38.74 50.8198L38.19 50.3698C35.1 47.8298 34.65 43.2698 37.19 40.1698L42.12 34.1598L51.11 23.2098C51.37 22.8898 51.66 22.5998 51.96 22.3298V22.3198C52.24 22.5698 52.51 22.8498 52.76 23.1598L66.58 40.2098C69.1 43.3198 68.62 47.8798 65.52 50.3998L64.97 50.8498C61.86 53.3698 57.3 52.8898 54.78 49.7898L51.89 46.2098L53.5 44.3098C53.5 44.3098 50.35 51.8998 45.62 56.4198H57.63C57.63 56.4198 51.78 50.4298 51.89 46.2098Z" fill="#13110C"/>
<path d="M51.89 46.2098L48.93 49.8198C46.39 52.9098 41.83 53.3598 38.74 50.8198L38.19 50.3698C35.1 47.8298 34.65 43.2698 37.19 40.1698L42.12 34.1598L51.11 23.2098C51.37 22.8898 51.66 22.5998 51.96 22.3298V22.3198C52.24 22.5698 52.51 22.8498 52.76 23.1598L66.58 40.2098C69.1 43.3198 68.62 47.8798 65.52 50.3998L64.97 50.8498C61.86 53.3698 57.3 52.8898 54.78 49.7898L51.89 46.2098ZM51.89 46.2098L53.5 44.3098C53.5 44.3098 50.35 51.8998 45.62 56.4198H57.63C57.63 56.4198 51.78 50.4298 51.89 46.2098Z" stroke="#13110C" stroke-miterlimit="10"/>
<path d="M129.85 207.38L132.81 203.77C135.35 200.68 139.91 200.23 143 202.77L143.55 203.22C146.64 205.76 147.09 210.32 144.55 213.42L139.62 219.43L130.63 230.38C130.37 230.7 130.08 231 129.78 231.26V231.27C129.5 231.02 129.23 230.74 128.98 230.43L115.16 213.39C112.64 210.28 113.12 205.72 116.22 203.2L116.77 202.75C119.88 200.23 124.44 200.71 126.96 203.81L129.85 207.38L128.24 209.28C128.24 209.28 131.39 201.69 136.12 197.17H124.11C124.11 197.17 129.96 203.16 129.85 207.38Z" fill="#13110C"/>
<path d="M129.85 207.38L132.81 203.77C135.35 200.68 139.91 200.23 143 202.77L143.55 203.22C146.64 205.76 147.09 210.32 144.55 213.42L139.62 219.43L130.63 230.38C130.37 230.7 130.08 231 129.78 231.26V231.27C129.5 231.02 129.23 230.74 128.98 230.43L115.16 213.39C112.64 210.28 113.12 205.72 116.22 203.2L116.77 202.75C119.88 200.23 124.44 200.71 126.96 203.81L129.85 207.38ZM129.85 207.38L128.24 209.28C128.24 209.28 131.39 201.69 136.12 197.17H124.11C124.11 197.17 129.96 203.16 129.85 207.38Z" stroke="#13110C" stroke-miterlimit="10"/>
<path d="M129.41 46.0399L126.45 49.6499C123.91 52.7399 119.35 53.1899 116.26 50.6499L115.71 50.1999C112.62 47.6599 112.17 43.0999 114.71 39.9999L119.64 33.9899L128.63 23.0399C128.89 22.7199 129.18 22.4299 129.48 22.1599V22.1499C129.76 22.3999 130.03 22.6799 130.28 22.9899L144.1 40.0299C146.62 43.1399 146.14 47.6999 143.04 50.2199L142.5 50.6799C139.39 53.1999 134.83 52.7199 132.31 49.6199L129.41 46.0399L131.02 44.1299C131.02 44.1299 127.87 51.7199 123.14 56.2399H135.15C135.15 56.2499 129.31 50.2599 129.41 46.0399Z" fill="#13110C"/>
<path d="M129.41 46.0399L126.45 49.6499C123.91 52.7399 119.35 53.1899 116.26 50.6499L115.71 50.1999C112.62 47.6599 112.17 43.0999 114.71 39.9999L119.64 33.9899L128.63 23.0399C128.89 22.7199 129.18 22.4299 129.48 22.1599V22.1499C129.76 22.3999 130.03 22.6799 130.28 22.9899L144.1 40.0299C146.62 43.1399 146.14 47.6999 143.04 50.2199L142.5 50.6799C139.39 53.1999 134.83 52.7199 132.31 49.6199L129.41 46.0399ZM129.41 46.0399L131.02 44.1299C131.02 44.1299 127.87 51.7199 123.14 56.2399H135.15C135.15 56.2499 129.31 50.2599 129.41 46.0399Z" stroke="#13110C" stroke-miterlimit="10"/>
</svg>
