<svg width="180" height="254" viewBox="0 0 180 254" fill="none" xmlns="http://www.w3.org/2000/svg">
<rect x="0.5" y="0.5" width="179" height="253" rx="14.5" fill="white" stroke="#1D1D1B"/>
<path d="M16.62 25.8802C15.36 25.8802 14.21 25.4502 13.15 24.5802C12.23 23.7802 11.5 22.7502 10.99 21.4902L13.09 20.6102C13.43 21.4302 13.88 22.1002 14.44 22.6302C15.1 23.2602 15.83 23.5702 16.63 23.5702C17.75 23.5702 18.69 23.0502 19.43 22.0002C20.1 21.0702 20.44 20.0302 20.44 18.8802C20.44 17.7202 20.1 16.6902 19.43 15.7902C18.7 14.8002 17.77 14.3102 16.63 14.3102C15.66 14.3102 14.7 14.8302 13.75 15.8602L12.11 14.8902V7.9502H20.64V10.2602H14.36V12.5102C15.09 12.1702 15.84 12.0102 16.61 12.0102C18.38 12.0102 19.85 12.7302 21.03 14.1702C22.14 15.5102 22.69 17.0902 22.69 18.9002C22.69 20.7102 22.14 22.2902 21.05 23.6702C19.86 25.1402 18.39 25.8802 16.62 25.8802Z" fill="#1D1D1B"/>
<path d="M163.55 227.02C164.81 227.02 165.97 227.45 167.02 228.32C167.94 229.12 168.67 230.15 169.18 231.41L167.08 232.29C166.74 231.47 166.29 230.8 165.73 230.27C165.07 229.64 164.34 229.33 163.54 229.33C162.42 229.33 161.48 229.85 160.74 230.9C160.07 231.83 159.73 232.87 159.73 234.02C159.73 235.18 160.07 236.21 160.74 237.11C161.47 238.1 162.4 238.59 163.54 238.59C164.51 238.59 165.47 238.07 166.42 237.04L168.06 238.01V244.96H159.53V242.65H165.81V240.4C165.08 240.74 164.33 240.9 163.56 240.9C161.79 240.9 160.32 240.18 159.14 238.74C158.03 237.4 157.48 235.82 157.48 234.01C157.48 232.2 158.03 230.62 159.12 229.24C160.31 227.76 161.79 227.02 163.55 227.02Z" fill="#1D1D1B"/>
<path d="M17.22 43.0499C17.59 44.1799 18.28 45.7599 19.45 46.4499H14.62C15.86 45.4699 16.43 44.0399 16.69 43.0299C16.01 44.2199 14.72 45.0199 13.25 45.0199C11.06 45.0199 9.28998 43.2399 9.28998 41.0599C9.28998 38.8699 11.06 37.0999 13.25 37.0999C13.69 37.0999 14.12 37.1699 14.51 37.2999C13.74 36.5799 13.25 35.5499 13.25 34.3999C13.25 32.2099 15.02 30.4399 17.21 30.4399C19.4 30.4399 21.17 32.2199 21.17 34.3999C21.17 35.6199 20.62 36.7099 19.75 37.4399C20.07 37.3499 20.41 37.3099 20.77 37.3099C22.96 37.3099 24.73 39.0799 24.73 41.2699C24.73 43.4599 22.96 45.2299 20.77 45.2299C19.21 45.2399 17.87 44.3499 17.22 43.0499Z" fill="#1D1D1B"/>
<path d="M164.24 211.02C163.87 209.89 163.18 208.31 162.01 207.62H166.84C165.6 208.6 165.03 210.03 164.77 211.04C165.45 209.85 166.74 209.05 168.21 209.05C170.4 209.05 172.17 210.83 172.17 213.01C172.17 215.2 170.4 216.97 168.21 216.97C167.77 216.97 167.34 216.9 166.95 216.77C167.72 217.49 168.21 218.52 168.21 219.67C168.21 221.86 166.44 223.63 164.25 223.63C162.06 223.63 160.29 221.85 160.29 219.67C160.29 218.45 160.84 217.36 161.71 216.63C161.39 216.72 161.05 216.76 160.69 216.76C158.5 216.76 156.73 214.99 156.73 212.8C156.73 210.61 158.5 208.84 160.69 208.84C162.25 208.84 163.59 209.73 164.24 211.02Z" fill="#1D1D1B"/>
<path d="M48.67 47.2802C49.47 49.7502 50.99 53.2002 53.54 54.7102H42.98C45.69 52.5602 46.93 49.4502 47.5 47.2302C46 49.8302 43.2 51.5802 39.98 51.5802C35.19 51.5802 31.31 47.7002 31.31 42.9102C31.31 38.1202 35.19 34.2402 39.98 34.2402C40.94 34.2402 41.87 34.4002 42.74 34.6902H42.73C41.04 33.1102 39.98 30.8502 39.98 28.3502C39.98 23.5602 43.86 19.6802 48.65 19.6802C53.44 19.6802 57.32 23.5602 57.32 28.3502C57.32 31.0202 56.11 33.4102 54.21 35.0002C54.92 34.8102 55.66 34.7102 56.43 34.7102C61.22 34.7102 65.1 38.5902 65.1 43.3802C65.1 48.1702 61.22 52.0502 56.43 52.0502C53.03 52.0602 50.1 50.1102 48.67 47.2802Z" fill="#1D1D1B"/>
<path d="M47.72 206.71C46.92 204.24 45.4 200.79 42.85 199.28H53.42C50.71 201.43 49.47 204.54 48.9 206.76C50.4 204.16 53.2 202.41 56.42 202.41C61.21 202.41 65.09 206.29 65.09 211.08C65.09 215.87 61.21 219.75 56.42 219.75C55.46 219.75 54.53 219.59 53.66 219.3H53.67C55.36 220.88 56.42 223.14 56.42 225.64C56.42 230.43 52.54 234.31 47.75 234.31C42.96 234.31 39.08 230.43 39.08 225.64C39.08 222.97 40.29 220.58 42.19 218.99C41.48 219.18 40.74 219.28 39.97 219.28C35.18 219.28 31.3 215.4 31.3 210.61C31.3 205.82 35.18 201.94 39.97 201.94C43.36 201.93 46.3 203.88 47.72 206.71Z" fill="#1D1D1B"/>
<path d="M132.72 47.2802C133.52 49.7502 135.04 53.2002 137.59 54.7102H127.02C129.73 52.5602 130.97 49.4502 131.54 47.2302C130.04 49.8302 127.24 51.5802 124.02 51.5802C119.23 51.5802 115.35 47.7002 115.35 42.9102C115.35 38.1202 119.23 34.2402 124.02 34.2402C124.98 34.2402 125.91 34.4002 126.78 34.6902H126.77C125.08 33.1102 124.02 30.8502 124.02 28.3502C124.02 23.5602 127.9 19.6802 132.69 19.6802C137.48 19.6802 141.36 23.5602 141.36 28.3502C141.36 31.0202 140.15 33.4102 138.25 35.0002C138.96 34.8102 139.7 34.7102 140.47 34.7102C145.26 34.7102 149.14 38.5902 149.14 43.3802C149.14 48.1702 145.26 52.0502 140.47 52.0502C137.08 52.0602 134.15 50.1102 132.72 47.2802Z" fill="#1D1D1B"/>
<path d="M131.77 206.71C130.97 204.24 129.45 200.79 126.9 199.28H137.47C134.76 201.43 133.52 204.54 132.95 206.76C134.45 204.16 137.25 202.41 140.47 202.41C145.26 202.41 149.14 206.29 149.14 211.08C149.14 215.87 145.26 219.75 140.47 219.75C139.51 219.75 138.58 219.59 137.71 219.3H137.72C139.41 220.88 140.47 223.14 140.47 225.64C140.47 230.43 136.59 234.31 131.8 234.31C127.01 234.31 123.13 230.43 123.13 225.64C123.13 222.97 124.34 220.58 126.24 218.99C125.53 219.18 124.79 219.28 124.02 219.28C119.23 219.28 115.35 215.4 115.35 210.61C115.35 205.82 119.23 201.94 124.02 201.94C127.41 201.93 130.35 203.88 131.77 206.71Z" fill="#1D1D1B"/>
<path d="M90.58 137.07C91.38 139.54 92.9 142.99 95.45 144.5H84.88C87.59 142.35 88.83 139.24 89.4 137.02C87.9 139.62 85.1 141.37 81.88 141.37C77.09 141.37 73.21 137.49 73.21 132.7C73.21 127.91 77.09 124.03 81.88 124.03C82.84 124.03 83.77 124.19 84.64 124.48H84.63C82.94 122.9 81.88 120.64 81.88 118.14C81.88 113.35 85.76 109.47 90.55 109.47C95.34 109.47 99.22 113.35 99.22 118.14C99.22 120.81 98.01 123.2 96.11 124.79C96.82 124.6 97.56 124.5 98.33 124.5C103.12 124.5 107 128.38 107 133.17C107 137.96 103.12 141.84 98.33 141.84C94.94 141.85 92 139.91 90.58 137.07Z" fill="#1D1D1B"/>
</svg>
