<svg width="180" height="254" viewBox="0 0 180 254" fill="none" xmlns="http://www.w3.org/2000/svg">
<rect x="0.5" y="0.5" width="179" height="253" rx="14.5" fill="white" stroke="#1D1D1B"/>
<path d="M16.62 26.8802C15.36 26.8802 14.21 26.4502 13.15 25.5802C12.23 24.7802 11.5 23.7502 10.99 22.4902L13.09 21.6102C13.43 22.4302 13.88 23.1002 14.44 23.6302C15.1 24.2602 15.83 24.5702 16.63 24.5702C17.75 24.5702 18.69 24.0502 19.43 23.0002C20.1 22.0702 20.44 21.0302 20.44 19.8802C20.44 18.7202 20.1 17.6902 19.43 16.7902C18.7 15.8002 17.77 15.3102 16.63 15.3102C15.66 15.3102 14.7 15.8302 13.75 16.8602L12.11 15.8902V8.9502H20.64V11.2602H14.36V13.5102C15.09 13.1702 15.84 13.0102 16.61 13.0102C18.38 13.0102 19.85 13.7302 21.03 15.1702C22.14 16.5102 22.69 18.0902 22.69 19.9002C22.69 21.7102 22.14 23.2902 21.05 24.6702C19.86 26.1402 18.39 26.8802 16.62 26.8802Z" fill="#E30B13"/>
<path d="M163.55 228.02C164.81 228.02 165.96 228.45 167.02 229.32C167.94 230.12 168.67 231.15 169.18 232.41L167.07 233.29C166.73 232.47 166.28 231.8 165.72 231.27C165.06 230.64 164.33 230.33 163.53 230.33C162.41 230.33 161.47 230.85 160.73 231.9C160.06 232.83 159.72 233.87 159.72 235.02C159.72 236.18 160.06 237.21 160.73 238.11C161.46 239.1 162.39 239.59 163.53 239.59C164.5 239.59 165.46 239.07 166.41 238.04L168.05 239.01V245.96H159.52V243.65H165.8V241.4C165.07 241.74 164.32 241.9 163.55 241.9C161.78 241.9 160.31 241.18 159.13 239.74C158.02 238.4 157.47 236.82 157.47 235.01C157.47 233.2 158.02 231.62 159.11 230.24C160.31 228.76 161.79 228.02 163.55 228.02Z" fill="#E30B13"/>
<path d="M10.3 37.9099L17.3 46.7599L24.38 37.9099L17.34 29.1899L10.3 37.9099Z" fill="#E30B13"/>
<path d="M155.66 214.72L162.66 223.56L169.75 214.72L162.71 205.99L155.66 214.72Z" fill="#E30B13"/>
<path d="M32.4 35.93L46.76 54.08L61.31 35.93L46.85 18.02L32.4 35.93Z" fill="#E30B13"/>
<path d="M32.4 216.51L46.76 234.66L61.31 216.51L46.85 198.6L32.4 216.51Z" fill="#E30B13"/>
<path d="M115.99 36.5101L130.35 54.6701L144.9 36.5101L130.44 18.6001L115.99 36.5101Z" fill="#E30B13"/>
<path d="M115.99 217.09L130.35 235.24L144.9 217.09L130.44 199.18L115.99 217.09Z" fill="#E30B13"/>
<path d="M75.38 125.99L89.74 144.15L104.29 125.99L89.83 108.08L75.38 125.99Z" fill="#E30B13"/>
</svg>
