<svg width="180" height="254" viewBox="0 0 180 254" fill="none" xmlns="http://www.w3.org/2000/svg">
<rect x="0.5" y="0.5" width="179" height="253" rx="14.5" fill="white" stroke="#1D1D1B"/>
<path d="M51.95 59.3799C52.31 59.0699 52.64 58.7299 52.95 58.3499L63.5 45.4999L69.29 38.4399C72.27 34.8099 71.74 29.4499 68.11 26.4699L67.47 25.9399C63.84 22.9599 58.48 23.4899 55.5 27.1199L52.03 31.3499L48.63 27.1599C45.67 23.5099 40.32 22.9499 36.67 25.9099L36.03 26.4299C32.38 29.3899 31.82 34.7399 34.78 38.3899L51.01 58.3999C51.3 58.7599 51.61 59.0899 51.95 59.3799Z" fill="#E30B13"/>
<path d="M127.94 59.3799C128.3 59.0699 128.63 58.7299 128.94 58.3499L139.49 45.4999L145.28 38.4399C148.26 34.8099 147.73 29.4499 144.1 26.4699L143.46 25.9399C139.83 22.9599 134.47 23.4899 131.49 27.1199L128.02 31.3499L124.62 27.1599C121.66 23.5099 116.31 22.9499 112.66 25.9099L112.02 26.4299C108.37 29.3899 107.81 34.7399 110.77 38.3899L127 58.3999C127.29 58.7599 127.6 59.0899 127.94 59.3799Z" fill="#E30B13"/>
<path d="M89.99 146.02C90.35 145.71 90.68 145.37 90.99 144.99L101.54 132.13L107.33 125.07C110.31 121.44 109.78 116.08 106.15 113.1L105.51 112.57C101.88 109.59 96.52 110.12 93.54 113.75L90.07 117.98L86.67 113.79C83.71 110.14 78.36 109.58 74.71 112.54L74.07 113.06C70.42 116.02 69.86 121.37 72.82 125.02L89.05 145.03C89.34 145.4 89.65 145.73 89.99 146.02Z" fill="#E30B13"/>
<path d="M51.95 198.61C51.59 198.92 51.26 199.26 50.95 199.64L40.39 212.5L34.6 219.56C31.62 223.19 32.15 228.55 35.78 231.53L36.42 232.06C40.05 235.04 45.41 234.51 48.39 230.88L51.86 226.65L55.26 230.84C58.22 234.49 63.57 235.05 67.22 232.09L67.86 231.57C71.51 228.61 72.07 223.26 69.11 219.61L52.88 199.6C52.6 199.23 52.28 198.9 51.95 198.61Z" fill="#E30B13"/>
<path d="M128.47 198.61C128.11 198.92 127.78 199.26 127.47 199.64L116.92 212.5L111.13 219.56C108.15 223.19 108.68 228.55 112.31 231.53L112.95 232.06C116.58 235.04 121.94 234.51 124.92 230.88L128.39 226.65L131.79 230.84C134.75 234.49 140.1 235.05 143.75 232.09L144.39 231.57C148.04 228.61 148.6 223.26 145.64 219.61L129.41 199.6C129.12 199.23 128.81 198.9 128.47 198.61Z" fill="#E30B13"/>
<path d="M16.78 49.3398C16.96 49.1898 17.12 49.0198 17.28 48.8298L22.52 42.4398L25.4 38.9398C26.88 37.1398 26.62 34.4798 24.82 32.9898L24.5 32.7298C22.7 31.2498 20.04 31.5098 18.55 33.3198L16.82 35.4198L15.13 33.3398C13.66 31.5298 11 31.2498 9.19003 32.7198L8.87003 32.9798C7.06003 34.4498 6.78003 37.1098 8.25003 38.9198L16.31 48.8598C16.46 49.0298 16.62 49.1898 16.78 49.3398Z" fill="#E30B13"/>
<path d="M161.57 206.27C161.39 206.42 161.23 206.59 161.07 206.78L155.83 213.17L152.95 216.67C151.47 218.47 151.73 221.13 153.53 222.62L153.85 222.88C155.65 224.36 158.31 224.1 159.8 222.3L161.53 220.2L163.22 222.28C164.69 224.09 167.35 224.37 169.16 222.9L169.48 222.64C171.29 221.17 171.57 218.51 170.1 216.7L162.04 206.76C161.89 206.58 161.74 206.41 161.57 206.27Z" fill="#E30B13"/>
<path d="M16.62 26.8802C15.36 26.8802 14.21 26.4502 13.15 25.5802C12.23 24.7802 11.5 23.7502 10.99 22.4902L13.09 21.6102C13.43 22.4302 13.88 23.1002 14.44 23.6302C15.1 24.2602 15.83 24.5702 16.63 24.5702C17.75 24.5702 18.69 24.0502 19.43 23.0002C20.1 22.0702 20.44 21.0302 20.44 19.8802C20.44 18.7202 20.1 17.6902 19.43 16.7902C18.7 15.8002 17.77 15.3102 16.63 15.3102C15.66 15.3102 14.7 15.8302 13.75 16.8602L12.11 15.8902V8.9502H20.64V11.2602H14.36V13.5102C15.09 13.1702 15.84 13.0102 16.61 13.0102C18.38 13.0102 19.85 13.7302 21.03 15.1702C22.14 16.5102 22.69 18.0902 22.69 19.9002C22.69 21.7102 22.14 23.2902 21.05 24.6702C19.86 26.1402 18.39 26.8802 16.62 26.8802Z" fill="#E30B13"/>
<path d="M161.61 228.02C162.87 228.02 164.03 228.45 165.08 229.32C166 230.12 166.73 231.15 167.24 232.41L165.14 233.29C164.8 232.47 164.35 231.8 163.79 231.27C163.13 230.64 162.4 230.33 161.6 230.33C160.48 230.33 159.54 230.85 158.8 231.9C158.13 232.83 157.79 233.87 157.79 235.02C157.79 236.18 158.13 237.21 158.8 238.11C159.53 239.1 160.46 239.59 161.6 239.59C162.57 239.59 163.53 239.07 164.48 238.04L166.12 239.01V245.96H157.59V243.65H163.87V241.4C163.14 241.74 162.39 241.9 161.62 241.9C159.85 241.9 158.38 241.18 157.2 239.74C156.09 238.4 155.54 236.82 155.54 235.01C155.54 233.2 156.09 231.62 157.18 230.24C158.37 228.76 159.84 228.02 161.61 228.02Z" fill="#E30B13"/>
</svg>
