<svg width="180" height="254" viewBox="0 0 180 254" fill="none" xmlns="http://www.w3.org/2000/svg">
<rect x="0.5" y="0.5" width="179" height="253" rx="14.5" fill="white" stroke="#1D1D1B"/>
<path d="M16.62 25.8802C15.36 25.8802 14.21 25.4502 13.15 24.5802C12.23 23.7802 11.5 22.7502 10.99 21.4902L13.09 20.6102C13.43 21.4302 13.88 22.1002 14.44 22.6302C15.1 23.2602 15.83 23.5702 16.63 23.5702C17.75 23.5702 18.69 23.0502 19.43 22.0002C20.1 21.0702 20.44 20.0302 20.44 18.8802C20.44 17.7202 20.1 16.6902 19.43 15.7902C18.7 14.8002 17.77 14.3102 16.63 14.3102C15.66 14.3102 14.7 14.8302 13.75 15.8602L12.11 14.8902V7.9502H20.64V10.2602H14.36V12.5102C15.09 12.1702 15.84 12.0102 16.61 12.0102C18.38 12.0102 19.85 12.7302 21.03 14.1702C22.14 15.5102 22.69 17.0902 22.69 18.9002C22.69 20.7102 22.14 22.2902 21.05 23.6702C19.86 25.1402 18.39 25.8802 16.62 25.8802Z" fill="#13110C"/>
<path d="M161.61 227.02C162.87 227.02 164.02 227.45 165.08 228.32C166 229.12 166.73 230.15 167.24 231.41L165.14 232.29C164.8 231.47 164.35 230.8 163.79 230.27C163.13 229.64 162.4 229.33 161.6 229.33C160.48 229.33 159.54 229.85 158.8 230.9C158.13 231.83 157.79 232.87 157.79 234.02C157.79 235.18 158.13 236.21 158.8 237.11C159.53 238.1 160.46 238.59 161.6 238.59C162.57 238.59 163.53 238.07 164.48 237.04L166.12 238.01V244.96H157.59V242.65H163.87V240.4C163.14 240.74 162.39 240.9 161.62 240.9C159.85 240.9 158.38 240.18 157.2 238.74C156.09 237.4 155.54 235.82 155.54 234.01C155.54 232.2 156.09 230.62 157.18 229.24C158.37 227.76 159.85 227.02 161.61 227.02Z" fill="#13110C"/>
<path d="M16.64 40.6201L15.18 42.4001C13.93 43.9301 11.67 44.1501 10.14 42.9001L9.87 42.6801C8.34 41.4201 8.12 39.1701 9.37 37.6401L11.81 34.6701L16.25 29.2601C16.38 29.1001 16.52 28.9601 16.67 28.8301C16.81 28.9501 16.94 29.0901 17.06 29.2401L23.89 37.6701C25.14 39.2101 24.9 41.4601 23.36 42.7101L23.09 42.9301C21.55 44.1801 19.3 43.9401 18.05 42.4001L16.64 40.6201L17.44 39.6801C17.44 39.6801 15.88 43.4301 13.54 45.6701H19.48C19.48 45.6601 16.59 42.7101 16.64 40.6201Z" fill="#13110C"/>
<path d="M16.64 40.6201L15.18 42.4001C13.93 43.9301 11.67 44.1501 10.14 42.9001L9.87 42.6801C8.34 41.4201 8.12 39.1701 9.37 37.6401L11.81 34.6701L16.25 29.2601C16.38 29.1001 16.52 28.9601 16.67 28.8301C16.81 28.9501 16.94 29.0901 17.06 29.2401L23.89 37.6701C25.14 39.2101 24.9 41.4601 23.36 42.7101L23.09 42.9301C21.55 44.1801 19.3 43.9401 18.05 42.4001L16.64 40.6201ZM16.64 40.6201L17.44 39.6801C17.44 39.6801 15.88 43.4301 13.54 45.6701H19.48C19.48 45.6601 16.59 42.7101 16.64 40.6201Z" stroke="#13110C" stroke-miterlimit="10"/>
<path d="M162.01 213.37L163.47 211.59C164.72 210.06 166.98 209.84 168.51 211.09L168.78 211.31C170.31 212.56 170.53 214.82 169.28 216.35L166.84 219.32L162.4 224.73C162.27 224.89 162.13 225.03 161.98 225.17C161.84 225.05 161.71 224.91 161.59 224.76L154.76 216.33C153.51 214.79 153.75 212.54 155.29 211.29L155.56 211.07C157.1 209.83 159.35 210.06 160.6 211.6L162.01 213.37L161.21 214.31C161.21 214.31 162.77 210.55 165.11 208.32H159.17C159.17 208.32 162.06 211.28 162.01 213.37Z" fill="#13110C"/>
<path d="M162.01 213.37L163.47 211.59C164.72 210.06 166.98 209.84 168.51 211.09L168.78 211.31C170.31 212.56 170.53 214.82 169.28 216.35L166.84 219.32L162.4 224.73C162.27 224.89 162.13 225.03 161.98 225.17C161.84 225.05 161.71 224.91 161.59 224.76L154.76 216.33C153.51 214.79 153.75 212.54 155.29 211.29L155.56 211.07C157.1 209.83 159.35 210.06 160.6 211.6L162.01 213.37ZM162.01 213.37L161.21 214.31C161.21 214.31 162.77 210.55 165.11 208.32H159.17C159.17 208.32 162.06 211.28 162.01 213.37Z" stroke="#13110C" stroke-miterlimit="10"/>
<path d="M53.63 207.99L56.59 204.38C59.13 201.29 63.69 200.84 66.78 203.38L67.33 203.83C70.42 206.37 70.87 210.93 68.33 214.03L63.4 220.04L54.41 230.99C54.15 231.31 53.86 231.61 53.56 231.87V231.88C53.28 231.63 53.01 231.35 52.76 231.04L38.94 214C36.42 210.89 36.9 206.33 40 203.81L40.55 203.36C43.66 200.84 48.22 201.32 50.74 204.42L53.63 207.99L52.02 209.89C52.02 209.89 55.17 202.3 59.9 197.78H47.88C47.88 197.79 53.73 203.78 53.63 207.99Z" fill="#13110C"/>
<path d="M53.63 207.99L56.59 204.38C59.13 201.29 63.69 200.84 66.78 203.38L67.33 203.83C70.42 206.37 70.87 210.93 68.33 214.03L63.4 220.04L54.41 230.99C54.15 231.31 53.86 231.61 53.56 231.87V231.88C53.28 231.63 53.01 231.35 52.76 231.04L38.94 214C36.42 210.89 36.9 206.33 40 203.81L40.55 203.36C43.66 200.84 48.22 201.32 50.74 204.42L53.63 207.99ZM53.63 207.99L52.02 209.89C52.02 209.89 55.17 202.3 59.9 197.78H47.88C47.88 197.79 53.73 203.78 53.63 207.99Z" stroke="#13110C" stroke-miterlimit="10"/>
<path d="M53.19 46.66L50.23 50.27C47.69 53.36 43.13 53.81 40.04 51.27L39.49 50.82C36.4 48.28 35.95 43.72 38.49 40.62L43.42 34.61L52.41 23.66C52.67 23.34 52.96 23.05 53.26 22.78V22.77C53.54 23.02 53.81 23.3 54.06 23.61L67.88 40.66C70.4 43.77 69.92 48.33 66.82 50.85L66.27 51.3C63.16 53.82 58.6 53.34 56.08 50.24L53.19 46.66L54.8 44.75C54.8 44.75 51.65 52.34 46.92 56.86H58.93C58.93 56.86 53.08 50.88 53.19 46.66Z" fill="#13110C"/>
<path d="M53.19 46.66L50.23 50.27C47.69 53.36 43.13 53.81 40.04 51.27L39.49 50.82C36.4 48.28 35.95 43.72 38.49 40.62L43.42 34.61L52.41 23.66C52.67 23.34 52.96 23.05 53.26 22.78V22.77C53.54 23.02 53.81 23.3 54.06 23.61L67.88 40.66C70.4 43.77 69.92 48.33 66.82 50.85L66.27 51.3C63.16 53.82 58.6 53.34 56.08 50.24L53.19 46.66ZM53.19 46.66L54.8 44.75C54.8 44.75 51.65 52.34 46.92 56.86H58.93C58.93 56.86 53.08 50.88 53.19 46.66Z" stroke="#13110C" stroke-miterlimit="10"/>
<path d="M131.15 207.82L134.11 204.21C136.65 201.12 141.21 200.67 144.3 203.21L144.85 203.66C147.94 206.2 148.39 210.76 145.85 213.86L140.92 219.87L131.93 230.82C131.67 231.14 131.38 231.44 131.08 231.7V231.71C130.8 231.46 130.53 231.18 130.28 230.87L116.46 213.83C113.94 210.72 114.42 206.16 117.52 203.64L118.07 203.19C121.18 200.67 125.74 201.15 128.26 204.25L131.15 207.82L129.54 209.72C129.54 209.72 132.69 202.13 137.42 197.61H125.41C125.41 197.62 131.26 203.6 131.15 207.82Z" fill="#13110C"/>
<path d="M131.15 207.82L134.11 204.21C136.65 201.12 141.21 200.67 144.3 203.21L144.85 203.66C147.94 206.2 148.39 210.76 145.85 213.86L140.92 219.87L131.93 230.82C131.67 231.14 131.38 231.44 131.08 231.7V231.71C130.8 231.46 130.53 231.18 130.28 230.87L116.46 213.83C113.94 210.72 114.42 206.16 117.52 203.64L118.07 203.19C121.18 200.67 125.74 201.15 128.26 204.25L131.15 207.82ZM131.15 207.82L129.54 209.72C129.54 209.72 132.69 202.13 137.42 197.61H125.41C125.41 197.62 131.26 203.6 131.15 207.82Z" stroke="#13110C" stroke-miterlimit="10"/>
<path d="M130.71 46.4901L127.75 50.1001C125.21 53.1901 120.65 53.6401 117.56 51.1001L117.01 50.6501C113.92 48.1101 113.47 43.5501 116.01 40.4501L120.94 34.4401L129.93 23.4901C130.19 23.1701 130.48 22.8801 130.78 22.6101V22.6001C131.06 22.8501 131.33 23.1301 131.58 23.4401L145.4 40.4801C147.92 43.5901 147.44 48.1501 144.34 50.6701L143.79 51.1201C140.68 53.6401 136.12 53.1601 133.6 50.0601L130.71 46.4901L132.32 44.5801C132.32 44.5801 129.17 52.1701 124.44 56.6901H136.45C136.45 56.6901 130.61 50.7101 130.71 46.4901Z" fill="#13110C"/>
<path d="M130.71 46.4901L127.75 50.1001C125.21 53.1901 120.65 53.6401 117.56 51.1001L117.01 50.6501C113.92 48.1101 113.47 43.5501 116.01 40.4501L120.94 34.4401L129.93 23.4901C130.19 23.1701 130.48 22.8801 130.78 22.6101V22.6001C131.06 22.8501 131.33 23.1301 131.58 23.4401L145.4 40.4801C147.92 43.5901 147.44 48.1501 144.34 50.6701L143.79 51.1201C140.68 53.6401 136.12 53.1601 133.6 50.0601L130.71 46.4901ZM130.71 46.4901L132.32 44.5801C132.32 44.5801 129.17 52.1701 124.44 56.6901H136.45C136.45 56.6901 130.61 50.7101 130.71 46.4901Z" stroke="#13110C" stroke-miterlimit="10"/>
<path d="M90.14 134.7L87.18 138.31C84.64 141.4 80.08 141.85 76.99 139.31L76.44 138.86C73.35 136.32 72.9 131.76 75.44 128.66L80.37 122.65L89.36 111.7C89.62 111.38 89.91 111.09 90.21 110.82V110.81C90.49 111.06 90.76 111.34 91.01 111.65L104.83 128.69C107.35 131.8 106.87 136.36 103.77 138.88L103.22 139.33C100.11 141.85 95.55 141.37 93.03 138.27L90.14 134.7L91.75 132.79C91.75 132.79 88.6 140.38 83.87 144.9H95.88C95.88 144.91 90.03 138.92 90.14 134.7Z" fill="#13110C"/>
<path d="M90.14 134.7L87.18 138.31C84.64 141.4 80.08 141.85 76.99 139.31L76.44 138.86C73.35 136.32 72.9 131.76 75.44 128.66L80.37 122.65L89.36 111.7C89.62 111.38 89.91 111.09 90.21 110.82V110.81C90.49 111.06 90.76 111.34 91.01 111.65L104.83 128.69C107.35 131.8 106.87 136.36 103.77 138.88L103.22 139.33C100.11 141.85 95.55 141.37 93.03 138.27L90.14 134.7ZM90.14 134.7L91.75 132.79C91.75 132.79 88.6 140.38 83.87 144.9H95.88C95.88 144.91 90.03 138.92 90.14 134.7Z" stroke="#13110C" stroke-miterlimit="10"/>
</svg>
