<svg width="180" height="254" viewBox="0 0 180 254" fill="none" xmlns="http://www.w3.org/2000/svg">
<rect x="0.5" y="0.5" width="179" height="253" rx="14.5" fill="white" stroke="#1D1D1B"/>
<path d="M10.43 17H10.41C10.38 17.06 10.37 16.56 10.37 15.51C10.37 13.05 10.71 11.06 11.38 9.56998C12.33 7.50998 13.89 6.47998 16.06 6.47998C17.12 6.47998 18.11 6.76998 19.02 7.33998C19.89 7.89998 20.59 8.65998 21.14 9.60998L19.19 10.79C18.43 9.45998 17.39 8.79998 16.06 8.79998C14.32 8.79998 13.25 10.09 12.83 12.68C13.8 11.83 14.87 11.4 16.04 11.4C17.78 11.4 19.19 12.12 20.28 13.56C21.26 14.86 21.75 16.42 21.75 18.22C21.75 19.9 21.23 21.38 20.17 22.67C19.05 24.03 17.67 24.71 16.03 24.71C15.22 24.71 14.37 24.44 13.49 23.91C12.55 23.35 11.8 22.32 11.24 20.82C10.82 19.66 10.55 18.39 10.43 17ZM16.04 22.4C17.05 22.4 17.89 21.94 18.56 21.02C19.19 20.18 19.5 19.25 19.5 18.21C19.5 17.05 19.21 16.04 18.64 15.19C18 14.2 17.13 13.7 16.04 13.7C15.24 13.7 14.52 14.08 13.88 14.85C13.35 15.49 12.96 16.25 12.7 17.11C12.83 18.4 13.11 19.5 13.54 20.42C14.16 21.74 14.99 22.4 16.04 22.4Z" fill="#1D1D1B"/>
<path d="M168.24 234.73H168.26C168.29 234.67 168.3 235.17 168.3 236.22C168.3 238.68 167.96 240.67 167.29 242.16C166.34 244.22 164.78 245.25 162.61 245.25C161.55 245.25 160.56 244.96 159.65 244.39C158.78 243.83 158.08 243.07 157.53 242.12L159.48 240.94C160.24 242.27 161.28 242.93 162.61 242.93C164.35 242.93 165.42 241.64 165.84 239.05C164.87 239.9 163.8 240.33 162.63 240.33C160.89 240.33 159.48 239.61 158.39 238.17C157.41 236.87 156.92 235.31 156.92 233.51C156.92 231.83 157.44 230.35 158.5 229.06C159.62 227.7 161 227.02 162.64 227.02C163.45 227.02 164.3 227.29 165.18 227.82C166.12 228.38 166.87 229.41 167.43 230.91C167.85 232.07 168.13 233.34 168.24 234.73ZM162.63 229.33C161.62 229.33 160.78 229.79 160.11 230.71C159.48 231.55 159.17 232.48 159.17 233.52C159.17 234.68 159.46 235.69 160.03 236.54C160.67 237.53 161.54 238.03 162.63 238.03C163.43 238.03 164.15 237.65 164.79 236.88C165.32 236.24 165.71 235.48 165.97 234.62C165.84 233.33 165.56 232.23 165.13 231.31C164.51 229.99 163.68 229.33 162.63 229.33Z" fill="#1D1D1B"/>
<path d="M16.89 42.6598C17.26 43.7898 17.95 45.3698 19.12 46.0598H14.29C15.53 45.0798 16.1 43.6498 16.35 42.6398C15.67 43.8298 14.38 44.6298 12.91 44.6298C10.72 44.6298 8.95001 42.8498 8.95001 40.6698C8.95001 38.4798 10.72 36.7098 12.91 36.7098C13.35 36.7098 13.78 36.7798 14.17 36.9098C13.4 36.1898 12.91 35.1598 12.91 34.0098C12.91 31.8198 14.68 30.0498 16.87 30.0498C19.06 30.0498 20.83 31.8298 20.83 34.0098C20.83 35.2298 20.28 36.3198 19.41 37.0498C19.73 36.9598 20.07 36.9198 20.43 36.9198C22.62 36.9198 24.39 38.6898 24.39 40.8798C24.39 43.0698 22.62 44.8398 20.43 44.8398C18.89 44.8498 17.54 43.9598 16.89 42.6598Z" fill="#1D1D1B"/>
<path d="M163.91 210.64C163.54 209.51 162.85 207.93 161.68 207.24H166.51C165.27 208.22 164.7 209.65 164.45 210.66C165.13 209.47 166.42 208.67 167.89 208.67C170.08 208.67 171.85 210.45 171.85 212.63C171.85 214.82 170.08 216.59 167.89 216.59C167.45 216.59 167.02 216.52 166.63 216.39C167.4 217.11 167.89 218.14 167.89 219.29C167.89 221.48 166.12 223.25 163.93 223.25C161.74 223.25 159.97 221.47 159.97 219.29C159.97 218.07 160.52 216.98 161.39 216.25C161.07 216.34 160.73 216.38 160.37 216.38C158.18 216.38 156.41 214.61 156.41 212.42C156.41 210.23 158.18 208.46 160.37 208.46C161.92 208.45 163.26 209.34 163.91 210.64Z" fill="#1D1D1B"/>
<path d="M46.78 47.2802C47.58 49.7502 49.1 53.2002 51.65 54.7102H41.08C43.79 52.5602 45.03 49.4502 45.6 47.2302C44.1 49.8302 41.3 51.5802 38.08 51.5802C33.29 51.5802 29.41 47.7002 29.41 42.9102C29.41 38.1202 33.29 34.2402 38.08 34.2402C39.04 34.2402 39.97 34.4002 40.84 34.6902H40.83C39.14 33.1102 38.08 30.8502 38.08 28.3502C38.08 23.5602 41.96 19.6802 46.75 19.6802C51.54 19.6802 55.42 23.5602 55.42 28.3502C55.42 31.0202 54.21 33.4102 52.31 35.0002C53.02 34.8102 53.76 34.7102 54.53 34.7102C59.32 34.7102 63.2 38.5902 63.2 43.3802C63.2 48.1702 59.32 52.0502 54.53 52.0502C51.14 52.0602 48.2 50.1102 46.78 47.2802Z" fill="#1D1D1B"/>
<path d="M45.83 206.71C45.03 204.24 43.51 200.79 40.96 199.28H51.53C48.82 201.43 47.58 204.54 47.01 206.76C48.51 204.16 51.31 202.41 54.53 202.41C59.32 202.41 63.2 206.29 63.2 211.08C63.2 215.87 59.32 219.75 54.53 219.75C53.57 219.75 52.64 219.59 51.77 219.3H51.78C53.47 220.88 54.53 223.14 54.53 225.64C54.53 230.43 50.65 234.31 45.86 234.31C41.07 234.31 37.19 230.43 37.19 225.64C37.19 222.97 38.4 220.58 40.3 218.99C39.59 219.18 38.85 219.28 38.08 219.28C33.29 219.28 29.41 215.4 29.41 210.61C29.41 205.82 33.29 201.94 38.08 201.94C41.47 201.93 44.4 203.88 45.83 206.71Z" fill="#1D1D1B"/>
<path d="M132.69 47.2802C133.49 49.7502 135.01 53.2002 137.56 54.7102H127C129.71 52.5602 130.95 49.4502 131.52 47.2302C130.02 49.8302 127.22 51.5802 124 51.5802C119.21 51.5802 115.33 47.7002 115.33 42.9102C115.33 38.1202 119.21 34.2402 124 34.2402C124.96 34.2402 125.89 34.4002 126.76 34.6902H126.75C125.06 33.1102 124 30.8502 124 28.3502C124 23.5602 127.88 19.6802 132.67 19.6802C137.46 19.6802 141.34 23.5602 141.34 28.3502C141.34 31.0202 140.13 33.4102 138.23 35.0002C138.94 34.8102 139.68 34.7102 140.45 34.7102C145.24 34.7102 149.12 38.5902 149.12 43.3802C149.12 48.1702 145.24 52.0502 140.45 52.0502C137.05 52.0602 134.12 50.1102 132.69 47.2802Z" fill="#1D1D1B"/>
<path d="M131.74 206.71C130.94 204.24 129.42 200.79 126.87 199.28H137.44C134.73 201.43 133.49 204.54 132.92 206.76C134.42 204.16 137.22 202.41 140.44 202.41C145.23 202.41 149.11 206.29 149.11 211.08C149.11 215.87 145.23 219.75 140.44 219.75C139.48 219.75 138.55 219.59 137.68 219.3H137.69C139.38 220.88 140.44 223.14 140.44 225.64C140.44 230.43 136.56 234.31 131.77 234.31C126.98 234.31 123.1 230.43 123.1 225.64C123.1 222.97 124.31 220.58 126.21 218.99C125.5 219.18 124.76 219.28 123.99 219.28C119.2 219.28 115.32 215.4 115.32 210.61C115.32 205.82 119.2 201.94 123.99 201.94C127.38 201.93 130.32 203.88 131.74 206.71Z" fill="#1D1D1B"/>
<path d="M46.78 137.07C47.58 139.54 49.1 142.99 51.65 144.5H41.08C43.79 142.35 45.03 139.24 45.6 137.02C44.1 139.62 41.3 141.37 38.08 141.37C33.29 141.37 29.41 137.49 29.41 132.7C29.41 127.91 33.29 124.03 38.08 124.03C39.04 124.03 39.97 124.19 40.84 124.48H40.83C39.14 122.9 38.08 120.64 38.08 118.14C38.08 113.35 41.96 109.47 46.75 109.47C51.54 109.47 55.42 113.35 55.42 118.14C55.42 120.81 54.21 123.2 52.31 124.79C53.02 124.6 53.76 124.5 54.53 124.5C59.32 124.5 63.2 128.38 63.2 133.17C63.2 137.96 59.32 141.84 54.53 141.84C51.14 141.85 48.2 139.91 46.78 137.07Z" fill="#1D1D1B"/>
<path d="M132.69 137.07C133.49 139.54 135.01 142.99 137.56 144.5H127C129.71 142.35 130.95 139.24 131.52 137.02C130.02 139.62 127.22 141.37 124 141.37C119.21 141.37 115.33 137.49 115.33 132.7C115.33 127.91 119.21 124.03 124 124.03C124.96 124.03 125.89 124.19 126.76 124.48H126.75C125.06 122.9 124 120.64 124 118.14C124 113.35 127.88 109.47 132.67 109.47C137.46 109.47 141.34 113.35 141.34 118.14C141.34 120.81 140.13 123.2 138.23 124.79C138.94 124.6 139.68 124.5 140.45 124.5C145.24 124.5 149.12 128.38 149.12 133.17C149.12 137.96 145.24 141.84 140.45 141.84C137.05 141.85 134.12 139.91 132.69 137.07Z" fill="#1D1D1B"/>
</svg>
