<svg width="180" height="254" viewBox="0 0 180 254" fill="none" xmlns="http://www.w3.org/2000/svg">
<rect x="0.5" y="0.5" width="179" height="253" rx="14.5" fill="white" stroke="#1D1D1B"/>
<path d="M9.35999 18H9.33999C9.30999 18.05 9.29999 17.56 9.29999 16.51C9.29999 14.05 9.63999 12.06 10.31 10.57C11.26 8.50998 12.82 7.47998 14.99 7.47998C16.05 7.47998 17.04 7.76998 17.95 8.33998C18.82 8.89998 19.52 9.64998 20.07 10.61L18.12 11.79C17.36 10.46 16.32 9.79998 14.99 9.79998C13.25 9.79998 12.18 11.09 11.76 13.68C12.73 12.83 13.8 12.4 14.97 12.4C16.71 12.4 18.12 13.12 19.21 14.56C20.19 15.86 20.68 17.42 20.68 19.22C20.68 20.9 20.16 22.38 19.1 23.67C17.98 25.03 16.6 25.71 14.96 25.71C14.15 25.71 13.3 25.44 12.42 24.91C11.48 24.35 10.73 23.32 10.17 21.82C9.73999 20.66 9.46999 19.39 9.35999 18ZM14.96 23.4C15.97 23.4 16.81 22.94 17.48 22.02C18.11 21.18 18.42 20.25 18.42 19.21C18.42 18.05 18.13 17.04 17.56 16.19C16.92 15.2 16.05 14.7 14.96 14.7C14.16 14.7 13.44 15.08 12.8 15.85C12.27 16.49 11.88 17.25 11.62 18.11C11.75 19.4 12.03 20.5 12.46 21.42C13.08 22.74 13.91 23.4 14.96 23.4Z" fill="#E30B13"/>
<path d="M168.24 235.73H168.26C168.29 235.67 168.3 236.17 168.3 237.22C168.3 239.68 167.96 241.67 167.29 243.16C166.34 245.22 164.78 246.25 162.61 246.25C161.55 246.25 160.56 245.96 159.65 245.39C158.78 244.83 158.08 244.07 157.53 243.12L159.48 241.94C160.24 243.27 161.28 243.93 162.61 243.93C164.35 243.93 165.42 242.64 165.84 240.05C164.87 240.9 163.8 241.33 162.63 241.33C160.89 241.33 159.48 240.61 158.39 239.17C157.41 237.87 156.92 236.31 156.92 234.51C156.92 232.83 157.44 231.35 158.5 230.06C159.62 228.7 161 228.02 162.64 228.02C163.45 228.02 164.3 228.29 165.18 228.82C166.12 229.38 166.87 230.41 167.43 231.91C167.85 233.07 168.13 234.34 168.24 235.73ZM162.63 230.33C161.62 230.33 160.78 230.79 160.11 231.71C159.48 232.55 159.17 233.48 159.17 234.52C159.17 235.68 159.46 236.68 160.03 237.54C160.67 238.53 161.54 239.03 162.63 239.03C163.43 239.03 164.15 238.65 164.79 237.88C165.32 237.24 165.71 236.48 165.97 235.62C165.84 234.33 165.56 233.23 165.13 232.31C164.51 230.99 163.68 230.33 162.63 230.33Z" fill="#E30B13"/>
<path d="M9.60999 38.0198L16.61 46.8698L23.7 38.0198L16.65 29.2998L9.60999 38.0198Z" fill="#E30B13"/>
<path d="M155.79 215.35L162.79 224.2L169.87 215.35L162.83 206.62L155.79 215.35Z" fill="#E30B13"/>
<path d="M31.29 35.9398L45.65 54.0898L60.2 35.9398L45.75 18.0298L31.29 35.9398Z" fill="#E30B13"/>
<path d="M31.29 216.51L45.65 234.66L60.2 216.51L45.75 198.6L31.29 216.51Z" fill="#E30B13"/>
<path d="M114.88 36.5199L129.24 54.6699L143.79 36.5199L129.34 18.6099L114.88 36.5199Z" fill="#E30B13"/>
<path d="M114.88 217.09L129.24 235.25L143.79 217.09L129.34 199.19L114.88 217.09Z" fill="#E30B13"/>
<path d="M30.92 127L45.29 145.15L59.83 127L45.38 109.09L30.92 127Z" fill="#E30B13"/>
<path d="M114.51 127.58L128.88 145.74L143.42 127.58L128.97 109.67L114.51 127.58Z" fill="#E30B13"/>
</svg>
