<svg width="180" height="254" viewBox="0 0 180 254" fill="none" xmlns="http://www.w3.org/2000/svg">
<rect x="0.5" y="0.5" width="179" height="253" rx="14.5" fill="white" stroke="#1D1D1B"/>
<path d="M49.09 59.3799C49.45 59.0699 49.78 58.7299 50.09 58.3499L60.64 45.4999L66.43 38.4399C69.41 34.8099 68.88 29.4499 65.25 26.4699L64.61 25.9399C60.98 22.9599 55.62 23.4899 52.64 27.1199L49.17 31.3499L45.77 27.1599C42.81 23.5099 37.46 22.9499 33.81 25.9099L33.17 26.4299C29.52 29.3899 28.96 34.7399 31.92 38.3899L48.15 58.3999C48.44 58.7599 48.75 59.0899 49.09 59.3799Z" fill="#E30B13"/>
<path d="M127.12 59.3799C127.48 59.0699 127.81 58.7299 128.12 58.3499L138.67 45.4999L144.46 38.4399C147.44 34.8099 146.91 29.4499 143.28 26.4699L142.64 25.9399C139.01 22.9599 133.65 23.4899 130.67 27.1199L127.2 31.3499L123.8 27.1599C120.84 23.5099 115.49 22.9499 111.84 25.9099L111.2 26.4299C107.55 29.3899 106.99 34.7399 109.95 38.3899L126.18 58.3999C126.47 58.7599 126.78 59.0899 127.12 59.3799Z" fill="#E30B13"/>
<path d="M49.09 147.7C49.45 147.39 49.78 147.05 50.09 146.67L60.64 133.81L66.43 126.75C69.41 123.12 68.88 117.76 65.25 114.78L64.61 114.25C60.98 111.27 55.62 111.8 52.64 115.43L49.17 119.66L45.77 115.47C42.81 111.82 37.46 111.26 33.81 114.22L33.17 114.74C29.52 117.7 28.96 123.05 31.92 126.7L48.15 146.71C48.44 147.08 48.75 147.41 49.09 147.7Z" fill="#E30B13"/>
<path d="M127.12 147.7C127.48 147.39 127.81 147.05 128.12 146.67L138.67 133.81L144.46 126.75C147.44 123.12 146.91 117.76 143.28 114.78L142.64 114.25C139.01 111.27 133.65 111.8 130.67 115.43L127.2 119.66L123.8 115.47C120.84 111.82 115.49 111.26 111.84 114.22L111.2 114.74C107.55 117.7 106.99 123.05 109.95 126.7L126.18 146.71C126.47 147.08 126.78 147.41 127.12 147.7Z" fill="#E30B13"/>
<path d="M48.83 198.61C48.47 198.92 48.14 199.26 47.83 199.64L37.27 212.5L31.48 219.56C28.5 223.19 29.03 228.55 32.66 231.53L33.3 232.06C36.93 235.04 42.29 234.51 45.27 230.88L48.74 226.65L52.14 230.84C55.1 234.49 60.45 235.05 64.1 232.09L64.74 231.57C68.39 228.61 68.95 223.26 65.99 219.61L49.77 199.6C49.48 199.23 49.16 198.9 48.83 198.61Z" fill="#E30B13"/>
<path d="M127.33 198.61C126.97 198.92 126.64 199.26 126.33 199.64L115.78 212.5L109.99 219.56C107.01 223.19 107.54 228.55 111.17 231.53L111.81 232.06C115.44 235.04 120.8 234.51 123.78 230.88L127.25 226.65L130.65 230.84C133.61 234.49 138.96 235.05 142.61 232.09L143.25 231.57C146.9 228.61 147.46 223.26 144.5 219.61L128.27 199.6C127.98 199.23 127.67 198.9 127.33 198.61Z" fill="#E30B13"/>
<path d="M14.61 49.3398C14.79 49.1898 14.95 49.0198 15.11 48.8298L20.35 42.4398L23.23 38.9398C24.71 37.1398 24.45 34.4798 22.64 32.9898L22.32 32.7298C20.52 31.2498 17.86 31.5098 16.37 33.3198L14.64 35.4198L12.95 33.3398C11.48 31.5298 8.81998 31.2498 7.00998 32.7198L6.69998 32.9698C4.88998 34.4398 4.60998 37.0998 6.07998 38.9098L14.14 48.8498C14.28 49.0298 14.44 49.1898 14.61 49.3398Z" fill="#E30B13"/>
<path d="M158.87 206.27C158.69 206.42 158.53 206.59 158.37 206.78L153.13 213.17L150.25 216.67C148.77 218.47 149.03 221.13 150.83 222.62L151.15 222.88C152.95 224.36 155.61 224.1 157.1 222.3L158.83 220.2L160.52 222.28C161.99 224.09 164.65 224.37 166.46 222.9L166.78 222.64C168.59 221.17 168.87 218.51 167.4 216.7L159.34 206.76C159.19 206.58 159.03 206.41 158.87 206.27Z" fill="#E30B13"/>
<path d="M9.35999 18H9.33999C9.30999 18.06 9.29999 17.56 9.29999 16.51C9.29999 14.05 9.63999 12.06 10.31 10.57C11.26 8.50998 12.82 7.47998 14.99 7.47998C16.05 7.47998 17.04 7.76998 17.95 8.33998C18.82 8.89998 19.52 9.65998 20.07 10.61L18.12 11.79C17.36 10.46 16.32 9.79998 14.99 9.79998C13.25 9.79998 12.18 11.09 11.76 13.68C12.73 12.83 13.8 12.4 14.97 12.4C16.71 12.4 18.12 13.12 19.21 14.56C20.19 15.86 20.68 17.42 20.68 19.22C20.68 20.9 20.16 22.38 19.1 23.67C17.98 25.03 16.6 25.71 14.96 25.71C14.15 25.71 13.3 25.44 12.42 24.91C11.48 24.35 10.73 23.32 10.17 21.82C9.73999 20.66 9.46999 19.39 9.35999 18ZM14.96 23.4C15.97 23.4 16.81 22.94 17.48 22.02C18.11 21.18 18.42 20.25 18.42 19.21C18.42 18.05 18.13 17.05 17.56 16.19C16.92 15.2 16.05 14.7 14.96 14.7C14.16 14.7 13.44 15.08 12.8 15.85C12.27 16.49 11.88 17.25 11.62 18.11C11.75 19.4 12.03 20.5 12.46 21.42C13.08 22.74 13.91 23.4 14.96 23.4Z" fill="#E30B13"/>
<path d="M165.25 236.88H165.27C165.3 236.82 165.31 237.32 165.31 238.37C165.31 240.83 164.97 242.82 164.3 244.31C163.35 246.37 161.79 247.4 159.62 247.4C158.56 247.4 157.57 247.11 156.66 246.54C155.79 245.98 155.09 245.22 154.54 244.27L156.49 243.09C157.25 244.42 158.29 245.08 159.62 245.08C161.36 245.08 162.43 243.79 162.85 241.2C161.88 242.05 160.81 242.48 159.64 242.48C157.9 242.48 156.49 241.76 155.4 240.32C154.42 239.02 153.93 237.46 153.93 235.66C153.93 233.98 154.45 232.5 155.51 231.21C156.63 229.85 158.01 229.17 159.65 229.17C160.46 229.17 161.31 229.44 162.19 229.97C163.13 230.53 163.88 231.56 164.44 233.06C164.86 234.22 165.14 235.49 165.25 236.88ZM159.64 231.48C158.63 231.48 157.79 231.94 157.12 232.86C156.49 233.7 156.18 234.63 156.18 235.67C156.18 236.83 156.47 237.84 157.04 238.69C157.68 239.68 158.55 240.18 159.64 240.18C160.44 240.18 161.16 239.8 161.8 239.03C162.33 238.39 162.72 237.63 162.98 236.77C162.85 235.48 162.57 234.38 162.14 233.46C161.52 232.14 160.69 231.48 159.64 231.48Z" fill="#E30B13"/>
</svg>
