<svg width="180" height="254" viewBox="0 0 180 254" fill="none" xmlns="http://www.w3.org/2000/svg">
<rect x="0.5" y="0.5" width="179" height="253" rx="14.5" fill="white" stroke="#1D1D1B"/>
<path d="M9.35999 17H9.33999C9.30999 17.06 9.29999 16.56 9.29999 15.51C9.29999 13.05 9.63999 11.06 10.31 9.56998C11.26 7.50998 12.82 6.47998 14.99 6.47998C16.05 6.47998 17.04 6.76998 17.95 7.33998C18.82 7.89998 19.52 8.65998 20.07 9.60998L18.12 10.79C17.36 9.45998 16.32 8.79998 14.99 8.79998C13.25 8.79998 12.18 10.09 11.76 12.68C12.73 11.83 13.8 11.4 14.97 11.4C16.71 11.4 18.12 12.12 19.21 13.56C20.19 14.86 20.68 16.42 20.68 18.22C20.68 19.9 20.16 21.38 19.1 22.67C17.98 24.03 16.6 24.71 14.96 24.71C14.15 24.71 13.3 24.44 12.42 23.91C11.48 23.35 10.73 22.32 10.17 20.82C9.73999 19.66 9.46999 18.39 9.35999 17ZM14.96 22.4C15.97 22.4 16.81 21.94 17.48 21.02C18.11 20.18 18.42 19.25 18.42 18.21C18.42 17.05 18.13 16.05 17.56 15.19C16.92 14.2 16.05 13.7 14.96 13.7C14.16 13.7 13.44 14.08 12.8 14.85C12.27 15.49 11.88 16.25 11.62 17.11C11.75 18.4 12.03 19.5 12.46 20.42C13.08 21.74 13.91 22.4 14.96 22.4Z" fill="#13110C"/>
<path d="M165.25 235.88H165.27C165.3 235.82 165.31 236.32 165.31 237.37C165.31 239.83 164.97 241.82 164.3 243.31C163.35 245.37 161.79 246.4 159.62 246.4C158.56 246.4 157.57 246.11 156.66 245.54C155.79 244.98 155.09 244.22 154.54 243.27L156.49 242.09C157.25 243.42 158.29 244.08 159.62 244.08C161.36 244.08 162.43 242.79 162.85 240.2C161.88 241.05 160.81 241.48 159.64 241.48C157.9 241.48 156.49 240.76 155.4 239.32C154.42 238.02 153.93 236.46 153.93 234.66C153.93 232.98 154.45 231.5 155.51 230.21C156.63 228.85 158.01 228.17 159.65 228.17C160.46 228.17 161.31 228.44 162.19 228.97C163.13 229.53 163.88 230.56 164.44 232.06C164.86 233.22 165.14 234.49 165.25 235.88ZM159.64 230.48C158.63 230.48 157.79 230.94 157.12 231.86C156.49 232.7 156.18 233.63 156.18 234.67C156.18 235.83 156.47 236.83 157.04 237.69C157.68 238.68 158.55 239.18 159.64 239.18C160.44 239.18 161.16 238.8 161.8 238.03C162.33 237.39 162.72 236.63 162.98 235.77C162.85 234.48 162.57 233.38 162.14 232.46C161.52 231.14 160.69 230.48 159.64 230.48Z" fill="#13110C"/>
<path d="M18.02 40.6201L16.56 42.4001C15.31 43.9301 13.05 44.1501 11.52 42.9001L11.25 42.6801C9.72 41.4201 9.5 39.1701 10.75 37.6401L13.19 34.6701L17.63 29.2601C17.76 29.1001 17.9 28.9601 18.05 28.8301C18.19 28.9501 18.32 29.0901 18.44 29.2401L25.27 37.6701C26.52 39.2101 26.28 41.4601 24.74 42.7101L24.47 42.9301C22.93 44.1801 20.68 43.9401 19.43 42.4001L18.02 40.6201L18.82 39.6801C18.82 39.6801 17.26 43.4301 14.92 45.6701H20.86C20.85 45.6601 17.96 42.7101 18.02 40.6201Z" fill="#13110C"/>
<path d="M18.02 40.6201L16.56 42.4001C15.31 43.9301 13.05 44.1501 11.52 42.9001L11.25 42.6801C9.72 41.4201 9.5 39.1701 10.75 37.6401L13.19 34.6701L17.63 29.2601C17.76 29.1001 17.9 28.9601 18.05 28.8301C18.19 28.9501 18.32 29.0901 18.44 29.2401L25.27 37.6701C26.52 39.2101 26.28 41.4601 24.74 42.7101L24.47 42.9301C22.93 44.1801 20.68 43.9401 19.43 42.4001L18.02 40.6201ZM18.02 40.6201L18.82 39.6801C18.82 39.6801 17.26 43.4301 14.92 45.6701H20.86C20.85 45.6601 17.96 42.7101 18.02 40.6201Z" stroke="#13110C" stroke-miterlimit="10"/>
<path d="M163.38 213.37L164.84 211.59C166.09 210.06 168.35 209.84 169.88 211.09L170.15 211.31C171.68 212.56 171.9 214.82 170.65 216.35L168.21 219.32L163.77 224.73C163.64 224.89 163.5 225.03 163.35 225.17C163.21 225.05 163.08 224.91 162.96 224.76L156.13 216.33C154.88 214.79 155.12 212.54 156.66 211.29L156.93 211.07C158.47 209.83 160.72 210.06 161.97 211.6L163.38 213.37L162.58 214.31C162.58 214.31 164.14 210.55 166.48 208.32H160.54C160.54 208.32 163.43 211.28 163.38 213.37Z" fill="#13110C"/>
<path d="M163.38 213.37L164.84 211.59C166.09 210.06 168.35 209.84 169.88 211.09L170.15 211.31C171.68 212.56 171.9 214.82 170.65 216.35L168.21 219.32L163.77 224.73C163.64 224.89 163.5 225.03 163.35 225.17C163.21 225.05 163.08 224.91 162.96 224.76L156.13 216.33C154.88 214.79 155.12 212.54 156.66 211.29L156.93 211.07C158.47 209.83 160.72 210.06 161.97 211.6L163.38 213.37ZM163.38 213.37L162.58 214.31C162.58 214.31 164.14 210.55 166.48 208.32H160.54C160.54 208.32 163.43 211.28 163.38 213.37Z" stroke="#13110C" stroke-miterlimit="10"/>
<path d="M52.76 208.03L55.72 204.42C58.26 201.33 62.82 200.88 65.91 203.42L66.46 203.87C69.55 206.41 70 210.97 67.46 214.07L62.53 220.08L53.54 231.03C53.28 231.35 52.99 231.64 52.69 231.91V231.92C52.41 231.67 52.14 231.39 51.89 231.08L38.07 214.04C35.55 210.93 36.03 206.37 39.13 203.85L39.68 203.4C42.79 200.88 47.35 201.36 49.87 204.46L52.76 208.03L51.15 209.94C51.15 209.94 54.3 202.35 59.03 197.83H47.01C47.01 197.83 52.86 203.81 52.76 208.03Z" fill="#13110C"/>
<path d="M52.76 208.03L55.72 204.42C58.26 201.33 62.82 200.88 65.91 203.42L66.46 203.87C69.55 206.41 70 210.97 67.46 214.07L62.53 220.08L53.54 231.03C53.28 231.35 52.99 231.64 52.69 231.91V231.92C52.41 231.67 52.14 231.39 51.89 231.08L38.07 214.04C35.55 210.93 36.03 206.37 39.13 203.85L39.68 203.4C42.79 200.88 47.35 201.36 49.87 204.46L52.76 208.03ZM52.76 208.03L51.15 209.94C51.15 209.94 54.3 202.35 59.03 197.83H47.01C47.01 197.83 52.86 203.81 52.76 208.03Z" stroke="#13110C" stroke-miterlimit="10"/>
<path d="M52.31 46.7001L49.35 50.3101C46.81 53.4001 42.25 53.8501 39.16 51.3101L38.61 50.8601C35.52 48.3201 35.07 43.7601 37.61 40.6601L42.54 34.6501L51.53 23.7001C51.79 23.3801 52.08 23.0801 52.38 22.8201V22.8101C52.66 23.0601 52.93 23.3401 53.18 23.6501L67.01 40.7001C69.53 43.8101 69.05 48.3701 65.95 50.8901L65.4 51.3401C62.29 53.8601 57.73 53.3801 55.21 50.2801L52.31 46.7001L53.92 44.8001C53.92 44.8001 50.77 52.3901 46.04 56.9101H58.05C58.06 56.9001 52.21 50.9201 52.31 46.7001Z" fill="#13110C"/>
<path d="M52.31 46.7001L49.35 50.3101C46.81 53.4001 42.25 53.8501 39.16 51.3101L38.61 50.8601C35.52 48.3201 35.07 43.7601 37.61 40.6601L42.54 34.6501L51.53 23.7001C51.79 23.3801 52.08 23.0801 52.38 22.8201V22.8101C52.66 23.0601 52.93 23.3401 53.18 23.6501L67.01 40.7001C69.53 43.8101 69.05 48.3701 65.95 50.8901L65.4 51.3401C62.29 53.8601 57.73 53.3801 55.21 50.2801L52.31 46.7001ZM52.31 46.7001L53.92 44.8001C53.92 44.8001 50.77 52.3901 46.04 56.9101H58.05C58.06 56.9001 52.21 50.9201 52.31 46.7001Z" stroke="#13110C" stroke-miterlimit="10"/>
<path d="M130.28 207.86L133.24 204.25C135.78 201.16 140.34 200.71 143.43 203.25L143.98 203.7C147.07 206.24 147.52 210.8 144.98 213.9L140.05 219.91L131.06 230.86C130.8 231.18 130.51 231.47 130.21 231.74V231.75C129.93 231.5 129.66 231.22 129.41 230.91L115.59 213.87C113.07 210.76 113.55 206.2 116.65 203.68L117.2 203.23C120.31 200.71 124.87 201.19 127.39 204.29L130.28 207.86L128.67 209.77C128.67 209.77 131.82 202.18 136.55 197.66H124.54C124.54 197.66 130.39 203.64 130.28 207.86Z" fill="#13110C"/>
<path d="M130.28 207.86L133.24 204.25C135.78 201.16 140.34 200.71 143.43 203.25L143.98 203.7C147.07 206.24 147.52 210.8 144.98 213.9L140.05 219.91L131.06 230.86C130.8 231.18 130.51 231.47 130.21 231.74V231.75C129.93 231.5 129.66 231.22 129.41 230.91L115.59 213.87C113.07 210.76 113.55 206.2 116.65 203.68L117.2 203.23C120.31 200.71 124.87 201.19 127.39 204.29L130.28 207.86ZM130.28 207.86L128.67 209.77C128.67 209.77 131.82 202.18 136.55 197.66H124.54C124.54 197.66 130.39 203.64 130.28 207.86Z" stroke="#13110C" stroke-miterlimit="10"/>
<path d="M129.84 46.5301L126.88 50.1401C124.34 53.2301 119.78 53.6801 116.69 51.1401L116.14 50.6901C113.05 48.1501 112.6 43.5901 115.14 40.4901L120.07 34.4801L129.06 23.5301C129.32 23.2101 129.61 22.9101 129.91 22.6501V22.6401C130.19 22.8901 130.46 23.1701 130.71 23.4801L144.53 40.5201C147.05 43.6301 146.57 48.1901 143.47 50.7101L142.92 51.1601C139.81 53.6801 135.25 53.2001 132.73 50.1001L129.84 46.5301L131.45 44.6301C131.45 44.6301 128.3 52.2201 123.57 56.7401H135.58C135.58 56.7301 129.73 50.7401 129.84 46.5301Z" fill="#13110C"/>
<path d="M129.84 46.5301L126.88 50.1401C124.34 53.2301 119.78 53.6801 116.69 51.1401L116.14 50.6901C113.05 48.1501 112.6 43.5901 115.14 40.4901L120.07 34.4801L129.06 23.5301C129.32 23.2101 129.61 22.9101 129.91 22.6501V22.6401C130.19 22.8901 130.46 23.1701 130.71 23.4801L144.53 40.5201C147.05 43.6301 146.57 48.1901 143.47 50.7101L142.92 51.1601C139.81 53.6801 135.25 53.2001 132.73 50.1001L129.84 46.5301ZM129.84 46.5301L131.45 44.6301C131.45 44.6301 128.3 52.2201 123.57 56.7401H135.58C135.58 56.7301 129.73 50.7401 129.84 46.5301Z" stroke="#13110C" stroke-miterlimit="10"/>
<path d="M52.5 134.74L49.54 138.35C47 141.44 42.44 141.89 39.35 139.35L38.8 138.9C35.71 136.36 35.26 131.8 37.8 128.7L42.73 122.69L51.72 111.74C51.98 111.42 52.27 111.12 52.57 110.86V110.85C52.85 111.1 53.12 111.38 53.37 111.69L67.19 128.73C69.71 131.84 69.23 136.4 66.13 138.92L65.58 139.37C62.47 141.89 57.91 141.41 55.39 138.31L52.5 134.74L54.11 132.84C54.11 132.84 50.96 140.43 46.23 144.95H58.24C58.24 144.95 52.39 138.96 52.5 134.74Z" fill="#13110C"/>
<path d="M52.5 134.74L49.54 138.35C47 141.44 42.44 141.89 39.35 139.35L38.8 138.9C35.71 136.36 35.26 131.8 37.8 128.7L42.73 122.69L51.72 111.74C51.98 111.42 52.27 111.12 52.57 110.86V110.85C52.85 111.1 53.12 111.38 53.37 111.69L67.19 128.73C69.71 131.84 69.23 136.4 66.13 138.92L65.58 139.37C62.47 141.89 57.91 141.41 55.39 138.31L52.5 134.74ZM52.5 134.74L54.11 132.84C54.11 132.84 50.96 140.43 46.23 144.95H58.24C58.24 144.95 52.39 138.96 52.5 134.74Z" stroke="#13110C" stroke-miterlimit="10"/>
<path d="M129.95 134.74L126.99 138.35C124.45 141.44 119.89 141.89 116.8 139.35L116.25 138.9C113.16 136.36 112.71 131.8 115.25 128.7L120.18 122.69L129.17 111.74C129.43 111.42 129.72 111.12 130.02 110.86V110.85C130.3 111.1 130.57 111.38 130.82 111.69L144.64 128.73C147.16 131.84 146.68 136.4 143.58 138.92L143.03 139.37C139.92 141.89 135.36 141.41 132.84 138.31L129.95 134.74L131.56 132.84C131.56 132.84 128.41 140.43 123.68 144.95H135.69C135.69 144.95 129.84 138.96 129.95 134.74Z" fill="#13110C"/>
<path d="M129.95 134.74L126.99 138.35C124.45 141.44 119.89 141.89 116.8 139.35L116.25 138.9C113.16 136.36 112.71 131.8 115.25 128.7L120.18 122.69L129.17 111.74C129.43 111.42 129.72 111.12 130.02 110.86V110.85C130.3 111.1 130.57 111.38 130.82 111.69L144.64 128.73C147.16 131.84 146.68 136.4 143.58 138.92L143.03 139.37C139.92 141.89 135.36 141.41 132.84 138.31L129.95 134.74ZM129.95 134.74L131.56 132.84C131.56 132.84 128.41 140.43 123.68 144.95H135.69C135.69 144.95 129.84 138.96 129.95 134.74Z" stroke="#13110C" stroke-miterlimit="10"/>
</svg>
