<svg width="180" height="254" viewBox="0 0 180 254" fill="none" xmlns="http://www.w3.org/2000/svg">
<rect x="0.5" y="0.5" width="179" height="253" rx="14.5" fill="white" stroke="#1D1D1B"/>
<path d="M12.6 12.1998V7.50977H22.87L24.03 9.52977C21.16 13.6498 19.16 18.7998 18.04 24.9898H15.58C16.57 19.3198 18.32 14.3198 20.81 9.99977H15.01V12.2098H12.6V12.1998Z" fill="#1D1D1B"/>
<path d="M165.85 239.08V243.76H155.58L154.42 241.74C157.29 237.62 159.29 232.47 160.41 226.28H162.87C161.88 231.95 160.13 236.95 157.64 241.27H163.44V239.06H165.85V239.08Z" fill="#1D1D1B"/>
<path d="M16.69 43.0099C17.06 44.1399 17.75 45.7199 18.92 46.4099H14.09C15.33 45.4299 15.9 43.9999 16.16 42.9899C15.48 44.1799 14.19 44.9799 12.72 44.9799C10.53 44.9799 8.76001 43.1999 8.76001 41.0199C8.76001 38.8299 10.53 37.0599 12.72 37.0599C13.16 37.0599 13.59 37.1299 13.98 37.2599C13.21 36.5399 12.72 35.5099 12.72 34.3599C12.72 32.1699 14.49 30.3999 16.68 30.3999C18.87 30.3999 20.64 32.1799 20.64 34.3599C20.64 35.5799 20.09 36.6699 19.22 37.3999C19.54 37.3099 19.88 37.2699 20.23 37.2699C22.42 37.2699 24.19 39.0399 24.19 41.2299C24.19 43.4199 22.42 45.1899 20.23 45.1899C18.68 45.1999 17.34 44.3099 16.69 43.0099Z" fill="#1D1D1B"/>
<path d="M163.7 210.98C163.33 209.85 162.64 208.27 161.47 207.58H166.3C165.06 208.56 164.49 209.99 164.23 211C164.92 209.81 166.2 209.01 167.67 209.01C169.86 209.01 171.63 210.79 171.63 212.97C171.63 215.16 169.86 216.93 167.67 216.93C167.23 216.93 166.8 216.86 166.41 216.73C167.18 217.45 167.67 218.48 167.67 219.63C167.67 221.82 165.9 223.59 163.71 223.59C161.52 223.59 159.75 221.81 159.75 219.63C159.75 218.41 160.3 217.32 161.17 216.59C160.85 216.68 160.51 216.72 160.16 216.72C157.97 216.72 156.2 214.95 156.2 212.76C156.2 210.57 157.97 208.8 160.16 208.8C161.71 208.79 163.05 209.68 163.7 210.98Z" fill="#1D1D1B"/>
<path d="M46.99 47.2802C47.79 49.7502 49.31 53.2002 51.86 54.7102H41.29C44 52.5602 45.24 49.4502 45.81 47.2302C44.31 49.8302 41.51 51.5802 38.29 51.5802C33.5 51.5802 29.62 47.7002 29.62 42.9102C29.62 38.1202 33.5 34.2402 38.29 34.2402C39.25 34.2402 40.18 34.4002 41.05 34.6902C39.36 33.1102 38.3 30.8502 38.3 28.3502C38.3 23.5602 42.18 19.6802 46.97 19.6802C51.76 19.6802 55.64 23.5602 55.64 28.3502C55.64 31.0202 54.43 33.4102 52.53 35.0002C53.24 34.8102 53.98 34.7102 54.75 34.7102C59.54 34.7102 63.42 38.5902 63.42 43.3802C63.42 48.1702 59.54 52.0502 54.75 52.0502C51.35 52.0602 48.41 50.1102 46.99 47.2802Z" fill="#1D1D1B"/>
<path d="M46.04 206.71C45.24 204.24 43.72 200.79 41.16 199.28H51.73C49.02 201.43 47.78 204.54 47.21 206.76C48.71 204.16 51.51 202.41 54.73 202.41C59.52 202.41 63.4 206.29 63.4 211.08C63.4 215.87 59.52 219.75 54.73 219.75C53.77 219.75 52.84 219.59 51.97 219.3C53.67 220.88 54.72 223.14 54.72 225.64C54.72 230.43 50.84 234.31 46.05 234.31C41.26 234.31 37.38 230.43 37.38 225.64C37.38 222.97 38.59 220.58 40.49 218.99C39.78 219.18 39.04 219.28 38.27 219.28C33.48 219.28 29.6 215.4 29.6 210.61C29.6 205.82 33.48 201.94 38.27 201.94C41.68 201.93 44.61 203.88 46.04 206.71Z" fill="#1D1D1B"/>
<path d="M132.9 47.2802C133.7 49.7502 135.22 53.2002 137.78 54.7102H127.21C129.92 52.5602 131.16 49.4502 131.73 47.2302C130.23 49.8302 127.43 51.5802 124.21 51.5802C119.42 51.5802 115.54 47.7002 115.54 42.9102C115.54 38.1202 119.42 34.2402 124.21 34.2402C125.17 34.2402 126.1 34.4002 126.97 34.6902C125.27 33.1102 124.22 30.8502 124.22 28.3502C124.22 23.5602 128.1 19.6802 132.89 19.6802C137.68 19.6802 141.56 23.5602 141.56 28.3502C141.56 31.0202 140.35 33.4102 138.45 35.0002C139.16 34.8102 139.9 34.7102 140.67 34.7102C145.46 34.7102 149.34 38.5902 149.34 43.3802C149.34 48.1702 145.46 52.0502 140.67 52.0502C137.26 52.0602 134.33 50.1102 132.9 47.2802Z" fill="#1D1D1B"/>
<path d="M131.95 206.71C131.15 204.24 129.63 200.79 127.08 199.28H137.65C134.94 201.43 133.7 204.54 133.13 206.76C134.63 204.16 137.43 202.41 140.65 202.41C145.44 202.41 149.32 206.29 149.32 211.08C149.32 215.87 145.44 219.75 140.65 219.75C139.69 219.75 138.76 219.59 137.89 219.3C139.58 220.88 140.64 223.14 140.64 225.64C140.64 230.43 136.76 234.31 131.97 234.31C127.18 234.31 123.3 230.43 123.3 225.64C123.3 222.97 124.51 220.58 126.41 218.99C125.7 219.18 124.96 219.28 124.19 219.28C119.4 219.28 115.52 215.4 115.52 210.61C115.52 205.82 119.4 201.94 124.19 201.94C127.59 201.93 130.53 203.88 131.95 206.71Z" fill="#1D1D1B"/>
<path d="M46.99 137.07C47.79 139.54 49.31 142.99 51.86 144.5H41.29C44 142.35 45.24 139.24 45.81 137.02C44.31 139.62 41.51 141.37 38.29 141.37C33.5 141.37 29.62 137.49 29.62 132.7C29.62 127.91 33.5 124.03 38.29 124.03C39.25 124.03 40.18 124.19 41.05 124.48C39.36 122.9 38.3 120.64 38.3 118.14C38.3 113.35 42.18 109.47 46.97 109.47C51.76 109.47 55.64 113.35 55.64 118.14C55.64 120.81 54.43 123.2 52.53 124.79C53.24 124.6 53.98 124.5 54.75 124.5C59.54 124.5 63.42 128.38 63.42 133.17C63.42 137.96 59.54 141.84 54.75 141.84C51.35 141.85 48.41 139.91 46.99 137.07Z" fill="#1D1D1B"/>
<path d="M132.9 137.07C133.7 139.54 135.22 142.99 137.78 144.5H127.21C129.92 142.35 131.16 139.24 131.73 137.02C130.23 139.62 127.43 141.37 124.21 141.37C119.42 141.37 115.54 137.49 115.54 132.7C115.54 127.91 119.42 124.03 124.21 124.03C125.17 124.03 126.1 124.19 126.97 124.48C125.27 122.9 124.22 120.64 124.22 118.14C124.22 113.35 128.1 109.47 132.89 109.47C137.68 109.47 141.56 113.35 141.56 118.14C141.56 120.81 140.35 123.2 138.45 124.79C139.16 124.6 139.9 124.5 140.67 124.5C145.46 124.5 149.34 128.38 149.34 133.17C149.34 137.96 145.46 141.84 140.67 141.84C137.26 141.85 134.33 139.91 132.9 137.07Z" fill="#1D1D1B"/>
<path d="M86.7901 92.3402C87.5901 94.8102 89.1101 98.2602 91.6701 99.7702H81.1001C83.8101 97.6202 85.0501 94.5102 85.6201 92.2902C84.1201 94.8902 81.3201 96.6402 78.1001 96.6402C73.3101 96.6402 69.4301 92.7602 69.4301 87.9702C69.4301 83.1802 73.3101 79.3002 78.1001 79.3002C79.0601 79.3002 79.9901 79.4602 80.8601 79.7502C79.1601 78.1702 78.1101 75.9102 78.1101 73.4102C78.1101 68.6202 81.9901 64.7402 86.7801 64.7402C91.5701 64.7402 95.4501 68.6202 95.4501 73.4102C95.4501 76.0802 94.24 78.4702 92.34 80.0602C93.05 79.8702 93.7901 79.7702 94.5601 79.7702C99.3501 79.7702 103.23 83.6502 103.23 88.4402C103.23 93.2302 99.3501 97.1102 94.5601 97.1102C91.1501 97.1202 88.2201 95.1702 86.7901 92.3402Z" fill="#1D1D1B"/>
</svg>
