<svg width="180" height="254" viewBox="0 0 180 254" fill="none" xmlns="http://www.w3.org/2000/svg">
<rect x="0.5" y="0.5" width="179" height="253" rx="14.5" fill="white" stroke="#1D1D1B"/>
<path d="M10.11 12.5198V7.83984H20.38L21.54 9.85984C18.67 13.9798 16.67 19.1298 15.55 25.3198H13.09C14.08 19.6498 15.83 14.6498 18.32 10.3298H12.52V12.5398H10.11V12.5198Z" fill="#E30B13"/>
<path d="M165.85 240.08V244.76H155.58L154.42 242.74C157.29 238.62 159.29 233.47 160.41 227.28H162.87C161.88 232.95 160.13 237.95 157.64 242.27H163.44V240.06H165.85V240.08Z" fill="#E30B13"/>
<path d="M8.52002 37.4199L15.51 46.2599L22.6 37.4199L15.56 28.6899L8.52002 37.4199Z" fill="#E30B13"/>
<path d="M154.72 213.36L161.72 222.21L168.81 213.36L161.77 204.64L154.72 213.36Z" fill="#E30B13"/>
<path d="M30.92 35.9398L45.29 54.0898L59.83 35.9398L45.38 18.0298L30.92 35.9398Z" fill="#E30B13"/>
<path d="M30.92 216.52L45.29 234.67L59.83 216.52L45.38 198.61L30.92 216.52Z" fill="#E30B13"/>
<path d="M114.52 36.5199L128.88 54.6699L143.43 36.5199L128.97 18.6099L114.52 36.5199Z" fill="#E30B13"/>
<path d="M114.52 217.1L128.88 235.25L143.43 217.1L128.97 199.19L114.52 217.1Z" fill="#E30B13"/>
<path d="M30.56 127.01L44.92 145.16L59.47 127.01L45.01 109.1L30.56 127.01Z" fill="#E30B13"/>
<path d="M114.15 127.59L128.51 145.74L143.06 127.59L128.6 109.68L114.15 127.59Z" fill="#E30B13"/>
<path d="M74.87 80.5999L89.23 98.7499L103.78 80.5999L89.32 62.6899L74.87 80.5999Z" fill="#E30B13"/>
</svg>
