<svg width="180" height="254" viewBox="0 0 180 254" fill="none" xmlns="http://www.w3.org/2000/svg">
<rect x="0.5" y="0.5" width="179" height="253" rx="14.5" fill="white" stroke="#1D1D1B"/>
<path d="M49.09 59.3801C49.45 59.0701 49.78 58.7301 50.09 58.3501L60.64 45.5001L66.43 38.4401C69.41 34.8101 68.88 29.4501 65.25 26.4701L64.61 25.9401C60.98 22.9601 55.62 23.4901 52.64 27.1201L49.17 31.3501L45.77 27.1501C42.81 23.5001 37.46 22.9401 33.81 25.9001L33.17 26.4201C29.52 29.3801 28.96 34.7301 31.92 38.3801L48.15 58.3901C48.44 58.7701 48.75 59.0901 49.09 59.3801Z" fill="#E30B13"/>
<path d="M127.11 59.3801C127.47 59.0701 127.8 58.7301 128.11 58.3501L138.67 45.5001L144.46 38.4401C147.44 34.8101 146.91 29.4501 143.28 26.4701L142.64 25.9401C139.01 22.9601 133.65 23.4901 130.67 27.1201L127.2 31.3501L123.8 27.1501C120.84 23.5001 115.49 22.9401 111.84 25.9001L111.2 26.4201C107.55 29.3801 106.99 34.7301 109.95 38.3801L126.17 58.3901C126.47 58.7701 126.78 59.0901 127.11 59.3801Z" fill="#E30B13"/>
<path d="M49.09 147.7C49.45 147.39 49.78 147.05 50.09 146.67L60.64 133.81L66.43 126.75C69.41 123.12 68.88 117.76 65.25 114.78L64.61 114.25C60.98 111.27 55.62 111.8 52.64 115.43L49.17 119.66L45.77 115.47C42.81 111.82 37.46 111.26 33.81 114.22L33.17 114.74C29.52 117.7 28.96 123.05 31.92 126.7L48.15 146.71C48.44 147.08 48.75 147.41 49.09 147.7Z" fill="#E30B13"/>
<path d="M127.11 147.7C127.47 147.39 127.8 147.05 128.11 146.67L138.66 133.81L144.45 126.75C147.43 123.12 146.9 117.76 143.27 114.78L142.63 114.25C139 111.27 133.64 111.8 130.66 115.43L127.19 119.66L123.79 115.47C120.83 111.82 115.48 111.26 111.83 114.22L111.19 114.74C107.54 117.7 106.98 123.05 109.94 126.7L126.16 146.71C126.47 147.08 126.78 147.41 127.11 147.7Z" fill="#E30B13"/>
<path d="M48.83 198.61C48.47 198.92 48.14 199.26 47.83 199.64L37.27 212.5L31.48 219.56C28.5 223.19 29.03 228.55 32.66 231.53L33.3 232.06C36.93 235.04 42.29 234.51 45.27 230.88L48.74 226.65L52.14 230.84C55.1 234.49 60.45 235.05 64.1 232.09L64.74 231.57C68.39 228.61 68.95 223.26 65.99 219.61L49.76 199.6C49.48 199.23 49.16 198.9 48.83 198.61Z" fill="#E30B13"/>
<path d="M127.33 198.61C126.97 198.92 126.64 199.26 126.33 199.64L115.78 212.5L109.99 219.56C107.01 223.19 107.54 228.55 111.17 231.53L111.81 232.06C115.44 235.04 120.8 234.51 123.78 230.88L127.25 226.65L130.65 230.84C133.61 234.49 138.96 235.05 142.61 232.09L143.25 231.57C146.9 228.61 147.46 223.26 144.5 219.61L128.28 199.6C127.98 199.23 127.67 198.9 127.33 198.61Z" fill="#E30B13"/>
<path d="M87.9299 102.63C88.2899 102.32 88.6199 101.98 88.9299 101.6L99.4799 88.7398L105.27 81.6798C108.25 78.0498 107.72 72.6898 104.09 69.7098L103.45 69.1798C99.8199 66.1998 94.4599 66.7298 91.4799 70.3598L88.0099 74.5898L84.6099 70.3898C81.6499 66.7398 76.2999 66.1798 72.6499 69.1398L72.0099 69.6598C68.3599 72.6198 67.7999 77.9698 70.7599 81.6198L86.9799 101.63C87.2799 102.01 87.5999 102.34 87.9299 102.63Z" fill="#E30B13"/>
<path d="M14.26 49.3402C14.44 49.1902 14.6 49.0202 14.76 48.8302L20 42.4402L22.88 38.9402C24.36 37.1402 24.1 34.4802 22.3 32.9902L21.98 32.7302C20.18 31.2502 17.52 31.5102 16.03 33.3102L14.3 35.4102L12.61 33.3302C11.14 31.5202 8.48001 31.2402 6.67001 32.7102L6.35001 32.9702C4.54001 34.4402 4.26001 37.1002 5.73001 38.9102L13.79 48.8502C13.94 49.0302 14.09 49.1902 14.26 49.3402Z" fill="#E30B13"/>
<path d="M158.84 206.27C158.66 206.42 158.5 206.59 158.34 206.78L153.1 213.17L150.22 216.67C148.74 218.47 149 221.13 150.8 222.62L151.12 222.88C152.92 224.36 155.58 224.1 157.07 222.29L158.8 220.19L160.49 222.27C161.96 224.08 164.62 224.36 166.43 222.89L166.75 222.63C168.56 221.16 168.84 218.5 167.37 216.69L159.31 206.75C159.17 206.58 159.01 206.41 158.84 206.27Z" fill="#E30B13"/>
<path d="M9.73999 13.6998V9.00977H20.01L21.17 11.0298C18.3 15.1498 16.3 20.2998 15.18 26.4898H12.72C13.71 20.8198 15.46 15.8198 17.95 11.4998H12.15V13.6998H9.73999Z" fill="#E30B13"/>
<path d="M163.85 241.83V246.51H153.58L152.42 244.49C155.29 240.37 157.29 235.22 158.41 229.03H160.87C159.88 234.7 158.13 239.7 155.64 244.02H161.44V241.81H163.85V241.83Z" fill="#E30B13"/>
</svg>
