<svg width="180" height="254" viewBox="0 0 180 254" fill="none" xmlns="http://www.w3.org/2000/svg">
<rect x="0.5" y="0.5" width="179" height="253" rx="14.5" fill="white" stroke="#1D1D1B"/>
<path d="M9.73999 12.6898V8.00977H20.01L21.17 10.0298C18.3 14.1498 16.3 19.2998 15.18 25.4898H12.72C13.71 19.8198 15.46 14.8198 17.95 10.4998H12.15V12.7098H9.73999V12.6898Z" fill="#13110C"/>
<path d="M163.85 240.83V245.51H153.58L152.42 243.49C155.29 239.37 157.29 234.22 158.41 228.03H160.87C159.88 233.7 158.13 238.7 155.64 243.02H161.44V240.81H163.85V240.83Z" fill="#13110C"/>
<path d="M17.27 40.6L15.81 42.38C14.56 43.91 12.3 44.13 10.77 42.88L10.5 42.65C8.97 41.4 8.75 39.14 10 37.61L12.44 34.64L16.88 29.23C17.01 29.07 17.15 28.93 17.3 28.79C17.44 28.91 17.57 29.05 17.69 29.2L24.52 37.63C25.77 39.17 25.53 41.42 23.99 42.67L23.72 42.89C22.18 44.13 19.93 43.9 18.68 42.36L17.27 40.6L18.07 39.66C18.07 39.66 16.51 43.42 14.17 45.65H20.11C20.11 45.64 17.22 42.68 17.27 40.6Z" fill="#13110C"/>
<path d="M17.27 40.6L15.81 42.38C14.56 43.91 12.3 44.13 10.77 42.88L10.5 42.65C8.97 41.4 8.75 39.14 10 37.61L12.44 34.64L16.88 29.23C17.01 29.07 17.15 28.93 17.3 28.79C17.44 28.91 17.57 29.05 17.69 29.2L24.52 37.63C25.77 39.17 25.53 41.42 23.99 42.67L23.72 42.89C22.18 44.13 19.93 43.9 18.68 42.36L17.27 40.6ZM17.27 40.6L18.07 39.66C18.07 39.66 16.51 43.42 14.17 45.65H20.11C20.11 45.64 17.22 42.68 17.27 40.6Z" stroke="#13110C" stroke-miterlimit="10"/>
<path d="M162.63 213.35L164.09 211.57C165.34 210.04 167.6 209.82 169.13 211.07L169.4 211.29C170.93 212.55 171.15 214.8 169.9 216.33L167.46 219.3L163.02 224.71C162.89 224.87 162.75 225.01 162.6 225.14C162.46 225.02 162.33 224.88 162.21 224.73L155.38 216.3C154.13 214.76 154.37 212.51 155.91 211.26L156.18 211.04C157.72 209.79 159.97 210.03 161.22 211.57L162.63 213.35L161.83 214.29C161.83 214.29 163.39 210.54 165.73 208.3H159.79C159.79 208.3 162.68 211.26 162.63 213.35Z" fill="#13110C"/>
<path d="M162.63 213.35L164.09 211.57C165.34 210.04 167.6 209.82 169.13 211.07L169.4 211.29C170.93 212.55 171.15 214.8 169.9 216.33L167.46 219.3L163.02 224.71C162.89 224.87 162.75 225.01 162.6 225.14C162.46 225.02 162.33 224.88 162.21 224.73L155.38 216.3C154.13 214.76 154.37 212.51 155.91 211.26L156.18 211.04C157.72 209.79 159.97 210.03 161.22 211.57L162.63 213.35ZM162.63 213.35L161.83 214.29C161.83 214.29 163.39 210.54 165.73 208.3H159.79C159.79 208.3 162.68 211.26 162.63 213.35Z" stroke="#13110C" stroke-miterlimit="10"/>
<path d="M53.04 208.03L56 204.42C58.54 201.33 63.1 200.88 66.19 203.42L66.74 203.87C69.83 206.41 70.28 210.97 67.74 214.07L62.8 220.08L53.81 231.03C53.55 231.35 53.26 231.65 52.96 231.91V231.92C52.68 231.67 52.41 231.39 52.16 231.08L38.34 214.04C35.82 210.93 36.3 206.37 39.4 203.85L39.95 203.4C43.06 200.88 47.62 201.36 50.14 204.46L53.04 208.03L51.42 209.93C51.42 209.93 54.57 202.34 59.3 197.82H47.3C47.3 197.83 53.15 203.81 53.04 208.03Z" fill="#13110C"/>
<path d="M53.04 208.03L56 204.42C58.54 201.33 63.1 200.88 66.19 203.42L66.74 203.87C69.83 206.41 70.28 210.97 67.74 214.07L62.8 220.08L53.81 231.03C53.55 231.35 53.26 231.65 52.96 231.91V231.92C52.68 231.67 52.41 231.39 52.16 231.08L38.34 214.04C35.82 210.93 36.3 206.37 39.4 203.85L39.95 203.4C43.06 200.88 47.62 201.36 50.14 204.46L53.04 208.03ZM53.04 208.03L51.42 209.93C51.42 209.93 54.57 202.34 59.3 197.82H47.3C47.3 197.83 53.15 203.81 53.04 208.03Z" stroke="#13110C" stroke-miterlimit="10"/>
<path d="M52.6 46.7001L49.64 50.3101C47.1 53.4001 42.54 53.8501 39.44 51.3101L38.9 50.8601C35.81 48.3201 35.36 43.7601 37.9 40.6601L42.83 34.6501L51.82 23.7001C52.08 23.3801 52.37 23.0901 52.67 22.8201V22.8101C52.95 23.0601 53.22 23.3401 53.47 23.6501L67.3 40.7001C69.82 43.8101 69.34 48.3701 66.24 50.8901L65.69 51.3401C62.58 53.8601 58.02 53.3801 55.5 50.2801L52.6 46.7001L54.22 44.7901C54.22 44.7901 51.07 52.3801 46.34 56.9001H58.35C58.34 56.9001 52.5 50.9101 52.6 46.7001Z" fill="#13110C"/>
<path d="M52.6 46.7001L49.64 50.3101C47.1 53.4001 42.54 53.8501 39.44 51.3101L38.9 50.8601C35.81 48.3201 35.36 43.7601 37.9 40.6601L42.83 34.6501L51.82 23.7001C52.08 23.3801 52.37 23.0901 52.67 22.8201V22.8101C52.95 23.0601 53.22 23.3401 53.47 23.6501L67.3 40.7001C69.82 43.8101 69.34 48.3701 66.24 50.8901L65.69 51.3401C62.58 53.8601 58.02 53.3801 55.5 50.2801L52.6 46.7001ZM52.6 46.7001L54.22 44.7901C54.22 44.7901 51.07 52.3801 46.34 56.9001H58.35C58.34 56.9001 52.5 50.9101 52.6 46.7001Z" stroke="#13110C" stroke-miterlimit="10"/>
<path d="M130.57 207.86L133.53 204.25C136.07 201.16 140.63 200.71 143.72 203.25L144.27 203.7C147.36 206.24 147.81 210.8 145.27 213.9L140.34 219.91L131.35 230.86C131.09 231.18 130.8 231.48 130.49 231.74V231.75C130.21 231.5 129.94 231.22 129.69 230.91L115.87 213.87C113.35 210.76 113.83 206.2 116.93 203.68L117.48 203.23C120.59 200.71 125.15 201.19 127.67 204.29L130.57 207.86L128.96 209.76C128.96 209.76 132.11 202.17 136.84 197.65H124.83C124.83 197.65 130.68 203.64 130.57 207.86Z" fill="#13110C"/>
<path d="M130.57 207.86L133.53 204.25C136.07 201.16 140.63 200.71 143.72 203.25L144.27 203.7C147.36 206.24 147.81 210.8 145.27 213.9L140.34 219.91L131.35 230.86C131.09 231.18 130.8 231.48 130.49 231.74V231.75C130.21 231.5 129.94 231.22 129.69 230.91L115.87 213.87C113.35 210.76 113.83 206.2 116.93 203.68L117.48 203.23C120.59 200.71 125.15 201.19 127.67 204.29L130.57 207.86ZM130.57 207.86L128.96 209.76C128.96 209.76 132.11 202.17 136.84 197.65H124.83C124.83 197.65 130.68 203.64 130.57 207.86Z" stroke="#13110C" stroke-miterlimit="10"/>
<path d="M130.13 46.5199L127.17 50.1299C124.63 53.2199 120.07 53.6699 116.98 51.1299L116.43 50.6799C113.34 48.1399 112.89 43.5799 115.43 40.4799L120.36 34.4699L129.35 23.5199C129.61 23.1999 129.9 22.9099 130.21 22.6399V22.6299C130.49 22.8799 130.76 23.1599 131.01 23.4699L144.83 40.5099C147.35 43.6199 146.87 48.1799 143.77 50.6999L143.22 51.1499C140.11 53.6699 135.55 53.1899 133.03 50.0899L130.13 46.5199L131.74 44.6099C131.74 44.6099 128.59 52.1999 123.86 56.7199H135.87C135.87 56.7299 130.02 50.7399 130.13 46.5199Z" fill="#13110C"/>
<path d="M130.13 46.5199L127.17 50.1299C124.63 53.2199 120.07 53.6699 116.98 51.1299L116.43 50.6799C113.34 48.1399 112.89 43.5799 115.43 40.4799L120.36 34.4699L129.35 23.5199C129.61 23.1999 129.9 22.9099 130.21 22.6399V22.6299C130.49 22.8799 130.76 23.1599 131.01 23.4699L144.83 40.5099C147.35 43.6199 146.87 48.1799 143.77 50.6999L143.22 51.1499C140.11 53.6699 135.55 53.1899 133.03 50.0899L130.13 46.5199ZM130.13 46.5199L131.74 44.6099C131.74 44.6099 128.59 52.1999 123.86 56.7199H135.87C135.87 56.7299 130.02 50.7399 130.13 46.5199Z" stroke="#13110C" stroke-miterlimit="10"/>
<path d="M52.79 134.74L49.83 138.35C47.29 141.44 42.73 141.89 39.64 139.35L39.09 138.9C36 136.36 35.55 131.8 38.09 128.7L43.02 122.69L52.01 111.74C52.27 111.42 52.56 111.13 52.87 110.86V110.85C53.15 111.1 53.42 111.38 53.67 111.69L67.49 128.73C70.01 131.84 69.53 136.4 66.43 138.92L65.88 139.37C62.77 141.89 58.21 141.41 55.69 138.31L52.79 134.74L54.4 132.83C54.4 132.83 51.25 140.42 46.52 144.94H58.53C58.53 144.94 52.68 138.96 52.79 134.74Z" fill="#13110C"/>
<path d="M52.79 134.74L49.83 138.35C47.29 141.44 42.73 141.89 39.64 139.35L39.09 138.9C36 136.36 35.55 131.8 38.09 128.7L43.02 122.69L52.01 111.74C52.27 111.42 52.56 111.13 52.87 110.86V110.85C53.15 111.1 53.42 111.38 53.67 111.69L67.49 128.73C70.01 131.84 69.53 136.4 66.43 138.92L65.88 139.37C62.77 141.89 58.21 141.41 55.69 138.31L52.79 134.74ZM52.79 134.74L54.4 132.83C54.4 132.83 51.25 140.42 46.52 144.94H58.53C58.53 144.94 52.68 138.96 52.79 134.74Z" stroke="#13110C" stroke-miterlimit="10"/>
<path d="M130.24 134.74L127.28 138.35C124.74 141.44 120.18 141.89 117.09 139.35L116.54 138.9C113.45 136.36 113 131.8 115.54 128.7L120.47 122.69L129.46 111.74C129.72 111.42 130.01 111.13 130.32 110.86V110.85C130.6 111.1 130.87 111.38 131.12 111.69L144.94 128.73C147.46 131.84 146.98 136.4 143.88 138.92L143.33 139.37C140.22 141.89 135.66 141.41 133.14 138.31L130.24 134.74L131.85 132.83C131.85 132.83 128.7 140.42 123.97 144.94H135.98C135.98 144.94 130.13 138.96 130.24 134.74Z" fill="#13110C"/>
<path d="M130.24 134.74L127.28 138.35C124.74 141.44 120.18 141.89 117.09 139.35L116.54 138.9C113.45 136.36 113 131.8 115.54 128.7L120.47 122.69L129.46 111.74C129.72 111.42 130.01 111.13 130.32 110.86V110.85C130.6 111.1 130.87 111.38 131.12 111.69L144.94 128.73C147.46 131.84 146.98 136.4 143.88 138.92L143.33 139.37C140.22 141.89 135.66 141.41 133.14 138.31L130.24 134.74ZM130.24 134.74L131.85 132.83C131.85 132.83 128.7 140.42 123.97 144.94H135.98C135.98 144.94 130.13 138.96 130.24 134.74Z" stroke="#13110C" stroke-miterlimit="10"/>
<path d="M91.16 90.68L88.2 94.29C85.66 97.38 81.1 97.83 78.01 95.29L77.46 94.84C74.37 92.3 73.92 87.74 76.46 84.64L81.39 78.63L90.38 67.68C90.64 67.36 90.93 67.06 91.24 66.8V66.79C91.52 67.04 91.79 67.32 92.04 67.63L105.86 84.67C108.38 87.78 107.9 92.34 104.8 94.86L104.25 95.31C101.14 97.83 96.58 97.35 94.06 94.25L91.16 90.68L92.77 88.78C92.77 88.78 89.62 96.37 84.89 100.89H96.9C96.9 100.89 91.05 94.9 91.16 90.68Z" fill="#13110C"/>
<path d="M91.16 90.68L88.2 94.29C85.66 97.38 81.1 97.83 78.01 95.29L77.46 94.84C74.37 92.3 73.92 87.74 76.46 84.64L81.39 78.63L90.38 67.68C90.64 67.36 90.93 67.06 91.24 66.8V66.79C91.52 67.04 91.79 67.32 92.04 67.63L105.86 84.67C108.38 87.78 107.9 92.34 104.8 94.86L104.25 95.31C101.14 97.83 96.58 97.35 94.06 94.25L91.16 90.68ZM91.16 90.68L92.77 88.78C92.77 88.78 89.62 96.37 84.89 100.89H96.9C96.9 100.89 91.05 94.9 91.16 90.68Z" stroke="#13110C" stroke-miterlimit="10"/>
</svg>
