<svg width="180" height="254" viewBox="0 0 180 254" fill="none" xmlns="http://www.w3.org/2000/svg">
<rect x="0.5" y="0.5" width="179" height="253" rx="14.5" fill="white" stroke="#1D1D1B"/>
<path d="M17.19 25.2401C15.64 25.2401 14.29 24.7401 13.16 23.7301C11.98 22.6901 11.4 21.4101 11.4 19.8901C11.4 18.1001 12.18 16.6601 13.73 15.5801C12.61 14.6601 12.05 13.4901 12.05 12.0701C12.05 10.7101 12.58 9.57008 13.63 8.65008C14.64 7.77008 15.83 7.33008 17.2 7.33008C18.57 7.33008 19.76 7.77008 20.77 8.65008C21.82 9.57008 22.35 10.7201 22.35 12.0701C22.35 13.4701 21.79 14.6401 20.67 15.5801C22.22 16.6401 23 18.0801 23 19.8901C23 21.4201 22.42 22.6901 21.27 23.7101C20.1 24.7301 18.74 25.2401 17.19 25.2401ZM17.19 16.8401C16.28 16.8401 15.48 17.1201 14.78 17.6801C14.02 18.2701 13.65 19.0101 13.65 19.9001C13.65 20.7801 14.03 21.5201 14.78 22.1201C15.48 22.6601 16.28 22.9401 17.19 22.9401C18.1 22.9401 18.9 22.6701 19.61 22.1201C20.37 21.5201 20.74 20.7801 20.74 19.9001C20.74 19.0101 20.36 18.2701 19.61 17.6801C18.9 17.1201 18.1 16.8401 17.19 16.8401ZM17.19 9.63008C16.45 9.63008 15.8 9.85008 15.24 10.3001C14.61 10.7701 14.29 11.3701 14.29 12.0801C14.29 12.7901 14.61 13.3801 15.24 13.8601C15.8 14.3101 16.45 14.5301 17.19 14.5301C17.93 14.5301 18.58 14.3101 19.14 13.8601C19.77 13.3901 20.08 12.7901 20.08 12.0801C20.08 11.3701 19.77 10.7801 19.14 10.3001C18.58 9.86008 17.93 9.63008 17.19 9.63008Z" fill="#1D1D1B"/>
<path d="M161.59 226.04C163.14 226.04 164.49 226.54 165.62 227.55C166.8 228.59 167.38 229.87 167.38 231.39C167.38 233.18 166.6 234.62 165.05 235.7C166.17 236.62 166.73 237.79 166.73 239.21C166.73 240.57 166.2 241.71 165.15 242.63C164.14 243.51 162.95 243.95 161.58 243.95C160.21 243.95 159.02 243.51 158.01 242.63C156.96 241.71 156.43 240.56 156.43 239.21C156.43 237.81 156.99 236.64 158.11 235.7C156.56 234.64 155.78 233.2 155.78 231.39C155.78 229.86 156.36 228.59 157.51 227.57C158.68 226.55 160.04 226.04 161.59 226.04ZM161.59 234.44C162.5 234.44 163.3 234.16 164.01 233.6C164.77 233.01 165.14 232.27 165.14 231.38C165.14 230.5 164.76 229.76 164.01 229.16C163.31 228.62 162.51 228.34 161.59 228.34C160.68 228.34 159.88 228.61 159.17 229.16C158.41 229.76 158.04 230.5 158.04 231.38C158.04 232.27 158.42 233.01 159.17 233.6C159.88 234.16 160.68 234.44 161.59 234.44ZM161.59 241.64C162.33 241.64 162.98 241.42 163.54 240.97C164.17 240.5 164.49 239.9 164.49 239.19C164.49 238.48 164.17 237.89 163.54 237.41C162.98 236.96 162.33 236.74 161.59 236.74C160.85 236.74 160.2 236.96 159.64 237.41C159.01 237.88 158.7 238.48 158.7 239.19C158.7 239.9 159.01 240.49 159.64 240.97C160.2 241.42 160.85 241.64 161.59 241.64Z" fill="#1D1D1B"/>
<path d="M16.5099 42.9298C16.8799 44.0598 17.5699 45.6398 18.7399 46.3298H13.8999C15.1399 45.3498 15.7099 43.9198 15.9699 42.9098C15.2899 44.0998 13.9999 44.8998 12.5299 44.8998C10.3399 44.8998 8.56995 43.1198 8.56995 40.9398C8.56995 38.7498 10.3399 36.9798 12.5299 36.9798C12.9699 36.9798 13.3999 37.0498 13.7899 37.1798C13.0199 36.4598 12.5299 35.4298 12.5299 34.2798C12.5299 32.0898 14.2999 30.3198 16.4899 30.3198C18.6799 30.3198 20.4499 32.0998 20.4499 34.2798C20.4499 35.4998 19.8999 36.5898 19.0299 37.3198C19.3499 37.2298 19.6899 37.1898 20.0399 37.1898C22.2299 37.1898 23.9999 38.9598 23.9999 41.1498C23.9999 43.3398 22.2299 45.1098 20.0399 45.1098C18.4999 45.1098 17.1599 44.2198 16.5099 42.9298Z" fill="#1D1D1B"/>
<path d="M163.52 210.9C163.15 209.77 162.46 208.19 161.29 207.5H166.12C164.88 208.48 164.31 209.91 164.05 210.92C164.74 209.73 166.02 208.93 167.49 208.93C169.68 208.93 171.45 210.71 171.45 212.89C171.45 215.08 169.68 216.85 167.49 216.85C167.05 216.85 166.62 216.78 166.23 216.65C167 217.37 167.49 218.4 167.49 219.55C167.49 221.74 165.72 223.51 163.53 223.51C161.34 223.51 159.57 221.73 159.57 219.55C159.57 218.33 160.12 217.24 160.99 216.51C160.67 216.6 160.33 216.64 159.98 216.64C157.79 216.64 156.02 214.87 156.02 212.68C156.02 210.49 157.79 208.72 159.98 208.72C161.53 208.71 162.87 209.6 163.52 210.9Z" fill="#1D1D1B"/>
<path d="M48.32 47.6498C49.1199 50.1198 50.6399 53.5698 53.1899 55.0798H42.6199C45.3299 52.9298 46.57 49.8198 47.1399 47.5998C45.6399 50.1998 42.8399 51.9498 39.6199 51.9498C34.8299 51.9498 30.95 48.0698 30.95 43.2798C30.95 38.4898 34.8299 34.6098 39.6199 34.6098C40.5799 34.6098 41.51 34.7698 42.38 35.0598C40.69 33.4798 39.63 31.2198 39.63 28.7198C39.63 23.9298 43.5099 20.0498 48.2999 20.0498C53.09 20.0498 56.97 23.9298 56.97 28.7198C56.97 31.3898 55.76 33.7798 53.86 35.3698C54.57 35.1798 55.31 35.0798 56.08 35.0798C60.87 35.0798 64.75 38.9598 64.75 43.7498C64.75 48.5398 60.87 52.4198 56.08 52.4198C52.68 52.4298 49.74 50.4898 48.32 47.6498Z" fill="#1D1D1B"/>
<path d="M47.3701 207.08C46.5701 204.61 45.0501 201.16 42.4901 199.65H53.0601C50.3501 201.8 49.1101 204.91 48.5401 207.13C50.0401 204.53 52.8401 202.78 56.0601 202.78C60.8501 202.78 64.7301 206.66 64.7301 211.45C64.7301 216.24 60.8501 220.12 56.0601 220.12C55.1001 220.12 54.1701 219.96 53.3001 219.67C55.0001 221.25 56.0501 223.51 56.0501 226.01C56.0501 230.8 52.1701 234.68 47.3801 234.68C42.5901 234.68 38.7101 230.8 38.7101 226.01C38.7101 223.34 39.9201 220.95 41.8201 219.36C41.1101 219.55 40.3701 219.65 39.6001 219.65C34.8101 219.65 30.9301 215.77 30.9301 210.98C30.9301 206.19 34.8101 202.31 39.6001 202.31C43.0101 202.3 45.9401 204.25 47.3701 207.08Z" fill="#1D1D1B"/>
<path d="M134.23 47.6498C135.03 50.1198 136.55 53.5698 139.11 55.0798H128.54C131.25 52.9298 132.49 49.8198 133.06 47.5998C131.56 50.1998 128.76 51.9498 125.54 51.9498C120.75 51.9498 116.87 48.0698 116.87 43.2798C116.87 38.4898 120.75 34.6098 125.54 34.6098C126.5 34.6098 127.43 34.7698 128.3 35.0598C126.6 33.4798 125.55 31.2198 125.55 28.7198C125.55 23.9298 129.43 20.0498 134.22 20.0498C139.01 20.0498 142.89 23.9298 142.89 28.7198C142.89 31.3898 141.68 33.7798 139.78 35.3698C140.49 35.1798 141.23 35.0798 142 35.0798C146.79 35.0798 150.67 38.9598 150.67 43.7498C150.67 48.5398 146.79 52.4198 142 52.4198C138.59 52.4298 135.65 50.4898 134.23 47.6498Z" fill="#1D1D1B"/>
<path d="M133.28 207.08C132.48 204.61 130.96 201.16 128.41 199.65H138.98C136.27 201.8 135.03 204.91 134.46 207.13C135.96 204.53 138.76 202.78 141.98 202.78C146.77 202.78 150.65 206.66 150.65 211.45C150.65 216.24 146.77 220.12 141.98 220.12C141.02 220.12 140.09 219.96 139.22 219.67C140.91 221.25 141.97 223.51 141.97 226.01C141.97 230.8 138.09 234.68 133.3 234.68C128.51 234.68 124.63 230.8 124.63 226.01C124.63 223.34 125.84 220.95 127.74 219.36C127.03 219.55 126.29 219.65 125.52 219.65C120.73 219.65 116.85 215.77 116.85 210.98C116.85 206.19 120.73 202.31 125.52 202.31C128.92 202.3 131.85 204.25 133.28 207.08Z" fill="#1D1D1B"/>
<path d="M48.32 137.45C49.1199 139.92 50.6399 143.37 53.1899 144.88H42.6199C45.3299 142.73 46.57 139.62 47.1399 137.4C45.6399 140 42.8399 141.75 39.6199 141.75C34.8299 141.75 30.95 137.87 30.95 133.08C30.95 128.29 34.8299 124.41 39.6199 124.41C40.5799 124.41 41.51 124.57 42.38 124.86C40.69 123.28 39.63 121.02 39.63 118.52C39.63 113.73 43.5099 109.85 48.2999 109.85C53.09 109.85 56.97 113.73 56.97 118.52C56.97 121.19 55.76 123.58 53.86 125.17C54.57 124.98 55.31 124.88 56.08 124.88C60.87 124.88 64.75 128.76 64.75 133.55C64.75 138.34 60.87 142.22 56.08 142.22C52.68 142.23 49.74 140.28 48.32 137.45Z" fill="#1D1D1B"/>
<path d="M134.23 137.45C135.03 139.92 136.55 143.37 139.11 144.88H128.54C131.25 142.73 132.49 139.62 133.06 137.4C131.56 140 128.76 141.75 125.54 141.75C120.75 141.75 116.87 137.87 116.87 133.08C116.87 128.29 120.75 124.41 125.54 124.41C126.5 124.41 127.43 124.57 128.3 124.86C126.6 123.28 125.55 121.02 125.55 118.52C125.55 113.73 129.43 109.85 134.22 109.85C139.01 109.85 142.89 113.73 142.89 118.52C142.89 121.19 141.68 123.58 139.78 125.17C140.49 124.98 141.23 124.88 142 124.88C146.79 124.88 150.67 128.76 150.67 133.55C150.67 138.34 146.79 142.22 142 142.22C138.59 142.23 135.65 140.28 134.23 137.45Z" fill="#1D1D1B"/>
<path d="M89.8001 92.2099C90.6001 94.6799 92.1201 98.1299 94.6801 99.6399H84.1001C86.8101 97.4899 88.0501 94.3799 88.6201 92.1599C87.1201 94.7599 84.3201 96.5099 81.1001 96.5099C76.3101 96.5099 72.4301 92.6299 72.4301 87.8399C72.4301 83.0499 76.3101 79.1699 81.1001 79.1699C82.0601 79.1699 82.9901 79.3299 83.8601 79.6199C82.1601 78.0399 81.1101 75.7799 81.1101 73.2799C81.1101 68.4899 84.9901 64.6099 89.7801 64.6099C94.5701 64.6099 98.4501 68.4899 98.4501 73.2799C98.4501 75.9499 97.24 78.3399 95.34 79.9299C96.05 79.7399 96.7901 79.6399 97.5601 79.6399C102.35 79.6399 106.23 83.5199 106.23 88.3099C106.23 93.0999 102.35 96.9799 97.5601 96.9799C94.1601 96.9899 91.2201 95.0399 89.8001 92.2099Z" fill="#1D1D1B"/>
<path d="M88.85 161.73C88.05 159.26 86.53 155.81 83.97 154.3H94.54C91.83 156.45 90.59 159.56 90.02 161.78C91.52 159.18 94.32 157.43 97.54 157.43C102.33 157.43 106.21 161.31 106.21 166.1C106.21 170.89 102.33 174.77 97.54 174.77C96.58 174.77 95.65 174.61 94.78 174.32C96.48 175.9 97.53 178.16 97.53 180.66C97.53 185.45 93.65 189.33 88.86 189.33C84.07 189.33 80.19 185.45 80.19 180.66C80.19 177.99 81.4 175.6 83.3 174.01C82.59 174.2 81.85 174.3 81.08 174.3C76.29 174.3 72.41 170.42 72.41 165.63C72.41 160.84 76.29 156.96 81.08 156.96C84.49 156.95 87.42 158.89 88.85 161.73Z" fill="#1D1D1B"/>
</svg>
