<svg width="180" height="254" viewBox="0 0 180 254" fill="none" xmlns="http://www.w3.org/2000/svg">
<rect x="0.5" y="0.5" width="179" height="253" rx="14.5" fill="white" stroke="#1D1D1B"/>
<path d="M15.91 24.2899C14.36 24.2899 13.01 23.7899 11.88 22.7799C10.7 21.7399 10.12 20.4599 10.12 18.9399C10.12 17.1499 10.9 15.7099 12.45 14.6299C11.33 13.7099 10.77 12.5399 10.77 11.1199C10.77 9.75988 11.3 8.61988 12.35 7.69988C13.36 6.81988 14.55 6.37988 15.92 6.37988C17.29 6.37988 18.48 6.81988 19.49 7.69988C20.54 8.61988 21.07 9.76988 21.07 11.1199C21.07 12.5199 20.51 13.6899 19.39 14.6299C20.94 15.6899 21.72 17.1299 21.72 18.9399C21.72 20.4699 21.14 21.7399 19.99 22.7599C18.82 23.7799 17.47 24.2899 15.91 24.2899ZM15.91 15.8899C15 15.8899 14.2 16.1699 13.5 16.7299C12.74 17.3199 12.37 18.0599 12.37 18.9499C12.37 19.8299 12.75 20.5699 13.5 21.1699C14.2 21.7099 15 21.9899 15.91 21.9899C16.82 21.9899 17.62 21.7199 18.33 21.1699C19.09 20.5699 19.46 19.8299 19.46 18.9499C19.46 18.0599 19.08 17.3199 18.33 16.7299C17.63 16.1699 16.82 15.8899 15.91 15.8899ZM15.91 8.68988C15.17 8.68988 14.52 8.90988 13.96 9.35988C13.33 9.82988 13.01 10.4299 13.01 11.1399C13.01 11.8499 13.33 12.4399 13.96 12.9199C14.52 13.3699 15.17 13.5899 15.91 13.5899C16.65 13.5899 17.3 13.3699 17.86 12.9199C18.49 12.4499 18.8 11.8499 18.8 11.1399C18.8 10.4299 18.49 9.83988 17.86 9.35988C17.31 8.90988 16.65 8.68988 15.91 8.68988Z" fill="#E30B13"/>
<path d="M161.59 227.04C163.14 227.04 164.49 227.54 165.62 228.55C166.8 229.59 167.38 230.87 167.38 232.39C167.38 234.18 166.6 235.62 165.05 236.7C166.17 237.62 166.73 238.79 166.73 240.21C166.73 241.57 166.2 242.71 165.15 243.63C164.14 244.51 162.95 244.95 161.58 244.95C160.21 244.95 159.02 244.51 158.01 243.63C156.96 242.71 156.43 241.56 156.43 240.21C156.43 238.81 156.99 237.64 158.11 236.7C156.56 235.64 155.78 234.2 155.78 232.39C155.78 230.86 156.36 229.59 157.51 228.57C158.68 227.55 160.04 227.04 161.59 227.04ZM161.59 235.44C162.5 235.44 163.3 235.16 164.01 234.6C164.77 234.01 165.14 233.27 165.14 232.38C165.14 231.5 164.76 230.76 164.01 230.16C163.31 229.62 162.51 229.34 161.59 229.34C160.67 229.34 159.88 229.61 159.18 230.16C158.42 230.76 158.05 231.5 158.05 232.38C158.05 233.27 158.43 234.01 159.18 234.6C159.88 235.16 160.68 235.44 161.59 235.44ZM161.59 242.64C162.33 242.64 162.98 242.42 163.54 241.97C164.17 241.5 164.49 240.9 164.49 240.19C164.49 239.48 164.17 238.89 163.54 238.41C162.98 237.96 162.33 237.74 161.59 237.74C160.85 237.74 160.2 237.96 159.64 238.41C159.01 238.88 158.7 239.48 158.7 240.19C158.7 240.9 159.01 241.49 159.64 241.97C160.2 242.42 160.85 242.64 161.59 242.64Z" fill="#E30B13"/>
<path d="M8.96997 36.3098L15.97 45.1598L23.06 36.3098L16.02 27.5898L8.96997 36.3098Z" fill="#E30B13"/>
<path d="M155.15 213.64L162.15 222.49L169.23 213.64L162.19 204.92L155.15 213.64Z" fill="#E30B13"/>
<path d="M33.26 37.0001L47.62 55.1601L62.17 37.0001L47.71 19.1001L33.26 37.0001Z" fill="#E30B13"/>
<path d="M33.26 217.58L47.62 235.73L62.17 217.58L47.71 199.67L33.26 217.58Z" fill="#E30B13"/>
<path d="M116.85 37.5902L131.21 55.7402L145.76 37.5902L131.3 19.6802L116.85 37.5902Z" fill="#E30B13"/>
<path d="M116.85 218.16L131.21 236.32L145.76 218.16L131.3 200.25L116.85 218.16Z" fill="#E30B13"/>
<path d="M32.89 128.07L47.25 146.22L61.8 128.07L47.34 110.16L32.89 128.07Z" fill="#E30B13"/>
<path d="M116.48 128.65L130.84 146.8L145.39 128.65L130.93 110.74L116.48 128.65Z" fill="#E30B13"/>
<path d="M74.87 81.66L89.23 99.81L103.78 81.66L89.32 63.75L74.87 81.66Z" fill="#E30B13"/>
<path d="M74.87 176.83L89.23 194.98L103.78 176.83L89.32 158.92L74.87 176.83Z" fill="#E30B13"/>
</svg>
