<svg width="180" height="254" viewBox="0 0 180 254" fill="none" xmlns="http://www.w3.org/2000/svg">
<rect x="0.5" y="0.5" width="179" height="253" rx="14.5" fill="white" stroke="#1D1D1B"/>
<path d="M49.09 59.3799C49.45 59.0699 49.78 58.7299 50.09 58.3499L60.64 45.4999L66.43 38.4399C69.41 34.8099 68.88 29.4499 65.25 26.4699L64.61 25.9399C60.98 22.9599 55.62 23.4899 52.64 27.1199L49.17 31.3499L45.77 27.1599C42.81 23.5099 37.46 22.9499 33.81 25.9099L33.17 26.4299C29.52 29.3899 28.96 34.7399 31.92 38.3899L48.15 58.3999C48.44 58.7599 48.75 59.0899 49.09 59.3799Z" fill="#E30B13"/>
<path d="M127.12 59.3799C127.48 59.0699 127.81 58.7299 128.12 58.3499L138.67 45.4999L144.46 38.4399C147.44 34.8099 146.91 29.4499 143.28 26.4699L142.64 25.9399C139.01 22.9599 133.65 23.4899 130.67 27.1199L127.2 31.3499L123.8 27.1599C120.84 23.5099 115.49 22.9499 111.84 25.9099L111.2 26.4299C107.55 29.3899 106.99 34.7399 109.95 38.3899L126.17 58.3999C126.46 58.7599 126.78 59.0899 127.12 59.3799Z" fill="#E30B13"/>
<path d="M49.09 147.7C49.45 147.39 49.78 147.05 50.09 146.67L60.64 133.81L66.43 126.75C69.41 123.12 68.88 117.76 65.25 114.78L64.61 114.25C60.98 111.27 55.62 111.8 52.64 115.43L49.17 119.66L45.77 115.47C42.81 111.82 37.46 111.26 33.81 114.22L33.17 114.74C29.52 117.7 28.96 123.05 31.92 126.7L48.15 146.71C48.44 147.08 48.75 147.41 49.09 147.7Z" fill="#E30B13"/>
<path d="M127.12 147.7C127.48 147.39 127.81 147.05 128.12 146.67L138.67 133.81L144.46 126.75C147.44 123.12 146.91 117.76 143.28 114.78L142.64 114.25C139.01 111.27 133.65 111.8 130.67 115.43L127.2 119.66L123.8 115.47C120.84 111.82 115.49 111.26 111.84 114.22L111.2 114.74C107.55 117.7 106.99 123.05 109.95 126.7L126.17 146.71C126.46 147.08 126.78 147.41 127.12 147.7Z" fill="#E30B13"/>
<path d="M48.83 198.61C48.47 198.92 48.14 199.26 47.83 199.64L37.27 212.5L31.48 219.56C28.5 223.19 29.03 228.55 32.66 231.53L33.3 232.06C36.93 235.04 42.29 234.51 45.27 230.88L48.74 226.65L52.14 230.84C55.1 234.49 60.45 235.05 64.1 232.09L64.74 231.57C68.39 228.61 68.95 223.26 65.99 219.61L49.77 199.6C49.48 199.23 49.16 198.9 48.83 198.61Z" fill="#E30B13"/>
<path d="M127.33 198.61C126.97 198.92 126.64 199.26 126.33 199.64L115.78 212.5L109.99 219.56C107.01 223.19 107.54 228.55 111.17 231.53L111.81 232.06C115.44 235.04 120.8 234.51 123.78 230.88L127.25 226.65L130.65 230.84C133.61 234.49 138.96 235.05 142.61 232.09L143.25 231.57C146.9 228.61 147.46 223.26 144.5 219.61L128.27 199.6C127.98 199.23 127.67 198.9 127.33 198.61Z" fill="#E30B13"/>
<path d="M87.9299 102.63C88.2899 102.32 88.6199 101.98 88.9299 101.6L99.4799 88.7401L105.27 81.6801C108.25 78.0501 107.72 72.6901 104.09 69.7101L103.45 69.1801C99.8199 66.2001 94.4599 66.7301 91.4799 70.3601L88.0099 74.5901L84.6099 70.4001C81.6499 66.7501 76.2999 66.1901 72.6499 69.1501L72.0099 69.6701C68.3599 72.6301 67.7999 77.9801 70.7599 81.6301L86.9799 101.64C87.2799 102.01 87.5999 102.34 87.9299 102.63Z" fill="#E30B13"/>
<path d="M88.99 153.3C88.63 153.61 88.3 153.95 87.99 154.33L77.44 167.19L71.65 174.25C68.67 177.88 69.2 183.24 72.83 186.22L73.47 186.75C77.1 189.73 82.46 189.2 85.44 185.57L88.91 181.34L92.31 185.53C95.27 189.18 100.62 189.74 104.27 186.78L104.91 186.26C108.56 183.3 109.12 177.95 106.16 174.3L89.94 154.29C89.64 153.92 89.32 153.59 88.99 153.3Z" fill="#E30B13"/>
<path d="M14.33 48.7098C14.51 48.5598 14.67 48.3898 14.83 48.1998L20.07 41.8098L22.95 38.3098C24.43 36.5098 24.17 33.8498 22.37 32.3598L22.05 32.0998C20.25 30.6198 17.59 30.8798 16.1 32.6798L14.38 34.7798L12.69 32.6998C11.22 30.8898 8.56002 30.6098 6.75002 32.0798L6.43002 32.3398C4.62002 33.8098 4.34002 36.4698 5.81002 38.2798L13.87 48.2198C14.01 48.4098 14.16 48.5698 14.33 48.7098Z" fill="#E30B13"/>
<path d="M158.91 205.64C158.73 205.79 158.57 205.96 158.41 206.15L153.17 212.54L150.29 216.04C148.81 217.84 149.07 220.5 150.87 221.99L151.19 222.25C152.99 223.73 155.65 223.47 157.14 221.67L158.87 219.57L160.56 221.65C162.03 223.46 164.69 223.74 166.5 222.27L166.82 222.01C168.63 220.54 168.91 217.88 167.44 216.07L159.38 206.13C159.23 205.95 159.08 205.79 158.91 205.64Z" fill="#E30B13"/>
<path d="M14.52 25.5599C12.97 25.5599 11.62 25.0599 10.49 24.0499C9.30998 23.0099 8.72998 21.7299 8.72998 20.2099C8.72998 18.4199 9.50998 16.9799 11.06 15.8999C9.93998 14.9799 9.37998 13.8099 9.37998 12.3899C9.37998 11.0299 9.90998 9.8899 10.96 8.9699C11.97 8.0899 13.16 7.6499 14.53 7.6499C15.9 7.6499 17.09 8.0899 18.1 8.9699C19.15 9.8899 19.68 11.0399 19.68 12.3899C19.68 13.7899 19.12 14.9599 18 15.8999C19.55 16.9599 20.33 18.3999 20.33 20.2099C20.33 21.7399 19.75 23.0099 18.6 24.0299C17.43 25.0499 16.07 25.5599 14.52 25.5599ZM14.52 17.1599C13.61 17.1599 12.81 17.4399 12.11 17.9999C11.35 18.5899 10.98 19.3299 10.98 20.2199C10.98 21.0999 11.36 21.8399 12.11 22.4399C12.81 22.9799 13.61 23.2599 14.52 23.2599C15.43 23.2599 16.23 22.9899 16.94 22.4399C17.7 21.8399 18.07 21.0999 18.07 20.2199C18.07 19.3299 17.69 18.5899 16.94 17.9999C16.23 17.4399 15.43 17.1599 14.52 17.1599ZM14.52 9.9599C13.78 9.9599 13.13 10.1799 12.57 10.6299C11.94 11.0999 11.62 11.6999 11.62 12.4099C11.62 13.1199 11.94 13.7099 12.57 14.1899C13.13 14.6399 13.78 14.8599 14.52 14.8599C15.26 14.8599 15.91 14.6399 16.47 14.1899C17.1 13.7199 17.41 13.1199 17.41 12.4099C17.41 11.6999 17.1 11.1099 16.47 10.6299C15.91 10.1799 15.26 9.9599 14.52 9.9599Z" fill="#E30B13"/>
<path d="M159.3 229.32C160.85 229.32 162.2 229.82 163.33 230.83C164.51 231.87 165.09 233.15 165.09 234.67C165.09 236.46 164.31 237.9 162.76 238.98C163.88 239.9 164.44 241.07 164.44 242.49C164.44 243.85 163.91 244.99 162.86 245.91C161.85 246.79 160.66 247.23 159.29 247.23C157.92 247.23 156.73 246.79 155.72 245.91C154.67 244.99 154.14 243.84 154.14 242.49C154.14 241.09 154.7 239.92 155.82 238.98C154.27 237.92 153.49 236.48 153.49 234.67C153.49 233.14 154.07 231.87 155.22 230.85C156.4 229.83 157.75 229.32 159.3 229.32ZM159.3 237.72C160.21 237.72 161.01 237.44 161.72 236.88C162.48 236.29 162.85 235.55 162.85 234.66C162.85 233.78 162.47 233.04 161.72 232.44C161.02 231.9 160.22 231.62 159.3 231.62C158.39 231.62 157.59 231.89 156.89 232.44C156.13 233.04 155.76 233.78 155.76 234.66C155.76 235.55 156.14 236.29 156.89 236.88C157.59 237.44 158.39 237.72 159.3 237.72ZM159.3 244.92C160.04 244.92 160.69 244.7 161.25 244.25C161.88 243.78 162.2 243.18 162.2 242.47C162.2 241.76 161.88 241.17 161.25 240.69C160.69 240.24 160.04 240.02 159.3 240.02C158.56 240.02 157.91 240.24 157.35 240.69C156.72 241.16 156.41 241.76 156.41 242.47C156.41 243.18 156.72 243.77 157.35 244.25C157.91 244.7 158.56 244.92 159.3 244.92Z" fill="#E30B13"/>
</svg>
