<svg width="180" height="254" viewBox="0 0 180 254" fill="none" xmlns="http://www.w3.org/2000/svg">
<rect x="0.5" y="0.5" width="179" height="253" rx="14.5" fill="white" stroke="#1D1D1B"/>
<path d="M14.52 24.5599C12.97 24.5599 11.62 24.0599 10.49 23.0499C9.30998 22.0099 8.72998 20.7299 8.72998 19.2099C8.72998 17.4199 9.50998 15.9799 11.06 14.8999C9.93998 13.9799 9.37998 12.8099 9.37998 11.3899C9.37998 10.0299 9.90998 8.8899 10.96 7.9699C11.97 7.0899 13.16 6.6499 14.53 6.6499C15.9 6.6499 17.09 7.0899 18.1 7.9699C19.15 8.8899 19.68 10.0399 19.68 11.3899C19.68 12.7899 19.12 13.9599 18 14.8999C19.55 15.9599 20.33 17.3999 20.33 19.2099C20.33 20.7399 19.75 22.0099 18.6 23.0299C17.43 24.0499 16.07 24.5599 14.52 24.5599ZM14.52 16.1599C13.61 16.1599 12.81 16.4399 12.11 16.9999C11.35 17.5899 10.98 18.3299 10.98 19.2199C10.98 20.0999 11.36 20.8399 12.11 21.4399C12.81 21.9799 13.61 22.2599 14.52 22.2599C15.43 22.2599 16.23 21.9899 16.94 21.4399C17.7 20.8399 18.07 20.0999 18.07 19.2199C18.07 18.3299 17.69 17.5899 16.94 16.9999C16.23 16.4399 15.43 16.1599 14.52 16.1599ZM14.52 8.9599C13.78 8.9599 13.13 9.1799 12.57 9.6299C11.94 10.0999 11.62 10.6999 11.62 11.4099C11.62 12.1199 11.94 12.7099 12.57 13.1899C13.13 13.6399 13.78 13.8599 14.52 13.8599C15.26 13.8599 15.91 13.6399 16.47 13.1899C17.1 12.7199 17.41 12.1199 17.41 11.4099C17.41 10.6999 17.1 10.1099 16.47 9.6299C15.91 9.1799 15.26 8.9599 14.52 8.9599Z" fill="#13110C"/>
<path d="M159.31 228.32C160.86 228.32 162.21 228.82 163.34 229.83C164.52 230.87 165.1 232.15 165.1 233.67C165.1 235.46 164.32 236.9 162.77 237.98C163.89 238.9 164.45 240.07 164.45 241.49C164.45 242.85 163.92 243.99 162.87 244.91C161.86 245.79 160.67 246.23 159.3 246.23C157.93 246.23 156.74 245.79 155.73 244.91C154.68 243.99 154.15 242.84 154.15 241.49C154.15 240.09 154.71 238.92 155.83 237.98C154.28 236.92 153.5 235.48 153.5 233.67C153.5 232.14 154.08 230.87 155.23 229.85C156.4 228.83 157.75 228.32 159.31 228.32ZM159.31 236.72C160.22 236.72 161.02 236.44 161.72 235.88C162.48 235.29 162.85 234.55 162.85 233.66C162.85 232.78 162.47 232.04 161.72 231.44C161.02 230.9 160.22 230.62 159.31 230.62C158.4 230.62 157.6 230.89 156.89 231.44C156.13 232.04 155.76 232.78 155.76 233.66C155.76 234.55 156.14 235.29 156.89 235.88C157.59 236.44 158.4 236.72 159.31 236.72ZM159.31 243.92C160.05 243.92 160.7 243.7 161.26 243.25C161.89 242.78 162.21 242.18 162.21 241.47C162.21 240.76 161.89 240.17 161.26 239.69C160.7 239.24 160.05 239.02 159.31 239.02C158.57 239.02 157.92 239.24 157.36 239.69C156.73 240.16 156.42 240.76 156.42 241.47C156.42 242.18 156.73 242.77 157.36 243.25C157.91 243.7 158.57 243.92 159.31 243.92Z" fill="#13110C"/>
<path d="M16.15 40.6201L14.69 42.4001C13.44 43.9301 11.18 44.1501 9.65001 42.9001L9.38001 42.6801C7.85001 41.4201 7.63001 39.1701 8.88001 37.6401L11.32 34.6701L15.76 29.2601C15.89 29.1001 16.03 28.9601 16.18 28.8301C16.32 28.9501 16.45 29.0901 16.57 29.2401L23.4 37.6701C24.65 39.2101 24.41 41.4601 22.87 42.7101L22.6 42.9301C21.06 44.1801 18.81 43.9401 17.56 42.4001L16.15 40.6201L16.95 39.6801C16.95 39.6801 15.39 43.4301 13.05 45.6701H18.99C18.99 45.6601 16.1 42.7101 16.15 40.6201Z" fill="#13110C"/>
<path d="M16.15 40.6201L14.69 42.4001C13.44 43.9301 11.18 44.1501 9.65001 42.9001L9.38001 42.6801C7.85001 41.4201 7.63001 39.1701 8.88001 37.6401L11.32 34.6701L15.76 29.2601C15.89 29.1001 16.03 28.9601 16.18 28.8301C16.32 28.9501 16.45 29.0901 16.57 29.2401L23.4 37.6701C24.65 39.2101 24.41 41.4601 22.87 42.7101L22.6 42.9301C21.06 44.1801 18.81 43.9401 17.56 42.4001L16.15 40.6201ZM16.15 40.6201L16.95 39.6801C16.95 39.6801 15.39 43.4301 13.05 45.6701H18.99C18.99 45.6601 16.1 42.7101 16.15 40.6201Z" stroke="#13110C" stroke-miterlimit="10"/>
<path d="M161.21 213.37L162.67 211.59C163.92 210.06 166.18 209.84 167.71 211.09L167.98 211.31C169.51 212.56 169.73 214.82 168.48 216.35L166.04 219.32L161.6 224.73C161.47 224.89 161.33 225.03 161.18 225.17C161.04 225.05 160.91 224.91 160.79 224.76L153.96 216.33C152.71 214.79 152.95 212.54 154.49 211.29L154.76 211.07C156.3 209.83 158.55 210.06 159.8 211.6L161.21 213.37L160.41 214.31C160.41 214.31 161.97 210.55 164.31 208.32H158.37C158.38 208.32 161.27 211.28 161.21 213.37Z" fill="#13110C"/>
<path d="M161.21 213.37L162.67 211.59C163.92 210.06 166.18 209.84 167.71 211.09L167.98 211.31C169.51 212.56 169.73 214.82 168.48 216.35L166.04 219.32L161.6 224.73C161.47 224.89 161.33 225.03 161.18 225.17C161.04 225.05 160.91 224.91 160.79 224.76L153.96 216.33C152.71 214.79 152.95 212.54 154.49 211.29L154.76 211.07C156.3 209.83 158.55 210.06 159.8 211.6L161.21 213.37ZM161.21 213.37L160.41 214.31C160.41 214.31 161.97 210.55 164.31 208.32H158.37C158.38 208.32 161.27 211.28 161.21 213.37Z" stroke="#13110C" stroke-miterlimit="10"/>
<path d="M49.56 207.61L52.52 204C55.06 200.91 59.62 200.46 62.71 203L63.26 203.45C66.35 205.99 66.8 210.55 64.26 213.65L59.32 219.66L50.33 230.61C50.07 230.93 49.78 231.22 49.48 231.49V231.5C49.2 231.25 48.93 230.97 48.68 230.66L34.86 213.6C32.34 210.49 32.82 205.93 35.92 203.41L36.47 202.96C39.58 200.44 44.14 200.92 46.66 204.02L49.56 207.61L47.94 209.52C47.94 209.52 51.09 201.93 55.82 197.41H43.82C43.82 197.4 49.67 203.39 49.56 207.61Z" fill="#13110C"/>
<path d="M49.56 207.61L52.52 204C55.06 200.91 59.62 200.46 62.71 203L63.26 203.45C66.35 205.99 66.8 210.55 64.26 213.65L59.32 219.66L50.33 230.61C50.07 230.93 49.78 231.22 49.48 231.49V231.5C49.2 231.25 48.93 230.97 48.68 230.66L34.86 213.6C32.34 210.49 32.82 205.93 35.92 203.41L36.47 202.96C39.58 200.44 44.14 200.92 46.66 204.02L49.56 207.61ZM49.56 207.61L47.94 209.52C47.94 209.52 51.09 201.93 55.82 197.41H43.82C43.82 197.4 49.67 203.39 49.56 207.61Z" stroke="#13110C" stroke-miterlimit="10"/>
<path d="M49.12 46.2699L46.16 49.8799C43.62 52.9699 39.06 53.4199 35.96 50.8799L35.42 50.4299C32.33 47.8899 31.88 43.3299 34.42 40.2299L39.35 34.2199L48.34 23.2699C48.6 22.9499 48.89 22.6499 49.19 22.3899V22.3799C49.47 22.6299 49.74 22.9099 49.99 23.2199L63.81 40.2599C66.33 43.3699 65.85 47.9299 62.75 50.4499L62.2 50.8999C59.09 53.4199 54.53 52.9399 52.01 49.8399L49.12 46.2699L50.74 44.3699C50.74 44.3699 47.59 51.9599 42.86 56.4799H54.87C54.86 56.4699 49.01 50.4899 49.12 46.2699Z" fill="#13110C"/>
<path d="M49.12 46.2699L46.16 49.8799C43.62 52.9699 39.06 53.4199 35.96 50.8799L35.42 50.4299C32.33 47.8899 31.88 43.3299 34.42 40.2299L39.35 34.2199L48.34 23.2699C48.6 22.9499 48.89 22.6499 49.19 22.3899V22.3799C49.47 22.6299 49.74 22.9099 49.99 23.2199L63.81 40.2599C66.33 43.3699 65.85 47.9299 62.75 50.4499L62.2 50.8999C59.09 53.4199 54.53 52.9399 52.01 49.8399L49.12 46.2699ZM49.12 46.2699L50.74 44.3699C50.74 44.3699 47.59 51.9599 42.86 56.4799H54.87C54.86 56.4699 49.01 50.4899 49.12 46.2699Z" stroke="#13110C" stroke-miterlimit="10"/>
<path d="M127.09 207.43L130.05 203.82C132.59 200.73 137.15 200.28 140.24 202.82L140.79 203.27C143.88 205.81 144.33 210.37 141.79 213.47L136.86 219.48L127.87 230.43C127.61 230.75 127.32 231.04 127.02 231.31V231.32C126.74 231.07 126.47 230.79 126.22 230.48L112.4 213.44C109.88 210.33 110.36 205.77 113.46 203.25L114.01 202.8C117.12 200.28 121.68 200.76 124.2 203.86L127.09 207.43L125.48 209.34C125.48 209.34 128.63 201.75 133.36 197.23H121.35C121.34 197.23 127.19 203.21 127.09 207.43Z" fill="#13110C"/>
<path d="M127.09 207.43L130.05 203.82C132.59 200.73 137.15 200.28 140.24 202.82L140.79 203.27C143.88 205.81 144.33 210.37 141.79 213.47L136.86 219.48L127.87 230.43C127.61 230.75 127.32 231.04 127.02 231.31V231.32C126.74 231.07 126.47 230.79 126.22 230.48L112.4 213.44C109.88 210.33 110.36 205.77 113.46 203.25L114.01 202.8C117.12 200.28 121.68 200.76 124.2 203.86L127.09 207.43ZM127.09 207.43L125.48 209.34C125.48 209.34 128.63 201.75 133.36 197.23H121.35C121.34 197.23 127.19 203.21 127.09 207.43Z" stroke="#13110C" stroke-miterlimit="10"/>
<path d="M126.65 46.1L123.69 49.71C121.15 52.8 116.59 53.25 113.5 50.71L112.95 50.26C109.86 47.72 109.41 43.16 111.95 40.06L116.88 34.05L125.87 23.1C126.13 22.78 126.42 22.48 126.73 22.22V22.21C127.01 22.46 127.28 22.74 127.53 23.05L141.35 40.09C143.87 43.2 143.39 47.76 140.29 50.28L139.74 50.73C136.63 53.25 132.07 52.77 129.55 49.67L126.65 46.1L128.26 44.2C128.26 44.2 125.11 51.79 120.38 56.31H132.39C132.39 56.3 126.54 50.32 126.65 46.1Z" fill="#13110C"/>
<path d="M126.65 46.1L123.69 49.71C121.15 52.8 116.59 53.25 113.5 50.71L112.95 50.26C109.86 47.72 109.41 43.16 111.95 40.06L116.88 34.05L125.87 23.1C126.13 22.78 126.42 22.48 126.73 22.22V22.21C127.01 22.46 127.28 22.74 127.53 23.05L141.35 40.09C143.87 43.2 143.39 47.76 140.29 50.28L139.74 50.73C136.63 53.25 132.07 52.77 129.55 49.67L126.65 46.1ZM126.65 46.1L128.26 44.2C128.26 44.2 125.11 51.79 120.38 56.31H132.39C132.39 56.3 126.54 50.32 126.65 46.1Z" stroke="#13110C" stroke-miterlimit="10"/>
<path d="M49.3 134.31L46.34 137.92C43.8 141.01 39.24 141.46 36.15 138.92L35.6 138.47C32.51 135.93 32.06 131.37 34.6 128.27L39.53 122.26L48.52 111.31C48.78 110.99 49.07 110.69 49.38 110.43V110.42C49.66 110.67 49.93 110.95 50.18 111.26L64 128.3C66.52 131.41 66.04 135.97 62.94 138.49L62.39 138.94C59.28 141.46 54.72 140.98 52.2 137.88L49.3 134.31L50.91 132.41C50.91 132.41 47.76 140 43.03 144.52H55.04C55.05 144.52 49.2 138.53 49.3 134.31Z" fill="#13110C"/>
<path d="M49.3 134.31L46.34 137.92C43.8 141.01 39.24 141.46 36.15 138.92L35.6 138.47C32.51 135.93 32.06 131.37 34.6 128.27L39.53 122.26L48.52 111.31C48.78 110.99 49.07 110.69 49.38 110.43V110.42C49.66 110.67 49.93 110.95 50.18 111.26L64 128.3C66.52 131.41 66.04 135.97 62.94 138.49L62.39 138.94C59.28 141.46 54.72 140.98 52.2 137.88L49.3 134.31ZM49.3 134.31L50.91 132.41C50.91 132.41 47.76 140 43.03 144.52H55.04C55.05 144.52 49.2 138.53 49.3 134.31Z" stroke="#13110C" stroke-miterlimit="10"/>
<path d="M126.75 134.31L123.79 137.92C121.25 141.01 116.69 141.46 113.6 138.92L113.05 138.47C109.96 135.93 109.51 131.37 112.05 128.27L116.98 122.26L125.97 111.31C126.23 110.99 126.52 110.69 126.83 110.43V110.42C127.11 110.67 127.38 110.95 127.63 111.26L141.45 128.3C143.97 131.41 143.49 135.97 140.39 138.49L139.84 138.94C136.73 141.46 132.17 140.98 129.65 137.88L126.75 134.31L128.36 132.41C128.36 132.41 125.21 140 120.48 144.52H132.5C132.5 144.52 126.65 138.53 126.75 134.31Z" fill="#13110C"/>
<path d="M126.75 134.31L123.79 137.92C121.25 141.01 116.69 141.46 113.6 138.92L113.05 138.47C109.96 135.93 109.51 131.37 112.05 128.27L116.98 122.26L125.97 111.31C126.23 110.99 126.52 110.69 126.83 110.43V110.42C127.11 110.67 127.38 110.95 127.63 111.26L141.45 128.3C143.97 131.41 143.49 135.97 140.39 138.49L139.84 138.94C136.73 141.46 132.17 140.98 129.65 137.88L126.75 134.31ZM126.75 134.31L128.36 132.41C128.36 132.41 125.21 140 120.48 144.52H132.5C132.5 144.52 126.65 138.53 126.75 134.31Z" stroke="#13110C" stroke-miterlimit="10"/>
<path d="M87.67 90.2601L84.71 93.8701C82.17 96.9601 77.61 97.4101 74.52 94.8701L73.97 94.4201C70.88 91.8801 70.43 87.3201 72.97 84.2201L77.9 78.2101L86.89 67.2601C87.15 66.9401 87.44 66.6501 87.75 66.3801V66.3701C88.03 66.6201 88.3 66.9001 88.55 67.2101L102.37 84.2601C104.89 87.3701 104.41 91.9301 101.31 94.4501L100.76 94.9001C97.65 97.4201 93.09 96.9401 90.57 93.8401L87.67 90.2601L89.28 88.3501C89.28 88.3501 86.13 95.9401 81.4 100.46H93.41C93.41 100.46 87.56 94.4801 87.67 90.2601Z" fill="#13110C"/>
<path d="M87.67 90.2601L84.71 93.8701C82.17 96.9601 77.61 97.4101 74.52 94.8701L73.97 94.4201C70.88 91.8801 70.43 87.3201 72.97 84.2201L77.9 78.2101L86.89 67.2601C87.15 66.9401 87.44 66.6501 87.75 66.3801V66.3701C88.03 66.6201 88.3 66.9001 88.55 67.2101L102.37 84.2601C104.89 87.3701 104.41 91.9301 101.31 94.4501L100.76 94.9001C97.65 97.4201 93.09 96.9401 90.57 93.8401L87.67 90.2601ZM87.67 90.2601L89.28 88.3501C89.28 88.3501 86.13 95.9401 81.4 100.46H93.41C93.41 100.46 87.56 94.4801 87.67 90.2601Z" stroke="#13110C" stroke-miterlimit="10"/>
<path d="M89.31 165.51L92.27 161.9C94.81 158.81 99.37 158.36 102.46 160.9L103.01 161.35C106.1 163.89 106.55 168.45 104.01 171.55L99.08 177.56L90.09 188.5C89.83 188.82 89.54 189.12 89.24 189.38V189.39C88.96 189.14 88.69 188.86 88.44 188.55L74.62 171.51C72.1 168.4 72.58 163.84 75.68 161.32L76.23 160.87C79.34 158.35 83.9 158.83 86.42 161.93L89.31 165.51L87.7 167.41C87.7 167.41 90.85 159.82 95.58 155.3H83.57C83.57 155.31 89.42 161.29 89.31 165.51Z" fill="#13110C"/>
<path d="M89.31 165.51L92.27 161.9C94.81 158.81 99.37 158.36 102.46 160.9L103.01 161.35C106.1 163.89 106.55 168.45 104.01 171.55L99.08 177.56L90.09 188.5C89.83 188.82 89.54 189.12 89.24 189.38V189.39C88.96 189.14 88.69 188.86 88.44 188.55L74.62 171.51C72.1 168.4 72.58 163.84 75.68 161.32L76.23 160.87C79.34 158.35 83.9 158.83 86.42 161.93L89.31 165.51ZM89.31 165.51L87.7 167.41C87.7 167.41 90.85 159.82 95.58 155.3H83.57C83.57 155.31 89.42 161.29 89.31 165.51Z" stroke="#13110C" stroke-miterlimit="10"/>
</svg>
