<svg width="180" height="254" viewBox="0 0 180 254" fill="none" xmlns="http://www.w3.org/2000/svg">
<rect x="0.5" y="0.5" width="179" height="253" rx="14.5" fill="white" stroke="#1D1D1B"/>
<path d="M20.02 19.2002C19.04 19.9802 17.93 20.3802 16.7 20.3802C15.05 20.3802 13.67 19.7302 12.56 18.4302C11.5 17.1702 10.96 15.7102 10.96 14.0402C10.96 12.3602 11.49 10.9002 12.56 9.65018C13.67 8.33018 15.05 7.68018 16.7 7.68018C18.74 7.68018 20.28 8.74018 21.3 10.8502C22.08 12.4902 22.48 14.4502 22.48 16.7502C22.48 19.1602 22.09 21.1502 21.32 22.7402C20.31 24.8302 18.73 25.8702 16.57 25.8702C14.47 25.8702 12.8 24.7902 11.57 22.6402L13.54 21.4902C14.32 22.8802 15.33 23.5702 16.56 23.5702C18.41 23.5502 19.56 22.1002 20.02 19.2002ZM16.69 9.99018C15.68 9.99018 14.84 10.4202 14.16 11.2902C13.53 12.0902 13.21 13.0002 13.21 14.0302C13.21 15.0602 13.53 15.9802 14.16 16.7702C14.83 17.6402 15.68 18.0702 16.69 18.0702C17.55 18.0702 18.29 17.7402 18.92 17.0902C19.48 16.5002 19.87 15.7702 20.08 14.8902C19.67 11.6202 18.54 9.99018 16.69 9.99018Z" fill="#1D1D1B"/>
<path d="M157.87 232.57C158.85 231.79 159.96 231.39 161.19 231.39C162.84 231.39 164.22 232.04 165.33 233.34C166.39 234.6 166.93 236.06 166.93 237.73C166.93 239.41 166.4 240.87 165.33 242.12C164.22 243.44 162.84 244.09 161.19 244.09C159.15 244.09 157.61 243.03 156.59 240.92C155.81 239.28 155.41 237.32 155.41 235.02C155.41 232.61 155.8 230.62 156.57 229.03C157.58 226.94 159.16 225.9 161.32 225.9C163.42 225.9 165.09 226.98 166.32 229.13L164.35 230.28C163.57 228.89 162.56 228.2 161.33 228.2C159.48 228.22 158.33 229.67 157.87 232.57ZM161.2 241.79C162.21 241.79 163.05 241.36 163.73 240.49C164.36 239.69 164.68 238.78 164.68 237.75C164.68 236.72 164.36 235.8 163.73 235.01C163.06 234.14 162.21 233.71 161.2 233.71C160.34 233.71 159.6 234.04 158.97 234.69C158.41 235.28 158.02 236.01 157.81 236.89C158.21 240.15 159.34 241.79 161.2 241.79Z" fill="#1D1D1B"/>
<path d="M16.47 42.5499C16.84 43.6799 17.53 45.2599 18.7 45.9499H13.87C15.11 44.9699 15.68 43.5399 15.93 42.5299C15.25 43.7199 13.96 44.5199 12.49 44.5199C10.3 44.5199 8.53003 42.7399 8.53003 40.5599C8.53003 38.3699 10.31 36.5999 12.49 36.5999C12.93 36.5999 13.36 36.6699 13.75 36.7999C12.97 36.0799 12.49 35.0499 12.49 33.8999C12.49 31.7099 14.27 29.9399 16.45 29.9399C18.64 29.9399 20.41 31.7199 20.41 33.8999C20.41 35.1199 19.86 36.2099 18.99 36.9399C19.31 36.8499 19.65 36.8099 20.01 36.8099C22.2 36.8099 23.97 38.5799 23.97 40.7699C23.97 42.9599 22.19 44.7299 20.01 44.7299C18.46 44.7399 17.12 43.8499 16.47 42.5499Z" fill="#1D1D1B"/>
<path d="M163.49 210.53C163.12 209.4 162.43 207.82 161.26 207.13H166.09C164.85 208.11 164.28 209.54 164.03 210.55C164.72 209.36 166 208.56 167.47 208.56C169.66 208.56 171.43 210.34 171.43 212.52C171.43 214.71 169.65 216.48 167.47 216.48C167.03 216.48 166.6 216.41 166.21 216.28C166.99 217 167.47 218.03 167.47 219.18C167.47 221.37 165.69 223.14 163.51 223.14C161.32 223.14 159.55 221.36 159.55 219.18C159.55 217.96 160.1 216.87 160.97 216.14C160.65 216.23 160.31 216.27 159.95 216.27C157.76 216.27 155.99 214.5 155.99 212.31C155.99 210.12 157.77 208.35 159.95 208.35C161.49 208.34 162.84 209.23 163.49 210.53Z" fill="#1D1D1B"/>
<path d="M47.75 47.2802C48.55 49.7502 50.07 53.2002 52.62 54.7102H42.06C44.77 52.5602 46.01 49.4502 46.58 47.2302C45.08 49.8302 42.28 51.5802 39.06 51.5802C34.27 51.5802 30.39 47.7002 30.39 42.9102C30.39 38.1202 34.27 34.2402 39.06 34.2402C40.02 34.2402 40.95 34.4002 41.82 34.6902H41.81C40.12 33.1102 39.06 30.8502 39.06 28.3502C39.06 23.5602 42.94 19.6802 47.73 19.6802C52.52 19.6802 56.4 23.5602 56.4 28.3502C56.4 31.0202 55.19 33.4102 53.29 35.0002C54 34.8102 54.74 34.7102 55.51 34.7102C60.3 34.7102 64.18 38.5902 64.18 43.3802C64.18 48.1702 60.3 52.0502 55.51 52.0502C52.11 52.0602 49.18 50.1102 47.75 47.2802Z" fill="#1D1D1B"/>
<path d="M46.8 206.71C46 204.24 44.48 200.79 41.92 199.28H52.5C49.79 201.43 48.55 204.54 47.98 206.76C49.48 204.16 52.28 202.41 55.5 202.41C60.29 202.41 64.17 206.29 64.17 211.08C64.17 215.87 60.29 219.75 55.5 219.75C54.54 219.75 53.61 219.59 52.74 219.3H52.75C54.45 220.88 55.5 223.14 55.5 225.64C55.5 230.43 51.62 234.31 46.83 234.31C42.04 234.31 38.16 230.43 38.16 225.64C38.16 222.97 39.37 220.58 41.27 218.99C40.56 219.18 39.82 219.28 39.05 219.28C34.26 219.28 30.38 215.4 30.38 210.61C30.38 205.82 34.26 201.94 39.05 201.94C42.44 201.93 45.38 203.88 46.8 206.71Z" fill="#1D1D1B"/>
<path d="M133.66 47.2802C134.46 49.7502 135.98 53.2002 138.54 54.7102H127.97C130.68 52.5602 131.92 49.4502 132.49 47.2302C130.99 49.8302 128.19 51.5802 124.97 51.5802C120.18 51.5802 116.3 47.7002 116.3 42.9102C116.3 38.1202 120.18 34.2402 124.97 34.2402C125.93 34.2402 126.86 34.4002 127.73 34.6902C126.03 33.1102 124.98 30.8502 124.98 28.3502C124.98 23.5602 128.86 19.6802 133.65 19.6802C138.44 19.6802 142.32 23.5602 142.32 28.3502C142.32 31.0202 141.11 33.4102 139.21 35.0002C139.92 34.8102 140.66 34.7102 141.43 34.7102C146.22 34.7102 150.1 38.5902 150.1 43.3802C150.1 48.1702 146.22 52.0502 141.43 52.0502C138.02 52.0602 135.09 50.1102 133.66 47.2802Z" fill="#1D1D1B"/>
<path d="M132.71 206.71C131.91 204.24 130.39 200.79 127.83 199.28H138.4C135.69 201.43 134.45 204.54 133.88 206.76C135.38 204.16 138.18 202.41 141.4 202.41C146.19 202.41 150.07 206.29 150.07 211.08C150.07 215.87 146.19 219.75 141.4 219.75C140.44 219.75 139.51 219.59 138.64 219.3C140.34 220.88 141.39 223.14 141.39 225.64C141.39 230.43 137.51 234.31 132.72 234.31C127.93 234.31 124.05 230.43 124.05 225.64C124.05 222.97 125.26 220.58 127.16 218.99C126.45 219.18 125.71 219.28 124.94 219.28C120.15 219.28 116.27 215.4 116.27 210.61C116.27 205.82 120.15 201.94 124.94 201.94C128.35 201.93 131.29 203.88 132.71 206.71Z" fill="#1D1D1B"/>
<path d="M47.75 107.43C48.55 109.9 50.07 113.35 52.62 114.86H42.06C44.77 112.71 46.01 109.6 46.58 107.38C45.08 109.98 42.28 111.73 39.06 111.73C34.27 111.73 30.39 107.85 30.39 103.06C30.39 98.2701 34.27 94.3901 39.06 94.3901C40.02 94.3901 40.95 94.5501 41.82 94.8401H41.81C40.12 93.2601 39.06 91.0001 39.06 88.5001C39.06 83.7101 42.94 79.8301 47.73 79.8301C52.52 79.8301 56.4 83.7101 56.4 88.5001C56.4 91.1701 55.19 93.5601 53.29 95.1501C54 94.9601 54.74 94.8601 55.51 94.8601C60.3 94.8601 64.18 98.7401 64.18 103.53C64.18 108.32 60.3 112.2 55.51 112.2C52.11 112.21 49.18 110.27 47.75 107.43Z" fill="#1D1D1B"/>
<path d="M133.66 107.43C134.46 109.9 135.98 113.35 138.54 114.86H127.97C130.68 112.71 131.92 109.6 132.49 107.38C130.99 109.98 128.19 111.73 124.97 111.73C120.18 111.73 116.3 107.85 116.3 103.06C116.3 98.2701 120.18 94.3901 124.97 94.3901C125.93 94.3901 126.86 94.5501 127.73 94.8401C126.03 93.2601 124.98 91.0001 124.98 88.5001C124.98 83.7101 128.86 79.8301 133.65 79.8301C138.44 79.8301 142.32 83.7101 142.32 88.5001C142.32 91.1701 141.11 93.5601 139.21 95.1501C139.92 94.9601 140.66 94.8601 141.43 94.8601C146.22 94.8601 150.1 98.7401 150.1 103.53C150.1 108.32 146.22 112.2 141.43 112.2C138.02 112.21 135.09 110.27 133.66 107.43Z" fill="#1D1D1B"/>
<path d="M132.71 146.78C131.91 144.31 130.39 140.86 127.83 139.35H138.4C135.69 141.5 134.45 144.61 133.88 146.83C135.38 144.23 138.18 142.48 141.4 142.48C146.19 142.48 150.07 146.36 150.07 151.15C150.07 155.94 146.19 159.82 141.4 159.82C140.44 159.82 139.51 159.66 138.64 159.37C140.34 160.95 141.39 163.21 141.39 165.71C141.39 170.5 137.51 174.38 132.72 174.38C127.93 174.38 124.05 170.5 124.05 165.71C124.05 163.04 125.26 160.65 127.16 159.06C126.45 159.25 125.71 159.35 124.94 159.35C120.15 159.35 116.27 155.47 116.27 150.68C116.27 145.89 120.15 142.01 124.94 142.01C128.35 142 131.29 143.95 132.71 146.78Z" fill="#1D1D1B"/>
<path d="M46.8 146.78C46 144.31 44.48 140.86 41.92 139.35H52.5C49.79 141.5 48.55 144.61 47.98 146.83C49.48 144.23 52.28 142.48 55.5 142.48C60.29 142.48 64.17 146.36 64.17 151.15C64.17 155.94 60.29 159.82 55.5 159.82C54.54 159.82 53.61 159.66 52.74 159.37H52.75C54.45 160.95 55.5 163.21 55.5 165.71C55.5 170.5 51.62 174.38 46.83 174.38C42.04 174.38 38.16 170.5 38.16 165.71C38.16 163.04 39.37 160.65 41.27 159.06C40.56 159.25 39.82 159.35 39.05 159.35C34.26 159.35 30.38 155.47 30.38 150.68C30.38 145.89 34.26 142.01 39.05 142.01C42.44 142 45.38 143.95 46.8 146.78Z" fill="#1D1D1B"/>
<path d="M89.47 137.07C90.27 139.54 91.79 142.99 94.35 144.5H83.78C86.49 142.35 87.73 139.24 88.3 137.02C86.8 139.62 84 141.37 80.78 141.37C75.99 141.37 72.11 137.49 72.11 132.7C72.11 127.91 75.99 124.03 80.78 124.03C81.74 124.03 82.67 124.19 83.54 124.48C81.84 122.9 80.79 120.64 80.79 118.14C80.79 113.35 84.67 109.47 89.46 109.47C94.25 109.47 98.13 113.35 98.13 118.14C98.13 120.81 96.92 123.2 95.02 124.79C95.73 124.6 96.47 124.5 97.24 124.5C102.03 124.5 105.91 128.38 105.91 133.17C105.91 137.96 102.03 141.84 97.24 141.84C93.83 141.85 90.9 139.91 89.47 137.07Z" fill="#1D1D1B"/>
</svg>
