<svg width="180" height="254" viewBox="0 0 180 254" fill="none" xmlns="http://www.w3.org/2000/svg">
<rect x="0.5" y="0.5" width="179" height="253" rx="14.5" fill="white" stroke="#1D1D1B"/>
<path d="M18.19 19.03C17.21 19.82 16.1 20.21 14.87 20.21C13.22 20.21 11.84 19.56 10.73 18.26C9.67 17 9.13 15.54 9.13 13.87C9.13 12.19 9.66 10.73 10.73 9.48C11.84 8.16 13.22 7.5 14.87 7.5C16.91 7.5 18.45 8.56 19.47 10.67C20.25 12.31 20.65 14.28 20.65 16.57C20.65 18.98 20.26 20.97 19.49 22.56C18.48 24.65 16.9 25.69 14.74 25.69C12.64 25.69 10.97 24.61 9.74 22.46L11.71 21.31C12.49 22.69 13.5 23.39 14.73 23.39C16.58 23.38 17.73 21.93 18.19 19.03ZM14.86 9.81C13.85 9.81 13.01 10.24 12.33 11.11C11.7 11.91 11.38 12.82 11.38 13.85C11.38 14.88 11.7 15.8 12.33 16.59C13 17.46 13.85 17.89 14.86 17.89C15.72 17.89 16.46 17.56 17.09 16.91C17.65 16.32 18.04 15.59 18.25 14.71C17.84 11.45 16.71 9.81 14.86 9.81Z" fill="#E30B13"/>
<path d="M157.87 233.57C158.85 232.79 159.96 232.39 161.19 232.39C162.84 232.39 164.22 233.04 165.33 234.34C166.39 235.6 166.93 237.06 166.93 238.73C166.93 240.41 166.4 241.87 165.33 243.12C164.22 244.44 162.84 245.09 161.19 245.09C159.15 245.09 157.61 244.03 156.59 241.92C155.81 240.28 155.41 238.32 155.41 236.02C155.41 233.61 155.8 231.62 156.57 230.03C157.58 227.94 159.16 226.9 161.32 226.9C163.42 226.9 165.09 227.98 166.32 230.13L164.35 231.28C163.57 229.89 162.56 229.2 161.33 229.2C159.48 229.22 158.33 230.67 157.87 233.57ZM161.2 242.78C162.21 242.78 163.05 242.35 163.73 241.48C164.36 240.68 164.68 239.77 164.68 238.74C164.68 237.71 164.36 236.79 163.73 236C163.06 235.13 162.21 234.7 161.2 234.7C160.34 234.7 159.6 235.03 158.97 235.68C158.41 236.27 158.02 237 157.81 237.88C158.21 241.15 159.34 242.78 161.2 242.78Z" fill="#E30B13"/>
<path d="M8.17004 36.9099L15.16 45.7599L22.25 36.9099L15.21 28.1899L8.17004 36.9099Z" fill="#E30B13"/>
<path d="M154.34 214.24L161.34 223.08L168.43 214.24L161.38 205.51L154.34 214.24Z" fill="#E30B13"/>
<path d="M30.67 35.0999L45.04 53.2499L59.58 35.0999L45.13 17.1899L30.67 35.0999Z" fill="#E30B13"/>
<path d="M30.67 215.67L45.04 233.83L59.58 215.67L45.13 197.76L30.67 215.67Z" fill="#E30B13"/>
<path d="M114.26 35.68L128.63 53.83L143.17 35.68L128.72 17.77L114.26 35.68Z" fill="#E30B13"/>
<path d="M114.26 216.26L128.63 234.41L143.17 216.26L128.72 198.35L114.26 216.26Z" fill="#E30B13"/>
<path d="M30.3 95.8099L44.67 113.96L59.21 95.8099L44.76 77.8999L30.3 95.8099Z" fill="#E30B13"/>
<path d="M113.89 96.39L128.26 114.54L142.8 96.39L128.35 78.48L113.89 96.39Z" fill="#E30B13"/>
<path d="M30.67 156.2L45.04 174.35L59.58 156.2L45.13 138.29L30.67 156.2Z" fill="#E30B13"/>
<path d="M114.26 156.78L128.62 174.93L143.17 156.78L128.72 138.87L114.26 156.78Z" fill="#E30B13"/>
<path d="M74.87 126.23L89.23 144.38L103.78 126.23L89.32 108.32L74.87 126.23Z" fill="#E30B13"/>
</svg>
