<svg width="180" height="254" viewBox="0 0 180 254" fill="none" xmlns="http://www.w3.org/2000/svg">
<rect x="0.5" y="0.5" width="179" height="253" rx="14.5" fill="white" stroke="#1D1D1B"/>
<path d="M49.09 59.3799C49.45 59.0699 49.78 58.7299 50.09 58.3499L60.64 45.4999L66.43 38.4399C69.41 34.8099 68.88 29.4499 65.25 26.4699L64.61 25.9399C60.98 22.9599 55.62 23.4899 52.64 27.1199L49.17 31.3499L45.77 27.1599C42.81 23.5099 37.46 22.9499 33.81 25.9099L33.17 26.4299C29.52 29.3899 28.96 34.7399 31.92 38.3899L48.14 58.3999C48.44 58.7599 48.75 59.0899 49.09 59.3799Z" fill="#E30B13"/>
<path d="M127.12 59.3799C127.48 59.0699 127.81 58.7299 128.12 58.3499L138.67 45.4999L144.46 38.4399C147.44 34.8099 146.91 29.4499 143.28 26.4699L142.64 25.9399C139.01 22.9599 133.65 23.4899 130.67 27.1199L127.2 31.3499L123.8 27.1599C120.84 23.5099 115.49 22.9499 111.84 25.9099L111.2 26.4299C107.55 29.3899 106.99 34.7399 109.95 38.3899L126.17 58.3999C126.47 58.7599 126.78 59.0899 127.12 59.3799Z" fill="#E30B13"/>
<path d="M50.2 117.5C50.56 117.19 50.89 116.85 51.2 116.47L61.75 103.61L67.54 96.5502C70.52 92.9202 69.99 87.5602 66.36 84.5802L65.72 84.0502C62.09 81.0702 56.73 81.6002 53.75 85.2302L50.28 89.4602L46.88 85.2702C43.92 81.6202 38.57 81.0602 34.92 84.0202L34.28 84.5402C30.63 87.5002 30.07 92.8502 33.03 96.5002L49.25 116.51C49.55 116.88 49.87 117.21 50.2 117.5Z" fill="#E30B13"/>
<path d="M128.23 117.5C128.59 117.19 128.92 116.85 129.23 116.47L139.78 103.61L145.57 96.5502C148.55 92.9202 148.02 87.5602 144.39 84.5802L143.75 84.0502C140.12 81.0702 134.76 81.6002 131.78 85.2302L128.31 89.4602L124.91 85.2702C121.95 81.6202 116.6 81.0602 112.95 84.0202L112.31 84.5402C108.66 87.5002 108.1 92.8502 111.06 96.5002L127.28 116.51C127.58 116.88 127.89 117.21 128.23 117.5Z" fill="#E30B13"/>
<path d="M48.83 198.61C48.47 198.92 48.14 199.26 47.83 199.64L37.27 212.5L31.48 219.56C28.5 223.19 29.03 228.55 32.66 231.53L33.3 232.06C36.93 235.04 42.29 234.51 45.27 230.88L48.74 226.65L52.14 230.84C55.1 234.49 60.45 235.05 64.1 232.09L64.74 231.57C68.39 228.61 68.95 223.26 65.99 219.61L49.77 199.6C49.48 199.23 49.16 198.9 48.83 198.61Z" fill="#E30B13"/>
<path d="M127.33 198.61C126.97 198.92 126.64 199.26 126.33 199.64L115.78 212.5L109.99 219.56C107.01 223.19 107.54 228.55 111.17 231.53L111.81 232.06C115.44 235.04 120.8 234.51 123.78 230.88L127.25 226.65L130.65 230.84C133.61 234.49 138.96 235.05 142.61 232.09L143.25 231.57C146.9 228.61 147.46 223.26 144.5 219.61L128.28 199.6C127.98 199.23 127.67 198.9 127.33 198.61Z" fill="#E30B13"/>
<path d="M14.61 49.34C14.79 49.19 14.95 49.02 15.11 48.83L20.35 42.44L23.23 38.93C24.71 37.13 24.45 34.47 22.65 32.98L22.33 32.72C20.53 31.24 17.87 31.5 16.38 33.31L14.66 35.41L12.97 33.33C11.5 31.52 8.84004 31.24 7.03004 32.71L6.70004 32.97C4.89004 34.44 4.61004 37.1 6.08004 38.91L14.14 48.85C14.29 49.03 14.44 49.19 14.61 49.34Z" fill="#E30B13"/>
<path d="M158.87 206.27C158.69 206.42 158.53 206.59 158.37 206.78L153.13 213.17L150.25 216.68C148.77 218.48 149.03 221.14 150.84 222.63L151.16 222.89C152.96 224.37 155.62 224.11 157.11 222.3L158.83 220.2L160.52 222.28C161.99 224.09 164.65 224.37 166.46 222.9L166.78 222.64C168.59 221.17 168.87 218.51 167.4 216.7L159.34 206.76C159.19 206.57 159.04 206.41 158.87 206.27Z" fill="#E30B13"/>
<path d="M50.18 141.54C49.82 141.85 49.49 142.19 49.18 142.57L38.63 155.43L32.84 162.49C29.86 166.12 30.39 171.48 34.02 174.46L34.66 174.99C38.29 177.97 43.65 177.44 46.63 173.81L50.1 169.58L53.5 173.77C56.46 177.42 61.81 177.98 65.46 175.02L66.1 174.5C69.75 171.54 70.31 166.19 67.35 162.54L51.12 142.53C50.83 142.16 50.52 141.83 50.18 141.54Z" fill="#E30B13"/>
<path d="M128.69 141.54C128.33 141.85 128 142.19 127.69 142.57L117.14 155.43L111.35 162.49C108.37 166.12 108.9 171.48 112.53 174.46L113.17 174.99C116.8 177.97 122.16 177.44 125.14 173.81L128.61 169.58L132.01 173.77C134.97 177.42 140.32 177.98 143.97 175.02L144.61 174.5C148.26 171.54 148.82 166.19 145.86 162.54L129.64 142.53C129.34 142.16 129.02 141.83 128.69 141.54Z" fill="#E30B13"/>
<path d="M89.22 146.66C89.58 146.35 89.91 146.01 90.22 145.63L100.77 132.77L106.56 125.71C109.54 122.08 109.01 116.72 105.38 113.74L104.74 113.21C101.11 110.23 95.75 110.76 92.77 114.39L89.3 118.62L85.9 114.43C82.94 110.78 77.59 110.22 73.94 113.18L73.3 113.7C69.65 116.66 69.09 122.01 72.05 125.66L88.27 145.67C88.57 146.04 88.88 146.37 89.22 146.66Z" fill="#E30B13"/>
<path d="M18.19 19.03C17.21 19.81 16.1 20.21 14.87 20.21C13.22 20.21 11.84 19.56 10.73 18.26C9.67 17 9.13 15.54 9.13 13.87C9.13 12.19 9.66 10.73 10.73 9.48C11.84 8.16 13.22 7.5 14.87 7.5C16.91 7.5 18.45 8.56 19.47 10.67C20.25 12.31 20.65 14.27 20.65 16.57C20.65 18.98 20.27 20.97 19.5 22.56C18.49 24.65 16.91 25.69 14.75 25.69C12.65 25.69 10.98 24.61 9.75 22.46L11.72 21.31C12.5 22.7 13.51 23.39 14.74 23.39C16.58 23.38 17.73 21.93 18.19 19.03ZM14.86 9.81C13.85 9.81 13.01 10.24 12.33 11.11C11.7 11.91 11.38 12.82 11.38 13.85C11.38 14.88 11.69 15.8 12.33 16.59C13 17.46 13.85 17.89 14.86 17.89C15.72 17.89 16.46 17.56 17.09 16.91C17.65 16.32 18.04 15.59 18.25 14.71C17.84 11.45 16.71 9.81 14.86 9.81Z" fill="#E30B13"/>
<path d="M156.02 235.85C157 235.07 158.11 234.67 159.34 234.67C160.99 234.67 162.37 235.32 163.48 236.62C164.54 237.88 165.08 239.34 165.08 241.01C165.08 242.69 164.55 244.15 163.48 245.4C162.37 246.72 160.99 247.37 159.34 247.37C157.3 247.37 155.76 246.31 154.74 244.2C153.96 242.56 153.56 240.6 153.56 238.3C153.56 235.89 153.95 233.9 154.72 232.31C155.73 230.22 157.31 229.18 159.47 229.18C161.57 229.18 163.24 230.26 164.47 232.41L162.5 233.56C161.72 232.17 160.71 231.48 159.48 231.48C157.63 231.5 156.48 232.95 156.02 235.85ZM159.35 245.07C160.36 245.07 161.2 244.64 161.88 243.77C162.51 242.97 162.83 242.06 162.83 241.03C162.83 240 162.51 239.08 161.88 238.29C161.21 237.42 160.36 236.99 159.35 236.99C158.49 236.99 157.75 237.32 157.12 237.97C156.56 238.56 156.17 239.29 155.96 240.17C156.37 243.43 157.5 245.07 159.35 245.07Z" fill="#E30B13"/>
</svg>
