<svg width="180" height="254" viewBox="0 0 180 254" fill="none" xmlns="http://www.w3.org/2000/svg">
<rect x="0.5" y="0.5" width="179" height="253" rx="14.5" fill="white" stroke="#1D1D1B"/>
<path d="M18.19 18.03C17.21 18.81 16.1 19.21 14.87 19.21C13.22 19.21 11.84 18.56 10.73 17.26C9.67 16 9.13 14.54 9.13 12.87C9.13 11.19 9.66 9.73 10.73 8.48C11.84 7.16 13.22 6.5 14.87 6.5C16.91 6.5 18.45 7.56 19.47 9.67C20.25 11.31 20.65 13.27 20.65 15.57C20.65 17.98 20.26 19.97 19.49 21.56C18.48 23.65 16.9 24.69 14.74 24.69C12.64 24.69 10.97 23.61 9.74 21.46L11.71 20.31C12.49 21.7 13.5 22.39 14.73 22.39C16.58 22.38 17.73 20.93 18.19 18.03ZM14.86 8.81C13.85 8.81 13 9.24 12.33 10.11C11.7 10.91 11.38 11.82 11.38 12.85C11.38 13.88 11.7 14.8 12.33 15.59C13 16.46 13.85 16.89 14.86 16.89C15.72 16.89 16.46 16.56 17.09 15.91C17.65 15.32 18.04 14.59 18.25 13.71C17.84 10.44 16.71 8.81 14.86 8.81Z" fill="#13110C"/>
<path d="M156.02 234.85C157 234.07 158.11 233.67 159.34 233.67C160.99 233.67 162.37 234.32 163.48 235.62C164.54 236.88 165.08 238.34 165.08 240.01C165.08 241.69 164.55 243.15 163.48 244.4C162.37 245.72 160.99 246.37 159.34 246.37C157.3 246.37 155.76 245.31 154.74 243.2C153.96 241.56 153.56 239.6 153.56 237.3C153.56 234.89 153.95 232.9 154.72 231.31C155.73 229.22 157.31 228.18 159.47 228.18C161.57 228.18 163.24 229.26 164.47 231.41L162.5 232.56C161.72 231.17 160.71 230.48 159.48 230.48C157.63 230.5 156.48 231.95 156.02 234.85ZM159.35 244.07C160.36 244.07 161.2 243.64 161.88 242.77C162.51 241.97 162.83 241.06 162.83 240.03C162.83 239 162.51 238.08 161.88 237.29C161.21 236.42 160.36 235.99 159.35 235.99C158.49 235.99 157.75 236.32 157.12 236.97C156.56 237.56 156.17 238.29 155.96 239.17C156.36 242.44 157.49 244.07 159.35 244.07Z" fill="#13110C"/>
<path d="M15.76 40.6201L14.3 42.4001C13.05 43.9301 10.79 44.1501 9.26003 42.9001L8.99003 42.6801C7.46003 41.4201 7.24003 39.1701 8.50003 37.6401L10.94 34.6701L15.38 29.2601C15.51 29.1001 15.65 28.9601 15.8 28.8301C15.94 28.9501 16.07 29.0901 16.19 29.2401L23.02 37.6701C24.27 39.2101 24.03 41.4601 22.49 42.7101L22.22 42.9301C20.68 44.1801 18.43 43.9401 17.18 42.4001L15.76 40.6201L16.56 39.6801C16.56 39.6801 15 43.4301 12.67 45.6701H18.61C18.59 45.6601 15.7 42.7001 15.76 40.6201Z" fill="#13110C"/>
<path d="M15.76 40.6201L14.3 42.4001C13.05 43.9301 10.79 44.1501 9.26003 42.9001L8.99003 42.6801C7.46003 41.4201 7.24003 39.1701 8.50003 37.6401L10.94 34.6701L15.38 29.2601C15.51 29.1001 15.65 28.9601 15.8 28.8301C15.94 28.9501 16.07 29.0901 16.19 29.2401L23.02 37.6701C24.27 39.2101 24.03 41.4601 22.49 42.7101L22.22 42.9301C20.68 44.1801 18.43 43.9401 17.18 42.4001L15.76 40.6201ZM15.76 40.6201L16.56 39.6801C16.56 39.6801 15 43.4301 12.67 45.6701H18.61C18.59 45.6601 15.7 42.7001 15.76 40.6201Z" stroke="#13110C" stroke-miterlimit="10"/>
<path d="M161.12 213.37L162.58 211.59C163.83 210.06 166.09 209.84 167.62 211.09L167.89 211.31C169.42 212.56 169.64 214.82 168.39 216.35L165.95 219.32L161.51 224.73C161.38 224.89 161.24 225.03 161.09 225.17C160.95 225.05 160.82 224.91 160.7 224.76L153.87 216.33C152.62 214.79 152.86 212.54 154.4 211.29L154.67 211.07C156.21 209.83 158.46 210.06 159.71 211.6L161.12 213.37L160.32 214.31C160.32 214.31 161.88 210.55 164.22 208.32H158.28C158.28 208.32 161.17 211.28 161.12 213.37Z" fill="#13110C"/>
<path d="M161.12 213.37L162.58 211.59C163.83 210.06 166.09 209.84 167.62 211.09L167.89 211.31C169.42 212.56 169.64 214.82 168.39 216.35L165.95 219.32L161.51 224.73C161.38 224.89 161.24 225.03 161.09 225.17C160.95 225.05 160.82 224.91 160.7 224.76L153.87 216.33C152.62 214.79 152.86 212.54 154.4 211.29L154.67 211.07C156.21 209.83 158.46 210.06 159.71 211.6L161.12 213.37ZM161.12 213.37L160.32 214.31C160.32 214.31 161.88 210.55 164.22 208.32H158.28C158.28 208.32 161.17 211.28 161.12 213.37Z" stroke="#13110C" stroke-miterlimit="10"/>
<path d="M53.3 208.26L56.26 204.65C58.8 201.56 63.36 201.11 66.45 203.65L67 204.1C70.09 206.64 70.54 211.2 68 214.3L63.06 220.31L54.07 231.26C53.81 231.58 53.52 231.88 53.22 232.14V232.15C52.94 231.9 52.67 231.62 52.42 231.31L38.6 214.27C36.08 211.16 36.56 206.6 39.66 204.08L40.21 203.63C43.32 201.11 47.88 201.59 50.4 204.69L53.3 208.26L51.68 210.16C51.68 210.16 54.83 202.57 59.56 198.05H47.56C47.56 198.05 53.41 204.04 53.3 208.26Z" fill="#13110C"/>
<path d="M53.3 208.26L56.26 204.65C58.8 201.56 63.36 201.11 66.45 203.65L67 204.1C70.09 206.64 70.54 211.2 68 214.3L63.06 220.31L54.07 231.26C53.81 231.58 53.52 231.88 53.22 232.14V232.15C52.94 231.9 52.67 231.62 52.42 231.31L38.6 214.27C36.08 211.16 36.56 206.6 39.66 204.08L40.21 203.63C43.32 201.11 47.88 201.59 50.4 204.69L53.3 208.26ZM53.3 208.26L51.68 210.16C51.68 210.16 54.83 202.57 59.56 198.05H47.56C47.56 198.05 53.41 204.04 53.3 208.26Z" stroke="#13110C" stroke-miterlimit="10"/>
<path d="M52.86 46.9198L49.9 50.5298C47.36 53.6198 42.8 54.0698 39.7 51.5298L39.16 51.0798C36.07 48.5398 35.62 43.9798 38.16 40.8798L43.09 34.8698L52.08 23.9198C52.35 23.5998 52.63 23.3098 52.94 23.0398V23.0298C53.23 23.2798 53.49 23.5598 53.74 23.8698L67.56 40.9098C70.08 44.0198 69.6 48.5798 66.5 51.0998L65.95 51.5498C62.84 54.0698 58.28 53.5898 55.76 50.4898L52.86 46.9198L54.48 45.0098C54.48 45.0098 51.33 52.5998 46.6 57.1198H58.61C58.61 57.1298 52.76 51.1398 52.86 46.9198Z" fill="#13110C"/>
<path d="M52.86 46.9198L49.9 50.5298C47.36 53.6198 42.8 54.0698 39.7 51.5298L39.16 51.0798C36.07 48.5398 35.62 43.9798 38.16 40.8798L43.09 34.8698L52.08 23.9198C52.35 23.5998 52.63 23.3098 52.94 23.0398V23.0298C53.23 23.2798 53.49 23.5598 53.74 23.8698L67.56 40.9098C70.08 44.0198 69.6 48.5798 66.5 51.0998L65.95 51.5498C62.84 54.0698 58.28 53.5898 55.76 50.4898L52.86 46.9198ZM52.86 46.9198L54.48 45.0098C54.48 45.0098 51.33 52.5998 46.6 57.1198H58.61C58.61 57.1298 52.76 51.1398 52.86 46.9198Z" stroke="#13110C" stroke-miterlimit="10"/>
<path d="M130.83 208.09L133.79 204.48C136.33 201.39 140.89 200.94 143.98 203.48L144.53 203.93C147.62 206.47 148.07 211.03 145.53 214.13L140.6 220.14L131.61 231.09C131.35 231.41 131.06 231.71 130.75 231.97V231.98C130.47 231.73 130.2 231.45 129.95 231.14L116.13 214.1C113.61 210.99 114.09 206.43 117.19 203.91L117.74 203.46C120.85 200.94 125.41 201.42 127.93 204.52L130.83 208.09L129.22 209.99C129.22 209.99 132.37 202.4 137.1 197.88H125.09C125.09 197.88 130.94 203.87 130.83 208.09Z" fill="#13110C"/>
<path d="M130.83 208.09L133.79 204.48C136.33 201.39 140.89 200.94 143.98 203.48L144.53 203.93C147.62 206.47 148.07 211.03 145.53 214.13L140.6 220.14L131.61 231.09C131.35 231.41 131.06 231.71 130.75 231.97V231.98C130.47 231.73 130.2 231.45 129.95 231.14L116.13 214.1C113.61 210.99 114.09 206.43 117.19 203.91L117.74 203.46C120.85 200.94 125.41 201.42 127.93 204.52L130.83 208.09ZM130.83 208.09L129.22 209.99C129.22 209.99 132.37 202.4 137.1 197.88H125.09C125.09 197.88 130.94 203.87 130.83 208.09Z" stroke="#13110C" stroke-miterlimit="10"/>
<path d="M130.39 46.7499L127.43 50.3599C124.89 53.4499 120.33 53.8999 117.24 51.3599L116.69 50.9099C113.6 48.3699 113.15 43.8099 115.69 40.7099L120.62 34.6999L129.61 23.7499C129.87 23.4299 130.16 23.1399 130.47 22.8699V22.8599C130.75 23.1099 131.02 23.3899 131.27 23.6999L145.09 40.7399C147.61 43.8499 147.13 48.4099 144.03 50.9299L143.48 51.3799C140.37 53.8999 135.81 53.4199 133.29 50.3199L130.39 46.7499L132 44.8399C132 44.8399 128.85 52.4299 124.12 56.9499H136.13C136.13 56.9599 130.28 50.9699 130.39 46.7499Z" fill="#13110C"/>
<path d="M130.39 46.7499L127.43 50.3599C124.89 53.4499 120.33 53.8999 117.24 51.3599L116.69 50.9099C113.6 48.3699 113.15 43.8099 115.69 40.7099L120.62 34.6999L129.61 23.7499C129.87 23.4299 130.16 23.1399 130.47 22.8699V22.8599C130.75 23.1099 131.02 23.3899 131.27 23.6999L145.09 40.7399C147.61 43.8499 147.13 48.4099 144.03 50.9299L143.48 51.3799C140.37 53.8999 135.81 53.4199 133.29 50.3199L130.39 46.7499ZM130.39 46.7499L132 44.8399C132 44.8399 128.85 52.4299 124.12 56.9499H136.13C136.13 56.9599 130.28 50.9699 130.39 46.7499Z" stroke="#13110C" stroke-miterlimit="10"/>
<path d="M52.86 104.95L49.9 108.56C47.36 111.65 42.8 112.1 39.71 109.56L39.16 109.11C36.07 106.57 35.62 102.01 38.16 98.9101L43.09 92.9001L52.08 81.9501C52.34 81.6301 52.63 81.3301 52.94 81.0701V81.0601C53.22 81.3101 53.49 81.5901 53.74 81.9001L67.56 98.9501C70.08 102.06 69.6 106.62 66.5 109.14L65.95 109.59C62.84 112.11 58.28 111.63 55.76 108.53L52.86 104.95L54.47 103.05C54.47 103.05 51.32 110.64 46.59 115.16H58.6C58.61 115.15 52.76 109.16 52.86 104.95Z" fill="#13110C"/>
<path d="M52.86 104.95L49.9 108.56C47.36 111.65 42.8 112.1 39.71 109.56L39.16 109.11C36.07 106.57 35.62 102.01 38.16 98.9101L43.09 92.9001L52.08 81.9501C52.34 81.6301 52.63 81.3301 52.94 81.0701V81.0601C53.22 81.3101 53.49 81.5901 53.74 81.9001L67.56 98.9501C70.08 102.06 69.6 106.62 66.5 109.14L65.95 109.59C62.84 112.11 58.28 111.63 55.76 108.53L52.86 104.95ZM52.86 104.95L54.47 103.05C54.47 103.05 51.32 110.64 46.59 115.16H58.6C58.61 115.15 52.76 109.16 52.86 104.95Z" stroke="#13110C" stroke-miterlimit="10"/>
<path d="M130.31 104.95L127.35 108.56C124.81 111.65 120.25 112.1 117.16 109.56L116.61 109.11C113.52 106.57 113.07 102.01 115.61 98.9101L120.54 92.9001L129.53 81.9501C129.79 81.6301 130.08 81.3301 130.39 81.0701V81.0601C130.67 81.3101 130.94 81.5901 131.19 81.9001L145.01 98.9501C147.53 102.06 147.05 106.62 143.95 109.14L143.4 109.59C140.29 112.11 135.73 111.63 133.21 108.53L130.31 104.95L131.92 103.05C131.92 103.05 128.77 110.64 124.04 115.16H136.05C136.05 115.15 130.21 109.16 130.31 104.95Z" fill="#13110C"/>
<path d="M130.31 104.95L127.35 108.56C124.81 111.65 120.25 112.1 117.16 109.56L116.61 109.11C113.52 106.57 113.07 102.01 115.61 98.9101L120.54 92.9001L129.53 81.9501C129.79 81.6301 130.08 81.3301 130.39 81.0701V81.0601C130.67 81.3101 130.94 81.5901 131.19 81.9001L145.01 98.9501C147.53 102.06 147.05 106.62 143.95 109.14L143.4 109.59C140.29 112.11 135.73 111.63 133.21 108.53L130.31 104.95ZM130.31 104.95L131.92 103.05C131.92 103.05 128.77 110.64 124.04 115.16H136.05C136.05 115.15 130.21 109.16 130.31 104.95Z" stroke="#13110C" stroke-miterlimit="10"/>
<path d="M52.08 149.21L55.04 145.6C57.58 142.51 62.14 142.06 65.24 144.6L65.78 145.05C68.87 147.59 69.32 152.15 66.78 155.25L61.84 161.26L52.85 172.21C52.59 172.53 52.3 172.82 52 173.09V173.1C51.72 172.85 51.45 172.57 51.2 172.26L37.38 155.22C34.86 152.11 35.34 147.55 38.44 145.03L38.99 144.58C42.1 142.06 46.66 142.54 49.18 145.64L52.08 149.21L50.46 151.12C50.46 151.12 53.61 143.53 58.34 139.01H46.34C46.34 139.01 52.19 144.99 52.08 149.21Z" fill="#13110C"/>
<path d="M52.08 149.21L55.04 145.6C57.58 142.51 62.14 142.06 65.24 144.6L65.78 145.05C68.87 147.59 69.32 152.15 66.78 155.25L61.84 161.26L52.85 172.21C52.59 172.53 52.3 172.82 52 173.09V173.1C51.72 172.85 51.45 172.57 51.2 172.26L37.38 155.22C34.86 152.11 35.34 147.55 38.44 145.03L38.99 144.58C42.1 142.06 46.66 142.54 49.18 145.64L52.08 149.21ZM52.08 149.21L50.46 151.12C50.46 151.12 53.61 143.53 58.34 139.01H46.34C46.34 139.01 52.19 144.99 52.08 149.21Z" stroke="#13110C" stroke-miterlimit="10"/>
<path d="M129.61 149.04L132.57 145.43C135.11 142.34 139.67 141.89 142.76 144.43L143.31 144.88C146.4 147.42 146.85 151.98 144.31 155.08L139.37 161.09L130.38 172.04C130.12 172.36 129.83 172.65 129.53 172.92V172.93C129.25 172.68 128.98 172.4 128.73 172.09L114.91 155.05C112.39 151.94 112.87 147.38 115.97 144.86L116.52 144.41C119.63 141.89 124.19 142.37 126.71 145.47L129.61 149.04L127.99 150.95C127.99 150.95 131.14 143.36 135.87 138.84H123.86C123.87 138.83 129.71 144.82 129.61 149.04Z" fill="#13110C"/>
<path d="M129.61 149.04L132.57 145.43C135.11 142.34 139.67 141.89 142.76 144.43L143.31 144.88C146.4 147.42 146.85 151.98 144.31 155.08L139.37 161.09L130.38 172.04C130.12 172.36 129.83 172.65 129.53 172.92V172.93C129.25 172.68 128.98 172.4 128.73 172.09L114.91 155.05C112.39 151.94 112.87 147.38 115.97 144.86L116.52 144.41C119.63 141.89 124.19 142.37 126.71 145.47L129.61 149.04ZM129.61 149.04L127.99 150.95C127.99 150.95 131.14 143.36 135.87 138.84H123.86C123.87 138.83 129.71 144.82 129.61 149.04Z" stroke="#13110C" stroke-miterlimit="10"/>
<path d="M89.3401 134.68L86.3801 138.29C83.8401 141.38 79.2801 141.83 76.1901 139.29L75.6401 138.84C72.5501 136.3 72.1001 131.74 74.6401 128.64L79.5701 122.63L88.5601 111.68C88.8201 111.36 89.1101 111.07 89.4201 110.8V110.79C89.7001 111.04 89.9701 111.32 90.2201 111.63L104.04 128.67C106.56 131.78 106.08 136.34 102.98 138.86L102.43 139.31C99.3201 141.83 94.7601 141.35 92.2401 138.25L89.3401 134.68L90.9501 132.77C90.9501 132.77 87.8001 140.36 83.0701 144.88H95.0801C95.0801 144.88 89.2301 138.9 89.3401 134.68Z" fill="#13110C"/>
<path d="M89.3401 134.68L86.3801 138.29C83.8401 141.38 79.2801 141.83 76.1901 139.29L75.6401 138.84C72.5501 136.3 72.1001 131.74 74.6401 128.64L79.5701 122.63L88.5601 111.68C88.8201 111.36 89.1101 111.07 89.4201 110.8V110.79C89.7001 111.04 89.9701 111.32 90.2201 111.63L104.04 128.67C106.56 131.78 106.08 136.34 102.98 138.86L102.43 139.31C99.3201 141.83 94.7601 141.35 92.2401 138.25L89.3401 134.68ZM89.3401 134.68L90.9501 132.77C90.9501 132.77 87.8001 140.36 83.0701 144.88H95.0801C95.0801 144.88 89.2301 138.9 89.3401 134.68Z" stroke="#13110C" stroke-miterlimit="10"/>
</svg>
