<svg width="180" height="254" viewBox="0 0 180 254" fill="none" xmlns="http://www.w3.org/2000/svg">
<rect x="0.5" y="0.5" width="179" height="253" rx="14.5" fill="white" stroke="#1D1D1B"/>
<path d="M14.39 22.2901V24.4101H9.69995V22.2901H11.23L14.13 6.81006H16.75L19.67 22.2901H21.2V24.4101H16.52V22.2901H17.53L17.19 20.4401H13.7L13.35 22.2901H14.39ZM14.1 18.3201H16.82L15.45 11.0801L14.1 18.3201Z" fill="#1D1D1B"/>
<path d="M162.32 231.13V229.01H167V231.13H165.47L162.57 246.61H159.94L157.02 231.13H155.49V229.01H160.17V231.13H159.16L159.5 232.98H162.99L163.34 231.13H162.32ZM162.61 235.1H159.89L161.26 242.34L162.61 235.1Z" fill="#1D1D1B"/>
<path d="M89.7999 137.45C90.5999 139.92 92.1199 143.37 94.6699 144.88H84.0999C86.8099 142.73 88.0499 139.62 88.6099 137.4C87.1099 140 84.3099 141.75 81.0899 141.75C76.2999 141.75 72.4199 137.87 72.4199 133.08C72.4199 128.29 76.2999 124.41 81.0899 124.41C82.0499 124.41 82.9799 124.57 83.8499 124.86H83.8399C82.1499 123.28 81.0899 121.02 81.0899 118.52C81.0899 113.73 84.9699 109.85 89.7599 109.85C94.5499 109.85 98.4299 113.73 98.4299 118.52C98.4299 121.19 97.2199 123.58 95.3199 125.17C96.0299 124.98 96.7699 124.88 97.5399 124.88C102.33 124.88 106.21 128.76 106.21 133.55C106.21 138.34 102.33 142.22 97.5399 142.22C94.1599 142.23 91.2199 140.29 89.7999 137.45Z" fill="#1D1D1B"/>
<path d="M16.3199 42.4501C16.6899 43.5801 17.3799 45.1601 18.5499 45.8501H13.7199C14.9599 44.8701 15.5299 43.4401 15.7899 42.4301C15.0999 43.6201 13.8199 44.4201 12.3499 44.4201C10.1599 44.4201 8.38989 42.6401 8.38989 40.4601C8.38989 38.2701 10.1599 36.5001 12.3499 36.5001C12.7899 36.5001 13.2199 36.5701 13.6099 36.7101C12.8399 35.9901 12.3499 34.9601 12.3499 33.8101C12.3499 31.6201 14.1199 29.8501 16.3099 29.8501C18.4999 29.8501 20.2699 31.6301 20.2699 33.8101C20.2699 35.0301 19.7199 36.1201 18.8499 36.8501C19.1699 36.7601 19.5099 36.7201 19.8599 36.7201C22.0499 36.7201 23.8199 38.4901 23.8199 40.6801C23.8199 42.8701 22.0499 44.6401 19.8599 44.6401C18.3099 44.6401 16.9699 43.7501 16.3199 42.4501Z" fill="#1D1D1B"/>
<path d="M163.33 210.42C162.96 209.29 162.27 207.71 161.1 207.02H165.93C164.69 208 164.12 209.43 163.86 210.44C164.54 209.25 165.83 208.45 167.3 208.45C169.49 208.45 171.26 210.23 171.26 212.41C171.26 214.6 169.49 216.37 167.3 216.37C166.86 216.37 166.43 216.3 166.04 216.17C166.81 216.89 167.3 217.92 167.3 219.07C167.3 221.26 165.53 223.03 163.34 223.03C161.15 223.03 159.38 221.25 159.38 219.07C159.38 217.85 159.93 216.76 160.8 216.03C160.48 216.12 160.14 216.16 159.79 216.16C157.6 216.16 155.83 214.38 155.83 212.2C155.83 210.01 157.6 208.24 159.79 208.24C161.34 208.24 162.68 209.12 163.33 210.42Z" fill="#1D1D1B"/>
</svg>
