<svg width="180" height="254" viewBox="0 0 180 254" fill="none" xmlns="http://www.w3.org/2000/svg">
<rect x="0.5" y="0.5" width="179" height="253" rx="14.5" fill="white" stroke="#1D1D1B"/>
<path d="M14.39 22.6699V24.7899H9.69995V22.6699H11.23L14.13 7.18994H16.75L19.67 22.6699H21.2V24.7899H16.52V22.6699H17.53L17.19 20.8199H13.7L13.35 22.6699H14.39ZM14.1 18.7099H16.82L15.45 11.4699L14.1 18.7099Z" fill="#E30B13"/>
<path d="M160.65 230.43V228.31H165.33V230.43H163.8L160.9 245.91H158.27L155.35 230.43H153.82V228.31H158.5V230.43H157.49L157.83 232.28H161.32L161.67 230.43H160.65ZM160.94 234.4H158.22L159.59 241.64L160.94 234.4Z" fill="#E30B13"/>
<path d="M76 126.93L90.36 145.08L104.91 126.93L90.45 109.02L76 126.93Z" fill="#E30B13"/>
<path d="M9.44995 37.72L16.45 46.57L23.54 37.72L16.49 29L9.44995 37.72Z" fill="#E30B13"/>
<path d="M153.69 214.05L160.69 222.89L167.78 214.05L160.73 205.32L153.69 214.05Z" fill="#E30B13"/>
</svg>
