<svg width="180" height="254" viewBox="0 0 180 254" fill="none" xmlns="http://www.w3.org/2000/svg">
<rect x="0.5" y="0.5" width="179" height="253" rx="14.5" fill="white" stroke="#1D1D1B"/>
<path d="M87.75 147.35C88.11 147.04 88.44 146.7 88.75 146.32L99.3 133.46L105.09 126.4C108.07 122.77 107.54 117.41 103.91 114.43L103.27 113.9C99.64 110.92 94.28 111.45 91.3 115.08L87.83 119.31L84.43 115.11C81.47 111.46 76.12 110.9 72.47 113.86L71.83 114.38C68.18 117.34 67.62 122.69 70.58 126.34L86.81 146.35C87.1 146.73 87.42 147.06 87.75 147.35Z" fill="#E30B13"/>
<path d="M16.7499 49.0902C16.9299 48.9402 17.0899 48.7702 17.2499 48.5802L22.4899 42.1902L25.3699 38.6902C26.8499 36.8902 26.5899 34.2302 24.7799 32.7402L24.4599 32.4802C22.6599 31.0002 19.9999 31.2602 18.5099 33.0602L16.7799 35.1602L15.0899 33.0802C13.6199 31.2702 10.9599 30.9902 9.14993 32.4602L8.82993 32.7202C7.01993 34.1902 6.73993 36.8502 8.20993 38.6602L16.2699 48.6002C16.4199 48.7902 16.5799 48.9502 16.7499 49.0902Z" fill="#E30B13"/>
<path d="M160.48 205.93C160.3 206.08 160.14 206.25 159.98 206.44L154.74 212.83L151.86 216.33C150.38 218.13 150.64 220.79 152.44 222.28L152.76 222.54C154.56 224.02 157.22 223.76 158.71 221.96L160.43 219.86L162.12 221.94C163.59 223.75 166.25 224.03 168.06 222.56L168.38 222.3C170.19 220.83 170.47 218.17 169 216.36L160.94 206.42C160.8 206.24 160.65 206.07 160.48 205.93Z" fill="#E30B13"/>
<path d="M14.0999 24.3198V26.4398H9.41992V24.3198H10.9499L13.8499 8.83984H16.4799L19.3999 24.3198H20.9299V26.4398H16.2499V24.3198H17.2599L16.9199 22.4698H13.4299L13.0799 24.3198H14.0999ZM13.8099 20.3498H16.5299L15.1599 13.1098L13.8099 20.3498Z" fill="#E30B13"/>
<path d="M160.4 231.93V229.81H165.08V231.93H163.55L160.65 247.41H158.02L155.1 231.93H153.57V229.81H158.25V231.93H157.24L157.58 233.78H161.07L161.42 231.93H160.4ZM160.69 235.9H157.97L159.34 243.14L160.69 235.9Z" fill="#E30B13"/>
</svg>
