<svg width="180" height="254" viewBox="0 0 180 254" fill="none" xmlns="http://www.w3.org/2000/svg">
<rect x="0.5" y="0.5" width="179" height="253" rx="14.5" fill="white" stroke="#1D1D1B"/>
<path d="M89.3401 133.91L86.3801 137.52C83.8401 140.61 79.2801 141.06 76.1901 138.52L75.6401 138.07C72.5501 135.53 72.1001 130.97 74.6401 127.87L79.5801 121.86L88.5701 110.91C88.8301 110.59 89.1201 110.29 89.4201 110.03V110.02C89.7001 110.27 89.9701 110.55 90.2201 110.86L104.04 127.9C106.56 131.01 106.08 135.57 102.98 138.09L102.43 138.54C99.3201 141.06 94.7601 140.58 92.2401 137.48L89.3401 133.91L90.9601 132.01C90.9601 132.01 87.8101 139.6 83.0801 144.12H95.0901C95.0801 144.12 89.2301 138.13 89.3401 133.91Z" fill="#13110C"/>
<path d="M89.3401 133.91L86.3801 137.52C83.8401 140.61 79.2801 141.06 76.1901 138.52L75.6401 138.07C72.5501 135.53 72.1001 130.97 74.6401 127.87L79.5801 121.86L88.5701 110.91C88.8301 110.59 89.1201 110.29 89.4201 110.03V110.02C89.7001 110.27 89.9701 110.55 90.2201 110.86L104.04 127.9C106.56 131.01 106.08 135.57 102.98 138.09L102.43 138.54C99.3201 141.06 94.7601 140.58 92.2401 137.48L89.3401 133.91ZM89.3401 133.91L90.9601 132.01C90.9601 132.01 87.8101 139.6 83.0801 144.12H95.0901C95.0801 144.12 89.2301 138.13 89.3401 133.91Z" stroke="#13110C" stroke-miterlimit="10"/>
<path d="M13.2701 24.3198V26.4398H8.58008V24.3198H10.1101L13.0101 8.83984H15.6401L18.5601 24.3198H20.0901V26.4398H15.4101V24.3198H16.4201L16.0801 22.4698H12.6001L12.2501 24.3198H13.2701ZM12.9801 20.3498H15.7001L14.3301 13.1098L12.9801 20.3498Z" fill="#13110C"/>
<path d="M159.56 231.93V229.81H164.24V231.93H162.71L159.81 247.41H157.18L154.26 231.93H152.73V229.81H157.41V231.93H156.4L156.74 233.78H160.23L160.58 231.93H159.56ZM159.85 235.9H157.13L158.5 243.14L159.85 235.9Z" fill="#13110C"/>
<path d="M15.7301 40.79L14.2701 42.57C13.0201 44.1 10.7601 44.32 9.23008 43.07L8.96009 42.85C7.43009 41.59 7.21009 39.34 8.46009 37.81L10.9001 34.84L15.3401 29.43C15.4701 29.27 15.6101 29.13 15.7601 29C15.9001 29.12 16.0301 29.26 16.1501 29.41L22.9801 37.84C24.2301 39.38 23.9901 41.63 22.4501 42.88L22.1801 43.1C20.6401 44.35 18.3901 44.11 17.1401 42.57L15.7301 40.79L16.5301 39.85C16.5301 39.85 14.9701 43.6 12.6301 45.84H18.5701C18.5701 45.83 15.6701 42.87 15.7301 40.79Z" fill="#13110C"/>
<path d="M15.7301 40.79L14.2701 42.57C13.0201 44.1 10.7601 44.32 9.23008 43.07L8.96009 42.85C7.43009 41.59 7.21009 39.34 8.46009 37.81L10.9001 34.84L15.3401 29.43C15.4701 29.27 15.6101 29.13 15.7601 29C15.9001 29.12 16.0301 29.26 16.1501 29.41L22.9801 37.84C24.2301 39.38 23.9901 41.63 22.4501 42.88L22.1801 43.1C20.6401 44.35 18.3901 44.11 17.1401 42.57L15.7301 40.79ZM15.7301 40.79L16.5301 39.85C16.5301 39.85 14.9701 43.6 12.6301 45.84H18.5701C18.5701 45.83 15.6701 42.87 15.7301 40.79Z" stroke="#13110C" stroke-miterlimit="10"/>
<path d="M161.09 213.54L162.55 211.76C163.8 210.23 166.06 210.01 167.59 211.26L167.86 211.48C169.39 212.73 169.61 214.99 168.35 216.52L165.91 219.49L161.47 224.9C161.34 225.06 161.2 225.2 161.05 225.34C160.91 225.22 160.78 225.08 160.66 224.93L153.83 216.5C152.58 214.96 152.82 212.71 154.36 211.46L154.63 211.24C156.17 210 158.42 210.23 159.67 211.77L161.09 213.54L160.29 214.48C160.29 214.48 161.85 210.72 164.18 208.49H158.24C158.25 208.49 161.14 211.45 161.09 213.54Z" fill="#13110C"/>
<path d="M161.09 213.54L162.55 211.76C163.8 210.23 166.06 210.01 167.59 211.26L167.86 211.48C169.39 212.73 169.61 214.99 168.35 216.52L165.91 219.49L161.47 224.9C161.34 225.06 161.2 225.2 161.05 225.34C160.91 225.22 160.78 225.08 160.66 224.93L153.83 216.5C152.58 214.96 152.82 212.71 154.36 211.46L154.63 211.24C156.17 210 158.42 210.23 159.67 211.77L161.09 213.54ZM161.09 213.54L160.29 214.48C160.29 214.48 161.85 210.72 164.18 208.49H158.24C158.25 208.49 161.14 211.45 161.09 213.54Z" stroke="#13110C" stroke-miterlimit="10"/>
</svg>
