<svg width="180" height="254" viewBox="0 0 180 254" fill="none" xmlns="http://www.w3.org/2000/svg">
<rect x="0.5" y="0.5" width="179" height="253" rx="14.5" fill="white" stroke="#1D1D1B"/>
<path d="M83.35 97.6899L83.24 100.46L82.83 110.45C82.83 110.45 88.81 115.75 90.06 118.03L90.09 101.54L87.95 100.31L83.35 97.6899Z" fill="#FFEA24" stroke="#13110C" stroke-miterlimit="10"/>
<path d="M95.6899 118.29C99.2099 114.37 105.25 112.22 105.25 112.22C104.24 109.98 103.22 98.02 103.22 98.02L95.6999 102.6V118.29H95.6899Z" fill="#E31518" stroke="#13110C" stroke-miterlimit="10"/>
<path d="M102.61 83.0601C102.09 83.7601 102.97 95.0401 102.97 95.0401L94.11 100.22L66.79 84.0901L66.73 71.8701L94.11 88.6501L102.61 83.0601Z" fill="#211C4B" stroke="#13110C" stroke-miterlimit="10"/>
<path d="M52.94 98.5299C58.67 97.5399 64.14 99.3199 64.14 99.3199V70.6699C61.96 71.7299 52.32 77.0199 52.32 77.0199L52.02 97.2499L52.94 98.5299Z" fill="#211C4B" stroke="#13110C" stroke-miterlimit="10"/>
<path d="M62.01 98.1198L58.1 93.7598L54.35 97.6598C54.34 97.6598 58.43 98.5398 62.01 98.1198Z" fill="white" stroke="white" stroke-miterlimit="10"/>
<path d="M61.02 73.0298L63.1 75.0898L58.09 80.6998L54.36 76.5898L61.02 73.0298Z" fill="white" stroke="white" stroke-miterlimit="10"/>
<path d="M94.11 122.96C94.11 122.96 100.61 116.71 105.78 114.73L107.92 122.74L100.68 127.53H98.74L94.11 122.96Z" fill="white" stroke="#13110C" stroke-miterlimit="10"/>
<path d="M37.03 126.98H28.91V70.0098L37.03 79.3298V126.98Z" fill="#211C4B" stroke="#13110C" stroke-miterlimit="10"/>
<path d="M115.99 79.2002C115.99 79.2002 117.35 102.89 118.37 105.02L131.75 94.6902L137.27 96.8202V76.1002C137.27 76.1002 132.84 74.8502 129.96 79.7502C129.96 79.7502 128.86 78.9602 125.82 79.3402C125.82 79.3302 118.16 80.1302 115.99 79.2002Z" fill="#13110C" stroke="#13110C" stroke-miterlimit="10"/>
<path d="M106.41 98.02H107.17" stroke="white" stroke-miterlimit="10"/>
<path d="M106.22 96.27H108.39" stroke="white" stroke-miterlimit="10"/>
<path d="M74.7 47.66C74.7 47.66 71.88 53.41 72.34 62.9C72.34 62.9 72.41 63.9 71.01 62.9C69.62 61.9 67.23 63.83 67.63 68.41C67.63 68.41 67.55 70.14 71.14 72.19L87.74 82.15C87.74 82.15 92.32 82.35 92.72 71.86V52.68C92.72 52.68 93.78 47.75 95.37 46C95.38 46 82.43 46.16 74.7 47.66Z" fill="#E2C80B" stroke="#13110C" stroke-miterlimit="10"/>
<path d="M77.25 48.3901C77.25 48.3901 75.66 50.1901 75.79 52.8301L75.78 64.6401" stroke="#13110C" stroke-width="0.5" stroke-miterlimit="10"/>
<path d="M10.97 20.1599C10.97 21.0099 10.97 21.3699 10.97 21.2299C10.97 22.0699 11.14 22.7399 11.5 23.2499C11.92 23.8499 12.55 24.1499 13.39 24.1499C14.1 24.1499 14.68 23.8899 15.11 23.3699C15.5 22.8899 15.7 22.2999 15.7 21.5799V11.1899H13.79V8.68994H19.94V11.1899H18.11V21.5799C18.11 22.9899 17.68 24.1799 16.83 25.1299C15.93 26.1199 14.79 26.6199 13.39 26.6199C11.98 26.6199 10.81 26.1299 9.89996 25.1499C8.98996 24.1699 8.53996 22.9699 8.55996 21.5599V20.1499H10.97V20.1599Z" fill="#1D1D1B"/>
<path d="M164.78 231.95C164.78 231.1 164.78 230.74 164.78 230.88C164.78 230.04 164.61 229.37 164.25 228.86C163.83 228.26 163.2 227.96 162.36 227.96C161.65 227.96 161.07 228.22 160.64 228.74C160.25 229.22 160.05 229.81 160.05 230.52V240.92H161.96V243.42H155.81V240.92H157.64V230.52C157.64 229.11 158.07 227.92 158.92 226.97C159.82 225.98 160.96 225.48 162.36 225.48C163.77 225.48 164.94 225.97 165.85 226.95C166.76 227.93 167.21 229.13 167.19 230.54V231.95H164.78Z" fill="#1D1D1B"/>
<path d="M148.75 30.3101H28.91V224.73H148.75V30.3101Z" stroke="#13110C" stroke-miterlimit="10"/>
<path d="M129.97 30.2202H65.35L74.7 47.6602C74.7 47.6602 104.32 43.1602 119.94 48.8602L129.97 30.2202Z" fill="#E31518" stroke="#13110C" stroke-miterlimit="10"/>
<path d="M119.94 48.8598L121.73 45.5398C101.44 37.8198 72.97 44.4398 72.97 44.4398L74.7 47.6598C74.7 47.6598 105.12 43.1498 119.94 48.8598Z" fill="#211C4B" stroke="#13110C" stroke-miterlimit="10"/>
<path d="M73.31 30.2202L76.52 36.3402H84.61L84.96 30.2202H87.12L86.63 38.6002L75.06 39.5402L70.66 30.2202H73.31Z" fill="#13110C"/>
<path d="M122.31 30.22L119.12 36.36L111.03 36.41L110.67 30.29L108.5 30.3L109.02 38.67L120.6 39.55L124.96 30.21L122.31 30.22Z" fill="#13110C"/>
<path d="M91.1 30.2202V37.3802H104.07V30.2202H102.05L101.98 35.7802L93.82 35.8702V30.2202H91.1Z" fill="#13110C"/>
<path d="M87.88 74.1899C87.88 74.1899 86.75 73.3899 86.82 75.2499C86.89 77.1099 88.61 79.3699 89.34 76.6399C90.07 73.9199 89.34 64.0699 89.34 64.0699C89.34 64.0699 88.8 48.8999 91 47.1099" stroke="#13110C" stroke-width="0.5" stroke-miterlimit="10"/>
<path d="M92.72 47.1099C92.72 47.1099 90.79 49.9699 90.99 54.7399C90.99 54.7399 91.36 75.7799 90.98 76.4399C90.6 77.0999 89.4 81.6899 86.02 78.6299C86.02 78.6299 83.43 73.0499 86.81 72.5899" stroke="#13110C" stroke-width="0.5" stroke-miterlimit="10"/>
<path d="M72.08 63.3901L88.9 71.8701" stroke="#13110C" stroke-width="0.5" stroke-miterlimit="10"/>
<path d="M86.2801 71.3398C86.2801 71.3398 81.6301 72.9998 84.7501 78.9698" stroke="#13110C" stroke-width="0.5" stroke-miterlimit="10"/>
<path d="M84.36 70.6699C84.36 70.6699 81.11 71.8599 82.24 77.5699" stroke="#13110C" stroke-width="0.5" stroke-miterlimit="10"/>
<path d="M82.83 69.6802C82.83 69.6802 79.61 71.2102 80.49 76.6502" stroke="#13110C" stroke-width="0.5" stroke-miterlimit="10"/>
<path d="M81.48 68.9502C81.48 68.9502 78.34 70.2102 78.89 75.6602" stroke="#13110C" stroke-width="0.5" stroke-miterlimit="10"/>
<path d="M79.45 68.2798C79.45 68.2798 76.93 69.9398 77.53 74.6498" stroke="#13110C" stroke-width="0.5" stroke-miterlimit="10"/>
<path d="M77.85 67.6299C77.85 67.6299 74.99 69.8099 75.99 73.5899" stroke="#13110C" stroke-width="0.5" stroke-miterlimit="10"/>
<path d="M76.0601 66.5601C76.0601 66.5601 73.5401 68.4901 74.2001 72.3001" stroke="#13110C" stroke-width="0.5" stroke-miterlimit="10"/>
<path d="M74.0899 65.6299C74.0899 65.6299 71.4099 67.1599 72.0799 71.4699" stroke="#13110C" stroke-width="0.5" stroke-miterlimit="10"/>
<path d="M72.08 64.7002C72.08 64.7002 69.89 66.2302 70.29 70.2102" stroke="#13110C" stroke-width="0.5" stroke-miterlimit="10"/>
<path d="M70.24 63.3901C70.24 63.3901 67.86 66.2801 69.03 68.9401" stroke="#13110C" stroke-width="0.5" stroke-miterlimit="10"/>
<path d="M89.34 47.3701C89.34 47.3701 87.75 49.8901 87.88 53.6101L87.87 70.2101" stroke="#13110C" stroke-width="0.5" stroke-miterlimit="10"/>
<path d="M87.5399 47.8501C87.5399 47.8501 85.9499 50.2301 86.0799 53.7501L86.0699 69.4301" stroke="#13110C" stroke-width="0.5" stroke-miterlimit="10"/>
<path d="M85.71 47.8501C85.71 47.8501 84.12 50.1501 84.25 53.5301L84.24 68.6301" stroke="#13110C" stroke-width="0.5" stroke-miterlimit="10"/>
<path d="M84.3 47.8501C84.3 47.8501 82.71 50.0201 82.84 53.2201L82.83 67.5101" stroke="#13110C" stroke-width="0.5" stroke-miterlimit="10"/>
<path d="M82.73 47.8501C82.73 47.8501 81.14 49.9701 81.27 53.0801L81.26 66.9801" stroke="#13110C" stroke-width="0.5" stroke-miterlimit="10"/>
<path d="M81.07 47.8501C81.07 47.8501 79.48 49.8601 79.61 52.8201L79.6 66.0501" stroke="#13110C" stroke-width="0.5" stroke-miterlimit="10"/>
<path d="M79.17 47.8501C79.17 47.8501 77.58 49.7701 77.71 52.5901L77.7 65.1901" stroke="#13110C" stroke-width="0.5" stroke-miterlimit="10"/>
<path d="M74.53 51.6201C74.53 51.6201 73.71 60.2501 74.09 63.1001" stroke="#13110C" stroke-width="0.5" stroke-miterlimit="10"/>
<path d="M112.3 78.5199C114.1 79.0899 119.94 79.6799 119.94 79.6799C123.4 79.9399 125.81 79.3299 125.81 79.3299C130.07 72.2899 124.96 70.2099 124.96 70.2099C122.96 69.3599 121.73 73.1599 121.73 73.1599V66.0499C123.54 67.3499 124.59 65.1899 124.59 65.1899C126.39 61.2799 122.71 61.7299 122.71 61.7299C121.64 64.0199 121.07 62.5099 121.07 62.5099C123.28 54.7799 119.95 48.8599 119.95 48.8599L118.64 48.3999C118.63 48.3899 121.39 69.7199 112.3 78.5199Z" fill="#E2C80B" stroke="#13110C" stroke-miterlimit="10"/>
<path d="M123.03 74.1198C123.03 74.1198 123.85 71.5298 125.41 73.5898C126.97 75.6498 124.35 77.7898 124.22 77.8998C124.1 78.0198 121.91 77.9598 121.73 76.6398C121.56 75.3198 120.92 77.5498 121.73 73.1598" stroke="#13110C" stroke-width="0.5" stroke-miterlimit="10"/>
<path d="M121.73 78.9702C121.73 78.9702 119.57 79.6302 119.91 71.8702C119.91 71.8702 119.9 52.0602 119.91 51.6602" stroke="#13110C" stroke-width="0.5" stroke-miterlimit="10"/>
<path d="M119.26 78.6002C119.26 78.6002 117.9 75.5502 118.2 69.6802" stroke="#13110C" stroke-width="0.5" stroke-miterlimit="10"/>
<path d="M117.63 78.6001C117.63 78.6001 116.6 76.2801 116.73 73.6001" stroke="#13110C" stroke-width="0.5" stroke-miterlimit="10"/>
<path d="M115.99 77.9501C115.99 77.9501 115.17 77.2001 115.5 76.1001" stroke="#13110C" stroke-width="0.5" stroke-miterlimit="10"/>
<path d="M120.8 63.3901C120.8 63.3901 122.23 66.2501 123.61 64.0701C123.61 64.0701 123.77 62.9301 122.95 63.3901" stroke="#13110C" stroke-width="0.5" stroke-miterlimit="10"/>
<path d="M92.13 76.6501C93.1 73.9201 92.72 67.8601 92.72 67.8601L92.87 52.0601C93.02 49.7001 95.37 46.0101 95.37 46.0101C95.37 46.0101 107.57 45.1701 118.15 48.2801C118.15 48.2801 122.96 71.1401 109.36 81.3901C109.36 81.3901 105.07 84.6401 95.37 78.6101L92.13 76.6501Z" fill="#FED68A" stroke="#13110C" stroke-miterlimit="10"/>
<path d="M94.63 53.35C94.63 53.35 98.58 50.35 101.31 51.62C101.31 51.62 105.34 54.26 107.92 51.98" stroke="#13110C" stroke-miterlimit="10"/>
<path d="M118.16 53.3501C118.16 53.3501 114.16 49.9301 110.97 53.3501C110.97 53.3501 107.78 56.0101 110.29 61.4001C110.29 61.4001 114.09 69.1201 110.59 68.9401C110.59 68.9401 107.86 66.7301 106.94 68.2801C106.94 68.2801 102.99 68.5001 104.81 66.0501" stroke="#13110C" stroke-miterlimit="10"/>
<path d="M108.84 68.6299V69.6799L109.6 69.4299" stroke="#13110C" stroke-miterlimit="10"/>
<path d="M102.61 73.5898H112.79" stroke="#13110C" stroke-miterlimit="10"/>
<path d="M104.33 73.1602H103.37H111.24" stroke="#13110C" stroke-miterlimit="10"/>
<path d="M103.37 74.1401H111.24" stroke="#13110C" stroke-miterlimit="10"/>
<path d="M107.31 76.3701L109.22 78.9801" stroke="#13110C" stroke-miterlimit="10"/>
<path d="M106.79 79.3299L109.6 76.6499" stroke="#13110C" stroke-miterlimit="10"/>
<path d="M106.03 56.95C100.03 51.9 94.64 56.95 94.64 56.95C94.64 56.95 100.71 62.58 106.03 56.95Z" stroke="#13110C" stroke-miterlimit="10"/>
<path d="M103.07 56.8801C103.07 57.3201 101.96 57.6801 100.6 57.6801C99.24 57.6801 98.13 57.3201 98.13 56.8801C98.13 56.4401 99.24 56.0801 100.6 56.0801C101.96 56.0801 103.07 56.4401 103.07 56.8801Z" fill="#13110C" stroke="#13110C" stroke-miterlimit="10"/>
<path d="M106.03 58.2402C106.03 58.2402 103.67 61.4102 101.7 62.5102" stroke="#13110C" stroke-miterlimit="10"/>
<path d="M117.63 57.4201C114.23 54.1401 110.36 57.0801 110.36 57.0801C110.36 57.0801 112.17 60.8501 116.74 59.4501C116.73 59.4501 118.27 58.0401 117.63 57.4201Z" stroke="#13110C" stroke-miterlimit="10"/>
<path d="M116.28 57.6601C116.28 57.9801 115.5 58.2401 114.53 58.2401C113.57 58.2401 112.78 57.9801 112.78 57.6601C112.78 57.3401 113.56 57.0801 114.53 57.0801C115.5 57.0801 116.28 57.3401 116.28 57.6601Z" fill="#13110C" stroke="#13110C" stroke-miterlimit="10"/>
<path d="M110.36 58.6401C110.36 58.6401 111.73 61.6301 114.54 62.0101" stroke="#13110C" stroke-miterlimit="10"/>
<path d="M122.47 44.1699L127.33 35.1299C127.33 35.1299 131.12 38.3699 129.66 44.1699C129.66 44.1699 128.41 51.0299 131.69 53.0299C131.69 53.0299 125.05 52.6099 122.47 44.1699Z" fill="#FFEA24" stroke="#13110C" stroke-miterlimit="10"/>
<path d="M125.84 39.9399C125.84 39.9399 126.87 42.5199 126.13 44.0799C126.13 44.0799 125.7 47.2199 127.95 48.8599" stroke="#13110C" stroke-miterlimit="10"/>
<path d="M132.29 48.3901L145.58 30.3101H148.75V48.3901H132.29Z" fill="#E31518" stroke="#13110C" stroke-miterlimit="10"/>
<path d="M137.26 46.0001L148.75 31.6601V30.3101V46.0001H137.26Z" stroke="#13110C" stroke-miterlimit="10"/>
<path d="M139.62 48.3901H137.26V127.52H139.62V48.3901Z" fill="#FFEA24" stroke="#13110C" stroke-miterlimit="10"/>
<path d="M39.39 79.3299V126.98H37.03V79.3299L28.91 70.0099V66.8799L39.39 78.1699V79.3299Z" fill="#FFEA24" stroke="#13110C" stroke-miterlimit="10"/>
<path d="M148.75 48.3901H139.62V127.52H148.75V48.3901Z" fill="#211C4B" stroke="#13110C" stroke-miterlimit="10"/>
<path d="M127.31 79.9901C127.31 79.9901 130.38 78.5301 130.48 81.2601V90.7501C130.48 90.7501 128.7 93.4301 127.31 90.7501V79.9901Z" fill="#E2C80B" stroke="#13110C" stroke-miterlimit="10"/>
<path d="M130.48 90.7598C131.37 93.4398 137.26 94.0698 137.26 94.0698V81.1098V76.0998H134.67C132.36 76.0698 129.95 79.7498 129.95 79.7498C129.95 79.7498 130.79 79.0598 130.48 90.7598Z" fill="#FED68A" stroke="#13110C" stroke-miterlimit="10"/>
<path d="M134.99 81.2701L136.51 81.0601L137.26 81.1101" stroke="#13110C" stroke-miterlimit="10"/>
<path d="M136.51 89.1901V81.0601" stroke="#13110C" stroke-miterlimit="10"/>
<path d="M137.26 89.1899H134.99" stroke="#13110C" stroke-miterlimit="10"/>
<path d="M142.44 83.4199L145.48 83.7899C148.63 85.4199 145.95 86.5199 145.95 86.5199C148.94 88.0399 146.32 89.1999 146.32 89.1999C148.37 89.6199 146.16 91.2399 146.16 91.2399C149.78 93.9699 139.87 94.0699 139.87 94.0699L139.62 76.6499C139.62 76.6499 142.39 79.5899 143.75 79.7499C145.11 79.9099 150.04 83.2599 145.48 83.7899" fill="#FED68A"/>
<path d="M142.44 83.4199L145.48 83.7899M145.48 83.7899C148.63 85.4199 145.95 86.5199 145.95 86.5199C148.94 88.0399 146.32 89.1999 146.32 89.1999C148.37 89.6199 146.16 91.2399 146.16 91.2399C149.78 93.9699 139.87 94.0699 139.87 94.0699L139.62 76.6499C139.62 76.6499 142.39 79.5899 143.75 79.7499C145.11 79.9099 150.04 83.2599 145.48 83.7899Z" stroke="#13110C" stroke-miterlimit="10"/>
<path d="M142.02 86.2002L145.95 86.5102" stroke="#13110C" stroke-miterlimit="10"/>
<path d="M141.71 89.1899H146.32" stroke="#13110C" stroke-miterlimit="10"/>
<path d="M141.34 91.39L146.16 91.23" stroke="#13110C" stroke-miterlimit="10"/>
<path d="M140.6 58.4599L147.77 51.6499" stroke="#FFEA24" stroke-miterlimit="10"/>
<path d="M140.6 62.8598L147.77 56.0498" stroke="#FFEA24" stroke-miterlimit="10"/>
<path d="M143.61 51.3098C143.61 51.9398 143.1 52.4498 142.47 52.4498C141.84 52.4498 141.33 51.9398 141.33 51.3098C141.33 50.6798 141.84 50.1798 142.47 50.1798C143.1 50.1698 143.61 50.6798 143.61 51.3098Z" fill="#FFEA24" stroke="#FFEA24" stroke-miterlimit="10"/>
<path d="M140.92 74.7499L148.1 67.9399" stroke="#FFEA24" stroke-miterlimit="10"/>
<path d="M142.47 77.6701L148.1 72.3301" stroke="#FFEA24" stroke-miterlimit="10"/>
<path d="M143.93 67.59C143.93 68.22 143.42 68.73 142.79 68.73C142.16 68.73 141.65 68.22 141.65 67.59C141.65 66.96 142.16 66.46 142.79 66.46C143.42 66.46 143.93 66.96 143.93 67.59Z" fill="#FFEA24" stroke="#FFEA24" stroke-miterlimit="10"/>
<path d="M140.76 129.39L147.94 122.58" stroke="#FFEA24" stroke-miterlimit="10"/>
<path d="M140.76 115.55L147.94 108.74" stroke="#FFEA24" stroke-miterlimit="10"/>
<path d="M144.35 103.58C144.35 104.21 143.84 104.72 143.21 104.72C142.58 104.72 142.07 104.21 142.07 103.58C142.07 102.95 142.58 102.45 143.21 102.45C143.84 102.44 144.35 102.95 144.35 103.58Z" fill="#FFEA24" stroke="#FFEA24" stroke-miterlimit="10"/>
<path d="M144.64 120.16C144.64 120.79 144.13 121.29 143.5 121.29C142.87 121.29 142.36 120.78 142.36 120.16C142.36 119.53 142.87 119.02 143.5 119.02C144.13 119.03 144.64 119.54 144.64 120.16Z" fill="#FFEA24" stroke="#FFEA24" stroke-miterlimit="10"/>
<path d="M140.6 112.15L147.77 105.34" stroke="#FFEA24" stroke-miterlimit="10"/>
<path d="M140.4 100.22L147.57 93.4102" stroke="#FFEA24" stroke-miterlimit="10"/>
<path d="M30.1 92.4001L36.71 86.1201" stroke="#FFEA24" stroke-miterlimit="10"/>
<path d="M33.3301 80.09C33.3301 80.72 32.82 81.23 32.19 81.23C31.56 81.23 31.05 80.72 31.05 80.09C31.05 79.46 31.56 78.96 32.19 78.96C32.82 78.96 33.3301 79.46 33.3301 80.09Z" fill="#FFEA24" stroke="#FFEA24" stroke-miterlimit="10"/>
<path d="M29.9399 89.26L36.5599 82.98" stroke="#FFEA24" stroke-miterlimit="10"/>
<path d="M29.9399 112.03L36.5599 105.75" stroke="#FFEA24" stroke-miterlimit="10"/>
<path d="M33.4 98.1102C33.4 98.7402 32.89 99.2402 32.26 99.2402C31.63 99.2402 31.12 98.7302 31.12 98.1102C31.12 97.4802 31.63 96.9702 32.26 96.9702C32.89 96.9802 33.4 97.4902 33.4 98.1102Z" fill="#FFEA24" stroke="#FFEA24" stroke-miterlimit="10"/>
<path d="M30.02 107.28L36.64 101" stroke="#FFEA24" stroke-miterlimit="10"/>
<path d="M34.52 115.59C34.52 116.22 34.01 116.72 33.38 116.72C32.75 116.72 32.24 116.21 32.24 115.59C32.24 114.96 32.75 114.45 33.38 114.45C34.01 114.46 34.52 114.96 34.52 115.59Z" fill="#FFEA24" stroke="#FFEA24" stroke-miterlimit="10"/>
<path d="M29.9399 125.74L36.5599 119.45" stroke="#FFEA24" stroke-miterlimit="10"/>
<path d="M115.99 79.2001C117.68 120.75 125.9 127.52 125.9 127.52H122.92C112.67 110.27 113.57 78.8101 113.57 78.8101L115.99 79.2001Z" fill="#FFEA24" stroke="#13110C" stroke-miterlimit="10"/>
<path d="M113.01 127.52C104.1 112.52 105.55 82.2498 105.55 82.2498L102.6 81.8398C102.6 81.8398 101.64 107.02 109.59 127.52H113.01Z" fill="#FFEA24" stroke="#13110C" stroke-miterlimit="10"/>
<path d="M113.56 78.81C113.21 113.35 122.91 127.52 122.91 127.52H113C113 127.52 103.64 113.76 105.51 82.9C105.51 82.9 107.87 83.45 112.29 78.52L113.56 78.81Z" fill="#211C4B" stroke="#13110C" stroke-miterlimit="10"/>
<path d="M112.79 79.6099L108.19 83.1499L113.54 86.5099" stroke="white" stroke-miterlimit="10"/>
<path d="M113.54 96.8101L109.6 101.02L114.54 104.02" stroke="white" stroke-miterlimit="10"/>
<path d="M116.71 114.02L113.54 118.52L118.98 121.3" stroke="white" stroke-miterlimit="10"/>
<path d="M106.03 87.02H106.79" stroke="white" stroke-miterlimit="10"/>
<path d="M106.03 88.6499H108.19" stroke="white" stroke-miterlimit="10"/>
<path d="M106.03 90.6499H110.36" stroke="white" stroke-miterlimit="10"/>
<path d="M106.1 94.0698H110.43" stroke="white" stroke-miterlimit="10"/>
<path d="M109.51 116.43L110.26 116.3" stroke="white" stroke-miterlimit="10"/>
<path d="M109.04 114.73L111.18 114.37" stroke="white" stroke-miterlimit="10"/>
<path d="M107.32 105.64L108.07 105.51" stroke="white" stroke-miterlimit="10"/>
<path d="M107.59 107.24L109.73 106.88" stroke="white" stroke-miterlimit="10"/>
<path d="M107.92 109.21L112.19 108.5" stroke="white" stroke-miterlimit="10"/>
<path d="M108.55 112.57L112.82 111.86" stroke="white" stroke-miterlimit="10"/>
<path d="M111.42 122.52L112.12 122.24" stroke="white" stroke-miterlimit="10"/>
<path d="M112.02 124.03L114.03 123.23" stroke="white" stroke-miterlimit="10"/>
<path d="M112.75 125.89L116.78 124.29" stroke="white" stroke-miterlimit="10"/>
<path d="M118.37 105.02L118.81 107.6L131.94 97.2599L137.26 99.1199V96.8099L131.74 94.6899L118.37 105.02Z" fill="white" stroke="#13110C" stroke-miterlimit="10"/>
<path d="M118.81 107.6C118.81 107.6 120.57 121.13 125.9 127.52H129.3C129.3 127.52 122.95 117.81 121.46 105.51L118.81 107.6Z" fill="#E31518" stroke="#13110C" stroke-miterlimit="10"/>
<path d="M133.86 127.52L133.99 112.39C133.99 112.39 130.6 109.38 128.56 99.9098L131.93 97.2598L132.95 97.6198C132.95 97.6198 133.52 104.84 137.26 109.22V127.53H133.86H88.76" fill="#E31518"/>
<path d="M133.86 127.52L133.99 112.39C133.99 112.39 130.6 109.38 128.56 99.9098L131.93 97.2598L132.95 97.6198C132.95 97.6198 133.52 104.84 137.26 109.22V127.53H133.86H88.76" stroke="#13110C" stroke-miterlimit="10"/>
<path d="M121.46 105.51L128.57 99.9102C128.57 99.9102 129.95 107.33 134 112.39V127.08L133.87 127.52H129.62L129.02 127.08C129.02 127.08 125.13 122.9 121.46 105.51Z" fill="#13110C" stroke="#13110C" stroke-miterlimit="10"/>
<path d="M130.78 113.72V124.29C127.31 119.94 124.86 107.24 124.86 107.24C124.86 107.24 126.66 104.89 127.43 105.51L130.78 113.72Z" stroke="white" stroke-miterlimit="10"/>
<path d="M132.95 97.6201L137.26 99.1301V108.75C137.26 108.74 133.84 105.63 132.95 97.6201Z" fill="#211C4B" stroke="#13110C" stroke-miterlimit="10"/>
<path d="M121.46 79.7502L127.08 83.0602L126.73 83.3402L122.92 86.3602L127.08 89.1902L124.27 92.5002L127.08 94.0702L123.61 96.2702L119.26 92.9002L122.47 89.8102L118.81 86.5102L122.21 83.0602L118.98 79.6802L121.46 79.7502Z" fill="#FFEA24" stroke="#13110C" stroke-miterlimit="10"/>
<path d="M127.08 83.0601L122.92 86.3601L127.08 89.1901V83.0601Z" fill="#E31518" stroke="#13110C" stroke-miterlimit="10"/>
<path d="M116.78 80.1699C116.78 80.1699 117.05 85.8799 117.17 86.3599" stroke="white" stroke-miterlimit="10"/>
<path d="M117.17 87.5298L117.78 92.8998" stroke="white" stroke-miterlimit="10"/>
<path d="M117.78 94.0698L118.71 99.1598" stroke="white" stroke-miterlimit="10"/>
<path d="M67.59 127.3C61.05 103.79 39.4 82.1499 39.4 82.1499V86.1099C39.4 86.1099 57.96 105.8 64.61 127.33L67.59 127.3Z" fill="#FFEA24" stroke="#13110C" stroke-miterlimit="10"/>
<path d="M55.31 127.28C52.18 114.97 39.39 100.24 39.39 100.24V104.15C39.39 104.15 49.54 116.94 52.34 127.26L55.31 127.28Z" fill="#FFEA24" stroke="#13110C" stroke-miterlimit="10"/>
<path d="M39.39 100.23C53.12 116.9 55.31 127.27 55.31 127.27L64.61 127.34C56.99 104.6 39.4 86.1201 39.4 86.1201V100.23H39.39Z" fill="#211C4B" stroke="#13110C" stroke-miterlimit="10"/>
<path d="M53.33 106.49L52.67 106.86" stroke="white" stroke-miterlimit="10"/>
<path d="M54.34 107.93L52.45 108.98" stroke="white" stroke-miterlimit="10"/>
<path d="M59.02 115.91L58.36 116.28" stroke="white" stroke-miterlimit="10"/>
<path d="M58.23 114.49L56.34 115.54" stroke="white" stroke-miterlimit="10"/>
<path d="M57.25 112.74L53.47 114.85" stroke="white" stroke-miterlimit="10"/>
<path d="M55.53 109.79L51.75 111.9" stroke="white" stroke-miterlimit="10"/>
<path d="M42.09 90.6499L41.48 91.1099" stroke="white" stroke-miterlimit="10"/>
<path d="M43.2899 91.9302L41.5699 93.2402" stroke="white" stroke-miterlimit="10"/>
<path d="M49.06 99.1602L48.46 99.6202" stroke="white" stroke-miterlimit="10"/>
<path d="M48.08 97.8701L46.35 99.1801" stroke="white" stroke-miterlimit="10"/>
<path d="M46.86 96.2798L43.42 98.9098" stroke="white" stroke-miterlimit="10"/>
<path d="M44.73 93.6001L41.29 96.2301" stroke="white" stroke-miterlimit="10"/>
<path d="M63.1 125.82L62.39 126.11" stroke="white" stroke-miterlimit="10"/>
<path d="M62.48 124.32L60.48 125.13" stroke="white" stroke-miterlimit="10"/>
<path d="M61.73 122.46L57.72 124.09" stroke="white" stroke-miterlimit="10"/>
<path d="M48.36 110.15L49.4 104.48L43.63 104.62" stroke="white" stroke-miterlimit="10"/>
<path d="M55.95 124.55L58.35 119.3L52.71 118.04" stroke="white" stroke-miterlimit="10"/>
<path d="M88.76 127.52L28.91 126.98" stroke="#13110C" stroke-miterlimit="10"/>
<path d="M39.39 127.08V104.14C39.39 104.14 49.27 116.61 52.33 127.19L39.39 127.08Z" fill="#E31518" stroke="#13110C" stroke-miterlimit="10"/>
<path d="M43.47 126.98V115.91C43.47 115.91 48.65 122.36 49.4 126.98H43.47Z" fill="#13110C" stroke="#13110C" stroke-miterlimit="10"/>
<path d="M98.7399 127.52C93.6899 123.12 90.0599 118.04 90.0599 118.04C81.5199 107.08 69.7799 101.67 69.7799 101.67C61.9499 97.0502 52.95 98.5202 52.95 98.5202L54.3499 100.53C54.3499 100.53 64.37 99.1502 74.62 107.6C74.62 107.6 84.2299 114.34 87.5 119.11C87.5 119.11 92.13 125.54 95.97 127.52H98.7399Z" fill="#FFEA24" stroke="#13110C" stroke-miterlimit="10"/>
<path d="M82.3 127.46C74.04 116.31 62.08 113.45 62.08 113.45L63.45 116.27C63.45 116.27 72.76 119.24 79.1 127.43L82.3 127.46Z" fill="#FFEA24" stroke="#13110C" stroke-miterlimit="10"/>
<path d="M67.5899 127.34L75.5899 123.62C75.5899 123.62 71.08 119.01 63.45 116.27C63.45 116.28 67.0299 124.83 67.5899 127.34Z" fill="#211C4B" stroke="#13110C" stroke-miterlimit="10"/>
<path d="M75.59 123.63L77.75 125.82L74.4 127.39L67.59 127.34L75.59 123.63Z" fill="#FFEA24" stroke="#13110C" stroke-miterlimit="10"/>
<path d="M74.65 127.28L77.75 125.82L79.1 127.44L74.65 127.52" fill="#13110C"/>
<path d="M74.65 127.28L77.75 125.82L79.1 127.44L74.65 127.52" stroke="#13110C" stroke-miterlimit="10"/>
<path d="M82.3 127.46L95.96 127.52C91.19 124.68 86.36 117.66 86.36 117.66C84.46 115.2 76.87 109.26 76.87 109.26C65.39 99.1201 54.34 100.53 54.34 100.53C54.34 100.53 61.36 111.07 62.08 113.45C62.08 113.46 71.7 114.75 82.3 127.46Z" fill="#13110C" stroke="#13110C" stroke-miterlimit="10"/>
<path d="M58.36 104.75C58.36 104.75 64.51 102.04 67 106.49C67 106.49 68.21 111.51 70.92 114C70.92 114 73.77 117.41 80.39 116.73C80.39 116.73 85.8 117.33 87.79 124.56C87.79 124.56 88.5 126.48 88.43 126.99" stroke="white" stroke-miterlimit="10"/>
<path d="M64.61 108.98C64.61 108.98 62.56 107.58 62.4 109.79C62.24 112 65.37 112.44 66.86 110.15L67.5899 108.86" stroke="white" stroke-miterlimit="10"/>
<path d="M74.26 112.91C74.26 112.91 73.8 110.9 75.84 110.84C75.84 110.84 79.24 111.71 76.18 115.59L74.65 116.21" stroke="white" stroke-miterlimit="10"/>
<path d="M82.8001 120.75C82.8001 120.75 80.3801 119.82 80.3101 122.17C80.3101 122.17 80.3801 126.3 84.9401 122.95C84.9401 122.95 86.1201 121.95 85.9901 120.57" stroke="white" stroke-miterlimit="10"/>
<path d="M72.5601 108.5C72.5601 109.05 72.1101 109.5 71.5601 109.5C71.0101 109.5 70.5601 109.05 70.5601 108.5C70.5601 107.95 71.0101 107.49 71.5601 107.49C72.1101 107.49 72.5601 107.95 72.5601 108.5Z" fill="white"/>
<path d="M68.2 112.91C68.2 113.46 67.75 113.92 67.2 113.92C66.65 113.92 66.2 113.47 66.2 112.91C66.2 112.36 66.65 111.91 67.2 111.91C67.75 111.91 68.2 112.36 68.2 112.91Z" fill="white"/>
<path d="M81.11 114.55C81.11 115.1 80.66 115.56 80.11 115.56C79.56 115.56 79.11 115.11 79.11 114.55C79.11 114 79.56 113.55 80.11 113.55C80.66 113.55 81.11 114 81.11 114.55Z" fill="white"/>
<path d="M78.46 119.5C78.46 120.05 78.01 120.51 77.46 120.51C76.91 120.51 76.46 120.06 76.46 119.5C76.46 118.95 76.91 118.5 77.46 118.5C78.01 118.5 78.46 118.95 78.46 119.5Z" fill="white"/>
<path d="M86 125.74C86 126.29 85.55 126.74 85 126.74C84.45 126.74 84 126.29 84 125.74C84 125.19 84.45 124.73 85 124.73C85.55 124.73 86 125.18 86 125.74Z" fill="white"/>
<path d="M105.25 112.22C97.83 115.19 92.65 121.3 92.65 121.3L94.11 122.96C94.11 122.96 99.87 117.41 105.78 114.73L105.25 112.22Z" fill="#FFEA24" stroke="#13110C" stroke-miterlimit="10"/>
<path d="M100.68 127.52C101.12 127.1 107.92 122.73 107.92 122.73L108.86 125.53L104.86 127.52H100.68Z" fill="#FFEA24" stroke="#13110C" stroke-miterlimit="10"/>
<path d="M100.06 118.1L104.46 124.97L106.77 123.48L102.71 116.36L100.06 118.1Z" fill="#FFEA24" stroke="#13110C" stroke-miterlimit="10"/>
<path d="M95.6899 121.53L97.7999 119.79L102.57 126.21L100.68 127.52L95.6899 121.53Z" fill="#FFEA24" stroke="#13110C" stroke-miterlimit="10"/>
<path d="M104.86 127.52L108.86 125.54L109.51 127.52H104.86Z" fill="#13110C" stroke="#13110C" stroke-miterlimit="10"/>
<path d="M67.7499 68.9502C67.7499 68.9502 57.8899 73.4602 49.3399 78.8502C46.5499 80.6102 43.9099 82.4602 41.7799 84.2802C41.7099 84.3402 41.6399 84.4002 41.5699 84.4602L48.9899 93.2402L49.3399 78.8502" fill="#211C4B"/>
<path d="M67.7499 68.9502C67.7499 68.9502 57.8899 73.4602 49.3399 78.8502M49.3399 78.8502C46.5499 80.6102 43.9099 82.4602 41.7799 84.2802C41.7099 84.3402 41.6399 84.4002 41.5699 84.4602L48.9899 93.2402L49.3399 78.8502Z" stroke="#13110C" stroke-miterlimit="10"/>
<path d="M49.34 93.5998V78.8498L52.33 77.0298L52.03 97.2598L49.34 93.5998Z" fill="#13110C" stroke="#13110C" stroke-miterlimit="10"/>
<path d="M64.15 70.6702V99.3202L66.86 100.23L66.72 69.4302L64.15 70.6702Z" fill="#13110C" stroke="#13110C" stroke-miterlimit="10"/>
<path d="M53.33 77.5801V85.7801" stroke="white" stroke-miterlimit="10"/>
<path d="M53.33 89.1899V96.8099" stroke="white" stroke-miterlimit="10"/>
<path d="M63.1 77.5801V85.0801" stroke="white" stroke-miterlimit="10"/>
<path d="M63.1 88.9502V96.8102" stroke="white" stroke-miterlimit="10"/>
<path d="M53.49 87.1402L58.09 82.1602L62.71 87.3302L58.09 92.4102L53.49 87.1402Z" fill="white" stroke="white" stroke-miterlimit="10"/>
<path d="M58.168 85.0571L56.0909 87.1519L58.1857 89.229L60.2628 87.1342L58.168 85.0571Z" fill="#E31518"/>
<path d="M56.95 75.0898L58.3499 76.6998L60.9399 74.2898L59.6899 73.5898L56.95 75.0898Z" fill="#E31518"/>
<path d="M56.66 97.6902H59.83L58.25 95.6602L56.66 97.6902Z" fill="#E31518"/>
<path d="M67.2 69.2002L94.11 86.1202L100.91 81.3302L102.61 81.8402V83.0602L94.11 88.6502L66.73 71.8702L67.2 69.2002Z" fill="#FFEA24" stroke="#13110C" stroke-miterlimit="10"/>
<path d="M87.87 82.1499L94.11 86.1199L100.91 81.3299L92.13 76.6499C92.13 76.6499 91.86 80.9199 87.87 82.1499Z" fill="#E31518" stroke="#13110C" stroke-miterlimit="10"/>
<path d="M66.79 84.0901V77.5801L69.11 73.3301L71.84 75.0001L68.93 80.7001L71.84 82.1601L75.08 76.8701L77.71 78.6001L74.53 84.0901L77.43 85.7801L80.49 80.3001L83.18 81.9501L80.49 87.5301L83.18 88.9501L86.28 83.8501L89.43 85.7801L86.28 90.6501L88.9 92.4101L91.88 87.2901L94.11 88.6501L92.72 94.6901L94.11 95.6601L96.79 93.4101L95.38 87.8101L97.96 86.1201L100.47 91.3901L102.57 90.4901L102.97 95.0401L94.11 100.22L66.79 84.0901Z" fill="#FFEA24" stroke="#13110C" stroke-miterlimit="10"/>
<path d="M70.24 74.1401L66.73 81.0601L94.11 97.6901L102.78 92.8801" stroke="#13110C" stroke-width="0.5" stroke-miterlimit="10"/>
<path d="M76.4501 77.77L72.5601 84.6" stroke="#13110C" stroke-width="0.5" stroke-miterlimit="10"/>
<path d="M81.78 81.0898L78.09 87.9598" stroke="#13110C" stroke-width="0.5" stroke-miterlimit="10"/>
<path d="M87.87 84.8198L83.74 91.3898" stroke="#13110C" stroke-width="0.5" stroke-miterlimit="10"/>
<path d="M93.01 87.98L89.34 94.79" stroke="#13110C" stroke-width="0.5" stroke-miterlimit="10"/>
<path d="M96.58 87.02L100.06 94.39" stroke="#13110C" stroke-width="0.5" stroke-miterlimit="10"/>
<path d="M92.5 121.13L95.69 118.29V102.61L103.21 98.0198L102.97 95.0398L94.11 100.22L66.79 84.0898L66.86 87.9799L78.09 94.6898L77.85 106.49L81.11 108.74L81.48 96.6199L92.13 102.72L92.5 121.13Z" fill="#13110C" stroke="#13110C" stroke-miterlimit="10"/>
<path d="M66.86 100.23C69.57 101.15 77.85 106.48 77.85 106.48L78.09 94.6802L66.86 87.9702V100.23Z" fill="#E31518" stroke="#13110C" stroke-miterlimit="10"/>
<path d="M67.75 91.3901L75.78 96.0001L75.59 104.14" stroke="#13110C" stroke-miterlimit="10"/>
<path d="M97.65 115.46V104.14L102.57 101.14" stroke="#13110C" stroke-miterlimit="10"/>
<path d="M81.47 96.8101L83.35 97.6901L82.83 110.46L81.11 108.74L81.47 96.8101Z" fill="white" stroke="#13110C" stroke-miterlimit="10"/>
<path d="M90.0901 101.55L90.0601 118.04L92.1301 120.68V102.72L90.0901 101.55Z" fill="white" stroke="#13110C" stroke-miterlimit="10"/>
<path d="M88.83 102.44H84.98V104.75H88.83V102.44Z" stroke="#13110C" stroke-miterlimit="10"/>
<path d="M88.9 108.5H84.98V110.46H88.9V108.5Z" stroke="#13110C" stroke-miterlimit="10"/>
<path d="M83.74 100.47L87.95 100.32" stroke="#13110C" stroke-miterlimit="10"/>
<path d="M83.1801 106.49L90.0601 106.73" stroke="#13110C" stroke-miterlimit="10"/>
<path d="M86.46 113.46L90.06 113.55" stroke="#13110C" stroke-miterlimit="10"/>
<path d="M94.3001 156.83L94.4101 154.05L94.8201 144.06C94.8201 144.06 88.8401 138.76 87.5901 136.48L87.5601 152.97L89.7001 154.2L94.3001 156.83Z" fill="#FFEA24" stroke="#13110C" stroke-miterlimit="10"/>
<path d="M81.96 136.23C78.44 140.15 72.4 142.3 72.4 142.3C73.41 144.54 74.43 156.5 74.43 156.5L81.95 151.92V136.23H81.96Z" fill="#E31518" stroke="#13110C" stroke-miterlimit="10"/>
<path d="M75.0401 171.46C75.5601 170.77 74.6801 159.48 74.6801 159.48L83.5401 154.3L110.86 170.43L110.92 182.65L83.5401 165.87L75.0401 171.46Z" fill="#211C4B" stroke="#13110C" stroke-miterlimit="10"/>
<path d="M124.71 155.99C118.98 156.98 113.51 155.2 113.51 155.2V183.84C115.69 182.78 125.33 177.48 125.33 177.48L125.63 157.25L124.71 155.99Z" fill="#211C4B" stroke="#13110C" stroke-miterlimit="10"/>
<path d="M115.64 156.39L119.55 160.75L123.3 156.85C123.31 156.85 119.23 155.98 115.64 156.39Z" fill="white" stroke="white" stroke-miterlimit="10"/>
<path d="M116.64 181.49L114.56 179.43L119.57 173.82L123.29 177.93L116.64 181.49Z" fill="white" stroke="white" stroke-miterlimit="10"/>
<path d="M83.54 131.56C83.54 131.56 77.04 137.81 71.87 139.79L69.73 131.78L76.97 126.99H78.91L83.54 131.56Z" fill="white" stroke="#13110C" stroke-miterlimit="10"/>
<path d="M140.62 127.54H148.75V184.51L140.62 175.19V127.54Z" fill="#211C4B" stroke="#13110C" stroke-miterlimit="10"/>
<path d="M61.67 175.32C61.67 175.32 60.31 151.63 59.29 149.5L45.91 159.83L40.39 157.7V178.42C40.39 178.42 44.82 179.67 47.7 174.77C47.7 174.77 48.8 175.56 51.84 175.18C51.84 175.18 59.49 174.39 61.67 175.32Z" fill="#13110C" stroke="#13110C" stroke-miterlimit="10"/>
<path d="M71.25 156.5H70.49" stroke="white" stroke-miterlimit="10"/>
<path d="M71.43 158.25H69.26" stroke="white" stroke-miterlimit="10"/>
<path d="M102.95 206.85C102.95 206.85 105.77 201.1 105.31 191.61C105.31 191.61 105.24 190.61 106.64 191.61C108.03 192.61 110.42 190.68 110.02 186.1C110.02 186.1 110.1 184.38 106.51 182.32L89.91 172.36C89.91 172.36 85.33 172.16 84.93 182.65V201.83C84.93 201.83 83.87 206.76 82.28 208.51C82.28 208.51 95.22 208.36 102.95 206.85Z" fill="#E2C80B" stroke="#13110C" stroke-miterlimit="10"/>
<path d="M100.4 206.12C100.4 206.12 101.99 204.33 101.86 201.68L101.87 189.87" stroke="#13110C" stroke-width="0.5" stroke-miterlimit="10"/>
<path d="M47.6801 224.3H112.3L102.95 206.85C102.95 206.85 73.3301 211.35 57.7101 205.65L47.6801 224.3Z" fill="#E31518" stroke="#13110C" stroke-miterlimit="10"/>
<path d="M57.71 205.66L55.92 208.98C76.21 216.69 104.68 210.08 104.68 210.08L102.95 206.85C102.95 206.85 72.54 211.37 57.71 205.66Z" fill="#211C4B" stroke="#13110C" stroke-miterlimit="10"/>
<path d="M104.34 224.3L101.13 218.18H93.04L92.69 224.3H90.53L91.02 215.92L102.6 214.98L106.99 224.3H104.34Z" fill="#13110C"/>
<path d="M55.3399 224.3L58.5299 218.16L66.6199 218.11L66.9899 224.23L69.1499 224.22L68.6399 215.85L57.0499 214.97L52.6899 224.31L55.3399 224.3Z" fill="#13110C"/>
<path d="M86.55 224.3V217.14H73.58V224.3H75.6L75.67 218.74L83.83 218.64V224.3H86.55Z" fill="#13110C"/>
<path d="M89.78 180.33C89.78 180.33 90.91 181.12 90.84 179.27C90.77 177.41 89.05 175.15 88.32 177.88C87.59 180.6 88.32 190.45 88.32 190.45C88.32 190.45 88.85 205.63 86.66 207.42" stroke="#13110C" stroke-width="0.5" stroke-miterlimit="10"/>
<path d="M84.9301 207.41C84.9301 207.41 86.8601 204.56 86.6601 199.78C86.6601 199.78 86.2901 178.74 86.6701 178.07C87.0501 177.41 88.2501 172.83 91.6301 175.88C91.6301 175.88 94.22 181.46 90.84 181.92" stroke="#13110C" stroke-width="0.5" stroke-miterlimit="10"/>
<path d="M105.58 191.12L88.75 182.65" stroke="#13110C" stroke-width="0.5" stroke-miterlimit="10"/>
<path d="M91.37 183.18C91.37 183.18 96.02 181.52 92.9 175.55" stroke="#13110C" stroke-width="0.5" stroke-miterlimit="10"/>
<path d="M93.3 183.85C93.3 183.85 96.55 182.65 95.42 176.95" stroke="#13110C" stroke-width="0.5" stroke-miterlimit="10"/>
<path d="M94.8199 184.84C94.8199 184.84 98.04 183.31 97.16 177.87" stroke="#13110C" stroke-width="0.5" stroke-miterlimit="10"/>
<path d="M96.17 185.57C96.17 185.57 99.31 184.31 98.76 178.86" stroke="#13110C" stroke-width="0.5" stroke-miterlimit="10"/>
<path d="M98.21 186.23C98.21 186.23 100.73 184.57 100.13 179.86" stroke="#13110C" stroke-width="0.5" stroke-miterlimit="10"/>
<path d="M99.8 186.89C99.8 186.89 102.66 184.71 101.66 180.93" stroke="#13110C" stroke-width="0.5" stroke-miterlimit="10"/>
<path d="M101.59 187.96C101.59 187.96 104.11 186.04 103.45 182.22" stroke="#13110C" stroke-width="0.5" stroke-miterlimit="10"/>
<path d="M103.56 188.89C103.56 188.89 106.24 187.36 105.57 183.05" stroke="#13110C" stroke-width="0.5" stroke-miterlimit="10"/>
<path d="M105.58 189.82C105.58 189.82 107.77 188.29 107.37 184.31" stroke="#13110C" stroke-width="0.5" stroke-miterlimit="10"/>
<path d="M107.42 191.12C107.42 191.12 109.8 188.23 108.63 185.57" stroke="#13110C" stroke-width="0.5" stroke-miterlimit="10"/>
<path d="M88.3199 207.14C88.3199 207.14 89.9099 204.62 89.7799 200.9L89.7899 184.31" stroke="#13110C" stroke-width="0.5" stroke-miterlimit="10"/>
<path d="M90.11 206.66C90.11 206.66 91.7 204.28 91.57 200.77L91.58 185.09" stroke="#13110C" stroke-width="0.5" stroke-miterlimit="10"/>
<path d="M91.9399 206.66C91.9399 206.66 93.5299 204.37 93.3999 200.98L93.4099 185.88" stroke="#13110C" stroke-width="0.5" stroke-miterlimit="10"/>
<path d="M93.35 206.66C93.35 206.66 94.94 204.49 94.81 201.29L94.82 187" stroke="#13110C" stroke-width="0.5" stroke-miterlimit="10"/>
<path d="M94.92 206.66C94.92 206.66 96.51 204.55 96.38 201.43L96.39 187.53" stroke="#13110C" stroke-width="0.5" stroke-miterlimit="10"/>
<path d="M96.58 206.66C96.58 206.66 98.17 204.65 98.04 201.69L98.05 188.46" stroke="#13110C" stroke-width="0.5" stroke-miterlimit="10"/>
<path d="M98.48 206.66C98.48 206.66 100.07 204.74 99.94 201.92L99.95 189.32" stroke="#13110C" stroke-width="0.5" stroke-miterlimit="10"/>
<path d="M103.12 202.9C103.12 202.9 103.94 194.27 103.56 191.42" stroke="#13110C" stroke-width="0.5" stroke-miterlimit="10"/>
<path d="M65.35 176C63.55 175.43 57.71 174.84 57.71 174.84C54.25 174.58 51.84 175.18 51.84 175.18C47.58 182.22 52.69 184.31 52.69 184.31C54.69 185.16 55.92 181.36 55.92 181.36V188.47C54.11 187.17 53.06 189.33 53.06 189.33C51.26 193.24 54.94 192.79 54.94 192.79C56.01 190.5 56.58 192.01 56.58 192.01C54.37 199.74 57.7 205.66 57.7 205.66L59.01 206.12C59.03 206.12 56.26 184.8 65.35 176Z" fill="#E2C80B" stroke="#13110C" stroke-miterlimit="10"/>
<path d="M54.6199 180.39C54.6199 180.39 53.7999 182.98 52.2399 180.92C50.6799 178.87 53.2999 176.72 53.4299 176.61C53.5499 176.49 55.7399 176.55 55.9199 177.87C56.0899 179.2 56.7299 176.96 55.9199 181.36" stroke="#13110C" stroke-width="0.5" stroke-miterlimit="10"/>
<path d="M55.92 175.55C55.92 175.55 58.08 174.89 57.74 182.65C57.74 182.65 57.75 202.46 57.74 202.87" stroke="#13110C" stroke-width="0.5" stroke-miterlimit="10"/>
<path d="M58.39 175.92C58.39 175.92 59.75 178.97 59.45 184.84" stroke="#13110C" stroke-width="0.5" stroke-miterlimit="10"/>
<path d="M60.03 175.92C60.03 175.92 61.06 178.24 60.93 180.92" stroke="#13110C" stroke-width="0.5" stroke-miterlimit="10"/>
<path d="M61.67 176.57C61.67 176.57 62.49 177.32 62.16 178.42" stroke="#13110C" stroke-width="0.5" stroke-miterlimit="10"/>
<path d="M56.8499 191.12C56.8499 191.12 55.42 188.26 54.04 190.44C54.04 190.44 53.88 191.58 54.7 191.12" stroke="#13110C" stroke-width="0.5" stroke-miterlimit="10"/>
<path d="M85.52 177.87C84.55 180.6 84.93 186.66 84.93 186.66L84.78 202.46C84.63 204.82 82.28 208.51 82.28 208.51C82.28 208.51 70.08 209.34 59.5 206.24C59.5 206.24 54.69 183.38 68.29 173.13C68.29 173.13 72.58 169.88 82.28 175.91L85.52 177.87Z" fill="#FED68A" stroke="#13110C" stroke-miterlimit="10"/>
<path d="M83.02 201.17C83.02 201.17 79.07 204.17 76.34 202.9C76.34 202.9 72.31 200.26 69.73 202.54" stroke="#13110C" stroke-miterlimit="10"/>
<path d="M59.5 201.17C59.5 201.17 63.5 204.59 66.69 201.17C66.69 201.17 69.88 198.51 67.37 193.12C67.37 193.12 63.57 185.4 67.07 185.58C67.07 185.58 69.8 187.79 70.72 186.24C70.72 186.24 74.67 186.02 72.85 188.47" stroke="#13110C" stroke-miterlimit="10"/>
<path d="M68.8201 185.89V184.84L68.0601 185.09" stroke="#13110C" stroke-miterlimit="10"/>
<path d="M75.04 180.92H64.87" stroke="#13110C" stroke-miterlimit="10"/>
<path d="M73.32 181.36H74.28H66.41" stroke="#13110C" stroke-miterlimit="10"/>
<path d="M74.28 180.38H66.41" stroke="#13110C" stroke-miterlimit="10"/>
<path d="M70.3499 178.15L68.4399 175.54" stroke="#13110C" stroke-miterlimit="10"/>
<path d="M70.8701 175.19L68.0601 177.87" stroke="#13110C" stroke-miterlimit="10"/>
<path d="M71.62 197.56C77.62 202.62 83.01 197.56 83.01 197.56C83.01 197.56 76.94 191.94 71.62 197.56Z" stroke="#13110C" stroke-miterlimit="10"/>
<path d="M74.59 197.63C74.59 197.19 75.7 196.83 77.06 196.83C78.42 196.83 79.53 197.19 79.53 197.63C79.53 198.07 78.42 198.43 77.06 198.43C75.69 198.43 74.59 198.08 74.59 197.63Z" fill="#13110C" stroke="#13110C" stroke-miterlimit="10"/>
<path d="M71.62 196.28C71.62 196.28 73.98 193.11 75.95 192.01" stroke="#13110C" stroke-miterlimit="10"/>
<path d="M60.03 197.1C63.43 200.38 67.3 197.44 67.3 197.44C67.3 197.44 65.49 193.67 60.92 195.06C60.92 195.06 59.39 196.48 60.03 197.1Z" stroke="#13110C" stroke-miterlimit="10"/>
<path d="M63.12 197.44C64.0865 197.44 64.87 197.18 64.87 196.86C64.87 196.539 64.0865 196.28 63.12 196.28C62.1535 196.28 61.37 196.539 61.37 196.86C61.37 197.18 62.1535 197.44 63.12 197.44Z" fill="#13110C" stroke="#13110C" stroke-miterlimit="10"/>
<path d="M67.3 195.88C67.3 195.88 65.93 192.89 63.12 192.51" stroke="#13110C" stroke-miterlimit="10"/>
<path d="M55.19 210.35L50.33 219.39C50.33 219.39 46.54 216.14 48 210.35C48 210.35 49.25 203.49 45.97 201.49C45.96 201.49 52.61 201.91 55.19 210.35Z" fill="#FFEA24" stroke="#13110C" stroke-miterlimit="10"/>
<path d="M51.81 214.58C51.81 214.58 50.78 212 51.52 210.44C51.52 210.44 51.95 207.29 49.7 205.66" stroke="#13110C" stroke-miterlimit="10"/>
<path d="M45.36 206.12L32.08 224.21H28.91V206.12H45.36Z" fill="#E31518" stroke="#13110C" stroke-miterlimit="10"/>
<path d="M40.39 208.51L28.91 222.86V224.21V208.51H40.39Z" stroke="#13110C" stroke-miterlimit="10"/>
<path d="M40.39 127H38.03V206.13H40.39V127Z" fill="#FFEA24" stroke="#13110C" stroke-miterlimit="10"/>
<path d="M138.26 175.19V127.54H140.62V175.19L148.75 184.51V187.63L138.26 176.35V175.19Z" fill="#FFEA24" stroke="#13110C" stroke-miterlimit="10"/>
<path d="M38.04 127H28.91V206.13H38.04V127Z" fill="#211C4B" stroke="#13110C" stroke-miterlimit="10"/>
<path d="M50.3501 174.53C50.3501 174.53 47.2801 175.98 47.1801 173.26V163.76C47.1801 163.76 48.9601 161.09 50.3501 163.76V174.53Z" fill="#E2C80B" stroke="#13110C" stroke-miterlimit="10"/>
<path d="M47.17 163.76C46.28 161.08 40.39 160.46 40.39 160.46V173.42V178.43H42.98C45.29 178.46 47.7 174.78 47.7 174.78C47.7 174.78 46.86 175.46 47.17 163.76Z" fill="#FED68A" stroke="#13110C" stroke-miterlimit="10"/>
<path d="M42.66 173.25L41.14 173.46L40.39 173.41" stroke="#13110C" stroke-miterlimit="10"/>
<path d="M41.14 165.33V173.46" stroke="#13110C" stroke-miterlimit="10"/>
<path d="M40.39 165.33H42.66" stroke="#13110C" stroke-miterlimit="10"/>
<path d="M35.21 171.1L32.17 170.73C29.02 169.1 31.7 168 31.7 168C28.71 166.48 31.33 165.32 31.33 165.32C29.28 164.9 31.49 163.28 31.49 163.28C27.87 160.55 37.78 160.45 37.78 160.45L38.03 177.87C38.03 177.87 35.26 174.93 33.9 174.77C32.54 174.61 27.6 171.25 32.17 170.73" fill="#FED68A"/>
<path d="M35.21 171.1L32.17 170.73M32.17 170.73C29.02 169.1 31.7 168 31.7 168C28.71 166.48 31.33 165.32 31.33 165.32C29.28 164.9 31.49 163.28 31.49 163.28C27.87 160.55 37.78 160.45 37.78 160.45L38.03 177.87C38.03 177.87 35.26 174.93 33.9 174.77C32.54 174.61 27.6 171.25 32.17 170.73Z" stroke="#13110C" stroke-miterlimit="10"/>
<path d="M35.63 168.32L31.7 168.01" stroke="#13110C" stroke-miterlimit="10"/>
<path d="M35.95 165.33H31.33" stroke="#13110C" stroke-miterlimit="10"/>
<path d="M36.32 163.13L31.49 163.29" stroke="#13110C" stroke-miterlimit="10"/>
<path d="M37.06 196.06L29.88 202.87" stroke="#FFEA24" stroke-miterlimit="10"/>
<path d="M37.06 191.66L29.88 198.47" stroke="#FFEA24" stroke-miterlimit="10"/>
<path d="M34.04 203.21C34.04 202.58 34.55 202.08 35.18 202.08C35.81 202.08 36.32 202.59 36.32 203.21C36.32 203.84 35.81 204.35 35.18 204.35C34.55 204.35 34.04 203.84 34.04 203.21Z" fill="#FFEA24" stroke="#FFEA24" stroke-miterlimit="10"/>
<path d="M36.7301 179.77L29.5601 186.58" stroke="#FFEA24" stroke-miterlimit="10"/>
<path d="M35.1801 176.85L29.5601 182.19" stroke="#FFEA24" stroke-miterlimit="10"/>
<path d="M33.72 186.93C33.72 186.3 34.23 185.8 34.86 185.8C35.49 185.8 36 186.31 36 186.93C36 187.56 35.49 188.07 34.86 188.07C34.23 188.06 33.72 187.55 33.72 186.93Z" fill="#FFEA24" stroke="#FFEA24" stroke-miterlimit="10"/>
<path d="M36.89 125.13L29.72 131.94" stroke="#FFEA24" stroke-miterlimit="10"/>
<path d="M36.89 138.97L29.72 145.78" stroke="#FFEA24" stroke-miterlimit="10"/>
<path d="M33.3 150.94C33.3 150.31 33.81 149.81 34.44 149.81C35.07 149.81 35.5801 150.32 35.5801 150.94C35.5801 151.57 35.07 152.08 34.44 152.08C33.81 152.08 33.3 151.57 33.3 150.94Z" fill="#FFEA24" stroke="#FFEA24" stroke-miterlimit="10"/>
<path d="M33.01 134.36C33.01 133.73 33.52 133.22 34.15 133.22C34.78 133.22 35.29 133.73 35.29 134.36C35.29 134.99 34.78 135.49 34.15 135.49C33.52 135.49 33.01 134.98 33.01 134.36Z" fill="#FFEA24" stroke="#FFEA24" stroke-miterlimit="10"/>
<path d="M37.06 142.37L29.88 149.18" stroke="#FFEA24" stroke-miterlimit="10"/>
<path d="M37.25 154.3L30.08 161.11" stroke="#FFEA24" stroke-miterlimit="10"/>
<path d="M147.56 162.12L140.94 168.4" stroke="#FFEA24" stroke-miterlimit="10"/>
<path d="M144.33 174.43C144.33 173.8 144.84 173.3 145.47 173.3C146.1 173.3 146.61 173.81 146.61 174.43C146.61 175.05 146.1 175.57 145.47 175.57C144.84 175.56 144.33 175.05 144.33 174.43Z" fill="#FFEA24" stroke="#FFEA24" stroke-miterlimit="10"/>
<path d="M147.71 165.26L141.09 171.54" stroke="#FFEA24" stroke-miterlimit="10"/>
<path d="M147.71 142.49L141.09 148.77" stroke="#FFEA24" stroke-miterlimit="10"/>
<path d="M144.25 156.41C144.25 155.78 144.76 155.27 145.39 155.27C146.02 155.27 146.53 155.78 146.53 156.41C146.53 157.04 146.02 157.54 145.39 157.54C144.76 157.54 144.25 157.03 144.25 156.41Z" fill="#FFEA24" stroke="#FFEA24" stroke-miterlimit="10"/>
<path d="M147.63 147.24L141.02 153.52" stroke="#FFEA24" stroke-miterlimit="10"/>
<path d="M143.14 138.93C143.14 138.3 143.65 137.79 144.28 137.79C144.91 137.79 145.42 138.3 145.42 138.93C145.42 139.56 144.91 140.06 144.28 140.06C143.65 140.06 143.14 139.55 143.14 138.93Z" fill="#FFEA24" stroke="#FFEA24" stroke-miterlimit="10"/>
<path d="M147.71 128.78L141.09 135.06" stroke="#FFEA24" stroke-miterlimit="10"/>
<path d="M61.67 175.32C59.98 133.77 51.76 127 51.76 127H54.74C64.99 144.25 64.09 175.71 64.09 175.71L61.67 175.32Z" fill="#FFEA24" stroke="#13110C" stroke-miterlimit="10"/>
<path d="M64.64 127C73.55 142 72.1 172.27 72.1 172.27L75.05 172.68C75.05 172.68 76.01 147.5 68.06 127H64.64Z" fill="#FFEA24" stroke="#13110C" stroke-miterlimit="10"/>
<path d="M64.09 175.71C64.44 141.17 54.74 127 54.74 127H64.65C64.65 127 74.01 140.76 72.14 171.62C72.14 171.62 69.78 171.07 65.36 176L64.09 175.71Z" fill="#211C4B" stroke="#13110C" stroke-miterlimit="10"/>
<path d="M64.87 174.91L69.46 171.37L64.11 168.01" stroke="white" stroke-miterlimit="10"/>
<path d="M64.11 157.71L68.06 153.5L63.12 150.5" stroke="white" stroke-miterlimit="10"/>
<path d="M60.94 140.5L64.11 136L58.67 133.22" stroke="white" stroke-miterlimit="10"/>
<path d="M71.62 167.5H70.87" stroke="white" stroke-miterlimit="10"/>
<path d="M71.62 165.87H69.46" stroke="white" stroke-miterlimit="10"/>
<path d="M71.62 163.87H67.3" stroke="white" stroke-miterlimit="10"/>
<path d="M71.56 160.45H67.23" stroke="white" stroke-miterlimit="10"/>
<path d="M68.14 138.09L67.39 138.22" stroke="white" stroke-miterlimit="10"/>
<path d="M68.61 139.79L66.48 140.14" stroke="white" stroke-miterlimit="10"/>
<path d="M70.33 148.88L69.58 149.01" stroke="white" stroke-miterlimit="10"/>
<path d="M70.0601 147.28L67.9301 147.63" stroke="white" stroke-miterlimit="10"/>
<path d="M69.73 145.3L65.46 146.02" stroke="white" stroke-miterlimit="10"/>
<path d="M69.1 141.94L64.83 142.66" stroke="white" stroke-miterlimit="10"/>
<path d="M66.24 132L65.53 132.28" stroke="white" stroke-miterlimit="10"/>
<path d="M65.64 130.49L63.63 131.29" stroke="white" stroke-miterlimit="10"/>
<path d="M64.9 128.63L60.88 130.23" stroke="white" stroke-miterlimit="10"/>
<path d="M59.29 149.5L58.84 146.92L45.72 157.26L40.39 155.39V157.71L45.91 159.83L59.29 149.5Z" fill="white" stroke="#13110C" stroke-miterlimit="10"/>
<path d="M58.84 146.92C58.84 146.92 57.08 133.39 51.75 127H48.35C48.35 127 54.7 136.7 56.19 149.01L58.84 146.92Z" fill="#E31518" stroke="#13110C" stroke-miterlimit="10"/>
<path d="M43.79 127L43.66 142.13C43.66 142.13 47.05 145.14 49.09 154.61L45.72 157.26L44.7 156.9C44.7 156.9 44.13 149.68 40.39 145.3V127H43.79H88.89H43.79Z" fill="#E31518"/>
<path d="M43.79 127L43.66 142.13C43.66 142.13 47.05 145.14 49.09 154.61L45.72 157.26L44.7 156.9C44.7 156.9 44.13 149.68 40.39 145.3V127H43.79ZM43.79 127H88.89" stroke="#13110C" stroke-miterlimit="10"/>
<path d="M56.19 149.01L49.08 154.61C49.08 154.61 47.7 147.19 43.65 142.13V127.44L43.78 127H48.03L48.63 127.44C48.63 127.44 52.52 131.62 56.19 149.01Z" fill="#13110C" stroke="#13110C" stroke-miterlimit="10"/>
<path d="M46.88 140.8V130.23C50.35 134.58 52.8 147.27 52.8 147.27C52.8 147.27 51 149.62 50.23 149L46.88 140.8Z" stroke="white" stroke-miterlimit="10"/>
<path d="M44.7 156.9L40.39 155.39V145.77C40.39 145.78 43.81 148.89 44.7 156.9Z" fill="#211C4B" stroke="#13110C" stroke-miterlimit="10"/>
<path d="M56.1899 174.77L50.5699 171.46L50.9199 171.18L54.7299 168.16L50.5699 165.33L53.3799 162.02L50.5699 160.45L54.0399 158.25L58.3899 161.62L55.1899 164.7L58.8399 168.01L55.4399 171.46L58.6699 174.84L56.1899 174.77Z" fill="#FFEA24" stroke="#13110C" stroke-miterlimit="10"/>
<path d="M50.5699 171.46L54.7299 168.16L50.5699 165.33V171.46Z" fill="#E31518" stroke="#13110C" stroke-miterlimit="10"/>
<path d="M60.88 174.35C60.88 174.35 60.61 168.64 60.49 168.16" stroke="white" stroke-miterlimit="10"/>
<path d="M60.48 166.99L59.87 161.62" stroke="white" stroke-miterlimit="10"/>
<path d="M59.8699 160.45L58.9399 155.36" stroke="white" stroke-miterlimit="10"/>
<path d="M110.07 127.22C116.61 150.73 138.26 172.36 138.26 172.36V168.4C138.26 168.4 119.7 148.71 113.05 127.17L110.07 127.22Z" fill="#FFEA24" stroke="#13110C" stroke-miterlimit="10"/>
<path d="M122.34 127.24C125.47 139.55 138.26 154.28 138.26 154.28V150.37C138.26 150.37 128.11 137.58 125.31 127.26L122.34 127.24Z" fill="#FFEA24" stroke="#13110C" stroke-miterlimit="10"/>
<path d="M138.26 154.29C124.53 137.62 122.34 127.25 122.34 127.25L113.04 127.18C120.66 149.92 138.25 168.41 138.25 168.41V154.29H138.26Z" fill="#211C4B" stroke="#13110C" stroke-miterlimit="10"/>
<path d="M124.32 148.03L124.98 147.66" stroke="white" stroke-miterlimit="10"/>
<path d="M123.31 146.59L125.2 145.54" stroke="white" stroke-miterlimit="10"/>
<path d="M118.63 138.61L119.3 138.24" stroke="white" stroke-miterlimit="10"/>
<path d="M119.42 140.03L121.32 138.98" stroke="white" stroke-miterlimit="10"/>
<path d="M120.4 141.78L124.18 139.67" stroke="white" stroke-miterlimit="10"/>
<path d="M122.12 144.73L125.91 142.62" stroke="white" stroke-miterlimit="10"/>
<path d="M135.57 163.87L136.17 163.41" stroke="white" stroke-miterlimit="10"/>
<path d="M134.36 162.59L136.08 161.28" stroke="white" stroke-miterlimit="10"/>
<path d="M128.59 155.36L129.2 154.89" stroke="white" stroke-miterlimit="10"/>
<path d="M129.58 156.65L131.3 155.33" stroke="white" stroke-miterlimit="10"/>
<path d="M130.79 158.24L134.23 155.61" stroke="white" stroke-miterlimit="10"/>
<path d="M132.92 160.91L136.36 158.29" stroke="white" stroke-miterlimit="10"/>
<path d="M114.56 128.7L115.26 128.41" stroke="white" stroke-miterlimit="10"/>
<path d="M115.17 130.2L117.17 129.39" stroke="white" stroke-miterlimit="10"/>
<path d="M115.92 132.05L119.93 130.42" stroke="white" stroke-miterlimit="10"/>
<path d="M129.29 144.37L128.25 150.04L134.03 149.89" stroke="white" stroke-miterlimit="10"/>
<path d="M121.7 129.96L119.3 135.21L124.94 136.48" stroke="white" stroke-miterlimit="10"/>
<path d="M88.89 127L148.75 127.54" stroke="#13110C" stroke-miterlimit="10"/>
<path d="M138.26 127.44V150.38C138.26 150.38 128.38 137.91 125.32 127.33L138.26 127.44Z" fill="#E31518" stroke="#13110C" stroke-miterlimit="10"/>
<path d="M134.18 127.54V138.61C134.18 138.61 129 132.16 128.25 127.54H134.18Z" fill="#13110C" stroke="#13110C" stroke-miterlimit="10"/>
<path d="M78.91 127C83.96 131.4 87.59 136.48 87.59 136.48C96.13 147.44 107.87 152.85 107.87 152.85C115.7 157.48 124.7 156 124.7 156L123.3 153.99C123.3 153.99 113.28 155.37 103.03 146.92C103.03 146.92 93.42 140.18 90.15 135.41C90.15 135.41 85.52 128.98 81.68 127H78.91Z" fill="#FFEA24" stroke="#13110C" stroke-miterlimit="10"/>
<path d="M95.35 127.05C103.61 138.2 115.57 141.06 115.57 141.06L114.2 138.24C114.2 138.24 104.89 135.27 98.55 127.08L95.35 127.05Z" fill="#FFEA24" stroke="#13110C" stroke-miterlimit="10"/>
<path d="M110.07 127.17L102.07 130.89C102.07 130.89 106.58 135.5 114.21 138.24C114.2 138.24 110.62 129.69 110.07 127.17Z" fill="#211C4B" stroke="#13110C" stroke-miterlimit="10"/>
<path d="M102.06 130.89L99.9 128.7L103.25 127.12L110.07 127.17L102.06 130.89Z" fill="#FFEA24" stroke="#13110C" stroke-miterlimit="10"/>
<path d="M103 127.24L99.9 128.7L98.55 127.08L103 127" fill="#13110C"/>
<path d="M103 127.24L99.9 128.7L98.55 127.08L103 127" stroke="#13110C" stroke-miterlimit="10"/>
<path d="M95.3501 127.05L81.6801 126.99C86.4501 129.83 91.2801 136.85 91.2801 136.85C93.1801 139.31 100.77 145.25 100.77 145.25C112.25 155.39 123.3 153.98 123.3 153.98C123.3 153.98 116.28 143.44 115.56 141.06C115.57 141.06 105.96 139.77 95.3501 127.05Z" fill="#13110C" stroke="#13110C" stroke-miterlimit="10"/>
<path d="M119.3 149.77C119.3 149.77 113.15 152.48 110.66 148.04C110.66 148.04 109.45 143.01 106.74 140.53C106.74 140.53 103.89 137.12 97.2699 137.8C97.2699 137.8 91.86 137.2 89.87 129.97C89.87 129.97 89.16 128.05 89.23 127.54" stroke="white" stroke-miterlimit="10"/>
<path d="M113.05 145.54C113.05 145.54 115.1 146.94 115.26 144.73C115.42 142.52 112.29 142.08 110.8 144.37L110.07 145.66" stroke="white" stroke-miterlimit="10"/>
<path d="M103.39 141.61C103.39 141.61 103.85 143.62 101.81 143.68C101.81 143.68 98.41 142.81 101.47 138.93L103 138.31" stroke="white" stroke-miterlimit="10"/>
<path d="M94.85 133.77C94.85 133.77 97.27 134.69 97.34 132.35C97.34 132.35 97.27 128.22 92.71 131.57C92.71 131.57 91.53 132.57 91.66 133.96" stroke="white" stroke-miterlimit="10"/>
<path d="M105.09 146.02C105.09 145.47 105.54 145.01 106.09 145.01C106.64 145.01 107.09 145.46 107.09 146.02C107.09 146.58 106.64 147.02 106.09 147.02C105.54 147.02 105.09 146.57 105.09 146.02Z" fill="white"/>
<path d="M109.45 141.61C109.45 141.06 109.9 140.61 110.45 140.61C111 140.61 111.45 141.06 111.45 141.61C111.45 142.16 111 142.62 110.45 142.62C109.9 142.62 109.45 142.16 109.45 141.61Z" fill="white"/>
<path d="M96.54 139.97C96.54 139.42 96.99 138.97 97.54 138.97C98.09 138.97 98.54 139.42 98.54 139.97C98.54 140.52 98.09 140.98 97.54 140.98C96.99 140.97 96.54 140.52 96.54 139.97Z" fill="white"/>
<path d="M99.1899 135.01C99.1899 134.46 99.6399 134.01 100.19 134.01C100.74 134.01 101.19 134.46 101.19 135.01C101.19 135.56 100.74 136.02 100.19 136.02C99.6399 136.02 99.1899 135.57 99.1899 135.01Z" fill="white"/>
<path d="M91.66 128.78C91.66 128.23 92.11 127.77 92.66 127.77C93.21 127.77 93.66 128.22 93.66 128.78C93.66 129.34 93.21 129.78 92.66 129.78C92.11 129.79 91.66 129.34 91.66 128.78Z" fill="white"/>
<path d="M72.4 142.3C79.82 139.32 85 133.22 85 133.22L83.54 131.56C83.54 131.56 77.78 137.11 71.87 139.79L72.4 142.3Z" fill="#FFEA24" stroke="#13110C" stroke-miterlimit="10"/>
<path d="M76.97 127C76.53 127.41 69.73 131.79 69.73 131.79L68.79 128.99L72.79 127H76.97Z" fill="#FFEA24" stroke="#13110C" stroke-miterlimit="10"/>
<path d="M77.59 136.42L73.19 129.54L70.88 131.04L74.95 138.16L77.59 136.42Z" fill="#FFEA24" stroke="#13110C" stroke-miterlimit="10"/>
<path d="M81.96 132.99L79.85 134.73L75.08 128.3L76.97 127L81.96 132.99Z" fill="#FFEA24" stroke="#13110C" stroke-miterlimit="10"/>
<path d="M72.8 127L68.79 128.98L68.14 127H72.8Z" fill="#13110C" stroke="#13110C" stroke-miterlimit="10"/>
<path d="M109.91 185.57C109.91 185.57 119.77 181.06 128.32 175.67C131.11 173.91 133.75 172.06 135.88 170.24C135.95 170.18 136.02 170.12 136.09 170.06L128.67 161.28L128.32 175.67" fill="#211C4B"/>
<path d="M109.91 185.57C109.91 185.57 119.77 181.06 128.32 175.67M128.32 175.67C131.11 173.91 133.75 172.06 135.88 170.24C135.95 170.18 136.02 170.12 136.09 170.06L128.67 161.28L128.32 175.67Z" stroke="#13110C" stroke-miterlimit="10"/>
<path d="M128.31 160.91V175.67L125.32 177.49L125.62 157.26L128.31 160.91Z" fill="#13110C" stroke="#13110C" stroke-miterlimit="10"/>
<path d="M113.51 183.85V155.2L110.79 154.29L110.93 185.09L113.51 183.85Z" fill="#13110C" stroke="#13110C" stroke-miterlimit="10"/>
<path d="M124.32 176.94V168.74" stroke="white" stroke-miterlimit="10"/>
<path d="M124.32 165.33V157.71" stroke="white" stroke-miterlimit="10"/>
<path d="M114.56 176.94V169.44" stroke="white" stroke-miterlimit="10"/>
<path d="M114.56 165.57V157.71" stroke="white" stroke-miterlimit="10"/>
<path d="M124.16 167.38L119.57 172.36L114.94 167.19L119.57 162.11L124.16 167.38Z" fill="white" stroke="white" stroke-miterlimit="10"/>
<path d="M119.466 165.291L117.39 167.387L119.486 169.463L121.562 167.367L119.466 165.291Z" fill="#E31518"/>
<path d="M120.7 179.43L119.3 177.81L116.71 180.23L117.97 180.92L120.7 179.43Z" fill="#E31518"/>
<path d="M120.99 156.83H117.82L119.41 158.86L120.99 156.83Z" fill="#E31518"/>
<path d="M110.46 185.32L83.54 168.4L76.75 173.19L75.04 172.68V171.46L83.54 165.87L110.92 182.65L110.46 185.32Z" fill="#FFEA24" stroke="#13110C" stroke-miterlimit="10"/>
<path d="M89.79 172.37L83.55 168.4L76.75 173.19L85.53 177.87C85.52 177.87 85.8 173.6 89.79 172.37Z" fill="#E31518" stroke="#13110C" stroke-miterlimit="10"/>
<path d="M110.87 170.43V176.94L108.54 181.19L105.81 179.52L108.72 173.82L105.81 172.36L102.58 177.65L99.9401 175.92L103.12 170.43L100.22 168.74L97.1601 174.22L94.4801 172.57L97.1601 166.99L94.4801 165.57L91.3701 170.67L88.2301 168.74L91.3701 163.87L88.7501 162.11L85.7701 167.23L83.5401 165.87L84.9301 159.83L83.5401 158.86L80.8601 161.11L82.2801 166.7L79.7001 168.4L77.1801 163.13L75.0801 164.03L74.6801 159.48L83.5401 154.3L110.87 170.43Z" fill="#FFEA24" stroke="#13110C" stroke-miterlimit="10"/>
<path d="M107.42 180.38L110.92 173.46L83.54 156.83L74.87 161.63" stroke="#13110C" stroke-width="0.5" stroke-miterlimit="10"/>
<path d="M101.2 176.75L105.09 169.92" stroke="#13110C" stroke-width="0.5" stroke-miterlimit="10"/>
<path d="M95.87 173.43L99.56 166.56" stroke="#13110C" stroke-width="0.5" stroke-miterlimit="10"/>
<path d="M89.79 169.7L93.91 163.13" stroke="#13110C" stroke-width="0.5" stroke-miterlimit="10"/>
<path d="M84.64 166.54L88.32 159.73" stroke="#13110C" stroke-width="0.5" stroke-miterlimit="10"/>
<path d="M81.07 167.5L77.59 160.13" stroke="#13110C" stroke-width="0.5" stroke-miterlimit="10"/>
<path d="M85.1499 133.39L81.9599 136.23V151.91L74.4399 156.5L74.6799 159.48L83.5399 154.3L110.87 170.43L110.79 166.54L99.5599 159.83L99.7999 148.03L96.5399 145.78L96.1699 157.9L85.5199 151.8L85.1499 133.39Z" fill="#13110C" stroke="#13110C" stroke-miterlimit="10"/>
<path d="M110.79 154.29C108.08 153.37 99.8001 148.04 99.8001 148.04L99.5601 159.84L110.79 166.55V154.29Z" fill="#E31518" stroke="#13110C" stroke-miterlimit="10"/>
<path d="M109.91 163.13L101.87 158.52L102.06 150.38" stroke="#13110C" stroke-miterlimit="10"/>
<path d="M80 139.06V150.38L75.08 153.37" stroke="#13110C" stroke-miterlimit="10"/>
<path d="M96.18 157.71L94.3 156.83L94.82 144.06L96.54 145.78L96.18 157.71Z" fill="white" stroke="#13110C" stroke-miterlimit="10"/>
<path d="M87.56 152.97L87.59 136.48L85.52 133.84V151.8L87.56 152.97Z" fill="white" stroke="#13110C" stroke-miterlimit="10"/>
<path d="M92.68 149.77H88.83V152.08H92.68V149.77Z" stroke="#13110C" stroke-miterlimit="10"/>
<path d="M92.67 144.06H88.76V146.02H92.67V144.06Z" stroke="#13110C" stroke-miterlimit="10"/>
<path d="M93.91 154.05L89.7 154.2" stroke="#13110C" stroke-miterlimit="10"/>
<path d="M94.48 148.03L87.59 147.79" stroke="#13110C" stroke-miterlimit="10"/>
<path d="M91.19 141.06L87.59 140.97" stroke="#13110C" stroke-miterlimit="10"/>
<path d="M15.73 43.5602C16.1 44.6902 16.79 46.2702 17.96 46.9602H13.13C14.37 45.9802 14.94 44.5502 15.2 43.5402C14.52 44.7302 13.23 45.5302 11.76 45.5302C9.57005 45.5302 7.80005 43.7502 7.80005 41.5702C7.80005 39.3802 9.57005 37.6102 11.76 37.6102C12.2 37.6102 12.63 37.6802 13.02 37.8102C12.25 37.0902 11.76 36.0602 11.76 34.9102C11.76 32.7202 13.53 30.9502 15.72 30.9502C17.91 30.9502 19.68 32.7302 19.68 34.9102C19.68 36.1302 19.13 37.2202 18.26 37.9502C18.58 37.8602 18.92 37.8202 19.27 37.8202C21.46 37.8202 23.23 39.6002 23.23 41.7802C23.23 43.9702 21.46 45.7402 19.27 45.7402C17.73 45.7402 16.38 44.8602 15.73 43.5602Z" fill="#1D1D1B"/>
<path d="M162.75 211.53C162.38 210.4 161.69 208.82 160.52 208.13H165.35C164.11 209.11 163.54 210.54 163.28 211.55C163.97 210.36 165.25 209.56 166.72 209.56C168.91 209.56 170.68 211.34 170.68 213.52C170.68 215.71 168.91 217.48 166.72 217.48C166.28 217.48 165.85 217.41 165.46 217.27C166.23 217.99 166.72 219.02 166.72 220.17C166.72 222.36 164.95 224.13 162.76 224.13C160.57 224.13 158.8 222.35 158.8 220.17C158.8 218.95 159.35 217.86 160.22 217.13C159.9 217.22 159.56 217.26 159.21 217.26C157.02 217.26 155.25 215.49 155.25 213.3C155.25 211.11 157.02 209.34 159.21 209.34C160.76 209.34 162.1 210.23 162.75 211.53Z" fill="#1D1D1B"/>
<path d="M50.8701 59.3502C51.3901 60.9702 52.4001 63.2502 54.0801 64.2502H47.1201C48.9101 62.8302 49.7201 60.7802 50.0901 59.3202C49.1001 61.0302 47.2601 62.1902 45.1401 62.1902C41.9801 62.1902 39.4301 59.6402 39.4301 56.4802C39.4301 53.3302 41.9801 50.7702 45.1401 50.7702C45.7801 50.7702 46.3901 50.8702 46.9601 51.0602V51.0702C45.8401 50.0302 45.1501 48.5402 45.1501 46.8902C45.1501 43.7402 47.7101 41.1802 50.8601 41.1802C54.0101 41.1802 56.5701 43.7402 56.5701 46.8902C56.5701 48.6502 55.7701 50.2202 54.5201 51.2702C54.9801 51.1502 55.4801 51.0802 55.9801 51.0802C59.1301 51.0802 61.6901 53.6402 61.6901 56.7902C61.6901 59.9402 59.1301 62.5002 55.9801 62.5002C53.7401 62.5002 51.8101 61.2202 50.8701 59.3502Z" fill="#1D1D1B"/>
<path d="M128.98 194.22C128.46 192.6 127.45 190.32 125.77 189.32H132.73C130.94 190.74 130.13 192.79 129.76 194.25C130.75 192.54 132.59 191.38 134.71 191.38C137.87 191.38 140.42 193.93 140.42 197.09C140.42 200.24 137.87 202.8 134.71 202.8C134.07 202.8 133.46 202.7 132.89 202.51V202.5C134.01 203.54 134.7 205.03 134.7 206.68C134.7 209.83 132.14 212.39 128.99 212.39C125.84 212.39 123.28 209.83 123.28 206.68C123.28 204.92 124.08 203.35 125.33 202.3C124.87 202.42 124.37 202.49 123.87 202.49C120.72 202.49 118.16 199.93 118.16 196.78C118.16 193.63 120.72 191.07 123.87 191.07C126.12 191.07 128.05 192.36 128.98 194.22Z" fill="#1D1D1B"/>
</svg>
