<svg width="180" height="254" viewBox="0 0 180 254" fill="none" xmlns="http://www.w3.org/2000/svg">
<rect x="0.5" y="0.5" width="179" height="253" rx="14.5" fill="white" stroke="#1D1D1B"/>
<path d="M128.54 127.62H131.37C131.37 127.62 132.37 113.02 140.79 100.4L140.73 96.0601C140.74 96.0501 130.74 107.46 128.54 127.62Z" fill="#211C4B" stroke="#13110C" stroke-miterlimit="10"/>
<path d="M139.05 92.8199C139.05 92.8199 127.99 105.34 125.42 127.62H128.54C128.54 127.62 131.05 106.75 140.82 95.9499C140.82 95.9499 142.21 91.7699 140.63 92.2999C139.05 92.8199 139.05 92.8199 139.05 92.8199Z" fill="#FFE922" stroke="#13110C" stroke-miterlimit="10"/>
<path d="M121.95 127.62H125.42C125.42 127.62 127.93 105 139.05 92.8199C139.05 92.8199 142.23 85.5299 140.01 86.7799L137.79 88.0299C137.79 88.0299 130.55 97.9999 125.77 110.07C125.77 110.06 123.38 114.08 121.95 127.62Z" fill="#211C4B" stroke="#13110C" stroke-miterlimit="10"/>
<path d="M111.59 75.8999C119.95 78.4699 121.95 77.9699 121.95 77.9699C113.81 88.2499 101.01 91.0099 101.01 91.0099C88.77 94.2099 76.57 90.4299 76.57 90.4299C69.4 89.0099 60.63 83.0099 60.63 83.0099C61.11 82.3099 62.95 76.2799 62.95 76.2799C62.95 76.2799 65.86 77.7299 68.01 76.5099C68.01 76.5099 71.42 81.3399 79.6 82.2099C79.6 82.2099 90.25 84.8699 98.93 82.6499C98.94 82.6499 106.42 79.9599 111.59 75.8999Z" fill="#211C4B" stroke="#13110C" stroke-miterlimit="10"/>
<path d="M87.9199 94.8301L87.0699 108.22L97.3999 94.3701L87.9199 94.8301Z" fill="#E31518" stroke="#13110C" stroke-miterlimit="10"/>
<path d="M64.86 88.21L76.04 108.96L77.21 92.79C77.2 92.79 68.96 90.55 64.86 88.21Z" fill="#E31518" stroke="#13110C" stroke-miterlimit="10"/>
<path d="M115 81.97C116.57 78.89 114.75 76.75 114.75 76.75C113.47 74.8 115.44 74.54 115.44 74.54C119.97 81.28 114.99 83.98 114.99 83.98C110.43 87.11 106.61 80.35 106.61 80.35C106.61 80.35 107.66 79.02 108.31 79.99C108.31 79.99 111.33 84.43 113.87 82.76L115 81.97Z" fill="#FFE922"/>
<path d="M27.87 68.2202V127.62H32.84L33.21 74.8402L27.87 68.2202Z" fill="#13110C" stroke="#13110C" stroke-miterlimit="10"/>
<path d="M109.69 75.37L108.5 73.07C103 62.48 76.1999 65.87 76.1999 65.87C70.4399 64.36 72.2399 71.96 72.2399 71.96C72.6499 73.46 69.4399 75.65 69.4399 75.65C69.4399 75.65 73.8999 80.29 85.2199 81.19C85.2199 81.19 98.3399 82.61 105.42 77.7L109.69 75.37Z" fill="#E31518" stroke="#13110C" stroke-miterlimit="10"/>
<path d="M10.97 21.1502C10.97 22.0102 10.97 22.3602 10.97 22.2202C10.97 23.0602 11.14 23.7302 11.5 24.2402C11.92 24.8402 12.55 25.1402 13.39 25.1402C14.1 25.1402 14.68 24.8802 15.11 24.3602C15.5 23.8902 15.7 23.2902 15.7 22.5802V12.1802H13.79V9.68018H19.94V12.1802H18.11V22.5802C18.11 23.9902 17.68 25.1802 16.83 26.1302C15.93 27.1202 14.79 27.6202 13.39 27.6202C11.98 27.6202 10.81 27.1302 9.89996 26.1502C8.98996 25.1702 8.53996 23.9702 8.55996 22.5602V21.1502H10.97Z" fill="#E30B13"/>
<path d="M164.77 232.95C164.77 232.1 164.77 231.74 164.77 231.88C164.77 231.04 164.6 230.37 164.24 229.86C163.82 229.26 163.19 228.96 162.35 228.96C161.64 228.96 161.06 229.22 160.63 229.74C160.24 230.22 160.04 230.81 160.04 231.52V241.92H161.95V244.42H155.8V241.92H157.63V231.52C157.63 230.11 158.06 228.92 158.91 227.97C159.81 226.98 160.95 226.48 162.35 226.48C163.76 226.48 164.93 226.97 165.84 227.95C166.75 228.93 167.2 230.13 167.18 231.54V232.95H164.77Z" fill="#E30B13"/>
<path d="M87.3199 127.62H146.78" stroke="#13110C" stroke-miterlimit="10"/>
<path d="M87.32 127.62H27.87" stroke="#13110C" stroke-miterlimit="10"/>
<path d="M125.87 31.4302H59.92L69.46 45.8302C69.46 45.8302 99.69 42.1102 115.63 46.8202L125.87 31.4302Z" fill="#E31518" stroke="#13110C" stroke-miterlimit="10"/>
<path d="M115.63 46.8201L117.46 44.0801C96.76 37.7101 67.7 43.1701 67.7 43.1701L69.46 45.8301C69.46 45.8301 100.51 42.1101 115.63 46.8201Z" fill="#13110C" stroke="#13110C" stroke-miterlimit="10"/>
<path d="M68.04 31.4302L71.32 36.4802H79.58L79.93 31.4302H82.14L81.64 38.3402L69.82 39.1202L65.34 31.4302H68.04Z" fill="white"/>
<path d="M118.06 32.0598L114.8 37.1298L106.54 37.1698L106.17 32.1198L103.96 32.1298L104.48 39.0398L116.3 39.7698L120.76 32.0498L118.06 32.0598Z" fill="white"/>
<path d="M86.2 31.4302V37.3402H99.44V31.4302H97.38L97.3 36.0202L88.97 36.0902V31.4302H86.2Z" fill="white"/>
<path d="M146.78 30.8501H27.87V224.38H146.78V30.8501Z" stroke="#13110C" stroke-miterlimit="10"/>
<path d="M98.23 62.05C99.96 69.42 97.36 71.04 97.36 71.04C88.37 80.25 82.13 79.38 82.13 79.38C76.55 78.73 71.03 66.6 71.03 66.6C68.97 62.92 70.13 45.75 70.13 45.75C70.13 45.75 85.11 44.02 94.75 44.43C94.75 44.43 95.83 44.93 97.57 59.77L98.23 62.05Z" fill="#FED68A" stroke="#13110C" stroke-miterlimit="10"/>
<path d="M83.83 61.8902C83.83 61.8902 83.34 62.6402 80.69 63.0302C79.96 63.1402 79.31 64.5902 77.96 64.1102C74.85 63.0102 77.33 58.3702 77.33 58.3702C78.74 53.2802 77.33 50.2502 77.33 50.2502C74.51 48.0802 70.61 49.1702 70.61 49.1702" stroke="#13110C" stroke-miterlimit="10"/>
<path d="M82.5 48.6499C82.5 48.6499 88.96 46.2899 93.14 48.8799" stroke="#13110C" stroke-miterlimit="10"/>
<path d="M91.89 52.7799C84.69 49.9999 81.41 53.1599 81.41 53.1599C81.41 53.1599 82.87 56.4199 91.24 53.9199C91.24 53.9199 92.25 52.9199 91.89 52.7799Z" stroke="#13110C" stroke-miterlimit="10"/>
<path d="M82.5 54.8599C82.5 54.8599 84.48 57.0099 86.69 57.1699" stroke="#13110C" stroke-miterlimit="10"/>
<path d="M77.22 52.89C73.12 50.68 70.61 53.25 70.61 53.25C70.61 53.25 72.13 56.47 76.9 54.52C76.91 54.52 77.55 53.07 77.22 52.89Z" stroke="#13110C" stroke-miterlimit="10"/>
<path d="M76.1999 55.4902C76.1999 55.4902 75.0599 57.1702 73.3199 57.1702" stroke="#13110C" stroke-miterlimit="10"/>
<path d="M75.44 53.3999C75.44 53.6499 74.84 53.8599 74.11 53.8599C73.38 53.8599 72.78 53.6499 72.78 53.3999C72.78 53.1499 73.38 52.9399 74.11 52.9399C74.84 52.9399 75.44 53.1499 75.44 53.3999Z" stroke="#13110C" stroke-miterlimit="10"/>
<path d="M87.16 53.3399C87.16 53.5999 86.57 53.7999 85.83 53.7999C85.1 53.7999 84.5 53.5999 84.5 53.3399C84.5 53.0899 85.1 52.8799 85.83 52.8799C86.57 52.8799 87.16 53.0899 87.16 53.3399Z" stroke="#13110C" stroke-miterlimit="10"/>
<path d="M81.96 67.0599C81.96 67.0599 84.4 66.8999 85.84 68.0399C85.84 68.0399 89.56 68.8399 89.89 67.0599C89.89 67.0599 90.22 64.8399 87.83 65.5999" stroke="#13110C" stroke-miterlimit="10"/>
<path d="M81.96 67.39C81.96 67.39 83.37 67.12 83.83 67.39" stroke="#13110C" stroke-miterlimit="10"/>
<path d="M77.94 67.3902C77.94 67.3902 75.82 67.7702 74.76 68.5802C74.76 68.5802 71.31 69.2502 72.29 66.8302C72.29 66.8302 72.72 65.8702 73.32 66.4702" stroke="#13110C" stroke-miterlimit="10"/>
<path d="M76.2 71.1899H85.21" stroke="#13110C" stroke-miterlimit="10"/>
<path d="M78.97 70.54H81.96" stroke="#13110C" stroke-miterlimit="10"/>
<path d="M79.61 73.8799L81.55 75.4099" stroke="#13110C" stroke-miterlimit="10"/>
<path d="M79.61 75.4099L81.55 73.8799" stroke="#13110C" stroke-miterlimit="10"/>
<path d="M71.84 68.22L72.11 71.19C73.08 73.65 68.31 76.4 68.31 76.4C63.56 78.4 60.48 74.32 60.48 74.32C58.48 70.65 60.48 67.48 60.48 67.48C61.56 64.8 65.34 65.91 65.34 65.91C67.95 67.66 67.23 65.45 67.23 65.45C66.23 62.24 66.56 55.51 66.56 55.51C66.31 49.7 69.46 45.85 69.46 45.85L70.15 45.77C70.15 45.77 69.36 59.9 70.05 61.9C70.04 61.89 70.21 65.3 71.84 68.22Z" fill="#E2C80B" stroke="#13110C" stroke-miterlimit="10"/>
<path d="M65.92 70.5398C65.92 70.5398 66.71 69.1498 65.34 69.0698C63.98 68.9898 62.98 71.1498 63.56 72.1498C63.56 72.1498 64.75 73.8198 67.69 72.1498C67.69 72.1498 69.14 71.9798 68.47 63.1498C68.47 63.1498 67.05 50.6698 68.97 48.2798" stroke="#13110C" stroke-width="0.5" stroke-miterlimit="10"/>
<path d="M66.98 69.7301C66.98 69.7301 66.81 66.3801 62.73 68.2201C62.73 68.2201 60.21 72.4101 63.39 74.6501C63.39 74.6501 69 75.9001 69.82 71.9801C69.82 71.9801 69.5 66.3301 69.82 64.5601" stroke="#13110C" stroke-width="0.5" stroke-miterlimit="10"/>
<path d="M98.83 68.2199C99.26 66.2399 97.95 61.0399 97.95 61.0399C97.66 60.0299 97.39 58.1299 97.39 58.1299C96.85 50.1899 94.77 44.4399 94.77 44.4399C94.77 44.4399 106.62 43.6399 116.51 47.6799C116.51 47.6799 118.65 57.3799 117.96 65.1299C117.96 65.1299 117.96 70.1399 119.79 67.4799C119.79 67.4799 122.31 64.9599 126.28 66.8399C126.28 66.8399 130.62 70.3499 126.97 75.4199C126.97 75.4199 124.58 78.6099 118.15 77.4699C118.15 77.4699 111.29 77.2199 100.96 70.5399C100.95 70.5399 98.83 68.9699 98.83 68.2199Z" fill="#E2C80B" stroke="#13110C" stroke-miterlimit="10"/>
<path d="M121.04 69.3398C121.04 69.3398 121.98 67.1598 124.44 68.2198C126.9 69.2798 126.61 72.1098 125.87 72.9898C125.13 73.8698 122.17 76.6798 119.34 74.6498C116.51 72.6098 116.07 68.9698 115.81 67.2698C115.56 65.5598 114.61 59.1398 114.74 57.8198C114.87 56.4998 113.8 48.2798 113.8 48.2798" stroke="#13110C" stroke-width="0.5" stroke-miterlimit="10"/>
<path d="M122.11 69.8401C122.11 69.8401 124.06 69.2701 124.06 70.8501C124.06 72.4201 123.37 73.6201 122.55 73.4301C121.73 73.2401 118.65 73.6001 117.2 68.6701C115.75 63.7401 116.32 59.7101 116.32 59.7101L115.38 48.8901" stroke="#13110C" stroke-width="0.5" stroke-miterlimit="10"/>
<path d="M96.86 45.4102C96.86 45.4102 99.69 56.7402 99.63 59.5202C99.57 62.2902 100.89 67.7302 101.02 68.2202" stroke="#13110C" stroke-width="0.5" stroke-miterlimit="10"/>
<path d="M98.9399 45.4102C98.9399 45.4102 102.75 69.7802 103.96 70.7902" stroke="#13110C" stroke-width="0.5" stroke-miterlimit="10"/>
<path d="M101.02 45.4102C101.02 45.4102 104.77 70.1402 107.13 72.6102" stroke="#13110C" stroke-width="0.5" stroke-miterlimit="10"/>
<path d="M103.35 45.75C103.35 45.75 107.38 70.62 109.9 73.88" stroke="#13110C" stroke-width="0.5" stroke-miterlimit="10"/>
<path d="M105.99 46.29C105.99 46.29 109.29 70.97 112.36 75" stroke="#13110C" stroke-width="0.5" stroke-miterlimit="10"/>
<path d="M108.26 46.8198C108.26 46.8198 112.04 72.7898 114.37 75.4098" stroke="#13110C" stroke-width="0.5" stroke-miterlimit="10"/>
<path d="M110.52 47.1699C110.52 47.1699 112.72 71.7299 116.69 75.8199" stroke="#13110C" stroke-width="0.5" stroke-miterlimit="10"/>
<path d="M112.36 47.6699C112.36 47.6699 112.85 72.1699 119.21 75.8199" stroke="#13110C" stroke-width="0.5" stroke-miterlimit="10"/>
<path d="M98.94 68.5601C101.3 71.2501 105.61 73.2601 105.61 73.2601C100.61 75.7501 93.65 74.8401 93.65 74.8401C93.65 74.8401 97.41 72.1201 98.94 68.5601Z" fill="white" stroke="#13110C" stroke-miterlimit="10"/>
<path d="M97.91 71.7798C97.91 71.7798 99.52 72.1898 100.62 71.7798" stroke="#13110C" stroke-width="0.5" stroke-miterlimit="10"/>
<path d="M96.62 73.4498C96.62 73.4498 99.37 74.0298 102.49 73.0698" stroke="#13110C" stroke-width="0.5" stroke-miterlimit="10"/>
<path d="M111.31 75.7998L109.89 75.2598L109.17 75.6498C100.73 80.6098 95.84 81.1398 95.84 81.1398C83.05 82.0098 78.51 79.9898 78.51 79.9898C72.41 78.4298 69.42 75.6498 69.42 75.6498L68.01 76.5098C68.01 76.5098 69.39 79.0798 75.44 81.1398C75.44 81.1398 83.19 83.4298 88.23 83.4298C88.23 83.4298 97.17 83.8898 100.79 81.8698C100.79 81.8698 108.86 79.2098 110.74 76.6898L111.31 75.7998Z" fill="white" stroke="#13110C" stroke-miterlimit="10"/>
<path d="M93.65 76.2798L96.62 79.6698" stroke="#211C4B" stroke-miterlimit="10"/>
<path d="M98.55 75.8198L101.02 78.1598" stroke="#211C4B" stroke-miterlimit="10"/>
<path d="M103.78 75L105.61 76.51" stroke="#211C4B" stroke-miterlimit="10"/>
<path d="M89.5601 78.1602L91.2601 80.0802" stroke="#211C4B" stroke-miterlimit="10"/>
<path d="M85.9301 79.3999L86.8201 80.4499" stroke="#211C4B" stroke-miterlimit="10"/>
<path d="M72.7 74.6499L74.35 77.3799" stroke="#211C4B" stroke-miterlimit="10"/>
<path d="M76.92 77.3799L78.34 79.1199" stroke="#211C4B" stroke-miterlimit="10"/>
<path d="M146.78 34.3799L140.32 40.6299V59.4999V81.3799C140.32 81.3799 139.95 86.3199 142.77 83.7899L142.7 41.5799L146.78 37.1999V34.3799Z" fill="#FFE922" stroke="#13110C" stroke-miterlimit="10"/>
<path d="M142.76 83.8H146.78V37.21L142.69 41.59L142.76 83.8Z" fill="#13110C" stroke="#13110C" stroke-miterlimit="10"/>
<path d="M127.62 50.1401C127.62 50.1401 136.43 59.4901 146.77 62.9501V65.3501V70.5301V72.3801C146.78 72.3801 132.52 72.7601 127.62 50.1401Z" fill="#FFE922" stroke="#13110C" stroke-miterlimit="10"/>
<path d="M146.78 70.5402C137.33 69.5602 131.73 57.1802 131.73 57.1802C131.73 57.1802 139.83 63.3202 146.78 65.3602V70.5402Z" fill="#E31518"/>
<path d="M142.71 53.87L146.78 51.02" stroke="#FFE922" stroke-miterlimit="10"/>
<path d="M142.72 58.1002L146.78 55.4902" stroke="#FFE922" stroke-miterlimit="10"/>
<path d="M142.69 78.2502L146.78 75.4102" stroke="#FFE922" stroke-miterlimit="10"/>
<path d="M142.76 82.1399L146.78 79.6699" stroke="#FFE922" stroke-miterlimit="10"/>
<path d="M139.43 85.33C139.43 85.33 136.52 87.3699 139.06 88.4899C139.06 88.4899 136.98 90.7399 140.02 90.9499C140.02 90.9499 137.65 93.86 140.64 93.86C140.64 93.86 139.27 95.52 141.06 95.69H146.78V83.8C146.78 83.8 140.8 83.64 139.43 85.33Z" fill="#FED68A" stroke="#13110C" stroke-miterlimit="10"/>
<path d="M140.05 82.1401C140.05 82.1401 137.14 82.5101 137.39 83.7901C137.64 85.0801 138.02 85.5101 139.06 85.6201C139.06 85.6201 140.01 84.5101 140.74 84.5101L140.05 82.1401Z" fill="#FED68A" stroke="#13110C" stroke-miterlimit="10"/>
<path d="M144.73 86.8101L139.05 88.4901" stroke="#13110C" stroke-miterlimit="10"/>
<path d="M144.73 89.7402L140.01 90.9502" stroke="#13110C" stroke-miterlimit="10"/>
<path d="M144.77 92.8901L140.64 93.8601" stroke="#13110C" stroke-miterlimit="10"/>
<path d="M140.83 95.6602L140.64 127.62H142.7V95.8801L140.83 95.6602Z" fill="#FFE922" stroke="#13110C" stroke-miterlimit="10"/>
<path d="M142.7 95.8799L146.78 95.6899V127.62H142.7V95.8799Z" fill="#13110C" stroke="#13110C" stroke-miterlimit="10"/>
<path d="M142.7 102.28L146.46 99.8901" stroke="#FFE922" stroke-miterlimit="10"/>
<path d="M143.02 106.25L146.78 103.86" stroke="#FFE922" stroke-miterlimit="10"/>
<path d="M142.7 116.26L146.46 113.87" stroke="#FFE922" stroke-miterlimit="10"/>
<path d="M143.02 120.23L146.78 117.84" stroke="#FFE922" stroke-miterlimit="10"/>
<path d="M27.87 64.5601V68.2201L33.21 74.6501L32.84 127.62H34.8V72.0501L27.87 64.5601Z" fill="#FFE922" stroke="#13110C" stroke-miterlimit="10"/>
<path d="M28.4399 88.8801L32.4499 86.4102" stroke="#FFE922" stroke-miterlimit="10"/>
<path d="M28.59 92.72L32.61 90.25" stroke="#FFE922" stroke-miterlimit="10"/>
<path d="M28.28 105.33L32.29 102.86" stroke="#FFE922" stroke-miterlimit="10"/>
<path d="M28.4301 109.17L32.4401 106.7" stroke="#FFE922" stroke-miterlimit="10"/>
<path d="M28.35 122.12L32.37 119.65" stroke="#FFE922" stroke-miterlimit="10"/>
<path d="M28.51 125.96L32.52 123.48" stroke="#FFE922" stroke-miterlimit="10"/>
<path d="M28.51 74.6499L31.33 72.8999" stroke="#FFE922" stroke-miterlimit="10"/>
<path d="M28.66 78.4798L32.68 76.0098" stroke="#FFE922" stroke-miterlimit="10"/>
<path d="M46 83.25L45.75 83.37L34.8 88.88V98.46C34.8 98.46 43.2901 89.3 45.8801 83.31" fill="#E31518"/>
<path d="M46 83.25L45.75 83.37L34.8 88.88V98.46C34.8 98.46 43.2901 89.3 45.8801 83.31" stroke="#13110C" stroke-miterlimit="10"/>
<path d="M34.8 98.4599V101.56C34.8 101.56 43.9601 96.1199 48.7201 81.8799L45.8801 83.3099C45.8801 83.3099 43.13 89.5899 34.8 98.4599Z" fill="white" stroke="#13110C" stroke-miterlimit="10"/>
<path d="M34.8 101.56C34.8 101.56 42.3001 97.8701 48.7201 81.8801L61.6 75.4102L62.96 76.2802C62.96 76.2802 58.98 90.2402 48.39 102.86C48.39 102.86 48.11 103.18 47.57 103.74C46.76 104.58 45.3601 105.96 43.4001 107.67C41.2201 109.56 38.35 111.85 34.8 114.23V101.56Z" fill="#211C4B" stroke="#13110C" stroke-miterlimit="10"/>
<path d="M47.74 103.59L43.14 99.0801H39.23V102.71L43.58 107.39" fill="#FFE922"/>
<path d="M47.74 103.59L43.14 99.0801H39.23V102.71L43.58 107.39" stroke="#13110C" stroke-miterlimit="10"/>
<path d="M42.85 102.09C42.85 102.69 42.36 103.18 41.76 103.18C41.16 103.18 40.67 102.69 40.67 102.09C40.67 101.49 41.16 101 41.76 101C42.36 101 42.85 101.49 42.85 102.09Z" fill="#211C4B"/>
<path d="M51.29 99.0799L46.23 95.1099L42.33 95.5399L42.74 99.1399L47.75 103.35" fill="#FFE922"/>
<path d="M51.29 99.0799L46.23 95.1099L42.33 95.5399L42.74 99.1399L47.75 103.35" stroke="#13110C" stroke-miterlimit="10"/>
<path d="M46.81 97.69C46.83 98.29 46.35 98.8 45.75 98.81C45.15 98.83 44.64 98.35 44.63 97.75C44.61 97.15 45.09 96.64 45.69 96.63C46.29 96.62 46.8 97.09 46.81 97.69Z" fill="#211C4B"/>
<path d="M54.81 94.1302L49.54 90.4302L45.67 91.0602L46.26 94.6402L51.48 98.5802" fill="#FFE922"/>
<path d="M54.81 94.1302L49.54 90.4302L45.67 91.0602L46.26 94.6402L51.48 98.5802" stroke="#13110C" stroke-miterlimit="10"/>
<path d="M50.34 92.9698C50.36 93.5698 49.88 94.0798 49.28 94.0898C48.68 94.1098 48.17 93.6298 48.16 93.0298C48.14 92.4298 48.62 91.9198 49.22 91.9098C49.82 91.8898 50.32 92.3598 50.34 92.9698Z" fill="#211C4B"/>
<path d="M54.98 93.0802L49.49 89.5202L48.66 85.9802L52.47 85.0802L57.98 88.4102L52.64 85.0802L52.96 80.6602L56.85 78.9902L61.1 81.4702" fill="#FFE922"/>
<path d="M54.98 93.0802L49.49 89.5202L48.66 85.9802L52.47 85.0802L57.98 88.4102L52.64 85.0802L52.96 80.6602L56.85 78.9902L61.1 81.4702" stroke="#13110C" stroke-miterlimit="10"/>
<path d="M53.36 87.5798C53.45 88.1798 53.04 88.7298 52.44 88.8198C51.84 88.9098 51.29 88.4998 51.2 87.8998C51.11 87.2998 51.52 86.7498 52.12 86.6598C52.72 86.5698 53.27 86.9798 53.36 87.5798Z" fill="#211C4B"/>
<path d="M57.21 82.49C57.3 83.09 56.89 83.64 56.29 83.73C55.69 83.82 55.14 83.41 55.05 82.81C54.96 82.21 55.37 81.66 55.97 81.57C56.56 81.48 57.11 81.89 57.21 82.49Z" fill="#211C4B"/>
<path d="M43.25 107.35L39.02 103.24H35.4V106.55L39.42 110.82" fill="#FFE922"/>
<path d="M43.25 107.35L39.02 103.24H35.4V106.55L39.42 110.82" stroke="#13110C" stroke-miterlimit="10"/>
<path d="M38.75 105.98C38.75 106.53 38.3 106.98 37.74 106.98C37.18 106.98 36.73 106.53 36.73 105.98C36.73 105.43 37.18 104.98 37.74 104.98C38.3 104.98 38.75 105.43 38.75 105.98Z" fill="#211C4B"/>
<path d="M91.52 90.1898C94.52 88.4798 94.19 85.6898 94.19 85.6898C94.19 83.3598 95.98 84.2298 95.98 84.2298C96.06 92.3498 90.41 91.8698 90.41 91.8698C84.88 91.9798 85.4 84.2298 85.4 84.2298C85.4 84.2298 87.01 83.6898 87.01 84.8598C87.01 84.8598 87.09 90.2398 90.13 90.2398L91.52 90.1898Z" fill="#FFE922"/>
<path d="M104.33 87.4701C106.4 84.7001 104.98 82.2801 104.98 82.2801C104.05 80.1401 106.04 80.2201 106.04 80.2201C109.36 87.6301 103.99 89.4501 103.99 89.4501C98.96 91.7601 96.35 84.4401 96.35 84.4401C96.35 84.4401 97.62 83.3101 98.08 84.3801C98.08 84.3801 100.3 89.2701 103.09 88.0601L104.33 87.4701Z" fill="#FFE922"/>
<path d="M79.2501 88.9101C82.5701 87.9701 82.92 85.1801 82.92 85.1801C83.48 82.9101 85.0101 84.1901 85.0101 84.1901C83.1401 92.0901 77.77 90.2701 77.77 90.2701C72.37 89.0501 74.74 81.6501 74.74 81.6501C74.74 81.6501 76.4401 81.5201 76.1501 82.6501C76.1501 82.6501 74.9401 87.8901 77.9001 88.6201L79.2501 88.9101Z" fill="#FFE922"/>
<path d="M67.75 84.5901C71.19 84.3101 72.07 81.6401 72.07 81.6401C73.06 79.5201 74.31 81.0701 74.31 81.0701C70.95 88.4601 66.04 85.6401 66.04 85.6401C60.98 83.4001 64.73 76.6001 64.73 76.6001C64.73 76.6001 66.42 76.8001 65.93 77.8501C65.93 77.8501 63.73 82.7601 66.49 84.0401L67.75 84.5901Z" fill="#FFE922"/>
<path d="M67.06 81.2399C67.06 82.3999 66.78 83.3499 66.44 83.3499C66.1 83.3499 65.83 82.3999 65.83 81.2399C65.83 80.0799 66.11 79.1299 66.44 79.1299C66.79 79.1299 67.06 80.0699 67.06 81.2399Z" fill="#FFE922"/>
<path d="M69.78 83.1601C68.82 83.8201 67.89 84.1301 67.69 83.8501C67.5 83.5701 68.12 82.8101 69.08 82.1501C70.04 81.4901 70.97 81.1801 71.17 81.4601C71.36 81.7401 70.74 82.5001 69.78 83.1601Z" fill="#FFE922"/>
<path d="M77.82 85.7399C77.82 86.8999 77.54 87.8499 77.2 87.8499C76.86 87.8499 76.59 86.9099 76.59 85.7399C76.59 84.5799 76.87 83.6299 77.2 83.6299C77.54 83.6299 77.82 84.5699 77.82 85.7399Z" fill="#FFE922"/>
<path d="M80.53 87.6498C79.57 88.3098 78.64 88.6198 78.44 88.3398C78.25 88.0598 78.87 87.2998 79.83 86.6398C80.79 85.9798 81.72 85.6698 81.92 85.9498C82.11 86.2298 81.49 86.9898 80.53 87.6498Z" fill="#FFE922"/>
<path d="M89.46 87.5001C89.89 88.5801 89.99 89.5601 89.67 89.6901C89.36 89.8201 88.75 89.0401 88.31 87.9601C87.88 86.8801 87.78 85.9001 88.09 85.7701C88.42 85.6501 89.02 86.4201 89.46 87.5001Z" fill="#FFE922"/>
<path d="M92.6899 88.2701C92.0499 89.2401 91.2899 89.8701 91.0099 89.6801C90.7299 89.4901 91.0199 88.5501 91.6699 87.5801C92.3099 86.6101 93.0699 85.9801 93.3499 86.1601C93.6299 86.3701 93.3299 87.3001 92.6899 88.2701Z" fill="#FFE922"/>
<path d="M101.2 85.71C102.13 86.41 102.72 87.2 102.51 87.47C102.31 87.74 101.39 87.39 100.46 86.69C99.53 85.99 98.94 85.2 99.15 84.93C99.35 84.65 100.27 85 101.2 85.71Z" fill="#FFE922"/>
<path d="M104.36 84.6999C104.31 85.8599 103.99 86.7899 103.65 86.7799C103.31 86.7699 103.08 85.8099 103.13 84.6499C103.18 83.4899 103.5 82.5599 103.84 82.5699C104.18 82.5799 104.41 83.5299 104.36 84.6999Z" fill="#FFE922"/>
<path d="M111.82 80.3199C112.75 81.0199 113.34 81.8099 113.13 82.0799C112.93 82.3499 112.01 81.9999 111.08 81.2999C110.15 80.5999 109.56 79.8099 109.77 79.5399C109.97 79.2699 110.89 79.6199 111.82 80.3199Z" fill="#FFE922"/>
<path d="M114.99 79.3098C114.94 80.4698 114.62 81.3998 114.28 81.3898C113.94 81.3798 113.71 80.4198 113.76 79.2598C113.81 78.0998 114.13 77.1698 114.47 77.1798C114.81 77.1898 115.04 78.1398 114.99 79.3098Z" fill="#FFE922"/>
<path d="M71.2 86.7702C71.2 87.2002 70.85 87.5602 70.42 87.5602C69.99 87.5602 69.64 87.2102 69.64 86.7702C69.64 86.3402 69.99 85.9902 70.42 85.9902C70.85 85.9902 71.2 86.3402 71.2 86.7702Z" fill="#FFE922"/>
<path d="M73.03 88.52C73.4608 88.52 73.81 88.1707 73.81 87.74C73.81 87.3092 73.4608 86.96 73.03 86.96C72.5992 86.96 72.25 87.3092 72.25 87.74C72.25 88.1707 72.5992 88.52 73.03 88.52Z" fill="#FFE922"/>
<path d="M83.74 90.0199C83.8 90.4499 83.5 90.8399 83.07 90.8999C82.64 90.9599 82.25 90.6599 82.19 90.2299C82.13 89.7999 82.43 89.4099 82.86 89.3499C83.29 89.2899 83.68 89.5899 83.74 90.0199Z" fill="#FFE922"/>
<path d="M86.46 90.62C86.52 91.05 86.22 91.44 85.79 91.5C85.36 91.56 84.97 91.26 84.91 90.83C84.85 90.4 85.15 90.01 85.58 89.95C86.01 89.89 86.4 90.19 86.46 90.62Z" fill="#FFE922"/>
<path d="M96.86 89.8598C97.01 90.2598 96.81 90.7198 96.41 90.8698C96.01 91.0198 95.55 90.8198 95.4 90.4098C95.25 90.0098 95.45 89.5498 95.85 89.3998C96.25 89.2498 96.7 89.4498 96.86 89.8598Z" fill="#FFE922"/>
<path d="M99.6401 89.83C99.7901 90.23 99.5901 90.69 99.1901 90.84C98.7801 90.99 98.3301 90.79 98.1801 90.39C98.0301 89.99 98.23 89.53 98.63 89.38C99.04 89.22 99.4901 89.43 99.6401 89.83Z" fill="#FFE922"/>
<path d="M108.46 86.2298C108.77 86.5298 108.78 87.0298 108.48 87.3398C108.18 87.6498 107.68 87.6598 107.37 87.3498C107.06 87.0498 107.05 86.5498 107.35 86.2398C107.66 85.9398 108.15 85.9298 108.46 86.2298Z" fill="#FFE922"/>
<path d="M110.98 85.0401C111.29 85.3401 111.3 85.8401 111 86.1501C110.7 86.4601 110.2 86.4701 109.89 86.1601C109.58 85.8601 109.57 85.3601 109.87 85.0501C110.17 84.7401 110.67 84.7301 110.98 85.0401Z" fill="#FFE922"/>
<path d="M119.48 78.7999C119.79 79.0999 119.8 79.5999 119.5 79.9099C119.2 80.2199 118.7 80.2299 118.39 79.9299C118.08 79.6299 118.07 79.1299 118.37 78.8199C118.67 78.5099 119.17 78.4999 119.48 78.7999Z" fill="#FFE922"/>
<path d="M62.18 83.3398C62.6108 83.3398 62.96 82.9906 62.96 82.5598C62.96 82.129 62.6108 81.7798 62.18 81.7798C61.7492 81.7798 61.4 82.129 61.4 82.5598C61.4 82.9906 61.7492 83.3398 62.18 83.3398Z" fill="#FFE922"/>
<path d="M88.12 92.2402C88.12 92.2402 96.84 92.5902 102.49 90.6202C102.49 90.6202 106.27 89.3802 107.35 88.8402C120.01 82.4402 121.95 77.6502 121.95 77.6502L124.75 76.9502L125.89 77.9802C123.14 82.7302 109.17 90.7302 109.17 90.7302C98.87 96.4802 84.32 94.5002 84.32 94.5002C66.5 90.8602 59.59 85.0602 59.59 85.0602L60.64 83.0102C60.64 83.0102 71.16 90.1102 79.61 91.1702C79.61 91.1702 87.21 92.2202 88.12 92.2402Z" fill="white" stroke="#13110C" stroke-miterlimit="10"/>
<path d="M60.3101 85.6001L78.4101 120.48L73.0301 127.62H77.6301L93.6501 104.99L103.35 119.65L98.1301 127.62H102.55L105.61 122.48L107.92 125.15C107.92 125.15 108.35 121.07 108.7 120.48L105.6 116.9L110.52 109.48C110.52 109.48 112.45 102.15 113.79 100.31L103.77 112.98L96.1201 102.09L102.54 93.3501C102.54 93.3501 98.2701 94.2501 97.3901 94.3701L80.5701 117.4L64.8601 88.2101C64.8601 88.2101 60.9001 85.9901 60.3101 85.6001Z" fill="#FFE922" stroke="#13110C" stroke-miterlimit="10"/>
<path d="M76.04 108.96L78.57 113.67L79.61 93.43L77.2 92.79L76.04 108.96Z" fill="#FFE922" stroke="#13110C" stroke-miterlimit="10"/>
<path d="M85 94.5801L84.58 111.91L87.05 108.53L87.92 94.8301L85 94.5801Z" fill="#FFE922" stroke="#13110C" stroke-miterlimit="10"/>
<path d="M79.6099 93.4302L84.9999 94.5802L84.5799 111.91L80.5799 117.39L78.5699 113.67L79.6099 93.4302Z" fill="white" stroke="#13110C" stroke-miterlimit="10"/>
<path d="M83.28 97.0399C83.28 97.6499 82.79 98.1399 82.18 98.1399C81.58 98.1399 81.09 97.6499 81.09 97.0399C81.09 96.4299 81.58 95.9399 82.18 95.9399C82.79 95.9499 83.28 96.4399 83.28 97.0399Z" fill="#211C4B"/>
<path d="M83.05 100.39C83.05 101 82.56 101.49 81.95 101.49C81.35 101.49 80.86 101 80.86 100.39C80.86 99.78 81.35 99.29 81.95 99.29C82.56 99.29 83.05 99.79 83.05 100.39Z" fill="#211C4B"/>
<path d="M82.8799 104.04C82.8799 104.65 82.3899 105.14 81.7799 105.14C81.1799 105.14 80.6899 104.65 80.6899 104.04C80.6899 103.43 81.1799 102.94 81.7799 102.94C82.3899 102.95 82.8799 103.44 82.8799 104.04Z" fill="#211C4B"/>
<path d="M82.6299 108.22C82.6299 108.83 82.1399 109.32 81.5299 109.32C80.9299 109.32 80.4399 108.83 80.4399 108.22C80.4399 107.61 80.9299 107.12 81.5299 107.12C82.1399 107.12 82.6299 107.61 82.6299 108.22Z" fill="#211C4B"/>
<path d="M82.3701 111.91C82.3701 112.52 81.8801 113.01 81.2701 113.01C80.6701 113.01 80.1801 112.52 80.1801 111.91C80.1801 111.3 80.6701 110.81 81.2701 110.81C81.8801 110.82 82.3701 111.31 82.3701 111.91Z" fill="#211C4B"/>
<path d="M68.36 93.0801C68.36 93.0801 71.19 95.1101 76.04 96.3101" stroke="#FFE922" stroke-miterlimit="10"/>
<path d="M71.8 98.5801L75.66 100.39" stroke="#FFE922" stroke-miterlimit="10"/>
<path d="M73.8101 103.25L75.6601 104.04" stroke="#FFE922" stroke-miterlimit="10"/>
<path d="M88.55 97.8198H93.87" stroke="#FFE922" stroke-miterlimit="10"/>
<path d="M88.1899 101.79H90.8999" stroke="#FFE922" stroke-miterlimit="10"/>
<path d="M87.92 105.14H88.55" stroke="#FFE922" stroke-miterlimit="10"/>
<path d="M132.75 81.6498C126.25 85.5698 117.36 105.42 117.36 105.42C113.2 116.41 113.18 127.62 113.18 127.62H107.92C107.92 127.62 108.41 105.93 118.94 91.8698C118.94 91.8698 123.77 84.7698 128.82 79.2798L132.75 81.6498Z" fill="#211C4B" stroke="#13110C" stroke-miterlimit="10"/>
<path d="M130.21 82.1698C130.21 82.7798 129.72 83.2698 129.11 83.2698C128.51 83.2698 128.02 82.7798 128.02 82.1698C128.02 81.5598 128.51 81.0698 129.11 81.0698C129.72 81.0698 130.21 81.5598 130.21 82.1698Z" fill="white"/>
<path d="M124.72 88.5302C124.72 89.1402 124.23 89.6302 123.62 89.6302C123.02 89.6302 122.53 89.1402 122.53 88.5302C122.53 87.9202 123.02 87.4302 123.62 87.4302C124.23 87.4302 124.72 87.9202 124.72 88.5302Z" fill="white"/>
<path d="M120.81 95.2699C120.81 95.8799 120.32 96.3699 119.71 96.3699C119.11 96.3699 118.62 95.8799 118.62 95.2699C118.62 94.6599 119.11 94.1699 119.71 94.1699C120.32 94.1699 120.81 94.6599 120.81 95.2699Z" fill="white"/>
<path d="M117.19 101.79C117.19 102.4 116.7 102.89 116.09 102.89C115.49 102.89 115 102.4 115 101.79C115 101.18 115.49 100.69 116.09 100.69C116.69 100.69 117.19 101.18 117.19 101.79Z" fill="white"/>
<path d="M114.27 110.06C114.27 110.67 113.78 111.16 113.17 111.16C112.57 111.16 112.08 110.67 112.08 110.06C112.08 109.45 112.57 108.96 113.17 108.96C113.78 108.96 114.27 109.45 114.27 110.06Z" fill="white"/>
<path d="M112.55 117.39C112.55 118 112.06 118.49 111.45 118.49C110.85 118.49 110.36 118 110.36 117.39C110.36 116.78 110.85 116.29 111.45 116.29C112.06 116.3 112.55 116.79 112.55 117.39Z" fill="white"/>
<path d="M111.53 124.94C111.53 125.55 111.04 126.04 110.43 126.04C109.83 126.04 109.34 125.55 109.34 124.94C109.34 124.33 109.83 123.84 110.43 123.84C111.04 123.84 111.53 124.33 111.53 124.94Z" fill="white"/>
<path d="M102.55 93.35L96.13 102.09L103.78 112.98L113.8 100.31C113.8 100.31 119.99 88.29 128.82 79.28L125.9 77.98C125.9 77.98 121.84 83.58 109.73 89.94C107.59 91.06 105.21 92.21 102.55 93.35Z" fill="#E31518" stroke="#13110C" stroke-miterlimit="10"/>
<path d="M99.78 101.79L109.17 90.73C109.17 90.73 118.87 85.69 125.89 77.98L103.96 107.66L99.78 101.79Z" fill="#13110C" stroke="#13110C" stroke-miterlimit="10"/>
<path d="M102.17 102.28L111.99 90.4502" stroke="white" stroke-width="0.5" stroke-miterlimit="10"/>
<path d="M103.75 104.04L117.36 86.77" stroke="white" stroke-width="0.5" stroke-miterlimit="10"/>
<path d="M77.62 127.62L93.65 104.98L103.35 119.64L98.13 127.62H77.62Z" fill="#E31518" stroke="#13110C" stroke-miterlimit="10"/>
<path d="M81.96 127.62L93.97 111.91L99.78 120.23L93.84 127.62H84.29H81.96Z" fill="#13110C" stroke="#13110C" stroke-miterlimit="10"/>
<path d="M84.29 127.62L93.54 115.21L97.4 119.76L90.9 127.62H88.91L94.73 120.02L93.16 118.49L86.6 127.62H84.29Z" fill="white" stroke="#13110C" stroke-miterlimit="10"/>
<path d="M102.55 127.62L105.61 122.48L107.92 125.14V127.62H102.55Z" fill="#E31518" stroke="#13110C" stroke-miterlimit="10"/>
<path d="M105.61 116.89L108.59 120.34C108.59 120.34 110.92 109.02 110.87 109.21C110.81 109.41 105.61 116.89 105.61 116.89Z" fill="#E31518" stroke="#13110C" stroke-miterlimit="10"/>
<path d="M113.17 127.62H117.7H121.95C121.95 127.62 122.51 115.57 126.95 107.66C126.95 107.66 131.97 95.3602 138.02 87.7402L140.02 84.8702L132.76 81.6602C132.76 81.6602 128.22 84.3901 122.24 95.7001C122.24 95.7001 117.13 104.62 115.83 110.07C115.83 110.07 114.39 114.12 113.45 123.85C113.36 124.74 113.28 125.67 113.21 126.65L113.17 127.62Z" fill="#E31518" stroke="#13110C" stroke-miterlimit="10"/>
<path d="M120.81 127.62L113.8 121.97L113.44 123.84L113.8 124.12L117.71 127.62H120.81Z" fill="#FFE922" stroke="#13110C" stroke-miterlimit="10"/>
<path d="M113.17 127.62L113.44 123.84L117.71 127.62H113.17Z" fill="white" stroke="#13110C" stroke-miterlimit="10"/>
<path d="M113.8 121.97V119.93L120.81 116.86V116.26L115.83 110.06L116.38 108.22L123.81 115.86L123.33 117.84L113.8 121.97Z" fill="#FFE922" stroke="#13110C" stroke-miterlimit="10"/>
<path d="M116.56 107.66L127.92 105.41L128.54 104.04L123.08 94.1699L121.95 96.1899L125.89 103.25L125.71 104.04L117.13 106.13L116.38 108.22" fill="#FFE922"/>
<path d="M116.56 107.66L127.92 105.41L128.54 104.04L123.08 94.1699L121.95 96.1899L125.89 103.25L125.71 104.04L117.13 106.13L116.38 108.22" stroke="#13110C" stroke-miterlimit="10"/>
<path d="M123.26 93.8599L124.13 92.2899L131.83 91.8699L133.06 90.4499L130.84 83.2699L132.75 81.6499L135.32 91.5099L133.86 93.8599L123.08 94.1699" fill="#FFE922"/>
<path d="M123.26 93.8599L124.13 92.2899L131.83 91.8699L133.06 90.4499L130.84 83.2699L132.75 81.6499L135.32 91.5099L133.86 93.8599L123.08 94.1699" stroke="#13110C" stroke-miterlimit="10"/>
<path d="M124.13 92.29L129.77 91.98L127.32 87.43L132.29 87.96L130.84 83.27" fill="white"/>
<path d="M117.13 106.13L122.53 104.63L120.33 101.29H124.72L121.95 96.1899" fill="white"/>
<path d="M113.91 119.76L118.15 117.84L115.44 115.48L118.93 113.92L115.83 110.06" fill="white"/>
<path d="M118.15 117.84L115.44 115.48L118.93 113.92L120.81 116.26V116.86L118.15 117.84Z" fill="#211C4B"/>
<path d="M120.33 101.29L122.53 104.63L125.71 104.04L125.89 103.25L124.72 101.29" fill="#211C4B"/>
<path d="M127.32 87.4302L129.77 91.9802L131.83 91.8702L133.06 90.4502L132.29 87.9602L127.32 87.4302Z" fill="#211C4B"/>
<path d="M129.12 97.1502C129.12 97.6502 128.72 98.0502 128.22 98.0502C127.72 98.0502 127.32 97.6502 127.32 97.1502C127.32 96.6502 127.72 96.2502 128.22 96.2502C128.71 96.2402 129.12 96.6502 129.12 97.1502Z" fill="white"/>
<path d="M123.37 109.83C123.37 110.29 122.99 110.67 122.53 110.67C122.07 110.67 121.69 110.29 121.69 109.83C121.69 109.37 122.07 108.99 122.53 108.99C123 108.99 123.37 109.36 123.37 109.83Z" fill="white"/>
<path d="M120.41 122.48C120.41 123.05 119.95 123.51 119.38 123.51C118.81 123.51 118.35 123.05 118.35 122.48C118.35 121.91 118.81 121.45 119.38 121.45C119.95 121.45 120.41 121.91 120.41 122.48Z" fill="white"/>
<path d="M138.02 85.6002C138.02 86.1002 137.62 86.5002 137.12 86.5002C136.62 86.5002 136.22 86.1002 136.22 85.6002C136.22 85.1002 136.62 84.7002 137.12 84.7002C137.62 84.7002 138.02 85.1002 138.02 85.6002Z" fill="white"/>
<path d="M131.38 127.62H140.64L140.74 100.49C140.74 100.49 134.65 107.59 131.38 127.62Z" fill="#E31518" stroke="#13110C" stroke-miterlimit="10"/>
<path d="M139.46 125.73H133.41" stroke="#942830" stroke-miterlimit="10"/>
<path d="M139.04 123.5H133.83" stroke="#942830" stroke-miterlimit="10"/>
<path d="M139.26 121.45H134.06" stroke="#942830" stroke-miterlimit="10"/>
<path d="M139.26 119.04H134.45" stroke="#942830" stroke-miterlimit="10"/>
<path d="M139.49 116.6H135.15" stroke="#942830" stroke-miterlimit="10"/>
<path d="M139.49 114.77H136.06" stroke="#942830" stroke-miterlimit="10"/>
<path d="M139.56 112.55H136.48" stroke="#942830" stroke-miterlimit="10"/>
<path d="M139.29 110.67H137.32" stroke="#942830" stroke-miterlimit="10"/>
<path d="M139.5 108.6H137.77" stroke="#942830" stroke-miterlimit="10"/>
<path d="M139.47 106.61H138.61" stroke="#942830" stroke-miterlimit="10"/>
<path d="M67.66 127.62C68.22 124.79 67.66 114.78 67.66 114.78C66.95 101.94 59.59 85.0698 59.59 85.0698L57.23 89.7098C57.23 89.7098 60.31 99.3598 61.39 109.22C61.39 109.22 62.97 120.9 62.56 127.63H67.66V127.62Z" fill="#211C4B" stroke="#13110C" stroke-miterlimit="10"/>
<path d="M61.41 92.8202C61.41 93.4302 60.92 93.9202 60.31 93.9202C59.71 93.9202 59.22 93.4302 59.22 92.8202C59.22 92.2102 59.71 91.7202 60.31 91.7202C60.92 91.7202 61.41 92.2102 61.41 92.8202Z" fill="white"/>
<path d="M63.29 100.39C63.29 101 62.8 101.49 62.19 101.49C61.59 101.49 61.1 101 61.1 100.39C61.1 99.78 61.59 99.29 62.19 99.29C62.8 99.29 63.29 99.79 63.29 100.39Z" fill="white"/>
<path d="M64.49 107.66C64.49 108.27 64 108.76 63.39 108.76C62.79 108.76 62.3 108.27 62.3 107.66C62.3 107.05 62.79 106.56 63.39 106.56C64 106.56 64.49 107.05 64.49 107.66Z" fill="white"/>
<path d="M65.43 115.17C65.43 115.78 64.94 116.27 64.33 116.27C63.73 116.27 63.24 115.78 63.24 115.17C63.24 114.56 63.73 114.07 64.33 114.07C64.94 114.08 65.43 114.57 65.43 115.17Z" fill="white"/>
<path d="M65.96 122.74C65.96 123.35 65.47 123.84 64.86 123.84C64.26 123.84 63.77 123.35 63.77 122.74C63.77 122.13 64.26 121.64 64.86 121.64C65.46 121.65 65.96 122.14 65.96 122.74Z" fill="white"/>
<path d="M60.72 86.3799L78.41 120.48L73.21 127.37L67.65 127.62C67.65 127.62 68.7 119.95 66.83 108.22C65.84 101.92 64 94.4499 60.72 86.3799Z" fill="#E31518" stroke="#13110C" stroke-miterlimit="10"/>
<path d="M67.0601 108.75L73.8101 120.34L70.4101 126.03L67.9001 122.74C67.9101 122.74 67.8101 110.08 67.0601 108.75Z" fill="#13110C" stroke="#13110C" stroke-miterlimit="10"/>
<path d="M70.92 120.34C70.92 120.95 70.43 121.44 69.82 121.44C69.22 121.44 68.73 120.95 68.73 120.34C68.73 119.73 69.22 119.24 69.82 119.24C70.43 119.24 70.92 119.73 70.92 120.34Z" fill="white"/>
<path d="M34.8 127.62H44.32V107.13C44.32 107.13 38.89 111.8 34.8 114.24V127.62Z" fill="#E31518" stroke="#13110C" stroke-miterlimit="10"/>
<path d="M43.13 125.96H36" stroke="#942830" stroke-miterlimit="10"/>
<path d="M43.34 123.84H36.21" stroke="#942830" stroke-miterlimit="10"/>
<path d="M43.24 121.76H36.1" stroke="#942830" stroke-miterlimit="10"/>
<path d="M43.4499 119.65H36.3199" stroke="#942830" stroke-miterlimit="10"/>
<path d="M43.4499 117.91H36.3199" stroke="#942830" stroke-miterlimit="10"/>
<path d="M43.67 115.8H36.53" stroke="#942830" stroke-miterlimit="10"/>
<path d="M43.1299 113.85H37.1899" stroke="#942830" stroke-miterlimit="10"/>
<path d="M43.7 111.94H39.83" stroke="#942830" stroke-miterlimit="10"/>
<path d="M44.33 107.12L45.28 105.98C45.28 105.98 48.73 116.67 46.48 127.61H44.33V107.12Z" fill="#211C4B" stroke="#13110C" stroke-miterlimit="10"/>
<path d="M45.28 105.98L48.1 103.5L48.16 103.45C48.16 103.45 51.84 114.26 50.25 127.62H46.49C46.48 127.62 48.56 115.04 45.28 105.98Z" fill="#FFE922" stroke="#13110C" stroke-miterlimit="10"/>
<path d="M48.09 103.5L51.29 99.4902C51.29 99.4902 55.02 117.42 53.37 127.62H50.23C50.24 127.62 51.79 114.77 48.09 103.5Z" fill="#211C4B" stroke="#13110C" stroke-miterlimit="10"/>
<path d="M51.29 99.49C51.29 99.49 56.06 94.1 57.22 89.71C57.22 89.71 61.93 105.61 61.91 113.67C61.91 113.67 63.07 125.42 62.56 127.62H53.37C53.38 127.62 54.78 113.08 51.29 99.49Z" fill="#E31518" stroke="#13110C" stroke-miterlimit="10"/>
<path d="M51.66 101L51.29 99.4901L52.41 98.1401L60.24 101.79L60.64 103.95L51.66 101Z" fill="#FFE922" stroke="#13110C" stroke-miterlimit="10"/>
<path d="M60.64 104.63L53.38 111.15L53.4 113.01L62.35 118.49L62.13 115.88L55.48 112.64L55.56 111.15L60.99 106.13L60.64 104.63Z" fill="#FFE922" stroke="#13110C" stroke-miterlimit="10"/>
<path d="M62.29 119.24L62.7 120.88L55.97 125.39V126.48L57.6 127.62H53.38L53.56 124.72L62.29 119.24Z" fill="#FFE922" stroke="#13110C" stroke-miterlimit="10"/>
<path d="M57.22 90.73L54.88 94.67L58.8 95.48L55.03 99.08L60.24 101.79" fill="white"/>
<path d="M60.72 106.98L57.6 110.06L61.39 111.56L58.39 113.55L62.06 115.21L60.72 106.98Z" fill="white"/>
<path d="M62.3501 121.65L58.8101 123.84L62.1801 125.73L58.8101 127.31H62.1801" fill="white"/>
<path d="M55.03 99.0799L52.65 97.8199L54.88 94.6699L58.8 95.4799" fill="#211C4B"/>
<path d="M57.6001 110.06L61.3901 111.56L58.3901 113.55L55.7201 112.76L55.5601 111.15L57.6001 110.06Z" fill="#211C4B"/>
<path d="M55.97 126.48V125.39L58.81 123.84L62.18 125.73L58.81 127.31L55.97 126.48Z" fill="#211C4B"/>
<path d="M55.65 105.41C55.65 105.87 55.27 106.25 54.81 106.25C54.35 106.25 53.97 105.87 53.97 105.41C53.97 104.95 54.35 104.57 54.81 104.57C55.27 104.57 55.65 104.95 55.65 105.41Z" fill="white"/>
<path d="M56.97 119.24C56.97 119.7 56.59 120.08 56.13 120.08C55.67 120.08 55.29 119.7 55.29 119.24C55.29 118.78 55.67 118.4 56.13 118.4C56.59 118.4 56.97 118.78 56.97 119.24Z" fill="white"/>
<path d="M46.47 127.69H43.64C43.64 127.69 42.64 142.3 34.22 154.92L34.28 159.26C34.27 159.26 44.27 147.84 46.47 127.69Z" fill="#211C4B" stroke="#13110C" stroke-miterlimit="10"/>
<path d="M35.96 162.49C35.96 162.49 47.02 149.97 49.59 127.69H46.47C46.47 127.69 43.96 148.56 34.19 159.36C34.19 159.36 32.8 163.53 34.38 163.01C35.96 162.49 35.96 162.49 35.96 162.49Z" fill="#FFE922" stroke="#13110C" stroke-miterlimit="10"/>
<path d="M53.0599 127.69H49.5899C49.5899 127.69 47.0799 150.32 35.9599 162.49C35.9599 162.49 32.7799 169.78 34.9999 168.53L37.2199 167.28C37.2199 167.28 44.4599 157.32 49.2399 145.24C49.2399 145.25 51.6299 141.22 53.0599 127.69Z" fill="#211C4B" stroke="#13110C" stroke-miterlimit="10"/>
<path d="M63.4201 179.4C55.0601 176.83 53.0601 177.33 53.0601 177.33C61.2001 167.05 74.0001 164.3 74.0001 164.3C86.2401 161.1 98.4401 164.88 98.4401 164.88C105.61 166.3 114.38 172.3 114.38 172.3C113.9 172.99 112.06 179.03 112.06 179.03C112.06 179.03 109.15 177.58 107 178.8C107 178.8 103.59 173.97 95.4101 173.1C95.4101 173.1 84.7601 170.44 76.0801 172.66C76.0701 172.66 68.5901 175.34 63.4201 179.4Z" fill="#211C4B" stroke="#13110C" stroke-miterlimit="10"/>
<path d="M87.09 160.47L87.94 147.09L77.61 160.94L87.09 160.47Z" fill="#E31518" stroke="#13110C" stroke-miterlimit="10"/>
<path d="M110.15 167.09L98.97 146.34L97.8 162.51C97.81 162.51 106.05 164.75 110.15 167.09Z" fill="#E31518" stroke="#13110C" stroke-miterlimit="10"/>
<path d="M60 173.34C58.43 176.42 60.25 178.56 60.25 178.56C61.53 180.51 59.56 180.77 59.56 180.77C55.03 174.03 60.01 171.33 60.01 171.33C64.57 168.2 68.39 174.96 68.39 174.96C68.39 174.96 67.34 176.29 66.69 175.32C66.69 175.32 63.67 170.87 61.13 172.54L60 173.34Z" fill="#FFE922"/>
<path d="M147.14 187.09V127.69H142.17L141.8 180.47L147.14 187.09Z" fill="#13110C" stroke="#13110C" stroke-miterlimit="10"/>
<path d="M65.3199 179.94L66.5099 182.24C72.0099 192.83 98.8099 189.44 98.8099 189.44C104.57 190.95 102.77 183.35 102.77 183.35C102.36 181.85 105.57 179.66 105.57 179.66C105.57 179.66 101.11 175.02 89.7899 174.12C89.7899 174.12 76.6699 172.7 69.5899 177.61L65.3199 179.94Z" fill="#E31518" stroke="#13110C" stroke-miterlimit="10"/>
<path d="M87.69 127.69H28.23" stroke="#13110C" stroke-miterlimit="10"/>
<path d="M87.6899 127.69H147.14" stroke="#13110C" stroke-miterlimit="10"/>
<path d="M49.14 223.88H115.09L105.55 209.48C105.55 209.48 75.32 213.2 59.38 208.49L49.14 223.88Z" fill="#E31518" stroke="#13110C" stroke-miterlimit="10"/>
<path d="M59.3801 208.49L57.55 211.23C78.25 217.6 107.31 212.13 107.31 212.13L105.55 209.47C105.55 209.48 74.5 213.2 59.3801 208.49Z" fill="#13110C" stroke="#13110C" stroke-miterlimit="10"/>
<path d="M106.96 223.88L103.69 218.82H95.43L95.08 223.88H92.87L93.37 216.96L105.19 216.18L109.67 223.88H106.96Z" fill="white"/>
<path d="M56.95 223.24L60.21 218.17L68.47 218.14L68.84 223.19L71.05 223.18L70.53 216.27L58.71 215.54L54.25 223.25L56.95 223.24Z" fill="white"/>
<path d="M88.8099 223.88V217.97H75.5699V223.88H77.6299L77.7099 219.29L86.0399 219.21V223.88H88.8099Z" fill="white"/>
<path d="M76.7799 193.26C75.0499 185.89 77.6499 184.27 77.6499 184.27C86.6399 175.06 92.8799 175.93 92.8799 175.93C98.4599 176.58 103.98 188.71 103.98 188.71C106.04 192.39 104.88 209.56 104.88 209.56C104.88 209.56 89.8999 211.29 80.2599 210.87C80.2599 210.87 79.1799 210.37 77.4399 195.53L76.7799 193.26Z" fill="#FED68A" stroke="#13110C" stroke-miterlimit="10"/>
<path d="M91.1801 193.42C91.1801 193.42 91.6701 192.67 94.3201 192.28C95.0501 192.17 95.7001 190.72 97.0501 191.2C100.16 192.3 97.6801 196.94 97.6801 196.94C96.2701 202.03 97.6801 205.06 97.6801 205.06C100.5 207.23 104.4 206.14 104.4 206.14" stroke="#13110C" stroke-miterlimit="10"/>
<path d="M92.51 206.65C92.51 206.65 86.05 209.01 81.87 206.42" stroke="#13110C" stroke-miterlimit="10"/>
<path d="M83.12 202.53C90.32 205.31 93.6 202.15 93.6 202.15C93.6 202.15 92.14 198.89 83.77 201.39C83.77 201.38 82.76 202.39 83.12 202.53Z" stroke="#13110C" stroke-miterlimit="10"/>
<path d="M92.5099 200.44C92.5099 200.44 90.5299 198.29 88.3199 198.12" stroke="#13110C" stroke-miterlimit="10"/>
<path d="M97.79 202.42C101.89 204.63 104.4 202.06 104.4 202.06C104.4 202.06 102.88 198.84 98.11 200.79C98.1 200.79 97.46 202.24 97.79 202.42Z" stroke="#13110C" stroke-miterlimit="10"/>
<path d="M98.8101 199.81C98.8101 199.81 99.9501 198.13 101.69 198.13" stroke="#13110C" stroke-miterlimit="10"/>
<path d="M99.5699 201.9C99.5699 201.64 100.17 201.44 100.9 201.44C101.63 201.44 102.23 201.65 102.23 201.9C102.23 202.15 101.63 202.36 100.9 202.36C100.17 202.36 99.5699 202.16 99.5699 201.9Z" stroke="#13110C" stroke-miterlimit="10"/>
<path d="M87.85 201.96C87.85 201.71 88.44 201.5 89.18 201.5C89.91 201.5 90.51 201.71 90.51 201.96C90.51 202.21 89.91 202.42 89.18 202.42C88.44 202.42 87.85 202.22 87.85 201.96Z" stroke="#13110C" stroke-miterlimit="10"/>
<path d="M93.0499 188.25C93.0499 188.25 90.6099 188.41 89.1699 187.27C89.1699 187.27 85.4499 186.47 85.1199 188.26C85.1199 188.26 84.7899 190.48 87.1799 189.72" stroke="#13110C" stroke-miterlimit="10"/>
<path d="M93.0501 187.92C93.0501 187.92 91.6401 188.19 91.1801 187.92" stroke="#13110C" stroke-miterlimit="10"/>
<path d="M97.0699 187.92C97.0699 187.92 99.1899 187.54 100.25 186.72C100.25 186.72 103.7 186.05 102.72 188.48C102.72 188.48 102.29 189.44 101.69 188.84" stroke="#13110C" stroke-miterlimit="10"/>
<path d="M98.81 184.12H89.8" stroke="#13110C" stroke-miterlimit="10"/>
<path d="M96.04 184.77H93.05" stroke="#13110C" stroke-miterlimit="10"/>
<path d="M95.4 181.42L93.46 179.9" stroke="#13110C" stroke-miterlimit="10"/>
<path d="M95.4 179.9L93.46 181.42" stroke="#13110C" stroke-miterlimit="10"/>
<path d="M103.17 187.09L102.9 184.12C101.93 181.66 106.7 178.91 106.7 178.91C111.45 176.91 114.53 180.99 114.53 180.99C116.53 184.66 114.53 187.83 114.53 187.83C113.45 190.51 109.67 189.4 109.67 189.4C107.06 187.65 107.78 189.86 107.78 189.86C108.78 193.07 108.45 199.8 108.45 199.8C108.7 205.62 105.55 209.47 105.55 209.47L104.86 209.55C104.86 209.55 105.65 195.42 104.96 193.41C104.96 193.42 104.8 190 103.17 187.09Z" fill="#E2C80B" stroke="#13110C" stroke-miterlimit="10"/>
<path d="M109.09 184.77C109.09 184.77 108.3 186.16 109.67 186.25C111.03 186.33 112.03 184.17 111.45 183.17C111.45 183.17 110.26 181.5 107.32 183.17C107.32 183.17 105.87 183.34 106.54 192.17C106.54 192.17 107.96 204.65 106.04 207.03" stroke="#13110C" stroke-width="0.5" stroke-miterlimit="10"/>
<path d="M108.03 185.58C108.03 185.58 108.2 188.94 112.28 187.09C112.28 187.09 114.8 182.9 111.62 180.66C111.62 180.66 106.01 179.41 105.19 183.33C105.19 183.33 105.51 188.98 105.19 190.75" stroke="#13110C" stroke-width="0.5" stroke-miterlimit="10"/>
<path d="M76.18 187.09C75.75 189.07 77.06 194.27 77.06 194.27C77.35 195.28 77.62 197.18 77.62 197.18C78.16 205.12 80.24 210.87 80.24 210.87C80.24 210.87 68.39 211.67 58.5 207.63C58.5 207.63 56.36 197.93 57.05 190.18C57.05 190.18 57.05 185.17 55.22 187.83C55.22 187.83 52.7 190.35 48.73 188.47C48.73 188.47 44.39 184.96 48.04 179.89C48.04 179.89 50.43 176.7 56.86 177.84C56.86 177.84 63.72 178.09 74.05 184.76C74.06 184.77 76.18 186.34 76.18 187.09Z" fill="#E2C80B" stroke="#13110C" stroke-miterlimit="10"/>
<path d="M53.97 185.97C53.97 185.97 53.03 188.15 50.57 187.09C48.11 186.03 48.4 183.2 49.14 182.32C49.88 181.44 52.84 178.63 55.67 180.66C58.5 182.69 58.94 186.34 59.2 188.04C59.45 189.74 60.4 196.17 60.27 197.49C60.14 198.81 61.21 207.03 61.21 207.03" stroke="#13110C" stroke-width="0.5" stroke-miterlimit="10"/>
<path d="M52.9 185.46C52.9 185.46 50.95 186.03 50.95 184.45C50.95 182.88 51.6399 181.68 52.4599 181.87C53.2799 182.06 56.36 181.7 57.81 186.64C59.26 191.57 58.6899 195.6 58.6899 195.6L59.63 206.42" stroke="#13110C" stroke-width="0.5" stroke-miterlimit="10"/>
<path d="M78.15 209.89C78.15 209.89 75.32 198.56 75.38 195.79C75.44 193.02 74.12 187.58 73.99 187.09" stroke="#13110C" stroke-width="0.5" stroke-miterlimit="10"/>
<path d="M76.07 209.89C76.07 209.89 72.26 185.52 71.05 184.51" stroke="#13110C" stroke-width="0.5" stroke-miterlimit="10"/>
<path d="M73.99 209.89C73.99 209.89 70.24 185.16 67.88 182.69" stroke="#13110C" stroke-width="0.5" stroke-miterlimit="10"/>
<path d="M71.66 209.55C71.66 209.55 67.63 184.68 65.11 181.42" stroke="#13110C" stroke-width="0.5" stroke-miterlimit="10"/>
<path d="M69.02 209.01C69.02 209.01 65.72 184.33 62.65 180.3" stroke="#13110C" stroke-width="0.5" stroke-miterlimit="10"/>
<path d="M66.75 208.49C66.75 208.49 62.97 182.52 60.64 179.9" stroke="#13110C" stroke-width="0.5" stroke-miterlimit="10"/>
<path d="M64.4899 208.13C64.4899 208.13 62.2899 183.57 58.3199 179.48" stroke="#13110C" stroke-width="0.5" stroke-miterlimit="10"/>
<path d="M62.6501 207.63C62.6501 207.63 62.16 183.13 55.8 179.48" stroke="#13110C" stroke-width="0.5" stroke-miterlimit="10"/>
<path d="M76.07 186.74C73.71 184.05 69.4 182.04 69.4 182.04C74.4 179.55 81.36 180.46 81.36 180.46C81.36 180.46 77.6 183.18 76.07 186.74Z" fill="white" stroke="#13110C" stroke-miterlimit="10"/>
<path d="M77.1 183.53C77.1 183.53 75.49 183.12 74.39 183.53" stroke="#13110C" stroke-width="0.5" stroke-miterlimit="10"/>
<path d="M78.38 181.86C78.38 181.86 75.63 181.28 72.51 182.24" stroke="#13110C" stroke-width="0.5" stroke-miterlimit="10"/>
<path d="M63.7 179.5L65.12 180.05L65.84 179.65C74.28 174.69 79.17 174.16 79.17 174.16C91.96 173.29 96.5 175.31 96.5 175.31C102.6 176.87 105.59 179.65 105.59 179.65L107 178.79C107 178.79 105.62 176.22 99.57 174.16C99.57 174.16 91.82 171.87 86.78 171.87C86.78 171.87 77.84 171.41 74.22 173.43C74.22 173.43 66.15 176.09 64.27 178.61L63.7 179.5Z" fill="white" stroke="#13110C" stroke-miterlimit="10"/>
<path d="M81.36 179.03L78.38 175.63" stroke="#211C4B" stroke-miterlimit="10"/>
<path d="M76.46 179.48L73.99 177.15" stroke="#211C4B" stroke-miterlimit="10"/>
<path d="M71.23 180.3L69.4 178.8" stroke="#211C4B" stroke-miterlimit="10"/>
<path d="M85.45 177.15L83.75 175.22" stroke="#211C4B" stroke-miterlimit="10"/>
<path d="M89.0799 175.9L88.1899 174.86" stroke="#211C4B" stroke-miterlimit="10"/>
<path d="M102.31 180.66L100.66 177.93" stroke="#211C4B" stroke-miterlimit="10"/>
<path d="M98.09 177.93L96.67 176.19" stroke="#211C4B" stroke-miterlimit="10"/>
<path d="M28.23 220.92L34.69 214.67V195.8V173.92C34.69 173.92 35.06 168.98 32.24 171.51L32.31 213.72L28.22 218.1V220.92H28.23Z" fill="#FFE922" stroke="#13110C" stroke-miterlimit="10"/>
<path d="M32.25 171.51H28.23V218.1L32.32 213.71L32.25 171.51Z" fill="#13110C" stroke="#13110C" stroke-miterlimit="10"/>
<path d="M47.39 205.17C47.39 205.17 38.58 195.82 28.24 192.36V189.96V184.78V182.93C28.23 182.92 42.49 182.54 47.39 205.17Z" fill="#FFE922" stroke="#13110C" stroke-miterlimit="10"/>
<path d="M28.23 184.77C37.68 185.75 43.28 198.13 43.28 198.13C43.28 198.13 35.18 191.99 28.23 189.95V184.77Z" fill="#E31518"/>
<path d="M32.3 201.44L28.23 204.29" stroke="#FFE922" stroke-miterlimit="10"/>
<path d="M32.29 197.21L28.23 199.81" stroke="#FFE922" stroke-miterlimit="10"/>
<path d="M32.32 177.06L28.23 179.9" stroke="#FFE922" stroke-miterlimit="10"/>
<path d="M32.25 173.16L28.23 175.63" stroke="#FFE922" stroke-miterlimit="10"/>
<path d="M35.58 169.97C35.58 169.97 38.49 167.93 35.95 166.81C35.95 166.81 38.03 164.56 34.99 164.35C34.99 164.35 37.36 161.44 34.37 161.44C34.37 161.44 35.74 159.78 33.95 159.61H28.23V171.5C28.23 171.51 34.21 171.66 35.58 169.97Z" fill="#FED68A" stroke="#13110C" stroke-miterlimit="10"/>
<path d="M34.96 173.16C34.96 173.16 37.87 172.79 37.62 171.51C37.37 170.22 36.99 169.79 35.95 169.67C35.95 169.67 35 170.78 34.27 170.78L34.96 173.16Z" fill="#FED68A" stroke="#13110C" stroke-miterlimit="10"/>
<path d="M30.28 168.49L35.96 166.81" stroke="#13110C" stroke-miterlimit="10"/>
<path d="M30.28 165.56L35 164.36" stroke="#13110C" stroke-miterlimit="10"/>
<path d="M30.24 162.41L34.37 161.44" stroke="#13110C" stroke-miterlimit="10"/>
<path d="M34.1801 159.65L34.3701 127.69H32.3101V159.43L34.1801 159.65Z" fill="#FFE922" stroke="#13110C" stroke-miterlimit="10"/>
<path d="M32.31 159.43L28.23 159.61V127.69H32.31V159.43Z" fill="#13110C" stroke="#13110C" stroke-miterlimit="10"/>
<path d="M32.3101 153.03L28.55 155.42" stroke="#FFE922" stroke-miterlimit="10"/>
<path d="M31.99 149.06L28.23 151.45" stroke="#FFE922" stroke-miterlimit="10"/>
<path d="M32.3101 139.04L28.55 141.43" stroke="#FFE922" stroke-miterlimit="10"/>
<path d="M31.99 135.07L28.23 137.46" stroke="#FFE922" stroke-miterlimit="10"/>
<path d="M147.14 190.75V187.09L141.8 180.66L142.17 127.69H140.21V183.25L147.14 190.75Z" fill="#FFE922" stroke="#13110C" stroke-miterlimit="10"/>
<path d="M146.57 166.42L142.56 168.9" stroke="#FFE922" stroke-miterlimit="10"/>
<path d="M146.42 162.59L142.4 165.06" stroke="#FFE922" stroke-miterlimit="10"/>
<path d="M146.73 149.97L142.72 152.45" stroke="#FFE922" stroke-miterlimit="10"/>
<path d="M146.58 146.14L142.57 148.61" stroke="#FFE922" stroke-miterlimit="10"/>
<path d="M146.66 133.19L142.64 135.66" stroke="#FFE922" stroke-miterlimit="10"/>
<path d="M146.5 129.35L142.49 131.82" stroke="#FFE922" stroke-miterlimit="10"/>
<path d="M146.5 180.66L143.67 182.4" stroke="#FFE922" stroke-miterlimit="10"/>
<path d="M146.35 176.82L142.33 179.29" stroke="#FFE922" stroke-miterlimit="10"/>
<path d="M129.01 172.05L129.26 171.93L140.21 166.42V156.84C140.21 156.84 131.72 166 129.13 171.99" fill="#E31518"/>
<path d="M129.01 172.05L129.26 171.93L140.21 166.42V156.84C140.21 156.84 131.72 166 129.13 171.99" stroke="#13110C" stroke-miterlimit="10"/>
<path d="M140.21 156.84V153.74C140.21 153.74 131.05 159.18 126.29 173.42L129.13 171.99C129.13 171.99 131.88 165.71 140.21 156.84Z" fill="white" stroke="#13110C" stroke-miterlimit="10"/>
<path d="M140.21 153.74C140.21 153.74 132.71 157.43 126.29 173.42L113.41 179.89L112.05 179.02C112.05 179.02 116.03 165.06 126.62 152.44C126.62 152.44 126.9 152.13 127.44 151.56C128.25 150.72 129.65 149.34 131.61 147.63C133.79 145.74 136.66 143.45 140.21 141.07V153.74Z" fill="#211C4B" stroke="#13110C" stroke-miterlimit="10"/>
<path d="M127.27 151.71L131.87 156.22H135.78V152.59L131.43 147.91" fill="#FFE922"/>
<path d="M127.27 151.71L131.87 156.22H135.78V152.59L131.43 147.91" stroke="#13110C" stroke-miterlimit="10"/>
<path d="M132.16 153.22C132.16 152.62 132.65 152.13 133.25 152.13C133.85 152.13 134.34 152.62 134.34 153.22C134.34 153.82 133.85 154.31 133.25 154.31C132.65 154.31 132.16 153.82 132.16 153.22Z" fill="#211C4B"/>
<path d="M123.72 156.23L128.78 160.2L132.68 159.77L132.27 156.16L127.26 151.96" fill="#FFE922"/>
<path d="M123.72 156.23L128.78 160.2L132.68 159.77L132.27 156.16L127.26 151.96" stroke="#13110C" stroke-miterlimit="10"/>
<path d="M128.2 157.61C128.18 157.01 128.66 156.5 129.26 156.49C129.86 156.47 130.37 156.95 130.38 157.55C130.4 158.15 129.92 158.66 129.32 158.67C128.72 158.69 128.21 158.21 128.2 157.61Z" fill="#211C4B"/>
<path d="M120.2 161.17L125.47 164.88L129.34 164.25L128.75 160.67L123.53 156.72" fill="#FFE922"/>
<path d="M120.2 161.17L125.47 164.88L129.34 164.25L128.75 160.67L123.53 156.72" stroke="#13110C" stroke-miterlimit="10"/>
<path d="M124.67 162.34C124.65 161.74 125.13 161.23 125.73 161.22C126.33 161.2 126.84 161.68 126.85 162.28C126.87 162.88 126.39 163.39 125.79 163.4C125.19 163.42 124.69 162.94 124.67 162.34Z" fill="#211C4B"/>
<path d="M120.03 162.22L125.52 165.79L126.35 169.32L122.54 170.22L117.03 166.9L122.37 170.22L122.05 174.64L118.16 176.32L113.91 173.83" fill="#FFE922"/>
<path d="M120.03 162.22L125.52 165.79L126.35 169.32L122.54 170.22L117.03 166.9L122.37 170.22L122.05 174.64L118.16 176.32L113.91 173.83" stroke="#13110C" stroke-miterlimit="10"/>
<path d="M121.65 167.73C121.56 167.13 121.97 166.58 122.57 166.49C123.17 166.4 123.72 166.81 123.81 167.41C123.9 168.01 123.49 168.56 122.89 168.65C122.29 168.73 121.74 168.32 121.65 167.73Z" fill="#211C4B"/>
<path d="M117.8 172.82C117.71 172.22 118.12 171.67 118.72 171.58C119.32 171.49 119.87 171.9 119.96 172.5C120.05 173.1 119.64 173.65 119.04 173.74C118.45 173.83 117.9 173.42 117.8 172.82Z" fill="#211C4B"/>
<path d="M131.75 147.95L135.99 152.07H139.61V148.76L135.59 144.48" fill="#FFE922"/>
<path d="M131.75 147.95L135.99 152.07H139.61V148.76L135.59 144.48" stroke="#13110C" stroke-miterlimit="10"/>
<path d="M136.26 149.32C136.26 148.77 136.71 148.32 137.27 148.32C137.83 148.32 138.28 148.77 138.28 149.32C138.28 149.87 137.83 150.32 137.27 150.32C136.71 150.32 136.26 149.88 136.26 149.32Z" fill="#211C4B"/>
<path d="M83.49 165.12C80.49 166.83 80.82 169.62 80.82 169.62C80.82 171.95 79.03 171.08 79.03 171.08C78.95 162.96 84.6 163.44 84.6 163.44C90.13 163.33 89.61 171.08 89.61 171.08C89.61 171.08 88 171.62 88 170.45C88 170.45 87.92 165.07 84.88 165.07L83.49 165.12Z" fill="#FFE922"/>
<path d="M70.67 167.84C68.6 170.61 70.02 173.03 70.02 173.03C70.95 175.17 68.96 175.09 68.96 175.09C65.64 167.68 71.01 165.86 71.01 165.86C76.04 163.55 78.65 170.86 78.65 170.86C78.65 170.86 77.38 172 76.92 170.93C76.92 170.93 74.7 166.04 71.91 167.25L70.67 167.84Z" fill="#FFE922"/>
<path d="M95.76 166.4C92.44 167.34 92.09 170.13 92.09 170.13C91.53 172.4 90 171.12 90 171.12C91.87 163.22 97.24 165.04 97.24 165.04C102.64 166.25 100.27 173.66 100.27 173.66C100.27 173.66 98.57 173.79 98.85 172.66C98.85 172.66 100.06 167.42 97.1 166.69L95.76 166.4Z" fill="#FFE922"/>
<path d="M107.26 170.71C103.82 170.99 102.94 173.66 102.94 173.66C101.95 175.78 100.7 174.23 100.7 174.23C104.06 166.84 108.97 169.66 108.97 169.66C114.03 171.9 110.28 178.7 110.28 178.7C110.28 178.7 108.59 178.5 109.08 177.44C109.08 177.44 111.28 172.53 108.52 171.25L107.26 170.71Z" fill="#FFE922"/>
<path d="M107.95 174.07C107.95 172.91 108.23 171.96 108.57 171.96C108.91 171.96 109.18 172.9 109.18 174.07C109.18 175.23 108.9 176.18 108.57 176.18C108.22 176.18 107.95 175.23 107.95 174.07Z" fill="#FFE922"/>
<path d="M105.23 172.15C106.19 171.49 107.12 171.18 107.32 171.46C107.51 171.74 106.89 172.5 105.93 173.16C104.97 173.82 104.04 174.13 103.84 173.85C103.65 173.57 104.27 172.81 105.23 172.15Z" fill="#FFE922"/>
<path d="M97.1899 169.57C97.1899 168.41 97.4699 167.46 97.8099 167.46C98.1499 167.46 98.4199 168.41 98.4199 169.57C98.4199 170.73 98.1399 171.68 97.8099 171.68C97.4699 171.68 97.1899 170.73 97.1899 169.57Z" fill="#FFE922"/>
<path d="M94.48 167.65C95.44 166.99 96.37 166.68 96.57 166.96C96.76 167.24 96.14 168 95.18 168.66C94.22 169.32 93.29 169.63 93.09 169.35C92.9 169.07 93.52 168.31 94.48 167.65Z" fill="#FFE922"/>
<path d="M85.55 167.8C85.12 166.72 85.02 165.74 85.34 165.61C85.65 165.48 86.26 166.26 86.7 167.34C87.13 168.42 87.23 169.4 86.92 169.53C86.59 169.65 85.99 168.88 85.55 167.8Z" fill="#FFE922"/>
<path d="M82.32 167.03C82.96 166.06 83.72 165.43 84 165.61C84.28 165.8 83.99 166.74 83.34 167.71C82.7 168.68 81.94 169.31 81.66 169.13C81.38 168.95 81.68 168 82.32 167.03Z" fill="#FFE922"/>
<path d="M73.81 169.6C72.88 168.9 72.29 168.11 72.5 167.84C72.7 167.57 73.62 167.92 74.55 168.62C75.48 169.32 76.07 170.11 75.86 170.38C75.66 170.65 74.74 170.3 73.81 169.6Z" fill="#FFE922"/>
<path d="M70.65 170.61C70.7 169.45 71.02 168.52 71.36 168.53C71.7 168.55 71.93 169.5 71.88 170.66C71.83 171.82 71.51 172.75 71.17 172.74C70.83 172.73 70.6 171.77 70.65 170.61Z" fill="#FFE922"/>
<path d="M63.19 174.99C62.26 174.29 61.67 173.5 61.88 173.23C62.08 172.96 63 173.31 63.93 174.01C64.86 174.71 65.45 175.5 65.24 175.77C65.04 176.04 64.12 175.69 63.19 174.99Z" fill="#FFE922"/>
<path d="M60.02 176C60.07 174.84 60.39 173.91 60.73 173.92C61.07 173.94 61.3 174.89 61.25 176.05C61.2 177.21 60.88 178.14 60.54 178.13C60.2 178.12 59.97 177.16 60.02 176Z" fill="#FFE922"/>
<path d="M104.6 169.31C105.031 169.31 105.38 168.961 105.38 168.53C105.38 168.099 105.031 167.75 104.6 167.75C104.169 167.75 103.82 168.099 103.82 168.53C103.82 168.961 104.169 169.31 104.6 169.31Z" fill="#FFE922"/>
<path d="M101.2 167.56C101.2 167.13 101.55 166.77 101.98 166.77C102.41 166.77 102.76 167.12 102.76 167.56C102.76 167.99 102.41 168.34 101.98 168.34C101.55 168.35 101.2 168 101.2 167.56Z" fill="#FFE922"/>
<path d="M91.27 165.29C91.21 164.86 91.51 164.47 91.94 164.41C92.37 164.35 92.76 164.65 92.82 165.08C92.88 165.51 92.58 165.9 92.15 165.96C91.72 166.02 91.33 165.72 91.27 165.29Z" fill="#FFE922"/>
<path d="M88.55 164.68C88.49 164.25 88.79 163.86 89.22 163.8C89.65 163.74 90.04 164.04 90.1 164.47C90.16 164.9 89.86 165.29 89.43 165.35C89 165.41 88.61 165.11 88.55 164.68Z" fill="#FFE922"/>
<path d="M78.15 165.45C78 165.05 78.2 164.59 78.6 164.44C79 164.29 79.46 164.49 79.61 164.9C79.76 165.3 79.56 165.76 79.16 165.91C78.76 166.06 78.31 165.86 78.15 165.45Z" fill="#FFE922"/>
<path d="M75.37 165.47C75.22 165.07 75.42 164.61 75.82 164.46C76.23 164.31 76.68 164.51 76.83 164.92C76.98 165.33 76.78 165.78 76.38 165.93C75.97 166.08 75.52 165.88 75.37 165.47Z" fill="#FFE922"/>
<path d="M66.55 169.07C66.24 168.77 66.23 168.27 66.53 167.96C66.83 167.65 67.33 167.64 67.64 167.94C67.95 168.24 67.96 168.74 67.66 169.05C67.35 169.37 66.86 169.37 66.55 169.07Z" fill="#FFE922"/>
<path d="M64.03 170.27C63.72 169.97 63.71 169.47 64.01 169.16C64.31 168.85 64.81 168.84 65.12 169.14C65.43 169.44 65.44 169.94 65.14 170.25C64.84 170.57 64.34 170.57 64.03 170.27Z" fill="#FFE922"/>
<path d="M55.53 176.5C55.22 176.2 55.21 175.7 55.51 175.39C55.81 175.08 56.31 175.07 56.62 175.38C56.93 175.68 56.94 176.18 56.64 176.49C56.34 176.8 55.84 176.8 55.53 176.5Z" fill="#FFE922"/>
<path d="M112.05 172.75C112.05 172.32 112.4 171.96 112.83 171.96C113.26 171.96 113.61 172.31 113.61 172.75C113.61 173.18 113.26 173.53 112.83 173.53C112.4 173.53 112.05 173.18 112.05 172.75Z" fill="#FFE922"/>
<path d="M86.89 163.06C86.89 163.06 78.17 162.71 72.52 164.68C72.52 164.68 68.74 165.92 67.66 166.46C55 172.86 53.06 177.65 53.06 177.65L50.26 178.35L49.12 177.32C51.87 172.57 65.84 164.57 65.84 164.57C76.14 158.82 90.69 160.79 90.69 160.79C108.51 164.43 115.43 170.23 115.43 170.23L114.38 172.28C114.38 172.28 103.86 165.18 95.41 164.11C95.4 164.13 87.8 163.08 86.89 163.06Z" fill="white" stroke="#13110C" stroke-miterlimit="10"/>
<path d="M114.7 169.71L96.6 134.83L101.98 127.69H97.38L81.36 150.32L71.66 135.66L76.88 127.69H72.46L69.4 132.83L67.09 130.16C67.09 130.16 66.66 134.24 66.31 134.83L69.41 138.41L64.49 145.83C64.49 145.83 62.56 153.16 61.22 155L71.24 142.33L78.89 153.22L72.47 161.96C72.47 161.96 76.74 161.05 77.62 160.94L94.44 137.91L110.16 167.09C110.15 167.09 114.11 169.31 114.7 169.71Z" fill="#FFE922" stroke="#13110C" stroke-miterlimit="10"/>
<path d="M98.97 146.34L96.44 141.64L95.4 161.87L97.81 162.51L98.97 146.34Z" fill="#FFE922" stroke="#13110C" stroke-miterlimit="10"/>
<path d="M90.01 160.72L90.42 143.39L87.96 146.78L87.09 160.47L90.01 160.72Z" fill="#FFE922" stroke="#13110C" stroke-miterlimit="10"/>
<path d="M95.4 161.87L90.01 160.72L90.42 143.39L94.43 137.91L96.44 141.64L95.4 161.87Z" fill="white" stroke="#13110C" stroke-miterlimit="10"/>
<path d="M91.73 158.26C91.73 157.65 92.22 157.16 92.83 157.16C93.43 157.16 93.92 157.65 93.92 158.26C93.92 158.87 93.43 159.36 92.83 159.36C92.22 159.36 91.73 158.87 91.73 158.26Z" fill="#211C4B"/>
<path d="M91.96 154.92C91.96 154.31 92.45 153.82 93.06 153.82C93.66 153.82 94.15 154.31 94.15 154.92C94.15 155.53 93.66 156.02 93.06 156.02C92.45 156.01 91.96 155.52 91.96 154.92Z" fill="#211C4B"/>
<path d="M92.13 151.26C92.13 150.65 92.62 150.16 93.23 150.16C93.83 150.16 94.32 150.65 94.32 151.26C94.32 151.87 93.83 152.36 93.23 152.36C92.62 152.36 92.13 151.87 92.13 151.26Z" fill="#211C4B"/>
<path d="M92.38 147.09C92.38 146.48 92.87 145.99 93.48 145.99C94.08 145.99 94.57 146.48 94.57 147.09C94.57 147.7 94.08 148.19 93.48 148.19C92.87 148.18 92.38 147.69 92.38 147.09Z" fill="#211C4B"/>
<path d="M92.64 143.39C92.64 142.78 93.13 142.29 93.74 142.29C94.34 142.29 94.83 142.78 94.83 143.39C94.83 144 94.34 144.49 93.74 144.49C93.13 144.49 92.64 144 92.64 143.39Z" fill="#211C4B"/>
<path d="M106.65 162.22C106.65 162.22 103.82 160.19 98.97 158.99" stroke="#FFE922" stroke-miterlimit="10"/>
<path d="M103.21 156.72L99.35 154.92" stroke="#FFE922" stroke-miterlimit="10"/>
<path d="M101.2 152.06L99.35 151.26" stroke="#FFE922" stroke-miterlimit="10"/>
<path d="M86.46 157.48H81.14" stroke="#FFE922" stroke-miterlimit="10"/>
<path d="M86.82 153.52H84.11" stroke="#FFE922" stroke-miterlimit="10"/>
<path d="M87.09 150.17H86.46" stroke="#FFE922" stroke-miterlimit="10"/>
<path d="M42.26 173.66C48.76 169.74 57.65 149.89 57.65 149.89C61.81 138.89 61.83 127.69 61.83 127.69H67.09C67.09 127.69 66.6 149.38 56.07 163.44C56.07 163.44 51.24 170.54 46.19 176.03L42.26 173.66Z" fill="#211C4B" stroke="#13110C" stroke-miterlimit="10"/>
<path d="M44.8 173.14C44.8 172.53 45.2901 172.04 45.9001 172.04C46.5001 172.04 46.9901 172.53 46.9901 173.14C46.9901 173.75 46.5001 174.24 45.9001 174.24C45.2901 174.23 44.8 173.74 44.8 173.14Z" fill="white"/>
<path d="M50.29 166.78C50.29 166.17 50.78 165.68 51.39 165.68C51.99 165.68 52.48 166.17 52.48 166.78C52.48 167.39 51.99 167.88 51.39 167.88C50.78 167.88 50.29 167.38 50.29 166.78Z" fill="white"/>
<path d="M54.2 160.04C54.2 159.43 54.6899 158.94 55.2999 158.94C55.8999 158.94 56.3899 159.43 56.3899 160.04C56.3899 160.65 55.8999 161.14 55.2999 161.14C54.6899 161.14 54.2 160.65 54.2 160.04Z" fill="white"/>
<path d="M57.8199 153.52C57.8199 152.91 58.3099 152.42 58.9199 152.42C59.5199 152.42 60.0099 152.91 60.0099 153.52C60.0099 154.13 59.5199 154.62 58.9199 154.62C58.3199 154.61 57.8199 154.12 57.8199 153.52Z" fill="white"/>
<path d="M60.74 145.25C60.74 144.64 61.23 144.15 61.84 144.15C62.44 144.15 62.93 144.64 62.93 145.25C62.93 145.86 62.44 146.35 61.84 146.35C61.23 146.34 60.74 145.85 60.74 145.25Z" fill="white"/>
<path d="M62.46 137.91C62.46 137.3 62.95 136.81 63.56 136.81C64.16 136.81 64.65 137.3 64.65 137.91C64.65 138.52 64.16 139.01 63.56 139.01C62.95 139.01 62.46 138.52 62.46 137.91Z" fill="white"/>
<path d="M63.48 130.37C63.48 129.76 63.97 129.27 64.58 129.27C65.18 129.27 65.67 129.76 65.67 130.37C65.67 130.98 65.18 131.47 64.58 131.47C63.97 131.46 63.48 130.97 63.48 130.37Z" fill="white"/>
<path d="M72.4599 161.96L78.8799 153.22L71.2299 142.33L61.2099 155C61.2099 155 55.0199 167.02 46.1899 176.03L49.1099 177.33C49.1099 177.33 53.1699 171.73 65.2799 165.37C67.4199 164.24 69.7999 163.1 72.4599 161.96Z" fill="#E31518" stroke="#13110C" stroke-miterlimit="10"/>
<path d="M75.23 153.52L65.84 164.58C65.84 164.58 56.14 169.62 49.12 177.33L71.05 147.65L75.23 153.52Z" fill="#13110C" stroke="#13110C" stroke-miterlimit="10"/>
<path d="M72.83 153.03L63.02 164.86" stroke="white" stroke-width="0.5" stroke-miterlimit="10"/>
<path d="M71.26 151.27L57.65 168.53" stroke="white" stroke-width="0.5" stroke-miterlimit="10"/>
<path d="M97.38 127.69L81.36 150.32L71.66 135.66L76.88 127.69H97.38Z" fill="#E31518" stroke="#13110C" stroke-miterlimit="10"/>
<path d="M93.05 127.69L81.04 143.39L75.23 135.08L81.17 127.69H90.72H93.05Z" fill="#13110C" stroke="#13110C" stroke-miterlimit="10"/>
<path d="M90.72 127.69L81.47 140.1L77.61 135.54L84.11 127.69H86.1L80.28 135.29L81.85 136.81L88.41 127.69H90.72Z" fill="white" stroke="#13110C" stroke-miterlimit="10"/>
<path d="M72.46 127.69L69.4 132.83L67.09 130.16V127.69H72.46Z" fill="#E31518" stroke="#13110C" stroke-miterlimit="10"/>
<path d="M69.4 138.41L66.42 134.97C66.42 134.97 64.09 146.29 64.14 146.1C64.2 145.9 69.4 138.41 69.4 138.41Z" fill="#E31518" stroke="#13110C" stroke-miterlimit="10"/>
<path d="M61.83 127.69H57.3H53.05C53.05 127.69 52.49 139.73 48.05 147.65C48.05 147.65 43.03 159.95 36.98 167.58L34.98 170.45L42.24 173.66C42.24 173.66 46.78 170.93 52.76 159.62C52.76 159.62 57.87 150.7 59.17 145.25C59.17 145.25 60.61 141.2 61.55 131.47C61.64 130.59 61.72 129.65 61.79 128.67L61.83 127.69Z" fill="#E31518" stroke="#13110C" stroke-miterlimit="10"/>
<path d="M54.2 127.69L61.2099 133.33L61.57 131.46L61.2099 131.19L57.2999 127.69H54.2Z" fill="#FFE922" stroke="#13110C" stroke-miterlimit="10"/>
<path d="M61.8301 127.69L61.57 131.46L57.3 127.69H61.8301Z" fill="white" stroke="#13110C" stroke-miterlimit="10"/>
<path d="M61.2099 133.33V135.37L54.2 138.45V139.04L59.18 145.25L58.63 147.09L51.2 139.44L51.6699 137.46L61.2099 133.33Z" fill="#FFE922" stroke="#13110C" stroke-miterlimit="10"/>
<path d="M58.45 147.65L47.09 149.89L46.47 151.27L51.93 161.14L53.06 159.12L49.12 152.06L49.3 151.27L57.88 149.17L58.63 147.09" fill="#FFE922"/>
<path d="M58.45 147.65L47.09 149.89L46.47 151.27L51.93 161.14L53.06 159.12L49.12 152.06L49.3 151.27L57.88 149.17L58.63 147.09" stroke="#13110C" stroke-miterlimit="10"/>
<path d="M51.7499 161.44L50.8799 163.01L43.1799 163.44L41.9499 164.86L44.1699 172.04L42.2599 173.66L39.6899 163.79L41.1499 161.44L51.9299 161.14" fill="#FFE922"/>
<path d="M51.7499 161.44L50.8799 163.01L43.1799 163.44L41.9499 164.86L44.1699 172.04L42.2599 173.66L39.6899 163.79L41.1499 161.44L51.9299 161.14" stroke="#13110C" stroke-miterlimit="10"/>
<path d="M50.88 163.01L45.24 163.32L47.69 167.88L42.72 167.34L44.17 172.04" fill="white"/>
<path d="M57.88 149.17L52.48 150.67L54.68 154.01H50.29L53.06 159.12" fill="white"/>
<path d="M61.1 135.54L56.86 137.46L59.57 139.82L56.08 141.38L59.18 145.25" fill="white"/>
<path d="M56.86 137.46L59.57 139.82L56.08 141.38L54.2 139.04V138.45L56.86 137.46Z" fill="#211C4B"/>
<path d="M54.68 154.01L52.48 150.67L49.3 151.27L49.12 152.06L50.29 154.01" fill="#211C4B"/>
<path d="M47.6899 167.88L45.24 163.32L43.18 163.44L41.95 164.86L42.72 167.34L47.6899 167.88Z" fill="#211C4B"/>
<path d="M45.89 158.16C45.89 157.66 46.29 157.26 46.79 157.26C47.29 157.26 47.69 157.66 47.69 158.16C47.69 158.66 47.29 159.06 46.79 159.06C46.3 159.06 45.89 158.66 45.89 158.16Z" fill="white"/>
<path d="M51.64 145.48C51.64 145.02 52.02 144.64 52.48 144.64C52.94 144.64 53.32 145.02 53.32 145.48C53.32 145.94 52.94 146.32 52.48 146.32C52.01 146.32 51.64 145.94 51.64 145.48Z" fill="white"/>
<path d="M54.6 132.83C54.6 132.26 55.06 131.8 55.63 131.8C56.2 131.8 56.66 132.26 56.66 132.83C56.66 133.4 56.2 133.86 55.63 133.86C55.06 133.85 54.6 133.39 54.6 132.83Z" fill="white"/>
<path d="M36.99 169.71C36.99 169.21 37.39 168.81 37.89 168.81C38.39 168.81 38.79 169.21 38.79 169.71C38.79 170.21 38.39 170.61 37.89 170.61C37.4 170.61 36.99 170.21 36.99 169.71Z" fill="white"/>
<path d="M43.63 127.69H34.37L34.27 154.82C34.27 154.82 40.36 147.72 43.63 127.69Z" fill="#E31518" stroke="#13110C" stroke-miterlimit="10"/>
<path d="M35.55 129.58H41.6" stroke="#942830" stroke-miterlimit="10"/>
<path d="M35.97 131.8H41.18" stroke="#942830" stroke-miterlimit="10"/>
<path d="M35.75 133.85H40.95" stroke="#942830" stroke-miterlimit="10"/>
<path d="M35.75 136.27H40.56" stroke="#942830" stroke-miterlimit="10"/>
<path d="M35.52 138.7H39.86" stroke="#942830" stroke-miterlimit="10"/>
<path d="M35.52 140.53H38.95" stroke="#942830" stroke-miterlimit="10"/>
<path d="M35.45 142.76H38.5299" stroke="#942830" stroke-miterlimit="10"/>
<path d="M35.72 144.64H37.69" stroke="#942830" stroke-miterlimit="10"/>
<path d="M35.51 146.71H37.24" stroke="#942830" stroke-miterlimit="10"/>
<path d="M35.54 148.7H36.4" stroke="#942830" stroke-miterlimit="10"/>
<path d="M107.35 127.69C106.79 130.52 107.35 140.53 107.35 140.53C108.06 153.37 115.42 170.24 115.42 170.24L117.78 165.6C117.78 165.6 114.7 155.95 113.62 146.1C113.62 146.1 112.04 134.42 112.45 127.69H107.35Z" fill="#211C4B" stroke="#13110C" stroke-miterlimit="10"/>
<path d="M113.6 162.49C113.6 161.88 114.09 161.39 114.7 161.39C115.3 161.39 115.79 161.88 115.79 162.49C115.79 163.1 115.3 163.59 114.7 163.59C114.09 163.58 113.6 163.09 113.6 162.49Z" fill="white"/>
<path d="M111.72 154.92C111.72 154.31 112.21 153.82 112.82 153.82C113.42 153.82 113.91 154.31 113.91 154.92C113.91 155.53 113.42 156.02 112.82 156.02C112.21 156.01 111.72 155.52 111.72 154.92Z" fill="white"/>
<path d="M110.52 147.65C110.52 147.04 111.01 146.55 111.62 146.55C112.22 146.55 112.71 147.04 112.71 147.65C112.71 148.26 112.22 148.75 111.62 148.75C111.01 148.74 110.52 148.25 110.52 147.65Z" fill="white"/>
<path d="M109.58 140.13C109.58 139.52 110.07 139.03 110.68 139.03C111.28 139.03 111.77 139.52 111.77 140.13C111.77 140.74 111.28 141.23 110.68 141.23C110.07 141.23 109.58 140.74 109.58 140.13Z" fill="white"/>
<path d="M109.05 132.56C109.05 131.95 109.54 131.46 110.15 131.46C110.75 131.46 111.24 131.95 111.24 132.56C111.24 133.17 110.75 133.66 110.15 133.66C109.54 133.66 109.05 133.17 109.05 132.56Z" fill="white"/>
<path d="M114.29 168.93L96.6 134.83L101.8 127.94L107.36 127.69C107.36 127.69 106.31 135.36 108.18 147.1C109.17 153.39 111.01 160.85 114.29 168.93Z" fill="#E31518" stroke="#13110C" stroke-miterlimit="10"/>
<path d="M107.95 146.55L101.2 134.97L104.6 129.28L107.11 132.57C107.1 132.56 107.2 145.22 107.95 146.55Z" fill="#13110C" stroke="#13110C" stroke-miterlimit="10"/>
<path d="M104.09 134.97C104.09 134.36 104.58 133.87 105.19 133.87C105.79 133.87 106.28 134.36 106.28 134.97C106.28 135.58 105.79 136.07 105.19 136.07C104.58 136.06 104.09 135.57 104.09 134.97Z" fill="white"/>
<path d="M140.21 127.69H130.69V148.18C130.69 148.18 136.12 143.51 140.21 141.07V127.69Z" fill="#E31518" stroke="#13110C" stroke-miterlimit="10"/>
<path d="M131.88 129.35H139.01" stroke="#942830" stroke-miterlimit="10"/>
<path d="M131.67 131.46H138.8" stroke="#942830" stroke-miterlimit="10"/>
<path d="M131.77 133.54H138.91" stroke="#942830" stroke-miterlimit="10"/>
<path d="M131.56 135.66H138.69" stroke="#942830" stroke-miterlimit="10"/>
<path d="M131.56 137.39H138.69" stroke="#942830" stroke-miterlimit="10"/>
<path d="M131.34 139.51H138.48" stroke="#942830" stroke-miterlimit="10"/>
<path d="M131.88 141.46H137.82" stroke="#942830" stroke-miterlimit="10"/>
<path d="M131.31 143.36H135.18" stroke="#942830" stroke-miterlimit="10"/>
<path d="M130.68 148.18L129.73 149.32C129.73 149.32 126.28 138.63 128.53 127.69H130.68V148.18Z" fill="#211C4B" stroke="#13110C" stroke-miterlimit="10"/>
<path d="M129.73 149.32L126.91 151.8L126.85 151.85C126.85 151.85 123.17 141.04 124.76 127.68H128.52C128.53 127.69 126.45 140.26 129.73 149.32Z" fill="#FFE922" stroke="#13110C" stroke-miterlimit="10"/>
<path d="M126.92 151.81L123.72 155.82C123.72 155.82 119.99 137.88 121.64 127.69H124.78C124.77 127.69 123.22 140.53 126.92 151.81Z" fill="#211C4B" stroke="#13110C" stroke-miterlimit="10"/>
<path d="M123.72 155.82C123.72 155.82 118.95 161.21 117.79 165.6C117.79 165.6 113.08 149.7 113.1 141.64C113.1 141.64 111.94 129.89 112.45 127.69H121.64C121.63 127.69 120.23 142.23 123.72 155.82Z" fill="#E31518" stroke="#13110C" stroke-miterlimit="10"/>
<path d="M123.35 154.31L123.72 155.82L122.6 157.17L114.77 153.52L114.37 151.36L123.35 154.31Z" fill="#FFE922" stroke="#13110C" stroke-miterlimit="10"/>
<path d="M114.37 150.67L121.63 144.15L121.61 142.3L112.66 136.81L112.88 139.42L119.53 142.66L119.45 144.15L114.02 149.17L114.37 150.67Z" fill="#FFE922" stroke="#13110C" stroke-miterlimit="10"/>
<path d="M112.71 136.06L112.31 134.42L119.04 129.91V128.83L117.41 127.69H121.63L121.45 130.59L112.71 136.06Z" fill="#FFE922" stroke="#13110C" stroke-miterlimit="10"/>
<path d="M117.79 164.58L120.13 160.64L116.21 159.83L119.98 156.22L114.77 153.52" fill="white"/>
<path d="M114.29 148.33L117.41 145.25L113.62 143.74L116.62 141.76L112.95 140.1L114.29 148.33Z" fill="white"/>
<path d="M112.66 133.66L116.2 131.46L112.83 129.58L116.2 127.99H112.83" fill="white"/>
<path d="M119.98 156.22L122.36 157.48L120.13 160.64L116.21 159.83" fill="#211C4B"/>
<path d="M117.41 145.25L113.62 143.74L116.62 141.76L119.29 142.54L119.45 144.15L117.41 145.25Z" fill="#211C4B"/>
<path d="M119.04 128.83V129.91L116.2 131.46L112.83 129.58L116.2 127.99L119.04 128.83Z" fill="#211C4B"/>
<path d="M119.36 149.89C119.36 149.43 119.74 149.05 120.2 149.05C120.66 149.05 121.04 149.43 121.04 149.89C121.04 150.35 120.66 150.73 120.2 150.73C119.74 150.73 119.36 150.36 119.36 149.89Z" fill="white"/>
<path d="M118.04 136.06C118.04 135.6 118.42 135.22 118.88 135.22C119.34 135.22 119.72 135.6 119.72 136.06C119.72 136.52 119.34 136.9 118.88 136.9C118.42 136.9 118.04 136.53 118.04 136.06Z" fill="white"/>
<path d="M7.93994 38.5899L14.9299 47.4299L22.0199 38.5899L14.9799 29.8599L7.93994 38.5899Z" fill="#E30B13"/>
<path d="M154.11 215.92L161.11 224.76L168.2 215.92L161.16 207.19L154.11 215.92Z" fill="#E30B13"/>
<path d="M38.3101 54.7898L47.3301 66.1798L56.4601 54.7898L47.3901 43.5498L38.3101 54.7898Z" fill="#E30B13"/>
<path d="M117.84 199.73L126.86 211.13L135.99 199.73L126.92 188.49L117.84 199.73Z" fill="#E30B13"/>
</svg>
