<svg width="180" height="254" viewBox="0 0 180 254" fill="none" xmlns="http://www.w3.org/2000/svg">
<rect x="0.5" y="0.5" width="179" height="253" rx="14.5" fill="white" stroke="#1D1D1B"/>
<path d="M146.07 32.4399H28.8199V223.69H146.07V32.4399Z" fill="white" stroke="#13110C" stroke-miterlimit="10"/>
<path d="M28.8199 111.88V128.07H146.07V90.2298C132.63 87.1198 125.92 78.0598 125.92 78.0598L75.0699 74.7998L28.8199 111.88L44.2699 99.4898L28.8199 111.88Z" fill="#211C4B"/>
<path d="M28.8199 111.88V128.07H146.07V90.2298C132.63 87.1198 125.92 78.0598 125.92 78.0598L75.0699 74.7998L28.8199 111.88ZM28.8199 111.88L44.2699 99.4898" stroke="#211C4B" stroke-miterlimit="10"/>
<path d="M133.86 102.41C133.86 102.41 139.93 98.5501 141.65 100.21C141.65 100.21 144.52 103 136.46 107.01" fill="white"/>
<path d="M133.86 102.41C133.86 102.41 139.93 98.5501 141.65 100.21C141.65 100.21 144.52 103 136.46 107.01" stroke="#13110C" stroke-miterlimit="10"/>
<path d="M140.56 102.69C140.49 103 140.08 103.17 139.66 103.08C139.23 102.98 138.94 102.65 139.01 102.34L139.09 101.97C139.16 101.66 139.57 101.49 140 101.58C140.43 101.68 140.72 102.01 140.65 102.32L140.56 102.69Z" stroke="#13110C" stroke-width="0.5" stroke-miterlimit="10"/>
<path d="M137.74 106.82C137.47 106.99 137.39 107.35 137.56 107.63C137.73 107.9 138.1 107.98 138.37 107.81L143.58 104.49C143.85 104.32 143.93 103.95 143.76 103.68C143.59 103.41 143.23 103.33 142.95 103.5L137.74 106.82Z" fill="white" stroke="#13110C" stroke-miterlimit="10"/>
<path d="M37.0601 128.06H39.8401H47.7601C47.7601 128.06 53.7101 117.99 54.8301 112.71C54.8301 112.71 57.4701 95.48 56.4001 89.77L47.7601 96.7C47.7501 96.7 47.5401 115.81 37.0601 128.06Z" fill="#FFEA24" stroke="#13110C" stroke-miterlimit="10"/>
<path d="M44.15 124.69H42V126.84H44.15V124.69Z" fill="#211C4B" stroke="#211C4B" stroke-miterlimit="10"/>
<path d="M47.86 121.14H45.71V123.29H47.86V121.14Z" fill="#211C4B" stroke="#211C4B" stroke-miterlimit="10"/>
<path d="M48.93 116.03H46.78V118.18H48.93V116.03Z" fill="#211C4B" stroke="#211C4B" stroke-miterlimit="10"/>
<path d="M51.0801 111.64H48.9301V113.79H51.0801V111.64Z" fill="#211C4B" stroke="#211C4B" stroke-miterlimit="10"/>
<path d="M51.0801 106.14H48.9301V108.29H51.0801V106.14Z" fill="#211C4B" stroke="#211C4B" stroke-miterlimit="10"/>
<path d="M53.02 101.82H50.87V103.97H53.02V101.82Z" fill="#211C4B" stroke="#211C4B" stroke-miterlimit="10"/>
<path d="M51.9501 96.3198H49.8V98.4698H51.9501V96.3198Z" fill="#211C4B" stroke="#211C4B" stroke-miterlimit="10"/>
<path d="M28.8199 111.88L44.2699 99.4902C45.7199 111.8 36.4399 123.17 33.0899 126.84C32.3599 127.63 31.9099 128.07 31.9099 128.07H28.8199V111.88Z" fill="#E30613" stroke="#13110C" stroke-miterlimit="10"/>
<path d="M48.82 95.8402C48.82 95.8402 46.42 85.9402 41.02 85.6802C41.02 85.6802 32.3 87.9502 36.18 89.8602C36.18 89.8602 41.06 90.8602 41.32 94.3502C41.32 94.3502 40.48 98.3402 41.1 99.9302C41.72 101.52 41.56 101.65 41.56 101.65" fill="#FCD48E"/>
<path d="M48.82 95.8402C48.82 95.8402 46.42 85.9402 41.02 85.6802C41.02 85.6802 32.3 87.9502 36.18 89.8602C36.18 89.8602 41.06 90.8602 41.32 94.3502C41.32 94.3502 40.48 98.3402 41.1 99.9302C41.72 101.52 41.56 101.65 41.56 101.65" stroke="#13110C" stroke-width="0.6" stroke-miterlimit="10"/>
<path d="M33.74 99.7199C33.74 99.7199 38.96 103.19 40.05 102.87C41.15 102.55 42.96 100.54 42.96 100.54C42.96 100.54 42.37 90.0799 40.45 89.5199C38.53 88.9499 35.57 89.9599 34.9 91.5699C34.22 93.1799 32.73 97.4499 32.89 97.9299C33.04 98.4099 33.74 99.7199 33.74 99.7199Z" fill="#1E1A2B"/>
<path d="M81.7 114.91C81.7 114.91 87.01 119 95.59 114.91C95.59 114.91 118.04 83.4702 118.38 82.6902C118.72 81.9102 118.16 74.6802 111.25 81.3002C104.34 87.9202 79.86 89.4302 77.61 86.7502C75.35 84.0802 71.68 79.8402 71.26 80.1602C70.84 80.4802 68.7 79.9102 68.7 79.9102L64.89 82.9602L68 87.8402C68 87.8402 77.19 102.8 78.95 108.19C80.7 113.57 81.7 114.91 81.7 114.91Z" fill="#FFEA24" stroke="#13110C" stroke-miterlimit="10"/>
<path d="M127.34 84.2501C127.34 84.2501 109.36 98.1401 102.06 117.2L92.86 116.12C92.86 116.12 98.73 97.8201 119.54 78.6001L120.74 77.8701L127.34 84.2501Z" fill="white" stroke="#13110C" stroke-miterlimit="10"/>
<path d="M74.84 74.9802L68.67 79.9302C68.71 80.0502 68.73 80.1302 68.74 80.1602C69.03 81.3102 70.95 86.1102 82.91 86.8802C82.91 86.8802 101.45 87.7602 108.8 86.1302C108.8 86.1302 114.33 82.5702 115.08 80.5102C115.08 80.5102 100.89 59.2202 87.46 69.2102C82.05 73.2202 77.8 75.0402 74.84 74.9802Z" fill="#FFEA24" stroke="#13110C" stroke-miterlimit="10"/>
<path d="M72.58 84.3698C72.58 84.3698 83.31 100.49 87.13 116.6C87.13 116.6 102.63 89.8898 108.38 86.2098C108.38 86.2098 104.69 84.5598 100.29 84.9398C95.88 85.3198 75.59 83.3498 75.59 83.3498C75.59 83.3498 72.66 83.2098 72.58 83.3498C72.5 83.4898 72.58 84.3698 72.58 84.3698Z" fill="#E30613" stroke="#13110C" stroke-miterlimit="10"/>
<path d="M86.74 75.2702H106.99C106.99 75.2702 99.66 60.9202 91.82 66.2602C83.99 71.6002 85.07 72.4402 85.91 73.4402C86.74 74.4402 86.74 75.2702 86.74 75.2702Z" fill="#BBB32E" stroke="#13110C" stroke-miterlimit="10"/>
<path d="M72.13 61.9298C72.13 61.9298 72.51 67.5798 74.81 68.9098C74.81 68.9098 75.28 73.8598 75.07 74.7998C75.07 74.7998 81.26 80.5198 87.71 74.7998C94.16 69.0798 95.77 67.2298 95.77 67.2298L96.08 67.5698C93.12 64.5598 92.96 60.2498 92.96 60.2498C92.37 53.0398 88 43.7698 88 43.7698C84.77 43.0598 72.94 44.8198 72.94 44.8198L72.93 52.1798C72.93 52.1798 70.11 57.2198 69.86 58.0698C69.6 58.9198 69.39 64.2198 72.93 61.3998C76.47 58.5798 75.84 60.1298 76.14 60.4698" fill="#FED68A"/>
<path d="M72.13 61.9298C72.13 61.9298 72.51 67.5798 74.81 68.9098C74.81 68.9098 75.28 73.8598 75.07 74.7998C75.07 74.7998 81.26 80.5198 87.71 74.7998C94.16 69.0798 95.77 67.2298 95.77 67.2298L96.08 67.5698C93.12 64.5598 92.96 60.2498 92.96 60.2498C92.37 53.0398 88 43.7698 88 43.7698C84.77 43.0598 72.94 44.8198 72.94 44.8198L72.93 52.1798C72.93 52.1798 70.11 57.2198 69.86 58.0698C69.6 58.9198 69.39 64.2198 72.93 61.3998C76.47 58.5798 75.84 60.1298 76.14 60.4698" stroke="#13110C" stroke-miterlimit="10"/>
<path d="M125.74 32.4399H64.01L72.94 44.8099C72.94 44.8099 101.23 41.6199 116.16 45.6599L125.74 32.4399Z" fill="#E31518" stroke="#13110C" stroke-miterlimit="10"/>
<path d="M116.16 45.6601L117.87 43.3001C98.49 37.8301 71.29 42.5201 71.29 42.5201L72.94 44.8102C72.94 44.8102 102 41.6101 116.16 45.6601Z" fill="#13110C" stroke="#13110C" stroke-miterlimit="10"/>
<path d="M71.62 32.4399L74.68 36.7799H82.41L82.74 32.4399H84.81L84.34 38.3799L73.28 39.0499L69.08 32.4399H71.62Z" fill="white"/>
<path d="M118.42 32.99L115.38 37.34L107.65 37.37L107.29 33.03L105.23 33.04L105.72 38.98L116.78 39.61L120.96 32.98L118.42 32.99Z" fill="white"/>
<path d="M88.61 32.4399V37.5199H101V32.4399H99.07L99 36.3799L91.2 36.4499V32.4399H88.61Z" fill="white"/>
<path d="M74.34 66.2598C74.34 66.2598 77.24 67.2898 77.46 66.9398" stroke="#13110C" stroke-miterlimit="10"/>
<path d="M76.65 63.7899C76.65 63.7899 78.87 63.1099 81.18 65.5399C81.18 65.5399 84.08 65.2799 83.57 63.4899C83.57 63.4899 82.97 61.0199 82.08 63.2799" stroke="#13110C" stroke-miterlimit="10"/>
<path d="M75.9 48.2502C75.9 48.2502 80.83 47.1002 85.91 49.1502" stroke="#13110C" stroke-miterlimit="10"/>
<path d="M83.62 51.7101C80.26 49.5801 76.99 50.4701 76.99 50.4701C74.94 52.1401 77.25 53.3701 77.25 53.3701C77.25 53.3701 81.12 53.6301 83.62 51.7101Z" fill="#13110C"/>
<path d="M122.41 69.4402C122.41 69.4402 119.66 67.3602 118.99 59.6102C118.99 59.6102 117.82 47.2802 117.07 46.7802L116.15 45.6702C105.04 42.2202 88 43.6002 88 43.6002V43.7702C88 43.7702 92.37 53.0402 92.96 60.2502C92.96 60.2502 93.12 64.5602 96.08 67.5702C96.08 67.5702 101.49 73.4502 106.99 75.2802C106.99 75.2802 116.07 82.2802 122.66 79.5302C122.66 79.5302 129.91 77.0402 129.58 73.8702C129.58 73.8702 128.58 67.0302 122.58 69.9502C122.58 69.9502 117.66 73.9502 123.83 76.9502C123.83 76.9502 128.66 76.3702 127.25 72.4502C127.25 72.4502 124.21 69.6602 123.08 72.7002C123.08 72.7002 122.16 74.8702 124.25 75.1202C124.25 75.1202 126.67 74.8702 125.08 72.9502" fill="#E2C80B"/>
<path d="M122.41 69.4402C122.41 69.4402 119.66 67.3602 118.99 59.6102C118.99 59.6102 117.82 47.2802 117.07 46.7802L116.15 45.6702C105.04 42.2202 88 43.6002 88 43.6002V43.7702C88 43.7702 92.37 53.0402 92.96 60.2502C92.96 60.2502 93.12 64.5602 96.08 67.5702M96.08 67.5702L95.77 67.2302M96.08 67.5702C96.08 67.5702 101.49 73.4502 106.99 75.2802C106.99 75.2802 116.07 82.2802 122.66 79.5302C122.66 79.5302 129.91 77.0402 129.58 73.8702C129.58 73.8702 128.58 67.0302 122.58 69.9502C122.58 69.9502 117.66 73.9502 123.83 76.9502C123.83 76.9502 128.66 76.3702 127.25 72.4502C127.25 72.4502 124.21 69.6602 123.08 72.7002C123.08 72.7002 122.16 74.8702 124.25 75.1202C124.25 75.1202 126.67 74.8702 125.08 72.9502" stroke="#13110C" stroke-miterlimit="10"/>
<path d="M90.45 44.3101C90.45 44.3101 94.86 57.4001 94.87 61.7401C94.89 66.0701 101.7 70.0601 102.7 70.8101C103.7 71.5601 115.86 79.0801 120.2 77.9301" stroke="#13110C" stroke-width="0.5" stroke-miterlimit="10"/>
<path d="M92.87 44.3101C92.87 44.3101 97.28 57.4001 97.29 61.7401C97.31 66.0701 104.12 70.0601 105.12 70.8101C106.12 71.5601 118.28 79.0801 122.62 77.9301" stroke="#13110C" stroke-width="0.5" stroke-miterlimit="10"/>
<path d="M102.7 70.8101C103.7 71.5601 115.86 79.0801 120.2 77.9301" stroke="#13110C" stroke-width="0.5" stroke-miterlimit="10"/>
<path d="M94.87 44.3101C94.87 44.3101 99.28 57.4001 99.29 61.7401C99.31 66.0701 106.12 70.0601 107.12 70.8101C108.12 71.5601 120.28 79.0801 124.62 77.9301" stroke="#13110C" stroke-width="0.5" stroke-miterlimit="10"/>
<path d="M97.08 44.3101C97.08 44.3101 101.49 57.4001 101.5 61.7401C101.52 66.0701 108.33 70.0601 109.33 70.8101C110.13 71.4101 118.11 76.3701 123.48 77.7201" stroke="#13110C" stroke-width="0.5" stroke-miterlimit="10"/>
<path d="M99.3101 44.3101C99.3101 44.3101 103.72 57.4001 103.73 61.7401C103.75 66.0701 110.56 70.0601 111.56 70.8101C112.14 71.2501 116.5 73.9801 120.9 75.9601" stroke="#13110C" stroke-width="0.5" stroke-miterlimit="10"/>
<path d="M101.75 44.8701C101.75 44.8701 106.16 57.9601 106.17 62.3001C106.18 66.6401 113 70.6201 114 71.3701C114.46 71.7201 117.36 73.5401 120.75 75.2701" stroke="#13110C" stroke-width="0.5" stroke-miterlimit="10"/>
<path d="M104.21 44.8701C104.21 44.8701 108.62 57.9601 108.63 62.3001C108.64 66.6401 115.46 70.6201 116.46 71.3701C116.81 71.6301 118.53 72.7301 120.81 73.9901" stroke="#13110C" stroke-width="0.5" stroke-miterlimit="10"/>
<path d="M106.82 44.8701C106.82 44.8701 111.23 57.9601 111.24 62.3001C111.25 66.6401 118.07 70.6201 119.07 71.3701C119.27 71.5201 119.9 71.9301 120.83 72.4901" stroke="#13110C" stroke-width="0.5" stroke-miterlimit="10"/>
<path d="M109.75 45.4502C109.75 45.4502 114.16 58.5402 114.17 62.8802C114.19 66.6102 119.24 70.0902 121.28 71.4602" stroke="#13110C" stroke-width="0.5" stroke-miterlimit="10"/>
<path d="M113.09 47.0601C113.09 47.0601 117.5 60.1501 117.51 64.4901C117.52 66.9001 119.63 69.2001 121.67 70.9001" stroke="#13110C" stroke-width="0.5" stroke-miterlimit="10"/>
<path d="M90.36 74.2902L95.59 69.2002" stroke="#13110C" stroke-width="0.5" stroke-miterlimit="10"/>
<path d="M92.37 74.28L96.8 70.02" stroke="#13110C" stroke-width="0.5" stroke-miterlimit="10"/>
<path d="M94.6801 74.2801L98.2501 70.8101" stroke="#13110C" stroke-width="0.5" stroke-miterlimit="10"/>
<path d="M96.6899 74.48L99.4999 71.75" stroke="#13110C" stroke-width="0.5" stroke-miterlimit="10"/>
<path d="M98.92 74.6001L100.94 72.6401" stroke="#13110C" stroke-width="0.5" stroke-miterlimit="10"/>
<path d="M92.0999 79.9102H89.3199V82.6902H92.0999V79.9102Z" fill="#211C4B" stroke="#211C4B" stroke-miterlimit="10"/>
<path d="M85.69 79.6001H82.91V82.3801H85.69V79.6001Z" fill="#211C4B" stroke="#211C4B" stroke-miterlimit="10"/>
<path d="M79.43 78.21H76.65V80.99H79.43V78.21Z" fill="#211C4B" stroke="#211C4B" stroke-miterlimit="10"/>
<path d="M97.86 79.9102H95.08V82.6902H97.86V79.9102Z" fill="#211C4B" stroke="#211C4B" stroke-miterlimit="10"/>
<path d="M103.45 79.6001H100.67V82.3801H103.45V79.6001Z" fill="#211C4B" stroke="#211C4B" stroke-miterlimit="10"/>
<path d="M109.6 78.52H106.82V81.3H109.6V78.52Z" fill="#211C4B" stroke="#211C4B" stroke-miterlimit="10"/>
<path d="M100.29 90.84C97.68 91.48 88.43 108.18 88.43 108.18C87.39 103.52 79.71 90.46 79.71 90.46C79.71 90.46 96.5 91.78 100.29 90.84Z" fill="#FFFCFB"/>
<path d="M96.05 93.2298C94.52 93.6098 89.09 103.41 89.09 103.41C88.48 100.67 83.97 93.0098 83.97 93.0098C83.97 93.0098 93.82 93.7798 96.05 93.2298Z" fill="#13110C" stroke="#13110C" stroke-miterlimit="10"/>
<path d="M92.45 95.2399C91.78 95.4099 89.4 99.7099 89.4 99.7099C89.13 98.5099 87.15 95.1499 87.15 95.1499C87.15 95.1499 91.47 95.4799 92.45 95.2399Z" fill="#FFFCFB"/>
<path d="M139.21 45.4498L139.36 87.9298C139.36 87.9298 143.66 89.8898 146.08 90.2298V39.0498L139.21 45.4498Z" fill="#B91818" stroke="#13110C" stroke-miterlimit="10"/>
<path d="M131.07 41.0601C125.53 44.6901 123.89 55.7701 123.89 55.7701C123.28 63.2101 131.07 71.4601 131.07 71.4601C131.07 71.4601 136.45 51.1201 134.44 49.7901C132.43 48.4601 131.07 41.0601 131.07 41.0601Z" fill="#8B92C8"/>
<path d="M137.56 60.4698C131.85 70.1898 131.32 68.9598 131.32 68.9598C131.32 68.9598 130.79 61.8598 131.32 61.0198C131.32 61.0198 125.27 57.8498 124.62 56.1998C124.62 56.1998 128.85 52.6798 131.32 52.1298C131.32 52.1298 130.45 44.3698 131.67 42.5298C131.67 42.5298 134.67 50.5798 137.99 51.4398L137.56 60.4698Z" fill="#FBE900" stroke="#13110C" stroke-miterlimit="10"/>
<path d="M137.47 61.74L137.58 87.81C137.58 87.81 143.01 89.88 146.08 90.24V36.27L137.4 43.02L137.43 50.92C137.43 50.92 133.07 48.86 131.86 40.65C131.86 40.65 130.48 48.06 135.24 53.6C135.24 53.6 129.96 53.86 127.97 56.11C127.97 56.11 130.65 59.03 135.15 59.43C135.15 59.43 131.43 63.97 131.08 71.46C131.07 71.46 135.22 63.21 137.47 61.74Z" fill="#FBE900" stroke="#13110C" stroke-miterlimit="10"/>
<path d="M139.21 45.4498L139.36 87.9298C139.36 87.9298 143.66 89.8898 146.08 90.2298V39.0498L139.21 45.4498Z" fill="#B91818" stroke="#13110C" stroke-miterlimit="10"/>
<path d="M141.3 49.4301L141.4 88.1301C141.4 88.1301 144.38 89.9201 146.07 90.2301V43.6001L141.3 49.4301Z" fill="#E30613" stroke="#13110C" stroke-miterlimit="10"/>
<path d="M36.19 85.5799C36.76 86.4199 36.65 87.4899 35.95 87.9699C35.25 88.4499 34.21 88.1599 33.63 87.3299L33.6 87.2899C33.03 86.4499 33.14 85.3799 33.84 84.8999C34.55 84.4199 35.58 84.7099 36.15 85.5399L36.19 85.5799Z" fill="#FCD48E" stroke="#13110C" stroke-width="0.6" stroke-miterlimit="10"/>
<path d="M36.27 89.7798C38.19 91.4998 39.28 93.4098 38.71 94.0498C38.14 94.6898 36.12 93.8098 34.2 92.0898L34.1 91.9998C32.18 90.2798 31.09 88.3698 31.66 87.7298C32.23 87.0998 34.25 87.9698 36.17 89.6898L36.27 89.7798Z" fill="#FCD48E" stroke="#13110C" stroke-width="0.6" stroke-miterlimit="10"/>
<path d="M35.2401 92.92C37.1601 94.64 38.2501 96.55 37.68 97.19C37.11 97.83 35.09 96.95 33.17 95.23L33.07 95.14C31.15 93.42 30.06 91.51 30.63 90.87C31.2 90.24 33.22 91.11 35.14 92.83L35.2401 92.92Z" fill="#FCD48E" stroke="#13110C" stroke-width="0.6" stroke-miterlimit="10"/>
<path d="M33.97 95.5899C35.89 97.3099 36.98 99.2199 36.41 99.8599C35.84 100.5 33.82 99.6199 31.9 97.8999L31.8 97.8099C29.88 96.0899 28.79 94.1799 29.36 93.5399C29.93 92.9099 31.95 93.7799 33.87 95.4999L33.97 95.5899Z" fill="#FCD48E" stroke="#13110C" stroke-width="0.6" stroke-miterlimit="10"/>
<path d="M122.06 82.96C122.06 82.96 108.91 93.94 98.95 114.01" stroke="#13110C" stroke-miterlimit="10"/>
<path d="M60.3 86.64C60.3 86.64 72.93 99.99 76.64 116.6H83.96C83.96 116.6 81.28 100.76 66.99 82.69L66.13 81.96L60.3 86.64Z" fill="white" stroke="#13110C" stroke-miterlimit="10"/>
<path d="M64.5699 86.0801C64.5699 86.0801 73.7099 96.5301 79.4199 114.24" stroke="#13110C" stroke-miterlimit="10"/>
<path d="M58.89 76.0298C55.58 78.6498 49.96 77.3398 49.96 77.3398C42.43 74.7998 37.83 79.4698 37.83 79.4698C32.17 84.3798 38.46 86.0798 38.46 86.0798C38.46 86.0798 41.86 86.8598 44.07 84.6598C44.07 84.6598 51.72 85.7198 53.97 84.6598C53.97 84.6598 59.95 82.9498 58.89 76.0298Z" fill="#FFEA24" stroke="#13110C" stroke-miterlimit="10"/>
<path d="M37.83 84.31C37.83 84.31 41.96 79.38 48.82 81.12C48.82 81.12 53.15 82 55.73 79.79" stroke="#13110C" stroke-miterlimit="10"/>
<path d="M28.8199 118.48C28.8199 118.48 35.5999 110.03 34.9599 106.96" stroke="#13110C" stroke-miterlimit="10"/>
<path d="M28.8199 122.86C28.8199 122.86 37.8199 115.47 37.8199 104.66" stroke="#13110C" stroke-miterlimit="10"/>
<path d="M32.87 121.14L33.09 126.84C33.09 126.84 36.89 122.18 37.37 121.48L32.87 121.14Z" fill="#FFEA24" stroke="#13110C" stroke-miterlimit="10"/>
<path d="M36.5601 114.85L38.4001 119.95C38.4001 119.95 41.2801 114.85 41.5501 114.24L36.5601 114.85Z" fill="#FFEA24" stroke="#13110C" stroke-miterlimit="10"/>
<path d="M38.86 108.56L42.01 113.2C42.01 113.2 43.94 108.69 43.95 106.95L38.86 108.56Z" fill="#FFEA24" stroke="#13110C" stroke-miterlimit="10"/>
<path d="M40.4399 102.56L44.0899 106.14C44.0899 106.14 44.9399 99.8202 44.2799 99.4902L40.4399 102.56Z" fill="#FFEA24" stroke="#13110C" stroke-miterlimit="10"/>
<path d="M44.27 99.4902L47.75 96.7002C45.93 120.21 37.06 128.06 37.06 128.06H31.92C31.92 128.06 38.82 121.24 41.76 113.77C41.76 113.78 46.06 103.25 44.27 99.4902Z" fill="#211C4B" stroke="#14120D" stroke-miterlimit="10"/>
<path d="M50.8 94.2598L52.82 97.4298L47.65 102.82L52.82 108.19L45.52 111.14L50.45 118.48L42.48 119.58L45.07 128.06H46.32L44.53 121.14L52.82 119.31L47.75 111.88L55.45 108.19L50.2 102.82L56.56 96.6998L52.36 93.0098L50.8 94.2598Z" fill="white" stroke="#13110C" stroke-miterlimit="10"/>
<path d="M47.75 128.06H51.6L52.06 119.95L47.75 128.06Z" fill="#E30613" stroke="#13110C" stroke-miterlimit="10"/>
<path d="M69.04 98.46C52.15 110.84 51.6 128.06 51.6 128.06H53.45C53.45 128.06 53.38 112.94 70.27 100.56L69.04 98.46Z" fill="#FFEA24" stroke="#13110C" stroke-miterlimit="10"/>
<path d="M114.44 97.3501C128.58 111.84 125.77 127.99 125.77 127.99L123.96 127.67C123.96 127.67 126.98 113.59 112.83 99.0901L114.44 97.3501Z" fill="#FFEA24" stroke="#13110C" stroke-miterlimit="10"/>
<path d="M53.45 128.06C53.45 128.06 52.94 122.59 61.67 126.18L61.47 126.83C61.47 126.83 56.37 126.34 56.65 128.06" fill="#E30613"/>
<path d="M53.45 128.06C53.45 128.06 52.94 122.59 61.67 126.18L61.47 126.83C61.47 126.83 56.37 126.34 56.65 128.06" stroke="#13110C" stroke-miterlimit="10"/>
<path d="M61.87 125.76C61.87 125.76 54.02 123.69 55.16 119.95C55.16 119.95 57.44 116.18 64.07 121.13L63.17 122.44C60.18 120.44 58.78 121.64 58.78 121.64C58.43 122.44 62.57 124.68 62.57 124.68L61.87 125.76Z" fill="#E30613" stroke="#13110C" stroke-miterlimit="10"/>
<path d="M64.46 120.39C64.46 120.39 57.18 118.41 58.23 114.82C58.23 114.82 60.34 111.21 66.5 115.95L65.67 117.21C62.89 115.3 61.6 116.45 61.6 116.45C61.28 117.21 65.12 119.36 65.12 119.36L64.46 120.39Z" fill="#E30613" stroke="#13110C" stroke-miterlimit="10"/>
<path d="M66.8 115.36C66.8 115.36 60.4 112.48 61.83 108.99C61.83 108.99 64.24 105.59 69.25 111.12L68.32 112.29C66.03 110.03 64.7 111.03 64.7 111.03C64.3 111.76 67.53 114.4 67.53 114.4L66.8 115.36Z" fill="#E30613" stroke="#13110C" stroke-miterlimit="10"/>
<path d="M70.0099 110.35C70.0099 110.35 64.4499 107.14 66.0699 103.93C66.0699 103.93 68.5699 100.89 72.6199 106.52L71.6699 107.56C69.7899 105.24 68.4899 106.09 68.4899 106.09C68.0599 106.76 70.7599 109.5 70.7599 109.5L70.0099 110.35Z" fill="#E30613" stroke="#13110C" stroke-miterlimit="10"/>
<path d="M123.04 128.06C123.04 128.06 124.16 122.92 115.66 125.25L115.77 125.89C115.77 125.89 120.55 126.06 120.08 127.66" fill="#E30613"/>
<path d="M123.04 128.06C123.04 128.06 124.16 122.92 115.66 125.25L115.77 125.89C115.77 125.89 120.55 126.06 120.08 127.66" stroke="#13110C" stroke-miterlimit="10"/>
<path d="M115.52 124.82C115.52 124.82 123.03 123.83 122.43 120.13C122.43 120.13 120.77 116.26 114.04 120.14L114.72 121.5C117.72 119.97 118.87 121.29 118.87 121.29C119.1 122.09 115 123.71 115 123.71L115.52 124.82Z" fill="#E30613" stroke="#13110C" stroke-miterlimit="10"/>
<path d="M113.76 119.39C113.76 119.39 120.74 118.41 120.19 114.87C120.19 114.87 118.66 111.17 112.4 114.92L113.02 116.22C115.82 114.75 116.88 116 116.88 116C117.09 116.77 113.28 118.33 113.28 118.33L113.76 119.39Z" fill="#E30613" stroke="#13110C" stroke-miterlimit="10"/>
<path d="M112.19 114.31C112.19 114.31 118.46 112.37 117.55 108.87C117.55 108.87 115.72 105.34 110.43 109.98L111.15 111.2C113.54 109.33 114.66 110.46 114.66 110.46C114.94 111.21 111.64 113.31 111.64 113.31L112.19 114.31Z" fill="#E30613" stroke="#13110C" stroke-miterlimit="10"/>
<path d="M109.82 109.15C109.82 109.15 115.35 106.79 114.23 103.53C114.23 103.53 112.28 100.33 107.86 105.17L108.61 106.28C110.62 104.31 111.73 105.28 111.73 105.28C112.05 105.97 109.22 108.24 109.22 108.24L109.82 109.15Z" fill="#E30613" stroke="#13110C" stroke-miterlimit="10"/>
<path d="M65.78 127.81C65.78 127.81 65.55 124.65 69.55 126.73L69.46 127.11C69.46 127.11 67.12 126.83 67.25 127.82" fill="#FFEA24"/>
<path d="M65.78 127.81C65.78 127.81 65.55 124.65 69.55 126.73L69.46 127.11C69.46 127.11 67.12 126.83 67.25 127.82" stroke="#13110C" stroke-width="0.5" stroke-miterlimit="10"/>
<path d="M69.64 126.48C69.64 126.48 66.04 125.28 66.56 123.13C66.56 123.13 67.61 120.95 70.65 123.81L70.24 124.57C68.87 123.42 68.23 124.11 68.23 124.11C68.07 124.57 69.97 125.87 69.97 125.87L69.64 126.48Z" fill="#FFEA24" stroke="#13110C" stroke-width="0.5" stroke-miterlimit="10"/>
<path d="M70.83 123.38C70.83 123.38 67.49 122.24 67.97 120.17C67.97 120.17 68.94 118.08 71.76 120.82L71.38 121.55C70.11 120.45 69.51 121.11 69.51 121.11C69.36 121.55 71.12 122.79 71.12 122.79L70.83 123.38Z" fill="#FFEA24" stroke="#13110C" stroke-width="0.5" stroke-miterlimit="10"/>
<path d="M71.9 120.47C71.9 120.47 68.96 118.81 69.62 116.79C69.62 116.79 70.73 114.83 73.02 118.02L72.59 118.69C71.54 117.38 70.93 117.96 70.93 117.96C70.75 118.38 72.23 119.9 72.23 119.9L71.9 120.47Z" fill="#FFEA24" stroke="#13110C" stroke-width="0.5" stroke-miterlimit="10"/>
<path d="M73.38 117.58C73.38 117.58 70.83 115.72 71.57 113.87C71.57 113.87 72.72 112.11 74.58 115.36L74.14 115.96C73.28 114.62 72.68 115.11 72.68 115.11C72.48 115.49 73.72 117.08 73.72 117.08L73.38 117.58Z" fill="#FFEA24" stroke="#13110C" stroke-width="0.5" stroke-miterlimit="10"/>
<path d="M69.84 128.06L71.43 125.34H109.34L106.65 128.06H69.84Z" fill="#E30613" stroke="#13110C" stroke-miterlimit="10"/>
<path d="M80.12 128.06L83.51 125.34" stroke="#13110C" stroke-miterlimit="10"/>
<path d="M92.87 128.06L96.05 125.34" stroke="#13110C" stroke-miterlimit="10"/>
<path d="M109.34 118.86H74.03V119.96H109.34V118.86Z" fill="white"/>
<path d="M73 124.4H109.34L108.59 121.39L107.54 123.38H105.9L104.75 121.39L103.55 123.38H101.91L101.01 121.1L99.46 123.38H98.17L97.12 121.1L96.05 123.38H94.46L93.38 121.1L92.09 123.38H90.46L89.59 121.1L87.85 123.38H86.55L85.6 120.75L83.96 123.38H82.51L81.46 120.75L80.12 123.38H78.77L77.87 120.75L76.28 123.38L74.57 123.2L73.78 121.39L73 123.38V124.4Z" fill="white" stroke="#13110C" stroke-width="0.4" stroke-miterlimit="10"/>
<path d="M104.99 110.84C104.99 110.84 108.63 109.79 109.43 111.86C109.43 111.86 109.8 114.25 105.67 113.61L105.58 112.75C107.36 112.92 107.5 111.99 107.5 111.99C107.37 111.52 105.07 111.53 105.07 111.53L104.99 110.84Z" fill="#FFEA24" stroke="#13110C" stroke-width="0.5" stroke-miterlimit="10"/>
<path d="M105.77 114.07C105.77 114.07 109.17 113.12 109.95 115.1C109.95 115.1 110.33 117.37 106.45 116.71L106.35 115.89C108.03 116.08 108.14 115.2 108.14 115.2C108.01 114.75 105.86 114.73 105.86 114.73L105.77 114.07Z" fill="#FFEA24" stroke="#13110C" stroke-width="0.5" stroke-miterlimit="10"/>
<path d="M117.94 101.39L120.69 98.9301L122.06 97.7101L124.94 95.1401C124.94 95.1401 137.18 109.7 139.2 114.81L127.33 127.99H125.76C125.77 128 127.31 112.65 117.94 101.39Z" fill="#E30613" stroke="#13110C" stroke-miterlimit="10"/>
<path d="M122.06 97.7202C127.68 104.39 129.62 118.42 129.62 118.42L137.44 111.57L138.44 113.24L128.22 123.01C128.22 123.01 127.2 109.04 120.87 98.7702L122.06 97.7202Z" fill="white" stroke="#13110C" stroke-miterlimit="10"/>
<path d="M123.23 96.6699C123.23 96.6699 129.56 104.88 131.02 112.67L135.56 108.77" stroke="#13110C" stroke-miterlimit="10"/>
<path d="M146.23 120.24C146.23 120.24 141.47 119.48 139.21 114.81L127.34 127.99L129.2 128L138.14 128.06C138.14 128.06 142.84 122.2 146.08 120.23" fill="#FFEA24"/>
<path d="M146.23 120.24C146.23 120.24 141.47 119.48 139.21 114.81L127.34 127.99L129.2 128L138.14 128.06C138.14 128.06 142.84 122.2 146.08 120.23" stroke="#13110C" stroke-miterlimit="10"/>
<path d="M136.03 124.29H133.88V126.44H136.03V124.29Z" fill="#211C4B" stroke="#211C4B" stroke-miterlimit="10"/>
<path d="M139.7 121.04H137.97V122.7H139.7V121.04Z" fill="#211C4B" stroke="#211C4B" stroke-miterlimit="10"/>
<path d="M144.72 119.8L136.03 118.61L136.58 126.79L129.2 128.01L138.14 128.06L137.48 120.58L145.01 120.98L144.72 119.8Z" fill="white" stroke="#13110C" stroke-miterlimit="10"/>
<path d="M141.94 118.22C139.97 107.08 122.06 88.8901 122.06 88.8901L120.22 90.4701C120.22 90.4701 130.26 100.14 133.09 105.38C133.09 105.38 140.42 115.78 141 117.37C141.57 118.95 141.94 118.22 141.94 118.22Z" fill="#FFEA24" stroke="#13110C" stroke-miterlimit="10"/>
<path d="M123.23 90.1098C123.23 90.1098 128.3 85.0098 130.34 86.2398C130.34 86.2398 133.75 88.3298 126.79 94.0198" fill="white"/>
<path d="M123.23 90.1098C123.23 90.1098 128.3 85.0098 130.34 86.2398C130.34 86.2398 133.75 88.3298 126.79 94.0198" stroke="#13110C" stroke-miterlimit="10"/>
<path d="M129.4 88.8899C129.4 89.2899 129.08 89.6099 128.68 89.6099C128.28 89.6099 127.96 89.2899 127.96 88.8899V88.4099C127.96 88.0099 128.28 87.6899 128.68 87.6899C129.08 87.6899 129.4 88.0099 129.4 88.4099V88.8899Z" stroke="#13110C" stroke-width="0.5" stroke-miterlimit="10"/>
<path d="M127.94 94.1699C127.72 94.3999 127.72 94.7699 127.94 94.9999C128.17 95.2299 128.54 95.2199 128.77 94.9999L133.12 90.6099C133.35 90.3799 133.35 90.0099 133.12 89.7799C132.89 89.5499 132.52 89.5499 132.3 89.7799L127.94 94.1699Z" fill="white" stroke="#13110C" stroke-miterlimit="10"/>
<path d="M128.88 96.2198C128.88 96.2198 134.45 91.6698 136.35 93.1098C136.35 93.1098 139.53 95.5398 132 100.48" fill="white"/>
<path d="M128.88 96.2198C128.88 96.2198 134.45 91.6698 136.35 93.1098C136.35 93.1098 139.53 95.5398 132 100.48" stroke="#13110C" stroke-miterlimit="10"/>
<path d="M135.14 95.6498C135.1 96.0398 134.74 96.3298 134.35 96.2898C133.96 96.2498 133.67 95.8898 133.71 95.4998L133.76 95.0198C133.8 94.6198 134.15 94.3398 134.55 94.3798C134.94 94.4198 135.23 94.7798 135.19 95.1698L135.14 95.6498Z" stroke="#13110C" stroke-width="0.5" stroke-miterlimit="10"/>
<path d="M133.15 100.75C132.9 100.95 132.86 101.32 133.07 101.57C133.28 101.82 133.64 101.86 133.89 101.65L138.67 97.74C138.92 97.54 138.96 97.17 138.75 96.92C138.55 96.67 138.18 96.63 137.93 96.84L133.15 100.75Z" fill="white" stroke="#13110C" stroke-miterlimit="10"/>
<path d="M138.57 108.93C138.57 108.93 143.51 105.79 144.91 107.14C144.91 107.14 147.24 109.41 140.69 112.68" fill="white"/>
<path d="M138.57 108.93C138.57 108.93 143.51 105.79 144.91 107.14C144.91 107.14 147.24 109.41 140.69 112.68" stroke="#13110C" stroke-miterlimit="10"/>
<path d="M144.43 108.55C144.36 108.86 143.95 109.03 143.52 108.94C143.09 108.84 142.8 108.51 142.87 108.2L142.95 107.83C143.02 107.52 143.43 107.35 143.86 107.44C144.29 107.54 144.58 107.87 144.51 108.18L144.43 108.55Z" stroke="#13110C" stroke-width="0.5" stroke-miterlimit="10"/>
<path d="M145.55 90.1101C145.75 90.1501 145.96 90.1901 146.16 90.2301V92.8401C137.94 91.9001 127.43 84.2601 127.43 84.2601L122.75 79.5301L126.02 78.0601C126.02 78.0601 131.9 86.5401 146.17 90.2301" fill="#FFEA24"/>
<path d="M145.55 90.1101C145.75 90.1501 145.96 90.1901 146.16 90.2301V92.8401C137.94 91.9001 127.43 84.2601 127.43 84.2601L122.75 79.5301L126.02 78.0601C126.02 78.0601 131.9 86.5401 146.17 90.2301" stroke="#13110C" stroke-miterlimit="10"/>
<path d="M48.52 62.19C48.75 61.99 48.96 61.77 49.16 61.53L55.9 53.32L59.6 48.82C61.5 46.5 61.17 43.08 58.85 41.18L58.44 40.84C56.12 38.94 52.7 39.27 50.8 41.59L48.58 44.29L46.41 41.61C44.52 39.28 41.1 38.92 38.77 40.81L38.36 41.14C36.03 43.03 35.67 46.45 37.56 48.78L47.92 61.56C48.11 61.79 48.31 62 48.52 62.19Z" fill="#E30B13"/>
<path d="M146.23 143.35V127.16H28.98V165C42.42 168.11 49.13 177.17 49.13 177.17L99.99 180.43L146.23 143.35L130.78 155.74L146.23 143.35Z" fill="#211C4B"/>
<path d="M146.23 143.35V127.16H28.98V165C42.42 168.11 49.13 177.17 49.13 177.17L99.99 180.43L146.23 143.35ZM146.23 143.35L130.78 155.74" stroke="#13110C" stroke-miterlimit="10"/>
<path d="M41.2 152.81C41.2 152.81 35.13 156.67 33.41 155.01C33.41 155.01 30.54 152.22 38.6 148.21" fill="white"/>
<path d="M41.2 152.81C41.2 152.81 35.13 156.67 33.41 155.01C33.41 155.01 30.54 152.22 38.6 148.21" stroke="#13110C" stroke-miterlimit="10"/>
<path d="M34.4899 152.54C34.5599 152.23 34.9699 152.06 35.3899 152.16C35.8199 152.26 36.1099 152.59 36.0399 152.9L35.9599 153.28C35.8899 153.59 35.4799 153.76 35.0499 153.67C34.6199 153.57 34.3299 153.24 34.3999 152.93L34.4899 152.54Z" stroke="#13110C" stroke-width="0.5" stroke-miterlimit="10"/>
<path d="M37.31 148.41C37.58 148.24 37.66 147.88 37.49 147.6C37.32 147.33 36.95 147.25 36.68 147.42L31.47 150.74C31.2 150.91 31.12 151.28 31.29 151.55C31.46 151.82 31.82 151.9 32.1 151.73L37.31 148.41Z" fill="white" stroke="#13110C" stroke-miterlimit="10"/>
<path d="M137.99 127.16H135.21H127.29C127.29 127.16 121.34 137.23 120.22 142.51C120.22 142.51 117.58 159.74 118.65 165.45L127.29 158.52C127.3 158.52 127.51 139.41 137.99 127.16Z" fill="#FFEA24" stroke="#13110C" stroke-miterlimit="10"/>
<path d="M133.05 128.39H130.9V130.54H133.05V128.39Z" fill="#211C4B" stroke="#211C4B" stroke-miterlimit="10"/>
<path d="M129.35 131.94H127.2V134.09H129.35V131.94Z" fill="#211C4B" stroke="#211C4B" stroke-miterlimit="10"/>
<path d="M128.27 137.05H126.12V139.2H128.27V137.05Z" fill="#211C4B" stroke="#211C4B" stroke-miterlimit="10"/>
<path d="M126.13 141.43H123.98V143.58H126.13V141.43Z" fill="#211C4B" stroke="#211C4B" stroke-miterlimit="10"/>
<path d="M126.13 146.93H123.98V149.08H126.13V146.93Z" fill="#211C4B" stroke="#211C4B" stroke-miterlimit="10"/>
<path d="M124.18 151.26H122.03V153.41H124.18V151.26Z" fill="#211C4B" stroke="#211C4B" stroke-miterlimit="10"/>
<path d="M125.26 156.76H123.11V158.91H125.26V156.76Z" fill="#211C4B" stroke="#211C4B" stroke-miterlimit="10"/>
<path d="M146.23 143.35L130.78 155.74C129.33 143.43 138.61 132.06 141.96 128.39C142.69 127.6 143.14 127.16 143.14 127.16H146.23V143.35Z" fill="#E30613" stroke="#13110C" stroke-miterlimit="10"/>
<path d="M126.23 159.38C126.23 159.38 128.63 169.28 134.03 169.54C134.03 169.54 142.75 167.27 138.87 165.36C138.87 165.36 133.99 164.36 133.73 160.87C133.73 160.87 134.57 156.88 133.95 155.29C133.33 153.7 133.49 153.57 133.49 153.57" fill="#FCD48E"/>
<path d="M126.23 159.38C126.23 159.38 128.63 169.28 134.03 169.54C134.03 169.54 142.75 167.27 138.87 165.36C138.87 165.36 133.99 164.36 133.73 160.87C133.73 160.87 134.57 156.88 133.95 155.29C133.33 153.7 133.49 153.57 133.49 153.57" stroke="#13110C" stroke-width="0.6" stroke-miterlimit="10"/>
<path d="M141.31 155.5C141.31 155.5 136.09 152.03 135 152.35C133.9 152.67 132.09 154.68 132.09 154.68C132.09 154.68 132.68 165.14 134.6 165.7C136.52 166.27 139.48 165.26 140.15 163.65C140.83 162.04 142.32 157.77 142.16 157.29C142.01 156.81 141.31 155.5 141.31 155.5Z" fill="#1E1A2B"/>
<path d="M93.3501 140.31C93.3501 140.31 88.0401 136.21 79.4601 140.31C79.4601 140.31 57.0101 171.75 56.6701 172.53C56.3301 173.31 56.8901 180.54 63.8001 173.92C70.7101 167.3 95.1901 165.8 97.4401 168.47C99.7001 171.14 103.37 175.38 103.79 175.06C104.21 174.74 106.35 175.31 106.35 175.31L110.16 172.26L107.05 167.38C107.05 167.38 97.8601 152.42 96.1001 147.03C94.3601 141.65 93.3501 140.31 93.3501 140.31Z" fill="#FFEA24" stroke="#13110C" stroke-miterlimit="10"/>
<path d="M47.71 170.97C47.71 170.97 65.69 157.08 72.99 138.02L82.19 139.1C82.19 139.1 76.32 157.4 55.51 176.62L54.31 177.35L47.71 170.97Z" fill="white" stroke="#13110C" stroke-miterlimit="10"/>
<path d="M100.21 180.24L106.38 175.29C106.34 175.17 106.32 175.09 106.31 175.06C106.02 173.91 104.1 169.11 92.14 168.34C92.14 168.34 73.6 167.46 66.25 169.09C66.25 169.09 60.72 172.65 59.97 174.71C59.97 174.71 74.16 196 87.59 186.01C93.01 182.01 97.25 180.18 100.21 180.24Z" fill="#FFEA24" stroke="#13110C" stroke-miterlimit="10"/>
<path d="M102.47 170.85C102.47 170.85 91.74 154.73 87.92 138.62C87.92 138.62 72.42 165.33 66.67 169.01C66.67 169.01 70.36 170.66 74.76 170.28C79.17 169.9 99.46 171.87 99.46 171.87C99.46 171.87 102.39 172.01 102.47 171.87C102.55 171.74 102.47 170.85 102.47 170.85Z" fill="#E30613" stroke="#13110C" stroke-miterlimit="10"/>
<path d="M88.3101 179.95H68.0601C68.0601 179.95 75.3901 194.31 83.2301 188.96C91.0601 183.62 89.9801 182.78 89.1401 181.78C88.3001 180.78 88.3101 179.95 88.3101 179.95Z" fill="#BBB32E" stroke="#13110C" stroke-miterlimit="10"/>
<path d="M102.92 193.29C102.92 193.29 102.54 187.64 100.24 186.31C100.24 186.31 99.77 181.36 99.98 180.42C99.98 180.42 93.79 174.7 87.34 180.42C80.89 186.14 79.28 187.99 79.28 187.99L78.97 187.65C81.93 190.67 82.09 194.97 82.09 194.97C82.68 202.18 87.05 211.45 87.05 211.45C90.28 212.16 102.11 210.4 102.11 210.4L102.12 203.04C102.12 203.04 104.94 198 105.19 197.15C105.45 196.3 105.66 191 102.12 193.82C98.58 196.64 99.6 194.63 99.3 194.29" fill="#FED68A"/>
<path d="M102.92 193.29C102.92 193.29 102.54 187.64 100.24 186.31C100.24 186.31 99.77 181.36 99.98 180.42C99.98 180.42 93.79 174.7 87.34 180.42C80.89 186.14 79.28 187.99 79.28 187.99L78.97 187.65C81.93 190.67 82.09 194.97 82.09 194.97C82.68 202.18 87.05 211.45 87.05 211.45C90.28 212.16 102.11 210.4 102.11 210.4L102.12 203.04C102.12 203.04 104.94 198 105.19 197.15C105.45 196.3 105.66 191 102.12 193.82C98.58 196.64 99.6 194.63 99.3 194.29" stroke="#13110C" stroke-miterlimit="10"/>
<path d="M49.3101 222.79H111.04L102.11 210.42C102.11 210.42 73.8201 213.61 58.8901 209.57L49.3101 222.79Z" fill="#E31518" stroke="#13110C" stroke-miterlimit="10"/>
<path d="M58.8999 209.56L57.1899 211.92C76.5699 217.39 103.77 212.7 103.77 212.7L102.12 210.41C102.11 210.41 73.0599 213.61 58.8999 209.56Z" fill="#13110C" stroke="#13110C" stroke-miterlimit="10"/>
<path d="M103.44 222.79L100.37 218.44H92.64L92.31 222.79H90.25L90.71 216.84L101.77 216.17L105.97 222.79H103.44Z" fill="white"/>
<path d="M56.63 222.24L59.68 217.88L67.41 217.85L67.76 222.19H69.82L69.33 216.24L58.27 215.62L54.1 222.25L56.63 222.24Z" fill="white"/>
<path d="M86.45 222.79V217.71H74.05V222.79H75.99L76.05 218.84L83.85 218.78V222.79H86.45Z" fill="white"/>
<path d="M100.71 188.96C100.71 188.96 97.81 187.93 97.59 188.28" stroke="#13110C" stroke-miterlimit="10"/>
<path d="M98.41 191.44C98.41 191.44 96.19 192.12 93.88 189.69C93.88 189.69 90.98 189.95 91.49 191.74C91.49 191.74 92.09 194.21 92.98 191.95" stroke="#13110C" stroke-miterlimit="10"/>
<path d="M99.15 206.98C99.15 206.98 94.22 208.13 89.14 206.08" stroke="#13110C" stroke-miterlimit="10"/>
<path d="M91.4301 203.52C94.7901 205.65 98.0601 204.76 98.0601 204.76C100.11 203.1 97.8001 201.86 97.8001 201.86C97.8001 201.86 93.9301 201.6 91.4301 203.52Z" fill="#13110C"/>
<path d="M52.64 185.79C52.64 185.79 55.3901 187.87 56.0601 195.62C56.0601 195.62 57.23 207.95 57.98 208.45L58.9001 209.56C70.0201 213 87.06 211.62 87.06 211.62V211.45C87.06 211.45 82.69 202.18 82.1 194.97C82.1 194.97 81.9401 190.67 78.9801 187.65C78.9801 187.65 73.57 181.77 68.07 179.94C68.07 179.94 58.9901 172.94 52.4001 175.69C52.4001 175.69 45.15 178.18 45.48 181.35C45.48 181.35 46.48 188.19 52.48 185.27C52.48 185.27 57.4 181.27 51.23 178.27C51.23 178.27 46.4001 178.85 47.8101 182.77C47.8101 182.77 50.85 185.56 51.98 182.52C51.98 182.52 52.9001 180.35 50.8101 180.1C50.8101 180.1 48.39 180.35 49.98 182.27" fill="#E2C80B"/>
<path d="M52.64 185.79C52.64 185.79 55.3901 187.87 56.0601 195.62C56.0601 195.62 57.23 207.95 57.98 208.45L58.9001 209.56C70.0201 213 87.06 211.62 87.06 211.62V211.45C87.06 211.45 82.69 202.18 82.1 194.97C82.1 194.97 81.9401 190.67 78.9801 187.65M78.9801 187.65L79.2901 187.99M78.9801 187.65C78.9801 187.65 73.57 181.77 68.07 179.94C68.07 179.94 58.9901 172.94 52.4001 175.69C52.4001 175.69 45.15 178.18 45.48 181.35C45.48 181.35 46.48 188.19 52.48 185.27C52.48 185.27 57.4 181.27 51.23 178.27C51.23 178.27 46.4001 178.85 47.8101 182.77C47.8101 182.77 50.85 185.56 51.98 182.52C51.98 182.52 52.9001 180.35 50.8101 180.1C50.8101 180.1 48.39 180.35 49.98 182.27" stroke="#13110C" stroke-miterlimit="10"/>
<path d="M84.6 210.91C84.6 210.91 80.19 197.82 80.18 193.48C80.17 189.14 73.35 185.16 72.35 184.41C71.35 183.66 59.19 176.14 54.85 177.29" stroke="#13110C" stroke-width="0.5" stroke-miterlimit="10"/>
<path d="M82.1899 210.91C82.1899 210.91 77.7799 197.82 77.7699 193.48C77.7499 189.15 70.9399 185.16 69.9399 184.41C68.9399 183.66 56.7799 176.14 52.4399 177.29" stroke="#13110C" stroke-width="0.5" stroke-miterlimit="10"/>
<path d="M72.35 184.41C71.35 183.66 59.19 176.14 54.85 177.29" stroke="#13110C" stroke-width="0.5" stroke-miterlimit="10"/>
<path d="M80.1801 210.91C80.1801 210.91 75.7701 197.82 75.7601 193.48C75.7501 189.14 68.9301 185.16 67.9301 184.41C66.9301 183.66 54.7701 176.14 50.4301 177.29" stroke="#13110C" stroke-width="0.5" stroke-miterlimit="10"/>
<path d="M77.9699 210.91C77.9699 210.91 73.5599 197.82 73.5499 193.48C73.5299 189.15 66.7199 185.16 65.7199 184.41C64.9199 183.81 56.9399 178.85 51.5699 177.5" stroke="#13110C" stroke-width="0.5" stroke-miterlimit="10"/>
<path d="M75.74 210.91C75.74 210.91 71.33 197.82 71.32 193.48C71.31 189.14 64.49 185.16 63.49 184.41C62.91 183.97 58.55 181.25 54.15 179.27" stroke="#13110C" stroke-width="0.5" stroke-miterlimit="10"/>
<path d="M73.3001 210.35C73.3001 210.35 68.89 197.25 68.88 192.92C68.87 188.59 62.05 184.6 61.05 183.85C60.59 183.5 57.69 181.68 54.3 179.95" stroke="#13110C" stroke-width="0.5" stroke-miterlimit="10"/>
<path d="M70.85 210.35C70.85 210.35 66.44 197.25 66.43 192.92C66.41 188.59 59.6 184.6 58.6 183.85C58.25 183.59 56.53 182.49 54.25 181.23" stroke="#13110C" stroke-width="0.5" stroke-miterlimit="10"/>
<path d="M68.23 210.35C68.23 210.35 63.82 197.25 63.81 192.92C63.79 188.59 56.98 184.6 55.98 183.85C55.78 183.7 55.15 183.29 54.22 182.73" stroke="#13110C" stroke-width="0.5" stroke-miterlimit="10"/>
<path d="M65.3 209.77C65.3 209.77 60.89 196.68 60.88 192.34C60.86 188.61 55.81 185.13 53.77 183.76" stroke="#13110C" stroke-width="0.5" stroke-miterlimit="10"/>
<path d="M61.96 208.17C61.96 208.17 57.55 195.08 57.54 190.74C57.53 188.33 55.42 186.03 53.38 184.33" stroke="#13110C" stroke-width="0.5" stroke-miterlimit="10"/>
<path d="M84.7 180.94L79.46 186.02" stroke="#13110C" stroke-width="0.5" stroke-miterlimit="10"/>
<path d="M82.68 180.94L78.26 185.21" stroke="#13110C" stroke-width="0.5" stroke-miterlimit="10"/>
<path d="M80.37 180.94L76.8 184.41" stroke="#13110C" stroke-width="0.5" stroke-miterlimit="10"/>
<path d="M78.37 180.74L75.55 183.48" stroke="#13110C" stroke-width="0.5" stroke-miterlimit="10"/>
<path d="M76.13 180.62L74.11 182.58" stroke="#13110C" stroke-width="0.5" stroke-miterlimit="10"/>
<path d="M85.73 172.54H82.95V175.32H85.73V172.54Z" fill="#211C4B" stroke="#211C4B" stroke-miterlimit="10"/>
<path d="M92.15 172.85H89.37V175.63H92.15V172.85Z" fill="#211C4B" stroke="#211C4B" stroke-miterlimit="10"/>
<path d="M98.41 174.24H95.63V177.02H98.41V174.24Z" fill="#211C4B" stroke="#211C4B" stroke-miterlimit="10"/>
<path d="M79.98 172.54H77.2V175.32H79.98V172.54Z" fill="#211C4B" stroke="#211C4B" stroke-miterlimit="10"/>
<path d="M74.38 172.85H71.6V175.63H74.38V172.85Z" fill="#211C4B" stroke="#211C4B" stroke-miterlimit="10"/>
<path d="M68.24 173.92H65.46V176.7H68.24V173.92Z" fill="#211C4B" stroke="#211C4B" stroke-miterlimit="10"/>
<path d="M74.76 164.38C77.37 163.74 86.62 147.04 86.62 147.04C87.66 151.7 95.34 164.76 95.34 164.76C95.34 164.76 78.55 163.44 74.76 164.38Z" fill="#FFFCFB"/>
<path d="M79.01 162C80.54 161.62 85.97 151.82 85.97 151.82C86.58 154.56 91.09 162.22 91.09 162.22C91.09 162.22 81.23 161.45 79.01 162Z" fill="#13110C" stroke="#13110C" stroke-miterlimit="10"/>
<path d="M82.61 159.98C83.28 159.82 85.66 155.51 85.66 155.51C85.93 156.71 87.91 160.07 87.91 160.07C87.91 160.07 83.58 159.74 82.61 159.98Z" fill="#FFFCFB"/>
<path d="M35.85 209.77L35.7 167.3C35.7 167.3 31.4 165.34 28.98 165V216.18L35.85 209.77Z" fill="#B91818" stroke="#13110C" stroke-miterlimit="10"/>
<path d="M43.9801 214.17C49.5201 210.54 51.1601 199.46 51.1601 199.46C51.7701 192.02 43.9801 183.76 43.9801 183.76C43.9801 183.76 38.6001 204.1 40.6101 205.43C42.6201 206.75 43.9801 214.17 43.9801 214.17Z" fill="#8B92C8"/>
<path d="M37.4901 194.76C43.2001 185.04 43.7301 186.27 43.7301 186.27C43.7301 186.27 44.2601 193.37 43.7301 194.21C43.7301 194.21 49.7801 197.38 50.4301 199.03C50.4301 199.03 46.2001 202.55 43.7301 203.1C43.7301 203.1 44.6001 210.87 43.3801 212.71C43.3801 212.71 40.3801 204.66 37.0601 203.8L37.4901 194.76Z" fill="#FBE900" stroke="#13110C" stroke-miterlimit="10"/>
<path d="M37.58 193.49L37.47 167.42C37.47 167.42 32.04 165.35 28.97 164.99V218.95L37.65 212.2L37.62 204.3C37.62 204.3 41.98 206.36 43.19 214.57C43.19 214.57 44.57 207.15 39.81 201.62C39.81 201.62 45.09 201.36 47.08 199.11C47.08 199.11 44.4 196.19 39.9 195.79C39.9 195.79 43.62 191.25 43.97 183.76C43.98 183.76 39.83 192.01 37.58 193.49Z" fill="#FBE900" stroke="#13110C" stroke-miterlimit="10"/>
<path d="M35.85 209.77L35.7 167.3C35.7 167.3 31.4 165.34 28.98 165V216.18L35.85 209.77Z" fill="#B91818" stroke="#13110C" stroke-miterlimit="10"/>
<path d="M33.75 205.8L33.65 167.1C33.65 167.1 30.67 165.31 28.98 165V211.63L33.75 205.8Z" fill="#E30613" stroke="#13110C" stroke-miterlimit="10"/>
<path d="M138.86 169.64C138.29 168.8 138.4 167.73 139.1 167.25C139.81 166.77 140.84 167.05 141.42 167.89L141.45 167.93C142.02 168.77 141.91 169.84 141.21 170.32C140.5 170.8 139.47 170.51 138.9 169.68L138.86 169.64Z" fill="#FCD48E" stroke="#13110C" stroke-width="0.6" stroke-miterlimit="10"/>
<path d="M138.79 165.44C136.87 163.72 135.78 161.81 136.35 161.17C136.92 160.54 138.94 161.41 140.86 163.13L140.96 163.22C142.88 164.94 143.97 166.85 143.4 167.49C142.83 168.12 140.81 167.25 138.89 165.53L138.79 165.44Z" fill="#FCD48E" stroke="#13110C" stroke-width="0.6" stroke-miterlimit="10"/>
<path d="M139.81 162.31C137.89 160.59 136.8 158.68 137.37 158.04C137.94 157.41 139.96 158.28 141.88 160L141.98 160.09C143.9 161.81 144.99 163.72 144.42 164.36C143.85 164.99 141.83 164.12 139.91 162.4L139.81 162.31Z" fill="#FCD48E" stroke="#13110C" stroke-width="0.6" stroke-miterlimit="10"/>
<path d="M141.09 159.63C139.17 157.91 138.08 156 138.65 155.36C139.22 154.73 141.24 155.6 143.16 157.32L143.26 157.41C145.18 159.13 146.27 161.04 145.7 161.68C145.13 162.31 143.11 161.44 141.19 159.72L141.09 159.63Z" fill="#FCD48E" stroke="#13110C" stroke-width="0.6" stroke-miterlimit="10"/>
<path d="M52.99 172.26C52.99 172.26 66.14 161.28 76.1 141.21" stroke="#13110C" stroke-miterlimit="10"/>
<path d="M114.75 168.59C114.75 168.59 102.13 155.24 98.41 138.63H91.09C91.09 138.63 93.77 154.47 108.06 172.54L108.92 173.27L114.75 168.59Z" fill="white" stroke="#13110C" stroke-miterlimit="10"/>
<path d="M110.48 169.14C110.48 169.14 101.34 158.69 95.63 140.98" stroke="#13110C" stroke-miterlimit="10"/>
<path d="M116.17 179.19C119.48 176.57 125.1 177.88 125.1 177.88C132.63 180.42 137.23 175.75 137.23 175.75C142.89 170.84 136.6 169.14 136.6 169.14C136.6 169.14 133.2 168.36 130.99 170.56C130.99 170.56 123.34 169.5 121.09 170.56C121.08 170.56 115.1 172.27 116.17 179.19Z" fill="#FFEA24" stroke="#13110C" stroke-miterlimit="10"/>
<path d="M137.22 170.91C137.22 170.91 133.09 175.84 126.23 174.1C126.23 174.1 121.9 173.22 119.32 175.43" stroke="#13110C" stroke-miterlimit="10"/>
<path d="M146.23 136.75C146.23 136.75 139.45 145.2 140.09 148.27" stroke="#13110C" stroke-miterlimit="10"/>
<path d="M146.23 132.36C146.23 132.36 137.23 139.75 137.23 150.56" stroke="#13110C" stroke-miterlimit="10"/>
<path d="M142.18 134.09L141.96 128.39C141.96 128.39 138.16 133.05 137.68 133.75L142.18 134.09Z" fill="#FFEA24" stroke="#13110C" stroke-miterlimit="10"/>
<path d="M138.5 140.38L136.66 135.28C136.66 135.28 133.78 140.38 133.51 140.99L138.5 140.38Z" fill="#FFEA24" stroke="#13110C" stroke-miterlimit="10"/>
<path d="M136.2 146.66L133.05 142.02C133.05 142.02 131.12 146.53 131.11 148.27L136.2 146.66Z" fill="#FFEA24" stroke="#13110C" stroke-miterlimit="10"/>
<path d="M134.61 152.66L130.96 149.08C130.96 149.08 130.11 155.4 130.77 155.73L134.61 152.66Z" fill="#FFEA24" stroke="#13110C" stroke-miterlimit="10"/>
<path d="M130.78 155.73L127.3 158.52C129.12 135.01 137.99 127.16 137.99 127.16H143.13C143.13 127.16 136.23 133.98 133.29 141.45C133.3 141.45 128.99 151.98 130.78 155.73Z" fill="#211C4B" stroke="#14120D" stroke-miterlimit="10"/>
<path d="M124.25 160.97L122.23 157.8L127.4 152.41L122.23 147.04L129.54 144.09L124.6 136.75L132.57 135.65L129.98 127.16H128.73L130.52 134.09L122.23 135.91L127.3 143.35L119.6 147.04L124.85 152.41L118.5 158.52L122.69 162.22L124.25 160.97Z" fill="white" stroke="#13110C" stroke-miterlimit="10"/>
<path d="M127.3 127.16H123.46L122.99 135.27L127.3 127.16Z" fill="#E30613" stroke="#13110C" stroke-miterlimit="10"/>
<path d="M106.01 156.76C122.9 144.38 123.45 127.16 123.45 127.16H121.6C121.6 127.16 121.67 142.28 104.78 154.66L106.01 156.76Z" fill="#FFEA24" stroke="#13110C" stroke-miterlimit="10"/>
<path d="M60.61 157.87C46.47 143.38 49.28 127.23 49.28 127.23L51.09 127.55C51.09 127.55 48.07 141.63 62.22 156.12L60.61 157.87Z" fill="#FFEA24" stroke="#13110C" stroke-miterlimit="10"/>
<path d="M121.6 127.16C121.6 127.16 122.11 132.63 113.38 129.04L113.58 128.39C113.58 128.39 118.68 128.88 118.4 127.16" fill="#E30613"/>
<path d="M121.6 127.16C121.6 127.16 122.11 132.63 113.38 129.04L113.58 128.39C113.58 128.39 118.68 128.88 118.4 127.16" stroke="#13110C" stroke-miterlimit="10"/>
<path d="M113.19 129.46C113.19 129.46 121.04 131.53 119.9 135.27C119.9 135.27 117.62 139.04 110.99 134.09L111.89 132.78C114.88 134.78 116.28 133.58 116.28 133.58C116.63 132.78 112.49 130.54 112.49 130.54L113.19 129.46Z" fill="#E30613" stroke="#13110C" stroke-miterlimit="10"/>
<path d="M110.59 134.83C110.59 134.83 117.87 136.81 116.82 140.4C116.82 140.4 114.71 144.01 108.55 139.27L109.38 138.01C112.16 139.92 113.45 138.77 113.45 138.77C113.77 138.01 109.93 135.86 109.93 135.86L110.59 134.83Z" fill="#E30613" stroke="#13110C" stroke-miterlimit="10"/>
<path d="M108.25 139.87C108.25 139.87 114.65 142.75 113.22 146.24C113.22 146.24 110.81 149.64 105.8 144.11L106.73 142.94C109.02 145.2 110.35 144.2 110.35 144.2C110.75 143.47 107.52 140.83 107.52 140.83L108.25 139.87Z" fill="#E30613" stroke="#13110C" stroke-miterlimit="10"/>
<path d="M105.04 144.88C105.04 144.88 110.6 148.09 108.98 151.3C108.98 151.3 106.48 154.34 102.43 148.71L103.38 147.67C105.26 149.99 106.56 149.14 106.56 149.14C106.99 148.47 104.29 145.73 104.29 145.73L105.04 144.88Z" fill="#E30613" stroke="#13110C" stroke-miterlimit="10"/>
<path d="M52.01 127.17C52.01 127.17 50.89 132.31 59.39 129.98L59.28 129.34C59.28 129.34 54.5 129.17 54.97 127.57" fill="#E30613"/>
<path d="M52.01 127.17C52.01 127.17 50.89 132.31 59.39 129.98L59.28 129.34C59.28 129.34 54.5 129.17 54.97 127.57" stroke="#13110C" stroke-miterlimit="10"/>
<path d="M59.5299 130.4C59.5299 130.4 52.0199 131.39 52.6199 135.09C52.6199 135.09 54.2799 138.96 61.0099 135.07L60.3299 133.71C57.3299 135.24 56.1799 133.92 56.1799 133.92C55.9499 133.12 60.0499 131.5 60.0499 131.5L59.5299 130.4Z" fill="#E30613" stroke="#13110C" stroke-miterlimit="10"/>
<path d="M61.3 135.83C61.3 135.83 54.32 136.81 54.87 140.35C54.87 140.35 56.4 144.05 62.66 140.3L62.04 139C59.24 140.47 58.18 139.22 58.18 139.22C57.97 138.45 61.78 136.89 61.78 136.89L61.3 135.83Z" fill="#E30613" stroke="#13110C" stroke-miterlimit="10"/>
<path d="M62.8599 140.91C62.8599 140.91 56.5899 142.85 57.4999 146.35C57.4999 146.35 59.3299 149.88 64.6199 145.24L63.8999 144.02C61.5099 145.89 60.3899 144.76 60.3899 144.76C60.1099 144.01 63.4099 141.91 63.4099 141.91L62.8599 140.91Z" fill="#E30613" stroke="#13110C" stroke-miterlimit="10"/>
<path d="M65.24 146.08C65.24 146.08 59.71 148.44 60.83 151.7C60.83 151.7 62.78 154.91 67.2 150.06L66.45 148.95C64.44 150.92 63.33 149.95 63.33 149.95C63.01 149.26 65.84 146.99 65.84 146.99L65.24 146.08Z" fill="#E30613" stroke="#13110C" stroke-miterlimit="10"/>
<path d="M109.28 127.42C109.28 127.42 109.51 130.58 105.51 128.5L105.6 128.12C105.6 128.12 107.94 128.4 107.81 127.41" fill="#FFEA24"/>
<path d="M109.28 127.42C109.28 127.42 109.51 130.58 105.51 128.5L105.6 128.12C105.6 128.12 107.94 128.4 107.81 127.41" stroke="#13110C" stroke-width="0.5" stroke-miterlimit="10"/>
<path d="M105.42 128.75C105.42 128.75 109.02 129.95 108.5 132.1C108.5 132.1 107.45 134.28 104.41 131.42L104.82 130.66C106.19 131.81 106.83 131.12 106.83 131.12C106.99 130.66 105.09 129.36 105.09 129.36L105.42 128.75Z" fill="#FFEA24" stroke="#13110C" stroke-width="0.5" stroke-miterlimit="10"/>
<path d="M104.22 131.85C104.22 131.85 107.56 132.99 107.08 135.06C107.08 135.06 106.11 137.15 103.29 134.41L103.67 133.68C104.94 134.79 105.54 134.12 105.54 134.12C105.69 133.68 103.93 132.44 103.93 132.44L104.22 131.85Z" fill="#FFEA24" stroke="#13110C" stroke-width="0.5" stroke-miterlimit="10"/>
<path d="M103.15 134.76C103.15 134.76 106.09 136.42 105.43 138.44C105.43 138.44 104.32 140.4 102.03 137.21L102.46 136.53C103.51 137.84 104.12 137.26 104.12 137.26C104.3 136.84 102.82 135.32 102.82 135.32L103.15 134.76Z" fill="#FFEA24" stroke="#13110C" stroke-width="0.5" stroke-miterlimit="10"/>
<path d="M101.68 137.65C101.68 137.65 104.23 139.51 103.49 141.36C103.49 141.36 102.34 143.12 100.48 139.87L100.92 139.27C101.78 140.61 102.38 140.12 102.38 140.12C102.58 139.74 101.34 138.15 101.34 138.15L101.68 137.65Z" fill="#FFEA24" stroke="#13110C" stroke-width="0.5" stroke-miterlimit="10"/>
<path d="M105.21 127.16L103.62 129.89H65.71L68.41 127.16H105.21Z" fill="#E30613" stroke="#13110C" stroke-miterlimit="10"/>
<path d="M94.94 127.16L91.54 129.89" stroke="#13110C" stroke-miterlimit="10"/>
<path d="M82.19 127.16L79.01 129.89" stroke="#13110C" stroke-miterlimit="10"/>
<path d="M101.02 135.27H65.71V136.37H101.02V135.27Z" fill="white"/>
<path d="M102.05 130.82H65.71L66.46 133.84L67.51 131.85H69.15L70.3 133.84L71.5 131.85H73.14L74.04 134.13L75.59 131.85H76.88L77.93 134.13L79.01 131.85H80.6L81.67 134.13L82.97 131.85H84.59L85.46 134.13L87.21 131.85H88.5L89.45 134.47L91.09 131.85H92.54L93.59 134.47L94.94 131.85H96.28L97.18 134.47L98.78 131.85L100.48 132.03L101.27 133.84L102.05 131.85V130.82Z" fill="white" stroke="#13110C" stroke-width="0.4" stroke-miterlimit="10"/>
<path d="M70.06 144.39C70.06 144.39 66.42 145.44 65.62 143.37C65.62 143.37 65.25 140.98 69.38 141.62L69.47 142.48C67.69 142.31 67.55 143.24 67.55 143.24C67.68 143.71 69.98 143.7 69.98 143.7L70.06 144.39Z" fill="#FFEA24" stroke="#13110C" stroke-width="0.5" stroke-miterlimit="10"/>
<path d="M69.29 141.15C69.29 141.15 65.89 142.1 65.11 140.12C65.11 140.12 64.73 137.85 68.61 138.51L68.71 139.33C67.03 139.14 66.92 140.02 66.92 140.02C67.05 140.47 69.2 140.49 69.2 140.49L69.29 141.15Z" fill="#FFEA24" stroke="#13110C" stroke-width="0.5" stroke-miterlimit="10"/>
<path d="M57.12 153.83L54.37 156.29L53 157.51L50.12 160.08C50.12 160.08 37.88 145.52 35.86 140.41L47.73 127.23H49.3C49.28 127.23 47.75 142.57 57.12 153.83Z" fill="#E30613" stroke="#13110C" stroke-miterlimit="10"/>
<path d="M52.99 157.51C47.37 150.84 45.43 136.81 45.43 136.81L37.61 143.66L36.61 141.99L46.83 132.22C46.83 132.22 47.85 146.19 54.18 156.46L52.99 157.51Z" fill="white" stroke="#13110C" stroke-miterlimit="10"/>
<path d="M51.82 158.55C51.82 158.55 45.49 150.34 44.03 142.55L39.49 146.45" stroke="#13110C" stroke-miterlimit="10"/>
<path d="M28.8199 134.99C28.8199 134.99 33.5799 135.75 35.8399 140.42L47.7099 127.24L45.8499 127.23L36.9099 127.17C36.9099 127.17 32.2099 133.03 28.9699 135" fill="#FFEA24"/>
<path d="M28.8199 134.99C28.8199 134.99 33.5799 135.75 35.8399 140.42L47.7099 127.24L45.8499 127.23L36.9099 127.17C36.9099 127.17 32.2099 133.03 28.9699 135" stroke="#13110C" stroke-miterlimit="10"/>
<path d="M41.17 128.79H39.02V130.94H41.17V128.79Z" fill="#211C4B" stroke="#211C4B" stroke-miterlimit="10"/>
<path d="M37.08 132.53H35.35V134.19H37.08V132.53Z" fill="#211C4B" stroke="#211C4B" stroke-miterlimit="10"/>
<path d="M30.33 135.43L39.02 136.62L38.48 128.43L45.86 127.22L36.92 127.16L37.57 134.64L30.04 134.25L30.33 135.43Z" fill="white" stroke="#13110C" stroke-miterlimit="10"/>
<path d="M33.11 137.01C35.08 148.15 52.99 166.34 52.99 166.34L54.83 164.76C54.83 164.76 44.79 155.09 41.96 149.85C41.96 149.85 34.63 139.45 34.05 137.86C33.48 136.28 33.11 137.01 33.11 137.01Z" fill="#FFEA24" stroke="#13110C" stroke-miterlimit="10"/>
<path d="M51.82 165.11C51.82 165.11 46.75 170.21 44.71 168.98C44.71 168.98 41.3 166.89 48.26 161.2" fill="white"/>
<path d="M51.82 165.11C51.82 165.11 46.75 170.21 44.71 168.98C44.71 168.98 41.3 166.89 48.26 161.2" stroke="#13110C" stroke-miterlimit="10"/>
<path d="M45.66 166.33C45.66 165.93 45.98 165.61 46.38 165.61C46.78 165.61 47.1 165.93 47.1 166.33V166.81C47.1 167.21 46.78 167.53 46.38 167.53C45.98 167.53 45.66 167.21 45.66 166.81V166.33Z" stroke="#13110C" stroke-width="0.5" stroke-miterlimit="10"/>
<path d="M47.1099 161.05C47.3299 160.82 47.3299 160.45 47.1099 160.22C46.8799 159.99 46.5099 160 46.2799 160.22L41.9299 164.61C41.6999 164.84 41.6999 165.21 41.9299 165.43C42.1599 165.66 42.5299 165.66 42.7499 165.43L47.1099 161.05Z" fill="white" stroke="#13110C" stroke-miterlimit="10"/>
<path d="M46.17 159C46.17 159 40.6 163.54 38.7 162.11C38.7 162.11 35.52 159.68 43.05 154.74" fill="white"/>
<path d="M46.17 159C46.17 159 40.6 163.54 38.7 162.11C38.7 162.11 35.52 159.68 43.05 154.74" stroke="#13110C" stroke-miterlimit="10"/>
<path d="M39.91 159.57C39.95 159.18 40.31 158.89 40.7 158.93C41.09 158.97 41.38 159.32 41.34 159.72L41.29 160.2C41.25 160.59 40.9 160.88 40.5 160.84C40.11 160.8 39.82 160.44 39.86 160.05L39.91 159.57Z" stroke="#13110C" stroke-width="0.5" stroke-miterlimit="10"/>
<path d="M41.91 154.47C42.16 154.27 42.2 153.9 41.99 153.65C41.78 153.4 41.42 153.36 41.17 153.57L36.39 157.48C36.14 157.68 36.1 158.05 36.31 158.3C36.51 158.55 36.88 158.59 37.13 158.38L41.91 154.47Z" fill="white" stroke="#13110C" stroke-miterlimit="10"/>
<path d="M36.4799 146.3C36.4799 146.3 31.5399 149.44 30.1399 148.09C30.1399 148.09 27.8099 145.82 34.3599 142.55" fill="white"/>
<path d="M36.4799 146.3C36.4799 146.3 31.5399 149.44 30.1399 148.09C30.1399 148.09 27.8099 145.82 34.3599 142.55" stroke="#13110C" stroke-miterlimit="10"/>
<path d="M30.63 146.67C30.7 146.36 31.11 146.19 31.54 146.28C31.97 146.38 32.26 146.71 32.19 147.02L32.11 147.39C32.04 147.7 31.63 147.87 31.2 147.78C30.77 147.68 30.48 147.35 30.55 147.04L30.63 146.67Z" stroke="#13110C" stroke-width="0.5" stroke-miterlimit="10"/>
<path d="M29.5 165.11C29.3 165.07 29.09 165.03 28.89 164.99V162.38C37.11 163.32 47.62 170.96 47.62 170.96L52.3 175.69L49.03 177.16C49.03 177.16 43.15 168.68 28.88 164.99" fill="#FFEA24"/>
<path d="M29.5 165.11C29.3 165.07 29.09 165.03 28.89 164.99V162.38C37.11 163.32 47.62 170.96 47.62 170.96L52.3 175.69L49.03 177.16C49.03 177.16 43.15 168.68 28.88 164.99" stroke="#13110C" stroke-miterlimit="10"/>
<path d="M126.53 193.04C126.3 193.24 126.09 193.46 125.89 193.7L119.15 201.91L115.45 206.42C113.55 208.74 113.88 212.16 116.2 214.06L116.61 214.4C118.93 216.3 122.35 215.97 124.25 213.65L126.47 210.95L128.64 213.63C130.53 215.96 133.95 216.32 136.28 214.43L136.69 214.1C139.02 212.21 139.38 208.79 137.49 206.46L127.13 193.68C126.94 193.43 126.74 193.22 126.53 193.04Z" fill="#E30B13"/>
<path d="M15.23 49.4301C15.41 49.2801 15.57 49.1101 15.73 48.9201L20.97 42.5301L23.85 39.0301C25.33 37.2301 25.07 34.5701 23.2701 33.0801L22.9501 32.8201C21.1501 31.3401 18.49 31.6001 17 33.4101L15.28 35.5101L13.59 33.4301C12.12 31.6201 9.46005 31.3401 7.65005 32.8101L7.33005 33.0701C5.52005 34.5401 5.24005 37.2001 6.71005 39.0101L14.77 48.9501C14.91 49.1301 15.06 49.2901 15.23 49.4301Z" fill="#E30B13"/>
<path d="M10.97 23.1199C10.97 23.9699 10.97 24.3299 10.97 24.1899C10.97 25.0299 11.14 25.6999 11.5 26.2099C11.92 26.8099 12.55 27.1099 13.39 27.1099C14.1 27.1099 14.68 26.8499 15.11 26.3299C15.5 25.8499 15.7 25.2599 15.7 24.5499V14.1499H13.79V11.6499H19.94V14.1499H18.11V24.5499C18.11 25.9599 17.68 27.1499 16.83 28.0999C15.93 29.0899 14.79 29.5899 13.38 29.5899C11.97 29.5899 10.8 29.0999 9.88995 28.1199C8.97995 27.1399 8.52995 25.9399 8.54995 24.5299V23.1199H10.97Z" fill="#E30B13"/>
<path d="M158.94 206.01C158.76 206.16 158.6 206.33 158.44 206.52L153.2 212.91L150.32 216.41C148.84 218.21 149.1 220.87 150.9 222.36L151.22 222.62C153.02 224.1 155.68 223.84 157.17 222.04L158.89 219.94L160.58 222.02C162.05 223.83 164.71 224.11 166.52 222.64L166.84 222.38C168.65 220.91 168.93 218.25 167.46 216.44L159.4 206.5C159.27 206.32 159.11 206.16 158.94 206.01Z" fill="#E30B13"/>
<path d="M163.2 232.33C163.2 231.48 163.2 231.12 163.2 231.26C163.2 230.42 163.03 229.75 162.67 229.24C162.25 228.64 161.62 228.34 160.78 228.34C160.07 228.34 159.49 228.6 159.06 229.12C158.67 229.6 158.47 230.19 158.47 230.9V241.3H160.38V243.8H154.23V241.3H156.06V230.9C156.06 229.49 156.49 228.3 157.34 227.35C158.24 226.36 159.38 225.86 160.78 225.86C162.19 225.86 163.36 226.35 164.27 227.33C165.18 228.31 165.63 229.51 165.61 230.92V232.33H163.2Z" fill="#E30B13"/>
</svg>
