<svg width="180" height="254" viewBox="0 0 180 254" fill="none" xmlns="http://www.w3.org/2000/svg">
<rect x="0.5" y="0.5" width="179" height="253" rx="14.5" fill="white" stroke="#1D1D1B"/>
<path d="M140.48 125.61C126.48 104.26 103.39 93.6299 103.39 93.6299L98.76 100.98V106.09C98.76 106.09 112.56 111.51 124.73 125.61H140.48Z" fill="#E31518" stroke="#13110C" stroke-miterlimit="10"/>
<path d="M133.06 125.61C131.81 123.34 134.95 118.95 134.95 118.95L134.05 117.94C128.72 121.64 124.64 116.79 124.64 116.79C120.22 114.62 123.12 107.17 123.12 107.17L122.02 106.21C116.85 111.42 112.47 107.79 112.47 107.79C107.97 107.04 109.91 97.7098 109.91 97.7098L109.06 97.2998C107.49 102.71 99.1 100.43 99.1 100.43L98.75 102.61C98.75 102.61 104.14 102.95 104.8 102.62L104.72 106.09L108.05 104.88C108.05 104.88 108.75 112.05 116.99 110.88V115.13L120.54 113.88C120.54 113.88 121.64 120.13 128.56 121.71L127.73 125.21L130.81 123.71C130.81 123.71 131.14 125.09 131.64 125.61H133.06Z" fill="white"/>
<path d="M75.25 82.0698V101.55L96.27 101.34L108.06 82.0698H75.25Z" fill="#E31518" stroke="#13110C" stroke-miterlimit="10"/>
<path d="M75.25 78.5402V73.2502L114.24 72.9502L109.96 78.5402H75.25Z" fill="#211C4B" stroke="#13110C" stroke-miterlimit="10"/>
<path d="M55.25 101.34H74.09V68.98L55.25 80.58V101.34Z" fill="#211C4B" stroke="#13110C" stroke-miterlimit="10"/>
<path d="M40.75 87.77C40.75 87.77 61.77 98.55 74.62 125.61H56.5C56.5 125.61 40.16 108.18 40.75 87.77Z" fill="#211C4B" stroke="#13110C" stroke-miterlimit="10"/>
<path d="M65.1799 115.43C58.7199 119.54 61.4399 125.61 61.4399 125.61H59.1399C57.5399 124.53 58.0199 122.05 58.0199 122.05C48.6799 122.1 50.8699 112.09 50.8699 112.09C41.6299 109.87 46.7099 101.06 46.7099 101.06C39.8699 96.1 42.6699 90.5 42.6699 90.5C42.6699 90.5 45.5299 90.23 44.8299 93.92C44.8299 93.92 45.2199 98.65 50.8599 99.31C50.8599 99.31 56.6299 99.2 56.8399 101.5C56.8399 101.5 57.2099 102.78 50.0099 103.1C50.0099 103.1 46.2699 107.53 52.1999 108.97C52.1999 108.97 59.7299 108.49 61.6499 107.48C61.6499 107.48 64.3699 107.86 59.6699 110.1C59.6699 110.1 51.8699 113.3 54.2199 116.67C54.2199 116.67 56.7299 121.69 61.7999 115.71C61.7999 115.71 67.8999 110.64 65.8099 114.43L65.1799 115.43Z" fill="#FFE922"/>
<path d="M38.98 125.61H53.9501C53.9501 125.61 40.11 114.84 38.17 86.3799C38.17 86.3799 32.07 83.4899 27.73 82.6899C27.73 82.6899 27.48 112.43 38.98 125.61Z" fill="#E31518" stroke="#13110C" stroke-miterlimit="10"/>
<path d="M29.83 97.3102C36.33 93.6702 32.19 84.7002 32.19 84.7002L34.86 85.9102C34.86 85.9102 35.59 92.1502 34.86 94.5802L37.95 94.8202L36.01 97.6702C36.01 97.6702 42.62 105.25 40.19 111.12H42.55L41.28 114.51C41.28 114.51 47.04 119 46.98 125.61H45.04C45.04 125.61 45.28 113.91 35.47 116.82C35.47 116.82 32.84 117.06 34.52 114.82C34.52 114.82 40.27 111.19 38.41 104.76C38.41 104.76 36.87 98.5202 30.38 99.4902C30.37 99.4902 26.8 99.0002 29.83 97.3102Z" fill="white"/>
<path d="M95.13 72.95H111.28C111.28 72.95 107.34 65.17 105.41 65.5C103.48 65.84 95.58 66.46 95.51 67.28C95.44 68.1 93.66 70.78 94.31 71.68C94.97 72.6 95.13 72.95 95.13 72.95Z" fill="#AFA3C7" stroke="#13120D" stroke-width="0.5" stroke-miterlimit="10"/>
<path d="M79.54 41.1502C79.54 41.1502 77.15 50.2101 73.57 55.5501C73.57 55.5501 72.65 60.6702 73.57 63.9902C73.57 63.9902 72.36 67.3401 69.92 65.2001C69.92 65.2001 64.32 63.2201 64.15 69.1401C64.15 69.1401 64.23 79.3901 74.32 73.8901C74.32 73.8901 76.67 71.7201 77.2 74.3901C77.2 74.3901 81.73 79.2201 86.32 75.0601C86.32 75.0601 88.24 71.4801 89.24 74.5601C89.24 74.5601 93.41 77.8102 95.57 71.9802C95.57 71.9802 95.15 68.5602 98.15 68.6502C98.15 68.6502 102.98 65.2301 102.98 64.5701C102.98 63.9101 105.15 44.1502 105.15 44.1502C105.15 44.1502 105.73 36.0701 97.15 37.9801C88.56 39.8801 83.9 39.3001 83.9 39.3001L79.54 41.1502Z" fill="#E2C80B" stroke="#13110C" stroke-miterlimit="10"/>
<path d="M131.65 26.8301H69.92L78.85 41.2301C78.85 41.2301 107.14 37.5101 122.07 42.2201L131.65 26.8301Z" fill="#E31518" stroke="#13110C" stroke-miterlimit="10"/>
<path d="M122.06 42.22L123.77 39.48C104.39 33.11 77.1899 38.57 77.1899 38.57L78.8399 41.23C78.8499 41.23 107.9 37.51 122.06 42.22Z" fill="#211C4B" stroke="#13110C" stroke-miterlimit="10"/>
<path d="M77.52 26.8301L80.59 31.8801H88.32L88.65 26.8301H90.71L90.25 33.7501L79.19 34.5301L74.99 26.8301H77.52Z" fill="#211C4B"/>
<path d="M124.33 26.8298L121.28 31.8998L113.55 31.9398L113.2 26.8798L111.14 26.8898L111.63 33.8098L122.69 34.5398L126.86 26.8198L124.33 26.8298Z" fill="#211C4B"/>
<path d="M94.51 26.8301V32.7401H106.91V26.8301H104.97L104.91 31.4201L97.11 31.5001V26.8301H94.51Z" fill="#211C4B"/>
<path d="M12.0601 19.4102C12.0601 20.2602 12.0601 20.6202 12.0601 20.4802C12.0601 21.3202 12.2301 21.9902 12.5901 22.5002C13.0101 23.1002 13.6401 23.4002 14.4801 23.4002C15.1901 23.4002 15.7701 23.1402 16.2001 22.6202C16.5901 22.1402 16.7901 21.5502 16.7901 20.8402V10.4502H14.8801V7.9502H21.0301V10.4502H19.2001V20.8502C19.2001 22.2602 18.7701 23.4502 17.9201 24.4002C17.0201 25.3902 15.8801 25.8902 14.4801 25.8902C13.0701 25.8902 11.9001 25.4002 10.9901 24.4202C10.0801 23.4402 9.63005 22.2402 9.65005 20.8302V19.4202H12.0601V19.4102Z" fill="#13110C"/>
<path d="M164.77 234.54C164.77 233.69 164.77 233.33 164.77 233.47C164.77 232.63 164.6 231.96 164.24 231.45C163.82 230.85 163.19 230.55 162.35 230.55C161.64 230.55 161.06 230.81 160.63 231.33C160.24 231.81 160.04 232.4 160.04 233.11V243.5H161.95V246H155.8V243.5H157.63V233.1C157.63 231.69 158.06 230.5 158.91 229.55C159.81 228.56 160.95 228.06 162.35 228.06C163.76 228.06 164.93 228.55 165.84 229.53C166.75 230.51 167.2 231.71 167.18 233.12V234.53H164.77V234.54Z" fill="#13110C"/>
<path d="M151.48 26.5H27.73V224.73H151.48V26.5Z" stroke="#13110C" stroke-miterlimit="10"/>
<path d="M151.48 125.61H89.61H74.62L72.72 121.84L102.6 121.52L104.34 125.61H124.48C124.48 125.61 112.85 111.82 98.76 106.35C98.76 106.35 100.03 116.61 104.34 125.61" fill="#13110C"/>
<path d="M151.48 125.61H89.61H74.62L72.72 121.84L102.6 121.52L104.34 125.61M104.34 125.61H124.48C124.48 125.61 112.85 111.82 98.76 106.35C98.76 106.35 100.03 116.61 104.34 125.61Z" stroke="#13110C" stroke-miterlimit="10"/>
<path d="M122.61 59.86C122.61 59.86 122.92 64.52 121.45 64.76L121.3 65.18L120.77 66.72C120.77 66.72 122.68 72.29 119 72.97C119 72.97 111.4 73.83 108.03 71.38C108.03 71.38 100.25 68.01 101.54 65.5C102.95 61.58 100.79 60.11 100.79 60.11C98.69 58.46 100.49 53.37 100.49 53.37C101.89 50 102.85 40.41 102.85 40.41C105.61 39.31 121.19 41.94 121.19 41.94C121.19 41.94 120.1 47.73 122.61 51.77C122.61 51.78 130.82 62.68 122.61 59.86C122.61 59.86 119.74 61.27 119 58.27L122.61 59.86Z" fill="#FED68A"/>
<path d="M122.61 59.86C122.61 59.86 122.92 64.52 121.45 64.76L121.3 65.18L120.77 66.72C120.77 66.72 122.68 72.29 119 72.97C119 72.97 111.4 73.83 108.03 71.38C108.03 71.38 100.25 68.01 101.54 65.5C102.95 61.58 100.79 60.11 100.79 60.11C98.69 58.46 100.49 53.37 100.49 53.37C101.89 50 102.85 40.41 102.85 40.41C105.61 39.31 121.19 41.94 121.19 41.94C121.19 41.94 120.1 47.73 122.61 51.77C122.61 51.78 130.82 62.68 122.61 59.86ZM122.61 59.86C122.61 59.86 119.74 61.27 119 58.27" stroke="#13110C" stroke-miterlimit="10"/>
<path d="M118.2 65.0698L121.3 65.1898" stroke="#13110C" stroke-miterlimit="10"/>
<path d="M112.99 61.7002C112.99 61.7002 112.1 59.8002 111.14 61.3902C111.14 61.3902 110.24 64.8202 114.95 63.7802C114.95 63.7802 118.36 61.2102 119.75 62.1302" stroke="#13110C" stroke-miterlimit="10"/>
<path d="M109.01 46.8202C109.01 46.8202 115.76 42.0402 119 45.2302" stroke="#13110C" stroke-miterlimit="10"/>
<path d="M117.77 50.1198C115.03 52.1098 113.05 50.7298 113.05 50.7298C113.17 48.1598 117.52 48.0298 117.52 48.0298C117.52 48.0298 119.23 49.0598 117.77 50.1198Z" fill="#13110C"/>
<path d="M117.1 47.3701C117.1 47.3701 111.95 48.2001 110.06 49.6201" stroke="#13110C" stroke-miterlimit="10"/>
<path d="M119 50.9199C119 50.9199 118.38 52.9999 113.57 53.6799" stroke="#13110C" stroke-miterlimit="10"/>
<path d="M81.09 42.2202C81.09 42.2202 77.75 52.9302 76.12 54.8402C74.5 56.7502 75.93 62.6802 76.12 63.4402C76.12 63.4402 76.88 66.4202 79.46 65.0702C79.46 65.0702 77.07 63.9802 78.22 62.3702C78.22 62.3702 81.37 59.9402 81.76 63.9802C81.76 63.9802 80.8 68.9802 76.03 66.4002C76.03 66.4002 73.87 62.1002 75 58.4702" stroke="#13110C" stroke-width="0.5" stroke-miterlimit="10"/>
<path d="M83.4699 59.23C83.4699 59.23 82.3199 61.62 84.2299 64.39C84.2299 64.39 86.7499 68.5 89.5999 65.54C89.5999 65.54 91.2099 61.24 88.2499 61.24C88.2499 61.24 86.1499 60.88 87.4899 62.92C87.4899 62.92 89.6399 64.83 87.2999 65.07C87.2999 65.07 84.2399 66.1 84.1499 60.76" stroke="#13110C" stroke-width="0.5" stroke-miterlimit="10"/>
<path d="M90.71 62.9199C90.71 62.9199 92.52 68.2799 95.8 68.1199C99.07 67.9599 103.22 66.9599 101.38 60.7599C101.38 60.7599 97.05 57.0399 95.33 61.1499C95.33 61.1499 94.91 65.3999 98.29 63.6699C98.29 63.6699 97.72 60.9199 99.25 62.3699C99.25 62.3699 99.73 71.4499 91.7 63.6699" stroke="#13110C" stroke-width="0.5" stroke-miterlimit="10"/>
<path d="M67.15 75.0602C67.15 75.0602 59.97 63.8602 70.96 67.1402C70.96 67.1402 73.18 70.3202 69.92 71.5602C69.92 71.5602 66.65 70.8102 69.05 69.4602C69.05 69.4602 71.25 68.8002 69.34 68.1302C67.43 67.4602 64.09 66.7502 66.95 73.1202" stroke="#13110C" stroke-width="0.5" stroke-miterlimit="10"/>
<path d="M83.95 74.4298C84.51 73.8798 81.04 76.5998 79.73 74.4298C78.42 72.2598 78.89 73.8598 80.8 73.1198C82.71 72.3898 80.8 70.3198 80.8 70.3198C77.36 69.1698 77.84 73.1198 77.84 73.1198C77.84 73.1198 80.42 77.8698 83.95 74.4298Z" stroke="#13110C" stroke-width="0.5" stroke-miterlimit="10"/>
<path d="M93.51 73.5702C92.27 74.9102 90.64 74.5302 89.61 72.9002C88.58 71.2702 90.72 71.1902 90.72 71.1902C90.72 71.1902 91.81 71.0902 91.42 72.2402C91.02 73.3802 91.6 74.3602 93.51 73.5702Z" stroke="#13110C" stroke-width="0.5" stroke-miterlimit="10"/>
<path d="M82.42 42.6099C82.42 42.6099 78.65 54.1699 77.81 55.6099C76.97 57.0499 76.79 60.2999 77.81 61.1499" stroke="#13110C" stroke-width="0.5" stroke-miterlimit="10"/>
<path d="M84.01 42.6099C84.01 42.6099 79.5 53.9799 79.77 56.8999C80.03 59.8099 78.41 58.3799 80.03 59.8099" stroke="#13110C" stroke-width="0.5" stroke-miterlimit="10"/>
<path d="M86.15 42.6099C86.15 42.6099 82.14 51.5899 82.42 54.1699C82.71 56.7499 80.99 58.7599 81.75 59.8099" stroke="#13110C" stroke-width="0.5" stroke-miterlimit="10"/>
<path d="M88.16 42.2202C88.16 42.2202 81.82 55.5402 84.66 59.2302" stroke="#13110C" stroke-width="0.5" stroke-miterlimit="10"/>
<path d="M89.61 42.6099C89.61 42.6099 83.97 56.1299 86.59 59.2099" stroke="#13110C" stroke-width="0.5" stroke-miterlimit="10"/>
<path d="M91.79 42.2202C91.79 42.2202 85.14 56.5602 89.33 59.8102" stroke="#13110C" stroke-width="0.5" stroke-miterlimit="10"/>
<path d="M93.51 42.6099C93.51 42.6099 88.64 57.5099 91.79 60.7599" stroke="#13110C" stroke-width="0.5" stroke-miterlimit="10"/>
<path d="M96.27 42.2202C96.27 42.2202 91.21 56.6202 93.5 62.3702" stroke="#13110C" stroke-width="0.5" stroke-miterlimit="10"/>
<path d="M98.38 42.6099C98.38 42.6099 94.65 56.6599 95.8 58.4699" stroke="#13110C" stroke-width="0.5" stroke-miterlimit="10"/>
<path d="M100.48 42.9902C100.48 42.9902 96.85 55.5102 97.99 57.8002" stroke="#13110C" stroke-width="0.5" stroke-miterlimit="10"/>
<path d="M69.14 73.1199C69.14 73.1199 75.57 71.6499 76.69 69.3599" stroke="#13110C" stroke-width="0.5" stroke-miterlimit="10"/>
<path d="M72.92 69.3601C72.92 69.3601 74.53 69.2801 74.99 67.1401" stroke="#13110C" stroke-width="0.5" stroke-miterlimit="10"/>
<path d="M80.91 68.12C80.91 68.12 83.27 68.68 83.13 66.54" stroke="#13110C" stroke-width="0.5" stroke-miterlimit="10"/>
<path d="M83.14 72.4201C83.14 72.4201 85.45 71.0301 85.89 67.1401" stroke="#13110C" stroke-width="0.5" stroke-miterlimit="10"/>
<path d="M86.59 72.4199C86.59 72.4199 89.61 69.1899 89.61 67.3599" stroke="#13110C" stroke-width="0.5" stroke-miterlimit="10"/>
<path d="M92.91 71.2399C92.91 71.2399 93.22 69.1899 91.41 67.3599" stroke="#13110C" stroke-width="0.5" stroke-miterlimit="10"/>
<path d="M100.71 68.1201L105.63 72.2501" stroke="#13110C" stroke-width="0.5" stroke-miterlimit="10"/>
<path d="M99.45 68.98L103.01 72.15" stroke="#13110C" stroke-width="0.5" stroke-miterlimit="10"/>
<path d="M98.5699 69.7798L101.23 72.2498" stroke="#13110C" stroke-width="0.5" stroke-miterlimit="10"/>
<path d="M97.1899 70.5698L99.1899 72.4198" stroke="#13110C" stroke-width="0.5" stroke-miterlimit="10"/>
<path d="M139.9 71.4898C139.9 71.4898 134.94 69.7398 134.94 63.6698C134.94 63.6698 134.75 57.4098 137.42 55.9098L137.94 55.4298L133.91 51.2098L137.84 46.8198C137.84 46.8198 134.94 41.5798 135.22 36.3898C135.22 36.3898 134.56 28.8598 140.83 28.2998C140.83 28.2998 149.23 31.5898 142.89 44.1298L141.58 46.8198L145.36 51.6898L141.49 55.1698C141.49 55.1698 146.08 60.4098 144.67 66.0198C144.67 66.0098 143.27 69.5798 139.9 71.4898Z" fill="#FFE922" stroke="#13110C" stroke-miterlimit="10"/>
<path d="M141.4 36.9098C141.4 39.4398 140.83 41.4998 140.14 41.4998C139.44 41.4998 138.88 39.4498 138.88 36.9098C138.88 34.3798 139.45 32.3198 140.14 32.3198C140.83 32.3298 141.4 34.3798 141.4 36.9098Z" fill="#E31518" stroke="#13110C" stroke-miterlimit="10"/>
<path d="M141.4 63.5C141.4 65.87 140.69 67.79 139.81 67.79C138.93 67.79 138.22 65.87 138.22 63.5C138.22 61.13 138.93 59.21 139.81 59.21C140.68 59.21 141.4 61.13 141.4 63.5Z" fill="#E31518" stroke="#13110C" stroke-miterlimit="10"/>
<path d="M138.87 41.5C138.87 41.5 140.25 47.22 144.18 50.17" stroke="#13110C" stroke-miterlimit="10"/>
<path d="M139.36 58.73C139.36 58.73 139.93 55.09 135.4 52.75" stroke="#13110C" stroke-miterlimit="10"/>
<path d="M138.21 48.04C138.21 48.04 138.35 51.87 141.04 53.68" stroke="#13110C" stroke-miterlimit="10"/>
<path d="M151.48 90.9802L130.15 77.3702L120.94 71.4902" stroke="#13110C" stroke-miterlimit="10"/>
<path d="M141.54 84.6401L143.91 83.6801C145.44 83.1701 144.33 80.7201 144.33 80.7201C145.95 79.0101 144.15 77.3901 144.15 77.3901C146.69 76.5601 143.83 73.9701 143.83 73.9701C145.91 73.1401 144.99 71.2401 144.99 71.2401C143.74 71.0801 142.3 71.1601 141.01 71.3101C139.02 71.5501 137.4 71.9801 137.4 71.9801C132.78 71.5201 130.37 76.7901 130.37 76.7901L130.17 77.3801L141.54 84.6401Z" fill="#FED68A" stroke="#13110C" stroke-miterlimit="10"/>
<path d="M138.59 73.9599C138.59 73.9599 141.46 73.7699 143.82 73.9599" stroke="#13110C" stroke-miterlimit="10"/>
<path d="M144.14 77.3799H138.21" stroke="#13110C" stroke-miterlimit="10"/>
<path d="M144.32 80.71H139.38" stroke="#13110C" stroke-miterlimit="10"/>
<path d="M38.98 125.61C27.48 114.09 27.73 82.6899 27.73 82.6899V121.74V125.61H33.71H39.0601" fill="#13110C"/>
<path d="M38.98 125.61C27.48 114.09 27.73 82.6899 27.73 82.6899V121.74V125.61H33.71H39.0601" stroke="#13110C" stroke-miterlimit="10"/>
<path d="M34.51 125.61C34.51 125.61 30.54 122.81 27.73 121.36V123.48C27.73 123.48 30.18 124.96 30.94 125.6H34.51V125.61Z" fill="#FFE922" stroke="#13110C" stroke-miterlimit="10"/>
<path d="M56.5 125.61C38.89 106.72 40.75 87.7698 40.75 87.7698L38.44 86.5698C38.44 86.5698 38.27 110.6 53.95 125.61H56.5Z" fill="#FFE922" stroke="#13110C" stroke-miterlimit="10"/>
<path d="M28.92 86.5801C29.59 86.8901 31.4 88.7101 31.4 88.7101L28.92 86.5801Z" fill="white"/>
<path d="M28.92 86.5801C29.59 86.8901 31.4 88.7101 31.4 88.7101" stroke="white" stroke-miterlimit="10"/>
<path d="M29.34 94.7602C29.34 94.7602 31.64 93.0002 31.82 91.9702L29.34 94.7602Z" fill="white"/>
<path d="M29.34 94.7602C29.34 94.7602 31.64 93.0002 31.82 91.9702" stroke="white" stroke-miterlimit="10"/>
<path d="M30.58 102.34C30.58 102.34 35.03 103.92 36.06 105.16L30.58 102.34Z" fill="white"/>
<path d="M30.58 102.34C30.58 102.34 35.03 103.92 36.06 105.16" stroke="white" stroke-miterlimit="10"/>
<path d="M33.4 112.1L36.73 107.12" stroke="white" stroke-miterlimit="10"/>
<path d="M36.73 119.25L41.7 120.4" stroke="white" stroke-miterlimit="10"/>
<path d="M42.6699 122.52L41.7 125.12" stroke="white" stroke-miterlimit="10"/>
<path d="M53.43 106.36C52.74 107.33 52.42 107.13 52.42 107.13C52.42 107.13 50.23 102.97 52.63 104.16C52.63 104.16 55.03 104.97 58.56 104.44C58.56 104.44 60.32 105.29 56.74 105.83C56.74 105.82 53.92 105.67 53.43 106.36Z" fill="#FFE922"/>
<path d="M47.47 93.3701C47.47 93.3701 47.35 97.7101 49 97.2801C50.65 96.8501 50.07 94.9301 49.32 94.2901C48.57 93.6501 47.47 93.3701 47.47 93.3701Z" fill="#FFE922"/>
<path d="M59.23 115.36C59.1 116.65 58.68 116.64 58.68 116.64C58.68 116.64 54.35 113.99 57.28 113.76C57.28 113.76 60 113.19 63.07 110.74C63.07 110.74 65.2 110.56 62.09 113.03C62.09 113.03 59.32 114.45 59.23 115.36Z" fill="#FFE922"/>
<path d="M65.3299 121.62C65.6199 122.85 65.2299 122.96 65.2299 122.96C65.2299 122.96 60.3999 121.64 63.0199 120.65C63.0199 120.65 65.3399 119.39 67.3799 116.3C67.3799 116.3 69.2899 115.56 67.2199 118.7C67.2099 118.69 65.1199 120.75 65.3299 121.62Z" fill="#FFE922"/>
<path d="M65.21 125.61C65.21 125.61 68.54 119.01 69.34 118.47C71 117.35 68.86 126.75 69.34 125.61H65.21Z" fill="#FFE922"/>
<path d="M42.08 88.71C42.08 88.71 48.11 91.95 53 96.66L53.2 81.85L42.08 88.71L65.83 74.04L42.08 88.71Z" fill="#E31518"/>
<path d="M42.08 88.71C42.08 88.71 48.11 91.95 53 96.66L53.2 81.85L42.08 88.71ZM42.08 88.71L65.83 74.04" stroke="#13110C" stroke-miterlimit="10"/>
<path d="M52.99 96.6601L53.19 81.8501L55.25 80.5801V98.7401L52.99 96.6601Z" fill="white" stroke="#13110C" stroke-miterlimit="10"/>
<path d="M98.76 100.99C95.28 97.6298 87.91 100.81 87.91 100.81C83.84 97.0398 76.65 100.81 76.65 100.81C70.4 97.0398 65.16 101.28 65.16 101.28C60.8 97.7998 57.04 100.5 57.04 100.5L62.13 106.09C62.13 106.09 64.2 105.48 65.21 106.09C65.21 106.09 71.17 102.95 76.18 106.09C76.18 106.09 82.9 102.83 87.61 106.09C87.61 106.09 94.04 103.1 98.75 105.88V100.99H98.76Z" fill="white" stroke="#13110C" stroke-miterlimit="10"/>
<path d="M58.67 102.19C60.17 101.75 62.56 101.63 65.17 103.7C65.17 103.7 70.42 99.4602 76.66 103.23C76.66 103.23 83.85 99.4602 87.92 103.23C87.92 103.23 95.29 100.05 98.77 103.41" stroke="#13110C" stroke-miterlimit="10"/>
<path d="M58.36 78.6599V99.8699L60.74 99.5099V77.1899L58.36 78.6599Z" fill="white" stroke="#13110C" stroke-miterlimit="10"/>
<path d="M72.92 74.57V99.39L75.25 100.09V73.25L72.92 74.57Z" fill="white" stroke="#13110C" stroke-miterlimit="10"/>
<path d="M70.44 80.49C72.54 84.16 67.74 83.67 67.74 83.67L68.38 86.5H66.14L66.69 83.5C66.69 83.5 61.44 83.7 64.56 79.13L67.27 76.21L70.44 80.49Z" fill="white"/>
<path d="M70.44 92.0598C72.54 95.7298 67.74 95.2398 67.74 95.2398L68.38 98.0698H66.14L66.69 95.0698C66.69 95.0698 61.44 95.2698 64.56 90.6998L67.27 87.7798L70.44 92.0598Z" fill="white"/>
<path d="M75.25 78.54V82.07H108.06L109.96 78.54H75.25Z" fill="#FFE922" stroke="#13110C" stroke-miterlimit="10"/>
<path d="M78.21 99.1301V85.1602L102.73 85.3602L94.75 98.7402" stroke="#13110C" stroke-miterlimit="10"/>
<path d="M82.03 98.7398V88.5298H97.19L91.66 98.7398" stroke="#13110C" stroke-miterlimit="10"/>
<path d="M85.4399 98.38V90.98H92.1699L88.0999 98.74" stroke="white" stroke-miterlimit="10"/>
<path d="M97.1899 99.8398L98.7599 100.99L116.33 73.1198L114.24 73.0698L109.96 78.5398L108.06 82.0698L97.1899 99.8398Z" fill="white" stroke="#13110C" stroke-miterlimit="10"/>
<path d="M101.56 99.13C101.56 99.13 104.48 98.46 105.23 97.46" stroke="white" stroke-miterlimit="10"/>
<path d="M111.73 100.99C111.73 100.99 111.65 104.97 112.4 105.55" stroke="white" stroke-miterlimit="10"/>
<path d="M115.15 106.69C115.15 106.69 117.73 106.13 118.48 105.54" stroke="white" stroke-miterlimit="10"/>
<path d="M124.48 109.62C124.48 109.62 123.15 113.63 124.48 114.46" stroke="white" stroke-miterlimit="10"/>
<path d="M126.06 116.13C126.06 116.13 129.73 117.63 130.89 116.96" stroke="white" stroke-miterlimit="10"/>
<path d="M136.21 122.3C136.21 122.3 135.82 124.47 135.23 124.55" stroke="white" stroke-miterlimit="10"/>
<path d="M133.57 79.5502L118.48 102.91C114.93 99.6102 103.4 93.6302 103.4 93.6302L116.33 73.1102C116.33 73.1102 120.18 73.4902 120.94 71.4902L133.57 79.5502Z" fill="#211C4B" stroke="#13110C" stroke-miterlimit="10"/>
<path d="M122.3 82.0099C122.02 86.2299 118.29 83.1599 118.29 83.1599L117.26 85.8699L115.39 84.6299L117.51 82.4299C117.51 82.4299 113.02 79.6899 118.15 77.6199L122.02 76.6899L122.3 82.0099Z" fill="white"/>
<path d="M114.73 92.5402C114.45 96.7602 110.72 93.6902 110.72 93.6902L109.69 96.4002L107.82 95.1602L109.94 92.9602C109.94 92.9602 105.45 90.2202 110.58 88.1502L114.45 87.2202L114.73 92.5402Z" fill="white"/>
<path d="M113.01 99.0598L114.73 100.14L129.78 77.1398L128.05 76.0298L113.01 99.0598Z" fill="white" stroke="#13110C" stroke-miterlimit="10"/>
<path d="M131.8 82.2998L151.48 94.8598V90.9798L133.57 79.5498L131.8 82.2998Z" fill="#E31518" stroke="#13110C" stroke-miterlimit="10"/>
<path d="M131.8 82.2998L130.29 84.6398L151.48 98.7398V94.8598L131.8 82.2998Z" fill="#211C4B" stroke="#13110C" stroke-miterlimit="10"/>
<path d="M130.29 84.6401L128.28 87.7501L151.48 102.92V98.7401L130.29 84.6401Z" fill="#E31518" stroke="#13110C" stroke-miterlimit="10"/>
<path d="M151.48 113.8C139.67 108.05 136.84 93.3499 136.84 93.3499L134.24 91.6499C134.24 91.6499 136.85 110.72 151.48 116.63V113.8Z" fill="#FFE922" stroke="#13110C" stroke-miterlimit="10"/>
<path d="M151.48 113.8V102.92L136.84 93.3501C136.84 93.3501 139.8 108.46 151.48 113.8Z" fill="#211C4B" stroke="#13110C" stroke-miterlimit="10"/>
<path d="M150.33 108.16C150.33 109.08 149.57 109.82 148.64 109.82C147.71 109.82 146.95 109.07 146.95 108.16C146.95 107.24 147.71 106.49 148.64 106.49C149.57 106.49 150.33 107.24 150.33 108.16Z" fill="#FFE922"/>
<path d="M147.54 104.46C147.54 105.31 146.78 106 145.85 106C144.92 106 144.16 105.31 144.16 104.46C144.16 103.61 144.92 102.92 145.85 102.92C146.79 102.92 147.54 103.61 147.54 104.46Z" fill="#FFE922"/>
<path d="M144.55 100.86C144.55 101.81 143.79 102.57 142.86 102.57C141.93 102.57 141.17 101.8 141.17 100.86C141.17 99.91 141.93 99.15 142.86 99.15C143.79 99.14 144.55 99.91 144.55 100.86Z" fill="#FFE922"/>
<path d="M141.64 97.7698C141.64 98.4498 141.08 98.9898 140.4 98.9898C139.71 98.9898 139.16 98.4398 139.16 97.7698C139.16 97.0898 139.72 96.5498 140.4 96.5498C141.08 96.5498 141.64 97.0998 141.64 97.7698Z" fill="#FFE922"/>
<path d="M145.19 125.61C127.4 109.84 125.56 96.5401 125.56 96.5401L120.1 104.13L118.48 102.91L125.76 91.6401C125.76 91.6401 130.32 113.67 147.98 125.6H145.19V125.61Z" fill="#FFE922" stroke="#13110C" stroke-miterlimit="10"/>
<path d="M120.1 104.14L125.56 96.5498C125.56 96.5498 127.56 110.1 145.19 125.62H140.48C140.48 125.61 134.06 115.23 120.1 104.14Z" fill="#13110C" stroke="#13110C" stroke-miterlimit="10"/>
<path d="M125.76 91.65L128.28 87.75L134.25 91.65C134.25 91.65 136.99 110.8 151.49 116.63V124.96H148.64C148.63 124.96 132.67 118.2 125.76 91.65Z" fill="#211C4B" stroke="#13110C" stroke-miterlimit="10"/>
<path d="M127.69 94.4601L133.23 93.3501" stroke="white" stroke-miterlimit="10"/>
<path d="M130.46 100.86L134.96 98.7402" stroke="white" stroke-miterlimit="10"/>
<path d="M133.23 107.3L137.39 104.77" stroke="white" stroke-miterlimit="10"/>
<path d="M136.84 112.85L140.4 109.82" stroke="white" stroke-miterlimit="10"/>
<path d="M141.17 117.67L144.55 114.11" stroke="white" stroke-miterlimit="10"/>
<path d="M145.85 121.83L148.97 117.97" stroke="white" stroke-miterlimit="10"/>
<path d="M131.25 91.6102C131.25 92.1202 130.77 92.5402 130.17 92.5402C129.57 92.5402 129.09 92.1302 129.09 91.6102C129.09 91.1002 129.57 90.6802 130.17 90.6802C130.77 90.6802 131.25 91.0902 131.25 91.6102Z" fill="white"/>
<path d="M132.88 96.8401C132.88 97.3501 132.4 97.7701 131.8 97.7701C131.2 97.7701 130.72 97.3601 130.72 96.8401C130.72 96.3201 131.2 95.9102 131.8 95.9102C132.4 95.9202 132.88 96.3301 132.88 96.8401Z" fill="white"/>
<path d="M135.33 103.27C135.33 103.78 134.85 104.2 134.25 104.2C133.65 104.2 133.17 103.79 133.17 103.27C133.17 102.76 133.65 102.34 134.25 102.34C134.84 102.34 135.33 102.75 135.33 103.27Z" fill="white"/>
<path d="M138.37 108.63C138.37 109.14 137.89 109.56 137.29 109.56C136.69 109.56 136.21 109.14 136.21 108.63C136.21 108.12 136.69 107.7 137.29 107.7C137.89 107.7 138.37 108.12 138.37 108.63Z" fill="white"/>
<path d="M141.97 113.8C141.97 114.31 141.49 114.73 140.89 114.73C140.29 114.73 139.81 114.32 139.81 113.8C139.81 113.29 140.29 112.87 140.89 112.87C141.48 112.87 141.97 113.28 141.97 113.8Z" fill="white"/>
<path d="M145.85 117.67C145.85 118.18 145.37 118.6 144.77 118.6C144.17 118.6 143.69 118.19 143.69 117.67C143.69 117.16 144.17 116.74 144.77 116.74C145.37 116.74 145.85 117.15 145.85 117.67Z" fill="white"/>
<path d="M150.05 121.83C150.05 122.34 149.57 122.76 148.97 122.76C148.37 122.76 147.89 122.35 147.89 121.83C147.89 121.32 148.37 120.9 148.97 120.9C149.56 120.9 150.05 121.31 150.05 121.83Z" fill="white"/>
<path d="M116.33 125.61C114.75 121.97 111.28 125.61 111.28 125.61H108.37L108.65 124.96C109.97 115.59 103.39 115.89 103.39 115.89C100.36 114.76 102.72 113.27 102.72 113.27C102.72 113.27 110.56 113.03 111.27 120.9C111.27 120.9 118.55 118.77 119.61 125.61H116.33Z" fill="#FFE922" stroke="#13110C" stroke-miterlimit="10"/>
<path d="M106.43 122.76C107.72 123.9 105.23 123.98 105.23 123.98C105.63 122.73 104.13 120.91 104.13 120.91C104.13 120.91 103.64 119.17 104.62 119.91C104.62 119.91 107.61 119.88 107.47 121.48C107.47 121.47 105.53 121.95 106.43 122.76Z" fill="#FFE922" stroke="#13110C" stroke-miterlimit="10"/>
<path d="M122.56 125.61H124.73C124.73 125.61 116.26 114.7 98.76 106.09L99.04 108.15C110.98 112.36 122.28 125.61 122.28 125.61" fill="#FFE922"/>
<path d="M122.56 125.61H124.73C124.73 125.61 116.26 114.7 98.76 106.09L99.04 108.15C110.98 112.36 122.28 125.61 122.28 125.61" stroke="#13110C" stroke-miterlimit="10"/>
<path d="M69.3199 115.99H100.8L101.52 118.38L70.9799 118.71L69.3199 115.99Z" fill="white" stroke="#13110C" stroke-miterlimit="10"/>
<path d="M71.24 118.71L72.72 121.85L102.61 121.52L101.52 118.38L71.24 118.71Z" fill="#E31518" stroke="#13110C" stroke-miterlimit="10"/>
<path d="M98.76 105.88C98.43 108.43 100.8 115.99 100.8 115.99H69.32C67.04 111.94 62.12 106.1 62.12 106.1C62.12 106.1 63.89 105.15 65.2 106.1C65.2 106.1 70.99 102.99 76.17 106.1C76.17 106.1 82.6 102.76 87.6 106.1C87.62 106.1 94.31 103.33 98.76 105.88Z" fill="#FFE922" stroke="#13110C" stroke-miterlimit="10"/>
<path d="M76.1899 106.1L76.2199 115.99" stroke="#13110C" stroke-miterlimit="10"/>
<path d="M87.62 106.1L87.84 115.99" stroke="#13110C" stroke-miterlimit="10"/>
<path d="M67.27 112.78C67.27 112.78 66.22 107.86 70.71 108.05C70.71 108.05 74.77 107.37 74.09 115.98" stroke="#13110C" stroke-miterlimit="10"/>
<path d="M79.15 115.99C79.15 115.99 78.67 108.05 79.39 108.06C79.39 108.06 84.96 107.17 85.08 109.03V115.99" stroke="#13110C" stroke-miterlimit="10"/>
<path d="M90.62 115.53C90.62 115.53 90.14 107.59 90.86 107.6C90.86 107.6 96.43 106.71 96.55 108.57V115.53" stroke="#13110C" stroke-miterlimit="10"/>
<path d="M70.66 110.73V115.53" stroke="#13110C" stroke-miterlimit="10"/>
<path d="M82.03 110.73L82.04 115.86" stroke="#13110C" stroke-miterlimit="10"/>
<path d="M93.51 110.73V115.86" stroke="#13110C" stroke-miterlimit="10"/>
<path d="M38.6 125.2C52.6 146.55 75.69 157.18 75.69 157.18L80.32 149.83V144.72C80.32 144.72 66.52 139.3 54.35 125.2H38.6Z" fill="#E31518" stroke="#13110C" stroke-miterlimit="10"/>
<path d="M46.02 125.2C47.27 127.47 44.13 131.86 44.13 131.86L45.03 132.87C50.36 129.17 54.44 134.02 54.44 134.02C58.86 136.19 55.96 143.64 55.96 143.64L57.06 144.6C62.23 139.39 66.61 143.02 66.61 143.02C71.11 143.77 69.17 153.1 69.17 153.1L70.02 153.51C71.59 148.1 79.98 150.38 79.98 150.38L80.33 148.2C80.33 148.2 74.94 147.86 74.28 148.19L74.36 144.72L71.03 145.93C71.03 145.93 70.33 138.76 62.09 139.93V135.68L58.54 136.93C58.54 136.93 57.44 130.68 50.52 129.1L51.35 125.6L48.27 127.1C48.27 127.1 47.94 125.72 47.44 125.2H46.02Z" fill="white"/>
<path d="M103.83 168.74V149.27L82.81 149.48L71.03 168.74H103.83Z" fill="#E31518" stroke="#13110C" stroke-miterlimit="10"/>
<path d="M103.83 172.28V177.57L64.84 177.86L69.12 172.28H103.83Z" fill="#211C4B" stroke="#13110C" stroke-miterlimit="10"/>
<path d="M123.83 149.48H105V181.84L123.83 170.24V149.48Z" fill="#211C4B" stroke="#13110C" stroke-miterlimit="10"/>
<path d="M138.34 163.04C138.34 163.04 117.32 152.26 104.47 125.2H122.59C122.58 125.2 138.93 142.63 138.34 163.04Z" fill="#211C4B" stroke="#13110C" stroke-miterlimit="10"/>
<path d="M113.9 135.38C120.36 131.27 117.64 125.2 117.64 125.2H119.94C121.54 126.28 121.06 128.76 121.06 128.76C130.4 128.71 128.21 138.72 128.21 138.72C137.45 140.94 132.37 149.75 132.37 149.75C139.2 154.72 136.4 160.32 136.4 160.32C136.4 160.32 133.54 160.59 134.24 156.9C134.24 156.9 133.85 152.17 128.21 151.51C128.21 151.51 122.44 151.62 122.23 149.32C122.23 149.32 121.86 148.04 129.06 147.72C129.06 147.72 132.8 143.29 126.87 141.85C126.87 141.85 119.34 142.33 117.42 143.34C117.42 143.34 114.7 142.96 119.4 140.72C119.4 140.72 127.2 137.52 124.85 134.15C124.85 134.15 122.34 129.13 117.27 135.11C117.27 135.11 111.17 140.18 113.26 136.39L113.9 135.38Z" fill="#FFE922"/>
<path d="M140.1 125.2H125.13C125.13 125.2 138.97 135.97 140.91 164.43C140.91 164.43 147.01 167.32 151.35 168.12C151.35 168.12 151.6 138.38 140.1 125.2Z" fill="#E31518" stroke="#13110C" stroke-miterlimit="10"/>
<path d="M149.26 153.51C142.76 157.15 146.9 166.12 146.9 166.12L144.23 164.91C144.23 164.91 143.5 158.67 144.23 156.24L141.14 156L143.08 153.15C143.08 153.15 136.47 145.57 138.9 139.7H136.54L137.81 136.31C137.81 136.31 132.05 131.82 132.11 125.21H134.05C134.05 125.21 133.81 136.91 143.62 134C143.62 134 146.25 133.76 144.57 136C144.57 136 138.82 139.63 140.68 146.06C140.68 146.06 142.22 152.3 148.71 151.33C148.71 151.33 152.29 151.81 149.26 153.51Z" fill="white"/>
<path d="M83.95 177.86H67.8C67.8 177.86 71.74 185.64 73.67 185.31C75.6 184.97 83.5 184.35 83.57 183.53C83.64 182.71 85.42 180.03 84.77 179.13C84.12 178.22 83.95 177.86 83.95 177.86Z" fill="#AFA3C7" stroke="#13120D" stroke-width="0.5" stroke-miterlimit="10"/>
<path d="M99.55 209.67C99.55 209.67 101.94 200.61 105.52 195.27C105.52 195.27 106.44 190.15 105.52 186.83C105.52 186.83 106.73 183.48 109.17 185.62C109.17 185.62 114.77 187.59 114.94 181.68C114.94 181.68 114.86 171.43 104.77 176.93C104.77 176.93 102.42 179.1 101.89 176.43C101.89 176.43 97.36 171.6 92.77 175.76C92.77 175.76 90.85 179.34 89.85 176.26C89.85 176.26 85.68 173.01 83.52 178.84C83.52 178.84 83.94 182.26 80.94 182.17C80.94 182.17 76.11 185.59 76.11 186.25C76.11 186.92 73.94 206.67 73.94 206.67C73.94 206.67 73.36 214.75 81.94 212.84C90.52 210.92 95.19 211.5 95.19 211.5L99.55 209.67Z" fill="#E2C80B" stroke="#13110C" stroke-miterlimit="10"/>
<path d="M47.4399 223.99H109.17L100.24 209.59C100.24 209.59 71.9499 213.31 57.0199 208.6L47.4399 223.99Z" fill="#E31518" stroke="#13110C" stroke-miterlimit="10"/>
<path d="M57.0201 208.6L55.3101 211.34C74.6901 217.71 101.89 212.25 101.89 212.25L100.24 209.59C100.24 209.58 71.1801 213.31 57.0201 208.6Z" fill="#211C4B" stroke="#13110C" stroke-miterlimit="10"/>
<path d="M101.56 223.99L98.5 218.93H90.77L90.43 223.99H88.37L88.83 217.07L99.9 216.29L104.09 223.99H101.56Z" fill="#211C4B"/>
<path d="M54.75 223.98L57.8 218.91L65.53 218.88L65.88 223.93L67.95 223.92L67.46 217.01L56.39 216.28L52.22 224L54.75 223.98Z" fill="#211C4B"/>
<path d="M84.5701 223.99V218.08H72.1801V223.99H74.1101L74.1801 219.4L81.9701 219.32V223.99H84.5701Z" fill="#211C4B"/>
<path d="M27.6 125.2H89.48H104.47L106.37 128.97L76.49 129.29L74.75 125.2H54.6C54.6 125.2 66.23 138.99 80.32 144.46C80.32 144.46 79.05 134.2 74.74 125.2" fill="#13110C"/>
<path d="M27.6 125.2H89.48H104.47L106.37 128.97L76.49 129.29L74.75 125.2H54.6C54.6 125.2 66.23 138.99 80.32 144.46C80.32 144.46 79.05 134.2 74.74 125.2" stroke="#13110C" stroke-miterlimit="10"/>
<path d="M56.4701 190.95C56.4701 190.95 56.1601 186.3 57.6301 186.05L57.7801 185.63L58.3101 184.09C58.3101 184.09 56.4001 178.52 60.0801 177.84C60.0801 177.84 67.6801 176.98 71.0501 179.43C71.0501 179.43 78.8301 182.8 77.5401 185.31C76.1301 189.23 78.2901 190.7 78.2901 190.7C80.3901 192.35 78.5901 197.44 78.5901 197.44C77.1901 200.81 76.2301 210.4 76.2301 210.4C73.4701 211.5 57.8901 208.87 57.8901 208.87C57.8901 208.87 58.9801 203.08 56.4701 199.04C56.4701 199.04 48.2601 188.13 56.4701 190.95C56.4701 190.95 59.3401 189.54 60.0801 192.54L56.4701 190.95Z" fill="#FED68A"/>
<path d="M56.4701 190.95C56.4701 190.95 56.1601 186.3 57.6301 186.05L57.7801 185.63L58.3101 184.09C58.3101 184.09 56.4001 178.52 60.0801 177.84C60.0801 177.84 67.6801 176.98 71.0501 179.43C71.0501 179.43 78.8301 182.8 77.5401 185.31C76.1301 189.23 78.2901 190.7 78.2901 190.7C80.3901 192.35 78.5901 197.44 78.5901 197.44C77.1901 200.81 76.2301 210.4 76.2301 210.4C73.4701 211.5 57.8901 208.87 57.8901 208.87C57.8901 208.87 58.9801 203.08 56.4701 199.04C56.4701 199.04 48.2601 188.13 56.4701 190.95ZM56.4701 190.95C56.4701 190.95 59.3401 189.54 60.0801 192.54" stroke="#13110C" stroke-miterlimit="10"/>
<path d="M60.88 185.74L57.78 185.63" stroke="#13110C" stroke-miterlimit="10"/>
<path d="M66.09 189.11C66.09 189.11 66.98 191.01 67.94 189.42C67.94 189.42 68.84 185.99 64.13 187.03C64.13 187.03 60.72 189.6 59.33 188.68" stroke="#13110C" stroke-miterlimit="10"/>
<path d="M70.07 204C70.07 204 63.32 208.78 60.08 205.59" stroke="#13110C" stroke-miterlimit="10"/>
<path d="M61.31 200.69C64.05 198.7 66.03 200.08 66.03 200.08C65.91 202.65 61.56 202.78 61.56 202.78C61.56 202.78 59.85 201.75 61.31 200.69Z" fill="#13110C"/>
<path d="M61.99 203.45C61.99 203.45 67.14 202.62 69.03 201.2" stroke="#13110C" stroke-miterlimit="10"/>
<path d="M60.08 199.9C60.08 199.9 60.7 197.82 65.51 197.14" stroke="#13110C" stroke-miterlimit="10"/>
<path d="M98 208.6C98 208.6 101.34 197.89 102.97 195.98C104.59 194.07 103.16 188.14 102.97 187.38C102.97 187.38 102.21 184.4 99.63 185.75C99.63 185.75 102.02 186.84 100.87 188.45C100.87 188.45 97.72 190.88 97.33 186.84C97.33 186.84 98.29 181.84 103.06 184.42C103.06 184.42 105.22 188.72 104.09 192.35" stroke="#13110C" stroke-width="0.5" stroke-miterlimit="10"/>
<path d="M95.61 191.58C95.61 191.58 96.76 189.19 94.85 186.42C94.85 186.42 92.33 182.31 89.48 185.27C89.48 185.27 87.87 189.57 90.83 189.57C90.83 189.57 92.93 189.93 91.59 187.89C91.59 187.89 89.44 185.98 91.78 185.74C91.78 185.74 94.84 184.71 94.93 190.05" stroke="#13110C" stroke-width="0.5" stroke-miterlimit="10"/>
<path d="M88.37 187.89C88.37 187.89 86.56 182.53 83.28 182.69C80.01 182.85 75.86 183.85 77.7 190.05C77.7 190.05 82.03 193.77 83.75 189.66C83.75 189.66 84.17 185.41 80.79 187.14C80.79 187.14 81.36 189.89 79.83 188.44C79.83 188.44 79.35 179.36 87.38 187.14" stroke="#13110C" stroke-width="0.5" stroke-miterlimit="10"/>
<path d="M111.93 175.75C111.93 175.75 119.11 186.95 108.12 183.67C108.12 183.67 105.9 180.49 109.16 179.25C109.16 179.25 112.43 180 110.03 181.35C110.03 181.35 107.83 182.01 109.74 182.68C111.65 183.35 114.99 184.06 112.13 177.69" stroke="#13110C" stroke-width="0.5" stroke-miterlimit="10"/>
<path d="M95.13 176.39C94.57 176.94 98.04 174.22 99.35 176.39C100.66 178.56 100.19 176.96 98.28 177.7C96.37 178.43 98.28 180.5 98.28 180.5C101.72 181.65 101.24 177.7 101.24 177.7C101.24 177.7 98.67 172.95 95.13 176.39Z" stroke="#13110C" stroke-width="0.5" stroke-miterlimit="10"/>
<path d="M85.58 177.25C86.82 175.91 88.45 176.29 89.48 177.92C90.51 179.55 88.37 179.63 88.37 179.63C88.37 179.63 87.28 179.73 87.67 178.58C88.06 177.44 87.49 176.45 85.58 177.25Z" stroke="#13110C" stroke-width="0.5" stroke-miterlimit="10"/>
<path d="M96.66 208.21C96.66 208.21 100.43 196.65 101.27 195.22C102.11 193.79 102.29 190.53 101.27 189.68" stroke="#13110C" stroke-width="0.5" stroke-miterlimit="10"/>
<path d="M95.0699 208.21C95.0699 208.21 99.5799 196.84 99.3099 193.92C99.0499 191.01 100.67 192.44 99.0499 191.01" stroke="#13110C" stroke-width="0.5" stroke-miterlimit="10"/>
<path d="M92.9301 208.21C92.9301 208.21 96.9401 199.23 96.6601 196.65C96.3701 194.07 98.0901 192.06 97.3301 191.01" stroke="#13110C" stroke-width="0.5" stroke-miterlimit="10"/>
<path d="M90.9301 208.6C90.9301 208.6 97.2701 195.28 94.4301 191.59" stroke="#13110C" stroke-width="0.5" stroke-miterlimit="10"/>
<path d="M89.48 208.21C89.48 208.21 95.12 194.69 92.5 191.61" stroke="#13110C" stroke-width="0.5" stroke-miterlimit="10"/>
<path d="M87.3 208.6C87.3 208.6 93.95 194.26 89.76 191.01" stroke="#13110C" stroke-width="0.5" stroke-miterlimit="10"/>
<path d="M85.58 208.21C85.58 208.21 90.45 193.31 87.3 190.06" stroke="#13110C" stroke-width="0.5" stroke-miterlimit="10"/>
<path d="M82.8101 208.6C82.8101 208.6 87.8701 194.2 85.5801 188.45" stroke="#13110C" stroke-width="0.5" stroke-miterlimit="10"/>
<path d="M80.7 208.21C80.7 208.21 84.43 194.16 83.28 192.35" stroke="#13110C" stroke-width="0.5" stroke-miterlimit="10"/>
<path d="M78.6 207.82C78.6 207.82 82.23 195.3 81.09 193.01" stroke="#13110C" stroke-width="0.5" stroke-miterlimit="10"/>
<path d="M109.94 177.7C109.94 177.7 103.51 179.17 102.39 181.46" stroke="#13110C" stroke-width="0.5" stroke-miterlimit="10"/>
<path d="M106.17 181.45C106.17 181.45 104.56 181.53 104.1 183.67" stroke="#13110C" stroke-width="0.5" stroke-miterlimit="10"/>
<path d="M98.17 182.69C98.17 182.69 95.81 182.13 95.95 184.27" stroke="#13110C" stroke-width="0.5" stroke-miterlimit="10"/>
<path d="M95.9399 178.39C95.9399 178.39 93.6299 179.78 93.1899 183.67" stroke="#13110C" stroke-width="0.5" stroke-miterlimit="10"/>
<path d="M92.5 178.39C92.5 178.39 89.48 181.62 89.48 183.44" stroke="#13110C" stroke-width="0.5" stroke-miterlimit="10"/>
<path d="M86.17 179.57C86.17 179.57 85.86 181.62 87.67 183.45" stroke="#13110C" stroke-width="0.5" stroke-miterlimit="10"/>
<path d="M78.37 182.69L73.45 178.57" stroke="#13110C" stroke-width="0.5" stroke-miterlimit="10"/>
<path d="M79.6399 181.84L76.0699 178.66" stroke="#13110C" stroke-width="0.5" stroke-miterlimit="10"/>
<path d="M80.51 181.03L77.85 178.57" stroke="#13110C" stroke-width="0.5" stroke-miterlimit="10"/>
<path d="M81.89 180.25L79.9 178.39" stroke="#13110C" stroke-width="0.5" stroke-miterlimit="10"/>
<path d="M39.18 179.32C39.18 179.32 44.14 181.07 44.14 187.14C44.14 187.14 44.33 193.41 41.66 194.9L41.14 195.38L45.17 199.6L41.24 203.99C41.24 203.99 44.14 209.23 43.86 214.42C43.86 214.42 44.52 221.95 38.25 222.51C38.25 222.51 29.85 219.22 36.19 206.68L37.5 204L33.72 199.13L37.59 195.65C37.59 195.65 33.01 190.41 34.41 184.8C34.41 184.8 35.82 181.23 39.18 179.32Z" fill="#FFE922" stroke="#13110C" stroke-miterlimit="10"/>
<path d="M37.6899 213.9C37.6899 211.37 38.2599 209.31 38.9499 209.31C39.6499 209.31 40.2099 211.36 40.2099 213.9C40.2099 216.43 39.6399 218.49 38.9499 218.49C38.2499 218.49 37.6899 216.44 37.6899 213.9Z" fill="#E31518" stroke="#13110C" stroke-miterlimit="10"/>
<path d="M39.2799 191.6C40.1581 191.6 40.8699 189.679 40.8699 187.31C40.8699 184.941 40.1581 183.02 39.2799 183.02C38.4018 183.02 37.6899 184.941 37.6899 187.31C37.6899 189.679 38.4018 191.6 39.2799 191.6Z" fill="#E31518" stroke="#13110C" stroke-miterlimit="10"/>
<path d="M40.21 209.32C40.21 209.32 38.83 203.6 34.9 200.66" stroke="#13110C" stroke-miterlimit="10"/>
<path d="M39.73 192.08C39.73 192.08 39.16 195.72 43.69 198.06" stroke="#13110C" stroke-miterlimit="10"/>
<path d="M40.87 202.77C40.87 202.77 40.73 198.94 38.04 197.13" stroke="#13110C" stroke-miterlimit="10"/>
<path d="M27.6 159.84L48.93 173.44L58.15 179.32" stroke="#13110C" stroke-miterlimit="10"/>
<path d="M37.54 166.18L35.17 167.14C33.64 167.65 34.75 170.1 34.75 170.1C33.13 171.81 34.93 173.43 34.93 173.43C32.39 174.26 35.25 176.85 35.25 176.85C33.17 177.68 34.09 179.58 34.09 179.58C35.34 179.74 36.78 179.66 38.07 179.51C40.06 179.27 41.68 178.84 41.68 178.84C46.3 179.3 48.71 174.03 48.71 174.03L48.91 173.44L37.54 166.18Z" fill="#FED68A" stroke="#13110C" stroke-miterlimit="10"/>
<path d="M40.5 176.86C40.5 176.86 37.63 177.05 35.27 176.86" stroke="#13110C" stroke-miterlimit="10"/>
<path d="M34.95 173.44H40.8699" stroke="#13110C" stroke-miterlimit="10"/>
<path d="M34.76 170.1H39.7" stroke="#13110C" stroke-miterlimit="10"/>
<path d="M140.1 125.2C151.6 136.72 151.35 168.12 151.35 168.12V129.07V125.2H145.37H140.02" fill="#13110C"/>
<path d="M140.1 125.2C151.6 136.72 151.35 168.12 151.35 168.12V129.07V125.2H145.37H140.02" stroke="#13110C" stroke-miterlimit="10"/>
<path d="M144.57 125.2C144.57 125.2 148.54 128 151.35 129.45V127.32C151.35 127.32 148.9 125.84 148.14 125.2H144.57Z" fill="#FFE922" stroke="#13110C" stroke-miterlimit="10"/>
<path d="M122.58 125.2C140.19 144.09 138.33 163.04 138.33 163.04L140.64 164.24C140.64 164.24 140.81 140.21 125.13 125.2H122.58Z" fill="#FFE922" stroke="#13110C" stroke-miterlimit="10"/>
<path d="M150.17 164.24C149.5 163.93 147.69 162.11 147.69 162.11L150.17 164.24Z" fill="white"/>
<path d="M150.17 164.24C149.5 163.93 147.69 162.11 147.69 162.11" stroke="white" stroke-miterlimit="10"/>
<path d="M149.74 156.05C149.74 156.05 147.44 157.81 147.26 158.84L149.74 156.05Z" fill="white"/>
<path d="M149.74 156.05C149.74 156.05 147.44 157.81 147.26 158.84" stroke="white" stroke-miterlimit="10"/>
<path d="M148.5 148.48C148.5 148.48 144.05 146.9 143.02 145.66L148.5 148.48Z" fill="white"/>
<path d="M148.5 148.48C148.5 148.48 144.05 146.9 143.02 145.66" stroke="white" stroke-miterlimit="10"/>
<path d="M145.69 138.72L142.35 143.69" stroke="white" stroke-miterlimit="10"/>
<path d="M142.35 131.57L137.38 130.42" stroke="white" stroke-miterlimit="10"/>
<path d="M136.41 128.3L137.38 125.69" stroke="white" stroke-miterlimit="10"/>
<path d="M125.65 144.46C126.34 143.49 126.66 143.69 126.66 143.69C126.66 143.69 128.85 147.85 126.45 146.66C126.45 146.66 124.05 145.85 120.52 146.38C120.52 146.38 118.76 145.53 122.34 144.99C122.34 144.99 125.17 145.14 125.65 144.46Z" fill="#FFE922"/>
<path d="M131.61 157.45C131.61 157.45 131.73 153.11 130.08 153.54C128.43 153.97 129.01 155.89 129.76 156.53C130.51 157.17 131.61 157.45 131.61 157.45Z" fill="#FFE922"/>
<path d="M119.86 135.46C119.99 134.17 120.41 134.18 120.41 134.18C120.41 134.18 124.74 136.83 121.81 137.06C121.81 137.06 119.09 137.63 116.02 140.08C116.02 140.08 113.89 140.26 117 137.79C117 137.78 119.77 136.36 119.86 135.46Z" fill="#FFE922"/>
<path d="M113.75 129.2C113.46 127.97 113.85 127.86 113.85 127.86C113.85 127.86 118.68 129.18 116.06 130.17C116.06 130.17 113.74 131.43 111.7 134.52C111.7 134.52 109.79 135.26 111.86 132.12C111.87 132.12 113.96 130.06 113.75 129.2Z" fill="#FFE922"/>
<path d="M113.87 125.2C113.87 125.2 110.54 131.8 109.74 132.34C108.08 133.46 110.22 124.06 109.74 125.2H113.87Z" fill="#FFE922"/>
<path d="M137.01 162.1C137.01 162.1 130.98 158.86 126.09 154.15L125.89 168.96L137.01 162.1L113.26 176.77L137.01 162.1Z" fill="#E31518"/>
<path d="M137.01 162.1C137.01 162.1 130.98 158.86 126.09 154.15L125.89 168.96L137.01 162.1ZM137.01 162.1L113.26 176.77" stroke="#13110C" stroke-miterlimit="10"/>
<path d="M126.09 154.15L125.89 168.97L123.83 170.24V152.07L126.09 154.15Z" fill="white" stroke="#13110C" stroke-miterlimit="10"/>
<path d="M80.3199 149.83C83.7999 153.19 91.1699 150.01 91.1699 150.01C95.2399 153.78 102.43 150.01 102.43 150.01C108.68 153.78 113.92 149.54 113.92 149.54C118.28 153.02 122.04 150.32 122.04 150.32L116.95 144.73C116.95 144.73 114.88 145.34 113.87 144.73C113.87 144.73 107.91 147.87 102.9 144.73C102.9 144.73 96.1799 147.99 91.4699 144.73C91.4699 144.73 85.0399 147.72 80.3299 144.94V149.83H80.3199Z" fill="white" stroke="#13110C" stroke-miterlimit="10"/>
<path d="M120.42 148.63C118.92 149.07 116.53 149.19 113.92 147.12C113.92 147.12 108.67 151.36 102.43 147.59C102.43 147.59 95.2399 151.36 91.1699 147.59C91.1699 147.59 83.7999 150.77 80.3199 147.41" stroke="#13110C" stroke-miterlimit="10"/>
<path d="M120.73 172.16V150.95L118.34 151.31V173.63L120.73 172.16Z" fill="white" stroke="#13110C" stroke-miterlimit="10"/>
<path d="M106.17 176.25V151.43L103.83 150.73V177.57L106.17 176.25Z" fill="white" stroke="#13110C" stroke-miterlimit="10"/>
<path d="M108.64 170.33C106.54 166.66 111.34 167.15 111.34 167.15L110.7 164.32H112.94L112.39 167.32C112.39 167.32 117.64 167.12 114.52 171.69L111.81 174.61L108.64 170.33Z" fill="white"/>
<path d="M108.64 158.76C106.54 155.09 111.34 155.58 111.34 155.58L110.7 152.75H112.94L112.39 155.75C112.39 155.75 117.64 155.55 114.52 160.12L111.81 163.04L108.64 158.76Z" fill="white"/>
<path d="M103.83 172.28V168.74H71.03L69.12 172.28H103.83Z" fill="#FFE922" stroke="#13110C" stroke-miterlimit="10"/>
<path d="M100.87 151.68V165.66L76.36 165.46L84.33 152.07" stroke="#13110C" stroke-miterlimit="10"/>
<path d="M97.06 152.07V162.29H81.89L87.43 152.07" stroke="#13110C" stroke-miterlimit="10"/>
<path d="M93.65 152.44V159.84H86.91L90.99 152.07" stroke="white" stroke-miterlimit="10"/>
<path d="M81.89 150.98L80.32 149.83L62.76 177.7L64.84 177.75L69.12 172.28L71.03 168.74L81.89 150.98Z" fill="white" stroke="#13110C" stroke-miterlimit="10"/>
<path d="M77.52 151.68C77.52 151.68 74.6 152.35 73.85 153.35" stroke="white" stroke-miterlimit="10"/>
<path d="M67.3501 149.83C67.3501 149.83 67.4301 145.85 66.6801 145.27" stroke="white" stroke-miterlimit="10"/>
<path d="M63.93 144.12C63.93 144.12 61.35 144.68 60.6 145.27" stroke="white" stroke-miterlimit="10"/>
<path d="M54.6 141.19C54.6 141.19 55.93 137.18 54.6 136.35" stroke="white" stroke-miterlimit="10"/>
<path d="M53.0199 134.69C53.0199 134.69 49.3499 133.19 48.1899 133.86" stroke="white" stroke-miterlimit="10"/>
<path d="M42.87 128.52C42.87 128.52 43.26 126.35 43.85 126.27" stroke="white" stroke-miterlimit="10"/>
<path d="M45.51 171.26L60.6 147.9C64.15 151.2 75.68 157.18 75.68 157.18L62.76 177.7C62.76 177.7 58.91 177.32 58.15 179.32L45.51 171.26Z" fill="#211C4B" stroke="#13110C" stroke-miterlimit="10"/>
<path d="M56.78 168.81C57.06 164.59 60.79 167.66 60.79 167.66L61.82 164.95L63.69 166.19L61.57 168.39C61.57 168.39 66.06 171.13 60.93 173.2L57.06 174.13L56.78 168.81Z" fill="white"/>
<path d="M64.35 158.27C64.63 154.05 68.36 157.12 68.36 157.12L69.39 154.41L71.26 155.65L69.14 157.85C69.14 157.85 73.63 160.59 68.5 162.66L64.63 163.59L64.35 158.27Z" fill="white"/>
<path d="M66.07 151.76L64.35 150.67L49.3 173.68L51.03 174.78L66.07 151.76Z" fill="white" stroke="#13110C" stroke-miterlimit="10"/>
<path d="M47.28 168.52L27.6 155.95V159.84L45.51 171.26L47.28 168.52Z" fill="#E31518" stroke="#13110C" stroke-miterlimit="10"/>
<path d="M47.28 168.52L48.8 166.18L27.6 152.07V155.95L47.28 168.52Z" fill="#211C4B" stroke="#13110C" stroke-miterlimit="10"/>
<path d="M48.8 166.18L50.81 163.07L27.6 147.9V152.07L48.8 166.18Z" fill="#E31518" stroke="#13110C" stroke-miterlimit="10"/>
<path d="M27.6 137.02C39.41 142.77 42.24 157.47 42.24 157.47L44.84 159.17C44.84 159.17 42.23 140.1 27.6 134.19V137.02Z" fill="#FFE922" stroke="#13110C" stroke-miterlimit="10"/>
<path d="M27.6 137.02V147.9L42.24 157.47C42.24 157.47 39.28 142.35 27.6 137.02Z" fill="#211C4B" stroke="#13110C" stroke-miterlimit="10"/>
<path d="M28.76 142.66C28.76 141.74 29.52 141 30.45 141C31.38 141 32.14 141.75 32.14 142.66C32.14 143.58 31.38 144.33 30.45 144.33C29.51 144.32 28.76 143.58 28.76 142.66Z" fill="#FFE922"/>
<path d="M31.54 146.35C31.54 145.5 32.3 144.81 33.23 144.81C34.16 144.81 34.92 145.5 34.92 146.35C34.92 147.2 34.16 147.89 33.23 147.89C32.3 147.9 31.54 147.21 31.54 146.35Z" fill="#FFE922"/>
<path d="M34.54 149.96C34.54 149.01 35.3 148.25 36.23 148.25C37.16 148.25 37.92 149.02 37.92 149.96C37.92 150.91 37.16 151.67 36.23 151.67C35.29 151.67 34.54 150.9 34.54 149.96Z" fill="#FFE922"/>
<path d="M37.4399 153.04C37.4399 152.36 37.9999 151.82 38.6799 151.82C39.3699 151.82 39.9199 152.37 39.9199 153.04C39.9199 153.72 39.3599 154.26 38.6799 154.26C37.9999 154.27 37.4399 153.72 37.4399 153.04Z" fill="#FFE922"/>
<path d="M33.89 125.2C51.68 140.97 53.51 154.27 53.51 154.27L58.97 146.68L60.59 147.9L53.31 159.17C53.31 159.17 48.75 137.14 31.09 125.21H33.89V125.2Z" fill="#FFE922" stroke="#13110C" stroke-miterlimit="10"/>
<path d="M58.98 146.68L53.52 154.27C53.52 154.27 51.52 140.72 33.9 125.2H38.61C38.6 125.2 45.02 135.58 58.98 146.68Z" fill="#13110C" stroke="#13110C" stroke-miterlimit="10"/>
<path d="M53.32 159.17L50.8 163.07L44.83 159.17C44.83 159.17 42.09 140.02 27.59 134.19V125.86H30.44C30.45 125.85 46.41 132.61 53.32 159.17Z" fill="#211C4B" stroke="#13110C" stroke-miterlimit="10"/>
<path d="M51.39 156.35L45.85 157.47" stroke="white" stroke-miterlimit="10"/>
<path d="M48.62 149.96L44.13 152.07" stroke="white" stroke-miterlimit="10"/>
<path d="M45.8499 143.51L41.6899 146.04" stroke="white" stroke-miterlimit="10"/>
<path d="M42.2401 137.97L38.6801 140.99" stroke="white" stroke-miterlimit="10"/>
<path d="M37.92 133.15L34.54 136.7" stroke="white" stroke-miterlimit="10"/>
<path d="M33.23 128.99L30.12 132.85" stroke="white" stroke-miterlimit="10"/>
<path d="M47.83 159.21C47.83 158.7 48.31 158.28 48.91 158.28C49.51 158.28 49.99 158.69 49.99 159.21C49.99 159.72 49.51 160.14 48.91 160.14C48.32 160.14 47.83 159.72 47.83 159.21Z" fill="white"/>
<path d="M46.2 153.97C46.2 153.46 46.6799 153.04 47.2799 153.04C47.8799 153.04 48.36 153.45 48.36 153.97C48.36 154.49 47.8799 154.9 47.2799 154.9C46.6899 154.9 46.2 154.49 46.2 153.97Z" fill="white"/>
<path d="M43.76 147.55C43.76 147.04 44.24 146.62 44.84 146.62C45.44 146.62 45.92 147.03 45.92 147.55C45.92 148.06 45.44 148.48 44.84 148.48C44.24 148.48 43.76 148.06 43.76 147.55Z" fill="white"/>
<path d="M40.71 142.19C40.71 141.68 41.19 141.26 41.79 141.26C42.39 141.26 42.87 141.68 42.87 142.19C42.87 142.7 42.39 143.12 41.79 143.12C41.2 143.11 40.71 142.7 40.71 142.19Z" fill="white"/>
<path d="M37.12 137.02C37.12 136.51 37.6 136.09 38.2 136.09C38.8 136.09 39.28 136.5 39.28 137.02C39.28 137.53 38.8 137.95 38.2 137.95C37.6 137.95 37.12 137.53 37.12 137.02Z" fill="white"/>
<path d="M33.23 133.15C33.23 132.64 33.71 132.22 34.31 132.22C34.91 132.22 35.39 132.63 35.39 133.15C35.39 133.66 34.91 134.08 34.31 134.08C33.71 134.08 33.23 133.66 33.23 133.15Z" fill="white"/>
<path d="M29.04 128.99C29.04 128.48 29.52 128.06 30.12 128.06C30.72 128.06 31.2 128.47 31.2 128.99C31.2 129.5 30.72 129.92 30.12 129.92C29.52 129.92 29.04 129.5 29.04 128.99Z" fill="white"/>
<path d="M62.76 125.2C64.34 128.84 67.8 125.2 67.8 125.2H70.71L70.43 125.85C69.11 135.22 75.69 134.92 75.69 134.92C78.72 136.05 76.36 137.54 76.36 137.54C76.36 137.54 68.52 137.78 67.81 129.91C67.81 129.91 60.53 132.04 59.47 125.2H62.76Z" fill="#FFE922" stroke="#13110C" stroke-miterlimit="10"/>
<path d="M72.65 128.06C71.36 126.92 73.85 126.84 73.85 126.84C73.45 128.09 74.95 129.91 74.95 129.91C74.95 129.91 75.44 131.65 74.46 130.91C74.46 130.91 71.47 130.94 71.61 129.34C71.61 129.35 73.56 128.86 72.65 128.06Z" fill="#FFE922" stroke="#13110C" stroke-miterlimit="10"/>
<path d="M56.52 125.2H54.35C54.35 125.2 62.82 136.11 80.32 144.72L80.04 142.66C68.11 138.45 56.8 125.2 56.8 125.2" fill="#FFE922"/>
<path d="M56.52 125.2H54.35C54.35 125.2 62.82 136.11 80.32 144.72L80.04 142.66C68.11 138.45 56.8 125.2 56.8 125.2" stroke="#13110C" stroke-miterlimit="10"/>
<path d="M109.76 134.83H78.2799L77.5699 132.43L108.11 132.1L109.76 134.83Z" fill="white" stroke="#13110C" stroke-miterlimit="10"/>
<path d="M107.84 132.1L106.36 128.97L76.48 129.29L77.57 132.43L107.84 132.1Z" fill="#E31518" stroke="#13110C" stroke-miterlimit="10"/>
<path d="M80.32 144.94C80.66 142.39 78.28 134.83 78.28 134.83H109.75C112.03 138.88 116.95 144.72 116.95 144.72C116.95 144.72 115.18 145.67 113.87 144.72C113.87 144.72 108.08 147.83 102.9 144.72C102.9 144.72 96.47 148.06 91.47 144.72C91.46 144.72 84.77 147.48 80.32 144.94Z" fill="#FFE922" stroke="#13110C" stroke-miterlimit="10"/>
<path d="M102.9 144.72L102.86 134.83" stroke="#13110C" stroke-miterlimit="10"/>
<path d="M91.46 144.72L91.25 134.83" stroke="#13110C" stroke-miterlimit="10"/>
<path d="M111.81 138.03C111.81 138.03 112.86 142.95 108.37 142.76C108.37 142.76 104.31 143.44 104.99 134.83" stroke="#13110C" stroke-miterlimit="10"/>
<path d="M99.93 134.83C99.93 134.83 100.41 142.77 99.69 142.76C99.69 142.76 94.12 143.65 94 141.79V134.83" stroke="#13110C" stroke-miterlimit="10"/>
<path d="M88.46 135.28C88.46 135.28 88.94 143.22 88.22 143.21C88.22 143.21 82.65 144.1 82.53 142.24V135.28" stroke="#13110C" stroke-miterlimit="10"/>
<path d="M108.42 140.08V135.28" stroke="#13110C" stroke-miterlimit="10"/>
<path d="M97.06 140.08L97.04 134.96" stroke="#13110C" stroke-miterlimit="10"/>
<path d="M85.5699 140.08V134.96" stroke="#13110C" stroke-miterlimit="10"/>
<path d="M15.79 41.0498L14.33 42.8298C13.08 44.3598 10.82 44.5798 9.29002 43.3298L9.02002 43.1098C7.49002 41.8598 7.27002 39.5998 8.52002 38.0698L10.96 35.0998L15.4 29.6898C15.53 29.5298 15.67 29.3898 15.82 29.2598C15.96 29.3798 16.09 29.5198 16.21 29.6698L23.04 38.0998C24.29 39.6398 24.05 41.8898 22.51 43.1398L22.24 43.3598C20.7 44.6098 18.45 44.3698 17.2 42.8298L15.79 41.0498L16.59 40.1098C16.59 40.1098 15.03 43.8598 12.69 46.0998H18.63C18.63 46.0898 15.74 43.1298 15.79 41.0498Z" fill="#13110C"/>
<path d="M15.79 41.0498L14.33 42.8298C13.08 44.3598 10.82 44.5798 9.29002 43.3298L9.02002 43.1098C7.49002 41.8598 7.27002 39.5998 8.52002 38.0698L10.96 35.0998L15.4 29.6898C15.53 29.5298 15.67 29.3898 15.82 29.2598C15.96 29.3798 16.09 29.5198 16.21 29.6698L23.04 38.0998C24.29 39.6398 24.05 41.8898 22.51 43.1398L22.24 43.3598C20.7 44.6098 18.45 44.3698 17.2 42.8298L15.79 41.0498ZM15.79 41.0498L16.59 40.1098C16.59 40.1098 15.03 43.8598 12.69 46.0998H18.63C18.63 46.0898 15.74 43.1298 15.79 41.0498Z" stroke="#13110C" stroke-miterlimit="10"/>
<path d="M162.74 212.18L164.2 210.4C165.45 208.87 167.71 208.65 169.24 209.9L169.51 210.12C171.04 211.37 171.26 213.63 170.01 215.16L167.57 218.13L163.13 223.54C163 223.7 162.86 223.84 162.71 223.98C162.57 223.86 162.44 223.72 162.32 223.57L155.49 215.14C154.24 213.6 154.48 211.35 156.02 210.1L156.29 209.88C157.83 208.64 160.08 208.87 161.33 210.41L162.74 212.18L161.94 213.12C161.94 213.12 163.5 209.36 165.84 207.13H159.9C159.9 207.14 162.79 210.1 162.74 212.18Z" fill="#13110C"/>
<path d="M162.74 212.18L164.2 210.4C165.45 208.87 167.71 208.65 169.24 209.9L169.51 210.12C171.04 211.37 171.26 213.63 170.01 215.16L167.57 218.13L163.13 223.54C163 223.7 162.86 223.84 162.71 223.98C162.57 223.86 162.44 223.72 162.32 223.57L155.49 215.14C154.24 213.6 154.48 211.35 156.02 210.1L156.29 209.88C157.83 208.64 160.08 208.87 161.33 210.41L162.74 212.18ZM162.74 212.18L161.94 213.12C161.94 213.12 163.5 209.36 165.84 207.13H159.9C159.9 207.14 162.79 210.1 162.74 212.18Z" stroke="#13110C" stroke-miterlimit="10"/>
<path d="M47.9 53.6698L45.81 56.2198C44.02 58.4098 40.79 58.7198 38.6 56.9298L38.21 56.6098C36.02 54.8098 35.71 51.5798 37.5 49.3998L40.99 45.1498L47.35 37.3998C47.54 37.1698 47.74 36.9598 47.96 36.7798C48.16 36.9598 48.35 37.1598 48.52 37.3698L58.3 49.4298C60.08 51.6298 59.75 54.8498 57.55 56.6398L57.16 56.9498C54.96 58.7298 51.74 58.3898 49.95 56.1998L47.9 53.6698L49.04 52.3198C49.04 52.3198 46.81 57.6898 43.47 60.8898H51.96C51.96 60.8898 47.82 56.6498 47.9 53.6698Z" fill="#13110C"/>
<path d="M47.9 53.6698L45.81 56.2198C44.02 58.4098 40.79 58.7198 38.6 56.9298L38.21 56.6098C36.02 54.8098 35.71 51.5798 37.5 49.3998L40.99 45.1498L47.35 37.3998C47.54 37.1698 47.74 36.9598 47.96 36.7798C48.16 36.9598 48.35 37.1598 48.52 37.3698L58.3 49.4298C60.08 51.6298 59.75 54.8498 57.55 56.6398L57.16 56.9498C54.96 58.7298 51.74 58.3898 49.95 56.1998L47.9 53.6698ZM47.9 53.6698L49.04 52.3198C49.04 52.3198 46.81 57.6898 43.47 60.8898H51.96C51.96 60.8898 47.82 56.6498 47.9 53.6698Z" stroke="#13110C" stroke-miterlimit="10"/>
<path d="M132.09 194.96L134.18 192.41C135.97 190.22 139.2 189.91 141.39 191.7L141.78 192.02C143.97 193.82 144.28 197.05 142.49 199.23L139 203.48L132.64 211.23C132.45 211.46 132.25 211.67 132.03 211.85C131.83 211.67 131.64 211.47 131.47 211.26L121.69 199.2C119.91 197 120.24 193.78 122.44 191.99L122.83 191.68C125.03 189.9 128.25 190.24 130.04 192.43L132.09 194.96L130.95 196.31C130.95 196.31 133.18 190.94 136.52 187.74H128.03C128.03 187.74 132.17 191.98 132.09 194.96Z" fill="#13110C"/>
<path d="M132.09 194.96L134.18 192.41C135.97 190.22 139.2 189.91 141.39 191.7L141.78 192.02C143.97 193.82 144.28 197.05 142.49 199.23L139 203.48L132.64 211.23C132.45 211.46 132.25 211.67 132.03 211.85C131.83 211.67 131.64 211.47 131.47 211.26L121.69 199.2C119.91 197 120.24 193.78 122.44 191.99L122.83 191.68C125.03 189.9 128.25 190.24 130.04 192.43L132.09 194.96ZM132.09 194.96L130.95 196.31C130.95 196.31 133.18 190.94 136.52 187.74H128.03C128.03 187.74 132.17 191.98 132.09 194.96Z" stroke="#13110C" stroke-miterlimit="10"/>
</svg>
