<svg width="180" height="254" viewBox="0 0 180 254" fill="none" xmlns="http://www.w3.org/2000/svg">
<rect x="0.5" y="0.5" width="179" height="253" rx="14.5" fill="white" stroke="#1D1D1B"/>
<path d="M88.9399 80.7099L99.6499 87.7499L114.52 80.0999L101.86 73.4399L88.9399 80.7099Z" fill="#E31013" stroke="#13110C" stroke-miterlimit="10"/>
<path d="M135.82 87.75L136.14 125.85L132.2 125.9C132.2 125.9 127.96 121.65 123.32 120.95C123.31 120.96 118.97 99.67 135.82 87.75Z" fill="#13110C" stroke="#13110C" stroke-miterlimit="10"/>
<path d="M73.78 122.52H105.41" stroke="white" stroke-miterlimit="10"/>
<path d="M106.09 125.9C105.52 125.45 105.53 123.68 105.53 123.68L74.1699 123.52C74.1699 123.52 74.7899 124.98 74.9599 125.98L106.09 125.9Z" fill="#13110C" stroke="#13110C" stroke-miterlimit="10"/>
<path d="M43.96 119.07H72.13V99.8599C72.13 99.8599 62.18 89.7799 55.63 85.6699C55.63 85.6699 47.72 90.1199 43.97 92.8099V119.07H43.96Z" fill="white" stroke="#13110C" stroke-miterlimit="10"/>
<path d="M53.05 88.3599H57.5601" stroke="#211C4B" stroke-miterlimit="10"/>
<path d="M49.3701 90.1099H60.2801" stroke="#211C4B" stroke-miterlimit="10"/>
<path d="M45.5601 93.48H63.2501" stroke="#211C4B" stroke-miterlimit="10"/>
<path d="M46.46 91.9199H62.06" stroke="#211C4B" stroke-miterlimit="10"/>
<path d="M45.3701 95.1099H65.4301" stroke="#211C4B" stroke-miterlimit="10"/>
<path d="M45.28 96.96H67.62" stroke="#211C4B" stroke-miterlimit="10"/>
<path d="M45.26 98.54H69.32" stroke="#211C4B" stroke-miterlimit="10"/>
<path d="M45.26 100.23H71.01" stroke="#211C4B" stroke-miterlimit="10"/>
<path d="M45.3401 101.98H71.0901" stroke="#211C4B" stroke-miterlimit="10"/>
<path d="M45.1599 103.73H70.9099" stroke="#211C4B" stroke-miterlimit="10"/>
<path d="M45.1599 105.48H70.9099" stroke="#211C4B" stroke-miterlimit="10"/>
<path d="M44.99 107.23H70.74" stroke="#211C4B" stroke-miterlimit="10"/>
<path d="M45.1599 108.73H70.9099" stroke="#211C4B" stroke-miterlimit="10"/>
<path d="M44.99 110.48H70.74" stroke="#211C4B" stroke-miterlimit="10"/>
<path d="M44.99 112.23H70.74" stroke="#211C4B" stroke-miterlimit="10"/>
<path d="M44.8101 113.98H70.5601" stroke="#211C4B" stroke-miterlimit="10"/>
<path d="M45.04 115.73H70.78" stroke="#211C4B" stroke-miterlimit="10"/>
<path d="M44.8601 117.48H70.6101" stroke="#211C4B" stroke-miterlimit="10"/>
<path d="M150.39 29.0801H30.25V222.71H150.39V29.0801Z" stroke="#13110C" stroke-miterlimit="10"/>
<path d="M118.9 44.4498C122.37 35.6198 130.28 29.0898 130.28 29.0898H63.73C63.73 29.0898 72.85 39.6798 74.14 42.8498C74.14 42.8498 101.05 34.7298 118.9 44.4498Z" fill="#FFEA24" stroke="#13110C" stroke-miterlimit="10"/>
<path d="M117.48 47.2101C100.82 40.0701 75.9199 45.6201 75.9199 45.6201L74.1299 42.8401C74.1299 42.8401 96.1799 35.5001 118.89 44.4401L117.48 47.2101Z" fill="#E31013" stroke="#13110C" stroke-miterlimit="10"/>
<path d="M117.48 47.2098L116.39 50.6798C100.52 44.0398 77.9099 49.3898 77.9099 49.3898L75.9299 45.6198C75.9199 45.6198 101.51 40.1698 117.48 47.2098Z" fill="#13110C" stroke="#13110C" stroke-miterlimit="10"/>
<path d="M81.6699 38.0898H92.9799C92.9799 38.0898 87.5199 36.3998 87.3299 35.6098C87.1299 34.8098 86.5299 36.2998 81.6699 38.0898Z" fill="#211C4B"/>
<path d="M101 38.1701L112.28 38.9901C112.28 38.9901 106.96 36.9101 106.82 36.1101C106.67 35.3001 105.97 36.7401 101 38.1701Z" fill="#211C4B"/>
<path d="M80.0901 37.4299C80.0901 38.2499 79.4201 38.9199 78.6001 38.9199C77.7801 38.9199 77.1101 38.2499 77.1101 37.4299C77.1101 36.6099 77.7801 35.9399 78.6001 35.9399C79.4201 35.9399 80.0901 36.6099 80.0901 37.4299Z" fill="#211C4B"/>
<path d="M98.01 36.7698C98.01 37.5898 97.34 38.2598 96.52 38.2598C95.7 38.2598 95.03 37.5898 95.03 36.7698C95.03 35.9498 95.7 35.2798 96.52 35.2798C97.34 35.2798 98.01 35.9398 98.01 36.7698Z" fill="#211C4B"/>
<path d="M116.73 38.9202C116.73 39.7402 116.06 40.4102 115.24 40.4102C114.42 40.4102 113.75 39.7402 113.75 38.9202C113.75 38.1002 114.42 37.4302 115.24 37.4302C116.06 37.4302 116.73 38.1002 116.73 38.9202Z" fill="#211C4B"/>
<path d="M88.6001 33.0499C88.6001 33.7499 88.0301 34.3199 87.3301 34.3199C86.6301 34.3199 86.0601 33.7499 86.0601 33.0499C86.0601 32.3499 86.6301 31.7799 87.3301 31.7799C88.0301 31.7699 88.6001 32.3399 88.6001 33.0499Z" fill="#211C4B"/>
<path d="M107.41 33.0499C107.41 33.7499 106.84 34.3199 106.14 34.3199C105.44 34.3199 104.87 33.7499 104.87 33.0499C104.87 32.3499 105.44 31.7799 106.14 31.7799C106.84 31.7699 107.41 32.3399 107.41 33.0499Z" fill="#211C4B"/>
<path d="M79.3401 33.0499C79.3401 34.4099 79.0101 35.5099 78.6001 35.5099C78.1901 35.5099 77.8601 34.4099 77.8601 33.0499C77.8601 31.6899 78.1901 30.5899 78.6001 30.5899C79.0101 30.5799 79.3401 31.6899 79.3401 33.0499Z" fill="#211C4B"/>
<path d="M82.15 34.54C81.11 35.42 80.05 35.87 79.78 35.55C79.52 35.23 80.15 34.27 81.19 33.4C82.23 32.53 83.29 32.07 83.56 32.39C83.82 32.7 83.19 33.67 82.15 34.54Z" fill="#211C4B"/>
<path d="M74.99 34.5399C73.95 33.6599 73.33 32.6899 73.59 32.3799C73.86 32.0699 74.91 32.5299 75.95 33.4099C76.99 34.2899 77.61 35.2599 77.35 35.5699C77.08 35.8799 76.02 35.4199 74.99 34.5399Z" fill="#211C4B"/>
<path d="M97.2901 32.3702C97.2901 33.7302 96.9601 34.8302 96.5501 34.8302C96.1401 34.8302 95.8101 33.7302 95.8101 32.3702C95.8101 31.0102 96.1401 29.9102 96.5501 29.9102C96.9601 29.9102 97.2901 31.0102 97.2901 32.3702Z" fill="#211C4B"/>
<path d="M100.1 33.8702C99.0599 34.7502 97.9999 35.2002 97.7299 34.8802C97.4699 34.5602 98.0999 33.6002 99.1399 32.7302C100.18 31.8502 101.24 31.4002 101.51 31.7202C101.77 32.0302 101.14 32.9902 100.1 33.8702Z" fill="#211C4B"/>
<path d="M92.9299 33.8602C91.8899 32.9802 91.2699 32.0102 91.5299 31.7002C91.7999 31.3902 92.8499 31.8502 93.8899 32.7302C94.9299 33.6102 95.5499 34.5802 95.2899 34.8902C95.0199 35.2002 93.9699 34.7402 92.9299 33.8602Z" fill="#211C4B"/>
<path d="M116.38 33.6199C116.31 34.9799 115.92 36.0599 115.51 36.0399C115.1 36.0199 114.82 34.8999 114.9 33.5399C114.97 32.1799 115.36 31.0999 115.77 31.1199C116.17 31.1499 116.45 32.2699 116.38 33.6199Z" fill="#211C4B"/>
<path d="M119.1 35.27C118.01 36.09 116.93 36.49 116.68 36.16C116.43 35.83 117.11 34.9 118.2 34.08C119.29 33.26 120.37 32.86 120.62 33.19C120.87 33.52 120.19 34.45 119.1 35.27Z" fill="#211C4B"/>
<path d="M111.95 34.8902C110.96 33.9602 110.39 32.9602 110.67 32.6602C110.95 32.3602 111.98 32.8802 112.97 33.8102C113.96 34.7402 114.53 35.7402 114.25 36.0402C113.97 36.3302 112.94 35.8202 111.95 34.8902Z" fill="#211C4B"/>
<path d="M70.96 36.5698C71.04 36.5698 74.87 38.0898 76.2 36.7598" stroke="#211C4B" stroke-miterlimit="10"/>
<path d="M81.3 36.7402C81.3 36.7402 84.38 36.5102 85.86 34.9902" stroke="#211C4B" stroke-miterlimit="10"/>
<path d="M88.8 34.8301C88.8 34.8301 91.74 37.1901 93.79 37.1601" stroke="#211C4B" stroke-miterlimit="10"/>
<path d="M100.03 37.27C100.03 37.27 103.81 36.5 105.05 34.98" stroke="#211C4B" stroke-miterlimit="10"/>
<path d="M108.18 35.4102C108.18 35.4102 110.12 37.8502 112.55 38.2502" stroke="#211C4B" stroke-miterlimit="10"/>
<path d="M117.98 38.9201C117.98 38.9201 120.49 38.8101 121.87 37.0601" stroke="#211C4B" stroke-miterlimit="10"/>
<path d="M103.8 76.4901C103.8 76.4901 103.94 83.5101 100.04 83.3001C100.04 83.3001 90.9699 83.2301 88.5599 80.3201C88.5599 80.3201 76.5799 82.9501 72.7499 79.9001C72.7499 79.9001 67.0099 75.5701 72.1099 70.3301L73.0999 69.8301C73.0999 69.8301 72.1799 66.2101 75.5099 67.0701L75.4399 63.5301C75.4399 63.5301 72.3199 62.4001 74.4499 59.8401C74.4499 59.8401 76.2899 58.2101 76.4299 54.1001C76.4299 54.1001 76.0299 49.7901 77.9099 49.4001C77.9099 49.4001 78.0999 49.3601 78.4499 49.2801C82.0599 48.5301 103.06 44.5401 116.4 50.6901C116.4 50.6901 121.03 56.0101 119.83 67.4301L120.03 68.7101C120.03 68.7101 124.94 67.4301 125.71 68.9901C125.71 68.9901 129.11 75.3701 123.23 77.0701L110.26 81.6101C110.25 81.6001 105.92 81.3801 103.8 76.4901Z" fill="#AFA3C7" stroke="#13120D" stroke-miterlimit="10"/>
<path d="M101.6 48.2099C101.6 48.2099 103.58 64.5899 102.02 68.2699C102.02 68.2699 96.52 77.0499 92.17 78.7599C92.17 78.7599 81.89 81.9499 78.06 73.4399C78.06 73.4399 77 54.6499 78.06 51.5299L78.44 49.2699C78.45 49.2799 95.22 46.0099 101.6 48.2099Z" fill="#FED68A" stroke="#13110C" stroke-miterlimit="10"/>
<path d="M90.3201 52.4599C90.3201 52.4599 98.3401 50.3999 101.18 53.8799" stroke="#13110C" stroke-miterlimit="10"/>
<path d="M78.6299 52.3202C78.6299 52.3202 83.2399 51.2602 85.7899 52.3202C85.7899 52.3202 86.7099 61.6102 85.7899 62.6702C85.7899 62.6702 82.7799 65.9302 86.1999 66.6402C86.1999 66.6402 88.5599 65.0102 89.5499 66.6402C89.5499 66.6402 94.0899 66.8902 90.6099 63.4002" stroke="#13110C" stroke-miterlimit="10"/>
<path d="M80.8299 69.4001C80.8299 69.4001 81.5399 67.1301 79.4799 68.1201C79.4799 68.1201 77.8499 71.5901 81.6099 71.1001C81.6099 71.1001 85.9399 69.6101 87.0699 68.5501" stroke="#13110C" stroke-miterlimit="10"/>
<path d="M89.1899 68.69C89.1899 68.69 93.6599 71.48 95.9999 71.15C95.9999 71.15 98.9999 69.4 96.9999 68.41C96.9999 68.41 94.9899 67.64 95.7399 69.51" stroke="#13110C" stroke-miterlimit="10"/>
<path d="M83.8799 73.02H92.8099" stroke="#13110C" stroke-miterlimit="10"/>
<path d="M86.78 72.52H90.32" stroke="#13110C" stroke-miterlimit="10"/>
<path d="M86.78 73.4399H90.11" stroke="#13110C" stroke-miterlimit="10"/>
<path d="M86.3601 74.7202C86.3601 74.7202 88.1201 77.2002 90.1101 74.7202" stroke="#13110C" stroke-miterlimit="10"/>
<path d="M100.18 57.8498C94.6501 52.8198 90.1001 57.8498 90.1001 57.8498C90.1001 57.8498 91.8901 60.5398 100.18 57.8498Z" stroke="#13110C" stroke-miterlimit="10"/>
<path d="M91.25 59.2402C91.25 59.2402 92.51 62.3802 95.75 62.0302" stroke="#13110C" stroke-miterlimit="10"/>
<path d="M85.2801 56.9298C80.7601 54.6498 78.3501 57.3298 78.3501 57.3298C78.3501 57.3298 78.3601 60.7798 85.2801 58.5598C85.2801 58.5598 86.0501 57.3198 85.2801 56.9298Z" stroke="#13110C" stroke-miterlimit="10"/>
<path d="M84.5101 59.8301C84.5101 59.8301 81.6301 61.7501 79.6201 61.4601" stroke="#13110C" stroke-miterlimit="10"/>
<path d="M96.5199 57.3498C96.5199 57.6598 95.8299 57.9198 94.9799 57.9198C94.1299 57.9198 93.4399 57.6698 93.4399 57.3498C93.4399 57.0398 94.1299 56.7798 94.9799 56.7798C95.8299 56.7798 96.5199 57.0398 96.5199 57.3498Z" fill="#13110C" stroke="#13110C" stroke-miterlimit="10"/>
<path d="M83.0999 57.6602C83.0999 57.9102 82.3899 58.1202 81.4999 58.1202C80.6099 58.1202 79.8999 57.9102 79.8999 57.6602C79.8999 57.4102 80.6099 57.2002 81.4999 57.2002C82.3899 57.2002 83.0999 57.4002 83.0999 57.6602Z" fill="#13110C" stroke="#13110C" stroke-miterlimit="10"/>
<path d="M103.37 49.0898C103.37 49.0898 104.24 72.3898 104.73 73.4498C105.23 74.5098 107.64 80.7998 110.98 79.3498C114.32 77.8998 113.14 72.6498 110.98 71.4698" stroke="#13110C" stroke-width="0.5" stroke-miterlimit="10"/>
<path d="M105.22 49.3999C105.22 49.3999 105.16 74.6899 108.81 76.9199C108.81 76.9199 111.84 77.9799 110.54 74.7299" stroke="#13110C" stroke-width="0.5" stroke-miterlimit="10"/>
<path d="M108.04 73.4398C108.04 73.4398 108.82 71.8698 112.32 70.5698C114.06 69.9198 116.48 69.3398 119.81 69.0498" stroke="#13110C" stroke-width="0.5" stroke-miterlimit="10"/>
<path d="M113.63 79.3499C113.63 79.3499 116.91 75.1799 112.76 70.4199" stroke="#13110C" stroke-width="0.5" stroke-miterlimit="10"/>
<path d="M115.8 78.7101C115.8 78.7101 118.88 75.0401 114.87 69.8301" stroke="#13110C" stroke-width="0.5" stroke-miterlimit="10"/>
<path d="M117.9 77.9602C117.9 77.9602 120.77 74.2802 116.93 69.4102" stroke="#13110C" stroke-width="0.5" stroke-miterlimit="10"/>
<path d="M120.56 77.0799C120.56 77.0799 122.45 73.5999 119.37 69.1099" stroke="#13110C" stroke-width="0.5" stroke-miterlimit="10"/>
<path d="M122.72 76.2902C122.72 76.2902 124.64 73.3202 121.55 68.6802" stroke="#13110C" stroke-width="0.5" stroke-miterlimit="10"/>
<path d="M124.64 75.82C124.64 75.82 126.12 72.33 123.65 68.25" stroke="#13110C" stroke-width="0.5" stroke-miterlimit="10"/>
<path d="M107.14 49.77C107.14 49.77 107.57 71.64 109.37 71.16" stroke="#13110C" stroke-width="0.5" stroke-miterlimit="10"/>
<path d="M109.37 49.77C109.37 49.77 109.12 68.24 111.6 69.82" stroke="#13110C" stroke-width="0.5" stroke-miterlimit="10"/>
<path d="M111.59 50.2002C111.59 50.2002 111.44 68.1902 113.93 69.0602" stroke="#13110C" stroke-width="0.5" stroke-miterlimit="10"/>
<path d="M113.81 50.9399C113.81 50.9399 114.01 67.5099 116.38 68.6899" stroke="#13110C" stroke-width="0.5" stroke-miterlimit="10"/>
<path d="M115.63 52.2402C115.63 52.2402 116.52 67.8102 118.27 68.2502" stroke="#13110C" stroke-width="0.5" stroke-miterlimit="10"/>
<path d="M117.48 54.71C117.48 54.71 118.04 65.86 118.93 66.64" stroke="#13110C" stroke-width="0.5" stroke-miterlimit="10"/>
<path d="M91.9199 79.8799C91.9199 79.8799 99.7199 82.4799 101.17 81.1799" stroke="#13110C" stroke-width="0.5" stroke-miterlimit="10"/>
<path d="M103 75.8201C103 75.8201 100.11 73.5001 98.34 75.2701C96.57 77.0301 96.88 79.3901 99.23 79.8801C101.58 80.3701 102.75 78.4601 101.77 77.6501C100.78 76.8501 99.61 76.4801 99.42 77.9601" stroke="#13110C" stroke-width="0.5" stroke-miterlimit="10"/>
<path d="M94.5901 78.71C94.5901 78.71 96.4501 80.19 98.9801 80.72" stroke="#13110C" stroke-width="0.5" stroke-miterlimit="10"/>
<path d="M102.13 70.73C102.13 70.73 102.75 73.82 104.36 75.27" stroke="#13110C" stroke-width="0.5" stroke-miterlimit="10"/>
<path d="M75.9201 74.2498C75.9201 74.2498 72.3901 73.6798 72.6301 75.8198C72.8801 77.9598 75.3101 78.5798 75.9201 77.2798C76.5301 75.9798 77.2701 72.5798 77.1501 71.7798" stroke="#13110C" stroke-width="0.5" stroke-miterlimit="10"/>
<path d="M74.3701 79.3501C74.3701 79.3501 78.5701 77.9001 77.9601 75.5601" stroke="#13110C" stroke-width="0.5" stroke-miterlimit="10"/>
<path d="M76.6599 79.8801C76.6599 79.8801 79.2899 79.0701 79.1299 77.0801" stroke="#13110C" stroke-width="0.5" stroke-miterlimit="10"/>
<path d="M79.6201 79.96C79.6201 79.96 80.7301 79.08 80.6101 77.96" stroke="#13110C" stroke-width="0.5" stroke-miterlimit="10"/>
<path d="M81.5 80.25C81.5 80.25 82.1 79.46 82.07 78.96" stroke="#13110C" stroke-width="0.5" stroke-miterlimit="10"/>
<path d="M83.1001 80.2501L83.3301 79.3501" stroke="#13110C" stroke-width="0.5" stroke-miterlimit="10"/>
<path d="M71.3401 75.2699C71.3401 75.2699 72.0801 71.8999 74.9001 72.5199C74.9001 72.5199 76.9101 72.0899 76.6601 65.8399L76.6801 57.1899" stroke="#13110C" stroke-width="0.5" stroke-miterlimit="10"/>
<path d="M72.6201 71.2499C72.6201 71.2499 75.7001 70.8499 75.6001 68.6899" stroke="#13110C" stroke-width="0.5" stroke-miterlimit="10"/>
<path d="M74.1401 69.5098C74.1401 69.5098 73.7501 67.3798 74.9001 68.2498" stroke="#13110C" stroke-width="0.5" stroke-miterlimit="10"/>
<path d="M75.6099 62.0601C75.6099 62.0601 74.1299 61.0201 75.6099 60.1001" stroke="#13110C" stroke-width="0.5" stroke-miterlimit="10"/>
<path d="M90.3201 125.9L150.38 125.85" stroke="#13110C" stroke-miterlimit="10"/>
<path d="M30.25 125.9H90.32" stroke="#13110C" stroke-miterlimit="10"/>
<path d="M146.13 110.08L147.26 52.8701L141.22 45.8301L135.82 52.8701V110.08L139.58 117.47L146.13 110.08Z" fill="white" stroke="#13110C" stroke-miterlimit="10"/>
<path d="M144.44 111.99C145.27 108.39 147.55 110.62 147.55 110.62C149.81 112.93 146.32 115.48 146.32 115.48C142.41 117.28 141.06 114.68 141.06 114.68C140.6 113.45 139.86 114.11 139.86 114.11C138.55 116.08 135.69 116.28 135.69 116.28C133.15 116.17 131.15 113.22 132.78 111.02C134.41 108.82 135.89 110.24 136.29 111.02C136.69 111.8 135.49 112.93 135.49 112.93C135.49 112.93 137.89 113.47 138.78 112.64C138.78 112.64 140.49 111.18 142.18 112.75C142.18 112.76 144.73 113.55 144.44 111.99Z" fill="#FFEA24" stroke="#13110C" stroke-miterlimit="10"/>
<path d="M140.82 111.5C140.82 111.5 139.89 110.5 139.16 107.85C138.43 105.21 140.82 101.8 140.82 101.8C140.95 100.54 141.25 98.0802 140.56 97.4202C138.61 95.5802 139.16 84.3002 139.6 83.7502C140.04 83.2002 141.27 75.7902 140.3 74.9202C139.33 74.0602 138.46 65.5602 140.04 61.5402C141.62 57.5102 140.92 50.2002 140.92 50.2002C140.92 50.2002 143.47 53.0502 142.24 61.7202C142.24 61.7202 141.7 69.7502 143.02 71.6902C143.02 71.6902 144.24 79.7502 142.58 87.3602C142.58 87.3602 142.53 94.8002 143.81 96.3702C143.81 96.3702 144.16 104.77 143.64 105.74C143.64 105.74 141.2 106.21 141.56 108.13C141.92 110.05 142.56 110.5 142.56 110.5L142.74 111.5L142.56 112.14L140.82 111.5Z" fill="#211C4B"/>
<path d="M145 130.97C142.99 134.8 137.89 133.43 137.89 133.43C134.15 132.79 132.78 126.05 132.78 126.05C131.14 118.12 135.24 116.46 135.24 116.46C135.24 116.46 139.28 113.89 147.34 116.46C147.34 116.46 149.41 117.66 147.34 119.12C147.34 119.12 149.87 120.85 148.26 122.13C148.26 122.13 150.42 124.05 148.4 125.6L145 130.97Z" fill="#FED68A" stroke="#13110C" stroke-miterlimit="10"/>
<path d="M140.82 119.38L147.26 118.93" stroke="#13110C" stroke-miterlimit="10"/>
<path d="M141.47 122.49L148.18 121.94" stroke="#13110C" stroke-miterlimit="10"/>
<path d="M142 125.9L148.96 124.69" stroke="#13110C" stroke-miterlimit="10"/>
<path d="M134.25 120.94C134.25 120.94 145.55 121.54 137.07 116" stroke="#13110C" stroke-miterlimit="10"/>
<path d="M142.27 135.16C142.27 136.67 141.05 137.9 139.53 137.9C138.01 137.9 136.79 136.67 136.79 135.16C136.79 133.65 138.01 132.42 139.53 132.42C141.05 132.42 142.27 133.65 142.27 135.16Z" fill="#FFEA24" stroke="#13110C" stroke-miterlimit="10"/>
<path d="M30.25 104.27C32.87 101.37 36.1 98.56 39.59 95.93C39.65 95.88 39.72 95.83 39.78 95.78C53.48 85.5 71.01 77.96 71.01 77.96" stroke="#13110C" stroke-miterlimit="10"/>
<path d="M39.28 96.54V119.07L33.14 125.85L30.25 125.9V104.27L39.28 96.54Z" fill="#E31013" stroke="#13110C" stroke-miterlimit="10"/>
<path d="M39.28 119.07H43.96V92.7998L39.28 96.1598V119.07Z" fill="#13110C" stroke="#13110C" stroke-miterlimit="10"/>
<path d="M71.13 117.92C71.13 124.86 65.5 130.5 58.55 130.5C51.6 130.5 45.97 124.87 45.97 117.92C45.97 112 50.07 107.03 55.58 105.7C56.53 105.47 57.52 105.35 58.54 105.35C65.5 105.34 71.13 110.97 71.13 117.92Z" fill="#211C4B" stroke="#13110C" stroke-miterlimit="10"/>
<path d="M61.78 105.76V115.23C61.78 115.23 68.14 115.89 71.13 118.29C71.56 118.63 70.17 122.74 70.17 122.74C59.91 118.44 46.59 121.8 46.59 121.8C46.07 120.46 45.98 117.92 45.98 117.92C50.09 115.04 55.43 115.23 55.43 115.23V105.94C55.43 105.94 58.92 104.61 61.78 105.76Z" fill="#FFEA24" stroke="#13110C" stroke-miterlimit="10"/>
<path d="M60.28 107.17V108.48H59.31V109.73H57.81V108.61H56.75V107.29H57.81V106.36H59.39L59.37 107.22L60.28 107.17Z" fill="#E31013"/>
<path d="M60.28 111.69V113H59.31V114.25H57.81V113.13H56.75V111.82H57.81V110.88H59.39L59.37 111.74L60.28 111.69Z" fill="#E31013"/>
<path d="M55.1601 117.04V118.36H54.1801V119.61H52.6801V118.48H51.6201V117.17H52.6801V116.23H54.2601L54.2501 117.09L55.1601 117.04Z" fill="#E31013"/>
<path d="M59.9699 116.51V117.82H58.9999V119.07H57.4999V117.94H56.4299V116.63H57.4999V115.69H59.0699L59.0599 116.55L59.9699 116.51Z" fill="#E31013"/>
<path d="M65.1601 117.48V118.79H64.1801V120.04H62.6801V118.92H61.6201V117.61H62.6801V116.67H64.2601L64.2501 117.53L65.1601 117.48Z" fill="#E31013"/>
<path d="M69.32 119.02V119.9H68.67V120.73H67.67V119.98H66.96V119.11H67.67V118.48H68.72L68.71 119.05L69.32 119.02Z" fill="#E31013"/>
<path d="M50.1901 118.49V119.36H49.5401V120.19H48.5401V119.44H47.8301V118.57H48.5401V117.94H49.5901L49.5801 118.52L50.1901 118.49Z" fill="#E31013"/>
<path d="M62.7099 106.96L62.6299 114.29C62.6299 114.29 66.7199 114.25 69.7999 116.35" stroke="white" stroke-miterlimit="10"/>
<path d="M54.26 106.63L54.41 113.96C54.41 113.96 50.32 113.96 47.26 116.08" stroke="white" stroke-miterlimit="10"/>
<path d="M53.3899 121.67C53.3899 121.67 57.9299 128.42 63.8699 121.67" stroke="#13110C" stroke-miterlimit="10"/>
<path d="M55.6201 121.9C55.6201 121.9 58.1701 125.69 61.5001 121.9" stroke="#FFEA24" stroke-miterlimit="10"/>
<path d="M50.8301 121.67C50.8301 121.67 53.7201 126.67 58.5101 126.73C58.5101 126.73 63.1801 126.92 65.9301 122.42" stroke="#13110C" stroke-miterlimit="10"/>
<path d="M48.5601 122.23C48.5601 122.23 52.6001 129.35 58.5201 128.79C58.5201 128.79 63.1901 129.67 67.8801 123.48" stroke="#13110C" stroke-miterlimit="10"/>
<path d="M52.05 122.23C52.05 122.23 57.7601 129.77 65.2201 122.23" stroke="#FFEA24" stroke-miterlimit="10"/>
<path d="M50.1399 122.74C50.1399 122.74 57.4699 134.12 67.0599 122.74" stroke="#FFEA24" stroke-miterlimit="10"/>
<path d="M48.1799 123.58C48.1799 123.58 57.1799 137.4 68.9299 123.58" stroke="#FFEA24" stroke-miterlimit="10"/>
<path d="M61.05 105.52C63.1 101.81 58.63 101.6 58.63 101.6C54.7 102.16 56.43 105.34 56.43 105.34C56.43 105.34 60.08 104.82 61.05 105.52Z" fill="#E31013" stroke="#13110C" stroke-miterlimit="10"/>
<path d="M58.6299 101.61L56.4299 97.61L58.6299 92.23L61.0599 97.67L59.2599 101.69L58.6299 101.61Z" fill="#FFEA24" stroke="#13110C" stroke-miterlimit="10"/>
<path d="M68.9299 103.86L64.4999 99.29L60.8799 101.69L68.9299 103.86Z" fill="#FFEA24" stroke="#13110C" stroke-miterlimit="10"/>
<path d="M49.01 103.73L53.5 99.2202L57.09 101.66L49.01 103.73Z" fill="#FFEA24" stroke="#13110C" stroke-miterlimit="10"/>
<path d="M83.8801 119.16C84.0501 119.58 85.2801 118.48 85.2801 118.48C77.8101 96.28 57.2901 84.75 57.2901 84.75L55.6201 85.67C55.6201 85.66 75.1301 97.02 83.8801 119.16Z" fill="#FFEA24" stroke="#13110C" stroke-miterlimit="10"/>
<path d="M90.32 135.16C95.4618 135.16 99.63 130.992 99.63 125.85C99.63 120.708 95.4618 116.54 90.32 116.54C85.1782 116.54 81.01 120.708 81.01 125.85C81.01 130.992 85.1782 135.16 90.32 135.16Z" fill="#211C4B" stroke="#13110C" stroke-miterlimit="10"/>
<path d="M93.43 125.9C93.43 127.52 92.12 128.84 90.49 128.84C88.86 128.84 87.55 127.53 87.55 125.9C87.55 124.27 88.86 122.96 90.49 122.96C92.12 122.96 93.43 124.28 93.43 125.9Z" fill="#FFEA24"/>
<path d="M90.32 118.59C89.4 118.92 89.69 121.39 89.69 121.39L88.72 121.37C88.72 121.37 87.92 116.61 90.58 117.21C90.58 117.21 92.95 117.16 92.13 121.37L91.13 121.39C91.12 121.39 91.24 118.27 90.32 118.59Z" fill="white"/>
<path d="M95.58 120.81C94.7 120.39 93.16 122.35 93.16 122.35L92.48 121.65C92.48 121.65 95.27 117.71 96.73 120.01C96.73 120.01 98.44 121.65 94.89 124.05L94.17 123.35C94.18 123.35 96.47 121.23 95.58 120.81Z" fill="white"/>
<path d="M97.6601 126.25C97.3601 125.32 94.8801 125.53 94.8801 125.53L94.9301 124.56C94.9301 124.56 99.7101 123.91 99.0301 126.55C99.0301 126.55 99.0101 128.92 94.8201 127.97L94.8301 126.97C94.8301 126.97 97.9501 127.19 97.6601 126.25Z" fill="white"/>
<path d="M95.46 131.37C95.97 130.53 94.17 128.81 94.17 128.81L94.93 128.2C94.93 128.2 98.58 131.36 96.14 132.59C96.14 132.59 94.34 134.14 92.3 130.37L93.06 129.72C93.06 129.72 94.95 132.2 95.46 131.37Z" fill="white"/>
<path d="M90.4001 133.32C91.2901 133.02 91.0801 130.54 91.0801 130.54L92.0001 130.58C92.0001 130.58 92.6301 135.36 90.1101 134.69C90.1101 134.69 87.8501 134.68 88.7501 130.49L89.7101 130.5C89.7201 130.5 89.5201 133.62 90.4001 133.32Z" fill="white"/>
<path d="M85.4799 131.35C86.3499 131.79 87.9399 129.87 87.9399 129.87L88.5999 130.58C88.5999 130.58 85.7199 134.45 84.3099 132.12C84.3099 132.12 82.6399 130.45 86.2399 128.12L86.9499 128.83C86.9399 128.83 84.6099 130.91 85.4799 131.35Z" fill="white"/>
<path d="M83.05 126.11C83.38 127.03 85.85 126.73 85.85 126.73L85.84 127.7C85.84 127.7 81.08 128.52 81.67 125.86C81.67 125.86 81.61 123.49 85.83 124.29L85.85 125.29C85.85 125.3 82.73 125.19 83.05 126.11Z" fill="white"/>
<path d="M85.0099 120.7C84.6999 121.63 86.8199 122.92 86.8199 122.92L86.1999 123.67C86.1999 123.67 81.9599 121.36 84.0799 119.64C84.0799 119.64 85.4999 117.74 88.3099 120.99L87.6999 121.79C87.7099 121.79 85.3299 119.77 85.0099 120.7Z" fill="white"/>
<path d="M72.12 119.07C72.12 119.07 73.95 122.22 74.96 125.98H72.12C72.12 125.98 71.48 121.65 70.74 121.07L72.12 119.07Z" fill="#FFEA24" stroke="#13110C" stroke-miterlimit="10"/>
<path d="M72.1201 125.98L68.3201 125.85C68.3201 125.85 71.0301 122.1 70.7401 121.06L72.1201 125.98Z" fill="#211C4B" stroke="#13110C" stroke-miterlimit="10"/>
<path d="M83.8401 119.07C79.0801 107.55 72.1201 99.8501 72.1201 99.8501V119.07L73.5101 121.9H81.8801C81.8801 121.9 83.0201 119.26 83.9201 119.21" fill="#E31013"/>
<path d="M83.8401 119.07C79.0801 107.55 72.1201 99.8501 72.1201 99.8501V119.07L73.5101 121.9H81.8801C81.8801 121.9 83.0201 119.26 83.9201 119.21" stroke="#13110C" stroke-miterlimit="10"/>
<path d="M73.78 102V104.27L75.83 104.62L73.78 102Z" fill="#211C4B"/>
<path d="M78.8999 110.14L77.1299 107.32L76.8899 109.58" fill="#211C4B"/>
<path d="M81.99 115.72L80.41 112.78L80.02 115.02" fill="#211C4B"/>
<path d="M74.8101 103.57L72.1201 105.48" stroke="#211C4B" stroke-miterlimit="10"/>
<path d="M78.02 108.73C78.02 108.73 73.56 112.11 72.54 112.76L78.02 108.73Z" fill="#211C4B"/>
<path d="M78.02 108.73C78.02 108.73 73.56 112.11 72.54 112.76" stroke="#211C4B" stroke-miterlimit="10"/>
<path d="M81 114.25C81 114.25 75.51 117.51 73.46 120.04L81 114.25Z" fill="#211C4B"/>
<path d="M81 114.25C81 114.25 75.51 117.51 73.46 120.04" stroke="#211C4B" stroke-miterlimit="10"/>
<path d="M83.1599 118.48C83.1599 118.48 80.8999 120.25 80.1699 121.39L83.1599 118.48Z" fill="#211C4B"/>
<path d="M83.1599 118.48C83.1599 118.48 80.8999 120.25 80.1699 121.39" stroke="#211C4B" stroke-miterlimit="10"/>
<path d="M57.29 84.7402C77.81 96.5702 85.28 118.02 85.28 118.02C87.64 116.02 90.32 116.53 90.32 116.53C89.06 110.4 79.14 81.3602 79.14 81.3602C79.14 81.3602 73.54 81.1802 71.01 77.9502L57.29 84.7402Z" fill="#13110C" stroke="#13110C" stroke-miterlimit="10"/>
<path d="M64.0199 86.4001C64.7876 86.4001 65.4099 85.7778 65.4099 85.0101C65.4099 84.2424 64.7876 83.6201 64.0199 83.6201C63.2522 83.6201 62.6299 84.2424 62.6299 85.0101C62.6299 85.7778 63.2522 86.4001 64.0199 86.4001Z" fill="white"/>
<path d="M79.0399 87.6502C79.0399 88.4502 78.3899 89.1002 77.5899 89.1002C76.7899 89.1002 76.1399 88.4502 76.1399 87.6502C76.1399 86.8502 76.7899 86.2002 77.5899 86.2002C78.3899 86.2002 79.0399 86.8402 79.0399 87.6502Z" fill="white"/>
<path d="M75 95.4299C75 95.9799 74.56 96.4199 74.01 96.4199C73.46 96.4199 73.02 95.9799 73.02 95.4299C73.02 94.8799 73.46 94.4399 74.01 94.4399C74.56 94.4399 75 94.8799 75 95.4299Z" fill="white"/>
<path d="M79.48 100.23C79.48 100.71 79.09 101.1 78.61 101.1C78.13 101.1 77.74 100.71 77.74 100.23C77.74 99.7499 78.13 99.3599 78.61 99.3599C79.09 99.3599 79.48 99.7499 79.48 100.23Z" fill="white"/>
<path d="M71.8799 87.65C72.6807 87.65 73.3299 87.0008 73.3299 86.2C73.3299 85.3992 72.6807 84.75 71.8799 84.75C71.0791 84.75 70.4299 85.3992 70.4299 86.2C70.4299 87.0008 71.0791 87.65 71.8799 87.65Z" fill="white"/>
<path d="M87.12 113.98C87.12 114.65 86.58 115.19 85.91 115.19C85.24 115.19 84.7 114.65 84.7 113.98C84.7 113.31 85.24 112.77 85.91 112.77C86.57 112.77 87.12 113.31 87.12 113.98Z" fill="white"/>
<path d="M71.88 86.2001C71.88 86.2001 76.4 86.2001 73.02 82.3101C73.02 82.3101 66.2 79.5601 67.88 88.3601C67.88 88.3601 70.33 94.2801 79.49 91.9201L76.15 97.4801L81.5 96.6801L81.66 103.85C81.66 103.85 88.24 110.93 87.51 113.17L86.36 113.97" stroke="white" stroke-miterlimit="10"/>
<path d="M79.1399 81.3698L81.6599 81.2798C81.6599 81.2798 91.4199 111.16 92.2899 116.75L90.3099 116.54L79.1399 81.3698Z" fill="#FFEA24" stroke="#13110C" stroke-miterlimit="10"/>
<path d="M121.55 78.96C99.9299 103.83 108.26 125.9 108.26 125.9L106.1 125.85C106.1 125.85 98.7199 99.23 119.82 78.25L121.55 78.96Z" fill="#FFEA24" stroke="#13110C" stroke-miterlimit="10"/>
<path d="M123.87 79.96C117.66 86.08 112.33 96.96 112.33 96.96C105.47 112.36 110.86 125.85 110.86 125.85L108.25 125.9C101.42 98.22 121.54 78.96 121.54 78.96L123.87 79.96Z" fill="#211C4B" stroke="#13110C" stroke-miterlimit="10"/>
<path d="M110.86 125.85L112.76 125.9C112.76 125.9 115.11 122.85 118.92 121.39C118.92 121.39 112.45 101.98 132.3 84.1202L123.86 79.9702C123.87 79.9602 102.98 99.7802 110.86 125.85Z" fill="#E31013" stroke="#13110C" stroke-miterlimit="10"/>
<path d="M120.1 90.3202C118.69 92.2802 117.93 94.1402 118.4 94.4802C118.87 94.8102 120.39 93.5002 121.79 91.5402C123.2 89.5802 123.96 87.7202 123.49 87.3902C123.02 87.0402 121.5 88.3602 120.1 90.3202Z" fill="#211C4B"/>
<path d="M116.92 93.4798C117.517 93.4798 118 92.9963 118 92.3998C118 91.8034 117.517 91.3198 116.92 91.3198C116.324 91.3198 115.84 91.8034 115.84 92.3998C115.84 92.9963 116.324 93.4798 116.92 93.4798Z" fill="#211C4B"/>
<path d="M120.94 96.1898C121.537 96.1898 122.02 95.7063 122.02 95.1098C122.02 94.5133 121.537 94.0298 120.94 94.0298C120.344 94.0298 119.86 94.5133 119.86 95.1098C119.86 95.7063 120.344 96.1898 120.94 96.1898Z" fill="#211C4B"/>
<path d="M115.25 100.85C114.13 102.99 113.63 104.93 114.14 105.2C114.65 105.47 115.97 103.95 117.09 101.82C118.21 99.68 118.71 97.74 118.2 97.47C117.7 97.2 116.38 98.72 115.25 100.85Z" fill="#211C4B"/>
<path d="M113.47 103.2C113.55 103.79 113.14 104.34 112.55 104.42C111.96 104.5 111.41 104.09 111.33 103.5C111.25 102.91 111.66 102.36 112.25 102.28C112.84 102.2 113.39 102.61 113.47 103.2Z" fill="#211C4B"/>
<path d="M117.83 105.32C117.91 105.91 117.5 106.46 116.91 106.54C116.32 106.62 115.77 106.21 115.69 105.62C115.61 105.03 116.02 104.48 116.61 104.4C117.2 104.32 117.75 104.73 117.83 105.32Z" fill="#211C4B"/>
<path d="M112.82 115.01C112.78 117.42 113.2 119.39 113.78 119.4C114.35 119.41 114.86 117.46 114.9 115.05C114.95 112.64 114.52 110.67 113.94 110.66C113.37 110.65 112.87 112.59 112.82 115.01Z" fill="#211C4B"/>
<path d="M112.28 117.9C112.62 118.39 112.5 119.07 112 119.41C111.51 119.75 110.83 119.63 110.49 119.13C110.15 118.64 110.27 117.96 110.77 117.62C111.27 117.29 111.94 117.41 112.28 117.9Z" fill="#211C4B"/>
<path d="M117.13 117.85C117.47 118.34 117.35 119.02 116.85 119.36C116.36 119.7 115.68 119.58 115.34 119.08C115 118.59 115.12 117.91 115.62 117.57C116.11 117.23 116.79 117.36 117.13 117.85Z" fill="#211C4B"/>
<path d="M124.58 83.5298C124.66 84.1198 124.25 84.6698 123.66 84.7498C123.07 84.8298 122.52 84.4198 122.44 83.8298C122.36 83.2398 122.77 82.6898 123.36 82.6098C123.95 82.5198 124.5 82.9398 124.58 83.5298Z" fill="#211C4B"/>
<path d="M128.94 85.6502C129.02 86.2402 128.61 86.7902 128.02 86.8702C127.43 86.9502 126.88 86.5402 126.8 85.9502C126.72 85.3602 127.13 84.8102 127.72 84.7302C128.31 84.6502 128.85 85.0602 128.94 85.6502Z" fill="#211C4B"/>
<path d="M118.93 121.39C118.93 121.39 120.68 120.71 121.55 121.07C121.55 121.07 116.37 100.16 134.69 85.6701L132.32 84.1201C132.31 84.1101 112.53 101.35 118.93 121.39Z" fill="#211C4B" stroke="#13110C" stroke-miterlimit="10"/>
<path d="M135.82 87.7498C135.82 87.7498 120.12 96.8998 123.31 120.95L121.55 121.06C121.55 121.06 117.16 98.5998 134.87 85.7998L135.82 86.6898V87.7498Z" fill="#FFEA24" stroke="#13110C" stroke-miterlimit="10"/>
<path d="M135.16 93.0898C135.16 93.0898 124.51 99.4098 126.17 120.96" stroke="white" stroke-miterlimit="10"/>
<path d="M135.16 99.7502C135.16 99.7502 131.75 98.5802 131.16 101.33C131.16 101.33 131.32 103.6 135.16 102.92" stroke="white" stroke-miterlimit="10"/>
<path d="M135.16 105.5C135.16 105.5 130.04 104.33 129.16 107.08C129.16 107.08 129.41 109.35 135.16 108.67" stroke="white" stroke-miterlimit="10"/>
<path d="M131.86 112.01C131.86 112.01 128.45 110.84 127.86 113.59C127.86 113.59 128.03 115.86 131.86 115.18" stroke="white" stroke-miterlimit="10"/>
<path d="M131.47 118.08C131.47 118.08 128.06 116.91 127.47 119.66C127.47 119.66 127.63 121.93 131.47 121.25" stroke="white" stroke-miterlimit="10"/>
<path d="M117.51 80.71L119.82 78.25C119.82 78.25 133.25 83.59 135.82 86.69L134.69 85.66" stroke="#13110C" stroke-miterlimit="10"/>
<path d="M117.51 80.7101L98.98 89.8001L85.28 80.8901L88.56 80.3201L99.65 87.7501L115.65 79.7101L118.93 78.5601L117.51 80.7101Z" fill="#FFEA24" stroke="#13110C" stroke-miterlimit="10"/>
<path d="M118.01 80.6001C109.33 89.0901 108.05 96.4301 108.05 96.4301L100.4 100.24L84.9599 91.5201L81.6699 81.3001L85.2899 80.9101L98.9899 89.8201L118.01 80.6001Z" fill="#211C4B" stroke="#13110C" stroke-miterlimit="10"/>
<path d="M82.52 82.4702L99.83 92.7502L111.59 87.3302" stroke="white" stroke-miterlimit="10"/>
<path d="M85.28 90.6299L100.35 99.3599L107.58 95.5599" stroke="white" stroke-miterlimit="10"/>
<path d="M105.34 121.9H98.7501C96.7301 117.69 92.3001 116.75 92.3001 116.75L85.0701 91.8599L100.4 100.23L108.05 96.4199C108.04 96.4199 103.27 106.47 105.34 121.9Z" fill="#FFEA24" stroke="#13110C" stroke-miterlimit="10"/>
<path d="M92.98 96.1899V116.95" stroke="#13110C" stroke-miterlimit="10"/>
<path d="M100.39 100.23V121.9" stroke="#13110C" stroke-miterlimit="10"/>
<path d="M87.5601 99.8499L92.9801 96.4199" stroke="#13110C" stroke-miterlimit="10"/>
<path d="M89.2 105.23L92.98 103.06" stroke="#13110C" stroke-miterlimit="10"/>
<path d="M90.5 109.65L92.98 109.15" stroke="#13110C" stroke-miterlimit="10"/>
<path d="M92.98 98.54L100.39 103.31V106.83L92.98 101.98V98.54Z" fill="white" stroke="#13110C" stroke-miterlimit="10"/>
<path d="M92.98 105.23V108.73L100.39 112.78V109.15L92.98 105.23Z" fill="white" stroke="#13110C" stroke-miterlimit="10"/>
<path d="M92.98 111.43L100.39 116.54V119.61L92.98 114.63V111.43Z" fill="white" stroke="#13110C" stroke-miterlimit="10"/>
<path d="M100.39 106.56L105.84 103.73" stroke="#13110C" stroke-miterlimit="10"/>
<path d="M100.39 112.23L104.84 110.48" stroke="#13110C" stroke-miterlimit="10"/>
<path d="M100.39 118.46L104.84 116.27" stroke="#13110C" stroke-miterlimit="10"/>
<path d="M142.24 130C142.24 131.49 141.03 132.7 139.54 132.7C138.05 132.7 136.84 131.49 136.84 130V124.92C136.84 123.43 138.05 122.22 139.54 122.22C141.03 122.22 142.24 123.43 142.24 124.92V130Z" fill="#D08B0F" stroke="#13110C" stroke-miterlimit="10"/>
<path d="M91.4799 171.54L80.7599 164.49L65.8899 172.14L78.5499 178.8L91.4799 171.54Z" fill="#E31013" stroke="#13110C" stroke-miterlimit="10"/>
<path d="M44.6 164.49L44.28 126.39L48.22 126.34C48.22 126.34 52.46 130.59 57.1 131.29C57.11 131.29 61.45 152.58 44.6 164.49Z" fill="#13110C" stroke="#13110C" stroke-miterlimit="10"/>
<path d="M106.64 129.72H75" stroke="white" stroke-miterlimit="10"/>
<path d="M74.3201 126.34C74.8901 126.79 74.8801 128.56 74.8801 128.56L106.24 128.72C106.24 128.72 105.62 127.26 105.45 126.26L74.3201 126.34Z" fill="#13110C" stroke="#13110C" stroke-miterlimit="10"/>
<path d="M136.46 133.18H108.3V152.39C108.3 152.39 118.25 162.47 124.8 166.58C124.8 166.58 132.71 162.13 136.46 159.44V133.18Z" fill="white" stroke="#13110C" stroke-miterlimit="10"/>
<path d="M127.36 163.89H122.86" stroke="#211C4B" stroke-miterlimit="10"/>
<path d="M131.05 162.14H120.14" stroke="#211C4B" stroke-miterlimit="10"/>
<path d="M134.86 158.76H117.17" stroke="#211C4B" stroke-miterlimit="10"/>
<path d="M133.95 160.33H118.36" stroke="#211C4B" stroke-miterlimit="10"/>
<path d="M135.04 157.14H114.98" stroke="#211C4B" stroke-miterlimit="10"/>
<path d="M135.14 155.28H112.8" stroke="#211C4B" stroke-miterlimit="10"/>
<path d="M135.16 153.7H111.1" stroke="#211C4B" stroke-miterlimit="10"/>
<path d="M135.16 152.01H109.41" stroke="#211C4B" stroke-miterlimit="10"/>
<path d="M135.08 150.26H109.33" stroke="#211C4B" stroke-miterlimit="10"/>
<path d="M135.25 148.51H109.5" stroke="#211C4B" stroke-miterlimit="10"/>
<path d="M135.25 146.77H109.5" stroke="#211C4B" stroke-miterlimit="10"/>
<path d="M135.43 145.01H109.68" stroke="#211C4B" stroke-miterlimit="10"/>
<path d="M135.25 143.52H109.5" stroke="#211C4B" stroke-miterlimit="10"/>
<path d="M135.43 141.76H109.68" stroke="#211C4B" stroke-miterlimit="10"/>
<path d="M135.43 140.02H109.68" stroke="#211C4B" stroke-miterlimit="10"/>
<path d="M135.6 138.27H109.86" stroke="#211C4B" stroke-miterlimit="10"/>
<path d="M135.38 136.51H109.63" stroke="#211C4B" stroke-miterlimit="10"/>
<path d="M135.56 134.76H109.81" stroke="#211C4B" stroke-miterlimit="10"/>
<path d="M61.5199 207.8C58.0499 216.63 50.1399 222.72 50.1399 222.72H116.69C116.69 222.72 107.57 212.58 106.28 209.4C106.28 209.4 79.3699 217.52 61.5199 207.8Z" fill="#FFEA24" stroke="#13110C" stroke-miterlimit="10"/>
<path d="M62.93 205.03C79.59 212.17 104.49 206.62 104.49 206.62L106.28 209.4C106.28 209.4 84.23 216.74 61.52 207.8L62.93 205.03Z" fill="#E31013" stroke="#13110C" stroke-miterlimit="10"/>
<path d="M62.9299 205.03L64.0199 201.56C79.8899 208.2 102.5 202.85 102.5 202.85L104.48 206.62C104.49 206.62 78.8999 212.08 62.9299 205.03Z" fill="#13110C" stroke="#13110C" stroke-miterlimit="10"/>
<path d="M98.7399 214.16H87.4399C87.4399 214.16 92.8999 215.85 93.0899 216.64C93.2899 217.43 93.8799 215.94 98.7399 214.16Z" fill="#211C4B"/>
<path d="M79.4199 214.08L68.1399 213.26C68.1399 213.26 73.4599 215.34 73.5999 216.14C73.7399 216.94 74.4399 215.5 79.4199 214.08Z" fill="#211C4B"/>
<path d="M100.33 214.81C100.33 213.99 101 213.32 101.82 213.32C102.64 213.32 103.31 213.99 103.31 214.81C103.31 215.63 102.64 216.3 101.82 216.3C101 216.3 100.33 215.64 100.33 214.81Z" fill="#211C4B"/>
<path d="M82.4099 215.48C82.4099 214.66 83.0799 213.99 83.8999 213.99C84.7199 213.99 85.3899 214.66 85.3899 215.48C85.3899 216.3 84.7199 216.97 83.8999 216.97C83.0799 216.97 82.4099 216.3 82.4099 215.48Z" fill="#211C4B"/>
<path d="M63.6899 213.33C63.6899 212.51 64.3599 211.84 65.1799 211.84C65.9999 211.84 66.6699 212.51 66.6699 213.33C66.6699 214.15 65.9999 214.82 65.1799 214.82C64.3599 214.81 63.6899 214.15 63.6899 213.33Z" fill="#211C4B"/>
<path d="M91.8201 219.2C91.8201 218.5 92.3901 217.93 93.0901 217.93C93.7901 217.93 94.3601 218.5 94.3601 219.2C94.3601 219.9 93.7901 220.47 93.0901 220.47C92.3901 220.47 91.8201 219.9 91.8201 219.2Z" fill="#211C4B"/>
<path d="M73.01 219.2C73.01 218.5 73.58 217.93 74.28 217.93C74.98 217.93 75.55 218.5 75.55 219.2C75.55 219.9 74.98 220.47 74.28 220.47C73.58 220.47 73.01 219.9 73.01 219.2Z" fill="#211C4B"/>
<path d="M101.07 219.2C101.07 217.84 101.4 216.74 101.81 216.74C102.22 216.74 102.55 217.84 102.55 219.2C102.55 220.56 102.22 221.66 101.81 221.66C101.41 221.66 101.07 220.56 101.07 219.2Z" fill="#211C4B"/>
<path d="M98.2601 217.7C99.3001 216.82 100.36 216.37 100.63 216.69C100.89 217.01 100.26 217.97 99.2201 218.84C98.1801 219.71 97.1201 220.17 96.8501 219.85C96.5901 219.54 97.2201 218.58 98.2601 217.7Z" fill="#211C4B"/>
<path d="M105.43 217.71C106.47 218.59 107.09 219.56 106.83 219.87C106.56 220.18 105.51 219.72 104.47 218.84C103.43 217.96 102.81 216.99 103.07 216.68C103.34 216.37 104.39 216.83 105.43 217.71Z" fill="#211C4B"/>
<path d="M83.1299 219.88C83.1299 218.52 83.4599 217.42 83.8699 217.42C84.2799 217.42 84.6099 218.52 84.6099 219.88C84.6099 221.24 84.2799 222.34 83.8699 222.34C83.4599 222.34 83.1299 221.24 83.1299 219.88Z" fill="#211C4B"/>
<path d="M80.3201 218.38C81.3601 217.5 82.4201 217.05 82.6901 217.37C82.9501 217.69 82.3201 218.65 81.2801 219.52C80.2401 220.39 79.1801 220.85 78.9101 220.53C78.6501 220.22 79.2801 219.26 80.3201 218.38Z" fill="#211C4B"/>
<path d="M87.49 218.38C88.53 219.26 89.15 220.23 88.89 220.54C88.62 220.85 87.57 220.39 86.53 219.51C85.49 218.63 84.87 217.66 85.13 217.35C85.39 217.04 86.45 217.5 87.49 218.38Z" fill="#211C4B"/>
<path d="M64.0401 218.62C64.1101 217.26 64.5001 216.18 64.9101 216.2C65.3201 216.22 65.6001 217.34 65.5201 218.7C65.4501 220.06 65.0601 221.14 64.6501 221.12C64.2401 221.1 63.9701 219.98 64.0401 218.62Z" fill="#211C4B"/>
<path d="M61.3099 216.98C62.3999 216.16 63.4799 215.76 63.7299 216.09C63.9799 216.42 63.2999 217.35 62.2099 218.17C61.1199 218.99 60.0399 219.39 59.7899 219.06C59.5499 218.73 60.2299 217.8 61.3099 216.98Z" fill="#211C4B"/>
<path d="M68.4701 217.36C69.4601 218.29 70.0301 219.29 69.7501 219.59C69.4701 219.89 68.4401 219.37 67.4501 218.44C66.4601 217.51 65.8901 216.51 66.1701 216.21C66.4501 215.91 67.4801 216.42 68.4701 217.36Z" fill="#211C4B"/>
<path d="M109.45 215.67C109.37 215.67 105.54 214.15 104.21 215.48" stroke="#211C4B" stroke-miterlimit="10"/>
<path d="M99.1201 215.51C99.1201 215.51 96.0401 215.74 94.5601 217.26" stroke="#211C4B" stroke-miterlimit="10"/>
<path d="M91.6101 217.41C91.6101 217.41 88.6701 215.05 86.6201 215.08" stroke="#211C4B" stroke-miterlimit="10"/>
<path d="M80.3901 214.97C80.3901 214.97 76.6101 215.74 75.3701 217.26" stroke="#211C4B" stroke-miterlimit="10"/>
<path d="M72.2401 216.83C72.2401 216.83 70.3001 214.39 67.8701 213.99" stroke="#211C4B" stroke-miterlimit="10"/>
<path d="M62.44 213.33C62.44 213.33 59.93 213.44 58.55 215.19" stroke="#211C4B" stroke-miterlimit="10"/>
<path d="M76.62 175.75C76.62 175.75 76.48 168.73 80.38 168.94C80.38 168.94 89.45 169.01 91.86 171.92C91.86 171.92 103.84 169.29 107.67 172.34C107.67 172.34 113.41 176.67 108.31 181.91L107.32 182.41C107.32 182.41 108.24 186.03 104.91 185.17L104.98 188.71C104.98 188.71 108.1 189.84 105.97 192.4C105.97 192.4 104.13 194.03 103.99 198.14C103.99 198.14 104.39 202.45 102.51 202.84C102.51 202.84 102.32 202.88 101.97 202.96C98.36 203.71 77.36 207.7 64.02 201.55C64.02 201.55 59.39 196.23 60.59 184.81L60.39 183.53C60.39 183.53 55.48 184.81 54.71 183.25C54.71 183.25 51.31 176.87 57.19 175.17L70.16 170.63C70.17 170.65 74.49 170.86 76.62 175.75Z" fill="#AFA3C7" stroke="#13120D" stroke-miterlimit="10"/>
<path d="M78.82 204.04C78.82 204.04 76.84 187.66 78.4 183.98C78.4 183.98 83.9 175.2 88.25 173.49C88.25 173.49 98.53 170.3 102.36 178.81C102.36 178.81 103.42 197.6 102.36 200.72L101.98 202.98C101.97 202.97 85.2 206.24 78.82 204.04Z" fill="#FED68A" stroke="#13110C" stroke-miterlimit="10"/>
<path d="M90.1 199.79C90.1 199.79 82.08 201.85 79.24 198.37" stroke="#13110C" stroke-miterlimit="10"/>
<path d="M101.79 199.93C101.79 199.93 97.18 200.99 94.63 199.93C94.63 199.93 93.71 190.64 94.63 189.58C94.63 189.58 97.64 186.32 94.22 185.61C94.22 185.61 91.86 187.24 90.87 185.61C90.87 185.61 86.33 185.36 89.81 188.85" stroke="#13110C" stroke-miterlimit="10"/>
<path d="M99.5901 182.84C99.5901 182.84 98.8801 185.11 100.94 184.12C100.94 184.12 102.57 180.65 98.8101 181.14C98.8101 181.14 94.4801 182.63 93.3501 183.69" stroke="#13110C" stroke-miterlimit="10"/>
<path d="M91.2199 183.55C91.2199 183.55 86.7499 180.76 84.4099 181.09C84.4099 181.09 81.4099 182.84 83.4099 183.83C83.4099 183.83 85.4199 184.6 84.6699 182.73" stroke="#13110C" stroke-miterlimit="10"/>
<path d="M96.5401 179.23H87.6101" stroke="#13110C" stroke-miterlimit="10"/>
<path d="M93.6301 179.72H90.1001" stroke="#13110C" stroke-miterlimit="10"/>
<path d="M93.6301 178.8H90.3101" stroke="#13110C" stroke-miterlimit="10"/>
<path d="M94.0601 177.53C94.0601 177.53 92.3001 175.05 90.3101 177.53" stroke="#13110C" stroke-miterlimit="10"/>
<path d="M80.23 194.4C85.76 199.43 90.31 194.4 90.31 194.4C90.31 194.4 88.53 191.7 80.23 194.4Z" stroke="#13110C" stroke-miterlimit="10"/>
<path d="M89.1699 193C89.1699 193 87.9099 189.86 84.6699 190.21" stroke="#13110C" stroke-miterlimit="10"/>
<path d="M95.1401 195.32C99.6601 197.6 102.07 194.92 102.07 194.92C102.07 194.92 102.06 191.47 95.1401 193.69C95.1401 193.69 94.3701 194.93 95.1401 195.32Z" stroke="#13110C" stroke-miterlimit="10"/>
<path d="M95.8999 192.41C95.8999 192.41 98.7799 190.49 100.79 190.78" stroke="#13110C" stroke-miterlimit="10"/>
<path d="M83.8999 194.9C83.8999 194.59 84.5899 194.33 85.4399 194.33C86.2899 194.33 86.9799 194.58 86.9799 194.9C86.9799 195.21 86.2899 195.47 85.4399 195.47C84.5899 195.46 83.8999 195.21 83.8999 194.9Z" fill="#13110C" stroke="#13110C" stroke-miterlimit="10"/>
<path d="M97.3201 194.59C97.3201 194.34 98.0301 194.13 98.9201 194.13C99.8001 194.13 100.52 194.34 100.52 194.59C100.52 194.84 99.8101 195.05 98.9201 195.05C98.0301 195.05 97.3201 194.85 97.3201 194.59Z" fill="#13110C" stroke="#13110C" stroke-miterlimit="10"/>
<path d="M77.05 203.16C77.05 203.16 76.18 179.86 75.69 178.8C75.19 177.74 72.78 171.45 69.44 172.9C66.1 174.35 67.28 179.6 69.44 180.78" stroke="#13110C" stroke-width="0.5" stroke-miterlimit="10"/>
<path d="M75.19 202.85C75.19 202.85 75.25 177.56 71.6 175.33C71.6 175.33 68.57 174.27 69.87 177.52" stroke="#13110C" stroke-width="0.5" stroke-miterlimit="10"/>
<path d="M72.3701 178.8C72.3701 178.8 71.5901 180.37 68.0901 181.67C66.3501 182.32 63.9301 182.9 60.6001 183.19" stroke="#13110C" stroke-width="0.5" stroke-miterlimit="10"/>
<path d="M66.7799 172.9C66.7799 172.9 63.4999 177.07 67.6499 181.83" stroke="#13110C" stroke-width="0.5" stroke-miterlimit="10"/>
<path d="M64.62 173.54C64.62 173.54 61.54 177.21 65.55 182.42" stroke="#13110C" stroke-width="0.5" stroke-miterlimit="10"/>
<path d="M62.5201 174.28C62.5201 174.28 59.6501 177.96 63.4901 182.83" stroke="#13110C" stroke-width="0.5" stroke-miterlimit="10"/>
<path d="M59.86 175.17C59.86 175.17 57.97 178.65 61.05 183.14" stroke="#13110C" stroke-width="0.5" stroke-miterlimit="10"/>
<path d="M57.7001 175.95C57.7001 175.95 55.7801 178.92 58.8701 183.56" stroke="#13110C" stroke-width="0.5" stroke-miterlimit="10"/>
<path d="M55.7801 176.42C55.7801 176.42 54.3001 179.91 56.7701 183.99" stroke="#13110C" stroke-width="0.5" stroke-miterlimit="10"/>
<path d="M73.28 202.48C73.28 202.48 72.85 180.61 71.05 181.09" stroke="#13110C" stroke-width="0.5" stroke-miterlimit="10"/>
<path d="M71.0501 202.48C71.0501 202.48 71.3001 184.01 68.8201 182.43" stroke="#13110C" stroke-width="0.5" stroke-miterlimit="10"/>
<path d="M68.82 202.04C68.82 202.04 68.97 184.05 66.48 183.18" stroke="#13110C" stroke-width="0.5" stroke-miterlimit="10"/>
<path d="M66.6 201.3C66.6 201.3 66.4 184.73 64.03 183.55" stroke="#13110C" stroke-width="0.5" stroke-miterlimit="10"/>
<path d="M64.7799 200C64.7799 200 63.8899 184.43 62.1399 183.99" stroke="#13110C" stroke-width="0.5" stroke-miterlimit="10"/>
<path d="M62.93 197.53C62.93 197.53 62.37 186.38 61.48 185.6" stroke="#13110C" stroke-width="0.5" stroke-miterlimit="10"/>
<path d="M88.49 172.37C88.49 172.37 80.69 169.77 79.24 171.07" stroke="#13110C" stroke-width="0.5" stroke-miterlimit="10"/>
<path d="M77.4199 176.42C77.4199 176.42 80.3099 178.74 82.0799 176.97C83.8499 175.21 83.5399 172.85 81.1899 172.36C78.8399 171.87 77.6699 173.78 78.6499 174.59C79.6399 175.39 80.8099 175.76 80.9999 174.28" stroke="#13110C" stroke-width="0.5" stroke-miterlimit="10"/>
<path d="M85.8299 173.54C85.8299 173.54 83.9699 172.06 81.4399 171.53" stroke="#13110C" stroke-width="0.5" stroke-miterlimit="10"/>
<path d="M78.28 181.52C78.28 181.52 77.66 178.43 76.05 176.98" stroke="#13110C" stroke-width="0.5" stroke-miterlimit="10"/>
<path d="M104.49 177.99C104.49 177.99 108.02 178.56 107.78 176.42C107.53 174.28 105.1 173.66 104.49 174.96C103.88 176.26 103.14 179.66 103.26 180.46" stroke="#13110C" stroke-width="0.5" stroke-miterlimit="10"/>
<path d="M106.05 172.9C106.05 172.9 101.85 174.35 102.46 176.69" stroke="#13110C" stroke-width="0.5" stroke-miterlimit="10"/>
<path d="M103.76 172.37C103.76 172.37 101.13 173.18 101.29 175.17" stroke="#13110C" stroke-width="0.5" stroke-miterlimit="10"/>
<path d="M100.79 172.29C100.79 172.29 99.6801 173.17 99.8001 174.29" stroke="#13110C" stroke-width="0.5" stroke-miterlimit="10"/>
<path d="M98.91 172C98.91 172 98.31 172.79 98.34 173.29" stroke="#13110C" stroke-width="0.5" stroke-miterlimit="10"/>
<path d="M97.3201 172L97.0801 172.9" stroke="#13110C" stroke-width="0.5" stroke-miterlimit="10"/>
<path d="M109.08 176.98C109.08 176.98 108.34 180.35 105.52 179.73C105.52 179.73 103.51 180.16 103.76 186.41L103.74 195.06" stroke="#13110C" stroke-width="0.5" stroke-miterlimit="10"/>
<path d="M107.79 180.99C107.79 180.99 104.71 181.39 104.81 183.55" stroke="#13110C" stroke-width="0.5" stroke-miterlimit="10"/>
<path d="M106.28 182.73C106.28 182.73 106.67 184.86 105.52 183.99" stroke="#13110C" stroke-width="0.5" stroke-miterlimit="10"/>
<path d="M104.81 190.19C104.81 190.19 106.29 191.23 104.81 192.15" stroke="#13110C" stroke-width="0.5" stroke-miterlimit="10"/>
<path d="M34.2899 142.17L33.1599 199.38L39.1899 206.42L44.5999 199.38V142.17L40.8299 134.77L34.2899 142.17Z" fill="white" stroke="#13110C" stroke-miterlimit="10"/>
<path d="M35.98 140.26C35.15 143.86 32.87 141.63 32.87 141.63C30.61 139.32 34.1 136.77 34.1 136.77C38.01 134.97 39.36 137.57 39.36 137.57C39.82 138.8 40.56 138.14 40.56 138.14C41.87 136.17 44.73 135.97 44.73 135.97C47.27 136.08 49.27 139.03 47.64 141.23C46.01 143.43 44.53 142.01 44.13 141.23C43.73 140.45 44.93 139.32 44.93 139.32C44.93 139.32 42.53 138.78 41.64 139.61C41.64 139.61 39.93 141.07 38.24 139.5C38.24 139.49 35.69 138.7 35.98 140.26Z" fill="#FFEA24" stroke="#13110C" stroke-miterlimit="10"/>
<path d="M39.6001 140.75C39.6001 140.75 40.5301 141.75 41.2601 144.4C41.9901 147.04 39.6001 150.45 39.6001 150.45C39.4701 151.71 39.1701 154.17 39.8601 154.83C41.8101 156.67 41.2601 167.95 40.8201 168.5C40.3801 169.05 39.1501 176.46 40.1201 177.33C41.0901 178.19 41.9601 186.69 40.3801 190.71C38.8001 194.74 39.5001 202.05 39.5001 202.05C39.5001 202.05 36.9501 199.2 38.1801 190.53C38.1801 190.53 38.7201 182.5 37.4001 180.56C37.4001 180.56 36.1801 172.5 37.8401 164.89C37.8401 164.89 37.8901 157.45 36.6101 155.88C36.6101 155.88 36.2601 147.48 36.7801 146.51C36.7801 146.51 39.2201 146.04 38.8601 144.12C38.5001 142.21 37.8601 141.75 37.8601 141.75L37.6801 140.75L37.8601 140.11L39.6001 140.75Z" fill="#211C4B"/>
<path d="M35.4201 121.27C37.4301 117.44 42.5301 118.81 42.5301 118.81C46.2701 119.45 47.6401 126.19 47.6401 126.19C49.2801 134.12 45.1801 135.78 45.1801 135.78C45.1801 135.78 41.1401 138.35 33.0801 135.78C33.0801 135.78 31.0101 134.58 33.0801 133.12C33.0801 133.12 30.5501 131.39 32.1601 130.11C32.1601 130.11 30.0001 128.19 32.0201 126.64L35.4201 121.27Z" fill="#FED68A" stroke="#13110C" stroke-miterlimit="10"/>
<path d="M39.5999 132.86L33.1599 133.32" stroke="#13110C" stroke-miterlimit="10"/>
<path d="M38.95 129.76L32.24 130.31" stroke="#13110C" stroke-miterlimit="10"/>
<path d="M38.42 126.34L31.46 127.56" stroke="#13110C" stroke-miterlimit="10"/>
<path d="M46.17 131.31C46.17 131.31 34.87 130.71 43.35 136.25" stroke="#13110C" stroke-miterlimit="10"/>
<path d="M40.8799 119.82C42.3932 119.82 43.6199 118.593 43.6199 117.08C43.6199 115.567 42.3932 114.34 40.8799 114.34C39.3666 114.34 38.1399 115.567 38.1399 117.08C38.1399 118.593 39.3666 119.82 40.8799 119.82Z" fill="#FFEA24" stroke="#13110C" stroke-miterlimit="10"/>
<path d="M150.17 147.98C147.55 150.88 144.32 153.69 140.83 156.32C140.77 156.37 140.7 156.42 140.64 156.47C126.94 166.75 109.41 174.29 109.41 174.29" stroke="#13110C" stroke-miterlimit="10"/>
<path d="M141.13 155.7V133.18L147.28 126.39L150.17 126.34V147.98L141.13 155.7Z" fill="#E31013" stroke="#13110C" stroke-miterlimit="10"/>
<path d="M141.13 133.18H136.46V159.44L141.13 156.09V133.18Z" fill="#13110C" stroke="#13110C" stroke-miterlimit="10"/>
<path d="M109.28 134.33C109.28 127.39 114.91 121.75 121.86 121.75C128.8 121.75 134.44 127.38 134.44 134.33C134.44 140.25 130.34 145.22 124.83 146.55C123.88 146.78 122.89 146.9 121.87 146.9C114.91 146.9 109.28 141.27 109.28 134.33Z" fill="#211C4B" stroke="#13110C" stroke-miterlimit="10"/>
<path d="M118.63 146.48V137.01C118.63 137.01 112.27 136.35 109.28 133.95C108.85 133.61 110.24 129.5 110.24 129.5C120.5 133.8 133.82 130.44 133.82 130.44C134.34 131.78 134.43 134.32 134.43 134.32C130.32 137.2 124.98 137.01 124.98 137.01V146.3C124.98 146.31 121.5 147.64 118.63 146.48Z" fill="#FFEA24" stroke="#13110C" stroke-miterlimit="10"/>
<path d="M120.14 145.08V143.76H121.11V142.51H122.61V143.64H123.67V144.95H122.61V145.89H121.03L121.05 145.03L120.14 145.08Z" fill="#E31013"/>
<path d="M120.14 140.56V139.24H121.11V137.99H122.61V139.12H123.67V140.43H122.61V141.37H121.03L121.05 140.51L120.14 140.56Z" fill="#E31013"/>
<path d="M125.26 135.2V133.89H126.23V132.64H127.73V133.76H128.8V135.08H127.73V136.01H126.16L126.17 135.16L125.26 135.2Z" fill="#E31013"/>
<path d="M120.45 135.74V134.43H121.42V133.18H122.92V134.3H123.98V135.62H122.92V136.55H121.34L121.36 135.69L120.45 135.74Z" fill="#E31013"/>
<path d="M115.26 134.76V133.45H116.23V132.2H117.73V133.33H118.8V134.64H117.73V135.58H116.16L116.17 134.72L115.26 134.76Z" fill="#E31013"/>
<path d="M111.1 133.22V132.35H111.75V131.51H112.75V132.26H113.46V133.14H112.75V133.76H111.7L111.71 133.19L111.1 133.22Z" fill="#E31013"/>
<path d="M130.22 133.76V132.89H130.87V132.05H131.87V132.8H132.58V133.68H131.87V134.3H130.82L130.83 133.73L130.22 133.76Z" fill="#E31013"/>
<path d="M117.71 145.28L117.79 137.95C117.79 137.95 113.7 137.99 110.62 135.89" stroke="white" stroke-miterlimit="10"/>
<path d="M126.16 145.62L126.01 138.29C126.01 138.29 130.1 138.29 133.16 136.17" stroke="white" stroke-miterlimit="10"/>
<path d="M127.03 130.58C127.03 130.58 122.49 123.83 116.55 130.58" stroke="#13110C" stroke-miterlimit="10"/>
<path d="M124.8 130.34C124.8 130.34 122.25 126.55 118.92 130.34" stroke="#FFEA24" stroke-miterlimit="10"/>
<path d="M129.59 130.58C129.59 130.58 126.7 125.58 121.91 125.52C121.91 125.52 117.24 125.33 114.49 129.83" stroke="#13110C" stroke-miterlimit="10"/>
<path d="M131.86 130.01C131.86 130.01 127.82 122.89 121.9 123.45C121.9 123.45 117.23 122.57 112.54 128.76" stroke="#13110C" stroke-miterlimit="10"/>
<path d="M128.37 130.01C128.37 130.01 122.66 122.47 115.2 130.01" stroke="#FFEA24" stroke-miterlimit="10"/>
<path d="M130.27 129.5C130.27 129.5 122.94 118.12 113.35 129.5" stroke="#FFEA24" stroke-miterlimit="10"/>
<path d="M132.23 128.66C132.23 128.66 123.23 114.84 111.48 128.66" stroke="#FFEA24" stroke-miterlimit="10"/>
<path d="M119.37 146.72C117.32 150.43 121.79 150.64 121.79 150.64C125.72 150.08 123.99 146.9 123.99 146.9C123.99 146.9 120.33 147.43 119.37 146.72Z" fill="#E31013" stroke="#13110C" stroke-miterlimit="10"/>
<path d="M121.79 150.64L123.98 154.64L121.79 160.01L119.36 154.58L121.15 150.55L121.79 150.64Z" fill="#FFEA24" stroke="#13110C" stroke-miterlimit="10"/>
<path d="M111.48 148.39L115.92 152.95L119.54 150.55L111.48 148.39Z" fill="#FFEA24" stroke="#13110C" stroke-miterlimit="10"/>
<path d="M131.4 148.51L126.91 153.02L123.33 150.58L131.4 148.51Z" fill="#FFEA24" stroke="#13110C" stroke-miterlimit="10"/>
<path d="M96.5399 133.09C96.3699 132.67 95.1399 133.77 95.1399 133.77C102.61 155.97 123.13 167.5 123.13 167.5L124.8 166.58C124.8 166.58 105.28 155.23 96.5399 133.09Z" fill="#FFEA24" stroke="#13110C" stroke-miterlimit="10"/>
<path d="M90.1 135.7C95.2418 135.7 99.41 131.532 99.41 126.39C99.41 121.248 95.2418 117.08 90.1 117.08C84.9583 117.08 80.79 121.248 80.79 126.39C80.79 131.532 84.9583 135.7 90.1 135.7Z" fill="#211C4B" stroke="#13110C" stroke-miterlimit="10"/>
<path d="M86.99 126.34C86.99 124.72 88.3 123.4 89.93 123.4C91.56 123.4 92.87 124.71 92.87 126.34C92.87 127.96 91.56 129.28 89.93 129.28C88.3 129.28 86.99 127.97 86.99 126.34Z" fill="#FFEA24"/>
<path d="M90.0999 133.66C91.0199 133.33 90.7299 130.86 90.7299 130.86L91.6999 130.88C91.6999 130.88 92.4999 135.64 89.8399 135.04C89.8399 135.04 87.4699 135.09 88.2899 130.88L89.2899 130.86C89.2999 130.86 89.1799 133.98 90.0999 133.66Z" fill="white"/>
<path d="M84.83 131.44C85.71 131.86 87.25 129.9 87.25 129.9L87.93 130.6C87.93 130.6 85.14 134.54 83.68 132.24C83.68 132.24 81.97 130.6 85.52 128.2L86.24 128.9C86.24 128.89 83.95 131.02 84.83 131.44Z" fill="white"/>
<path d="M82.76 125.99C83.06 126.92 85.54 126.71 85.54 126.71L85.49 127.68C85.49 127.68 80.71 128.33 81.39 125.69C81.39 125.69 81.41 123.32 85.6 124.27L85.59 125.27C85.58 125.27 82.47 125.06 82.76 125.99Z" fill="white"/>
<path d="M84.96 120.88C84.45 121.72 86.25 123.44 86.25 123.44L85.49 124.05C85.49 124.05 81.84 120.89 84.28 119.66C84.28 119.66 86.08 118.11 88.12 121.88L87.36 122.53C87.36 122.53 85.46 120.04 84.96 120.88Z" fill="white"/>
<path d="M90.0101 118.92C89.1201 119.22 89.3301 121.7 89.3301 121.7L88.4101 121.66C88.4101 121.66 87.7801 116.88 90.3001 117.55C90.3001 117.55 92.5601 117.56 91.6601 121.75L90.7001 121.74C90.7001 121.74 90.9001 118.63 90.0101 118.92Z" fill="white"/>
<path d="M94.9401 120.9C94.0701 120.46 92.4801 122.38 92.4801 122.38L91.8201 121.67C91.8201 121.67 94.7001 117.8 96.1101 120.13C96.1101 120.13 97.7801 121.8 94.1801 124.13L93.4701 123.42C93.4701 123.41 95.8101 121.34 94.9401 120.9Z" fill="white"/>
<path d="M97.3601 126.13C97.0301 125.21 94.5601 125.51 94.5601 125.51L94.5701 124.54C94.5701 124.54 99.3301 123.72 98.7401 126.38C98.7401 126.38 98.8001 128.75 94.5801 127.95L94.5601 126.95C94.5701 126.95 97.6901 127.05 97.3601 126.13Z" fill="white"/>
<path d="M95.4001 131.55C95.7101 130.62 93.5901 129.33 93.5901 129.33L94.2101 128.58C94.2101 128.58 98.4501 130.89 96.3301 132.61C96.3301 132.61 94.9101 134.51 92.1001 131.26L92.7101 130.46C92.7101 130.45 95.0901 132.47 95.4001 131.55Z" fill="white"/>
<path d="M108.3 133.18C108.3 133.18 106.47 130.03 105.46 126.27H108.3C108.3 126.27 108.94 130.6 109.68 131.18L108.3 133.18Z" fill="#FFEA24" stroke="#13110C" stroke-miterlimit="10"/>
<path d="M108.3 126.27L112.1 126.4C112.1 126.4 109.39 130.15 109.68 131.19L108.3 126.27Z" fill="#211C4B" stroke="#13110C" stroke-miterlimit="10"/>
<path d="M96.57 133.18C101.33 144.7 108.29 152.4 108.29 152.4V133.18L106.9 130.35H98.53C98.53 130.35 97.39 132.99 96.49 133.04" fill="#E31013"/>
<path d="M96.57 133.18C101.33 144.7 108.29 152.4 108.29 152.4V133.18L106.9 130.35H98.53C98.53 130.35 97.39 132.99 96.49 133.04" stroke="#13110C" stroke-miterlimit="10"/>
<path d="M106.64 150.25V147.98L104.58 147.62L106.64 150.25Z" fill="#211C4B"/>
<path d="M101.51 142.1L103.28 144.93L103.52 142.67" fill="#211C4B"/>
<path d="M98.4299 136.52L99.9999 139.46L100.4 137.22" fill="#211C4B"/>
<path d="M105.61 148.68L108.3 146.77" stroke="#211C4B" stroke-miterlimit="10"/>
<path d="M102.4 143.52C102.4 143.52 106.86 140.14 107.88 139.49L102.4 143.52Z" fill="#211C4B"/>
<path d="M102.4 143.52C102.4 143.52 106.86 140.14 107.88 139.49" stroke="#211C4B" stroke-miterlimit="10"/>
<path d="M99.4099 137.99C99.4099 137.99 104.9 134.73 106.95 132.2L99.4099 137.99Z" fill="#211C4B"/>
<path d="M99.4099 137.99C99.4099 137.99 104.9 134.73 106.95 132.2" stroke="#211C4B" stroke-miterlimit="10"/>
<path d="M97.26 133.76C97.26 133.76 99.52 131.99 100.25 130.85L97.26 133.76Z" fill="#211C4B"/>
<path d="M97.26 133.76C97.26 133.76 99.52 131.99 100.25 130.85" stroke="#211C4B" stroke-miterlimit="10"/>
<path d="M123.13 167.5C102.61 155.67 95.1401 134.22 95.1401 134.22C92.7801 136.22 90.1001 135.71 90.1001 135.71C91.3601 141.84 101.28 170.88 101.28 170.88C101.28 170.88 106.88 171.06 109.41 174.29L123.13 167.5Z" fill="#13110C" stroke="#13110C" stroke-miterlimit="10"/>
<path d="M115.01 167.24C115.01 166.47 115.63 165.85 116.4 165.85C117.17 165.85 117.79 166.47 117.79 167.24C117.79 168.01 117.17 168.63 116.4 168.63C115.63 168.63 115.01 168 115.01 167.24Z" fill="white"/>
<path d="M101.37 164.6C101.37 163.8 102.02 163.15 102.82 163.15C103.62 163.15 104.27 163.8 104.27 164.6C104.27 165.4 103.62 166.05 102.82 166.05C102.02 166.05 101.37 165.4 101.37 164.6Z" fill="white"/>
<path d="M105.41 156.82C105.41 156.27 105.85 155.83 106.4 155.83C106.95 155.83 107.39 156.27 107.39 156.82C107.39 157.37 106.95 157.81 106.4 157.81C105.86 157.81 105.41 157.37 105.41 156.82Z" fill="white"/>
<path d="M100.94 152.01C100.94 151.53 101.33 151.14 101.81 151.14C102.29 151.14 102.68 151.53 102.68 152.01C102.68 152.49 102.29 152.88 101.81 152.88C101.33 152.88 100.94 152.5 100.94 152.01Z" fill="white"/>
<path d="M107.09 166.05C107.09 165.25 107.74 164.6 108.54 164.6C109.34 164.6 109.99 165.25 109.99 166.05C109.99 166.85 109.34 167.5 108.54 167.5C107.74 167.5 107.09 166.85 107.09 166.05Z" fill="white"/>
<path d="M93.3 138.27C93.3 137.6 93.84 137.06 94.51 137.06C95.18 137.06 95.72 137.6 95.72 138.27C95.72 138.94 95.18 139.48 94.51 139.48C93.84 139.48 93.3 138.93 93.3 138.27Z" fill="white"/>
<path d="M108.54 166.05C108.54 166.05 104.02 166.05 107.4 169.94C107.4 169.94 114.22 172.69 112.54 163.89C112.54 163.89 110.09 157.97 100.93 160.33L104.27 154.77L98.91 155.56L98.75 148.39C98.75 148.39 92.17 141.31 92.9 139.07L94.05 138.27" stroke="white" stroke-miterlimit="10"/>
<path d="M101.28 170.87L98.7599 170.96C98.7599 170.96 88.9999 141.08 88.1299 135.49L90.1099 135.7L101.28 170.87Z" fill="#FFEA24" stroke="#13110C" stroke-miterlimit="10"/>
<path d="M58.8701 173.29C80.4901 148.42 72.1601 126.35 72.1601 126.35L74.3201 126.4C74.3201 126.4 81.7001 153.02 60.6001 174L58.8701 173.29Z" fill="#FFEA24" stroke="#13110C" stroke-miterlimit="10"/>
<path d="M56.55 172.29C62.76 166.17 68.09 155.29 68.09 155.29C74.95 139.89 69.56 126.4 69.56 126.4L72.17 126.35C79 154.03 58.8801 173.29 58.8801 173.29L56.55 172.29Z" fill="#211C4B" stroke="#13110C" stroke-miterlimit="10"/>
<path d="M69.5501 126.39L67.6501 126.34C67.6501 126.34 65.3001 129.39 61.4901 130.85C61.4901 130.85 67.9601 150.26 48.1101 168.12L56.5501 172.27C56.5501 172.29 77.4401 152.46 69.5501 126.39Z" fill="#E31013" stroke="#13110C" stroke-miterlimit="10"/>
<path d="M60.3201 161.93C61.7301 159.97 62.4901 158.11 62.0201 157.77C61.5501 157.43 60.0301 158.75 58.6301 160.71C57.2201 162.67 56.4601 164.53 56.9301 164.86C57.3901 165.2 58.9101 163.88 60.3201 161.93Z" fill="#211C4B"/>
<path d="M63.4899 160.93C64.0864 160.93 64.5699 160.446 64.5699 159.85C64.5699 159.254 64.0864 158.77 63.4899 158.77C62.8934 158.77 62.4099 159.254 62.4099 159.85C62.4099 160.446 62.8934 160.93 63.4899 160.93Z" fill="#211C4B"/>
<path d="M59.4699 158.22C60.0664 158.22 60.5499 157.737 60.5499 157.14C60.5499 156.544 60.0664 156.06 59.4699 156.06C58.8734 156.06 58.3899 156.544 58.3899 157.14C58.3899 157.737 58.8734 158.22 59.4699 158.22Z" fill="#211C4B"/>
<path d="M65.1599 151.39C66.2799 149.25 66.7799 147.31 66.2699 147.04C65.7599 146.77 64.4399 148.29 63.3199 150.42C62.1999 152.56 61.6999 154.5 62.2099 154.77C62.7199 155.04 64.0399 153.53 65.1599 151.39Z" fill="#211C4B"/>
<path d="M66.9399 149.04C66.8599 148.45 67.2699 147.9 67.8599 147.82C68.4499 147.74 68.9999 148.15 69.0799 148.74C69.1599 149.33 68.7499 149.88 68.1599 149.96C67.5699 150.05 67.0299 149.64 66.9399 149.04Z" fill="#211C4B"/>
<path d="M62.59 146.92C62.51 146.33 62.9201 145.78 63.5101 145.7C64.1001 145.62 64.6501 146.03 64.7301 146.62C64.8101 147.21 64.4 147.76 63.81 147.84C63.22 147.93 62.67 147.52 62.59 146.92Z" fill="#211C4B"/>
<path d="M67.6001 137.24C67.6401 134.83 67.2201 132.86 66.6401 132.85C66.0701 132.84 65.5601 134.79 65.5201 137.2C65.4701 139.61 65.9001 141.58 66.4801 141.59C67.0501 141.6 67.5501 139.65 67.6001 137.24Z" fill="#211C4B"/>
<path d="M68.13 134.34C67.79 133.85 67.91 133.17 68.41 132.83C68.9 132.49 69.58 132.61 69.92 133.11C70.26 133.6 70.14 134.28 69.64 134.62C69.15 134.96 68.47 134.84 68.13 134.34Z" fill="#211C4B"/>
<path d="M63.2899 134.4C62.9499 133.91 63.0699 133.23 63.5699 132.89C64.0599 132.55 64.7399 132.67 65.0799 133.17C65.4199 133.66 65.2999 134.34 64.7999 134.68C64.2999 135.01 63.6299 134.89 63.2899 134.4Z" fill="#211C4B"/>
<path d="M55.83 168.72C55.75 168.13 56.16 167.58 56.75 167.5C57.34 167.42 57.89 167.83 57.97 168.42C58.05 169.01 57.64 169.56 57.05 169.64C56.46 169.72 55.92 169.31 55.83 168.72Z" fill="#211C4B"/>
<path d="M51.4799 166.59C51.3999 166 51.8099 165.45 52.3999 165.37C52.9899 165.29 53.5399 165.7 53.6199 166.29C53.6999 166.88 53.2899 167.43 52.6999 167.51C52.1099 167.6 51.5599 167.19 51.4799 166.59Z" fill="#211C4B"/>
<path d="M61.49 130.86C61.49 130.86 59.74 131.54 58.87 131.18C58.87 131.18 64.05 152.09 45.73 166.58L48.1 168.13C48.11 168.13 67.89 150.89 61.49 130.86Z" fill="#211C4B" stroke="#13110C" stroke-miterlimit="10"/>
<path d="M44.6001 164.49C44.6001 164.49 60.3001 155.34 57.1101 131.29L58.8701 131.18C58.8701 131.18 63.2601 153.64 45.5501 166.44L44.6001 165.55V164.49Z" fill="#FFEA24" stroke="#13110C" stroke-miterlimit="10"/>
<path d="M45.25 159.16C45.25 159.16 55.9 152.84 54.24 131.29" stroke="white" stroke-miterlimit="10"/>
<path d="M45.25 152.49C45.25 152.49 48.67 153.66 49.25 150.91C49.25 150.91 49.08 148.64 45.25 149.32" stroke="white" stroke-miterlimit="10"/>
<path d="M45.25 146.75C45.25 146.75 50.37 147.92 51.25 145.17C51.25 145.17 51 142.9 45.25 143.58" stroke="white" stroke-miterlimit="10"/>
<path d="M48.55 140.23C48.55 140.23 51.97 141.4 52.55 138.65C52.55 138.65 52.38 136.38 48.55 137.06" stroke="white" stroke-miterlimit="10"/>
<path d="M48.95 134.17C48.95 134.17 52.37 135.34 52.95 132.59C52.95 132.59 52.78 130.32 48.95 131" stroke="white" stroke-miterlimit="10"/>
<path d="M62.9101 171.54L60.6001 174C60.6001 174 47.1701 168.66 44.6001 165.56L45.7301 166.59" stroke="#13110C" stroke-miterlimit="10"/>
<path d="M62.91 171.54L81.44 162.45L95.14 171.35L91.86 171.92L80.76 164.49L64.76 172.54L61.49 173.68L62.91 171.54Z" fill="#FFEA24" stroke="#13110C" stroke-miterlimit="10"/>
<path d="M62.4099 171.65C71.0899 163.16 72.3699 155.82 72.3699 155.82L80.0199 152.01L95.4599 160.73L98.7499 170.95L95.1299 171.34L81.4299 162.43L62.4099 171.65Z" fill="#211C4B" stroke="#13110C" stroke-miterlimit="10"/>
<path d="M97.9001 169.77L80.5801 159.5L68.8301 164.92" stroke="white" stroke-miterlimit="10"/>
<path d="M95.1401 161.62L80.0701 152.89L72.8401 156.69" stroke="white" stroke-miterlimit="10"/>
<path d="M75.0801 130.34H81.6701C83.6901 134.55 88.1201 135.49 88.1201 135.49L95.3501 160.38L80.0201 152.01L72.3701 155.82C72.3701 155.82 77.1501 145.78 75.0801 130.34Z" fill="#FFEA24" stroke="#13110C" stroke-miterlimit="10"/>
<path d="M87.4299 156.06V135.29" stroke="#13110C" stroke-miterlimit="10"/>
<path d="M80.03 152.01V130.34" stroke="#13110C" stroke-miterlimit="10"/>
<path d="M92.8599 152.4L87.4299 155.82" stroke="#13110C" stroke-miterlimit="10"/>
<path d="M91.2199 147.01L87.4299 149.19" stroke="#13110C" stroke-miterlimit="10"/>
<path d="M89.9199 142.6L87.4299 143.1" stroke="#13110C" stroke-miterlimit="10"/>
<path d="M87.43 153.7L80.03 148.94V145.42L87.43 150.26V153.7Z" fill="white" stroke="#13110C" stroke-miterlimit="10"/>
<path d="M87.43 147.01V143.52L80.03 139.46V143.1L87.43 147.01Z" fill="white" stroke="#13110C" stroke-miterlimit="10"/>
<path d="M87.43 140.81L80.03 135.71V132.64L87.43 137.62V140.81Z" fill="white" stroke="#13110C" stroke-miterlimit="10"/>
<path d="M80.0301 145.69L74.5801 148.51" stroke="#13110C" stroke-miterlimit="10"/>
<path d="M80.0301 140.02L75.5801 141.76" stroke="#13110C" stroke-miterlimit="10"/>
<path d="M80.0301 133.78L75.5801 135.97" stroke="#13110C" stroke-miterlimit="10"/>
<path d="M38.1799 122.25C38.1799 120.76 39.3899 119.55 40.8799 119.55C42.3699 119.55 43.5799 120.76 43.5799 122.25V127.33C43.5799 128.82 42.3699 130.03 40.8799 130.03C39.3899 130.03 38.1799 128.82 38.1799 127.33V122.25Z" fill="#D08B0F" stroke="#13110C" stroke-miterlimit="10"/>
<path d="M136.8 135.09C136.8 133.58 138.02 132.35 139.54 132.35C141.06 132.35 142.28 133.58 142.28 135.09C142.28 136.6 141.06 137.83 139.54 137.83C138.02 137.83 136.8 136.6 136.8 135.09Z" fill="#FFEA24" stroke="#13110C" stroke-miterlimit="10"/>
<path d="M16.9901 42.3102C17.3601 43.4402 18.0501 45.0202 19.2201 45.7102H14.3901C15.6301 44.7302 16.2001 43.3002 16.4601 42.2902C15.7801 43.4802 14.4901 44.2802 13.0201 44.2802C10.8301 44.2802 9.06006 42.5002 9.06006 40.3202C9.06006 38.1302 10.8301 36.3602 13.0201 36.3602C13.4601 36.3602 13.8901 36.4302 14.2801 36.5602C13.5101 35.8402 13.0201 34.8102 13.0201 33.6602C13.0201 31.4702 14.7901 29.7002 16.9801 29.7002C19.1701 29.7002 20.9401 31.4802 20.9401 33.6602C20.9401 34.8802 20.3901 35.9702 19.5201 36.7002C19.8401 36.6102 20.1801 36.5702 20.5301 36.5702C22.7201 36.5702 24.4901 38.3402 24.4901 40.5302C24.4901 42.7202 22.7201 44.4902 20.5301 44.4902C18.9801 44.4902 17.6401 43.6002 16.9901 42.3102Z" fill="#13110C" stroke="#13110C" stroke-miterlimit="10"/>
<path d="M164 209.55C163.63 208.42 162.94 206.84 161.77 206.15H166.6C165.36 207.13 164.79 208.56 164.53 209.57C165.22 208.38 166.5 207.58 167.97 207.58C170.16 207.58 171.93 209.36 171.93 211.54C171.93 213.73 170.16 215.5 167.97 215.5C167.53 215.5 167.1 215.43 166.71 215.3C167.48 216.02 167.97 217.05 167.97 218.2C167.97 220.39 166.2 222.16 164.01 222.16C161.82 222.16 160.05 220.38 160.05 218.2C160.05 216.98 160.6 215.89 161.47 215.16C161.15 215.25 160.81 215.29 160.46 215.29C158.27 215.29 156.5 213.52 156.5 211.33C156.5 209.14 158.27 207.37 160.46 207.37C162.01 207.36 163.35 208.25 164 209.55Z" fill="#13110C" stroke="#13110C" stroke-miterlimit="10"/>
<path d="M52.1299 58.1002C52.6499 59.7202 53.6599 62.0002 55.3399 63.0002H48.3799C50.1699 61.5802 50.9799 59.5302 51.3499 58.0702C50.3599 59.7802 48.5199 60.9402 46.3999 60.9402C43.2399 60.9402 40.6899 58.3802 40.6899 55.2302C40.6899 52.0802 43.2399 49.5202 46.3999 49.5202C47.0399 49.5202 47.6499 49.6202 48.2199 49.8102C47.0999 48.7702 46.4099 47.2802 46.4099 45.6402C46.4099 42.4902 48.9699 39.9302 52.1199 39.9302C55.2699 39.9302 57.8299 42.4902 57.8299 45.6402C57.8299 47.4002 57.0299 48.9702 55.7799 50.0202C56.2399 49.9002 56.7399 49.8302 57.2399 49.8302C60.3899 49.8302 62.9499 52.3902 62.9499 55.5402C62.9499 58.6902 60.3899 61.2502 57.2399 61.2502C54.9999 61.2502 53.0599 59.9702 52.1299 58.1002Z" fill="#13110C" stroke="#13110C" stroke-miterlimit="10"/>
<path d="M127.5 194.06C126.98 192.44 125.97 190.16 124.29 189.16H131.25C129.46 190.58 128.65 192.63 128.28 194.09C129.27 192.38 131.11 191.22 133.23 191.22C136.39 191.22 138.94 193.78 138.94 196.93C138.94 200.08 136.39 202.64 133.23 202.64C132.59 202.64 131.98 202.54 131.41 202.35C132.53 203.39 133.22 204.88 133.22 206.52C133.22 209.67 130.66 212.23 127.51 212.23C124.36 212.23 121.8 209.67 121.8 206.52C121.8 204.76 122.6 203.19 123.85 202.14C123.39 202.26 122.89 202.33 122.39 202.33C119.24 202.33 116.68 199.77 116.68 196.62C116.68 193.47 119.24 190.91 122.39 190.91C124.63 190.91 126.57 192.19 127.5 194.06Z" fill="#13110C" stroke="#13110C" stroke-miterlimit="10"/>
<path d="M12.3101 21.8799H13.8501V8.75992H12.3101V6.91992H16.9701V8.75992H15.6701V15.1399L19.7701 8.75992H18.1901V6.91992H23.3101V8.75992H21.8401L18.5101 13.9399L21.9101 21.8799H23.3101V23.7199H18.1901V21.8799H19.8401L17.2701 15.8699L15.6701 18.3599V21.8799H16.9701V23.7199H12.3101V21.8799Z" fill="#13110C"/>
<path d="M167.8 230.97H166.26V244.09H167.8V245.93H163.14V244.09H164.44V237.71L160.34 244.09H161.92V245.93H156.8V244.09H158.27L161.6 238.91L158.2 230.97H156.8V229.13H161.92V230.97H160.27L162.84 236.98L164.44 234.49V230.97H163.14V229.13H167.8V230.97Z" fill="#13110C"/>
</svg>
