<svg width="180" height="254" viewBox="0 0 180 254" fill="none" xmlns="http://www.w3.org/2000/svg">
<rect x="0.5" y="0.5" width="179" height="253" rx="14.5" fill="white" stroke="#1D1D1B"/>
<path d="M64.5701 128.26H87.5801L147.08 128.62L146.89 122.02C140.7 110.05 124.05 90.9399 124.05 90.9399C108.53 113.14 109.85 128.39 109.85 128.39" fill="#211C4B"/>
<path d="M64.5701 128.26H87.5801L147.08 128.62L146.89 122.02C140.7 110.05 124.05 90.9399 124.05 90.9399C108.53 113.14 109.85 128.39 109.85 128.39" stroke="#13110C" stroke-miterlimit="10"/>
<path d="M143.45 123.2L144.66 127.13L141.33 124.45L143.45 123.2Z" fill="#FFEA24"/>
<path d="M77.8301 127.91L78.3401 120.82L97.7001 121.03L96.7001 128.26L77.8301 127.91Z" fill="#13110C" stroke="#13110C" stroke-miterlimit="10"/>
<path d="M78.3401 124.54L81.0501 127.64" stroke="white" stroke-width="2" stroke-miterlimit="10"/>
<path d="M91.7101 128.05L88.5501 124.05L84.6101 127.77" stroke="white" stroke-width="2" stroke-miterlimit="10"/>
<path d="M93.8701 128.17L97.0401 124.74" stroke="white" stroke-width="2" stroke-miterlimit="10"/>
<path d="M28.0801 128.26H64.5701C64.5701 128.26 66.7101 114.71 58.7801 94.6201C58.7801 94.6201 35.4601 103.38 28.0801 111.44V128.26Z" fill="#211C4B" stroke="#13110C" stroke-miterlimit="10"/>
<path d="M10.4099 24.8599H12.0299V11.0899H10.4099V9.1499H15.2999V11.0799H13.9299V17.7799L18.2399 11.0799H16.5799V9.1499H21.9599V11.0799H20.4199L16.9199 16.5199L20.4899 24.8599H21.9599V26.7899H16.5799V24.8599H18.3199L15.6199 18.5499L13.9399 21.1599V24.8599H15.3099V26.7899H10.4199V24.8599H10.4099Z" fill="#E30B13"/>
<path d="M167.7 230.85H166.08V244.63H167.7V246.56H162.81V244.63H164.18V237.93L159.87 244.63H161.53V246.56H156.15V244.63H157.69L161.19 239.19L157.62 230.85H156.15V228.92H161.53V230.85H159.79L162.49 237.16L164.17 234.55V230.85H162.8V228.92H167.69V230.85H167.7Z" fill="#E30B13"/>
<path d="M147.08 31.4502H28.0801V225.06H147.08V31.4502Z" stroke="#13110C" stroke-miterlimit="10"/>
<path d="M61.01 31.4502L70 44.2102C70 44.2102 78.63 40.0702 89.73 42.9802C89.73 42.9802 107.79 49.0602 111.67 49.6802C111.67 49.6802 116.87 50.2102 118.81 49.3302C118.81 49.3302 122.16 38.6102 129.56 31.4602H61.01V31.4502Z" fill="#FFEA24" stroke="#13110C" stroke-miterlimit="10"/>
<path d="M69.99 44.2102L71.4 46.4102C71.4 46.4102 84.61 41.6502 96.42 48.7902C96.42 48.7902 108.84 54.0802 117.83 53.2802L118.8 49.3202C118.8 49.3202 114.28 51.6902 100.38 46.4502C100.38 46.4502 86.74 41.3802 82.69 41.9502C82.68 41.9602 75.28 40.8602 69.99 44.2102Z" fill="#E31013" stroke="#13110C" stroke-miterlimit="10"/>
<path d="M71.4 46.4098L72.63 49.8298C72.63 49.8298 81.35 45.7998 94.39 51.3498C94.39 51.3498 110.78 58.5698 117.65 57.2498L117.83 53.2898C117.83 53.2898 107.47 53.5898 97.45 49.2098C87.43 44.8298 85.53 44.2898 78.25 45.0298C70.98 45.7598 71.4 46.4098 71.4 46.4098Z" fill="#13110C" stroke="#13110C" stroke-miterlimit="10"/>
<path d="M69.0901 41.1398C69.0901 41.1398 73.6501 40.8098 76.6801 39.5498" stroke="#231E48" stroke-miterlimit="10"/>
<path d="M78.05 39.1599C78.05 39.1599 83.76 42.2399 86.78 39.1099" stroke="#231E48" stroke-miterlimit="10"/>
<path d="M88.1201 38.6699C88.1201 38.6699 90.5101 41.8999 94.4001 40.6399" stroke="#231E48" stroke-miterlimit="10"/>
<path d="M97.0801 40.9302C97.0801 40.9302 100.79 44.7602 104.72 42.3302" stroke="#231E48" stroke-miterlimit="10"/>
<path d="M106.26 42.6802C106.26 42.6802 109.01 46.7902 114.07 44.7502" stroke="#231E48" stroke-miterlimit="10"/>
<path d="M115.89 44.75C115.89 44.75 118.13 45.87 119.34 46.14" stroke="#231E48" stroke-miterlimit="10"/>
<path d="M78.2499 39.43C78.2499 39.93 77.8399 40.34 77.3399 40.34C76.8399 40.34 76.4299 39.93 76.4299 39.43C76.4299 38.93 76.8399 38.52 77.3399 38.52C77.8399 38.52 78.2499 38.93 78.2499 39.43Z" stroke="#231E48" stroke-miterlimit="10"/>
<path d="M88.4899 38.6699C88.4899 39.1699 88.0799 39.5799 87.5799 39.5799C87.0799 39.5799 86.6699 39.1699 86.6699 38.6699C86.6699 38.1699 87.0799 37.7599 87.5799 37.7599C88.0799 37.7499 88.4899 38.1599 88.4899 38.6699Z" stroke="#231E48" stroke-miterlimit="10"/>
<path d="M96.6999 40.93C96.6999 41.43 96.2899 41.84 95.7899 41.84C95.2899 41.84 94.8799 41.43 94.8799 40.93C94.8799 40.43 95.2899 40.02 95.7899 40.02C96.2899 40.02 96.6999 40.43 96.6999 40.93Z" stroke="#231E48" stroke-miterlimit="10"/>
<path d="M106.26 42.68C106.26 43.18 105.85 43.59 105.35 43.59C104.85 43.59 104.44 43.18 104.44 42.68C104.44 42.18 104.85 41.77 105.35 41.77C105.85 41.77 106.26 42.18 106.26 42.68Z" stroke="#231E48" stroke-miterlimit="10"/>
<path d="M115.89 44.7498C115.89 45.2498 115.48 45.6598 114.98 45.6598C114.48 45.6598 114.07 45.2498 114.07 44.7498C114.07 44.2498 114.48 43.8398 114.98 43.8398C115.48 43.8398 115.89 44.2498 115.89 44.7498Z" stroke="#231E48" stroke-miterlimit="10"/>
<path d="M68.3799 39.5498C68.3799 39.5498 72.7199 39.2098 73.9299 37.7598" stroke="#231E48" stroke-miterlimit="10"/>
<path d="M80.45 37.5098C80.45 37.5098 83.53 39.2098 85.01 37.7498" stroke="#231E48" stroke-miterlimit="10"/>
<path d="M90.1499 37.5098C90.1499 37.5098 92.2099 39.7198 94.3999 39.1098" stroke="#231E48" stroke-miterlimit="10"/>
<path d="M98.3401 39.7998C98.3401 39.7998 101.42 42.1498 103.34 40.9298" stroke="#231E48" stroke-miterlimit="10"/>
<path d="M108.24 41.2798C108.24 41.2798 110.11 44.2998 113.35 43.1298" stroke="#231E48" stroke-miterlimit="10"/>
<path d="M88.12 35.4998C88.12 35.9998 87.71 36.4098 87.21 36.4098C86.71 36.4098 86.3 35.9998 86.3 35.4998C86.3 34.9998 86.71 34.5898 87.21 34.5898C87.71 34.5898 88.12 34.9998 88.12 35.4998Z" stroke="#231E48" stroke-miterlimit="10"/>
<path d="M107.17 39.3402C107.17 39.8402 106.76 40.2502 106.26 40.2502C105.76 40.2502 105.35 39.8402 105.35 39.3402C105.35 38.8402 105.76 38.4302 106.26 38.4302C106.76 38.4302 107.17 38.8402 107.17 39.3402Z" stroke="#231E48" stroke-miterlimit="10"/>
<path d="M77.8301 35.14C77.8301 36.6 77.5001 37.78 77.0901 37.78C76.6801 37.78 76.3501 36.6 76.3501 35.14C76.3501 33.68 76.6901 32.5 77.0901 32.5C77.5001 32.5 77.8301 33.68 77.8301 35.14Z" fill="#231E48"/>
<path d="M80.84 36.6698C79.6 37.4398 78.42 37.7898 78.21 37.4398C78 37.0898 78.82 36.1898 80.06 35.4198C81.3 34.6498 82.48 34.3098 82.69 34.6498C82.91 34.9998 82.08 35.8998 80.84 36.6698Z" fill="#231E48"/>
<path d="M73.99 35.6698C75.17 36.5198 75.94 37.4798 75.7 37.8098C75.46 38.1398 74.31 37.7198 73.12 36.8698C71.94 36.0198 71.17 35.0598 71.41 34.7298C71.65 34.3998 72.81 34.8198 73.99 35.6698Z" fill="#231E48"/>
<path d="M98.2999 36.0401C97.9199 37.5101 97.2799 38.6201 96.8699 38.5201C96.4599 38.4101 96.4299 37.1301 96.8099 35.6601C97.1899 34.1901 97.8299 33.0801 98.2399 33.1801C98.6499 33.2901 98.6799 34.5701 98.2999 36.0401Z" fill="#231E48"/>
<path d="M100.94 38.3699C99.4899 38.8299 98.2099 38.8699 98.0799 38.4599C97.9499 38.0599 99.0299 37.3599 100.48 36.8999C101.93 36.4399 103.21 36.3999 103.34 36.8099C103.46 37.2199 102.39 37.9199 100.94 38.3699Z" fill="#231E48"/>
<path d="M94.2799 35.5802C95.2499 36.7502 95.7799 37.9202 95.4499 38.1902C95.1199 38.4602 94.0699 37.7302 93.0899 36.5702C92.1199 35.4002 91.5899 34.2302 91.9199 33.9602C92.2499 33.6802 93.2999 34.4102 94.2799 35.5802Z" fill="#231E48"/>
<path d="M116.66 38.84C116.36 40.39 115.77 41.58 115.34 41.49C114.91 41.41 114.8 40.08 115.09 38.54C115.39 36.99 115.98 35.8 116.41 35.89C116.85 35.97 116.96 37.29 116.66 38.84Z" fill="#231E48"/>
<path d="M119.54 41.0801C118.07 41.6501 116.75 41.7701 116.59 41.3601C116.43 40.9501 117.5 40.1601 118.97 39.5901C120.44 39.0201 121.76 38.9001 121.92 39.3101C122.08 39.7201 121.01 40.5101 119.54 41.0801Z" fill="#231E48"/>
<path d="M112.48 38.6202C113.56 39.7702 114.18 40.9402 113.86 41.2402C113.54 41.5402 112.4 40.8602 111.32 39.7202C110.24 38.5802 109.62 37.4002 109.94 37.1002C110.25 36.8002 111.39 37.4802 112.48 38.6202Z" fill="#231E48"/>
<path d="M116.58 42.6802C116.58 42.6802 117.56 44.1502 119.83 43.5902" stroke="#231E48" stroke-miterlimit="10"/>
<path d="M93.3601 73.3098C92.6501 72.4198 91.4501 66.6298 91.4501 66.6298C89.1201 59.2998 92.2701 50.5098 92.2701 50.5098L102.19 54.3698C112.4 57.9598 118.19 57.4098 118.19 57.4098C118.19 57.4098 119.04 66.9898 121.93 69.9898C121.93 69.9898 124.57 75.3698 123.32 81.3698L122.57 85.3698H91.8301C91.8301 85.3698 85.6701 83.7498 87.2201 77.3698C87.2201 77.3698 88.0501 71.5298 92.5801 73.1398L93.3601 73.3098Z" fill="#AFA3C7" stroke="#13120D" stroke-miterlimit="10"/>
<path d="M91.92 50.3798C91.79 51.8898 90.78 57.4098 90.78 57.4098C89.77 62.6898 92.5 71.0098 92.5 71.0098C94.44 74.4298 91.65 72.8998 91.65 72.8998C86.9 72.6098 86.97 79.9298 86.97 79.9298H72.02C70.47 79.8098 71.13 79.1498 71.13 79.1498C73.57 77.1798 72.32 76.7098 72.32 76.7098C70.47 76.4698 71.4 74.1498 71.4 74.1498C70.31 74.1498 70.13 71.4698 70.13 71.4698C71.1 70.8698 70.48 69.0298 70.48 69.0298C65.72 67.8998 68.32 64.2598 68.32 64.2598C70.41 62.5898 72.64 55.8598 72.64 55.8598C71.23 52.9398 72.64 49.8398 72.64 49.8398C72.64 49.8398 81.36 46.3198 91.92 50.3798Z" fill="#FED68A" stroke="#13110C" stroke-miterlimit="10"/>
<path d="M75.23 51.0799C75.23 51.0799 83.37 50.9599 86.96 55.2499" stroke="#13110C" stroke-miterlimit="10"/>
<path d="M82.7399 56.3298C77.5999 53.4598 75.1899 55.3798 75.1899 55.3798C75.1899 55.3798 73.8999 59.5998 82.7799 57.7598C82.7899 57.7598 83.9799 57.0198 82.7399 56.3298Z" stroke="#13110C" stroke-miterlimit="10"/>
<path d="M79.22 59.0098C79.22 59.0098 76.97 61.2698 75.77 61.6298" stroke="#13110C" stroke-miterlimit="10"/>
<path d="M80.0599 56.42C80.0599 56.76 79.2999 57.04 78.3599 57.04C77.4199 57.04 76.6599 56.76 76.6599 56.42C76.6599 56.07 77.4199 55.79 78.3599 55.79C79.2999 55.79 80.0599 56.07 80.0599 56.42Z" fill="#13110C" stroke="#13110C" stroke-miterlimit="10"/>
<path d="M70.76 68.2498C70.76 68.2498 74.37 68.4898 75.13 67.5898" stroke="#13110C" stroke-miterlimit="10"/>
<path d="M72.95 70.1C72.95 70.1 76.85 69.15 79.65 73.5C79.65 73.5 82.63 76.06 84.9 73.86C84.9 73.86 86.68 71 83.31 70.02C83.31 70.02 80.86 70.07 82.09 72.39C82.09 72.39 82.87 73 83.76 72.39" stroke="#13110C" stroke-miterlimit="10"/>
<path d="M71.3999 74.1501C71.3999 74.1501 75.6499 74.5101 75.7699 73.8501" stroke="#13110C" stroke-miterlimit="10"/>
<path d="M71.78 73.8501H73.77" stroke="#13110C" stroke-miterlimit="10"/>
<path d="M71.3999 79.83C71.3999 79.83 69.0899 82.2 68.8799 80.45C68.6699 78.71 64.3999 77.17 62.5299 79.93C62.5299 79.93 60.0399 85.35 64.3999 86.05H82.6599H89.3399C89.3399 86.05 90.8899 85.86 91.4199 85.23C91.4199 85.23 87.2199 83.2 86.9699 79.93L71.3999 79.83Z" fill="#AFA3C7" stroke="#13120D" stroke-miterlimit="10"/>
<path d="M93.6899 78.4199C93.6899 78.4199 92.6399 76.2299 91.2599 77.6499C89.8799 79.0699 91.3899 80.9399 92.2799 81.4799C93.1699 82.0099 96.1999 81.7499 95.7999 76.6799C95.3999 71.6099 93.2799 66.9799 93.2699 64.8499C93.2599 62.7199 92.4399 57.8199 93.6899 53.3799" stroke="#13110C" stroke-width="0.5" stroke-miterlimit="10"/>
<path d="M93.6899 76.2301C93.6899 76.2301 90.9699 74.8101 90.1499 77.3901C89.3399 79.9701 90.4899 82.4601 91.8199 83.1701C93.1599 83.8801 97.5799 84.0001 97.5499 78.4201C97.5199 72.8501 96.6199 70.7101 95.8199 69.0201C95.0299 67.3301 94.1899 59.7701 94.8699 54.0801" stroke="#13110C" stroke-width="0.5" stroke-miterlimit="10"/>
<path d="M93.19 78.4198C93.19 78.4198 91.48 78.3598 92.28 79.2498C93.08 80.1398 93.68 80.6698 94.4 79.6098" stroke="#13110C" stroke-width="0.5" stroke-miterlimit="10"/>
<path d="M92.27 74.7501C92.27 74.7501 88.43 74.3001 88.48 79.3101C88.48 79.3101 89.27 86.6201 98.06 82.9901C98.06 82.9901 101.12 80.1401 98.56 71.9601C96 63.7801 95.63 55.6401 96.53 54.0801" stroke="#13110C" stroke-width="0.5" stroke-miterlimit="10"/>
<path d="M99.59 83.9998C99.59 83.9998 103.55 76.8898 100.85 72.3798C98.15 67.8698 97.57 56.0498 98.35 54.7598" stroke="#13110C" stroke-width="0.5" stroke-miterlimit="10"/>
<path d="M101.79 84C101.79 84 105.44 76.94 103.84 73.11C102.24 69.28 99.0899 61.32 100.71 55.79" stroke="#13110C" stroke-width="0.5" stroke-miterlimit="10"/>
<path d="M104.44 84.0002C104.44 84.0002 108.15 76.9802 106.26 72.3802C104.37 67.7802 102.41 60.6802 103.35 58.2302L103.84 56.4902" stroke="#13110C" stroke-width="0.5" stroke-miterlimit="10"/>
<path d="M106.66 84C106.66 84 110.37 76.98 108.48 72.38C106.59 67.78 104.63 60.68 105.57 58.23" stroke="#13110C" stroke-width="0.5" stroke-miterlimit="10"/>
<path d="M109.34 84C109.34 84 113.05 76.98 111.16 72.38C109.27 67.78 107.31 60.68 108.25 58.23" stroke="#13110C" stroke-width="0.5" stroke-miterlimit="10"/>
<path d="M112.13 84C112.13 84 115.84 76.98 113.95 72.38C112.06 67.78 110.1 60.68 111.04 58.23" stroke="#13110C" stroke-width="0.5" stroke-miterlimit="10"/>
<path d="M114.47 84C114.47 84 118.18 76.98 116.29 72.38C114.4 67.78 112.44 60.68 113.38 58.23" stroke="#13110C" stroke-width="0.5" stroke-miterlimit="10"/>
<path d="M117.11 84.79C117.11 84.79 120.82 77.77 118.93 73.17C117.04 68.57 115.08 61.47 116.02 59.02" stroke="#13110C" stroke-width="0.5" stroke-miterlimit="10"/>
<path d="M118.75 84.79C118.75 84.79 122.46 77.77 120.57 73.17C118.68 68.57 116.72 61.47 117.66 59.02" stroke="#13110C" stroke-width="0.5" stroke-miterlimit="10"/>
<path d="M66.3899 81.6699C66.3899 81.6699 65.4099 80.4399 64.6999 81.6699C63.9899 82.8999 66.3599 84.6599 68.3799 83.5099C70.3899 82.3599 71.7799 80.6699 71.7799 80.6699" stroke="#13110C" stroke-width="0.5" stroke-miterlimit="10"/>
<path d="M67.1899 82.2401C67.1899 82.2401 68.4799 80.3701 65.6799 79.9401C62.8799 79.5001 63.19 83.1501 63.55 83.5201C63.55 83.5201 66.6399 86.1801 69.0999 84.0101L72.8899 81.1301" stroke="#13110C" stroke-width="0.5" stroke-miterlimit="10"/>
<path d="M70.76 84.79L74.4 81.21" stroke="#13110C" stroke-width="0.5" stroke-miterlimit="10"/>
<path d="M72.95 84.79L76.58 81.21" stroke="#13110C" stroke-width="0.5" stroke-miterlimit="10"/>
<path d="M75.28 84.79L78.91 81.21" stroke="#13110C" stroke-width="0.5" stroke-miterlimit="10"/>
<path d="M77.8301 84.79L81.4601 81.21" stroke="#13110C" stroke-width="0.5" stroke-miterlimit="10"/>
<path d="M80.6101 84.79L84.2401 81.21" stroke="#13110C" stroke-width="0.5" stroke-miterlimit="10"/>
<path d="M82.73 85.3002L86.36 81.7202" stroke="#13110C" stroke-width="0.5" stroke-miterlimit="10"/>
<path d="M85.3601 85.3L87.2101 83" stroke="#13110C" stroke-width="0.5" stroke-miterlimit="10"/>
<path d="M147.08 89.5702V42.6802L140.96 48.9802V87.1202L147.08 89.5702Z" fill="#E31013" stroke="#13110C" stroke-miterlimit="10"/>
<path d="M140.96 87.12L138.19 86.05V47.99L147.08 38.25V42.68L140.96 48.98V87.12Z" fill="#FFEA24" stroke="#13110C" stroke-miterlimit="10"/>
<path d="M132.56 58.2198L134.76 62.1398C132.91 63.9298 132.14 68.8498 132.14 68.8498L137.88 64.6598L138.19 58.3498V52.0298L132.66 47.5698C132.66 47.5698 133.18 52.5298 134.95 54.3998C134.95 54.4098 132.56 58.2198 132.56 58.2198Z" fill="#8B92C8" stroke="#13110C" stroke-miterlimit="10"/>
<path d="M132.56 58.22L134.95 62.03C132.79 64.8 132.67 68.87 132.67 68.87C131.2 70.06 129.56 75.17 129.56 75.17C127.83 70.53 132.14 61.7 132.14 61.7L129.1 58.23L132.13 54.76C132.13 54.76 127.81 45.94 129.54 41.29C129.54 41.29 131.18 46.39 132.65 47.58C132.65 47.58 132.78 51.65 134.94 54.41L132.56 58.22Z" fill="#FFEA24" stroke="#13110C" stroke-miterlimit="10"/>
<path d="M129.11 72.5798C119.63 56.8798 129.11 42.0298 129.11 42.0298C129.11 42.0298 129.01 49.0298 130.64 51.0798L132.14 54.7498L129.11 58.2198L132.15 61.6898C132.14 61.6998 129.14 70.0998 129.11 72.5798Z" stroke="#13110C" stroke-miterlimit="10"/>
<path d="M35.1101 96.3898C35.1101 96.3898 30.3801 89.8398 31.5201 84.8498C31.5201 84.8498 32.1501 83.1198 33.4201 84.6798C33.4201 84.6798 32.3201 80.9198 34.6001 81.9698C34.6001 81.9698 33.3701 78.0798 36.4201 79.3098C36.4201 79.3098 37.3501 76.4198 39.9701 79.0698L42.9301 83.4098C42.9301 83.4098 44.6201 84.1898 44.1101 79.8898C44.1101 79.8898 45.2901 76.4298 47.2401 79.5598C47.2401 79.5598 48.0901 83.5298 49.6901 84.6298C49.6901 84.6298 52.2301 88.2198 49.6901 89.6198L35.1101 96.3898Z" fill="#FED68A" stroke="#13110C" stroke-miterlimit="10"/>
<path d="M36.42 91.7401L33.46 84.8501" stroke="#13110C" stroke-miterlimit="10"/>
<path d="M39.0401 90.89L34.6001 81.98" stroke="#13110C" stroke-miterlimit="10"/>
<path d="M42.2099 89.3701L36.4199 79.3101" stroke="#13110C" stroke-miterlimit="10"/>
<path d="M46.27 88.0201L43.49 83.4102" stroke="#13110C" stroke-miterlimit="10"/>
<path d="M44.4601 79.1599C44.4601 79.1599 41.7201 76.4699 41.0801 79.1599L43.5001 83.0299" fill="#FED68A"/>
<path d="M44.4601 79.1599C44.4601 79.1599 41.7201 76.4699 41.0801 79.1599L43.5001 83.0299" stroke="#13110C" stroke-miterlimit="10"/>
<path d="M66.9101 127.91C68.7401 107.83 58.1501 86.8101 58.1501 86.8101L55.1201 87.5801C55.1201 87.5801 66.5701 105.51 64.5701 128.25L66.9101 127.91Z" fill="#FFEA24" stroke="#13110C" stroke-miterlimit="10"/>
<path d="M58.9301 95.1298C42.3901 101.14 28.0801 112.86 28.0801 112.86V100.97C38.3601 93.7998 55.1201 87.5898 55.1201 87.5898C55.1201 87.5898 58.9101 94.2998 58.9301 95.1298Z" fill="#13110C" stroke="#13110C" stroke-miterlimit="10"/>
<path d="M28.0801 105.1C28.0801 106.69 28.0801 108.68 28.0801 108.68C28.0801 108.68 47.3501 95.2201 57.8801 92.6901L56.7901 90.6201C56.7901 90.6201 40.8201 95.1401 28.0801 105.1Z" fill="white" stroke="#13110C" stroke-miterlimit="10"/>
<path d="M28.0801 113.25V120.88C28.0801 120.88 37.6601 116.27 43.5001 102.44C43.4901 102.45 35.3301 106.51 28.0801 113.25Z" fill="#E31013" stroke="#13110C" stroke-miterlimit="10"/>
<path d="M28.0801 120.88V124.99C28.0801 124.99 47.5901 114.66 48.6401 99.6499L43.5001 102.45C43.4901 102.45 40.5801 111.76 28.0801 120.88Z" fill="#13110C" stroke="#13110C" stroke-miterlimit="10"/>
<path d="M49.2101 128.26C49.2101 128.26 59.4001 115.87 59.7001 110.58C59.7001 110.58 62.1001 114.19 61.1301 128.26H63.0101C63.0101 128.26 65.1101 117.25 59.9501 105.97C59.9501 105.97 53.8301 119.35 47.0701 128.26H49.2101Z" fill="white"/>
<path d="M53.0801 128.26L58.4901 120.41V128.26" fill="#13110C"/>
<path d="M53.0801 128.26L58.4901 120.41V128.26" stroke="#13110C" stroke-miterlimit="10"/>
<path d="M37.9099 128.26C38.8099 127.63 39.6699 126.99 40.4799 126.34C57.1099 113.06 56.6299 96.01 56.6299 96.01L58.4899 95.29C58.4899 95.29 61.0699 110.52 41.4899 128.25H37.9099V128.26Z" fill="#FFEA24"/>
<path d="M37.91 128.26L35.79 123.33L40.48 126.33L37.91 128.26Z" fill="#FFEA24"/>
<path d="M41.09 126.18L38.51 121.48L43.47 124.03L41.09 126.18Z" fill="#FFEA24"/>
<path d="M44.0301 123.64L40.8701 119.31L46.1201 121.2L44.0301 123.64Z" fill="#FFEA24"/>
<path d="M46.57 120.92L42.98 116.67L48.77 118.27L46.57 120.92Z" fill="#FFEA24"/>
<path d="M49.7701 117.5L45.8401 113.85L51.3501 114.7L49.7701 117.5Z" fill="#FFEA24"/>
<path d="M51.8401 114.32L47.5801 111.05L53.1401 111.38L51.8401 114.32Z" fill="#FFEA24"/>
<path d="M53.5001 110.8L48.8601 108.12L54.4201 107.73L53.5001 110.8Z" fill="#FFEA24"/>
<path d="M54.72 107.29L49.72 104.85L55.66 103.97L54.72 107.29Z" fill="#FFEA24"/>
<path d="M55.8999 104.5L50.8799 102.6L56.2999 101.31L55.8999 104.5Z" fill="#FFEA24"/>
<path d="M56.5299 100.83L51.2 99.2402L56.9199 97.4102L56.5299 100.83Z" fill="#FFEA24"/>
<path d="M71.78 86.0498C71.78 86.0498 78.3 108.66 75.77 127.91H77.83C77.83 127.91 80.18 109.04 74.76 86.0498H71.78Z" fill="#FFEA24" stroke="#13110C" stroke-miterlimit="10"/>
<path d="M71.7799 86.05C71.7799 86.05 67.4599 85.05 58.1499 86.81C58.1499 86.81 68.6599 108.92 66.9099 127.91H75.7699C75.7699 127.91 78.3199 108.12 71.7799 86.05Z" fill="#211C4B" stroke="#13110C" stroke-miterlimit="10"/>
<path d="M62.1399 94.6199L68.0999 99.1199L72.5799 90.6199L66.2399 86.4399L62.1399 94.6199Z" fill="#E31013"/>
<path d="M65.9099 107.73L68.9999 101.72L74.3999 105.96L70.7599 112.69L65.9099 107.73Z" fill="#E31013"/>
<path d="M67.3601 118.79L71.0101 113.85L75.0601 118.2L71.2101 123.33L67.3601 118.79Z" fill="#E31013"/>
<path d="M67.9199 128.11L71.6699 124.43L74.9399 128.11H67.9199Z" fill="#E31013"/>
<path d="M77.0901 98.7098L77.4201 101.31L93.7201 88.4098H124.06C124.06 88.4098 109.56 105.64 108.01 128.25L109.86 128.39C109.86 128.39 109.22 107.86 128.53 85.2998L92.0701 86.0498L77.0901 98.7098Z" fill="#FFEA24" stroke="#13110C" stroke-miterlimit="10"/>
<path d="M77.09 98.2498L74.76 86.0498H92.17L77.09 98.2498Z" fill="#13110C" stroke="#13110C" stroke-miterlimit="10"/>
<path d="M78.6001 90.6201H85.6801L78.9801 96.4201L78.6001 90.6201Z" fill="#E31013"/>
<path d="M78.1799 110.58L97.5499 96.8999H106.54C106.54 96.8999 99.3199 116.64 99.0699 128.25H96.6999C96.6999 128.25 98.3799 111.68 103.1 99.6399H98.0199L78.1699 112.85V110.58H78.1799Z" fill="#FFEA24" stroke="#13110C" stroke-miterlimit="10"/>
<path d="M78.3 120.41L78.34 118.59L98.04 119L97.7 120.82L78.34 120.62" fill="#FFEA24"/>
<path d="M78.3 120.41L78.34 118.59L98.04 119L97.7 120.82L78.34 120.62" stroke="#13110C" stroke-miterlimit="10"/>
<path d="M78.3299 115.68L98.0399 102.91H101.93L103.11 99.6499H98.0199L78.1799 112.86L78.3299 115.68Z" fill="#211C4B" stroke="#13110C" stroke-miterlimit="10"/>
<path d="M78.3401 115.93V118.59L98.0401 119C98.0401 119 100.29 106.2 101.93 102.91H98.0401L78.3401 115.93Z" fill="#E31013"/>
<path d="M98.45 105.96L96.01 114.74L84.01 114.62" stroke="white" stroke-miterlimit="10"/>
<path d="M96.0101 114.74L92.3601 109.93" stroke="white" stroke-miterlimit="10"/>
<path d="M99.0799 128.26H108.01C108.01 128.26 107.16 112.03 124.06 88.4199H93.7199L77.4199 101.32C77.4199 101.32 78.1799 109.06 78.1799 110.59L97.5499 96.8999H106.54C106.54 96.8999 99.4399 116.23 99.0799 128.26Z" fill="#211C4B" stroke="#13110C" stroke-miterlimit="10"/>
<path d="M78.3401 106.16C78.3401 106.16 82.2901 106.7 82.3701 104.33C82.4501 101.96 80.3601 99.12 80.3601 99.12L81.2901 98.25C81.2901 98.25 87.1001 104.28 83.2801 106.98C83.2801 106.98 79.9201 109.21 78.6001 108.25L78.3401 106.16Z" fill="#FFEA24"/>
<path d="M90.14 102.14C84.82 105.9 81.47 98.1098 81.47 98.1098L82.99 96.8998C82.99 96.8998 86.27 102.92 89.14 100.83C89.14 100.83 92.95 99.1698 87.27 93.5198L88.49 92.5498C88.49 92.5498 95.02 98.1698 91.24 101.36L90.14 102.14Z" fill="#FFEA24"/>
<path d="M96.2 97.8602C92.64 99.5802 88.79 92.3202 88.79 92.3202L89.88 91.4501C89.88 91.4501 94.08 96.9602 95.51 95.2902C95.51 95.2902 97.07 95.1402 96.19 88.4102H97.69C97.7 88.4102 99.07 96.4702 96.2 97.8602Z" fill="#FFEA24"/>
<path d="M102.81 96.9002C97.3301 97.5302 98.0401 88.4102 98.0401 88.4102H100.26C100.26 88.4102 99.6401 94.9902 102.52 94.9302C102.52 94.9302 106.33 95.8302 104.96 88.4102H106.55C106.54 88.4102 107.91 96.3102 102.81 96.9002Z" fill="#FFEA24"/>
<path d="M110.8 96.1802C105.02 96.0202 106.8 88.4102 106.8 88.4102H108.39C108.39 88.4102 107.7 93.9302 110.39 94.1202C110.39 94.1202 114.32 95.0202 113.14 88.4102H114.49C114.49 88.4102 115.33 96.3102 110.8 96.1802Z" fill="#FFEA24"/>
<path d="M114.98 88.4102L117.89 96.9402L119.26 95.2602L116.33 88.4102H114.98Z" fill="#FFEA24"/>
<path d="M106.71 98.7399C106.28 95.5499 117.12 96.4199 117.12 96.4199V98.2499C117.12 98.2499 108.89 96.6799 109.02 99.9299C109.02 99.9299 107.89 102.81 115.33 101.71L114.84 103.37C114.84 103.37 105.26 103.88 106.55 99.8399L106.71 98.7399Z" fill="#FFEA24"/>
<path d="M106.42 105.96C107 103.86 113.97 105.24 113.97 105.24L114.49 103.74C114.49 103.74 104.35 100.99 104.25 105.96C104.25 105.96 103.79 110.16 112.31 109.42L112.68 108.33C112.67 108.33 105.82 108.12 106.42 105.96Z" fill="#FFEA24"/>
<path d="M104.51 113.06C103.3 109.7 111.26 111.44 111.26 111.44L111.76 109.93C111.76 109.93 101.44 107.93 102.35 113.05C102.35 113.05 102.08 115.8 104.23 115.3C104.24 115.31 105.08 114.62 104.51 113.06Z" fill="#FFEA24"/>
<path d="M101.51 118.59L105.32 115.06L108.64 119L104.7 122.37L101.51 118.59Z" fill="#E31013"/>
<path d="M78.6001 104.18C78.6001 104.18 81.7101 106 81.0501 102.9" stroke="white" stroke-miterlimit="10"/>
<path d="M85.3601 98.6202C85.3601 98.6202 86.9601 100.65 88.4901 99.8602C88.4901 99.8602 90.3701 99.7702 88.4901 96.9102" stroke="white" stroke-miterlimit="10"/>
<path d="M92.0601 92.1499C92.0601 92.1499 96.2201 97.7799 95.2101 90.6099" stroke="white" stroke-miterlimit="10"/>
<path d="M101.51 90.0601C101.51 90.0601 100.45 93.6101 102.35 93.5201C104.26 93.4301 104.27 92.3001 104.23 90.6201" stroke="white" stroke-miterlimit="10"/>
<path d="M109.02 90.6201C109.02 90.6201 108.93 93.2501 110.8 93.2701C110.8 93.2701 112.08 93.3001 112.14 90.6201" stroke="white" stroke-miterlimit="10"/>
<path d="M114.98 93.27V95.56" stroke="white" stroke-miterlimit="10"/>
<path d="M117.62 89.4302L118.33 90.6202" stroke="white" stroke-miterlimit="10"/>
<path d="M118.7 91.4902L119.7 93.2702" stroke="white" stroke-miterlimit="10"/>
<path d="M112.64 98.4701C112.64 98.4701 110.14 98.3701 110.14 99.6501C110.14 99.6501 109.7 101.24 112.14 101.18" stroke="white" stroke-miterlimit="10"/>
<path d="M109.85 105.62C109.85 105.62 105.95 106.12 109.85 107.2" stroke="white" stroke-miterlimit="10"/>
<path d="M108.64 111.93C108.64 111.93 103.64 112.74 107.17 114.24" stroke="white" stroke-miterlimit="10"/>
<path d="M128.52 85.2998C128.52 85.2998 136.06 85.2298 138.19 86.0498L147.08 89.5598V111.93C147.08 111.93 137.23 93.0598 128.52 85.2998Z" fill="#13110C" stroke="#13110C" stroke-miterlimit="10"/>
<path d="M136.92 89.4302L144.02 98.6102V91.7902L136.92 89.4302Z" stroke="white" stroke-miterlimit="10"/>
<path d="M128.52 85.2998L125.54 88.9598C125.54 88.9598 141.82 106.28 147.08 118.71V111.93C147.08 111.93 142.21 100.23 128.52 85.2998Z" fill="#E31013" stroke="#13110C" stroke-miterlimit="10"/>
<path d="M125.54 88.96L124.05 90.94C124.05 90.94 138.76 106.69 147.07 122.37V118.71C147.08 118.71 140.47 104.93 125.54 88.96Z" fill="white" stroke="#13110C" stroke-miterlimit="10"/>
<path d="M145.99 120.38C145.99 120.38 135.91 126.29 133.27 128.54L135.91 128.62C135.91 128.62 142.95 124.16 146.9 122.02L145.99 120.38Z" fill="#FFEA24"/>
<path d="M145.44 122.31L146.4 124.99L144.02 123.24L145.44 122.31Z" fill="#FFEA24"/>
<path d="M140.53 124.54L141.74 128.47L138.41 125.79L140.53 124.54Z" fill="#FFEA24"/>
<path d="M117.9 100.7C117.9 100.7 132.77 116.77 135.56 126.85L132.54 128.62C132.54 128.62 127 116.56 116.52 103.39L117.9 100.7Z" fill="#E31013" stroke="#13110C" stroke-miterlimit="10"/>
<path d="M132.15 128.62C132.15 128.62 126.8 116.06 116.36 103.74L115.14 106.41C115.14 106.41 126.6 120.76 129.57 128.51" fill="#FFEA24"/>
<path d="M132.15 128.62C132.15 128.62 126.8 116.06 116.36 103.74L115.14 106.41C115.14 106.41 126.6 120.76 129.57 128.51" stroke="#13110C" stroke-miterlimit="10"/>
<path d="M113.72 128.39C113.72 128.39 115.37 116.99 116.53 115.37C116.53 115.37 122.9 123.11 125.15 128.47H127.26C127.26 128.47 118.87 113.62 116.16 111.57C116.16 111.57 112.79 119.42 111.77 128.41" fill="white"/>
<path d="M116.53 128.26L117.12 120.38L122.37 128.47L116.53 128.26Z" fill="#13110C" stroke="#13110C" stroke-miterlimit="10"/>
<path d="M118.48 99.6501L117.9 100.7L120.09 103.17L127.26 102.91L125.54 110.35L128 113.09H134.99L132.15 119.37L134.38 123.65L139.13 124.54L143 122.16V119.7L135.91 120.38L140.83 112.09L138.41 108.64L130.23 108.33L132.77 101.18L130.29 98.1201L118.48 99.6501Z" fill="#FFEA24"/>
<path d="M120.09 103.17L127.26 102.91L125.54 110.35L120.09 103.17Z" fill="#E31013"/>
<path d="M128 113.09H134.99L132.15 119.37L128 113.09Z" fill="#E31013"/>
<path d="M110.77 128.89H87.76L28.26 128.53L28.45 135.13C34.64 147.1 51.29 166.21 51.29 166.21C66.81 144.01 65.49 128.76 65.49 128.76" fill="#211C4B"/>
<path d="M110.77 128.89H87.76L28.26 128.53L28.45 135.13C34.64 147.1 51.29 166.21 51.29 166.21C66.81 144.01 65.49 128.76 65.49 128.76" stroke="#13110C" stroke-miterlimit="10"/>
<path d="M31.8899 133.94L30.6799 130.01L34.0099 132.69L31.8899 133.94Z" fill="#FFEA24"/>
<path d="M97.5099 129.24L96.9999 136.33L77.6499 136.12L78.6399 128.89L97.5099 129.24Z" fill="#13110C" stroke="#13110C" stroke-miterlimit="10"/>
<path d="M97 132.61L94.29 129.51" stroke="white" stroke-width="2" stroke-miterlimit="10"/>
<path d="M84.6101 129.51L87.7601 133.5L91.7101 129.78" stroke="white" stroke-width="2" stroke-miterlimit="10"/>
<path d="M81.72 129.38L78.54 132.81" stroke="white" stroke-width="2" stroke-miterlimit="10"/>
<path d="M147.26 128.89H110.77C110.77 128.89 108.63 142.44 116.56 162.53C116.56 162.53 139.88 153.77 147.26 145.71V128.89Z" fill="#211C4B" stroke="#13110C" stroke-miterlimit="10"/>
<path d="M114.9 225.06L105.35 212.94C105.35 212.94 96.72 217.08 85.62 214.17C85.62 214.17 67.56 208.09 63.68 207.47C63.68 207.47 58.48 206.94 56.54 207.82C56.54 207.82 53.19 217.9 45.79 225.05H114.9V225.06Z" fill="#FFEA24" stroke="#13110C" stroke-miterlimit="10"/>
<path d="M105.35 212.94L103.94 210.74C103.94 210.74 90.73 215.5 78.92 208.36C78.92 208.36 66.5 203.07 57.51 203.87L56.54 207.83C56.54 207.83 61.06 205.46 74.96 210.7C74.96 210.7 88.6 215.77 92.65 215.2C92.66 215.19 100.06 216.28 105.35 212.94Z" fill="#E31013" stroke="#13110C" stroke-miterlimit="10"/>
<path d="M103.94 210.73L102.71 207.31C102.71 207.31 93.99 211.34 80.95 205.79C80.95 205.79 64.56 198.57 57.69 199.89L57.51 203.85C57.51 203.85 67.87 203.55 77.88 207.93C87.9 212.31 89.8 212.84 97.08 212.11C104.36 211.39 103.94 210.73 103.94 210.73Z" fill="#13110C" stroke="#13110C" stroke-miterlimit="10"/>
<path d="M106.25 216.01C106.25 216.01 101.69 216.34 98.6599 217.61" stroke="#231E48" stroke-miterlimit="10"/>
<path d="M97.2901 217.99C97.2901 217.99 91.5801 214.91 88.5601 218.04" stroke="#231E48" stroke-miterlimit="10"/>
<path d="M87.2199 218.48C87.2199 218.48 84.8299 215.25 80.9399 216.51" stroke="#231E48" stroke-miterlimit="10"/>
<path d="M78.2601 216.21C78.2601 216.21 74.5501 212.38 70.6201 214.81" stroke="#231E48" stroke-miterlimit="10"/>
<path d="M69.08 214.47C69.08 214.47 66.33 210.36 61.27 212.4" stroke="#231E48" stroke-miterlimit="10"/>
<path d="M59.45 212.39C59.45 212.39 57.21 211.27 56 211" stroke="#231E48" stroke-miterlimit="10"/>
<path d="M97.0901 217.71C97.0901 217.21 97.5001 216.8 98.0001 216.8C98.5001 216.8 98.9101 217.21 98.9101 217.71C98.9101 218.21 98.5001 218.62 98.0001 218.62C97.5001 218.62 97.0901 218.22 97.0901 217.71Z" stroke="#231E48" stroke-miterlimit="10"/>
<path d="M86.8501 218.48C86.8501 217.98 87.2601 217.57 87.7601 217.57C88.2601 217.57 88.6701 217.98 88.6701 218.48C88.6701 218.98 88.2601 219.39 87.7601 219.39C87.2601 219.39 86.8501 218.98 86.8501 218.48Z" stroke="#231E48" stroke-miterlimit="10"/>
<path d="M78.6399 216.21C78.6399 215.71 79.0499 215.3 79.5499 215.3C80.0499 215.3 80.4599 215.71 80.4599 216.21C80.4599 216.71 80.0499 217.12 79.5499 217.12C79.0499 217.12 78.6399 216.72 78.6399 216.21Z" stroke="#231E48" stroke-miterlimit="10"/>
<path d="M69.0801 214.47C69.0801 213.97 69.4901 213.56 69.9901 213.56C70.4901 213.56 70.9001 213.97 70.9001 214.47C70.9001 214.97 70.4901 215.38 69.9901 215.38C69.4901 215.38 69.0801 214.97 69.0801 214.47Z" stroke="#231E48" stroke-miterlimit="10"/>
<path d="M59.45 212.39C59.45 211.89 59.86 211.48 60.36 211.48C60.86 211.48 61.27 211.89 61.27 212.39C61.27 212.89 60.86 213.3 60.36 213.3C59.86 213.3 59.45 212.9 59.45 212.39Z" stroke="#231E48" stroke-miterlimit="10"/>
<path d="M106.96 217.6C106.96 217.6 102.62 217.94 101.41 219.39" stroke="#231E48" stroke-miterlimit="10"/>
<path d="M94.8901 219.63C94.8901 219.63 91.8101 217.93 90.3301 219.39" stroke="#231E48" stroke-miterlimit="10"/>
<path d="M85.1899 219.63C85.1899 219.63 83.1299 217.42 80.9399 218.03" stroke="#231E48" stroke-miterlimit="10"/>
<path d="M77 217.35C77 217.35 73.92 215 72 216.22" stroke="#231E48" stroke-miterlimit="10"/>
<path d="M67.1 215.86C67.1 215.86 65.23 212.84 61.99 214.01" stroke="#231E48" stroke-miterlimit="10"/>
<path d="M87.22 221.64C87.22 221.14 87.63 220.73 88.13 220.73C88.63 220.73 89.04 221.14 89.04 221.64C89.04 222.14 88.63 222.55 88.13 222.55C87.63 222.55 87.22 222.15 87.22 221.64Z" stroke="#231E48" stroke-miterlimit="10"/>
<path d="M68.1699 217.8C68.1699 217.3 68.5799 216.89 69.0799 216.89C69.5799 216.89 69.9899 217.3 69.9899 217.8C69.9899 218.3 69.5799 218.71 69.0799 218.71C68.5799 218.71 68.1699 218.31 68.1699 217.8Z" stroke="#231E48" stroke-miterlimit="10"/>
<path d="M97.51 222C97.51 220.54 97.84 219.36 98.25 219.36C98.66 219.36 98.99 220.54 98.99 222C98.99 223.46 98.66 224.64 98.25 224.64C97.84 224.65 97.51 223.46 97.51 222Z" fill="#231E48"/>
<path d="M94.5001 220.47C95.7401 219.7 96.9201 219.35 97.1301 219.7C97.3401 220.05 96.5201 220.95 95.2801 221.72C94.0401 222.49 92.8601 222.84 92.6501 222.49C92.4301 222.15 93.2601 221.24 94.5001 220.47Z" fill="#231E48"/>
<path d="M101.35 221.47C100.17 220.62 99.4 219.66 99.64 219.33C99.88 219 101.03 219.42 102.22 220.27C103.4 221.12 104.17 222.08 103.93 222.41C103.69 222.75 102.54 222.32 101.35 221.47Z" fill="#231E48"/>
<path d="M77.0399 221.11C77.4199 219.64 78.0599 218.53 78.4699 218.63C78.8799 218.74 78.9099 220.02 78.5299 221.49C78.1499 222.96 77.5099 224.07 77.0999 223.96C76.6899 223.86 76.6599 222.58 77.0399 221.11Z" fill="#231E48"/>
<path d="M74.3999 218.77C75.8499 218.31 77.1299 218.27 77.2599 218.68C77.3899 219.08 76.3099 219.79 74.8599 220.24C73.4099 220.7 72.1299 220.74 71.9999 220.33C71.8799 219.93 72.9499 219.23 74.3999 218.77Z" fill="#231E48"/>
<path d="M81.0599 221.57C80.0899 220.4 79.5599 219.23 79.8899 218.96C80.2199 218.69 81.2699 219.42 82.2499 220.58C83.2199 221.75 83.7499 222.92 83.4199 223.19C83.0899 223.46 82.0399 222.74 81.0599 221.57Z" fill="#231E48"/>
<path d="M58.68 218.3C58.98 216.75 59.57 215.56 60 215.65C60.43 215.73 60.54 217.06 60.25 218.6C59.95 220.15 59.36 221.34 58.93 221.25C58.49 221.18 58.38 219.85 58.68 218.3Z" fill="#231E48"/>
<path d="M55.7999 216.07C57.2699 215.5 58.5899 215.38 58.7499 215.79C58.9099 216.2 57.8399 217 56.3699 217.56C54.8999 218.13 53.5799 218.25 53.4199 217.84C53.2599 217.43 54.3299 216.63 55.7999 216.07Z" fill="#231E48"/>
<path d="M62.86 218.52C61.78 217.38 61.16 216.2 61.48 215.9C61.8 215.6 62.94 216.28 64.02 217.42C65.1 218.56 65.72 219.74 65.4 220.04C65.09 220.35 63.95 219.66 62.86 218.52Z" fill="#231E48"/>
<path d="M58.76 214.46C58.76 214.46 57.78 212.99 55.51 213.55" stroke="#231E48" stroke-miterlimit="10"/>
<path d="M81.9801 183.83C82.6901 184.72 83.8901 190.51 83.8901 190.51C86.2201 197.84 83.0701 206.63 83.0701 206.63L73.1501 202.77C62.9401 199.18 57.1501 199.73 57.1501 199.73C57.1501 199.73 56.3001 190.15 53.4101 187.15C53.4101 187.15 50.7701 181.77 52.0201 175.78L52.7701 171.78H83.5201C83.5201 171.78 89.6801 173.4 88.1301 179.78C88.1301 179.78 87.3001 185.62 82.7701 184.01L81.9801 183.83Z" fill="#AFA3C7" stroke="#13120D" stroke-miterlimit="10"/>
<path d="M83.43 206.76C83.56 205.25 84.57 199.73 84.57 199.73C85.58 194.45 82.85 186.13 82.85 186.13C80.91 182.71 83.7 184.24 83.7 184.24C88.45 184.53 88.38 177.21 88.38 177.21H103.33C104.88 177.33 104.22 177.99 104.22 177.99C101.78 179.96 103.03 180.43 103.03 180.43C104.88 180.67 103.95 182.99 103.95 182.99C105.04 182.99 105.22 185.67 105.22 185.67C104.25 186.27 104.87 188.12 104.87 188.12C109.63 189.25 107.03 192.89 107.03 192.89C104.94 194.56 102.71 201.29 102.71 201.29C104.12 204.21 102.71 207.31 102.71 207.31C102.71 207.31 93.98 210.83 83.43 206.76Z" fill="#FED68A" stroke="#13110C" stroke-miterlimit="10"/>
<path d="M100.11 206.06C100.11 206.06 91.9699 206.18 88.3799 201.89" stroke="#13110C" stroke-miterlimit="10"/>
<path d="M92.6001 200.82C97.7401 203.69 100.15 201.77 100.15 201.77C100.15 201.77 101.44 197.55 92.5601 199.39C92.5501 199.39 91.3601 200.12 92.6001 200.82Z" stroke="#13110C" stroke-miterlimit="10"/>
<path d="M96.1201 198.14C96.1201 198.14 98.3701 195.88 99.5701 195.52" stroke="#13110C" stroke-miterlimit="10"/>
<path d="M95.28 200.73C95.28 200.39 96.04 200.11 96.98 200.11C97.92 200.11 98.68 200.39 98.68 200.73C98.68 201.08 97.92 201.36 96.98 201.36C96.04 201.36 95.28 201.08 95.28 200.73Z" fill="#13110C" stroke="#13110C" stroke-miterlimit="10"/>
<path d="M104.58 188.9C104.58 188.9 100.97 188.66 100.21 189.56" stroke="#13110C" stroke-miterlimit="10"/>
<path d="M102.39 187.05C102.39 187.05 98.49 188.01 95.69 183.65C95.69 183.65 92.71 181.09 90.44 183.29C90.44 183.29 88.6599 186.15 92.0299 187.14C92.0299 187.14 94.4799 187.09 93.2499 184.77C93.2499 184.77 92.47 184.16 91.58 184.77" stroke="#13110C" stroke-miterlimit="10"/>
<path d="M103.94 183C103.94 183 99.6901 182.64 99.5701 183.3" stroke="#13110C" stroke-miterlimit="10"/>
<path d="M103.56 183.29H101.57" stroke="#13110C" stroke-miterlimit="10"/>
<path d="M103.94 177.32C103.94 177.32 106.25 174.95 106.46 176.7C106.67 178.45 110.94 179.98 112.81 177.22C112.81 177.22 115.3 171.8 110.94 171.1H92.6899H86.0099C86.0099 171.1 84.4599 171.29 83.9299 171.92C83.9299 171.92 88.1299 173.95 88.3799 177.22L103.94 177.32Z" fill="#AFA3C7" stroke="#13120D" stroke-miterlimit="10"/>
<path d="M81.6501 178.73C81.6501 178.73 82.7001 180.92 84.0801 179.5C85.4601 178.08 83.9501 176.21 83.0601 175.67C82.1701 175.14 79.1401 175.4 79.5401 180.47C79.9401 185.54 82.0601 190.17 82.0701 192.3C82.0801 194.43 82.9001 199.33 81.6501 203.77" stroke="#13110C" stroke-width="0.5" stroke-miterlimit="10"/>
<path d="M81.6499 180.92C81.6499 180.92 84.3699 182.34 85.1899 179.76C85.9999 177.18 84.8499 174.69 83.5199 173.98C82.1799 173.27 77.7599 173.15 77.7899 178.73C77.8199 184.3 78.7199 186.44 79.5199 188.13C80.3099 189.82 81.1499 197.38 80.4699 203.07" stroke="#13110C" stroke-width="0.5" stroke-miterlimit="10"/>
<path d="M82.1499 178.73C82.1499 178.73 83.8599 178.79 83.0599 177.9C82.2599 177.01 81.6599 176.48 80.9399 177.54" stroke="#13110C" stroke-width="0.5" stroke-miterlimit="10"/>
<path d="M83.07 182.4C83.07 182.4 86.91 182.85 86.86 177.84C86.86 177.84 86.07 170.53 77.28 174.16C77.28 174.16 74.22 177.01 76.78 185.19C79.34 193.37 79.71 201.51 78.81 203.07" stroke="#13110C" stroke-width="0.5" stroke-miterlimit="10"/>
<path d="M75.75 173.15C75.75 173.15 71.79 180.26 74.49 184.77C77.19 189.28 77.77 201.1 76.99 202.39" stroke="#13110C" stroke-width="0.5" stroke-miterlimit="10"/>
<path d="M73.5501 173.15C73.5501 173.15 69.9001 180.21 71.5001 184.04C73.1001 187.86 76.2501 195.83 74.6301 201.36" stroke="#13110C" stroke-width="0.5" stroke-miterlimit="10"/>
<path d="M70.9 173.15C70.9 173.15 67.19 180.17 69.08 184.77C70.97 189.37 72.93 196.47 71.99 198.92L71.5 200.66" stroke="#13110C" stroke-width="0.5" stroke-miterlimit="10"/>
<path d="M68.6801 173.15C68.6801 173.15 64.9701 180.17 66.8601 184.77C68.7501 189.37 70.7101 196.47 69.7701 198.92" stroke="#13110C" stroke-width="0.5" stroke-miterlimit="10"/>
<path d="M65.9999 173.15C65.9999 173.15 62.2899 180.17 64.1799 184.77C66.0699 189.37 68.0299 196.47 67.0899 198.92" stroke="#13110C" stroke-width="0.5" stroke-miterlimit="10"/>
<path d="M63.2101 173.15C63.2101 173.15 59.5001 180.17 61.3901 184.77C63.2801 189.37 65.2401 196.47 64.3001 198.92" stroke="#13110C" stroke-width="0.5" stroke-miterlimit="10"/>
<path d="M60.87 173.15C60.87 173.15 57.16 180.17 59.05 184.77C60.94 189.37 62.9 196.47 61.96 198.92" stroke="#13110C" stroke-width="0.5" stroke-miterlimit="10"/>
<path d="M58.2301 172.36C58.2301 172.36 54.5201 179.38 56.4101 183.98C58.3001 188.58 60.2601 195.68 59.3201 198.13" stroke="#13110C" stroke-width="0.5" stroke-miterlimit="10"/>
<path d="M56.59 172.36C56.59 172.36 52.88 179.38 54.77 183.98C56.66 188.58 58.62 195.68 57.68 198.13" stroke="#13110C" stroke-width="0.5" stroke-miterlimit="10"/>
<path d="M108.95 175.48C108.95 175.48 109.93 176.71 110.64 175.48C111.35 174.25 108.98 172.49 106.96 173.64C104.95 174.79 103.56 176.48 103.56 176.48" stroke="#13110C" stroke-width="0.5" stroke-miterlimit="10"/>
<path d="M108.15 174.91C108.15 174.91 106.86 176.78 109.66 177.21C112.46 177.65 112.15 174 111.79 173.63C111.79 173.63 108.7 170.97 106.24 173.14L102.45 176.02" stroke="#13110C" stroke-width="0.5" stroke-miterlimit="10"/>
<path d="M104.58 172.36L100.95 175.94" stroke="#13110C" stroke-width="0.5" stroke-miterlimit="10"/>
<path d="M102.39 172.36L98.76 175.94" stroke="#13110C" stroke-width="0.5" stroke-miterlimit="10"/>
<path d="M100.06 172.36L96.4299 175.94" stroke="#13110C" stroke-width="0.5" stroke-miterlimit="10"/>
<path d="M97.5099 172.36L93.8799 175.94" stroke="#13110C" stroke-width="0.5" stroke-miterlimit="10"/>
<path d="M94.7401 172.36L91.1001 175.94" stroke="#13110C" stroke-width="0.5" stroke-miterlimit="10"/>
<path d="M92.61 171.85L88.98 175.42" stroke="#13110C" stroke-width="0.5" stroke-miterlimit="10"/>
<path d="M89.9799 171.85L88.1299 174.15" stroke="#13110C" stroke-width="0.5" stroke-miterlimit="10"/>
<path d="M28.26 167.58V214.47L34.38 208.17V170.03L28.26 167.58Z" fill="#E31013" stroke="#13110C" stroke-miterlimit="10"/>
<path d="M34.38 170.03L37.15 171.09V209.15L28.26 218.9V214.47L34.38 208.17V170.03Z" fill="#FFEA24" stroke="#13110C" stroke-miterlimit="10"/>
<path d="M42.7799 198.92L40.5799 194.99C42.4299 193.2 43.1999 188.28 43.1999 188.28L37.4599 192.47L37.1499 198.78V205.1L42.6799 209.56C42.6799 209.56 42.1599 204.6 40.3899 202.73L42.7799 198.92Z" fill="#8B92C8" stroke="#13110C" stroke-miterlimit="10"/>
<path d="M42.7799 198.92L40.3899 195.11C42.5499 192.34 42.6699 188.27 42.6699 188.27C44.1399 187.08 45.7799 181.98 45.7799 181.98C47.5099 186.62 43.1999 195.45 43.1999 195.45L46.2399 198.92L43.2099 202.39C43.2099 202.39 47.5299 211.21 45.7999 215.86C45.7999 215.86 44.1599 210.76 42.6899 209.57C42.6899 209.57 42.5599 205.5 40.3999 202.74L42.7799 198.92Z" fill="#FFEA24" stroke="#13110C" stroke-miterlimit="10"/>
<path d="M46.2299 184.56C55.7099 200.26 46.2299 215.11 46.2299 215.11C46.2299 215.11 46.3299 208.11 44.6999 206.06L43.1999 202.39L46.2299 198.92L43.1899 195.45C43.1999 195.45 46.2099 187.05 46.2299 184.56Z" stroke="#13110C" stroke-miterlimit="10"/>
<path d="M140.23 160.76C140.23 160.76 144.96 167.31 143.82 172.3C143.82 172.3 143.19 174.03 141.92 172.47C141.92 172.47 143.02 176.23 140.74 175.18C140.74 175.18 141.97 179.07 138.92 177.84C138.92 177.84 137.99 180.73 135.37 178.08L132.41 173.74C132.41 173.74 130.72 172.96 131.23 177.26C131.23 177.26 130.05 180.72 128.1 177.59C128.1 177.59 127.25 173.62 125.65 172.52C125.65 172.52 123.11 168.93 125.65 167.53L140.23 160.76Z" fill="#FED68A" stroke="#13110C" stroke-miterlimit="10"/>
<path d="M138.92 165.41L141.88 172.29" stroke="#13110C" stroke-miterlimit="10"/>
<path d="M136.3 166.25L140.74 175.17" stroke="#13110C" stroke-miterlimit="10"/>
<path d="M133.13 167.77L138.92 177.83" stroke="#13110C" stroke-miterlimit="10"/>
<path d="M129.07 169.13L131.85 173.74" stroke="#13110C" stroke-miterlimit="10"/>
<path d="M130.88 177.98C130.88 177.98 133.62 180.67 134.26 177.98L131.84 174.11" fill="#FED68A"/>
<path d="M130.88 177.98C130.88 177.98 133.62 180.67 134.26 177.98L131.84 174.11" stroke="#13110C" stroke-miterlimit="10"/>
<path d="M108.43 129.24C106.6 149.32 117.19 170.34 117.19 170.34L120.22 169.57C120.22 169.57 108.77 151.64 110.77 128.9L108.43 129.24Z" fill="#FFEA24" stroke="#13110C" stroke-miterlimit="10"/>
<path d="M116.42 162.02C132.96 156.01 147.27 144.29 147.27 144.29V156.18C136.99 163.35 120.23 169.56 120.23 169.56C120.23 169.56 116.43 162.85 116.42 162.02Z" fill="#13110C" stroke="#13110C" stroke-miterlimit="10"/>
<path d="M147.26 152.05C147.26 150.46 147.26 148.47 147.26 148.47C147.26 148.47 127.99 161.93 117.46 164.46L118.55 166.53C118.55 166.53 134.53 162 147.26 152.05Z" fill="white" stroke="#13110C" stroke-miterlimit="10"/>
<path d="M147.26 143.9V136.27C147.26 136.27 137.68 140.88 131.84 154.71C131.85 154.7 140.01 150.64 147.26 143.9Z" fill="#E31013" stroke="#13110C" stroke-miterlimit="10"/>
<path d="M147.26 136.26V132.15C147.26 132.15 127.75 142.48 126.7 157.49L131.84 154.69C131.85 154.7 134.76 145.39 147.26 136.26Z" fill="#13110C" stroke="#13110C" stroke-miterlimit="10"/>
<path d="M125.15 128.47C125.15 128.47 115.95 141.29 115.65 146.57C115.65 146.57 112.75 142.46 113.72 128.39L111.77 128.4C111.77 128.4 110.24 139.9 115.4 151.18C115.4 151.18 120.51 137.37 127.26 128.46H125.15V128.47Z" fill="white"/>
<path d="M122.6 128.47L116.85 136.74L116.53 128.26" fill="#13110C"/>
<path d="M122.6 128.47L116.85 136.74L116.53 128.26" stroke="#13110C" stroke-miterlimit="10"/>
<path d="M137.43 128.89C136.53 129.52 135.67 130.16 134.86 130.81C118.23 144.09 118.71 161.14 118.71 161.14L116.85 161.86C116.85 161.86 114.27 146.63 133.85 128.9H137.43V128.89Z" fill="#FFEA24"/>
<path d="M137.43 128.89L139.56 133.82L134.86 130.82L137.43 128.89Z" fill="#FFEA24"/>
<path d="M134.25 130.96L136.83 135.67L131.87 133.12L134.25 130.96Z" fill="#FFEA24"/>
<path d="M131.31 133.5L134.47 137.84L129.23 135.95L131.31 133.5Z" fill="#FFEA24"/>
<path d="M128.77 136.23L132.36 140.48L126.58 138.88L128.77 136.23Z" fill="#FFEA24"/>
<path d="M125.57 139.65L129.5 143.3L123.99 142.45L125.57 139.65Z" fill="#FFEA24"/>
<path d="M123.5 142.83L127.76 146.09L122.2 145.77L123.5 142.83Z" fill="#FFEA24"/>
<path d="M121.84 146.34L126.48 149.03L120.92 149.42L121.84 146.34Z" fill="#FFEA24"/>
<path d="M120.62 149.86L125.62 152.3L119.68 153.17L120.62 149.86Z" fill="#FFEA24"/>
<path d="M119.44 152.65L124.46 154.55L119.04 155.83L119.44 152.65Z" fill="#FFEA24"/>
<path d="M118.81 156.32L124.15 157.91L118.42 159.74L118.81 156.32Z" fill="#FFEA24"/>
<path d="M103.56 171.09C103.56 171.09 97.04 148.48 99.57 129.23H97.5101C97.5101 129.23 95.1601 148.1 100.58 171.09H103.56Z" fill="#FFEA24" stroke="#13110C" stroke-miterlimit="10"/>
<path d="M103.56 171.09C103.56 171.09 107.88 172.09 117.19 170.33C117.19 170.33 106.68 148.22 108.43 129.23H99.57C99.57 129.24 97.03 149.02 103.56 171.09Z" fill="#211C4B" stroke="#13110C" stroke-miterlimit="10"/>
<path d="M113.2 162.53L107.24 158.03L102.76 166.53L109.1 170.71L113.2 162.53Z" fill="#E31013"/>
<path d="M109.43 149.42L106.34 155.43L100.95 151.19L104.58 144.46L109.43 149.42Z" fill="#E31013"/>
<path d="M107.98 138.35L104.33 143.3L100.28 138.95L104.13 133.82L107.98 138.35Z" fill="#E31013"/>
<path d="M107.26 128.76L103.47 132.47L100.24 128.76H107.26Z" fill="#E31013"/>
<path d="M98.2501 158.44L97.9201 155.84L81.6201 168.74H51.2901C51.2901 168.74 65.7901 151.51 67.3401 128.9L65.4901 128.76C65.4901 128.76 66.1301 149.29 46.8201 171.85L83.2801 171.1L98.2501 158.44Z" fill="#FFEA24" stroke="#13110C" stroke-miterlimit="10"/>
<path d="M98.2499 158.9L100.58 171.09L83.1699 171.1L98.2499 158.9Z" fill="#13110C" stroke="#13110C" stroke-miterlimit="10"/>
<path d="M96.7399 166.53H89.6599L96.3599 160.72L96.7399 166.53Z" fill="#E31013"/>
<path d="M97.16 146.56L77.79 160.24H68.8C68.8 160.24 76.02 140.5 76.27 128.89H78.65C78.65 128.89 76.97 145.46 72.25 157.5H77.33L97.18 144.29V146.56H97.16Z" fill="#FFEA24" stroke="#13110C" stroke-miterlimit="10"/>
<path d="M97.04 136.74L97 138.56L77.3 138.15L77.65 136.33L97 136.53" fill="#FFEA24"/>
<path d="M97.04 136.74L97 138.56L77.3 138.15L77.65 136.33L97 136.53" stroke="#13110C" stroke-miterlimit="10"/>
<path d="M97.01 141.47L77.3 154.24H73.41L72.24 157.5H77.32L97.16 144.29L97.01 141.47Z" fill="#211C4B" stroke="#13110C" stroke-miterlimit="10"/>
<path d="M96.9999 141.22V138.56L77.2999 138.15C77.2999 138.15 75.0499 150.95 73.4099 154.24H77.2999L96.9999 141.22Z" fill="#E31013"/>
<path d="M76.8899 151.19L79.3299 142.4L91.3299 142.53" stroke="white" stroke-miterlimit="10"/>
<path d="M79.3301 142.4L82.9801 147.22" stroke="white" stroke-miterlimit="10"/>
<path d="M76.26 128.89H67.33C67.33 128.89 68.18 145.12 51.28 168.73H81.62L97.92 155.83C97.92 155.83 97.16 148.09 97.16 146.56L77.79 160.24H68.8C68.8 160.24 75.9 140.92 76.26 128.89Z" fill="#211C4B" stroke="#13110C" stroke-miterlimit="10"/>
<path d="M97 150.99C97 150.99 93.05 150.45 92.97 152.82C92.89 155.19 94.98 158.03 94.98 158.03L94.05 158.9C94.05 158.9 88.24 152.87 92.06 150.17C92.06 150.17 95.42 147.94 96.74 148.9L97 150.99Z" fill="#FFEA24"/>
<path d="M85.2101 155.01C90.5301 151.25 93.8801 159.04 93.8801 159.04L92.3601 160.25C92.3601 160.25 89.0801 154.23 86.2101 156.32C86.2101 156.32 82.4001 157.98 88.0801 163.63L86.8601 164.6C86.8601 164.6 80.3301 158.98 84.1101 155.79L85.2101 155.01Z" fill="#FFEA24"/>
<path d="M79.14 159.29C82.7 157.57 86.55 164.83 86.55 164.83L85.46 165.7C85.46 165.7 81.26 160.19 79.83 161.86C79.83 161.86 78.27 162.01 79.15 168.74H77.65C77.65 168.73 76.27 160.67 79.14 159.29Z" fill="#FFEA24"/>
<path d="M72.5299 160.24C78.0099 159.61 77.2999 168.73 77.2999 168.73H75.0799C75.0799 168.73 75.6999 162.15 72.8199 162.21C72.8199 162.21 69.0099 161.31 70.3799 168.73H68.7999C68.7999 168.73 67.4299 160.83 72.5299 160.24Z" fill="#FFEA24"/>
<path d="M64.5401 160.96C70.3201 161.12 68.5401 168.73 68.5401 168.73H66.95C66.95 168.73 67.64 163.21 64.95 163.02C64.95 163.02 61.0201 162.12 62.2001 168.73H60.8501C60.8501 168.73 60.0101 160.84 64.5401 160.96Z" fill="#FFEA24"/>
<path d="M60.3601 168.73L57.4501 160.21L56.0801 161.88L59.0101 168.73H60.3601Z" fill="#FFEA24"/>
<path d="M68.63 158.4C69.06 161.59 58.22 160.72 58.22 160.72V158.89C58.22 158.89 66.45 160.46 66.32 157.21C66.32 157.21 67.45 154.33 60.01 155.43L60.5 153.77C60.5 153.77 70.08 153.26 68.79 157.3L68.63 158.4Z" fill="#FFEA24"/>
<path d="M68.9201 151.19C68.3401 153.29 61.3701 151.91 61.3701 151.91L60.8501 153.41C60.8501 153.41 70.9901 156.16 71.0901 151.19C71.0901 151.19 71.5501 146.99 63.0301 147.73L62.6601 148.82C62.6701 148.81 69.5201 149.03 68.9201 151.19Z" fill="#FFEA24"/>
<path d="M70.8301 144.09C72.0401 147.45 64.0801 145.71 64.0801 145.71L63.5801 147.22C63.5801 147.22 73.9001 149.22 72.9901 144.1C72.9901 144.1 73.2601 141.35 71.1101 141.85C71.1001 141.84 70.2601 142.53 70.8301 144.09Z" fill="#FFEA24"/>
<path d="M73.83 138.56L70.03 142.09L66.7 138.15L70.64 134.78L73.83 138.56Z" fill="#E31013"/>
<path d="M74.9399 128.11L71.0699 132.72L67.9199 128.11H74.9399Z" fill="#E31013"/>
<path d="M96.7399 152.97C96.7399 152.97 93.6299 151.15 94.2899 154.25" stroke="white" stroke-miterlimit="10"/>
<path d="M89.98 158.53C89.98 158.53 88.38 156.5 86.85 157.29C86.85 157.29 84.97 157.38 86.85 160.24" stroke="white" stroke-miterlimit="10"/>
<path d="M83.28 165C83.28 165 79.12 159.37 80.13 166.54" stroke="white" stroke-miterlimit="10"/>
<path d="M73.8301 167.09C73.8301 167.09 74.8901 163.54 72.9901 163.63C71.0801 163.72 71.0701 164.85 71.1101 166.53" stroke="white" stroke-miterlimit="10"/>
<path d="M66.32 166.53C66.32 166.53 66.41 163.9 64.54 163.88C64.54 163.88 63.26 163.85 63.2 166.53" stroke="white" stroke-miterlimit="10"/>
<path d="M60.3601 163.88V161.59" stroke="white" stroke-miterlimit="10"/>
<path d="M57.72 167.72L57.01 166.53" stroke="white" stroke-miterlimit="10"/>
<path d="M56.6399 165.65L55.6399 163.88" stroke="white" stroke-miterlimit="10"/>
<path d="M62.7 158.67C62.7 158.67 65.1999 158.77 65.1999 157.49C65.1999 157.49 65.64 155.9 63.2 155.96" stroke="white" stroke-miterlimit="10"/>
<path d="M65.49 151.53C65.49 151.53 69.39 151.03 65.49 149.95" stroke="white" stroke-miterlimit="10"/>
<path d="M66.7 145.22C66.7 145.22 71.7 144.41 68.17 142.91" stroke="white" stroke-miterlimit="10"/>
<path d="M46.82 171.85C46.82 171.85 39.28 171.92 37.15 171.1L28.26 167.59V145.22C28.26 145.22 38.11 164.09 46.82 171.85Z" fill="#13110C" stroke="#13110C" stroke-miterlimit="10"/>
<path d="M38.4201 167.72L31.3201 158.53V165.36L38.4201 167.72Z" stroke="white" stroke-miterlimit="10"/>
<path d="M46.82 171.85L49.8 168.19C49.8 168.19 33.52 150.87 28.26 138.44V145.22C28.26 145.22 33.13 156.92 46.82 171.85Z" fill="#E31013" stroke="#13110C" stroke-miterlimit="10"/>
<path d="M49.8 168.19L51.29 166.21C51.29 166.21 36.58 150.46 28.27 134.78V138.44C28.26 138.43 34.87 152.21 49.8 168.19Z" fill="white" stroke="#13110C" stroke-miterlimit="10"/>
<path d="M29.3499 136.77C29.3499 136.77 39.4299 130.86 42.0699 128.61L39.4299 128.53C39.4299 128.53 32.3899 132.99 28.4399 135.13L29.3499 136.77Z" fill="#FFEA24"/>
<path d="M29.8999 134.84L28.9399 132.16L31.3199 133.9L29.8999 134.84Z" fill="#FFEA24"/>
<path d="M34.8101 132.61L33.6001 128.68L36.9301 131.36L34.8101 132.61Z" fill="#FFEA24"/>
<path d="M57.44 156.44C57.44 156.44 42.57 140.37 39.78 130.29L42.8 128.52C42.8 128.52 48.34 140.58 58.82 153.75L57.44 156.44Z" fill="#E31013" stroke="#13110C" stroke-miterlimit="10"/>
<path d="M43.2 128.53C43.2 128.53 48.55 141.09 58.99 153.41L60.2099 150.74C60.2099 150.74 48.7499 136.39 45.7799 128.64" fill="#FFEA24"/>
<path d="M43.2 128.53C43.2 128.53 48.55 141.09 58.99 153.41L60.2099 150.74C60.2099 150.74 48.7499 136.39 45.7799 128.64" stroke="#13110C" stroke-miterlimit="10"/>
<path d="M61.1199 128.26C61.1199 128.26 59.9699 140.16 58.8099 141.78C58.8099 141.78 51.5399 133.51 49.2899 128.15H47.1399C47.1399 128.15 56.4599 143.53 59.1699 145.58C59.1699 145.58 61.9699 137.24 62.9999 128.25" fill="white"/>
<path d="M58.81 128.89L58.22 136.77L52.97 128.68L58.81 128.89Z" fill="#13110C" stroke="#13110C" stroke-miterlimit="10"/>
<path d="M56.8601 157.5L57.4401 156.44L55.2501 153.98L48.0801 154.24L49.8001 146.79L47.3501 144.06H40.3501L43.2001 137.77L40.9601 133.5L36.2101 132.61L32.3401 134.98V137.44L39.4301 136.77L34.5101 145.05L36.9301 148.51L45.1101 148.81L42.5701 155.96L45.0501 159.03L56.8601 157.5Z" fill="#FFEA24"/>
<path d="M55.2501 153.98L48.0801 154.24L49.8001 146.79L55.2501 153.98Z" fill="#E31013"/>
<path d="M47.3501 144.06H40.3501L43.2001 137.77L47.3501 144.06Z" fill="#E31013"/>
<path d="M100.24 128.76L104.11 124.15L107.26 128.76H100.24Z" fill="#E31013"/>
<path d="M8.92993 39.3201L15.9199 48.1701L23.0099 39.3201L15.9699 30.6001L8.92993 39.3201Z" fill="#E30B13"/>
<path d="M155.1 216.65L162.1 225.49L169.19 216.65L162.15 207.92L155.1 216.65Z" fill="#E30B13"/>
<path d="M37.9399 55.28L46.9599 66.67L56.0899 55.28L47.0099 44.04L37.9399 55.28Z" fill="#E30B13"/>
<path d="M117.47 200.22L126.49 211.62L135.62 200.22L126.54 188.98L117.47 200.22Z" fill="#E30B13"/>
</svg>
