<svg width="180" height="254" viewBox="0 0 180 254" fill="none" xmlns="http://www.w3.org/2000/svg">
<rect x="0.5" y="0.5" width="179" height="253" rx="14.5" fill="white" stroke="#1D1D1B"/>
<path d="M147.91 32.3301H29.1799V223.38H147.91V32.3301Z" fill="white" stroke="#13110C" stroke-miterlimit="10"/>
<path d="M88.5399 127.85H135.91L135.64 103.1L117.24 82.3398L64.7399 84.7498L29.1799 114.22V127.85H88.5399H145.53H88.5399Z" fill="#E31013"/>
<path d="M88.5399 127.85H135.91L135.64 103.1L117.24 82.3398L64.7399 84.7498L29.1799 114.22V127.85H88.5399ZM88.5399 127.85H145.53" stroke="#13110C" stroke-miterlimit="10"/>
<path d="M122.83 91.9502L119.92 97.0802L125.71 100.43" fill="#13110C"/>
<path d="M122.83 91.9502L119.92 97.0802L125.71 100.43" stroke="white" stroke-miterlimit="10"/>
<path d="M126.21 102.75L122.09 108.57L126.88 113.32" fill="#13110C"/>
<path d="M126.21 102.75L122.09 108.57L126.88 113.32" stroke="white" stroke-miterlimit="10"/>
<path d="M126.61 116.08L121.64 118.63L124.12 125.75" fill="#13110C"/>
<path d="M126.61 116.08L121.64 118.63L124.12 125.75" stroke="white" stroke-miterlimit="10"/>
<path d="M123.82 126.51L118.18 127.85" stroke="white" stroke-miterlimit="10"/>
<path d="M117.24 82.3398L115.76 89.3098L122.09 90.3398" fill="#13110C"/>
<path d="M117.24 82.3398L115.76 89.3098L122.09 90.3398" stroke="white" stroke-miterlimit="10"/>
<path d="M145.53 111.25L135.91 100.9V127.85H145.53V111.25Z" fill="#211C4B" stroke="#13110C" stroke-miterlimit="10"/>
<path d="M140.03 127.56L143.77 125.39L136.96 118L143.1 111.37L135.91 103.41" stroke="white" stroke-width="2" stroke-miterlimit="10"/>
<path d="M96.76 127.85C96.76 127.85 94.5899 102.07 98.0899 82.2402L117.24 82.3402C117.24 82.3402 104.59 93.7902 107.13 127.85H96.76Z" fill="white" stroke="#13110C" stroke-miterlimit="10"/>
<path d="M101.01 92.7199C98.74 87.4299 101.68 85.8999 101.68 85.8999C101.68 85.8999 104.23 87.5099 102.27 89.8599C102.26 89.8599 100.7 91.7199 101.01 92.7199Z" fill="#211C4B"/>
<path d="M108.85 92.7199C106.58 87.4299 109.52 85.8999 109.52 85.8999C109.52 85.8999 112.07 87.5099 110.11 89.8599C110.11 89.8599 108.54 91.7199 108.85 92.7199Z" fill="#211C4B"/>
<path d="M104.27 110.95C102 105.66 104.94 104.13 104.94 104.13C104.94 104.13 107.49 105.74 105.53 108.09C105.53 108.08 103.96 109.95 104.27 110.95Z" fill="#211C4B"/>
<path d="M101.56 119.49C99.29 114.2 102.23 112.67 102.23 112.67C102.23 112.67 104.78 114.28 102.82 116.63C102.81 116.63 101.25 118.49 101.56 119.49Z" fill="#211C4B"/>
<path d="M99.5801 129.24C97.3101 123.95 100.25 122.42 100.25 122.42C100.25 122.42 102.8 124.03 100.84 126.38C100.83 126.37 99.2701 128.24 99.5801 129.24Z" fill="#211C4B"/>
<path d="M69.86 120.92C67.24 122.31 64.47 127.86 64.47 127.86L66.68 127.98C66.68 127.98 68.51 124.23 70.09 122.56L69.86 120.92Z" fill="white" stroke="#13110C" stroke-width="0.5" stroke-miterlimit="10"/>
<path d="M42.98 127.97V121.57L52.59 121.16L53.38 118L60.34 118.41V127.97H42.98Z" fill="#13110C"/>
<path d="M87.1099 87.07C87.1099 87.07 79.3399 96.91 73.6299 101.87C73.6299 101.87 75.7099 106.77 79.2299 118.55L96.2799 98.92C96.2799 98.92 98.0099 85.26 98.0799 83.04C98.0899 83.03 93.7799 78.02 87.1099 87.07Z" fill="#FFEA24" stroke="#13110C" stroke-miterlimit="10"/>
<path d="M77.21 105.03L77.28 109.37H81.13L82.96 102.65L77.21 105.03Z" fill="#211C4B"/>
<path d="M31.3501 127.85L31.5301 121.57H41.9901V127.97L31.3501 127.85Z" fill="#211C4B"/>
<path d="M40.6099 122L32.4399 127.49" stroke="white" stroke-width="2" stroke-miterlimit="10"/>
<path d="M42 121.57L41.97 127.85" stroke="#FFEA24" stroke-width="3" stroke-miterlimit="10"/>
<path d="M31.07 121.57L31.04 127.85" stroke="#FFEA24" stroke-width="3" stroke-miterlimit="10"/>
<path d="M29.1799 109.04C29.1799 109.04 47.1899 92.0402 53.8299 90.9702" stroke="#FFEA24" stroke-width="2" stroke-miterlimit="10"/>
<path d="M147.91 74.8398H122.59V84.9498H147.91V74.8398Z" fill="#13110C"/>
<path d="M123.24 83.2202H147.9" stroke="#E31013" stroke-width="2" stroke-miterlimit="10"/>
<path d="M138.52 60.0601L128 60.1301L138.52 60.1401C138.52 60.1401 140.6 70.2601 147.9 74.7901V82.5201C143.22 81.5001 139.17 74.7901 139.17 74.7901L135.19 83.2301C132.46 82.4101 129.55 75.2601 129.55 75.2601L121.98 81.8401L119.64 79.2501C119.64 79.2501 120.35 74.3901 120.97 74.3901C120.97 74.3901 128.84 68.0201 127.99 60.3001" fill="#FFEA24"/>
<path d="M138.52 60.0601L128 60.1301L138.52 60.1401C138.52 60.1401 140.6 70.2601 147.9 74.7901V82.5201C143.22 81.5001 139.17 74.7901 139.17 74.7901L135.19 83.2301C132.46 82.4101 129.55 75.2601 129.55 75.2601L121.98 81.8401L119.64 79.2501C119.64 79.2501 120.35 74.3901 120.97 74.3901C120.97 74.3901 128.84 68.0201 127.99 60.3001" stroke="#13110C" stroke-miterlimit="10"/>
<path d="M124.15 84.23H147.9V93.68L133.34 94.4L124.15 84.23Z" fill="#211C4B"/>
<path d="M136.96 98.4102H147.9" stroke="#E31013" stroke-width="2" stroke-miterlimit="10"/>
<path d="M133.04 95.4902H147.65" stroke="#FFEA24" stroke-width="4" stroke-miterlimit="10"/>
<path d="M140.11 44.0298H128.02V50.4798H140.11V44.0298Z" fill="#211C4B"/>
<path d="M113.66 52.4799C113.66 52.4799 117.84 66.9099 119.76 67.6599C119.76 67.6599 124.58 79.7399 115.13 82.3299H95.8299C95.8299 82.3299 92.9699 93.3299 82.8699 84.0799C82.8699 84.0799 79.9899 80.8699 80.3399 79.4299L78.0399 79.5199C78.0399 79.5199 73.5999 87.8999 66.5999 87.7799C66.5999 87.7799 57.4299 86.8399 62.5999 79.5799C62.5999 79.5799 66.0999 78.0799 62.6799 76.0799C62.6799 76.0799 60.7299 71.5199 65.5999 71.7599C65.5999 71.7599 68.5999 74.0999 67.7699 68.2099C67.7699 68.2099 69.2699 62.9099 66.4399 62.6599C66.4399 62.6599 64.9299 59.5699 67.0999 59.3199C67.0999 59.3199 68.2599 52.5599 69.9799 52.7699L69.7799 50.9499C69.7599 50.9599 100.23 47.2999 113.66 52.4799Z" fill="#AFA3C7" stroke="#13120D" stroke-width="0.5" stroke-miterlimit="10"/>
<path d="M49.8901 62.1499C50.1201 61.9499 50.3301 61.7299 50.5301 61.4899L57.2701 53.2799L60.9701 48.7799C62.8701 46.4599 62.5401 43.0399 60.2201 41.1399L59.8101 40.7999C57.4901 38.8999 54.0701 39.2299 52.1701 41.5499L49.9501 44.2499L47.7801 41.5699C45.8901 39.2399 42.4701 38.8799 40.1401 40.7699L39.7301 41.0999C37.4001 42.9899 37.0401 46.4099 38.9301 48.7399L49.2901 61.5199C49.4701 61.7599 49.6701 61.9699 49.8901 62.1499Z" fill="#E30B13"/>
<path d="M16.6 49.3999C16.78 49.2499 16.94 49.0799 17.1 48.8899L22.34 42.4999L25.22 38.9999C26.7 37.1999 26.44 34.5399 24.64 33.0499L24.32 32.7899C22.52 31.3099 19.86 31.5699 18.37 33.3799L16.64 35.4799L14.95 33.3999C13.48 31.5899 10.82 31.3099 9.01003 32.7799L8.69003 33.0399C6.88003 34.4999 6.60003 37.1599 8.07003 38.9699L16.13 48.9099C16.28 49.0899 16.43 49.2499 16.6 49.3999Z" fill="#E30B13"/>
<path d="M124.51 32.3301H57.8601C57.8601 32.3301 65.1201 40.5701 68.8301 48.7101C69.2801 49.7001 69.6801 50.6901 70.0101 51.6701C70.0101 51.6701 95.3801 47.3501 113.66 52.4901C113.66 52.4801 121.41 33.8701 124.51 32.3301Z" fill="#FFEA24" stroke="#13110C" stroke-miterlimit="10"/>
<path d="M114.49 50.5301C94.1801 43.1901 69.0801 49.2701 69.0801 49.2701L70.0101 51.6701C70.0101 51.6701 93.1801 47.2601 113.66 52.4901L114.49 50.5301Z" fill="#13110C" stroke="#13110C" stroke-miterlimit="10"/>
<path d="M114.72 49.9998C114.72 49.9998 96.9301 42.3198 68.8301 48.7098L67.0901 45.2998C67.0901 45.2998 94.5401 39.4698 116.3 46.4698" fill="#E31013"/>
<path d="M114.72 49.9998C114.72 49.9998 96.9301 42.3198 68.8301 48.7098L67.0901 45.2998C67.0901 45.2998 94.5401 39.4698 116.3 46.4698" stroke="#13110C" stroke-miterlimit="10"/>
<path d="M83.5901 36.9199C84.1589 36.9199 84.6201 36.4587 84.6201 35.8899C84.6201 35.321 84.1589 34.8599 83.5901 34.8599C83.0212 34.8599 82.5601 35.321 82.5601 35.8899C82.5601 36.4587 83.0212 36.9199 83.5901 36.9199Z" fill="#211C4B"/>
<path d="M103.77 36.4001C103.77 36.9701 103.31 37.4301 102.74 37.4301C102.17 37.4301 101.71 36.9701 101.71 36.4001C101.71 35.8301 102.17 35.3701 102.74 35.3701C103.31 35.3801 103.77 35.8301 103.77 36.4001Z" fill="#211C4B"/>
<path d="M93.74 39.66C93.74 40.38 93.3 40.96 92.76 40.96C92.22 40.96 91.78 40.38 91.78 39.66C91.78 38.94 92.22 38.36 92.76 38.36C93.3 38.35 93.74 38.94 93.74 39.66Z" fill="#211C4B"/>
<path d="M75.1999 40.63C75.5399 41.31 75.4699 42.04 75.0299 42.26C74.5899 42.48 73.9599 42.11 73.6099 41.44C73.2699 40.76 73.3399 40.03 73.7799 39.81C74.2199 39.58 74.8599 39.95 75.1999 40.63Z" fill="#211C4B"/>
<path d="M112.41 41.6001C112.07 42.1701 111.5 42.4601 111.12 42.2401C110.74 42.0201 110.71 41.3801 111.05 40.8001C111.39 40.2301 111.96 39.9401 112.34 40.1601C112.71 40.3801 112.75 41.0301 112.41 41.6001Z" fill="#211C4B"/>
<path d="M66.73 42.4102C66.73 42.4102 69.72 41.1902 72.56 41.2102" stroke="#211C4B" stroke-miterlimit="10"/>
<path d="M66.1699 41.2901C66.1699 41.2901 69.1599 40.0701 71.9999 40.0901" stroke="#211C4B" stroke-miterlimit="10"/>
<path d="M76.46 40.69C76.46 40.69 84.96 39.11 90.1 40.69" stroke="#211C4B" stroke-miterlimit="10"/>
<path d="M76.46 39.0499C76.46 39.0499 84.96 37.4699 90.1 39.0499" stroke="#211C4B" stroke-miterlimit="10"/>
<path d="M94.97 40.96C94.97 40.96 104.57 39.22 109.16 41.8" stroke="#211C4B" stroke-miterlimit="10"/>
<path d="M94.97 39.5201C94.97 39.5201 104.57 37.7801 109.16 40.3601" stroke="#211C4B" stroke-miterlimit="10"/>
<path d="M113.61 42.41C113.61 42.41 115.73 42.2 116.63 43.5" stroke="#211C4B" stroke-miterlimit="10"/>
<path d="M114.2 41.2698C114.2 41.2698 116.32 41.0598 117.22 42.3598" stroke="#211C4B" stroke-miterlimit="10"/>
<path d="M69.0801 36.9199L73.8601 38.9499L78.1101 34.8599" stroke="#231E48" stroke-miterlimit="10"/>
<path d="M73.3999 34.8599L73.8599 38.9499" stroke="#231E48" stroke-miterlimit="10"/>
<path d="M88.3401 34.6701L92.7401 37.4301L97.5801 34.0601" stroke="#231E48" stroke-miterlimit="10"/>
<path d="M92.93 33.3198L92.74 37.4298" stroke="#231E48" stroke-miterlimit="10"/>
<path d="M108.48 35.6699L112.52 38.9299L117.72 36.1599" stroke="#231E48" stroke-miterlimit="10"/>
<path d="M113.19 34.8701L112.52 38.9301" stroke="#231E48" stroke-miterlimit="10"/>
<path d="M94.3999 49.9998V59.3298C94.2099 61.7098 95.5899 63.8298 95.5899 63.8298C96.9699 67.3298 91.7899 70.4498 91.7899 70.4498C84.9899 80.1998 78.7199 79.5698 78.7199 79.5698C75.0999 79.6898 70.9699 73.1898 70.9699 73.1898C69.0299 70.8798 70.0199 51.6498 70.0199 51.6498C70.0199 51.6498 82.1499 49.4898 94.3999 49.9998Z" fill="#FED68A" stroke="#13110C" stroke-miterlimit="10"/>
<path d="M71.0901 53.5801H77.4701V63.7001C77.4701 63.7001 73.6601 68.4501 76.7201 68.4501C76.7201 68.4501 83.6201 69.8901 82.8001 65.6401" stroke="#13110C" stroke-miterlimit="10"/>
<path d="M73.3999 70.52C73.3999 70.52 76.7799 66.27 85.5899 69.33" stroke="#13110C" stroke-miterlimit="10"/>
<path d="M75.4199 72.3301H84.2099" stroke="#13110C" stroke-miterlimit="10"/>
<path d="M77.71 74.4502C77.71 74.4502 79.4 77.2602 81.46 74.4502" stroke="#13110C" stroke-miterlimit="10"/>
<path d="M78.03 71.77H81.46" stroke="#13110C" stroke-miterlimit="10"/>
<path d="M78.03 72.8301H81.46" stroke="#13110C" stroke-miterlimit="10"/>
<path d="M81.46 53.58C81.46 53.58 87.93 51.02 92.76 55.08" stroke="#13110C" stroke-miterlimit="10"/>
<path d="M90.7801 59.0202C85.2801 54.3302 80.8401 58.0802 80.8401 58.0802C80.8401 58.0802 85.2901 61.6402 90.7801 59.0202Z" stroke="#13110C" stroke-miterlimit="10"/>
<path d="M81.46 59.3301C81.46 59.3301 83.58 63.0201 86.71 62.6401" stroke="#13110C" stroke-miterlimit="10"/>
<path d="M76.2101 59.9798C71.7101 61.1898 70.5901 58.7798 70.5901 58.7798C70.5901 58.7798 73.4601 56.8698 76.4601 58.3098C76.4601 58.3198 77.0901 59.7498 76.2101 59.9798Z" stroke="#13110C" stroke-miterlimit="10"/>
<path d="M70.5901 60.3198C70.5901 60.3198 70.7901 63.4498 74.4101 63.4498" stroke="#13110C" stroke-miterlimit="10"/>
<path d="M74.19 59.2102C74.5656 59.2102 74.87 59.143 74.87 59.0602C74.87 58.9773 74.5656 58.9102 74.19 58.9102C73.8145 58.9102 73.51 58.9773 73.51 59.0602C73.51 59.143 73.8145 59.2102 74.19 59.2102Z" stroke="#13110C" stroke-miterlimit="10"/>
<path d="M85.5901 58.5898C86.2694 58.5898 86.8201 58.4689 86.8201 58.3198C86.8201 58.1707 86.2694 58.0498 85.5901 58.0498C84.9108 58.0498 84.3601 58.1707 84.3601 58.3198C84.3601 58.4689 84.9108 58.5898 85.5901 58.5898Z" stroke="#13110C" stroke-miterlimit="10"/>
<path d="M95.82 50.9199C95.82 50.9199 95.15 60.3399 97.58 63.9999C100.01 67.6699 100.09 74.4099 99.84 75.6999" stroke="#13110C" stroke-width="0.5" stroke-miterlimit="10"/>
<path d="M94.4101 85.29L93.7401 83.41C93.4901 81 92.5501 83.16 92.5501 83.16C89.5101 85.58 90.1101 80.33 90.1101 80.33C95.5401 76.25 94.9801 83.5 94.9801 83.5L94.4101 85.29Z" stroke="#13110C" stroke-width="0.5" stroke-miterlimit="10"/>
<path d="M92.52 82.1899C92.52 82.1899 90.12 82.7499 92.52 80.1699" stroke="#13110C" stroke-width="0.5" stroke-miterlimit="10"/>
<path d="M95.82 82.3302C95.82 82.3302 93.98 76.6602 97.58 75.7002C97.58 75.7002 102.86 75.8302 99.94 80.5002C99.94 80.5002 96.09 81.8402 97.84 79.0202C97.84 79.0202 97.71 75.6802 96.34 79.5902L95.82 82.3302Z" stroke="#13110C" stroke-width="0.5" stroke-miterlimit="10"/>
<path d="M98.0901 76.75C98.0901 76.75 100.12 77.45 98.9301 79.09" stroke="#13110C" stroke-width="0.5" stroke-miterlimit="10"/>
<path d="M81.46 80.1699C81.46 80.1699 87.53 88.5899 92.52 85.6699" stroke="#13110C" stroke-width="0.5" stroke-miterlimit="10"/>
<path d="M82.8601 79.5898C82.8601 79.5898 87.6701 85.5198 90.7801 84.6698" stroke="#13110C" stroke-width="0.5" stroke-miterlimit="10"/>
<path d="M84.9199 79.02C84.9199 79.02 86.3899 82.52 88.9999 82.33" stroke="#13110C" stroke-width="0.5" stroke-miterlimit="10"/>
<path d="M86.71 77.9199C86.71 77.9199 87.9 79.9999 89 80.1699" stroke="#13110C" stroke-width="0.5" stroke-miterlimit="10"/>
<path d="M87.8601 76.75L90.1001 78.58" stroke="#13110C" stroke-width="0.5" stroke-miterlimit="10"/>
<path d="M89.01 75.3301C89.01 75.3301 92.06 76.5901 92.84 77.9101" stroke="#13110C" stroke-width="0.5" stroke-miterlimit="10"/>
<path d="M91.1799 73.3301C91.1799 73.3301 93.8399 75.4101 94.3399 76.7501" stroke="#13110C" stroke-width="0.5" stroke-miterlimit="10"/>
<path d="M93.4199 71.77C93.4199 71.77 95.0199 73.94 95.8199 75.05" stroke="#13110C" stroke-width="0.5" stroke-miterlimit="10"/>
<path d="M94.99 69.3701C94.99 69.3701 97.49 72.5001 97.58 73.8301" stroke="#13110C" stroke-width="0.5" stroke-miterlimit="10"/>
<path d="M96.76 68.2202C96.76 68.2202 99.3 72.1602 98.7 74.4502" stroke="#13110C" stroke-width="0.5" stroke-miterlimit="10"/>
<path d="M97.8399 51.25C97.8399 51.25 96.5999 61.17 99.2999 64.17C99.2999 64.17 102.62 70.41 102.07 81.21" stroke="#13110C" stroke-width="0.5" stroke-miterlimit="10"/>
<path d="M99.71 51.25C99.71 51.25 98.47 61.17 101.17 64.17C101.17 64.17 104.49 70.41 103.94 81.21" stroke="#13110C" stroke-width="0.5" stroke-miterlimit="10"/>
<path d="M101.66 51.25C101.66 51.25 100.42 61.17 103.12 64.17C103.12 64.17 106.44 70.41 105.89 81.21" stroke="#13110C" stroke-width="0.5" stroke-miterlimit="10"/>
<path d="M103.54 51.25C103.54 51.25 102.3 61.17 105 64.17C105 64.17 108.32 70.41 107.77 81.21" stroke="#13110C" stroke-width="0.5" stroke-miterlimit="10"/>
<path d="M105.13 51.25C105.13 51.25 103.89 61.17 106.59 64.17C106.59 64.17 109.91 70.41 109.36 81.21" stroke="#13110C" stroke-width="0.5" stroke-miterlimit="10"/>
<path d="M107 51.25C107 51.25 105.76 61.17 108.46 64.17C108.46 64.17 111.78 70.41 111.23 81.21" stroke="#13110C" stroke-width="0.5" stroke-miterlimit="10"/>
<path d="M108.95 51.25C108.95 51.25 107.71 61.17 110.41 64.17C110.41 64.17 113.73 70.41 113.18 81.21" stroke="#13110C" stroke-width="0.5" stroke-miterlimit="10"/>
<path d="M110.83 51.25C110.83 51.25 109.59 61.17 112.29 64.17C112.29 64.17 115.61 70.41 115.06 81.21" stroke="#13110C" stroke-width="0.5" stroke-miterlimit="10"/>
<path d="M112.52 53.25C112.52 53.25 111.89 60.66 114.2 63.45C116.51 66.25 117.41 78.73 117.22 80.16" stroke="#13110C" stroke-width="0.5" stroke-miterlimit="10"/>
<path d="M114.2 56.3301C114.2 56.3301 114.59 61.9101 116.3 64.1601C118.01 66.4101 118.76 77.4901 118.59 78.5801" stroke="#13110C" stroke-width="0.5" stroke-miterlimit="10"/>
<path d="M71.9899 76.25C71.9899 76.25 71.5299 83.67 69.6399 84.75C69.6399 84.75 62.1699 88.83 63.3399 81.58C63.3399 81.58 65.5799 80 66.1699 81.75C66.1699 81.75 63.7599 82.11 65.0899 83.22C65.0899 83.22 67.82 86.58 69.08 81.5C69.08 81.5 67.84 77.5 64.26 78.58" stroke="#13110C" stroke-width="0.5" stroke-miterlimit="10"/>
<path d="M73.4001 77.9199C73.4001 77.9199 72.2601 84.0899 71.0901 85.2999" stroke="#13110C" stroke-width="0.5" stroke-miterlimit="10"/>
<path d="M74.4099 79.0898C74.4099 79.0898 74.1199 83.4198 73.3999 83.9998" stroke="#13110C" stroke-width="0.5" stroke-miterlimit="10"/>
<path d="M64.76 73.8298C64.76 73.8298 64.5 76.4098 66.17 75.6998C66.17 75.6998 68.67 73.8198 65.76 72.3198" stroke="#13110C" stroke-width="0.5" stroke-miterlimit="10"/>
<path d="M64.74 77.9202C64.74 77.9202 69.25 77.5902 69.64 73.4102" stroke="#13110C" stroke-width="0.5" stroke-miterlimit="10"/>
<path d="M69.76 80.1702V75.7002" stroke="#13110C" stroke-width="0.5" stroke-miterlimit="10"/>
<path d="M68.2601 59.98C68.2601 59.98 66.3401 60.33 68.2601 61.5" stroke="#13110C" stroke-width="0.5" stroke-miterlimit="10"/>
<path d="M68.6699 65.8301C68.6699 65.8301 68.9999 72.1601 68.6699 72.8301" stroke="#13110C" stroke-width="0.5" stroke-miterlimit="10"/>
<path d="M63.4999 79.02C63.4999 79.02 55.6499 80.1 46.7399 84.23C40.6599 87.05 34.0299 91.25 29.1699 97.58" stroke="#13110C" stroke-miterlimit="10"/>
<path d="M124.51 41.2499C124.51 41.2499 124.13 35.4399 126.06 34.3799C127.99 33.3299 131.07 33.4599 132.08 35.3699C132.08 35.3699 132.78 40.5299 128.65 38.1599C128.65 38.1599 126.94 37.1799 128.12 44.7399C128.12 44.7399 130.84 54.9799 129.04 56.9999C129.04 56.9999 126.1 62.5299 123.42 58.8899C123.42 58.8899 121.41 54.0999 124.5 54.4999C124.5 54.4999 127.68 54.0199 125.7 50.4199C125.71 50.4199 122.01 46.4399 124.51 41.2499Z" fill="#FFEA24" stroke="#13110C" stroke-miterlimit="10"/>
<path d="M118.77 41.25H124.51" stroke="#211C4B" stroke-miterlimit="10"/>
<path d="M114.58 55.5L122.83 55.48" stroke="#211C4B" stroke-miterlimit="10"/>
<path d="M119.516 44.7374L116.628 48.0171L119.907 50.9052L122.796 47.6255L119.516 44.7374Z" stroke="#231D49" stroke-miterlimit="10"/>
<path d="M114.58 51.25H126.1" stroke="#231E48" stroke-miterlimit="10"/>
<path d="M144.54 46.17C143.99 42.99 140.61 43.02 140.61 43.02V50.4C140.61 50.4 143.94 51.18 144.54 47.83V46.17Z" fill="#FFEA24" stroke="#13110C" stroke-miterlimit="10"/>
<path d="M130.21 42.4598C130.21 43.3498 129.88 44.0798 129.46 44.0798C129.05 44.0798 128.71 43.3598 128.71 42.4598C128.71 41.5698 129.04 40.8398 129.46 40.8398C129.88 40.8498 130.21 41.5698 130.21 42.4598Z" fill="white" stroke="#13110C" stroke-miterlimit="10"/>
<path d="M132.9 44.0301C132.9 45.7901 132.42 47.2101 131.83 47.2101C131.24 47.2101 130.76 45.7801 130.76 44.0301C130.76 42.2701 131.24 40.8501 131.83 40.8501C132.42 40.8501 132.9 42.2701 132.9 44.0301Z" fill="white" stroke="#13110C" stroke-miterlimit="10"/>
<path d="M135.59 44.9801C135.59 47.2601 135.05 49.1101 134.4 49.1101C133.74 49.1101 133.21 47.2601 133.21 44.9801C133.21 42.7001 133.75 40.8501 134.4 40.8501C135.05 40.8501 135.59 42.7001 135.59 44.9801Z" fill="white" stroke="#13110C" stroke-miterlimit="10"/>
<path d="M138.08 45.0098C138.08 47.0798 137.68 48.7598 137.18 48.7598C136.69 48.7598 136.28 47.0798 136.28 45.0098C136.28 42.9398 136.68 41.2598 137.18 41.2598C137.67 41.2498 138.08 42.9298 138.08 45.0098Z" fill="white" stroke="#13110C" stroke-miterlimit="10"/>
<path d="M140.12 45.2798C140.12 47.1998 139.76 48.7598 139.32 48.7598C138.88 48.7598 138.52 47.1998 138.52 45.2798C138.52 43.3598 138.88 41.7998 139.32 41.7998C139.76 41.7998 140.12 43.3598 140.12 45.2798Z" fill="white" stroke="#13110C" stroke-miterlimit="10"/>
<path d="M127.73 58.8402L127.92 60.0602L138.52 59.8502V56.9702" stroke="#13110C" stroke-miterlimit="10"/>
<path d="M136.28 57.9602C136.28 57.9602 139.42 58.0902 139.86 50.9102" stroke="#13110C" stroke-miterlimit="10"/>
<path d="M131.01 57.96C131.01 57.96 134.34 55.67 134.39 52.98" stroke="#13110C" stroke-miterlimit="10"/>
<path d="M128.79 61.9702H138.26" stroke="#13110C" stroke-miterlimit="10"/>
<path d="M135.64 67.2501C135.64 68.6001 135.06 69.6901 134.33 69.6901C133.61 69.6901 133.03 68.6001 133.03 67.2501C133.03 65.9001 133.61 64.8101 134.33 64.8101C135.05 64.8101 135.64 65.9001 135.64 67.2501Z" fill="#211C4B"/>
<path d="M138.29 99.8799H147.9V110.52" fill="#13110C"/>
<path d="M138.29 99.8799H147.9V110.52" stroke="#13110C" stroke-miterlimit="10"/>
<path d="M121.99 81.8302L147.91 110.51V127.85H145.53V111.76L118.18 80.8402C118.18 80.8502 119.7 77.5402 121.99 81.8302Z" fill="#FFEA24" stroke="#13110C" stroke-miterlimit="10"/>
<path d="M122.09 79.2401L130.21 71.0801L134.33 80.1701L139.32 71.0801L147.9 80.1701" stroke="#13110C" stroke-miterlimit="10"/>
<path d="M121.64 76.75L130.76 66.71L134.39 75.62L138.52 67.02L143.83 72.53L147.9 76.75" stroke="#13110C" stroke-miterlimit="10"/>
<path d="M127.88 63.54H139.55" stroke="#13110C" stroke-miterlimit="10"/>
<path d="M124.79 81.0701L129.15 77.5801C129.15 77.5801 129.85 80.8601 131.48 81.2101" stroke="white" stroke-miterlimit="10"/>
<path d="M137.75 81.4002C137.75 81.4002 139.35 80.2402 139.84 78.9702C139.84 78.9702 141.63 81.2602 143.76 81.4002" stroke="white" stroke-miterlimit="10"/>
<path d="M48.5699 86.7902C40.6499 88.3002 29.1799 99.8802 29.1799 99.8802V98.4002C34.5999 89.5202 46.7499 84.2202 46.7499 84.2202L48.5699 86.7902Z" fill="#FFEA24" stroke="#13110C" stroke-miterlimit="10"/>
<path d="M63.5 106.01C62.48 97.4998 46.74 84.2299 46.74 84.2299C46.74 84.2299 55.92 80.3598 62.03 79.0898C62.03 79.0898 70.27 91.2898 75.42 106.82C75.42 106.82 71.1 104.78 63.5 106.15" fill="white"/>
<path d="M63.5 106.01C62.48 97.4998 46.74 84.2299 46.74 84.2299C46.74 84.2299 55.92 80.3598 62.03 79.0898C62.03 79.0898 70.27 91.2898 75.42 106.82C75.42 106.82 71.1 104.78 63.5 106.15" stroke="#13110C" stroke-miterlimit="10"/>
<path d="M29.1799 100.77V107.88C29.1799 107.88 48.5199 90.7101 53.3799 90.5001L49.0499 86.2901C49.0499 86.2801 37.3899 90.4001 29.1799 100.77Z" fill="#13110C"/>
<path d="M30.8601 100.77C30.8601 100.77 35.8701 104.79 33.5401 98.4101C33.5401 98.4101 39.4801 102.57 36.6901 95.5001C36.6901 95.5001 42.8601 99.6101 40.4201 93.0901C40.4201 93.0901 45.6601 96.5801 44.1501 90.9901C44.1501 90.9901 49.6301 93.6601 47.4101 88.3101" stroke="white" stroke-miterlimit="10"/>
<path d="M29.1799 111.25C40.3099 98.1999 54.2799 91.4399 54.2799 91.4399L57.8399 95.4899L49.1499 101L46.3399 99.3699L46.7399 107.87C40.8399 110.32 38.8699 113.58 38.8699 113.58L29.1699 122.2V111.25H29.1799Z" fill="#211C4B" stroke="#13110C" stroke-miterlimit="10"/>
<path d="M49.1501 101L46.3401 99.3701L46.7401 107.87C46.7401 107.87 42.6901 109.27 38.8701 113.58C38.8701 113.58 43.0501 117.66 46.7401 118.82L45.4201 126.51C45.4201 126.51 54.1601 122.67 56.8401 119.4V106C56.8401 106.01 54.3901 103.06 49.1501 101Z" fill="#FFEA24" stroke="#13110C" stroke-miterlimit="10"/>
<path d="M47.93 102.01L50.2 107.87L42.98 112.94L48.57 117.31L47.86 123.83" stroke="#13110C" stroke-miterlimit="10"/>
<path d="M50.8999 103.1L53.3799 109.5L47.1699 112.94L52.7599 116.84L50.1999 122.2" stroke="#13110C" stroke-miterlimit="10"/>
<path d="M55.1201 106.01V118.7" stroke="#13110C" stroke-miterlimit="10"/>
<path d="M71.9901 118.01C71.0501 118.22 70.0601 118.36 69.0601 118.46C63.2201 119.03 56.8401 118.01 56.8401 118.01V107.88C56.8401 107.88 62.1101 105.2 72.0001 106.02C72.0001 106.02 76.9701 106.37 78.0301 108.58C78.0301 108.58 80.2101 109.33 79.5901 110.53L78.8501 111.38C78.8501 111.38 81.7601 112.78 78.6201 114.06C78.6201 114.06 80.4501 115.69 76.9701 116.39C76.9801 116.38 74.3701 118.01 71.9901 118.01Z" fill="#FED68A" stroke="#13110C" stroke-miterlimit="10"/>
<path d="M78.03 108.57H68.46" stroke="#13110C" stroke-miterlimit="10"/>
<path d="M78.8501 111.37H68.8201" stroke="#13110C" stroke-miterlimit="10"/>
<path d="M78.6201 114.04H68.8201" stroke="#13110C" stroke-miterlimit="10"/>
<path d="M56.1899 89.8901C51.0899 87.2201 52.3999 84.1801 52.3999 84.1801C52.3999 84.1801 55.3899 83.8201 55.3499 86.8801C55.3499 86.8701 55.3099 89.3001 56.1899 89.8901Z" fill="#211C4B"/>
<path d="M60.83 88.7602C55.73 86.0902 57.04 83.0502 57.04 83.0502C57.04 83.0502 60.03 82.6902 59.99 85.7502C59.99 85.7402 59.95 88.1702 60.83 88.7602Z" fill="#211C4B"/>
<path d="M64 96.0302C58.9 93.3602 60.21 90.3202 60.21 90.3202C60.21 90.3202 63.2 89.9602 63.16 93.0202C63.17 93.0102 63.13 95.4402 64 96.0302Z" fill="#211C4B"/>
<path d="M71.6101 102.23C66.5101 99.5599 67.8201 96.5199 67.8201 96.5199C67.8201 96.5199 70.8101 96.1599 70.7701 99.2199C70.7801 99.2199 70.7401 101.65 71.6101 102.23Z" fill="#211C4B"/>
<path d="M66.7099 104.13C61.6099 101.46 62.9199 98.4198 62.9199 98.4198C62.9199 98.4198 65.9099 98.0598 65.8699 101.12C65.8799 101.12 65.8399 103.55 66.7099 104.13Z" fill="#211C4B"/>
<path d="M69.3799 118.42C70.2599 121.22 70.4399 127.85 70.4399 127.85H80.9799C80.9799 127.85 79.6299 117 78.0299 116.08C78.0299 116.08 74.1399 117.84 69.3799 118.42Z" fill="white" stroke="#13110C" stroke-miterlimit="10"/>
<path d="M73.7699 118.55C76.8699 123.4 74.2199 125.39 74.2199 125.39C74.2199 125.39 71.4399 124.22 72.9999 121.58C72.9999 121.58 74.2399 119.49 73.7699 118.55Z" fill="#211C4B"/>
<path d="M29.8899 121.57H46.2699" stroke="#13110C" stroke-miterlimit="10"/>
<path d="M67.1399 87.7801C67.1399 87.7801 73.2599 87.8601 77.9699 79.6401H80.3099C80.3099 79.6401 81.1399 83.9001 87.1099 87.0701L84.9199 89.8901C84.9199 89.8901 81.1999 87.6701 79.8099 84.7501H78.0199C78.0199 84.7501 73.2299 90.6801 68.7399 90.8801L67.1399 87.7801Z" fill="#13110C" stroke="#13110C" stroke-miterlimit="10"/>
<path d="M70.0801 93.6198L78.8501 88.7598L82.3401 92.0498" stroke="white" stroke-width="2" stroke-miterlimit="10"/>
<path d="M82.79 98.4098L82.86 102.75H86.71L88.54 96.0298L82.79 98.4098Z" fill="#211C4B"/>
<path d="M88.5801 91.6901L88.6501 96.0301H92.5001L94.3301 89.3101L88.5801 91.6901Z" fill="#211C4B"/>
<path d="M75.4199 103.74C75.4199 103.74 86.2599 92.35 89.0099 88.75" stroke="#13110C" stroke-miterlimit="10"/>
<path d="M80.98 113.58L94.62 97.5801" stroke="#13110C" stroke-miterlimit="10"/>
<path d="M78.03 101.27L80.98 102.23L80.21 98.6401" stroke="#13110C" stroke-miterlimit="10"/>
<path d="M84.86 109.04L84.21 104.75L87.57 105.85" stroke="#13110C" stroke-miterlimit="10"/>
<path d="M83.8899 94.6399L86.9599 95.1599L85.8899 92.4199" stroke="#13110C" stroke-miterlimit="10"/>
<path d="M90.9201 101.92L89.3401 97.5801L93.1001 99.3701" stroke="#13110C" stroke-miterlimit="10"/>
<path d="M51.6599 127.85C51.6599 127.85 54.3399 122.08 60.3399 119.58V120.83C60.3399 120.83 55.2299 124.2 53.8299 127.97L51.6599 127.85Z" fill="#FFEA24"/>
<path d="M61.6499 127.56C61.6499 127.56 64.7199 120.83 68.5799 118.88C68.5799 118.88 69.8699 118.35 69.8699 120.92C69.8699 120.92 66.7499 123.16 64.6299 127.48L61.6499 127.56Z" fill="#FFEA24" stroke="#13110C" stroke-miterlimit="10"/>
<path d="M95.98 122.77V120.2H81.98V118.62L95.98 104.12V99.2598L79.24 118.54C79.24 118.54 80.1 122.25 80.2 122.77C80.28 123.29 95.98 122.77 95.98 122.77Z" fill="#13110C" stroke="#13110C" stroke-miterlimit="10"/>
<path d="M95.9799 125.83H80.6999L80.1899 122.77H95.9799V125.83Z" fill="#FFEA24" stroke="#13110C" stroke-miterlimit="10"/>
<path d="M99.27 110.23C97 104.94 99.94 103.41 99.94 103.41C99.94 103.41 102.49 105.02 100.53 107.37C100.53 107.36 98.96 109.22 99.27 110.23Z" fill="#211C4B"/>
<path d="M103.1 100.49C100.83 95.1999 103.77 93.6699 103.77 93.6699C103.77 93.6699 106.32 95.2799 104.36 97.6299C104.35 97.6199 102.79 99.4799 103.1 100.49Z" fill="#211C4B"/>
<path d="M103.87 129.92C101.6 124.63 104.54 123.1 104.54 123.1C104.54 123.1 107.09 124.71 105.13 127.06C105.12 127.05 103.56 128.92 103.87 129.92Z" fill="#211C4B"/>
<path d="M107.13 127.56C120.05 113.17 110.09 95.4902 110.09 95.4902C110.09 95.4902 105.66 111.19 107.13 127.56Z" fill="#211C4B" stroke="#13110C" stroke-miterlimit="10"/>
<path d="M108.26 104.13L112.43 107.87C112.43 107.87 108.82 112.04 110.95 117.99L106.91 124.3C106.92 124.3 106.76 111.6 108.26 104.13Z" fill="#FFEA24" stroke="#13110C" stroke-miterlimit="10"/>
<path d="M111.94 108.57H107.62" stroke="#13110C" stroke-miterlimit="10"/>
<path d="M110.96 118H107" stroke="#13110C" stroke-miterlimit="10"/>
<path d="M111.08 92.7202C111.08 92.7202 123.39 109.62 109.68 127.85H111.94C111.94 127.85 126.54 113.63 111.94 90.6602L111.08 92.7202Z" fill="white" stroke="#13110C" stroke-miterlimit="10"/>
<path d="M113.25 87.9902C113.25 87.9902 128.47 106.12 115.84 127.85H112.44C112.44 127.85 126.09 111.22 111.94 90.6602L113.25 87.9902Z" fill="#FFEA24" stroke="#13110C" stroke-miterlimit="10"/>
<path d="M117.24 82.3399C117.24 82.3399 134.27 103.25 123.24 127.85H125.42C125.42 127.85 138.37 109.97 118.66 81.3999L117.24 82.3399Z" fill="#FFEA24" stroke="#13110C" stroke-miterlimit="10"/>
<path d="M134.05 98.79L135.91 100.9V127.85H134.05V98.79Z" fill="#FFEA24" stroke="#13110C" stroke-miterlimit="10"/>
<path d="M119.92 82.8101L134.05 98.7901V102L125.44 93.4201C125.44 93.4301 121.97 83.7001 119.92 82.8101Z" fill="#13110C" stroke="#13110C" stroke-miterlimit="10"/>
<path d="M125.83 127.85L134.05 123.01V127.85H125.83Z" fill="#13110C" stroke="#13110C" stroke-miterlimit="10"/>
<path d="M89.1199 127.63H41.7499L42.0299 152.39L60.4199 173.15L112.92 170.74L147.9 141.44V127.85L89.1199 127.63H32.1399H89.1199Z" fill="#E31013"/>
<path d="M89.1199 127.63H41.7499L42.0299 152.39L60.4199 173.15L112.92 170.74L147.9 141.44V127.85L89.1199 127.63ZM89.1199 127.63H32.1399" stroke="#13110C" stroke-miterlimit="10"/>
<path d="M54.83 163.54L57.75 158.41L51.95 155.05" fill="#13110C"/>
<path d="M54.83 163.54L57.75 158.41L51.95 155.05" stroke="white" stroke-miterlimit="10"/>
<path d="M51.46 152.74L55.57 146.92L50.79 142.17" fill="#13110C"/>
<path d="M51.46 152.74L55.57 146.92L50.79 142.17" stroke="white" stroke-miterlimit="10"/>
<path d="M51.0601 139.41L56.0301 136.86L53.5401 129.74" fill="#13110C"/>
<path d="M51.0601 139.41L56.0301 136.86L53.5401 129.74" stroke="white" stroke-miterlimit="10"/>
<path d="M53.8501 128.98L59.4901 127.63" stroke="white" stroke-miterlimit="10"/>
<path d="M60.4201 173.15L61.9101 166.17L55.5701 165.14" fill="#13110C"/>
<path d="M60.4201 173.15L61.9101 166.17L55.5701 165.14" stroke="white" stroke-miterlimit="10"/>
<path d="M32.1399 144.24L41.7499 154.59V127.63H32.1399V144.24Z" fill="#211C4B" stroke="#13110C" stroke-miterlimit="10"/>
<path d="M37.6299 127.93L33.8899 130.1L40.6999 137.49L34.5599 144.12L41.7499 152.08" stroke="white" stroke-width="2" stroke-miterlimit="10"/>
<path d="M80.9099 127.63C80.9099 127.63 83.0799 153.41 79.5799 173.24L60.4299 173.14C60.4299 173.14 73.0799 161.69 70.5399 127.63H80.9099Z" fill="white" stroke="#13110C" stroke-miterlimit="10"/>
<path d="M76.6601 162.76C78.9301 168.05 75.9901 169.58 75.9901 169.58C75.9901 169.58 73.4401 167.97 75.4001 165.62C75.4001 165.63 76.9701 163.77 76.6601 162.76Z" fill="#211C4B"/>
<path d="M68.81 162.76C71.08 168.05 68.14 169.58 68.14 169.58C68.14 169.58 65.59 167.97 67.55 165.62C67.56 165.63 69.12 163.77 68.81 162.76Z" fill="#211C4B"/>
<path d="M73.3901 144.54C75.6601 149.83 72.7201 151.36 72.7201 151.36C72.7201 151.36 70.1701 149.75 72.1301 147.4C72.1301 147.4 73.7001 145.54 73.3901 144.54Z" fill="#211C4B"/>
<path d="M76.11 136C78.38 141.29 75.4401 142.82 75.4401 142.82C75.4401 142.82 72.89 141.21 74.85 138.86C74.85 138.86 76.42 137 76.11 136Z" fill="#211C4B"/>
<path d="M78.08 126.25C80.35 131.54 77.41 133.07 77.41 133.07C77.41 133.07 74.86 131.46 76.82 129.11C76.83 129.11 78.39 127.25 78.08 126.25Z" fill="#211C4B"/>
<path d="M107.8 134.57C110.42 133.18 113.19 127.63 113.19 127.63L110.98 127.51C110.98 127.51 109.15 131.26 107.57 132.93L107.8 134.57Z" fill="white" stroke="#13110C" stroke-width="0.5" stroke-miterlimit="10"/>
<path d="M134.69 127.51V133.92L125.07 134.32L124.29 137.49L117.32 137.08V127.51H134.69Z" fill="#13110C"/>
<path d="M90.5501 168.42C90.5501 168.42 98.3201 158.58 104.03 153.62C104.03 153.62 101.95 148.72 98.4301 136.94L81.3801 156.57C81.3801 156.57 79.6501 170.23 79.5801 172.45C79.5801 172.45 83.8801 177.47 90.5501 168.42Z" fill="#FFEA24" stroke="#13110C" stroke-miterlimit="10"/>
<path d="M100.46 150.46L100.39 146.12H96.53L94.71 152.84L100.46 150.46Z" fill="#211C4B"/>
<path d="M146.31 127.63L146.14 133.92H135.68V127.51L146.31 127.63Z" fill="#211C4B"/>
<path d="M137.05 133.49L145.23 128" stroke="white" stroke-width="2" stroke-miterlimit="10"/>
<path d="M135.66 133.92L135.7 127.63" stroke="#FFEA24" stroke-width="3" stroke-miterlimit="10"/>
<path d="M146.6 133.92L146.63 127.63" stroke="#FFEA24" stroke-width="3" stroke-miterlimit="10"/>
<path d="M147.78 146.45C147.78 146.45 130.48 163.45 123.84 164.52" stroke="#FFEA24" stroke-width="2" stroke-miterlimit="10"/>
<path d="M55.08 170.54H29.76V180.65H55.08V170.54Z" fill="#13110C"/>
<path d="M54.42 172.26H29.76" stroke="#E31013" stroke-width="2" stroke-miterlimit="10"/>
<path d="M39.14 195.42L49.66 195.35L39.14 195.34C39.14 195.34 37.06 185.22 29.76 180.69V172.96C34.44 173.98 38.49 180.69 38.49 180.69L42.47 172.25C45.2 173.07 48.11 180.22 48.11 180.22L55.68 173.64L58.02 176.23C58.02 176.23 57.31 181.09 56.69 181.09C56.69 181.09 48.82 187.46 49.67 195.18" fill="#FFEA24"/>
<path d="M39.14 195.42L49.66 195.35L39.14 195.34C39.14 195.34 37.06 185.22 29.76 180.69V172.96C34.44 173.98 38.49 180.69 38.49 180.69L42.47 172.25C45.2 173.07 48.11 180.22 48.11 180.22L55.68 173.64L58.02 176.23C58.02 176.23 57.31 181.09 56.69 181.09C56.69 181.09 48.82 187.46 49.67 195.18" stroke="#13110C" stroke-miterlimit="10"/>
<path d="M53.51 171.26H29.76V161.81L44.32 161.09L53.51 171.26Z" fill="#211C4B"/>
<path d="M40.7 157.08H29.76" stroke="#E31013" stroke-width="2" stroke-miterlimit="10"/>
<path d="M44.62 160H30.01" stroke="#FFEA24" stroke-width="4" stroke-miterlimit="10"/>
<path d="M49.64 205.01H37.55V211.46H49.64V205.01Z" fill="#211C4B"/>
<path d="M64 203C64 203 59.82 188.57 57.9 187.82C57.9 187.82 53.08 175.74 62.53 173.15H81.83C81.83 173.15 84.69 162.15 94.79 171.4C94.79 171.4 97.67 174.61 97.32 176.05L99.62 175.96C99.62 175.96 104.06 167.58 111.06 167.7C111.06 167.7 120.23 168.64 115.06 175.9C115.06 175.9 111.56 177.4 114.98 179.4C114.98 179.4 116.94 183.96 112.06 183.72C112.06 183.72 109.06 181.38 109.89 187.27C109.89 187.27 108.39 192.57 111.22 192.82C111.22 192.82 112.73 195.91 110.56 196.16C110.56 196.16 109.4 202.92 107.68 202.71L107.88 204.53C107.9 204.52 77.44 208.18 64 203Z" fill="#AFA3C7" stroke="#13120D" stroke-width="0.5" stroke-miterlimit="10"/>
<path d="M127.78 193.33C127.55 193.53 127.34 193.75 127.14 193.99L120.4 202.2L116.7 206.7C114.8 209.02 115.13 212.44 117.45 214.34L117.86 214.68C120.18 216.58 123.6 216.25 125.5 213.93L127.72 211.23L129.89 213.91C131.78 216.24 135.2 216.6 137.53 214.71L137.94 214.38C140.27 212.49 140.63 209.07 138.74 206.74L128.38 193.96C128.19 193.73 127.99 193.52 127.78 193.33Z" fill="#E30B13"/>
<path d="M161.07 206.09C160.89 206.24 160.73 206.41 160.57 206.6L155.33 212.99L152.45 216.49C150.97 218.29 151.23 220.95 153.03 222.44L153.35 222.7C155.15 224.18 157.81 223.92 159.3 222.12L161.03 220.02L162.72 222.1C164.19 223.91 166.85 224.19 168.66 222.72L168.98 222.46C170.79 220.99 171.07 218.33 169.6 216.52L161.54 206.58C161.39 206.4 161.23 206.23 161.07 206.09Z" fill="#E30B13"/>
<path d="M53.1499 223.16H119.8C119.8 223.16 112.54 214.92 108.83 206.78C108.38 205.79 107.98 204.8 107.65 203.82C107.65 203.82 82.2799 208.14 63.9999 203C63.9999 203 56.2499 221.61 53.1499 223.16Z" fill="#FFEA24" stroke="#13110C" stroke-miterlimit="10"/>
<path d="M63.1699 204.95C83.4799 212.29 108.58 206.21 108.58 206.21L107.65 203.81C107.65 203.81 84.4799 208.22 63.9999 202.99L63.1699 204.95Z" fill="#13110C" stroke="#13110C" stroke-miterlimit="10"/>
<path d="M62.9401 205.49C62.9401 205.49 80.7301 213.17 108.83 206.78L110.57 210.19C110.57 210.19 83.1201 216.02 61.3601 209.02" fill="#E31013"/>
<path d="M62.9401 205.49C62.9401 205.49 80.7301 213.17 108.83 206.78L110.57 210.19C110.57 210.19 83.1201 216.02 61.3601 209.02" stroke="#13110C" stroke-miterlimit="10"/>
<path d="M93.04 219.6C93.04 219.03 93.5 218.57 94.07 218.57C94.64 218.57 95.1 219.03 95.1 219.6C95.1 220.17 94.64 220.63 94.07 220.63C93.51 220.63 93.04 220.17 93.04 219.6Z" fill="#211C4B"/>
<path d="M73.8899 219.08C73.8899 218.51 74.3499 218.05 74.9199 218.05C75.4899 218.05 75.9499 218.51 75.9499 219.08C75.9499 219.65 75.4899 220.11 74.9199 220.11C74.3499 220.11 73.8899 219.65 73.8899 219.08Z" fill="#211C4B"/>
<path d="M83.9299 215.83C83.9299 215.11 84.3699 214.53 84.9099 214.53C85.4499 214.53 85.8899 215.11 85.8899 215.83C85.8899 216.55 85.4499 217.13 84.9099 217.13C84.3599 217.13 83.9299 216.55 83.9299 215.83Z" fill="#211C4B"/>
<path d="M102.46 214.86C102.12 214.18 102.19 213.45 102.63 213.23C103.07 213.01 103.7 213.38 104.05 214.05C104.39 214.73 104.32 215.46 103.88 215.68C103.44 215.9 102.81 215.54 102.46 214.86Z" fill="#211C4B"/>
<path d="M65.2501 213.89C65.5901 213.32 66.1601 213.03 66.5401 213.25C66.9201 213.47 66.9501 214.11 66.6101 214.69C66.2701 215.26 65.7001 215.55 65.3201 215.33C64.9501 215.1 64.9201 214.46 65.2501 213.89Z" fill="#211C4B"/>
<path d="M110.93 213.08C110.93 213.08 107.94 214.3 105.1 214.28" stroke="#211C4B" stroke-miterlimit="10"/>
<path d="M111.5 214.2C111.5 214.2 108.51 215.42 105.67 215.41" stroke="#211C4B" stroke-miterlimit="10"/>
<path d="M101.2 214.8C101.2 214.8 92.7001 216.38 87.5601 214.8" stroke="#211C4B" stroke-miterlimit="10"/>
<path d="M101.2 216.43C101.2 216.43 92.7001 218.01 87.5601 216.43" stroke="#211C4B" stroke-miterlimit="10"/>
<path d="M82.69 214.53C82.69 214.53 73.09 216.27 68.5 213.68" stroke="#211C4B" stroke-miterlimit="10"/>
<path d="M82.69 215.97C82.69 215.97 73.09 217.71 68.5 215.12" stroke="#211C4B" stroke-miterlimit="10"/>
<path d="M64.05 213.08C64.05 213.08 61.93 213.29 61.03 211.99" stroke="#211C4B" stroke-miterlimit="10"/>
<path d="M63.47 214.22C63.47 214.22 61.35 214.43 60.45 213.13" stroke="#211C4B" stroke-miterlimit="10"/>
<path d="M108.58 218.57L103.81 216.54L99.5601 220.63" stroke="#231E48" stroke-miterlimit="10"/>
<path d="M104.27 220.63L103.81 216.54" stroke="#231E48" stroke-miterlimit="10"/>
<path d="M89.3201 220.82L84.9301 218.06L80.0801 221.42" stroke="#231E48" stroke-miterlimit="10"/>
<path d="M84.74 222.17L84.93 218.06" stroke="#231E48" stroke-miterlimit="10"/>
<path d="M69.1899 219.82L65.1499 216.55L59.9399 219.32" stroke="#231E48" stroke-miterlimit="10"/>
<path d="M64.47 220.61L65.15 216.55" stroke="#231E48" stroke-miterlimit="10"/>
<path d="M83.26 205.49V196.16C83.45 193.78 82.07 191.66 82.07 191.66C80.69 188.16 85.87 185.04 85.87 185.04C92.67 175.29 98.94 175.92 98.94 175.92C102.56 175.8 106.69 182.3 106.69 182.3C108.63 184.61 107.64 203.84 107.64 203.84C107.64 203.84 95.51 206 83.26 205.49Z" fill="#FED68A" stroke="#13110C" stroke-miterlimit="10"/>
<path d="M106.57 201.91H100.19V191.79C100.19 191.79 104 187.04 100.94 187.04C100.94 187.04 94.0399 185.6 94.8599 189.85" stroke="#13110C" stroke-miterlimit="10"/>
<path d="M104.27 184.97C104.27 184.97 100.89 189.22 92.0801 186.16" stroke="#13110C" stroke-miterlimit="10"/>
<path d="M102.25 183.16H93.45" stroke="#13110C" stroke-miterlimit="10"/>
<path d="M99.95 181.03C99.95 181.03 98.26 178.22 96.2 181.03" stroke="#13110C" stroke-miterlimit="10"/>
<path d="M99.64 183.72H96.2" stroke="#13110C" stroke-miterlimit="10"/>
<path d="M99.64 182.66H96.2" stroke="#13110C" stroke-miterlimit="10"/>
<path d="M96.1999 201.91C96.1999 201.91 89.7299 204.47 84.8999 200.41" stroke="#13110C" stroke-miterlimit="10"/>
<path d="M86.8899 196.47C92.3899 201.16 96.8299 197.41 96.8299 197.41C96.8299 197.41 92.3699 193.85 86.8899 196.47Z" stroke="#13110C" stroke-miterlimit="10"/>
<path d="M96.2 196.16C96.2 196.16 94.08 192.47 90.95 192.85" stroke="#13110C" stroke-miterlimit="10"/>
<path d="M101.45 195.51C105.95 194.3 107.07 196.71 107.07 196.71C107.07 196.71 104.2 198.62 101.2 197.18C101.2 197.17 100.58 195.74 101.45 195.51Z" stroke="#13110C" stroke-miterlimit="10"/>
<path d="M107.07 195.17C107.07 195.17 106.87 192.04 103.25 192.04" stroke="#13110C" stroke-miterlimit="10"/>
<path d="M103.47 196.58C103.846 196.58 104.15 196.513 104.15 196.43C104.15 196.347 103.846 196.28 103.47 196.28C103.094 196.28 102.79 196.347 102.79 196.43C102.79 196.513 103.094 196.58 103.47 196.58Z" stroke="#13110C" stroke-miterlimit="10"/>
<path d="M92.0701 197.44C92.7494 197.44 93.3001 197.319 93.3001 197.17C93.3001 197.021 92.7494 196.9 92.0701 196.9C91.3908 196.9 90.8401 197.021 90.8401 197.17C90.8401 197.319 91.3908 197.44 92.0701 197.44Z" stroke="#13110C" stroke-miterlimit="10"/>
<path d="M81.84 204.57C81.84 204.57 82.51 195.15 80.08 191.49C77.65 187.82 77.57 181.08 77.82 179.79" stroke="#13110C" stroke-width="0.5" stroke-miterlimit="10"/>
<path d="M83.26 170.19L83.93 172.07C84.18 174.48 85.12 172.32 85.12 172.32C88.16 169.9 87.56 175.15 87.56 175.15C82.13 179.23 82.69 171.98 82.69 171.98L83.26 170.19Z" stroke="#13110C" stroke-width="0.5" stroke-miterlimit="10"/>
<path d="M85.1399 173.3C85.1399 173.3 87.5399 172.74 85.1399 175.32" stroke="#13110C" stroke-width="0.5" stroke-miterlimit="10"/>
<path d="M81.8401 173.15C81.8401 173.15 83.6801 178.82 80.0801 179.78C80.0801 179.78 74.8001 179.65 77.7201 174.98C77.7201 174.98 81.5701 173.64 79.8201 176.46C79.8201 176.46 79.9501 179.8 81.3201 175.89L81.8401 173.15Z" stroke="#13110C" stroke-width="0.5" stroke-miterlimit="10"/>
<path d="M79.58 178.74C79.58 178.74 77.55 178.04 78.74 176.4" stroke="#13110C" stroke-width="0.5" stroke-miterlimit="10"/>
<path d="M96.1999 175.32C96.1999 175.32 90.1299 166.9 85.1399 169.82" stroke="#13110C" stroke-width="0.5" stroke-miterlimit="10"/>
<path d="M94.7999 175.9C94.7999 175.9 89.9899 169.97 86.8799 170.82" stroke="#13110C" stroke-width="0.5" stroke-miterlimit="10"/>
<path d="M92.7399 176.47C92.7399 176.47 91.2699 172.97 88.6599 173.16" stroke="#13110C" stroke-width="0.5" stroke-miterlimit="10"/>
<path d="M90.9499 177.57C90.9499 177.57 89.7599 175.49 88.6599 175.32" stroke="#13110C" stroke-width="0.5" stroke-miterlimit="10"/>
<path d="M89.8001 178.74L87.5601 176.9" stroke="#13110C" stroke-width="0.5" stroke-miterlimit="10"/>
<path d="M88.6601 180.15C88.6601 180.15 85.6101 178.89 84.8301 177.57" stroke="#13110C" stroke-width="0.5" stroke-miterlimit="10"/>
<path d="M86.4801 182.15C86.4801 182.15 83.8201 180.07 83.3201 178.73" stroke="#13110C" stroke-width="0.5" stroke-miterlimit="10"/>
<path d="M84.2401 183.72C84.2401 183.72 82.6401 181.55 81.8401 180.44" stroke="#13110C" stroke-width="0.5" stroke-miterlimit="10"/>
<path d="M82.6801 186.12C82.6801 186.12 80.1801 182.99 80.0901 181.66" stroke="#13110C" stroke-width="0.5" stroke-miterlimit="10"/>
<path d="M80.9099 187.27C80.9099 187.27 78.3699 183.33 78.9699 181.04" stroke="#13110C" stroke-width="0.5" stroke-miterlimit="10"/>
<path d="M79.8301 204.24C79.8301 204.24 81.0701 194.32 78.3701 191.32C78.3701 191.32 75.0501 185.08 75.6001 174.28" stroke="#13110C" stroke-width="0.5" stroke-miterlimit="10"/>
<path d="M77.9499 204.24C77.9499 204.24 79.1899 194.32 76.4899 191.32C76.4899 191.32 73.1699 185.08 73.7199 174.28" stroke="#13110C" stroke-width="0.5" stroke-miterlimit="10"/>
<path d="M76 204.24C76 204.24 77.24 194.32 74.54 191.32C74.54 191.32 71.22 185.08 71.77 174.28" stroke="#13110C" stroke-width="0.5" stroke-miterlimit="10"/>
<path d="M74.1299 204.24C74.1299 204.24 75.3699 194.32 72.6699 191.32C72.6699 191.32 69.3499 185.08 69.8999 174.28" stroke="#13110C" stroke-width="0.5" stroke-miterlimit="10"/>
<path d="M72.54 204.24C72.54 204.24 73.78 194.32 71.08 191.32C71.08 191.32 67.76 185.08 68.31 174.28" stroke="#13110C" stroke-width="0.5" stroke-miterlimit="10"/>
<path d="M70.6599 204.24C70.6599 204.24 71.8999 194.32 69.1999 191.32C69.1999 191.32 65.8799 185.08 66.4299 174.28" stroke="#13110C" stroke-width="0.5" stroke-miterlimit="10"/>
<path d="M68.71 204.24C68.71 204.24 69.95 194.32 67.25 191.32C67.25 191.32 63.93 185.08 64.48 174.28" stroke="#13110C" stroke-width="0.5" stroke-miterlimit="10"/>
<path d="M66.8301 204.24C66.8301 204.24 68.0701 194.32 65.3701 191.32C65.3701 191.32 62.0501 185.08 62.6001 174.28" stroke="#13110C" stroke-width="0.5" stroke-miterlimit="10"/>
<path d="M65.1499 202.24C65.1499 202.24 65.7799 194.83 63.4699 192.04C61.1599 189.24 60.2599 176.76 60.4499 175.33" stroke="#13110C" stroke-width="0.5" stroke-miterlimit="10"/>
<path d="M63.4699 199.15C63.4699 199.15 63.0799 193.57 61.3699 191.32C59.6599 189.07 58.9099 177.99 59.0799 176.9" stroke="#13110C" stroke-width="0.5" stroke-miterlimit="10"/>
<path d="M105.67 179.24C105.67 179.24 106.13 171.82 108.02 170.74C108.02 170.74 115.49 166.66 114.32 173.91C114.32 173.91 112.08 175.49 111.49 173.74C111.49 173.74 113.9 173.38 112.57 172.27C112.57 172.27 109.84 168.91 108.58 173.99C108.58 173.99 109.82 177.99 113.4 176.91" stroke="#13110C" stroke-width="0.5" stroke-miterlimit="10"/>
<path d="M104.27 177.57C104.27 177.57 105.41 171.4 106.58 170.19" stroke="#13110C" stroke-width="0.5" stroke-miterlimit="10"/>
<path d="M103.26 176.4C103.26 176.4 103.55 172.07 104.27 171.49" stroke="#13110C" stroke-width="0.5" stroke-miterlimit="10"/>
<path d="M112.91 181.65C112.91 181.65 113.17 179.07 111.5 179.78C111.5 179.78 109 181.66 111.91 183.16" stroke="#13110C" stroke-width="0.5" stroke-miterlimit="10"/>
<path d="M112.92 177.57C112.92 177.57 108.41 177.9 108.02 182.08" stroke="#13110C" stroke-width="0.5" stroke-miterlimit="10"/>
<path d="M107.9 175.32V179.78" stroke="#13110C" stroke-width="0.5" stroke-miterlimit="10"/>
<path d="M109.41 195.51C109.41 195.51 111.33 195.16 109.41 193.99" stroke="#13110C" stroke-width="0.5" stroke-miterlimit="10"/>
<path d="M108.99 189.65C108.99 189.65 108.66 183.32 108.99 182.65" stroke="#13110C" stroke-width="0.5" stroke-miterlimit="10"/>
<path d="M114.16 176.47C114.16 176.47 122.01 175.39 130.92 171.26C137 168.44 143.05 164.24 147.9 157.91" stroke="#13110C" stroke-miterlimit="10"/>
<path d="M53.15 214.23C53.15 214.23 53.53 220.04 51.6 221.1C49.67 222.15 46.59 222.02 45.58 220.11C45.58 220.11 44.88 214.95 49.01 217.32C49.01 217.32 50.72 218.3 49.54 210.74C49.54 210.74 46.82 200.5 48.62 198.48C48.62 198.48 51.56 192.95 54.24 196.59C54.24 196.59 56.25 201.38 53.16 200.98C53.16 200.98 49.98 201.46 51.96 205.06C51.95 205.07 55.66 209.05 53.15 214.23Z" fill="#FFEA24" stroke="#13110C" stroke-miterlimit="10"/>
<path d="M58.8999 214.23H53.1499" stroke="#211C4B" stroke-miterlimit="10"/>
<path d="M63.0901 199.99L54.8301 200" stroke="#211C4B" stroke-miterlimit="10"/>
<path d="M57.7558 204.568L54.8677 207.848L58.1474 210.736L61.0355 207.456L57.7558 204.568Z" stroke="#231D49" stroke-miterlimit="10"/>
<path d="M63.0901 204.24H51.5601" stroke="#231E48" stroke-miterlimit="10"/>
<path d="M33.1201 209.32C33.6701 212.5 37.0501 212.47 37.0501 212.47V205.09C37.0501 205.09 33.7201 204.31 33.1201 207.66V209.32Z" fill="#FFEA24" stroke="#13110C" stroke-miterlimit="10"/>
<path d="M47.45 213.02C47.45 212.13 47.78 211.4 48.2 211.4C48.61 211.4 48.95 212.12 48.95 213.02C48.95 213.91 48.62 214.64 48.2 214.64C47.78 214.64 47.45 213.92 47.45 213.02Z" fill="white" stroke="#13110C" stroke-miterlimit="10"/>
<path d="M44.76 211.46C44.76 209.7 45.24 208.28 45.83 208.28C46.42 208.28 46.9 209.71 46.9 211.46C46.9 213.22 46.42 214.64 45.83 214.64C45.24 214.64 44.76 213.21 44.76 211.46Z" fill="white" stroke="#13110C" stroke-miterlimit="10"/>
<path d="M42.0801 210.51C42.0801 208.23 42.6201 206.38 43.2701 206.38C43.9201 206.38 44.4601 208.23 44.4601 210.51C44.4601 212.79 43.9201 214.64 43.2701 214.64C42.6201 214.64 42.0801 212.79 42.0801 210.51Z" fill="white" stroke="#13110C" stroke-miterlimit="10"/>
<path d="M39.5901 210.48C39.5901 208.41 39.9901 206.73 40.4901 206.73C40.9801 206.73 41.3901 208.41 41.3901 210.48C41.3901 212.55 40.9901 214.23 40.4901 214.23C39.9901 214.23 39.5901 212.55 39.5901 210.48Z" fill="white" stroke="#13110C" stroke-miterlimit="10"/>
<path d="M37.55 210.21C37.55 208.29 37.91 206.73 38.35 206.73C38.79 206.73 39.1501 208.29 39.1501 210.21C39.1501 212.13 38.79 213.69 38.35 213.69C37.91 213.68 37.55 212.13 37.55 210.21Z" fill="white" stroke="#13110C" stroke-miterlimit="10"/>
<path d="M49.9299 196.65L49.7499 195.42L39.1399 195.63V198.52" stroke="#13110C" stroke-miterlimit="10"/>
<path d="M41.3801 197.52C41.3801 197.52 38.24 197.39 37.8 204.57" stroke="#13110C" stroke-miterlimit="10"/>
<path d="M46.65 197.52C46.65 197.52 43.32 199.81 43.27 202.5" stroke="#13110C" stroke-miterlimit="10"/>
<path d="M48.8799 193.52H39.4099" stroke="#13110C" stroke-miterlimit="10"/>
<path d="M42.03 188.24C42.03 186.89 42.61 185.8 43.34 185.8C44.06 185.8 44.64 186.89 44.64 188.24C44.64 189.59 44.06 190.68 43.34 190.68C42.61 190.68 42.03 189.59 42.03 188.24Z" fill="#211C4B"/>
<path d="M39.37 155.61H29.76V144.97" fill="#13110C"/>
<path d="M39.37 155.61H29.76V144.97" stroke="#13110C" stroke-miterlimit="10"/>
<path d="M55.67 173.65L29.75 144.97V127.63H32.13V143.72L59.48 174.64C59.49 174.64 57.97 177.94 55.67 173.65Z" fill="#FFEA24" stroke="#13110C" stroke-miterlimit="10"/>
<path d="M55.57 176.24L47.45 184.41L43.33 175.32L38.34 184.41L29.76 175.32" stroke="#13110C" stroke-miterlimit="10"/>
<path d="M56.03 178.74L46.9 188.78L43.27 179.87L39.14 188.47L33.83 182.96L29.76 178.74" stroke="#13110C" stroke-miterlimit="10"/>
<path d="M49.7901 191.95L38.1101 191.94" stroke="#13110C" stroke-miterlimit="10"/>
<path d="M52.8799 174.42L48.5199 177.91C48.5199 177.91 47.8199 174.63 46.1899 174.28" stroke="white" stroke-miterlimit="10"/>
<path d="M39.9099 174.09C39.9099 174.09 38.3099 175.25 37.8199 176.52C37.8199 176.52 36.0299 174.23 33.8999 174.09" stroke="white" stroke-miterlimit="10"/>
<path d="M129.1 168.7C137.02 167.19 147.91 155.49 147.91 155.49V157.08C142.49 165.96 130.93 171.26 130.93 171.26L129.1 168.7Z" fill="#FFEA24" stroke="#13110C" stroke-miterlimit="10"/>
<path d="M114.16 149.48C115.19 157.98 130.92 171.26 130.92 171.26C130.92 171.26 121.74 175.13 115.63 176.4C115.63 176.4 107.39 164.2 102.24 148.67C102.24 148.67 106.56 150.71 114.16 149.34" fill="white"/>
<path d="M114.16 149.48C115.19 157.98 130.92 171.26 130.92 171.26C130.92 171.26 121.74 175.13 115.63 176.4C115.63 176.4 107.39 164.2 102.24 148.67C102.24 148.67 106.56 150.71 114.16 149.34" stroke="#13110C" stroke-miterlimit="10"/>
<path d="M148.49 154.72V147.61C148.49 147.61 129.15 164.78 124.29 164.99L128.62 169.2C128.62 169.21 140.27 165.09 148.49 154.72Z" fill="#13110C"/>
<path d="M146.8 154.72C146.8 154.72 141.79 150.7 144.12 157.08C144.12 157.08 138.18 152.92 140.97 159.99C140.97 159.99 134.8 155.88 137.24 162.4C137.24 162.4 132 158.91 133.51 164.5C133.51 164.5 128.03 161.83 130.25 167.18" stroke="white" stroke-miterlimit="10"/>
<path d="M147.9 144.12C136.77 157.17 123.38 164.05 123.38 164.05L119.82 160L128.51 154.49L131.32 156.12L130.92 147.62C136.82 145.17 138.79 141.91 138.79 141.91L147.9 133.29V144.12Z" fill="#211C4B" stroke="#13110C" stroke-miterlimit="10"/>
<path d="M128.51 154.49L131.32 156.12L130.92 147.62C130.92 147.62 134.97 146.22 138.79 141.91C138.79 141.91 134.61 137.83 130.92 136.67L132.24 128.98C132.24 128.98 123.5 132.82 120.83 136.09V149.49C120.83 149.48 123.27 152.42 128.51 154.49Z" fill="#FFEA24" stroke="#13110C" stroke-miterlimit="10"/>
<path d="M129.73 153.47L127.47 147.62L134.69 142.55L129.1 138.18L129.81 131.66" stroke="#13110C" stroke-miterlimit="10"/>
<path d="M126.77 152.39L124.29 145.99L130.49 142.55L124.9 138.65L127.47 133.29" stroke="#13110C" stroke-miterlimit="10"/>
<path d="M122.54 149.48V136.78" stroke="#13110C" stroke-miterlimit="10"/>
<path d="M105.67 137.48C106.61 137.27 107.6 137.13 108.6 137.03C114.44 136.46 120.82 137.48 120.82 137.48V147.61C120.82 147.61 115.55 150.29 105.66 149.47C105.66 149.47 100.69 149.12 99.6301 146.91C99.6301 146.91 97.4501 146.16 98.0701 144.96L98.8101 144.11C98.8101 144.11 95.9001 142.71 99.0401 141.43C99.0401 141.43 97.2101 139.8 100.69 139.1C100.69 139.11 103.29 137.48 105.67 137.48Z" fill="#FED68A" stroke="#13110C" stroke-miterlimit="10"/>
<path d="M99.6399 146.92H109.2" stroke="#13110C" stroke-miterlimit="10"/>
<path d="M98.8101 144.12H108.84" stroke="#13110C" stroke-miterlimit="10"/>
<path d="M99.04 141.44H108.84" stroke="#13110C" stroke-miterlimit="10"/>
<path d="M121.48 165.6C126.58 168.27 125.27 171.31 125.27 171.31C125.27 171.31 122.28 171.67 122.32 168.61C122.31 168.61 122.35 166.18 121.48 165.6Z" fill="#211C4B"/>
<path d="M116.83 166.73C121.93 169.4 120.62 172.44 120.62 172.44C120.62 172.44 117.63 172.8 117.67 169.74C117.67 169.74 117.71 167.31 116.83 166.73Z" fill="#211C4B"/>
<path d="M113.66 159.46C118.76 162.13 117.45 165.17 117.45 165.17C117.45 165.17 114.46 165.53 114.5 162.47C114.5 162.47 114.54 160.04 113.66 159.46Z" fill="#211C4B"/>
<path d="M106.05 153.26C111.15 155.93 109.84 158.97 109.84 158.97C109.84 158.97 106.85 159.33 106.89 156.27C106.89 156.27 106.93 153.84 106.05 153.26Z" fill="#211C4B"/>
<path d="M110.95 151.36C116.05 154.03 114.74 157.07 114.74 157.07C114.74 157.07 111.75 157.43 111.79 154.37C111.79 154.37 111.83 151.94 110.95 151.36Z" fill="#211C4B"/>
<path d="M108.29 137.07C107.41 134.27 107.23 127.64 107.23 127.64H96.6799C96.6799 127.64 98.0299 138.49 99.6299 139.41C99.6399 139.41 103.52 137.65 108.29 137.07Z" fill="white" stroke="#13110C" stroke-miterlimit="10"/>
<path d="M103.89 136.94C100.79 132.09 103.44 130.1 103.44 130.1C103.44 130.1 106.22 131.27 104.66 133.91C104.67 133.91 103.42 136 103.89 136.94Z" fill="#211C4B"/>
<path d="M147.78 133.92H131.39" stroke="#13110C" stroke-miterlimit="10"/>
<path d="M110.52 167.71C110.52 167.71 104.4 167.63 99.69 175.85H97.35C97.35 175.85 96.52 171.59 90.55 168.42L92.74 165.6C92.74 165.6 96.46 167.82 97.85 170.74H99.64C99.64 170.74 104.43 164.81 108.92 164.61L110.52 167.71Z" fill="#13110C" stroke="#13110C" stroke-miterlimit="10"/>
<path d="M107.58 161.87L98.8101 166.73L95.3201 163.43" stroke="white" stroke-width="2" stroke-miterlimit="10"/>
<path d="M94.8701 157.08L94.8001 152.74H90.9501L89.1201 159.46L94.8701 157.08Z" fill="#211C4B"/>
<path d="M89.0901 163.79L89.0201 159.45H85.1601L83.3401 166.17L89.0901 163.79Z" fill="#211C4B"/>
<path d="M102.25 151.75C102.25 151.75 91.4099 163.14 88.6599 166.74" stroke="#13110C" stroke-miterlimit="10"/>
<path d="M96.68 141.91L83.04 157.91" stroke="#13110C" stroke-miterlimit="10"/>
<path d="M99.6399 154.22L96.6799 153.26L97.4499 156.85" stroke="#13110C" stroke-miterlimit="10"/>
<path d="M92.8101 146.45L93.4501 150.74L90.1001 149.63" stroke="#13110C" stroke-miterlimit="10"/>
<path d="M93.77 160.85L90.7 160.33L91.77 163.06" stroke="#13110C" stroke-miterlimit="10"/>
<path d="M86.7501 153.56L88.3201 157.91L84.5701 156.12" stroke="#13110C" stroke-miterlimit="10"/>
<path d="M126.01 127.63C126.01 127.63 123.33 133.4 117.33 135.9V134.65C117.33 134.65 122.44 131.28 123.84 127.51L126.01 127.63Z" fill="#FFEA24"/>
<path d="M116.02 127.93C116.02 127.93 112.95 134.66 109.09 136.61C109.09 136.61 107.8 137.14 107.8 134.57C107.8 134.57 110.92 132.33 113.04 128.01L116.02 127.93Z" fill="#FFEA24" stroke="#13110C" stroke-miterlimit="10"/>
<path d="M81.6899 132.71V135.28H95.6899V136.86L81.6899 151.36V156.22L98.4299 136.94C98.4299 136.94 97.5699 133.23 97.4699 132.71C97.3799 132.2 81.6899 132.71 81.6899 132.71Z" fill="#13110C" stroke="#13110C" stroke-miterlimit="10"/>
<path d="M81.6899 129.66H96.9699L97.4699 132.71H81.6899V129.66Z" fill="#FFEA24" stroke="#13110C" stroke-miterlimit="10"/>
<path d="M78.3901 145.26C80.6601 150.55 77.7201 152.08 77.7201 152.08C77.7201 152.08 75.1701 150.47 77.1301 148.12C77.1401 148.12 78.7001 146.26 78.3901 145.26Z" fill="#211C4B"/>
<path d="M74.57 155C76.84 160.29 73.9 161.82 73.9 161.82C73.9 161.82 71.35 160.21 73.31 157.86C73.31 157.87 74.88 156 74.57 155Z" fill="#211C4B"/>
<path d="M73.8 125.57C76.07 130.86 73.13 132.39 73.13 132.39C73.13 132.39 70.58 130.78 72.54 128.43C72.54 128.43 74.11 126.57 73.8 125.57Z" fill="#211C4B"/>
<path d="M70.5299 127.93C57.6099 142.32 67.5699 160 67.5699 160C67.5699 160 71.9999 144.3 70.5299 127.93Z" fill="#211C4B" stroke="#13110C" stroke-miterlimit="10"/>
<path d="M69.4 151.36L65.23 147.62C65.23 147.62 68.84 143.45 66.71 137.5L70.75 131.19C70.75 131.19 70.9 143.89 69.4 151.36Z" fill="#FFEA24" stroke="#13110C" stroke-miterlimit="10"/>
<path d="M65.73 146.92H70.05" stroke="#13110C" stroke-miterlimit="10"/>
<path d="M66.71 137.49H70.67" stroke="#13110C" stroke-miterlimit="10"/>
<path d="M66.5901 162.76C66.5901 162.76 54.2801 145.86 67.9901 127.63H65.7301C65.7301 127.63 51.1301 141.85 65.7301 164.82L66.5901 162.76Z" fill="white" stroke="#13110C" stroke-miterlimit="10"/>
<path d="M64.4201 167.49C64.4201 167.49 49.2001 149.36 61.8301 127.63H65.2301C65.2301 127.63 51.5801 144.26 65.7301 164.82L64.4201 167.49Z" fill="#FFEA24" stroke="#13110C" stroke-miterlimit="10"/>
<path d="M60.4201 173.15C60.4201 173.15 43.3901 152.24 54.4201 127.64H52.2401C52.2401 127.64 39.2901 145.52 59.0001 174.09L60.4201 173.15Z" fill="#FFEA24" stroke="#13110C" stroke-miterlimit="10"/>
<path d="M43.62 156.7L41.75 154.59V127.63H43.62V156.7Z" fill="#FFEA24" stroke="#13110C" stroke-miterlimit="10"/>
<path d="M57.7501 172.67L43.6201 156.7V153.49L52.2301 162.07C52.2301 162.06 55.6901 171.78 57.7501 172.67Z" fill="#13110C" stroke="#13110C" stroke-miterlimit="10"/>
<path d="M51.8401 127.63L43.6201 132.47V127.63H51.8401Z" fill="#13110C" stroke="#13110C" stroke-miterlimit="10"/>
<path d="M10.49 24.3602H12.11V10.5902H10.49V8.66016H15.38V10.5902H14.01V17.2902L18.32 10.5902H16.66V8.66016H22.04V10.5902H20.5L17 16.0302L20.57 24.3702H22.04V26.3002H16.66V24.3702H18.4L15.7 18.0602L14.02 20.6702V24.3702H15.39V26.3002H10.5V24.3602H10.49Z" fill="#E30B13"/>
<path d="M167.18 231.82H165.56V245.6H167.18V247.53H162.29V245.6H163.66V238.9L159.35 245.6H161.01V247.53H155.63V245.6H157.17L160.67 240.16L157.1 231.82H155.63V229.89H161.01V231.82H159.27L161.97 238.13L163.65 235.52V231.82H162.28V229.89H167.17V231.82H167.18Z" fill="#E30B13"/>
</svg>
