<svg width="180" height="254" viewBox="0 0 180 254" fill="none" xmlns="http://www.w3.org/2000/svg">
<rect x="0.5" y="0.5" width="179" height="253" rx="14.5" fill="white" stroke="#1D1D1B"/>
<path d="M28.24 127.2V97.0901C41.06 87.5201 61.98 80.4101 61.98 80.4101C61.98 80.4101 112.01 70.2601 126.52 77.1701L138 83.2201L138.12 105.73H149.69V127.43L88.96 127.21" fill="#211C4B"/>
<path d="M28.24 127.2V97.0901C41.06 87.5201 61.98 80.4101 61.98 80.4101C61.98 80.4101 112.01 70.2601 126.52 77.1701L138 83.2201L138.12 105.73H149.69V127.43L88.96 127.21" stroke="#13110C" stroke-miterlimit="10"/>
<path d="M138.01 96.1699C138.01 96.1699 132.72 100.6 129.95 108.2C129.95 108.2 131.68 110.72 133.07 108.2L138.14 105.73L138.01 96.1699Z" fill="#E31013"/>
<path d="M70.23 127.23L80.53 127.21C80.53 127.21 82.81 107.05 68.87 82.3201L63.01 79.8901L56.72 82.3701C56.72 82.3701 65.76 95.2301 68.42 107.69C68.42 107.68 70.38 117.21 70.23 127.23Z" fill="#13110C" stroke="#13110C" stroke-miterlimit="10"/>
<path d="M70.81 70.0798C69.55 66.6398 64.77 68.3898 64.77 68.3898C64.77 68.3898 59.86 70.9198 60.63 76.3998C60.63 76.3998 60.62 81.8698 65.68 82.3598C65.68 82.3598 80.49 82.5698 85.19 78.9198C85.19 78.9198 87.01 76.8698 87.15 78.4598C87.15 78.4598 86.38 82.7798 89.33 83.6298C89.33 83.6298 94.87 86.0898 99.86 83.3498C99.86 83.3498 106.18 80.2898 106.39 79.1398C106.39 79.1398 110.52 84.4698 120.49 84.3298L124.77 83.9098C128.56 81.2398 126.52 77.1698 126.52 77.1698C123.64 74.8498 124.48 73.8098 124.48 73.8098C124.97 72.4098 124.2 63.2098 124.2 63.2098C122.31 60.8898 122.66 55.3498 122.66 55.3498C122.8 50.1598 117.99 46.3498 117.99 46.3498L117.28 47.9198C117.28 47.9198 103.05 43.4198 75.7 46.8598C75.7 46.8598 72.07 50.5098 71.93 58.1598C71.93 58.1498 70.67 66.4998 70.81 70.0798Z" fill="#AFA3C7" stroke="#13120D" stroke-miterlimit="10"/>
<path d="M11.6299 22.8501H13.2499V9.08014H11.6299V7.14014H16.5199V9.07014H15.1499V15.7701L19.4599 9.07014H17.7999V7.14014H23.1799V9.07014H21.6399L18.1399 14.5101L21.7099 22.8501H23.1799V24.7801H17.7999V22.8501H19.5399L16.8399 16.5401L15.1599 19.1501V22.8501H16.5299V24.7801H11.6399V22.8501H11.6299Z" fill="#13110C"/>
<path d="M167.53 232.53H165.91V246.31H167.53V248.24H162.64V246.31H164.01V239.61L159.7 246.31H161.36V248.24H155.98V246.31H157.52L161.02 240.87L157.45 232.53H155.98V230.6H161.36V232.53H159.62L162.32 238.84L164 236.23V232.53H162.63V230.6H167.52V232.53H167.53Z" fill="#13110C"/>
<path d="M16.16 40.2202L14.7 42.0002C13.45 43.5302 11.19 43.7502 9.66002 42.5002L9.39002 42.2802C7.86002 41.0302 7.64002 38.7702 8.89002 37.2402L11.33 34.2702L15.77 28.8602C15.9 28.7002 16.04 28.5602 16.19 28.4302C16.33 28.5502 16.46 28.6902 16.58 28.8402L23.41 37.2702C24.66 38.8102 24.42 41.0602 22.88 42.3102L22.61 42.5302C21.07 43.7802 18.82 43.5402 17.57 42.0002L16.16 40.2202L16.96 39.2802C16.96 39.2802 15.4 43.0302 13.06 45.2702H19C19 45.2602 16.11 42.3102 16.16 40.2202Z" fill="#13110C"/>
<path d="M16.16 40.2202L14.7 42.0002C13.45 43.5302 11.19 43.7502 9.66002 42.5002L9.39002 42.2802C7.86002 41.0302 7.64002 38.7702 8.89002 37.2402L11.33 34.2702L15.77 28.8602C15.9 28.7002 16.04 28.5602 16.19 28.4302C16.33 28.5502 16.46 28.6902 16.58 28.8402L23.41 37.2702C24.66 38.8102 24.42 41.0602 22.88 42.3102L22.61 42.5302C21.07 43.7802 18.82 43.5402 17.57 42.0002L16.16 40.2202ZM16.16 40.2202L16.96 39.2802C16.96 39.2802 15.4 43.0302 13.06 45.2702H19C19 45.2602 16.11 42.3102 16.16 40.2202Z" stroke="#13110C" stroke-miterlimit="10"/>
<path d="M161.53 212.97L162.99 211.19C164.24 209.66 166.5 209.44 168.03 210.69L168.3 210.91C169.83 212.17 170.05 214.42 168.8 215.95L166.36 218.92L161.92 224.33C161.79 224.49 161.65 224.63 161.5 224.76C161.36 224.64 161.23 224.5 161.11 224.35L154.28 215.92C153.03 214.38 153.27 212.13 154.81 210.88L155.08 210.66C156.62 209.41 158.87 209.65 160.12 211.19L161.53 212.97L160.73 213.91C160.73 213.91 162.29 210.16 164.63 207.92H158.69C158.69 207.93 161.58 210.88 161.53 212.97Z" fill="#13110C"/>
<path d="M161.53 212.97L162.99 211.19C164.24 209.66 166.5 209.44 168.03 210.69L168.3 210.91C169.83 212.17 170.05 214.42 168.8 215.95L166.36 218.92L161.92 224.33C161.79 224.49 161.65 224.63 161.5 224.76C161.36 224.64 161.23 224.5 161.11 224.35L154.28 215.92C153.03 214.38 153.27 212.13 154.81 210.88L155.08 210.66C156.62 209.41 158.87 209.65 160.12 211.19L161.53 212.97ZM161.53 212.97L160.73 213.91C160.73 213.91 162.29 210.16 164.63 207.92H158.69C158.69 207.93 161.58 210.88 161.53 212.97Z" stroke="#13110C" stroke-miterlimit="10"/>
<path d="M48.27 53.9798L46.18 56.5298C44.39 58.7198 41.16 59.0298 38.97 57.2398L38.58 56.9198C36.39 55.1198 36.08 51.8898 37.87 49.7098L41.36 45.4598L47.72 37.7098C47.91 37.4798 48.11 37.2698 48.33 37.0898C48.53 37.2698 48.72 37.4698 48.89 37.6798L58.67 49.7398C60.45 51.9398 60.12 55.1598 57.92 56.9498L57.53 57.2598C55.33 59.0398 52.11 58.6998 50.32 56.5098L48.27 53.9798L49.41 52.6298C49.41 52.6298 47.18 57.9998 43.84 61.1998H52.33C52.33 61.1998 48.19 56.9598 48.27 53.9798Z" fill="#13110C"/>
<path d="M48.27 53.9798L46.18 56.5298C44.39 58.7198 41.16 59.0298 38.97 57.2398L38.58 56.9198C36.39 55.1198 36.08 51.8898 37.87 49.7098L41.36 45.4598L47.72 37.7098C47.91 37.4798 48.11 37.2698 48.33 37.0898C48.53 37.2698 48.72 37.4698 48.89 37.6798L58.67 49.7398C60.45 51.9398 60.12 55.1598 57.92 56.9498L57.53 57.2598C55.33 59.0398 52.11 58.6998 50.32 56.5098L48.27 53.9798ZM48.27 53.9798L49.41 52.6298C49.41 52.6298 47.18 57.9998 43.84 61.1998H52.33C52.33 61.1998 48.19 56.9598 48.27 53.9798Z" stroke="#13110C" stroke-miterlimit="10"/>
<path d="M132.46 195.27L134.55 192.72C136.34 190.53 139.57 190.21 141.76 192.01L142.15 192.33C144.34 194.12 144.65 197.36 142.86 199.54L139.37 203.79L133.01 211.54C132.82 211.77 132.62 211.98 132.4 212.16C132.2 211.98 132.01 211.78 131.84 211.57L122.06 199.51C120.28 197.31 120.61 194.08 122.81 192.3L123.2 191.99C125.4 190.21 128.62 190.55 130.41 192.74L132.46 195.27L131.32 196.62C131.32 196.62 133.55 191.25 136.89 188.05H128.4C128.4 188.05 132.54 192.29 132.46 195.27Z" fill="#13110C"/>
<path d="M132.46 195.27L134.55 192.72C136.34 190.53 139.57 190.21 141.76 192.01L142.15 192.33C144.34 194.12 144.65 197.36 142.86 199.54L139.37 203.79L133.01 211.54C132.82 211.77 132.62 211.98 132.4 212.16C132.2 211.98 132.01 211.78 131.84 211.57L122.06 199.51C120.28 197.31 120.61 194.08 122.81 192.3L123.2 191.99C125.4 190.21 128.62 190.55 130.41 192.74L132.46 195.27ZM132.46 195.27L131.32 196.62C131.32 196.62 133.55 191.25 136.89 188.05H128.4C128.4 188.05 132.54 192.29 132.46 195.27Z" stroke="#13110C" stroke-miterlimit="10"/>
<path d="M149.71 29.1499H28.24V225.25H149.71V29.1499Z" stroke="#13110C" stroke-miterlimit="10"/>
<path d="M149.71 111.51C149.71 111.51 147.61 109.61 147.1 109.26C146.59 108.91 136.87 107.18 134.79 110.59C132.71 114 138.62 113.92 138.62 113.92L139.02 116.12C136.47 117.8 138.98 119.37 138.98 119.37C137.14 120.7 139.06 121.96 139.06 121.96C137.38 124.31 139.73 125.21 139.73 125.21C137.46 126.15 139.81 127.32 139.81 127.32L149.71 127.43V111.51Z" fill="#FED68A" stroke="#13110C" stroke-miterlimit="10"/>
<path d="M127.77 29.6399L64.26 29.1499C64.26 29.1499 71.12 36.6999 74.6 44.1399C75.02 45.0499 75.4 45.9499 75.71 46.8399C75.71 46.8399 99.91 43.0899 117.29 47.8999C117.29 47.9099 124.8 31.0199 127.77 29.6399Z" fill="#FFEA24" stroke="#13110C" stroke-miterlimit="10"/>
<path d="M118.09 46.1402C98.7901 39.3102 74.8301 44.6602 74.8301 44.6602L75.7001 46.8502C75.7001 46.8502 97.8101 43.0102 117.28 47.9102L118.09 46.1402Z" fill="#13110C" stroke="#13110C" stroke-miterlimit="10"/>
<path d="M118.31 45.6601C118.31 45.6601 101.42 38.0001 74.6 44.0601L72.96 40.7001C72.96 40.7001 99.16 35.1801 119.84 42.2101" fill="#E31013"/>
<path d="M118.31 45.6601C118.31 45.6601 101.42 38.0001 74.6 44.0601L72.96 40.7001C72.96 40.7001 99.16 35.1801 119.84 42.2101" stroke="#13110C" stroke-miterlimit="10"/>
<path d="M118.76 39.7298C118.39 39.6398 117.3 38.5298 117.3 38.5298C118.03 39.1498 119.43 39.2098 119.43 39.2098L118.76 39.7298Z" stroke="#231E48" stroke-miterlimit="10"/>
<path d="M74.39 38.7201C74.77 38.6501 75.92 37.6001 75.92 37.6001C75.16 38.1701 73.75 38.1601 73.75 38.1601L74.39 38.7201Z" stroke="#231E48" stroke-miterlimit="10"/>
<path d="M79.52 37.1802C79.6 37.6302 79.3 38.0602 78.85 38.1502C78.4 38.2302 77.97 37.9302 77.88 37.4802L77.78 36.9302C77.7 36.4802 78 36.0502 78.45 35.9602C78.9 35.8802 79.33 36.1802 79.42 36.6302L79.52 37.1802Z" stroke="#231E48" stroke-miterlimit="10"/>
<path d="M98.5899 36.5502C98.5899 37.0102 98.2199 37.3802 97.7599 37.3802C97.2999 37.3802 96.9299 37.0102 96.9299 36.5502V35.9902C96.9299 35.5302 97.2999 35.1602 97.7599 35.1602C98.2199 35.1602 98.5899 35.5302 98.5899 35.9902V36.5502Z" stroke="#231E48" stroke-miterlimit="10"/>
<path d="M101.12 36.6902L112.31 37.3902C111.02 37.1802 106.72 34.1802 106.72 34.1802C106.72 34.1802 102.13 36.6902 101.12 36.6902Z" stroke="#231E48" stroke-miterlimit="10"/>
<path d="M115.85 37.3201C115.76 37.7701 115.32 38.0601 114.87 37.9701C114.42 37.8801 114.13 37.4401 114.22 36.9901L114.33 36.4501C114.42 36.0001 114.86 35.7101 115.31 35.8001C115.76 35.8901 116.05 36.3301 115.96 36.7801L115.85 37.3201Z" stroke="#231E48" stroke-miterlimit="10"/>
<path d="M89.3199 31.9302C89.3199 32.4902 88.9999 32.9502 88.5999 32.9502C88.1999 32.9502 87.8799 32.4902 87.8799 31.9302C87.8799 31.3702 88.1999 30.9102 88.5999 30.9102C88.9999 30.9102 89.3199 31.3602 89.3199 31.9302Z" stroke="#231E48" stroke-miterlimit="10"/>
<path d="M107.44 32.1601C107.44 32.7401 107.16 33.2001 106.82 33.2001C106.48 33.2001 106.2 32.7301 106.2 32.1601C106.2 31.5801 106.48 31.1201 106.82 31.1201C107.16 31.1201 107.44 31.5901 107.44 32.1601Z" stroke="#231E48" stroke-miterlimit="10"/>
<path d="M78.65 32.4799C78.65 33.6199 78.45 34.5399 78.21 34.5399C77.97 34.5399 77.77 33.6199 77.77 32.4799C77.77 31.3399 77.97 30.4199 78.21 30.4199C78.46 30.4199 78.65 31.3399 78.65 32.4799Z" stroke="#231E48" stroke-miterlimit="10"/>
<path d="M81.57 33.1801C80.77 34.0601 80.26 34.9001 80.44 35.0601C80.61 35.2201 81.41 34.6401 82.21 33.7601C83.01 32.8801 83.52 32.0401 83.34 31.8801C83.17 31.7301 82.38 32.3101 81.57 33.1801Z" stroke="#231E48" stroke-miterlimit="10"/>
<path d="M75.07 33.8099C74.07 33.1699 73.16 32.8099 73.03 32.9999C72.9 33.1999 73.61 33.8799 74.61 34.5299C75.61 35.1699 76.52 35.5299 76.65 35.3299C76.77 35.1299 76.07 34.4499 75.07 33.8099Z" stroke="#231E48" stroke-miterlimit="10"/>
<path d="M98.0401 32.1299C98.0401 33.0699 97.8801 33.8399 97.6701 33.8399C97.4701 33.8399 97.3101 33.0799 97.3101 32.1299C97.3101 31.1899 97.4701 30.4199 97.6701 30.4199C97.8701 30.4299 98.0401 31.1899 98.0401 32.1299Z" stroke="#231E48" stroke-miterlimit="10"/>
<path d="M100.29 32.9698C99.6299 33.6998 99.2099 34.3898 99.3499 34.5198C99.4899 34.6498 100.15 34.1698 100.81 33.4498C101.47 32.7298 101.89 32.0298 101.75 31.8998C101.6 31.7598 100.95 32.2398 100.29 32.9698Z" stroke="#231E48" stroke-miterlimit="10"/>
<path d="M95.0699 33.2301C94.2399 32.7001 93.4899 32.4001 93.3799 32.5601C93.2699 32.7301 93.8599 33.2901 94.6799 33.8201C95.5099 34.3501 96.2599 34.6501 96.3699 34.4901C96.4799 34.3301 95.8899 33.7601 95.0699 33.2301Z" stroke="#231E48" stroke-miterlimit="10"/>
<path d="M115.76 32.6498C115.67 33.5898 115.43 34.3298 115.23 34.3098C115.03 34.2898 114.94 33.5198 115.03 32.5798C115.12 31.6398 115.36 30.8998 115.56 30.9198C115.76 30.9398 115.85 31.7198 115.76 32.6498Z" stroke="#231E48" stroke-miterlimit="10"/>
<path d="M117.86 33.58C117.13 34.24 116.65 34.89 116.78 35.04C116.91 35.19 117.61 34.77 118.34 34.11C119.07 33.45 119.55 32.8 119.42 32.66C119.28 32.5 118.59 32.92 117.86 33.58Z" stroke="#231E48" stroke-miterlimit="10"/>
<path d="M112.7 33.1998C111.93 32.5898 111.2 32.2198 111.08 32.3698C110.96 32.5198 111.48 33.1398 112.26 33.7498C113.03 34.3598 113.75 34.7298 113.87 34.5698C113.99 34.4198 113.47 33.7998 112.7 33.1998Z" stroke="#231E48" stroke-miterlimit="10"/>
<path d="M83.3701 37.33L94.5701 36.82C93.2701 36.75 88.6601 34.23 88.6601 34.23C88.6601 34.23 84.3901 37.22 83.3701 37.33Z" stroke="#231E48" stroke-miterlimit="10"/>
<path d="M94.5701 45.46C94.5701 45.46 88.7501 56.94 91.3601 67.96C91.3601 67.96 95.68 79.09 104.31 78.41C104.31 78.41 112.13 79.43 116.74 71.82C116.74 71.82 119.4 64.76 118.08 49.89L117.27 47.9C117.29 47.91 111.96 45.64 94.5701 45.46Z" fill="#FED68A" stroke="#13110C" stroke-miterlimit="10"/>
<path d="M95.04 49.1198C95.04 49.1198 102.4 48.4998 105.03 49.3898" stroke="#13110C" stroke-miterlimit="10"/>
<path d="M102.71 53.6699C98.3199 49.4399 93.6399 54.3199 93.6399 54.3199C93.6399 54.3199 97.1299 57.7799 102.71 55.0699C102.71 55.0799 103.7 54.6299 102.71 53.6699Z" stroke="#13110C" stroke-miterlimit="10"/>
<path d="M102.4 55.6899C102.4 55.6899 101.17 57.8499 99.01 58.5599" stroke="#13110C" stroke-miterlimit="10"/>
<path d="M109.89 49.3902C109.89 49.3902 114.54 48.5702 116.8 49.6602" stroke="#13110C" stroke-miterlimit="10"/>
<path d="M109.58 49.3799C109.58 49.3799 109.03 58.2499 109.58 60.0299C109.58 60.0299 111.6 67.7999 106.77 65.3299C106.77 65.3299 105.57 64.5799 104.82 65.3999C104.82 65.3999 101.73 65.3999 103.14 62.6999" stroke="#13110C" stroke-miterlimit="10"/>
<path d="M117.01 53.1598C113.55 51.0698 110 53.8798 110 53.8798C110 53.8798 109.86 55.2498 110.95 55.8998C111.12 55.9998 119.67 56.7898 117.01 53.2998V53.1598Z" stroke="#13110C" stroke-miterlimit="10"/>
<path d="M110.17 56.04C110.17 56.04 111.3 57.64 112.84 57.77" stroke="#13110C" stroke-miterlimit="10"/>
<path d="M100.04 54.0698C100.04 54.3398 99.37 54.5698 98.53 54.5698C97.7 54.5698 97.03 54.3498 97.03 54.0698C97.03 53.7998 97.7 53.5698 98.53 53.5698C99.36 53.5698 100.04 53.7898 100.04 54.0698Z" stroke="#13110C" stroke-miterlimit="10"/>
<path d="M114.98 54.0502C115 54.3002 114.47 54.5302 113.8 54.5802C113.13 54.6302 112.58 54.4702 112.56 54.2202C112.54 53.9702 113.07 53.7402 113.74 53.6902C114.4 53.6502 114.96 53.8102 114.98 54.0502Z" stroke="#13110C" stroke-miterlimit="10"/>
<path d="M96.4799 67.53C96.4799 67.53 96.5499 65.03 94.4299 66.16C94.4299 66.16 92.8899 68.83 96.4799 69.21C96.4799 69.21 99.7699 69.38 101.41 68.01C101.41 68.01 103.19 67.18 103.91 67.54" stroke="#13110C" stroke-miterlimit="10"/>
<path d="M101.68 68.3899C101.68 68.3899 103.43 68.1499 103.63 68.1499" stroke="#13110C" stroke-miterlimit="10"/>
<path d="M108.76 68.27L110.37 68.39" stroke="#13110C" stroke-miterlimit="10"/>
<path d="M114.31 67.3899C114.31 67.3899 113.86 65.0899 115.88 65.8199C115.88 65.8199 116.89 66.6399 116.56 67.7999C116.73 69.7199 113.05 69.2099 113.05 69.2099C112.04 69.0799 108.76 67.3899 108.76 67.3899" stroke="#13110C" stroke-miterlimit="10"/>
<path d="M100.7 71.1602H110.17" stroke="#13110C" stroke-miterlimit="10"/>
<path d="M103.32 70.6401H107.09" stroke="#13110C" stroke-miterlimit="10"/>
<path d="M103.63 71.8398H106.74" stroke="#13110C" stroke-miterlimit="10"/>
<path d="M103.63 73.21C103.63 73.21 104.28 74.55 105.79 74.31C105.79 74.31 107.64 74.86 107.98 73.21" stroke="#13110C" stroke-miterlimit="10"/>
<path d="M68.84 71.1602C68.84 71.1602 66.74 68.7702 63.65 71.8402C60.56 74.9202 63.47 78.5702 64.26 79.2002C65.05 79.8302 68.48 80.0402 70.8 76.4602C73.12 72.8802 73.07 67.7602 72.96 65.8602C72.84 63.9602 74.58 54.4502 74.84 53.7302C75.09 53.0102 77.06 48.2402 77.06 48.2402" stroke="#13110C" stroke-width="0.5" stroke-miterlimit="10"/>
<path d="M68.4199 72.8202C68.4199 72.8202 65.29 71.1302 64.26 73.5202C63.23 75.9102 65.3999 78.0802 67.0199 77.6602C68.6299 77.2402 68.9899 75.3802 68.8499 74.9802" stroke="#13110C" stroke-width="0.5" stroke-miterlimit="10"/>
<path d="M66.8799 73.8002C66.8799 73.8002 65.6899 73.6902 65.6899 74.9702C65.6899 76.2502 67.0899 76.3202 67.5799 75.7602" stroke="#13110C" stroke-width="0.5" stroke-miterlimit="10"/>
<path d="M70.7999 70.6401C70.7999 70.6401 70.9699 74.7901 69.6599 75.7601" stroke="#13110C" stroke-width="0.5" stroke-miterlimit="10"/>
<path d="M80.84 47.6899V49.3899C80.84 49.3899 80.14 54.8499 78.17 58.4599C76.21 62.0699 77.4 69.4499 77.05 73.2099C76.7 76.9699 72 80.8199 72 80.8199" stroke="#13110C" stroke-width="0.5" stroke-miterlimit="10"/>
<path d="M79.2301 47.6899V48.9099C78.3901 49.4299 76.2101 57.1199 76.2101 57.1199C74.6001 61.7799 74.8301 71.1499 74.8301 71.1499C73.5201 80.2299 67.5701 81.5799 67.5701 81.5799" stroke="#13110C" stroke-width="0.5" stroke-miterlimit="10"/>
<path d="M83.02 47.6899C83.02 47.6899 81.83 56.7399 79.86 60.1799C79.86 60.1799 78.04 65.9299 79.23 70.0699C79.23 70.0699 80.12 76.2499 75.71 80.3199" stroke="#13110C" stroke-width="0.5" stroke-miterlimit="10"/>
<path d="M78.53 80.3302C78.53 80.3302 82.53 75.4302 81.69 70.6502C80.85 65.8702 80.85 63.2102 82.53 60.1902C84.21 57.1702 84.99 48.3302 85.06 47.7002" stroke="#13110C" stroke-width="0.5" stroke-miterlimit="10"/>
<path d="M81.47 79.57C81.47 79.57 84.56 76.48 84.56 71.84C84.56 67.2 82.6 67.13 84.56 62.64C84.56 62.64 88 51.62 86.74 48.25" stroke="#13110C" stroke-width="0.5" stroke-miterlimit="10"/>
<path d="M85.6101 76.9602C85.6101 76.9602 88.0601 72.5602 87.0101 69.2202C85.9601 65.8702 85.1001 65.2402 86.4401 62.4302C87.7801 59.6202 89.1001 49.7102 88.9701 48.9102" stroke="#13110C" stroke-width="0.5" stroke-miterlimit="10"/>
<path d="M88.97 74.3899C88.97 74.3899 90.15 68.8799 88.97 65.8699C87.79 62.8499 90.66 48.8199 91.36 47.6899" stroke="#13110C" stroke-width="0.5" stroke-miterlimit="10"/>
<path d="M91.04 76.0999C91.04 76.0999 92.07 71.2099 91.72 70.6499" stroke="#13110C" stroke-width="0.5" stroke-miterlimit="10"/>
<path d="M96.4599 77.71C96.4599 77.71 95.0899 84.51 88.9799 81.1C88.9799 81.1 88.2499 77.73 91.0399 78.99C91.0399 78.99 91.2799 80.39 90.6899 80.32" stroke="#13110C" stroke-width="0.5" stroke-miterlimit="10"/>
<path d="M92.4199 80.3301C92.4199 80.3301 94.9299 79.1301 94.0999 75.3501" stroke="#13110C" stroke-width="0.5" stroke-miterlimit="10"/>
<path d="M91.3701 77.8298C91.3701 77.8298 92.8501 76.2598 92.9801 73.7998" stroke="#13110C" stroke-width="0.5" stroke-miterlimit="10"/>
<path d="M91.79 83.2002C91.79 83.2002 95.31 83.7402 98.39 78.4502" stroke="#13110C" stroke-width="0.5" stroke-miterlimit="10"/>
<path d="M95.04 83.2198C95.04 83.2198 98.6 81.6898 100.04 79.5698" stroke="#13110C" stroke-width="0.5" stroke-miterlimit="10"/>
<path d="M97.54 83.2201C97.54 83.2201 101.62 80.5701 102.04 79.8901" stroke="#13110C" stroke-width="0.5" stroke-miterlimit="10"/>
<path d="M109.12 79.0601C109.12 79.0601 111.76 82.2401 116.8 83.2201" stroke="#13110C" stroke-width="0.5" stroke-miterlimit="10"/>
<path d="M111.02 78.46C111.02 78.46 115.19 81.94 117.53 82.36" stroke="#13110C" stroke-width="0.5" stroke-miterlimit="10"/>
<path d="M113.76 76.96C113.76 76.96 116.71 81.17 118.46 81.59" stroke="#13110C" stroke-width="0.5" stroke-miterlimit="10"/>
<path d="M116.11 75.3398C116.11 75.3398 119.37 83.3698 123.44 83.2198C123.44 83.2198 128.7 80.8198 123.44 76.9598C123.44 76.9598 119.3 77.4498 122.6 80.8198C122.6 80.8198 125.34 81.4398 123.51 78.4598" stroke="#13110C" stroke-width="0.5" stroke-miterlimit="10"/>
<path d="M119.3 49.3901C119.3 49.3901 120.92 55.0201 120.07 57.7701C119.23 60.5301 118.88 67.3901 119.3 68.3801C119.72 69.3701 118.82 72.5901 118.46 73.3701C118.11 74.1501 118.77 75.9701 119.39 76.9501" stroke="#13110C" stroke-width="0.5" stroke-miterlimit="10"/>
<path d="M120.95 51.4102C120.95 51.4102 122.03 57.7302 120.95 61.6602C119.87 65.5902 120.91 68.5402 120.95 69.2802C120.99 70.0102 121.47 72.3202 120.95 73.3802C120.43 74.4402 120.76 75.7402 120.95 76.1102" stroke="#13110C" stroke-width="0.5" stroke-miterlimit="10"/>
<path d="M122.25 62.9302C122.25 62.9302 121.62 68.1402 122.25 69.2102C122.88 70.2902 122.25 73.4402 122.25 74.3902" stroke="#13110C" stroke-width="0.5" stroke-miterlimit="10"/>
<path d="M123.37 64.25C123.37 64.25 123.65 74.57 123.72 75.34" stroke="#13110C" stroke-width="0.5" stroke-miterlimit="10"/>
<path d="M138.01 49.67L138.13 105.73H149.71V49.15L143.76 43.73L138.01 49.67Z" stroke="#231E48" stroke-miterlimit="10"/>
<path d="M141.79 105.21C142.09 104.48 142.23 103.53 142.45 101.27C142.58 100.01 142.88 97.5499 142.19 96.8899C140.24 95.0499 140.79 83.7699 141.23 83.2199C141.67 82.6699 142.9 75.2599 141.93 74.3899C140.96 73.5299 140.09 65.0299 141.67 61.0099C143.25 56.9799 142.55 49.6699 142.55 49.6699C142.55 49.6699 145.1 52.5199 143.87 61.1899C143.87 61.1899 143.33 69.2199 144.65 71.1599C144.65 71.1599 145.87 79.2199 144.21 86.8299C144.21 86.8299 144.16 94.2699 145.44 95.8399C145.44 95.8399 145.79 104.24 145.27 105.21H141.79Z" fill="#FFEA24" stroke="#13110C" stroke-miterlimit="10"/>
<path d="M149.71 106.52H136.85C136.85 106.52 133.09 107.13 132.82 111.16C132.82 111.16 132.69 116.94 138.01 114.92C138.01 114.92 140.35 112.38 136.59 111.77L135.68 112.11C135.68 112.11 135.72 110.1 140.01 110.94C140.01 110.94 147.7 112.65 149.72 111.52V106.52H149.71Z" fill="#FFEA24" stroke="#13110C" stroke-miterlimit="10"/>
<path d="M149 115.78C149 115.78 144.75 118.39 141.26 118.88L138.98 119.37" stroke="#13110C" stroke-miterlimit="10"/>
<path d="M149 119.91C149 119.91 140.88 121.93 140.24 121.93L139.06 121.96" stroke="#13110C" stroke-miterlimit="10"/>
<path d="M149 123.6C149 123.6 142.19 125.27 141.26 125.27L139.72 125.2" stroke="#13110C" stroke-miterlimit="10"/>
<path d="M147.33 112.63C147.33 112.63 143.2 115.43 140 115.78L139.02 116.12" stroke="#13110C" stroke-miterlimit="10"/>
<path d="M85.22 111.99H87.35C87.03 106.78 84.81 99.02 84.81 99.02C83.59 95.07 78.8 81.29 78.8 81.29L76.02 81.74C76.02 81.74 79.97 89 81.68 95.75C81.69 95.76 84.81 107.86 85.22 111.99Z" fill="#FFEA24" stroke="#13110C" stroke-miterlimit="10"/>
<path d="M95.3299 111.99H81.6899V114.53H95.3299V111.99Z" fill="white" stroke="#13110C" stroke-miterlimit="10"/>
<path d="M97.77 84.2001L100.89 82.8301C100.89 82.8301 95.56 95.4401 94.29 102.51C94.29 102.51 92.11 108.78 92.2 111.99H90.02C90.02 111.99 92.15 98.7401 94.01 94.3401L97.77 84.2001Z" fill="#FFEA24" stroke="#13110C" stroke-miterlimit="10"/>
<path d="M88.9701 101.25C88.9701 101.25 86.2301 100.06 86.3701 98.0602C86.3701 98.0602 86.2001 94.5002 88.7801 93.0002C88.7801 93.0002 91.5901 90.6902 88.9701 87.4002C88.9701 87.4002 85.7601 85.6702 85.1801 88.1102C85.1801 88.1102 84.6701 88.9302 85.4201 90.0102C85.4201 90.0102 85.5201 88.4202 86.1001 88.4802C86.6801 88.5502 88.4801 87.8302 88.4101 90.0102C88.4101 90.0102 88.3401 92.4202 86.4401 92.6902C84.5401 92.9602 81.5901 91.3302 82.7401 87.4602C82.7401 87.4602 84.0301 83.3502 87.5901 84.2002C87.5901 84.2002 93.6701 84.9802 92.1401 90.9902C92.1401 90.9902 90.9501 94.8902 88.5101 97.1702C88.5101 97.1702 87.9001 100.12 90.0201 99.4402C90.0201 99.4402 88.1701 97.9002 90.2401 97.4002C90.2401 97.4002 92.7501 97.0302 91.7301 100.02C91.7301 100.02 91.0301 102.7 88.9701 104.06C88.9701 104.06 88.1701 105.59 89.8601 105.25C89.8601 105.25 91.4201 106.03 89.7901 107.59C89.7901 107.59 86.6701 108.37 87.1401 104.98C87.1401 104.98 87.3201 102.67 88.9601 101.55" fill="#FFEA24"/>
<path d="M82.9401 83.5001C82.9401 84.0101 82.5301 84.4201 82.0201 84.4201C81.5101 84.4201 81.1001 84.0101 81.1001 83.5001C81.1001 82.9901 81.5101 82.5801 82.0201 82.5801C82.5301 82.5801 82.9401 82.9901 82.9401 83.5001Z" fill="#FFEA24"/>
<path d="M95.02 88.21C95.02 88.62 94.69 88.96 94.27 88.96C93.86 88.96 93.52 88.63 93.52 88.21C93.52 87.8 93.85 87.46 94.27 87.46C94.68 87.47 95.02 87.8 95.02 88.21Z" fill="#FFEA24"/>
<path d="M92.8499 95.17C92.8499 95.56 92.5299 95.88 92.1399 95.88C91.7499 95.88 91.4299 95.56 91.4299 95.17C91.4299 94.78 91.7499 94.46 92.1399 94.46C92.5299 94.46 92.8499 94.78 92.8499 95.17Z" fill="#FFEA24"/>
<path d="M85.3199 95.65C85.6954 95.65 85.9999 95.3456 85.9999 94.97C85.9999 94.5945 85.6954 94.29 85.3199 94.29C84.9443 94.29 84.6399 94.5945 84.6399 94.97C84.6399 95.3456 84.9443 95.65 85.3199 95.65Z" fill="#FFEA24"/>
<path d="M89.4601 110.08C89.4601 110.46 89.1601 110.76 88.7801 110.76C88.4001 110.76 88.1001 110.46 88.1001 110.08C88.1001 109.7 88.4001 109.4 88.7801 109.4C89.1601 109.4 89.4601 109.7 89.4601 110.08Z" fill="#FFEA24"/>
<path d="M78.5301 106.19C80.7601 114.56 80.5301 127.21 80.5301 127.21H82.4801C82.7401 117.51 80.8401 107.68 80.8401 107.68C78.4701 94.8901 71.3101 82.3101 71.3101 82.3101H68.8701C68.8701 82.3101 77.9901 100.58 78.5301 106.19Z" fill="#FFEA24" stroke="#13110C" stroke-miterlimit="10"/>
<path d="M85.2201 111.99H81.6901C81.6901 111.99 81.9001 105.3 71.6201 82.1702L76.0301 81.7402C76.0301 81.7402 82.1301 91.3102 85.0501 111.99" fill="#E31013"/>
<path d="M85.2201 111.99H81.6901C81.6901 111.99 81.9001 105.3 71.6201 82.1702L76.0301 81.7402C76.0301 81.7402 82.1301 91.3102 85.0501 111.99" stroke="#13110C" stroke-miterlimit="10"/>
<path d="M108.26 80.8401C100.13 92.1201 95.3299 111.99 95.3299 111.99H92.1999C92.1999 111.99 91.4399 106.54 100.88 82.8201C100.88 82.8201 105.52 80.4801 106.39 79.1201C106.39 79.1301 107.71 80.4101 108.26 80.8401Z" fill="#E31013" stroke="#13110C" stroke-miterlimit="10"/>
<path d="M110.2 82.0599L105.64 89.9099C100.49 99.2499 98.39 111.49 98.39 111.49C97.28 114.18 96.97 127.21 96.97 127.21L95.04 127.23C95.04 127.23 94.09 109.2 98.98 99.9799C98.98 99.9799 106.39 81.4699 108.76 81.1499L110.2 82.0599Z" fill="#FFEA24" stroke="#13110C" stroke-miterlimit="10"/>
<path d="M110.2 82.0601C116.74 85.1801 121.42 84.2401 121.42 84.2401C115.49 90.6201 109.66 108.02 109.66 108.02C106.85 115.11 107.4 127.21 107.4 127.21H96.9701C96.9701 127.2 96.17 103.08 110.2 82.0601Z" fill="#13110C" stroke="#13110C" stroke-miterlimit="10"/>
<path d="M108.88 89.2401C108.5 85.0301 112.66 87.4801 112.66 87.4801L113.26 84.6401L115.3 85.5701L113.55 88.0701C113.55 88.0701 118.41 90.0801 113.67 92.9301L109.99 94.4601L108.88 89.2401Z" fill="white"/>
<path d="M103.56 101.61C103 97.4201 107.26 99.6901 107.26 99.6901L107.73 96.8301L109.8 97.6801L108.16 100.25C108.16 100.25 113.1 102.05 108.48 105.1L104.87 106.78L103.56 101.61Z" fill="white"/>
<path d="M100.02 115.49C98.4401 111.57 103.13 112.71 103.13 112.71L102.88 109.82L105.1 110.12L104.15 113.02C104.15 113.02 109.38 113.54 105.66 117.64L102.58 120.16L100.02 115.49Z" fill="white"/>
<path d="M107.4 127.2L109.8 127.31C109.8 127.31 108.63 114.97 115.13 100.56C115.13 100.56 119.82 88.9099 124.77 83.8999L121.42 84.2299C121.43 84.2299 108.76 100.79 107.4 127.2Z" fill="#FFEA24" stroke="#13110C" stroke-miterlimit="10"/>
<path d="M54.55 83.2201C54.55 83.2201 64.0801 100.13 64.7301 105.61C64.7301 105.61 68.7001 118.45 67.5801 127.2L70.2301 127.22C70.2301 127.22 71.0701 115.43 67.5801 104.75C67.5801 104.75 64.1001 92.7101 56.7201 82.3501L54.55 83.2201Z" fill="#FFEA24" stroke="#13110C" stroke-miterlimit="10"/>
<path d="M68.2099 86.1002C71.4699 88.8002 66.7999 90.0202 66.7999 90.0202L68.3899 92.4402L66.2899 93.2302L65.7499 90.2302C65.7499 90.2302 60.8999 92.2702 62.2199 86.8902L63.7299 83.2002L68.2099 86.1002Z" fill="white"/>
<path d="M74.27 99.0699C77.34 101.97 72.6 102.89 72.6 102.89L74.03 105.41L71.89 106.06L71.55 103.03C71.55 103.03 66.58 104.74 68.25 99.4599L70 95.8799L74.27 99.0699Z" fill="white"/>
<path d="M77.47 113.19C79.88 116.66 75.06 116.59 75.06 116.59L75.94 119.35L73.71 119.54L73.99 116.5C73.99 116.5 68.77 117.16 71.49 112.33L73.94 109.19L77.47 113.19Z" fill="white"/>
<path d="M111.71 110.24C111.71 110.24 128.38 117.43 134.35 127.47H129.86C129.86 127.47 123.49 118.73 110.87 113.89L111.71 110.24Z" fill="#13110C" stroke="#13110C" stroke-miterlimit="10"/>
<path d="M115.74 110.76C115.74 110.76 118.81 96.7298 132.27 81.5898" stroke="white" stroke-miterlimit="10"/>
<path d="M125.78 116.11C125.78 116.11 129.82 100.98 137.01 94.29" stroke="white" stroke-miterlimit="10"/>
<path d="M122.06 114.08C122.06 114.08 125.07 113.93 124.81 107.45C124.8 107.23 124.79 107 124.77 106.77C124.77 106.77 122.82 96.66 124.55 95.88C124.55 95.88 128.3 90.92 130.94 95.56C130.94 95.56 131.81 99.04 128.92 99.09C128.92 99.09 126.52 98.88 127.38 96.82C127.38 96.82 127.81 95.96 128.39 96.44" stroke="white" stroke-miterlimit="10"/>
<path d="M124.81 107.45C122.71 104.04 119.65 106.06 119.65 106.06C119.65 106.06 116.76 110 120.94 110.43C120.94 110.43 122.66 109.76 120.94 108.7" stroke="white" stroke-miterlimit="10"/>
<path d="M128.25 93.5799C128.25 93.5799 133.15 92.6999 134.79 90.8699C134.79 90.8699 137.48 89.9099 135.75 86.0199C135.75 86.0199 133.44 83.8099 132.29 86.7899C132.29 86.7899 132.1 89.1399 133.78 88.3299" stroke="white" stroke-miterlimit="10"/>
<path d="M129.06 109.84C129.06 109.84 135.61 124.71 136.24 126.26" stroke="white" stroke-miterlimit="10"/>
<path d="M128.21 115.09C128.21 115.09 131.28 119.67 131.69 120.93" stroke="white" stroke-miterlimit="10"/>
<path d="M111.97 121.55C111.4 120.24 111.34 119.01 111.82 118.8C112.3 118.59 113.15 119.49 113.71 120.8C114.27 122.11 114.34 123.34 113.86 123.55C113.38 123.76 112.54 122.86 111.97 121.55Z" fill="#FFEA24"/>
<path d="M120.98 126.8C119.55 126.79 118.4 126.34 118.41 125.82C118.42 125.29 119.58 124.88 121 124.9C122.43 124.92 123.58 125.35 123.57 125.88C123.57 126.4 122.41 126.82 120.98 126.8Z" fill="#FFEA24"/>
<path d="M111.2 116.11C111.2 116.11 116.86 119.26 116.09 124.9C116.09 124.9 121.89 122.16 126.01 126.26" stroke="white" stroke-miterlimit="10"/>
<path d="M110.2 123.98C110.2 123.98 113.57 125.19 115.32 126.8L110.2 123.98Z" fill="white"/>
<path d="M110.2 123.98C110.2 123.98 113.57 125.19 115.32 126.8" stroke="white" stroke-miterlimit="10"/>
<path d="M88.78 119.13C89.625 119.13 90.31 118.445 90.31 117.6C90.31 116.755 89.625 116.07 88.78 116.07C87.935 116.07 87.25 116.755 87.25 117.6C87.25 118.445 87.935 119.13 88.78 119.13Z" fill="#FFEA24"/>
<path d="M83.4199 126.8L88.5299 122.21L93.5999 126.8" fill="#FFEA24"/>
<path d="M85.97 122.59C85.97 123 85.64 123.34 85.22 123.34C84.81 123.34 84.47 123 84.47 122.59C84.47 122.18 84.8 121.84 85.22 121.84C85.63 121.84 85.97 122.18 85.97 122.59Z" fill="#FFEA24"/>
<path d="M92.21 122.59C92.21 123 91.88 123.34 91.46 123.34C91.04 123.34 90.71 123 90.71 122.59C90.71 122.18 91.04 121.84 91.46 121.84C91.88 121.84 92.21 122.18 92.21 122.59Z" fill="#FFEA24"/>
<path d="M64.2901 127.23C64.2901 127.23 58.5901 124.68 54.5601 116.9C54.5601 116.9 48.8101 109.01 51.2401 96.87C51.2401 96.87 53.7301 88.08 55.7301 85.34L54.5601 83.23L53.5901 83.63C53.5901 83.63 48.8901 89.22 48.6001 103.57C48.6001 103.57 49.7401 118.88 55.9501 123.05C55.9501 123.05 59.1601 126.51 61.0901 127.24H64.2901V127.23Z" fill="white" stroke="#13110C" stroke-miterlimit="10"/>
<path d="M46.7399 87.4702C46.7399 87.4702 47.8799 90.3002 49.4499 91.3602C49.4499 91.3602 43.0299 92.9202 42.5999 95.8802C42.5999 95.8802 41.0299 103.84 47.6599 104.63C47.6599 104.63 42.3099 107.7 43.3099 113.26C43.3099 113.26 44.0199 118.11 51.2999 118.61C51.2999 118.61 48.0199 124.22 51.7299 126.8" stroke="white" stroke-miterlimit="10"/>
<path d="M46.86 96.2601C45.83 97.1201 44.69 97.4601 44.31 97.0101C43.93 96.5601 44.47 95.5001 45.5 94.6301C46.53 93.7701 47.67 93.4301 48.05 93.8801C48.42 94.3301 47.89 95.3901 46.86 96.2601Z" fill="#FFEA24"/>
<path d="M46.7401 100.31C47.5701 101.36 47.8801 102.51 47.4201 102.88C46.9601 103.24 45.9101 102.68 45.0801 101.63C44.2501 100.58 43.9401 99.4298 44.4001 99.0598C44.8601 98.6998 45.9101 99.2598 46.7401 100.31Z" fill="#FFEA24"/>
<path d="M47.0999 109.92C46.4299 111.09 45.4799 111.8 44.9699 111.51C44.4599 111.22 44.5899 110.04 45.2599 108.87C45.9299 107.7 46.8799 106.99 47.3899 107.28C47.8899 107.57 47.7599 108.76 47.0999 109.92Z" fill="#FFEA24"/>
<path d="M46.9201 115.78C45.9301 114.87 45.4501 113.78 45.8401 113.35C46.2401 112.92 47.3601 113.31 48.3501 114.22C49.3401 115.13 49.8201 116.22 49.4201 116.65C49.0301 117.08 47.9101 116.69 46.9201 115.78Z" fill="#FFEA24"/>
<path d="M53.86 123.61C53.91 124.95 53.47 126.06 52.89 126.08C52.3 126.1 51.79 125.03 51.74 123.68C51.69 122.34 52.13 121.23 52.71 121.21C53.29 121.2 53.81 122.27 53.86 123.61Z" fill="#FFEA24"/>
<path d="M50.65 87.7199C50.55 88.5199 50 89.1099 49.42 89.0399C48.84 88.9699 48.45 88.2599 48.54 87.4599C48.64 86.6599 49.19 86.0699 49.77 86.1399C50.36 86.2099 50.75 86.9199 50.65 87.7199Z" fill="#FFEA24"/>
<path d="M48.5901 127.2C36.1101 108.12 42.2101 88.75 42.2101 88.75L37.1301 91.42C37.1301 91.42 35.0301 116.89 43.6601 127.2H48.5901Z" fill="#13110C" stroke="#13110C" stroke-miterlimit="10"/>
<path d="M36.91 91.5498V97.4098L32.02 94.4798C32.02 94.4798 35.64 92.2298 36.91 91.5498Z" fill="#E31013" stroke="#13110C" stroke-miterlimit="10"/>
<path d="M36.91 97.9202C36.91 97.9202 37 108.13 38.59 115.54L28.24 103.55V97.4002C28.24 97.4002 30.12 95.6402 32.02 94.4702L36.91 97.9202Z" fill="#FFEA24" stroke="#13110C" stroke-miterlimit="10"/>
<path d="M36.9101 111.19L30.1201 102.99L33.9701 98.9502L36.5401 102.06" stroke="#13110C" stroke-miterlimit="10"/>
<path d="M28.8301 100.97L33.4101 97.0898" stroke="#13110C" stroke-miterlimit="10"/>
<path d="M36.61 107.22L34.04 104.06L35.32 102.99L36.61 103.99" stroke="#13110C" stroke-miterlimit="10"/>
<path d="M41.32 127.23C37.18 115.02 28.25 107.22 28.25 107.22V104.18C28.25 104.18 38.61 112.76 43.68 127.2L41.32 127.23Z" fill="white" stroke="#13110C" stroke-miterlimit="10"/>
<path d="M134.35 100.97H137.01" stroke="#942830" stroke-miterlimit="10"/>
<path d="M133.27 103.55H137.01" stroke="#942830" stroke-miterlimit="10"/>
<path d="M132.27 105.73H136.33" stroke="#942830" stroke-miterlimit="10"/>
<path d="M28.24 107.22C28.24 107.22 34.01 112.75 36.61 117.42C36.61 117.42 32.79 117.58 32.03 122.39C32.03 122.39 29.43 124.03 28.84 123.96H28.25V107.22H28.24Z" fill="#E31013" stroke="#13110C" stroke-miterlimit="10"/>
<path d="M28.8301 112.55H31.6101" stroke="#942830" stroke-miterlimit="10"/>
<path d="M28.8301 115H33.4101" stroke="#942830" stroke-miterlimit="10"/>
<path d="M28.8301 117.33H34.0401" stroke="#942830" stroke-miterlimit="10"/>
<path d="M36.0199 120.92C36.0199 121.77 35.3299 122.47 34.4699 122.47C33.6199 122.47 32.9199 121.78 32.9199 120.92C32.9199 120.06 33.6099 119.37 34.4699 119.37C35.3199 119.37 36.0199 120.06 36.0199 120.92Z" fill="#FFEA24"/>
<path d="M88.97 127.2H28.24H37.96C39.53 126.3 35.95 125.24 35.95 125.24C37.44 124.95 36.96 124.17 36.01 123.33C35.06 122.49 32.02 122.39 32.02 122.39C32.02 122.39 31.14 123.32 28.24 123.96V127.2" fill="#FED68A"/>
<path d="M88.97 127.2H28.24M28.24 127.2H37.96C39.53 126.3 35.95 125.24 35.95 125.24C37.44 124.95 36.96 124.17 36.01 123.33C35.06 122.49 32.02 122.39 32.02 122.39C32.02 122.39 31.14 123.32 28.24 123.96V127.2Z" stroke="#13110C" stroke-miterlimit="10"/>
<path d="M30.22 125.18C30.22 125.18 33.8 126.04 35.95 125.25" stroke="#13110C" stroke-miterlimit="10"/>
<path d="M55.8699 90C55.8699 90 55.1099 90.85 54.8299 92.22C54.6999 92.86 54.6699 93.61 54.8799 94.44" stroke="#FFEA24" stroke-miterlimit="10"/>
<path d="M58.9401 93.68L54.8301 92.23" stroke="#FFEA24" stroke-miterlimit="10"/>
<path d="M52.79 98.5601V101.06V103.55" stroke="#FFEA24" stroke-miterlimit="10"/>
<path d="M58.29 101.35L52.79 101.06" stroke="#FFEA24" stroke-miterlimit="10"/>
<path d="M63.2199 104.76L56.8799 105.01" stroke="#FFEA24" stroke-miterlimit="10"/>
<path d="M59.5099 107.98L54.1599 110.08" stroke="#FFEA24" stroke-miterlimit="10"/>
<path d="M64.2901 109.2L60.05 112.55" stroke="#FFEA24" stroke-miterlimit="10"/>
<path d="M62.4399 115.26L58.9399 118.77" stroke="#FFEA24" stroke-miterlimit="10"/>
<path d="M66.6401 121.22L64.5701 124.5" stroke="#FFEA24" stroke-miterlimit="10"/>
<path d="M56.8799 103.27L57.2299 106.77" stroke="#FFEA24" stroke-miterlimit="10"/>
<path d="M53.3 107.98L55.3 112.55" stroke="#FFEA24" stroke-miterlimit="10"/>
<path d="M58.6101 110.87L61.2201 114.37" stroke="#FFEA24" stroke-miterlimit="10"/>
<path d="M56.8799 116.11L60.6899 120.92" stroke="#FFEA24" stroke-miterlimit="10"/>
<path d="M63.22 117.01L66 120.17" stroke="#FFEA24" stroke-miterlimit="10"/>
<path d="M63.22 122.86L66.64 125.58" stroke="#FFEA24" stroke-miterlimit="10"/>
<path d="M64.6101 118.52L66.0001 116.11" stroke="#FFEA24" stroke-miterlimit="10"/>
<path d="M57.6501 96.1699L57.05 99.3499" stroke="#FFEA24" stroke-miterlimit="10"/>
<path d="M61.2201 98.9498L57.3501 98.0698" stroke="#FFEA24" stroke-miterlimit="10"/>
<path d="M54.8299 97.5499C55.2055 97.5499 55.5099 97.2455 55.5099 96.8699C55.5099 96.4944 55.2055 96.1899 54.8299 96.1899C54.4543 96.1899 54.1499 96.4944 54.1499 96.8699C54.1499 97.2455 54.4543 97.5499 54.8299 97.5499Z" fill="#FFEA24"/>
<path d="M55.0001 105.22C55.0001 105.68 54.6201 106.06 54.1601 106.06C53.7001 106.06 53.3201 105.69 53.3201 105.22C53.3201 104.76 53.7001 104.38 54.1601 104.38C54.6201 104.39 55.0001 104.76 55.0001 105.22Z" fill="#FFEA24"/>
<path d="M57.82 113.76C57.82 114.18 57.48 114.53 57.05 114.53C56.62 114.53 56.28 114.19 56.28 113.76C56.28 113.33 56.62 112.99 57.05 112.99C57.48 112.99 57.82 113.33 57.82 113.76Z" fill="#FFEA24"/>
<path d="M63.2199 120.92C63.2199 121.35 62.8699 121.7 62.4399 121.7C62.0099 121.7 61.6599 121.35 61.6599 120.92C61.6599 120.49 62.0099 120.14 62.4399 120.14C62.8699 120.14 63.2199 120.49 63.2199 120.92Z" fill="#FFEA24"/>
<path d="M149.71 126.59V156.7C136.89 166.27 115.97 173.39 115.97 173.39C115.97 173.39 65.94 183.54 51.43 176.63L39.95 170.58L39.83 148.07H28.24V126.37L88.97 126.59" fill="#211C4B"/>
<path d="M149.71 126.59V156.7C136.89 166.27 115.97 173.39 115.97 173.39C115.97 173.39 65.94 183.54 51.43 176.63L39.95 170.58L39.83 148.07H28.24V126.37L88.97 126.59" stroke="#13110C" stroke-miterlimit="10"/>
<path d="M39.9401 157.63C39.9401 157.63 45.2301 153.2 48.0001 145.6C48.0001 145.6 46.2701 143.08 44.8801 145.6L39.8101 148.07L39.9401 157.63Z" fill="#E31013"/>
<path d="M107.72 126.57L97.42 126.59C97.42 126.59 95.14 146.75 109.08 171.48L114.94 173.91L121.23 171.43C121.23 171.43 112.19 158.57 109.53 146.11C109.53 146.12 107.57 136.59 107.72 126.57Z" fill="#13110C" stroke="#13110C" stroke-miterlimit="10"/>
<path d="M107.14 183.72C108.4 187.16 113.18 185.41 113.18 185.41C113.18 185.41 118.09 182.88 117.32 177.4C117.32 177.4 117.33 171.93 112.27 171.44C112.27 171.44 97.4601 171.23 92.7601 174.88C92.7601 174.88 90.9401 176.93 90.8001 175.34C90.8001 175.34 91.5701 171.02 88.6201 170.18C88.6201 170.18 83.0801 167.72 78.0901 170.46C78.0901 170.46 71.7701 173.52 71.5601 174.67C71.5601 174.67 67.4301 169.34 57.4601 169.48L53.1801 169.9C49.3901 172.57 51.4301 176.64 51.4301 176.64C54.3101 178.96 53.4701 180 53.4701 180C52.9801 181.4 53.7501 190.6 53.7501 190.6C55.6401 192.92 55.2901 198.46 55.2901 198.46C55.1501 203.65 59.9601 207.46 59.9601 207.46L60.6701 205.89C60.6701 205.89 74.9001 210.4 102.25 206.95C102.25 206.95 105.88 203.3 106.02 195.65C106.02 195.65 107.28 187.3 107.14 183.72Z" fill="#AFA3C7" stroke="#13120D" stroke-miterlimit="10"/>
<path d="M28.24 142.29C28.24 142.29 30.34 144.19 30.85 144.54C31.36 144.89 41.08 146.62 43.16 143.21C45.24 139.8 39.33 139.88 39.33 139.88L38.93 137.69C41.48 136 38.97 134.44 38.97 134.44C40.81 133.11 38.89 131.85 38.89 131.85C40.57 129.5 38.22 128.6 38.22 128.6C40.49 127.66 38.14 126.49 38.14 126.49L28.24 126.38V142.29Z" fill="#FED68A" stroke="#13110C" stroke-miterlimit="10"/>
<path d="M50.1799 224.16L113.69 224.65C113.69 224.65 106.83 217.1 103.35 209.66C102.93 208.75 102.55 207.85 102.24 206.96C102.24 206.96 78.0399 210.71 60.6599 205.9C60.6599 205.89 53.1499 222.78 50.1799 224.16Z" fill="#FFEA24" stroke="#13110C" stroke-miterlimit="10"/>
<path d="M59.8601 207.66C79.1601 214.49 103.12 209.14 103.12 209.14L102.25 206.95C102.25 206.95 80.1401 210.79 60.6701 205.89L59.8601 207.66Z" fill="#13110C" stroke="#13110C" stroke-miterlimit="10"/>
<path d="M59.6401 208.14C59.6401 208.14 76.5301 215.8 103.35 209.74L104.99 213.1C104.99 213.1 78.7901 218.62 58.1101 211.59" fill="#E31013"/>
<path d="M59.6401 208.14C59.6401 208.14 76.5301 215.8 103.35 209.74L104.99 213.1C104.99 213.1 78.7901 218.62 58.1101 211.59" stroke="#13110C" stroke-miterlimit="10"/>
<path d="M59.19 214.07C59.56 214.16 60.65 215.27 60.65 215.27C59.92 214.65 58.52 214.59 58.52 214.59L59.19 214.07Z" stroke="#231E48" stroke-miterlimit="10"/>
<path d="M103.55 215.08C103.17 215.15 102.02 216.2 102.02 216.2C102.78 215.63 104.19 215.64 104.19 215.64L103.55 215.08Z" stroke="#231E48" stroke-miterlimit="10"/>
<path d="M98.4299 216.62C98.3499 216.17 98.6499 215.74 99.0999 215.66C99.5499 215.58 99.9799 215.87 100.07 216.33L100.17 216.88C100.25 217.33 99.9499 217.76 99.4999 217.84C99.0499 217.92 98.6199 217.63 98.5299 217.17L98.4299 216.62Z" stroke="#231E48" stroke-miterlimit="10"/>
<path d="M79.3601 217.25C79.3601 216.79 79.7301 216.42 80.1901 216.42C80.6501 216.42 81.0201 216.79 81.0201 217.25V217.81C81.0201 218.27 80.6501 218.64 80.1901 218.64C79.7301 218.64 79.3601 218.27 79.3601 217.81V217.25Z" stroke="#231E48" stroke-miterlimit="10"/>
<path d="M76.8299 217.11L65.6399 216.41C66.9299 216.62 71.2299 219.62 71.2299 219.62C71.2299 219.62 75.8099 217.11 76.8299 217.11Z" stroke="#231E48" stroke-miterlimit="10"/>
<path d="M62.1 216.47C62.19 216.02 62.63 215.73 63.08 215.82C63.53 215.91 63.82 216.35 63.73 216.8L63.62 217.34C63.53 217.79 63.09 218.08 62.64 217.99C62.19 217.9 61.9 217.46 61.99 217.01L62.1 216.47Z" stroke="#231E48" stroke-miterlimit="10"/>
<path d="M88.6201 221.87C88.6201 221.31 88.9401 220.85 89.3401 220.85C89.7401 220.85 90.0601 221.31 90.0601 221.87C90.0601 222.43 89.7401 222.89 89.3401 222.89C88.9401 222.89 88.6201 222.44 88.6201 221.87Z" stroke="#231E48" stroke-miterlimit="10"/>
<path d="M70.51 221.64C70.51 221.06 70.79 220.6 71.13 220.6C71.47 220.6 71.75 221.07 71.75 221.64C71.75 222.22 71.47 222.68 71.13 222.68C70.79 222.68 70.51 222.21 70.51 221.64Z" stroke="#231E48" stroke-miterlimit="10"/>
<path d="M99.29 221.32C99.29 220.18 99.49 219.26 99.73 219.26C99.97 219.26 100.17 220.18 100.17 221.32C100.17 222.46 99.97 223.38 99.73 223.38C99.49 223.38 99.29 222.45 99.29 221.32Z" stroke="#231E48" stroke-miterlimit="10"/>
<path d="M96.3701 220.61C97.1701 219.73 97.6801 218.89 97.5001 218.73C97.3301 218.57 96.5301 219.15 95.7301 220.03C94.9301 220.91 94.4201 221.75 94.6001 221.91C94.7801 222.07 95.5701 221.49 96.3701 220.61Z" stroke="#231E48" stroke-miterlimit="10"/>
<path d="M102.88 219.99C103.88 220.63 104.79 220.99 104.92 220.8C105.05 220.6 104.34 219.92 103.34 219.27C102.34 218.63 101.43 218.27 101.3 218.47C101.18 218.66 101.88 219.35 102.88 219.99Z" stroke="#231E48" stroke-miterlimit="10"/>
<path d="M79.9099 221.66C79.9099 220.72 80.0699 219.95 80.2799 219.95C80.4799 219.95 80.6399 220.71 80.6399 221.66C80.6399 222.6 80.4799 223.37 80.2799 223.37C80.0799 223.37 79.9099 222.61 79.9099 221.66Z" stroke="#231E48" stroke-miterlimit="10"/>
<path d="M77.66 220.83C78.32 220.1 78.74 219.41 78.6 219.28C78.46 219.15 77.8 219.63 77.14 220.35C76.48 221.07 76.06 221.77 76.2 221.9C76.35 222.04 77 221.56 77.66 220.83Z" stroke="#231E48" stroke-miterlimit="10"/>
<path d="M82.8801 220.57C83.7101 221.1 84.4601 221.4 84.5701 221.24C84.6801 221.07 84.0901 220.51 83.2701 219.98C82.4401 219.45 81.6901 219.15 81.5801 219.32C81.4701 219.47 82.0601 220.03 82.8801 220.57Z" stroke="#231E48" stroke-miterlimit="10"/>
<path d="M62.19 221.14C62.28 220.2 62.52 219.46 62.72 219.48C62.92 219.5 63.01 220.27 62.92 221.21C62.83 222.15 62.59 222.89 62.39 222.87C62.19 222.86 62.1 222.08 62.19 221.14Z" stroke="#231E48" stroke-miterlimit="10"/>
<path d="M60.09 220.22C60.82 219.56 61.3 218.91 61.17 218.76C61.04 218.61 60.34 219.03 59.61 219.69C58.88 220.35 58.4 221 58.53 221.15C58.67 221.3 59.36 220.88 60.09 220.22Z" stroke="#231E48" stroke-miterlimit="10"/>
<path d="M65.25 220.6C66.02 221.21 66.75 221.58 66.87 221.43C66.99 221.28 66.47 220.66 65.69 220.05C64.92 219.44 64.2 219.07 64.08 219.23C63.96 219.38 64.48 220 65.25 220.6Z" stroke="#231E48" stroke-miterlimit="10"/>
<path d="M94.5701 216.47L83.3701 216.98C84.6701 217.05 89.2801 219.57 89.2801 219.57C89.2801 219.57 93.5601 216.58 94.5701 216.47Z" stroke="#231E48" stroke-miterlimit="10"/>
<path d="M83.37 208.34C83.37 208.34 89.19 196.86 86.58 185.84C86.58 185.84 82.26 174.71 73.63 175.39C73.63 175.39 65.81 174.37 61.2 181.98C61.2 181.98 58.54 189.04 59.86 203.91L60.67 205.9C60.66 205.89 65.99 208.16 83.37 208.34Z" fill="#FED68A" stroke="#13110C" stroke-miterlimit="10"/>
<path d="M82.9099 204.68C82.9099 204.68 75.5499 205.3 72.9199 204.41" stroke="#13110C" stroke-miterlimit="10"/>
<path d="M75.24 200.13C79.63 204.36 84.31 199.48 84.31 199.48C84.31 199.48 80.82 196.02 75.24 198.73C75.24 198.72 74.25 199.17 75.24 200.13Z" stroke="#13110C" stroke-miterlimit="10"/>
<path d="M75.55 198.11C75.55 198.11 76.78 195.96 78.94 195.24" stroke="#13110C" stroke-miterlimit="10"/>
<path d="M68.0599 204.4C68.0599 204.4 63.4099 205.22 61.1499 204.13" stroke="#13110C" stroke-miterlimit="10"/>
<path d="M68.36 204.42C68.36 204.42 68.91 195.54 68.36 193.77C68.36 193.77 66.34 186 71.17 188.47C71.17 188.47 72.37 189.22 73.12 188.4C73.12 188.4 76.21 188.4 74.8 191.1" stroke="#13110C" stroke-miterlimit="10"/>
<path d="M60.9401 200.64C64.4001 202.73 67.9501 199.92 67.9501 199.92C67.9501 199.92 68.0901 198.55 67.0001 197.9C66.8301 197.8 58.2801 197.01 60.9401 200.5V200.64Z" stroke="#13110C" stroke-miterlimit="10"/>
<path d="M67.7801 197.76C67.7801 197.76 66.6501 196.16 65.1101 196.03" stroke="#13110C" stroke-miterlimit="10"/>
<path d="M77.9099 199.73C77.9099 199.46 78.5799 199.23 79.4199 199.23C80.2499 199.23 80.9199 199.45 80.9199 199.73C80.9199 200.01 80.2499 200.23 79.4199 200.23C78.5799 200.23 77.9099 200.01 77.9099 199.73Z" stroke="#13110C" stroke-miterlimit="10"/>
<path d="M62.97 199.75C62.95 199.5 63.48 199.27 64.15 199.22C64.82 199.17 65.37 199.33 65.39 199.58C65.41 199.83 64.88 200.06 64.21 200.11C63.54 200.15 62.99 199.99 62.97 199.75Z" stroke="#13110C" stroke-miterlimit="10"/>
<path d="M81.47 186.27C81.47 186.27 81.4 188.77 83.52 187.64C83.52 187.64 85.06 184.97 81.47 184.59C81.47 184.59 78.18 184.42 76.54 185.79C76.54 185.79 74.76 186.62 74.04 186.26" stroke="#13110C" stroke-miterlimit="10"/>
<path d="M76.2701 185.41C76.2701 185.41 74.5201 185.65 74.3201 185.65" stroke="#13110C" stroke-miterlimit="10"/>
<path d="M69.1901 185.53L67.5801 185.41" stroke="#13110C" stroke-miterlimit="10"/>
<path d="M63.64 186.4C63.64 186.4 64.09 188.7 62.07 187.97C62.07 187.97 61.06 187.15 61.39 185.99C61.22 184.07 64.9 184.58 64.9 184.58C65.91 184.71 69.19 186.4 69.19 186.4" stroke="#13110C" stroke-miterlimit="10"/>
<path d="M77.25 182.64H67.78" stroke="#13110C" stroke-miterlimit="10"/>
<path d="M74.6301 183.15H70.8601" stroke="#13110C" stroke-miterlimit="10"/>
<path d="M74.32 181.96H71.2" stroke="#13110C" stroke-miterlimit="10"/>
<path d="M74.32 180.59C74.32 180.59 73.67 179.25 72.16 179.49C72.16 179.49 70.31 178.95 69.97 180.59" stroke="#13110C" stroke-miterlimit="10"/>
<path d="M109.11 182.64C109.11 182.64 111.21 185.03 114.3 181.96C117.39 178.88 114.48 175.23 113.69 174.6C112.9 173.97 109.47 173.76 107.15 177.34C104.83 180.92 104.88 186.04 104.99 187.94C105.11 189.84 103.37 199.35 103.11 200.07C102.86 200.79 100.89 205.56 100.89 205.56" stroke="#13110C" stroke-width="0.5" stroke-miterlimit="10"/>
<path d="M109.53 180.98C109.53 180.98 112.66 182.67 113.69 180.28C114.72 177.89 112.55 175.72 110.93 176.14C109.32 176.56 108.96 178.42 109.1 178.82" stroke="#13110C" stroke-width="0.5" stroke-miterlimit="10"/>
<path d="M111.07 180C111.07 180 112.26 180.11 112.26 178.83C112.26 177.55 110.86 177.48 110.37 178.04" stroke="#13110C" stroke-width="0.5" stroke-miterlimit="10"/>
<path d="M107.15 183.15C107.15 183.15 106.98 179 108.29 178.03" stroke="#13110C" stroke-width="0.5" stroke-miterlimit="10"/>
<path d="M97.1101 206.11V204.41C97.1101 204.41 97.8101 198.96 99.7801 195.34C101.74 191.73 100.55 184.35 100.9 180.59C101.25 176.83 105.95 172.98 105.95 172.98" stroke="#13110C" stroke-width="0.5" stroke-miterlimit="10"/>
<path d="M98.72 206.11V204.89C99.56 204.37 101.74 196.68 101.74 196.68C103.35 192.02 103.12 182.65 103.12 182.65C104.43 173.57 110.38 172.22 110.38 172.22" stroke="#13110C" stroke-width="0.5" stroke-miterlimit="10"/>
<path d="M94.9299 206.11C94.9299 206.11 96.1199 197.06 98.0899 193.62C98.0899 193.62 99.9099 187.87 98.7199 183.73C98.7199 183.73 97.8299 177.55 102.24 173.48" stroke="#13110C" stroke-width="0.5" stroke-miterlimit="10"/>
<path d="M99.4199 173.47C99.4199 173.47 95.4199 178.37 96.2599 183.15C97.0999 187.93 97.0999 190.59 95.4199 193.61C93.7399 196.63 92.9599 205.47 92.8899 206.1" stroke="#13110C" stroke-width="0.5" stroke-miterlimit="10"/>
<path d="M96.4701 174.23C96.4701 174.23 93.3801 177.32 93.3801 181.96C93.3801 186.6 95.3401 186.67 93.3801 191.16C93.3801 191.16 89.9401 202.18 91.2001 205.55" stroke="#13110C" stroke-width="0.5" stroke-miterlimit="10"/>
<path d="M92.3301 176.84C92.3301 176.84 89.8801 181.24 90.9301 184.58C91.9801 187.93 92.8401 188.56 91.5001 191.37C90.1601 194.18 88.8401 204.09 88.9701 204.89" stroke="#13110C" stroke-width="0.5" stroke-miterlimit="10"/>
<path d="M88.9701 179.41C88.9701 179.41 87.7901 184.92 88.9701 187.93C90.1501 190.95 87.2801 204.98 86.5801 206.11" stroke="#13110C" stroke-width="0.5" stroke-miterlimit="10"/>
<path d="M86.91 177.7C86.91 177.7 85.88 182.59 86.23 183.15" stroke="#13110C" stroke-width="0.5" stroke-miterlimit="10"/>
<path d="M81.48 176.09C81.48 176.09 82.85 169.29 88.96 172.7C88.96 172.7 89.69 176.07 86.9 174.81C86.9 174.81 86.66 173.41 87.25 173.48" stroke="#13110C" stroke-width="0.5" stroke-miterlimit="10"/>
<path d="M85.5299 173.47C85.5299 173.47 83.0199 174.67 83.8499 178.45" stroke="#13110C" stroke-width="0.5" stroke-miterlimit="10"/>
<path d="M86.58 175.96C86.58 175.96 85.1 177.53 84.97 179.99" stroke="#13110C" stroke-width="0.5" stroke-miterlimit="10"/>
<path d="M86.1601 170.6C86.1601 170.6 82.6401 170.06 79.5601 175.34" stroke="#13110C" stroke-width="0.5" stroke-miterlimit="10"/>
<path d="M82.9099 170.58C82.9099 170.58 79.3499 172.11 77.9099 174.23" stroke="#13110C" stroke-width="0.5" stroke-miterlimit="10"/>
<path d="M80.4099 170.58C80.4099 170.58 76.3299 173.23 75.9099 173.91" stroke="#13110C" stroke-width="0.5" stroke-miterlimit="10"/>
<path d="M68.8199 174.74C68.8199 174.74 66.1799 171.56 61.1399 170.58" stroke="#13110C" stroke-width="0.5" stroke-miterlimit="10"/>
<path d="M66.9299 175.34C66.9299 175.34 62.7599 171.86 60.4199 171.44" stroke="#13110C" stroke-width="0.5" stroke-miterlimit="10"/>
<path d="M64.19 176.84C64.19 176.84 61.24 172.63 59.49 172.21" stroke="#13110C" stroke-width="0.5" stroke-miterlimit="10"/>
<path d="M61.8399 178.46C61.8399 178.46 58.5799 170.43 54.5099 170.58C54.5099 170.58 49.2499 172.98 54.5099 176.84C54.5099 176.84 58.6499 176.35 55.3499 172.98C55.3499 172.98 52.6099 172.36 54.4399 175.34" stroke="#13110C" stroke-width="0.5" stroke-miterlimit="10"/>
<path d="M58.6499 204.4C58.6499 204.4 57.0299 198.77 57.8799 196.02C58.7199 193.26 59.0699 186.4 58.6499 185.41C58.2299 184.42 59.1299 181.2 59.4899 180.43C59.8399 179.65 59.1799 177.83 58.5599 176.84" stroke="#13110C" stroke-width="0.5" stroke-miterlimit="10"/>
<path d="M57 202.39C57 202.39 55.92 196.07 57 192.14C58.08 188.21 57.04 185.26 57 184.52C56.96 183.79 56.48 181.48 57 180.42C57.52 179.36 57.19 178.06 57 177.69" stroke="#13110C" stroke-width="0.5" stroke-miterlimit="10"/>
<path d="M55.6999 190.86C55.6999 190.86 56.3299 185.65 55.6999 184.58C55.0699 183.51 55.6999 180.35 55.6999 179.4" stroke="#13110C" stroke-width="0.5" stroke-miterlimit="10"/>
<path d="M54.58 189.54C54.58 189.54 54.3 179.22 54.23 178.45" stroke="#13110C" stroke-width="0.5" stroke-miterlimit="10"/>
<path d="M39.94 204.13L39.81 148.07H28.24V204.64L34.19 210.07L39.94 204.13Z" stroke="#231E48" stroke-miterlimit="10"/>
<path d="M36.16 148.59C35.86 149.32 35.72 150.27 35.5 152.53C35.37 153.79 35.07 156.25 35.76 156.91C37.71 158.75 37.16 170.03 36.72 170.58C36.28 171.12 35.05 178.54 36.02 179.41C36.99 180.27 37.86 188.77 36.28 192.79C34.7 196.82 35.4 204.13 35.4 204.13C35.4 204.13 32.85 201.28 34.08 192.61C34.08 192.61 34.62 184.58 33.3 182.64C33.3 182.64 32.08 174.59 33.74 166.97C33.74 166.97 33.79 159.53 32.51 157.96C32.51 157.96 32.16 149.56 32.68 148.59H36.16Z" fill="#FFEA24" stroke="#13110C" stroke-miterlimit="10"/>
<path d="M28.24 147.28H41.1C41.1 147.28 44.86 146.67 45.13 142.64C45.13 142.64 45.26 136.86 39.94 138.88C39.94 138.88 37.6 141.42 41.36 142.03L42.27 141.69C42.27 141.69 42.23 143.7 37.94 142.86C37.94 142.86 30.25 141.15 28.23 142.28V147.28H28.24Z" fill="#FFEA24" stroke="#13110C" stroke-miterlimit="10"/>
<path d="M28.95 138.02C28.95 138.02 33.1999 135.41 36.6899 134.92L38.97 134.43" stroke="#13110C" stroke-miterlimit="10"/>
<path d="M28.95 133.89C28.95 133.89 37.0699 131.87 37.7099 131.87L38.8899 131.85" stroke="#13110C" stroke-miterlimit="10"/>
<path d="M28.95 130.2C28.95 130.2 35.7599 128.53 36.6899 128.53L38.2299 128.6" stroke="#13110C" stroke-miterlimit="10"/>
<path d="M30.6201 141.17C30.6201 141.17 34.7501 138.37 37.9501 138.02L38.9301 137.68" stroke="#13110C" stroke-miterlimit="10"/>
<path d="M92.7301 141.81H90.6001C90.9201 147.02 93.1401 154.78 93.1401 154.78C94.3601 158.73 99.1501 172.51 99.1501 172.51L101.93 172.06C101.93 172.06 97.9801 164.8 96.2701 158.05C96.2601 158.04 93.1401 145.94 92.7301 141.81Z" fill="#FFEA24" stroke="#13110C" stroke-miterlimit="10"/>
<path d="M96.2601 139.27H82.6201V141.81H96.2601V139.27Z" fill="white" stroke="#13110C" stroke-miterlimit="10"/>
<path d="M80.1801 169.6L77.0601 170.97C77.0601 170.97 82.3901 158.36 83.6601 151.29C83.6601 151.29 85.8401 145.02 85.7501 141.81H87.9301C87.9301 141.81 85.8001 155.06 83.9401 159.46L80.1801 169.6Z" fill="#FFEA24" stroke="#13110C" stroke-miterlimit="10"/>
<path d="M88.9699 152.55C88.9699 152.55 91.7099 153.74 91.5699 155.74C91.5699 155.74 91.7399 159.3 89.1599 160.8C89.1599 160.8 86.3499 163.11 88.9699 166.4C88.9699 166.4 92.1799 168.13 92.7599 165.69C92.7599 165.69 93.2699 164.87 92.5199 163.79C92.5199 163.79 92.4199 165.39 91.8399 165.32C91.2599 165.25 89.4599 165.97 89.5299 163.79C89.5299 163.79 89.5999 161.38 91.4999 161.11C93.3999 160.84 96.3499 162.47 95.1999 166.34C95.1999 166.34 93.9099 170.45 90.3499 169.6C90.3499 169.6 84.2699 168.82 85.7999 162.81C85.7999 162.81 86.9899 158.91 89.4299 156.63C89.4299 156.63 90.0399 153.68 87.9199 154.36C87.9199 154.36 89.7699 155.9 87.6999 156.4C87.6999 156.4 85.1899 156.77 86.2099 153.78C86.2099 153.78 86.9099 151.1 88.9699 149.74C88.9699 149.74 89.7699 148.21 88.0799 148.55C88.0799 148.55 86.5199 147.77 88.1499 146.21C88.1499 146.21 91.2699 145.43 90.7999 148.82C90.7999 148.82 90.6199 151.13 88.9799 152.25" fill="#FFEA24"/>
<path d="M95 170.3C95 169.79 95.41 169.38 95.92 169.38C96.43 169.38 96.84 169.79 96.84 170.3C96.84 170.81 96.43 171.22 95.92 171.22C95.41 171.22 95 170.81 95 170.3Z" fill="#FFEA24"/>
<path d="M82.9299 165.58C82.9299 165.17 83.2599 164.83 83.6799 164.83C84.0899 164.83 84.4299 165.16 84.4299 165.58C84.4299 165.99 84.0999 166.33 83.6799 166.33C83.2699 166.33 82.9299 166 82.9299 165.58Z" fill="#FFEA24"/>
<path d="M85.0901 158.62C85.0901 158.23 85.4101 157.91 85.8001 157.91C86.1901 157.91 86.5101 158.23 86.5101 158.62C86.5101 159.01 86.1901 159.33 85.8001 159.33C85.4101 159.33 85.0901 159.02 85.0901 158.62Z" fill="#FFEA24"/>
<path d="M91.95 158.83C91.95 158.45 92.25 158.15 92.63 158.15C93.01 158.15 93.31 158.45 93.31 158.83C93.31 159.21 93.01 159.51 92.63 159.51C92.25 159.51 91.95 159.2 91.95 158.83Z" fill="#FFEA24"/>
<path d="M88.49 143.72C88.49 143.34 88.79 143.04 89.17 143.04C89.55 143.04 89.85 143.34 89.85 143.72C89.85 144.1 89.55 144.4 89.17 144.4C88.79 144.4 88.49 144.1 88.49 143.72Z" fill="#FFEA24"/>
<path d="M99.42 147.61C97.19 139.24 97.42 126.59 97.42 126.59H95.47C95.21 136.29 97.11 146.12 97.11 146.12C99.48 158.91 106.64 171.49 106.64 171.49H109.08C109.08 171.49 99.96 153.22 99.42 147.61Z" fill="#FFEA24" stroke="#13110C" stroke-miterlimit="10"/>
<path d="M92.73 141.81H96.26C96.26 141.81 96.05 148.5 106.33 171.63L101.92 172.06C101.92 172.06 95.82 162.5 92.9 141.81" fill="#E31013"/>
<path d="M92.73 141.81H96.26C96.26 141.81 96.05 148.5 106.33 171.63L101.92 172.06C101.92 172.06 95.82 162.5 92.9 141.81" stroke="#13110C" stroke-miterlimit="10"/>
<path d="M69.6899 172.96C77.8199 161.68 82.6199 141.81 82.6199 141.81H85.7499C85.7499 141.81 86.5099 147.26 77.0699 170.97C77.0699 170.97 72.4299 173.31 71.5599 174.67C71.5599 174.67 70.2399 173.39 69.6899 172.96Z" fill="#E31013" stroke="#13110C" stroke-miterlimit="10"/>
<path d="M67.75 171.74L72.31 163.89C77.46 154.55 79.56 142.31 79.56 142.31C80.67 139.62 80.98 126.59 80.98 126.59L82.91 126.57C82.91 126.57 83.86 144.6 78.97 153.82C78.97 153.82 71.56 172.33 69.19 172.65L67.75 171.74Z" fill="#FFEA24" stroke="#13110C" stroke-miterlimit="10"/>
<path d="M67.75 171.74C61.21 168.62 56.53 169.56 56.53 169.56C62.46 163.18 68.29 145.78 68.29 145.78C71.1 138.69 70.55 126.59 70.55 126.59H80.99C80.98 126.59 81.78 150.72 67.75 171.74Z" fill="#13110C" stroke="#13110C" stroke-miterlimit="10"/>
<path d="M69.0701 164.56C69.4501 168.77 65.2901 166.32 65.2901 166.32L64.6901 169.16L62.6501 168.23L64.4001 165.73C64.4001 165.73 59.5401 163.72 64.2801 160.87L67.9601 159.34L69.0701 164.56Z" fill="white"/>
<path d="M74.3901 152.19C74.9501 156.38 70.6901 154.11 70.6901 154.11L70.2201 156.97L68.1501 156.12L69.7901 153.55C69.7901 153.55 64.8501 151.75 69.4701 148.7L73.0801 147.02L74.3901 152.19Z" fill="white"/>
<path d="M77.93 138.31C79.51 142.23 74.82 141.09 74.82 141.09L75.07 143.98L72.85 143.68L73.8 140.78C73.8 140.78 68.57 140.26 72.29 136.16L75.37 133.63L77.93 138.31Z" fill="white"/>
<path d="M70.5399 126.59L68.1399 126.48C68.1399 126.48 69.3099 138.82 62.8099 153.23C62.8099 153.23 58.1199 164.88 53.1699 169.89L56.5199 169.56C56.5199 169.57 69.1899 153.01 70.5399 126.59Z" fill="#FFEA24" stroke="#13110C" stroke-miterlimit="10"/>
<path d="M123.39 170.58C123.39 170.58 113.86 153.67 113.21 148.19C113.21 148.19 109.24 135.35 110.36 126.6L107.71 126.58C107.71 126.58 106.87 138.37 110.36 149.05C110.36 149.05 113.84 161.09 121.22 171.45L123.39 170.58Z" fill="#FFEA24" stroke="#13110C" stroke-miterlimit="10"/>
<path d="M109.74 167.7C106.48 165 111.15 163.78 111.15 163.78L109.56 161.36L111.66 160.57L112.2 163.57C112.2 163.57 117.05 161.53 115.73 166.91L114.22 170.6L109.74 167.7Z" fill="white"/>
<path d="M103.68 154.73C100.61 151.83 105.35 150.91 105.35 150.91L103.92 148.39L106.06 147.74L106.4 150.77C106.4 150.77 111.37 149.06 109.7 154.33L107.95 157.91L103.68 154.73Z" fill="white"/>
<path d="M100.48 140.61C98.07 137.14 102.89 137.21 102.89 137.21L102.01 134.45L104.24 134.26L103.96 137.3C103.96 137.3 109.18 136.64 106.46 141.47L104.01 144.61L100.48 140.61Z" fill="white"/>
<path d="M66.2401 143.55C66.2401 143.55 49.5701 136.37 43.6001 126.32H48.0901C48.0901 126.32 54.4601 135.06 67.0801 139.9L66.2401 143.55Z" fill="#13110C" stroke="#13110C" stroke-miterlimit="10"/>
<path d="M62.2099 143.04C62.2099 143.04 59.1399 157.07 45.6799 172.21" stroke="white" stroke-miterlimit="10"/>
<path d="M52.1699 137.69C52.1699 137.69 48.1299 152.82 40.9399 159.51" stroke="white" stroke-miterlimit="10"/>
<path d="M55.8901 139.72C55.8901 139.72 52.8801 139.87 53.1401 146.35C53.1501 146.57 53.1601 146.8 53.1801 147.03C53.1801 147.03 55.1301 157.14 53.4001 157.92C53.4001 157.92 49.6501 162.88 47.0101 158.24C47.0101 158.24 46.1401 154.76 49.0301 154.71C49.0301 154.71 51.4301 154.92 50.5701 156.98C50.5701 156.98 50.1401 157.84 49.5601 157.36" stroke="white" stroke-miterlimit="10"/>
<path d="M53.1399 146.35C55.2399 149.76 58.2999 147.74 58.2999 147.74C58.2999 147.74 61.1899 143.8 57.0099 143.37C57.0099 143.37 55.2899 144.04 57.0099 145.1" stroke="white" stroke-miterlimit="10"/>
<path d="M49.6901 160.22C49.6901 160.22 44.7901 161.1 43.1501 162.93C43.1501 162.93 40.4601 163.89 42.1901 167.78C42.1901 167.78 44.5001 169.99 45.6501 167.01C45.6501 167.01 45.8401 164.66 44.1601 165.47" stroke="white" stroke-miterlimit="10"/>
<path d="M48.89 143.96C48.89 143.96 42.34 129.09 41.71 127.54" stroke="white" stroke-miterlimit="10"/>
<path d="M49.74 138.71C49.74 138.71 46.67 134.13 46.26 132.87" stroke="white" stroke-miterlimit="10"/>
<path d="M65.9801 132.25C66.5501 133.56 66.6101 134.79 66.1301 135C65.6501 135.21 64.8001 134.31 64.2401 133C63.6801 131.69 63.6101 130.46 64.0901 130.25C64.5601 130.04 65.4101 130.94 65.9801 132.25Z" fill="#FFEA24"/>
<path d="M56.9599 127C58.3899 127.01 59.5399 127.45 59.5299 127.98C59.5199 128.51 58.3599 128.92 56.9399 128.9C55.5099 128.88 54.3599 128.44 54.3699 127.92C54.3699 127.39 55.5399 126.98 56.9599 127Z" fill="#FFEA24"/>
<path d="M66.7499 137.69C66.7499 137.69 61.0899 134.54 61.8599 128.9C61.8599 128.9 56.0599 131.63 51.9399 127.54" stroke="white" stroke-miterlimit="10"/>
<path d="M67.7499 129.82C67.7499 129.82 64.3799 128.61 62.6299 127L67.7499 129.82Z" fill="white"/>
<path d="M67.7499 129.82C67.7499 129.82 64.3799 128.61 62.6299 127" stroke="white" stroke-miterlimit="10"/>
<path d="M87.6299 136.2C87.6299 135.35 88.3199 134.67 89.1599 134.67C90.0099 134.67 90.6899 135.36 90.6899 136.2C90.6899 137.05 89.9999 137.73 89.1599 137.73C88.3199 137.73 87.6299 137.05 87.6299 136.2Z" fill="#FFEA24"/>
<path d="M94.5301 126.99L89.4201 131.59L84.3501 126.99" fill="#FFEA24"/>
<path d="M91.98 131.21C91.98 130.8 92.31 130.46 92.73 130.46C93.14 130.46 93.48 130.79 93.48 131.21C93.48 131.62 93.15 131.96 92.73 131.96C92.32 131.96 91.98 131.62 91.98 131.21Z" fill="#FFEA24"/>
<path d="M85.74 131.21C85.74 130.8 86.07 130.46 86.49 130.46C86.9 130.46 87.24 130.79 87.24 131.21C87.24 131.62 86.91 131.96 86.49 131.96C86.08 131.96 85.74 131.62 85.74 131.21Z" fill="#FFEA24"/>
<path d="M113.66 126.57C113.66 126.57 119.36 129.12 123.39 136.9C123.39 136.9 129.14 144.79 126.71 156.93C126.71 156.93 124.22 165.72 122.22 168.46L123.39 170.58L124.36 170.18C124.36 170.18 129.06 164.58 129.35 150.24C129.35 150.24 128.21 134.93 122 130.76C122 130.76 118.79 127.3 116.86 126.57H113.66Z" fill="white" stroke="#13110C" stroke-miterlimit="10"/>
<path d="M131.21 166.33C131.21 166.33 130.07 163.5 128.5 162.44C128.5 162.44 134.92 160.88 135.35 157.92C135.35 157.92 136.92 149.96 130.29 149.18C130.29 149.18 135.64 146.11 134.64 140.55C134.64 140.55 133.93 135.7 126.65 135.2C126.65 135.2 129.93 129.59 126.22 127.01" stroke="white" stroke-miterlimit="10"/>
<path d="M131.09 157.54C132.12 156.68 133.26 156.34 133.64 156.79C134.02 157.24 133.48 158.3 132.45 159.17C131.42 160.03 130.28 160.37 129.9 159.92C129.53 159.47 130.06 158.4 131.09 157.54Z" fill="#FFEA24"/>
<path d="M131.21 153.49C130.38 152.44 130.07 151.29 130.53 150.92C130.99 150.56 132.04 151.12 132.87 152.17C133.7 153.22 134.01 154.37 133.55 154.74C133.09 155.1 132.04 154.54 131.21 153.49Z" fill="#FFEA24"/>
<path d="M130.85 143.88C131.52 142.71 132.47 142 132.98 142.29C133.49 142.58 133.36 143.76 132.69 144.93C132.02 146.1 131.07 146.81 130.56 146.52C130.06 146.22 130.18 145.04 130.85 143.88Z" fill="#FFEA24"/>
<path d="M131.03 138.02C132.02 138.93 132.5 140.02 132.11 140.45C131.71 140.88 130.59 140.49 129.6 139.58C128.61 138.67 128.13 137.58 128.53 137.15C128.92 136.72 130.04 137.11 131.03 138.02Z" fill="#FFEA24"/>
<path d="M124.09 130.19C124.04 128.85 124.48 127.74 125.06 127.72C125.64 127.7 126.16 128.77 126.21 130.12C126.26 131.46 125.82 132.57 125.24 132.59C124.65 132.6 124.14 131.53 124.09 130.19Z" fill="#FFEA24"/>
<path d="M127.3 166.08C127.4 165.28 127.95 164.69 128.53 164.76C129.11 164.83 129.5 165.54 129.41 166.34C129.31 167.14 128.76 167.73 128.18 167.66C127.59 167.59 127.2 166.88 127.3 166.08Z" fill="#FFEA24"/>
<path d="M129.36 126.59C141.84 145.67 135.74 165.04 135.74 165.04L140.82 162.36C140.82 162.36 142.92 136.89 134.29 126.58H129.36V126.59Z" fill="#13110C" stroke="#13110C" stroke-miterlimit="10"/>
<path d="M141.04 162.25V156.39L145.93 159.32C145.92 159.32 142.31 161.57 141.04 162.25Z" fill="#E31013" stroke="#13110C" stroke-miterlimit="10"/>
<path d="M141.04 155.88C141.04 155.88 140.95 145.67 139.36 138.26L149.71 150.25V156.4C149.71 156.4 147.83 158.16 145.93 159.33L141.04 155.88Z" fill="#FFEA24" stroke="#13110C" stroke-miterlimit="10"/>
<path d="M141.04 142.61L147.83 150.81L143.98 154.85L141.41 151.74" stroke="#13110C" stroke-miterlimit="10"/>
<path d="M149.12 152.83L144.53 156.7" stroke="#13110C" stroke-miterlimit="10"/>
<path d="M141.34 146.58L143.91 149.74L142.63 150.81L141.34 149.81" stroke="#13110C" stroke-miterlimit="10"/>
<path d="M136.63 126.57C140.77 138.78 149.7 146.58 149.7 146.58V149.62C149.7 149.62 139.34 141.04 134.27 126.6L136.63 126.57Z" fill="white" stroke="#13110C" stroke-miterlimit="10"/>
<path d="M43.5999 152.83H40.9399" stroke="#942830" stroke-miterlimit="10"/>
<path d="M44.6799 150.24H40.9399" stroke="#942830" stroke-miterlimit="10"/>
<path d="M45.6801 148.07H41.6201" stroke="#942830" stroke-miterlimit="10"/>
<path d="M149.71 146.58C149.71 146.58 143.94 141.05 141.34 136.38C141.34 136.38 145.16 136.22 145.92 131.41C145.92 131.41 148.52 129.77 149.11 129.84H149.7V146.58H149.71Z" fill="#E31013" stroke="#13110C" stroke-miterlimit="10"/>
<path d="M149.12 141.25H146.33" stroke="#942830" stroke-miterlimit="10"/>
<path d="M149.12 138.8H144.53" stroke="#942830" stroke-miterlimit="10"/>
<path d="M149.12 136.47H143.91" stroke="#942830" stroke-miterlimit="10"/>
<path d="M141.93 132.88C141.93 132.02 142.62 131.33 143.48 131.33C144.33 131.33 145.03 132.02 145.03 132.88C145.03 133.73 144.34 134.43 143.48 134.43C142.63 134.43 141.93 133.73 141.93 132.88Z" fill="#FFEA24"/>
<path d="M88.97 126.59H149.7H139.98C138.41 127.49 141.99 128.55 141.99 128.55C140.5 128.84 140.98 129.62 141.93 130.46C142.88 131.3 145.92 131.4 145.92 131.4C145.92 131.4 146.8 130.47 149.7 129.83V126.59" fill="#FED68A"/>
<path d="M88.97 126.59H149.7M149.7 126.59H139.98C138.41 127.49 141.99 128.55 141.99 128.55C140.5 128.84 140.98 129.62 141.93 130.46C142.88 131.3 145.92 131.4 145.92 131.4C145.92 131.4 146.8 130.47 149.7 129.83V126.59Z" stroke="#13110C" stroke-miterlimit="10"/>
<path d="M147.73 128.62C147.73 128.62 144.15 127.76 142 128.55" stroke="#13110C" stroke-miterlimit="10"/>
<path d="M122.08 163.79C122.08 163.79 122.84 162.94 123.12 161.57C123.25 160.93 123.28 160.18 123.07 159.35" stroke="#FFEA24" stroke-miterlimit="10"/>
<path d="M119.01 160.12L123.12 161.57" stroke="#FFEA24" stroke-miterlimit="10"/>
<path d="M125.15 155.23V152.74V150.24" stroke="#FFEA24" stroke-miterlimit="10"/>
<path d="M119.65 152.45L125.15 152.74" stroke="#FFEA24" stroke-miterlimit="10"/>
<path d="M114.73 149.04L121.07 148.79" stroke="#FFEA24" stroke-miterlimit="10"/>
<path d="M118.44 145.82L123.79 143.72" stroke="#FFEA24" stroke-miterlimit="10"/>
<path d="M113.66 144.6L117.9 141.25" stroke="#FFEA24" stroke-miterlimit="10"/>
<path d="M115.51 138.54L119.01 135.03" stroke="#FFEA24" stroke-miterlimit="10"/>
<path d="M111.31 132.58L113.38 129.29" stroke="#FFEA24" stroke-miterlimit="10"/>
<path d="M121.07 150.52L120.72 147.03" stroke="#FFEA24" stroke-miterlimit="10"/>
<path d="M124.65 145.82L122.65 141.25" stroke="#FFEA24" stroke-miterlimit="10"/>
<path d="M119.34 142.93L116.73 139.43" stroke="#FFEA24" stroke-miterlimit="10"/>
<path d="M121.07 137.69L117.26 132.88" stroke="#FFEA24" stroke-miterlimit="10"/>
<path d="M114.73 136.78L111.95 133.63" stroke="#FFEA24" stroke-miterlimit="10"/>
<path d="M114.73 130.94L111.31 128.22" stroke="#FFEA24" stroke-miterlimit="10"/>
<path d="M113.34 135.28L111.95 137.69" stroke="#FFEA24" stroke-miterlimit="10"/>
<path d="M120.29 157.63L120.89 154.45" stroke="#FFEA24" stroke-miterlimit="10"/>
<path d="M116.73 154.85L120.59 155.73" stroke="#FFEA24" stroke-miterlimit="10"/>
<path d="M122.44 156.93C122.44 156.55 122.74 156.25 123.12 156.25C123.5 156.25 123.8 156.55 123.8 156.93C123.8 157.31 123.5 157.61 123.12 157.61C122.75 157.61 122.44 157.31 122.44 156.93Z" fill="#FFEA24"/>
<path d="M123.79 149.42C124.254 149.42 124.63 149.044 124.63 148.58C124.63 148.116 124.254 147.74 123.79 147.74C123.326 147.74 122.95 148.116 122.95 148.58C122.95 149.044 123.326 149.42 123.79 149.42Z" fill="#FFEA24"/>
<path d="M120.13 140.04C120.13 139.61 120.47 139.27 120.9 139.27C121.33 139.27 121.67 139.61 121.67 140.04C121.67 140.46 121.33 140.81 120.9 140.81C120.47 140.81 120.13 140.46 120.13 140.04Z" fill="#FFEA24"/>
<path d="M114.73 132.88C114.73 132.45 115.08 132.1 115.51 132.1C115.94 132.1 116.29 132.45 116.29 132.88C116.29 133.31 115.94 133.66 115.51 133.66C115.08 133.66 114.73 133.31 114.73 132.88Z" fill="#FFEA24"/>
<path d="M78.3901 125.05C80.6601 128.62 75.8401 128.34 75.8401 128.34L76.6101 131.14L74.3701 131.24L74.7801 128.22C74.7801 128.22 69.5401 128.66 72.4601 123.95L75.0301 120.91L78.3901 125.05Z" fill="white"/>
<path d="M99.5101 128.22C97.5801 124.46 102.36 125.18 102.36 125.18L101.85 122.32L104.09 122.43L103.4 125.4C103.4 125.4 108.66 125.45 105.32 129.86L102.47 132.65L99.5101 128.22Z" fill="white"/>
</svg>
