<svg width="180" height="254" viewBox="0 0 180 254" fill="none" xmlns="http://www.w3.org/2000/svg">
<rect x="0.5" y="0.5" width="179" height="253" rx="14.5" fill="white" stroke="#1D1D1B"/>
<path d="M148.26 119.95V101.56L148.16 95.5001L129.52 77.1401L72.38 77.9101L55.26 96.3801L75.1 120.71L148.26 119.95Z" fill="#13110C" stroke="#13110C" stroke-miterlimit="10"/>
<path d="M76.6501 127.44C76.6001 123.32 75.1101 119.24 75.1101 119.24H100.46C100.46 119.24 99.5601 125.85 99.9101 127.71L76.6601 127.57" fill="#211C4B"/>
<path d="M76.6501 127.44C76.6001 123.32 75.1101 119.24 75.1101 119.24H100.46C100.46 119.24 99.5601 125.85 99.9101 127.71L76.6601 127.57" stroke="#13110C" stroke-miterlimit="10"/>
<path d="M102.45 127.44C102.45 127.44 100.64 115.42 106.98 109.51C106.98 109.51 115.43 98.9501 124.73 99.5601C124.73 99.5601 133.82 99.1401 142.01 102.67L146.79 105.08L126.75 127.44H102.45Z" fill="#13110C" stroke="#13110C" stroke-miterlimit="10"/>
<path d="M131.11 127.44L148.26 108.69L148.16 127.44H131.11Z" fill="#211C4B" stroke="#13110C" stroke-miterlimit="10"/>
<path d="M146.65 119.83C146.54 118.13 145.29 118.86 145.29 118.86C145.25 117.61 144.35 117.7 144.35 117.7C143.1 117.53 143.96 121.57 143.96 121.57C143.96 121.57 146.69 120.46 146.65 119.83Z" fill="white"/>
<path d="M58.6001 118.73C58.6001 118.73 61.9201 122.38 62.5501 127.44H74.4601C74.4601 127.44 75.6501 120.98 66.4101 110.11L58.6001 118.73Z" fill="#13110C" stroke="#13110C" stroke-miterlimit="10"/>
<path d="M30.8899 127.44H46.0199L63.6299 108.69L55.4499 100.92L30.8899 127.44Z" fill="#211C4B" stroke="#13110C" stroke-miterlimit="10"/>
<path d="M50.7 85.1602H38.23V96.9602H50.7V85.1602Z" fill="#211C4B"/>
<path d="M48.3599 94.2502C53.2499 95.0802 53.1599 91.3702 53.1599 91.3702C53.7599 87.0602 47.7799 88.0802 47.7799 88.0802C49.4099 82.8502 45.0899 82.4702 45.0899 82.4702C40.2699 82.7902 42.0299 88.5502 42.0299 88.5502C42.0299 88.5502 36.8899 87.9702 37.0099 92.1702C37.0099 92.1702 37.1599 95.5102 42.1699 94.8102C42.1699 94.8102 41.4999 98.8402 45.3799 98.8002C45.3799 98.7902 48.9199 98.7902 48.3599 94.2502Z" fill="#FFEA24" stroke="#13110C" stroke-miterlimit="10"/>
<path d="M122.77 80.1902C119.52 77.3502 115.72 71.7202 115.72 71.7202C108.75 75.7502 96.54 75.5402 96.54 75.5402C88.79 76.0402 76.89 71.7202 76.89 71.7202L70.28 80.7902C70.28 80.7902 93.92 93.7402 121.49 81.1502L122.77 80.1902Z" fill="#211C4B" stroke="#13110C" stroke-miterlimit="10"/>
<path d="M76.29 82.1299C79.35 81.6599 80.95 74.6299 80.95 74.6299L79.38 74.0199C78.01 79.6599 75.87 80.5299 75.87 80.5299C74.12 79.1499 77.26 73.1999 77.26 73.1999L75.25 72.4199C75.25 72.4199 71.51 81.0899 75.06 81.6599L76.29 82.1299Z" fill="#FFEA24"/>
<path d="M74.55 77.1501L77.59 75.1401L79.11 78.9201L75.86 80.5201L74.55 77.1501Z" fill="#E31013"/>
<path d="M118.41 81.5198C120.48 79.2198 117.26 72.7598 117.26 72.7598L115.65 73.2798C118.16 78.5098 117.05 80.5398 117.05 80.5398C114.82 80.5798 113.48 73.9798 113.48 73.9798L111.43 74.6498C111.43 74.6498 114.03 83.7198 117.13 81.9198L118.41 81.5198Z" fill="#FFEA24"/>
<path d="M113.91 78.7598L114.99 75.2798L118.55 77.2498L117.06 80.5398L113.91 78.7598Z" fill="#E31013"/>
<path d="M110.62 61.24C101.77 73.89 94.19 73.26 94.19 73.26C88.14 73.06 84.1 62.93 84.1 62.93C81.8 59.05 82.2 40.37 82.2 40.37V30.23H106.26C106.26 30.23 104.99 44.19 110.62 61.24Z" fill="#FED68A" stroke="#13110C" stroke-miterlimit="10"/>
<path d="M155.89 229.13C156.72 229.13 157.31 229.17 157.68 229.24C158.1 229.34 158.51 229.53 158.9 229.83C159.78 229.12 160.75 228.76 161.8 228.76C162.93 228.76 163.95 229.17 164.84 229.98C165.78 230.82 166.25 231.8 166.25 232.92V234.47H167.4V236.49C167.36 236.5 166.97 236.53 166.25 236.57V242.81C166.25 243.94 165.78 244.93 164.84 245.77C163.94 246.58 162.93 246.99 161.8 246.99C160.67 246.99 159.64 246.58 158.72 245.75C157.8 244.92 157.34 243.94 157.34 242.81V232.92C157.34 232.44 157.44 231.98 157.63 231.51C157.43 231.38 157.25 231.3 157.08 231.26H155.88V229.13H155.89ZM164.1 236.57C163.25 236.47 162.39 236.08 161.54 235.39C161.01 234.97 160.33 234.3 159.5 233.37V242.8C159.5 243.3 159.74 243.76 160.22 244.16C160.7 244.57 161.22 244.77 161.78 244.77C162.34 244.77 162.87 244.57 163.36 244.16C163.85 243.75 164.09 243.3 164.09 242.8V236.57H164.1ZM160.53 231.37L163.24 234.05C163.46 234.28 163.75 234.42 164.1 234.47V232.94C164.1 232.44 163.86 231.99 163.37 231.58C162.88 231.17 162.35 230.96 161.79 230.96C161.36 230.96 160.94 231.1 160.53 231.37Z" fill="#13110C"/>
<path d="M21.4099 24.83C20.5799 24.83 19.9899 24.79 19.6199 24.72C19.1999 24.62 18.7899 24.43 18.3999 24.13C17.5199 24.84 16.5499 25.2 15.4999 25.2C14.3699 25.2 13.3499 24.79 12.4599 23.98C11.5199 23.14 11.0499 22.16 11.0499 21.04V19.5H9.8999V17.48C9.9399 17.47 10.3299 17.44 11.0499 17.4V11.16C11.0499 10.03 11.5199 9.03998 12.4599 8.19998C13.3599 7.38998 14.3699 6.97998 15.4999 6.97998C16.6299 6.97998 17.6599 7.38998 18.5799 8.21998C19.4999 9.04998 19.9599 10.03 19.9599 11.16V21.05C19.9599 21.53 19.8599 21.99 19.6699 22.46C19.8699 22.59 20.0499 22.67 20.2199 22.71H21.4199V24.83H21.4099ZM13.1999 17.39C14.0499 17.49 14.9099 17.88 15.7599 18.57C16.2899 18.99 16.9699 19.66 17.7999 20.59V11.16C17.7999 10.66 17.5599 10.2 17.0799 9.79998C16.5999 9.38998 16.0799 9.18998 15.5199 9.18998C14.9599 9.18998 14.4399 9.38998 13.9399 9.79998C13.4499 10.21 13.2099 10.66 13.2099 11.16V17.39H13.1999ZM16.7699 22.6L14.0599 19.92C13.8399 19.69 13.5499 19.55 13.1999 19.5V21.03C13.1999 21.53 13.4399 21.98 13.9299 22.39C14.4199 22.8 14.9499 23.01 15.5099 23.01C15.9499 23 16.3699 22.87 16.7699 22.6Z" fill="#13110C"/>
<path d="M148.16 224.65H28.74V30.23H116.99H148.16V224.65Z" stroke="#13110C" stroke-miterlimit="10"/>
<path d="M116.99 30.2302C121.76 43.1202 137.53 65.0502 137.53 65.0502C137.53 65.0502 141.16 63.0602 148.16 62.6602C148.16 62.6602 135.28 42.8502 147.21 30.2202H116.99V30.2302Z" fill="#FFEA24" stroke="#13110C" stroke-miterlimit="10"/>
<path d="M121.1 30.23C121.1 30.23 122.82 39.21 128.12 41.86C128.12 41.86 122.42 32.65 124.61 30.23H121.1Z" fill="#211C4B"/>
<path d="M135.15 50.7402C133.16 50.6102 130.38 45.7002 130.38 45.7002C130.38 45.7002 130.91 53.5202 138.86 60.0102C138.86 60.0202 134.36 52.2002 135.15 50.7402Z" fill="#211C4B"/>
<path d="M125.74 31.1201C125.74 31.1201 126.14 37.2201 129.85 39.8701" stroke="#211C4B" stroke-miterlimit="10"/>
<path d="M131.44 42.79C131.44 42.79 133.43 48.89 137.14 49.81C137.14 49.81 137.4 56.84 141.25 59.22" stroke="#211C4B" stroke-miterlimit="10"/>
<path d="M130.38 43.4498C130.38 44.1098 129.85 44.6398 129.19 44.6398C128.53 44.6398 128 44.1098 128 43.4498C128 42.7898 128.53 42.2598 129.19 42.2598C129.85 42.2598 130.38 42.7898 130.38 43.4498Z" fill="#211C4B" stroke="#211C4B" stroke-miterlimit="10"/>
<path d="M141.25 61.7398C141.25 62.3998 140.72 62.9298 140.06 62.9298C139.4 62.9298 138.87 62.3998 138.87 61.7398C138.87 61.0798 139.4 60.5498 140.06 60.5498C140.72 60.5498 141.25 61.0798 141.25 61.7398Z" fill="#211C4B" stroke="#211C4B" stroke-miterlimit="10"/>
<path d="M135.6 38.3801C133.46 39.7001 131.61 40.5701 131.45 40.3201C131.3 40.0701 132.9 38.8001 135.04 37.4701C137.18 36.1501 139.03 35.2801 139.19 35.5301C139.34 35.7901 137.74 37.0601 135.6 38.3801Z" fill="#211C4B" stroke="#211C4B" stroke-miterlimit="10"/>
<path d="M130.91 35.42C131.19 37.47 131.18 39.17 130.89 39.21C130.6 39.25 130.14 37.62 129.86 35.57C129.58 33.52 129.59 31.82 129.88 31.78C130.16 31.74 130.62 33.37 130.91 35.42Z" fill="#211C4B" stroke="#211C4B" stroke-miterlimit="10"/>
<path d="M135.64 43.0299C137.28 44.2899 138.47 45.4999 138.29 45.7399C138.11 45.9699 136.64 45.1399 134.99 43.8799C133.35 42.6199 132.16 41.4099 132.34 41.1699C132.52 40.9299 134 41.7699 135.64 43.0299Z" fill="#211C4B" stroke="#211C4B" stroke-miterlimit="10"/>
<path d="M143.84 58.42C142.9 59 142.01 59.27 141.86 59.02C141.71 58.77 142.34 58.1 143.28 57.52C144.22 56.94 145.11 56.67 145.26 56.92C145.41 57.16 144.78 57.84 143.84 58.42Z" fill="#211C4B" stroke="#211C4B" stroke-miterlimit="10"/>
<path d="M141.31 54.1201C141.59 56.1701 141.58 57.8701 141.29 57.9101C141 57.9501 140.54 56.3201 140.26 54.2701C139.98 52.2201 139.99 50.5201 140.28 50.4801C140.57 50.4301 141.03 52.0601 141.31 54.1201Z" fill="#211C4B" stroke="#211C4B" stroke-miterlimit="10"/>
<path d="M144.33 60.4001C145.02 60.9301 145.44 61.5501 145.26 61.7801C145.08 62.0101 144.38 61.7701 143.69 61.2401C143 60.7101 142.58 60.0901 142.76 59.8601C142.93 59.6201 143.63 59.8701 144.33 60.4001Z" fill="#211C4B" stroke="#211C4B" stroke-miterlimit="10"/>
<path d="M116.99 30.23H113.68C113.68 30.23 125.08 58.16 134.62 66.91C134.62 66.91 136.67 65.45 137.54 65.06C137.54 65.05 121.9 43.12 116.99 30.23Z" fill="#E31013" stroke="#13110C" stroke-miterlimit="10"/>
<path d="M109.71 30.23H113.69C113.69 30.23 125.66 64.66 148.17 81.49V93.55C148.16 93.55 132.63 84.21 109.71 30.23Z" fill="#13110C" stroke="#13110C" stroke-miterlimit="10"/>
<path d="M106.98 30.23H109.7C109.7 30.23 127.09 74.28 148.16 93.55L148.25 101.57C148.26 101.56 125.48 80.64 106.98 30.23Z" fill="#E31013" stroke="#13110C" stroke-miterlimit="10"/>
<path d="M82.2099 47.1602L65.1099 72.3402C61.3199 76.9502 66.4399 84.6302 66.4399 84.6302L62.8599 87.5002C55.6899 79.5102 60.4999 71.4202 60.4999 71.4202C61.1099 69.2702 72.2699 54.8302 72.2699 54.8302C81.0699 43.4702 80.4599 30.2202 80.4599 30.2202H82.1999V47.1602H82.2099Z" fill="#E31013" stroke="#13110C" stroke-miterlimit="10"/>
<path d="M82.21 55.8602V47.1602L66.13 70.8402C66.13 70.8402 61.88 75.1302 64.47 80.5402L66.44 84.6202L70.02 81.1402C70.02 81.1402 66.95 75.3002 70.12 72.1302L82.21 55.8602Z" fill="#13110C" stroke="#13110C" stroke-miterlimit="10"/>
<path d="M82.21 56.27C82.21 56.27 83.13 61.39 83.75 62.31L70.02 81.15C70.02 81.15 67.61 75.94 69.07 73.77L82.21 56.27Z" fill="#E31013" stroke="#13110C" stroke-miterlimit="10"/>
<path d="M82.21 30.23V40.37C82.21 40.37 90.91 37.35 92.45 30.23H82.21Z" fill="#AFA3C7" stroke="#13120D" stroke-width="0.5" stroke-miterlimit="10"/>
<path d="M140.06 92.26C130.24 89.85 122.14 79.41 122.14 79.41C103.92 62.62 106.27 30.23 106.27 30.23H106.99C106.98 30.23 122.54 71.36 140.06 92.26Z" fill="#AFA3C7" stroke="#13120D" stroke-miterlimit="10"/>
<path d="M106.26 30.23C106.26 30.23 105.14 36.49 106.16 39.21C106.16 39.21 92.9499 37.05 92.4399 30.23H106.26Z" fill="#AFA3C7" stroke="#13120D" stroke-width="0.5" stroke-miterlimit="10"/>
<path d="M83.03 37.2298C83.03 37.2298 87.53 34.7298 88.87 31.7798" stroke="#13110C" stroke-width="0.5" stroke-miterlimit="10"/>
<path d="M83.03 35.2998C83.03 35.2998 85.69 34.1098 87.33 31.7798" stroke="#13110C" stroke-width="0.5" stroke-miterlimit="10"/>
<path d="M83.03 33.0298C83.03 33.0298 84.67 32.7798 85.18 31.7798" stroke="#13110C" stroke-width="0.5" stroke-miterlimit="10"/>
<path d="M83.74 37.9298C83.74 37.9298 89.78 35.3398 90.19 31.7798" stroke="#13110C" stroke-width="0.5" stroke-miterlimit="10"/>
<path d="M94.1799 31.1201C94.1799 31.1201 98.5799 36.6101 104.72 37.2301" stroke="#13110C" stroke-width="0.5" stroke-miterlimit="10"/>
<path d="M96.54 31.1201C96.54 31.1201 100.47 35.3201 104.73 35.3001" stroke="#13110C" stroke-width="0.5" stroke-miterlimit="10"/>
<path d="M99.46 31.1201C99.46 31.1201 101.76 33.6301 104.73 33.5401" stroke="#13110C" stroke-width="0.5" stroke-miterlimit="10"/>
<path d="M102.89 31.1201C102.89 31.1201 103.49 32.4101 104.73 32.3301" stroke="#13110C" stroke-width="0.5" stroke-miterlimit="10"/>
<path d="M107.8 46.6499C107.8 46.6499 110.15 50.2299 115.27 52.3799" stroke="#13110C" stroke-width="0.5" stroke-miterlimit="10"/>
<path d="M108.72 50.4702C108.72 50.4702 112.1 53.8102 116.19 54.8402" stroke="#13110C" stroke-width="0.5" stroke-miterlimit="10"/>
<path d="M109.71 54.1899C109.71 54.1899 113.13 56.7999 117.84 57.9699" stroke="#13110C" stroke-width="0.5" stroke-miterlimit="10"/>
<path d="M110.87 57.8999C110.87 57.8999 115.99 60.9899 118.96 61.2399" stroke="#13110C" stroke-width="0.5" stroke-miterlimit="10"/>
<path d="M112.46 61.7402C112.46 61.7402 117.21 64.2102 121.11 65.0502" stroke="#13110C" stroke-width="0.5" stroke-miterlimit="10"/>
<path d="M113.68 65.0498C113.68 65.0498 117.43 67.3298 123.11 68.7098" stroke="#13110C" stroke-width="0.5" stroke-miterlimit="10"/>
<path d="M115.27 68.71C115.27 68.71 121.61 72.44 125.61 73.26" stroke="#13110C" stroke-width="0.5" stroke-miterlimit="10"/>
<path d="M117.83 72.6499C117.83 72.6499 124.29 77.1499 128.12 77.4599" stroke="#13110C" stroke-width="0.5" stroke-miterlimit="10"/>
<path d="M123.11 78.5898C123.11 78.5898 127.67 80.8498 130.38 81.1498" stroke="#13110C" stroke-width="0.5" stroke-miterlimit="10"/>
<path d="M126.75 82.8901C126.75 82.8901 132.27 85.8601 133.5 85.5501" stroke="#13110C" stroke-width="0.5" stroke-miterlimit="10"/>
<path d="M131.11 86.5698C131.11 86.5698 134.64 88.6298 135.75 88.4098" stroke="#13110C" stroke-width="0.5" stroke-miterlimit="10"/>
<path d="M107.8 43.4502C107.8 43.4502 112.49 49.4502 113.68 49.5202" stroke="#13110C" stroke-width="0.5" stroke-miterlimit="10"/>
<path d="M107.8 41.1201C107.8 41.1201 110.87 43.8801 111.54 44.1901" stroke="#13110C" stroke-width="0.5" stroke-miterlimit="10"/>
<path d="M106.98 37.9302C106.98 37.9302 109.15 40.3402 109.7 40.3702" stroke="#13110C" stroke-width="0.5" stroke-miterlimit="10"/>
<path d="M106.98 36.04L108.72 37.93" stroke="#13110C" stroke-width="0.5" stroke-miterlimit="10"/>
<path d="M83.03 41.1201C83.03 41.1201 87.43 39.0101 90.2 41.8501C90.2 41.8501 90.92 48.1001 88.46 54.1801C88.46 54.1801 85.59 58.0001 90.81 58.4101" stroke="#13110C" stroke-miterlimit="10"/>
<path d="M90.81 58.4198C90.81 58.4198 90.2 56.1698 92.45 57.3998C92.45 57.3998 96.85 56.9898 94.19 53.8198" stroke="#13110C" stroke-miterlimit="10"/>
<path d="M92.8799 41.12C92.8799 41.12 99.1299 39.41 103.8 41.85" stroke="#13110C" stroke-miterlimit="10"/>
<path d="M88.4499 47.1598C82.3999 47.4298 83.0199 44.6398 83.0199 44.6398C83.0199 44.6398 86.0899 42.8398 89.3699 44.6398C89.3699 44.6398 89.1699 47.1298 88.4499 47.1598Z" stroke="#13110C" stroke-miterlimit="10"/>
<path d="M89.3699 48.0801C89.3699 48.0801 87.8299 49.5101 86.9099 49.5101" stroke="#13110C" stroke-miterlimit="10"/>
<path d="M103.4 47.1802C91.8001 49.4002 94.1901 44.6402 94.1901 44.6402C94.1901 44.6402 100.23 42.7502 103.81 45.7702C103.81 45.7702 104.52 46.9602 103.4 47.1802Z" stroke="#13110C" stroke-miterlimit="10"/>
<path d="M93.98 47.77C93.98 47.77 96.05 50.03 99 51" stroke="#13110C" stroke-miterlimit="10"/>
<path d="M87.77 45.5798C87.77 45.7398 87.15 45.8598 86.39 45.8598C85.63 45.8598 85.01 45.7298 85.01 45.5798C85.01 45.4198 85.63 45.2998 86.39 45.2998C87.16 45.2998 87.77 45.4198 87.77 45.5798Z" stroke="#13110C" stroke-miterlimit="10"/>
<path d="M100.56 45.9101C100.56 46.2201 99.65 46.4701 98.54 46.4701C97.43 46.4701 96.52 46.2201 96.52 45.9101C96.52 45.6001 97.43 45.3501 98.54 45.3501C99.65 45.3501 100.56 45.6001 100.56 45.9101Z" fill="#13110C" stroke="#13110C" stroke-miterlimit="10"/>
<path d="M87.3201 63.3999H96.4001" stroke="#13110C" stroke-miterlimit="10"/>
<path d="M90.1899 62.9302H93.9799" stroke="#13110C" stroke-miterlimit="10"/>
<path d="M90.1899 63.9502H93.9799" stroke="#13110C" stroke-miterlimit="10"/>
<path d="M90.73 65.8999L94.18 68.7099" stroke="#13110C" stroke-miterlimit="10"/>
<path d="M90.1899 68.7099L94.1799 65.8999" stroke="#13110C" stroke-miterlimit="10"/>
<path d="M96.54 72.9399C96.54 72.9399 109.05 73.5499 114.57 69.8199C114.57 69.8199 111.36 63.7699 110.61 61.1899C110.6 61.1999 104.83 70.3699 96.54 72.9399Z" fill="#AFA3C7" stroke="#13120D" stroke-miterlimit="10"/>
<path d="M101.66 71.53C101.66 71.53 108.62 71.12 112.46 69.48" stroke="#13110C" stroke-width="0.5" stroke-miterlimit="10"/>
<path d="M104.03 69.7902C104.03 69.7902 110.15 69.1802 111.54 67.9502" stroke="#13110C" stroke-width="0.5" stroke-miterlimit="10"/>
<path d="M107.06 67.2998C107.06 67.2998 110.6 66.9498 111.54 66.2998" stroke="#13110C" stroke-width="0.5" stroke-miterlimit="10"/>
<path d="M108.72 65.0501C108.72 65.0501 110.25 65.1801 110.87 64.5601" stroke="#13110C" stroke-width="0.5" stroke-miterlimit="10"/>
<path d="M88.45 127.44H148.26" stroke="#13110C" stroke-miterlimit="10"/>
<path d="M115.72 71.7201L114.57 69.8301C109.05 73.8701 94.6099 73.6101 94.6099 73.6101C85.8499 73.3201 77.9999 70.1901 77.9999 70.1901L76.8899 71.7201C76.8899 71.7201 88.1299 75.8901 96.3999 75.5401C96.3999 75.5401 110.25 75.5501 115.72 71.7201Z" fill="#FFEA24" stroke="#13110C" stroke-miterlimit="10"/>
<path d="M68.23 82.8902L70.28 80.7902C70.28 80.7902 83.23 87.1502 96.98 86.5702C96.98 86.5702 115.48 85.7502 122.98 80.1802L124.38 81.9702C124.38 81.9702 115.36 88.3102 97.3 88.7402C97.29 88.7502 84.61 89.2102 68.23 82.8902Z" fill="#FFEA24" stroke="#13110C" stroke-miterlimit="10"/>
<path d="M97.3801 85.5701C100.06 84.0201 99.0001 76.8901 99.0001 76.8901H97.3101C98.0801 82.6401 96.3901 84.2301 96.3901 84.2301C94.2601 83.5801 95.0301 76.8901 95.0301 76.8901H92.8701C92.8701 76.8901 92.5301 86.3201 96.0301 85.5701H97.3801Z" fill="#FFEA24"/>
<path d="M93.96 81.5598L96.06 78.5898L98.84 81.5598L96.4 84.2299L93.96 81.5598Z" fill="#E31013"/>
<path d="M104.62 84.9499C107.08 83.0699 105.12 76.1299 105.12 76.1299L103.44 76.3499C104.94 81.9599 103.47 83.7499 103.47 83.7499C101.27 83.3799 101.18 76.6499 101.18 76.6499L99.04 76.9299C99.04 76.9299 99.91 86.3299 103.29 85.1299L104.62 84.9499Z" fill="#FFEA24"/>
<path d="M100.7 81.4099L102.42 78.1899L105.55 80.7799L103.47 83.7499L100.7 81.4099Z" fill="#E31013"/>
<path d="M90.27 85.3C93.15 84.16 93.15 76.95 93.15 76.95L91.48 76.7C91.4 82.5 89.5 83.82 89.5 83.82C87.48 82.86 89.23 76.36 89.23 76.36L87.1 76.04C87.1 76.04 85.38 85.32 88.96 85.09L90.27 85.3Z" fill="#FFEA24"/>
<path d="M87.46 80.8302L89.99 78.2002L92.3 81.5502L89.49 83.8302L87.46 80.8302Z" fill="#E31013"/>
<path d="M112.02 83.6098C114.33 81.4598 111.6 74.7798 111.6 74.7798L109.91 75.1898C112.03 80.5898 110.72 82.5398 110.72 82.5398C108.44 82.4198 107.63 75.7398 107.63 75.7398L105.48 76.2598C105.48 76.2598 107.36 85.5098 110.68 83.9298L112.02 83.6098Z" fill="#FFEA24"/>
<path d="M107.65 80.5401L109.06 77.1401L112.53 79.3601L110.72 82.5501L107.65 80.5401Z" fill="#E31013"/>
<path d="M83.3001 84.0802C86.5201 83.3102 87.1701 76.1102 87.1701 76.1102L85.3801 75.6502C84.7601 81.4302 82.5901 82.5102 82.5901 82.5102C80.5001 81.3002 82.9701 75.0302 82.9701 75.0302L80.6901 74.4502C80.6901 74.4502 77.9901 83.5002 81.8801 83.7102L83.3001 84.0802Z" fill="#FFEA24"/>
<path d="M80.6699 79.27L83.6399 76.96L85.8299 80.59L82.5899 82.52L80.6699 79.27Z" fill="#E31013"/>
<path d="M35.18 118.3C29.22 117.75 31.51 107.68 31.51 107.68C31.51 102.12 37.01 102.84 37.01 102.84C39.21 102.67 38.83 104.27 38.83 104.27C38.83 104.27 45.33 104.6 45.38 107.08L35.18 118.3Z" fill="#FED68A" stroke="#13110C" stroke-miterlimit="10"/>
<path d="M38.5599 105.04C38.5599 105.04 34.7099 104.87 34.8199 106.91C34.8199 106.91 34.1099 108.84 38.2399 108.84C38.2399 108.84 41.3899 108.01 40.9399 111.98" stroke="#13110C" stroke-miterlimit="10"/>
<path d="M37.0099 109.44C37.0099 109.44 32.22 109.29 31.45 107.93" stroke="#13110C" stroke-miterlimit="10"/>
<path d="M37.5101 112.3C37.5101 112.3 31.5801 111.8 31.0801 111.47" stroke="#13110C" stroke-miterlimit="10"/>
<path d="M35.6399 115.27C35.6399 115.27 31.8299 115.22 31.3999 114.67" stroke="#13110C" stroke-miterlimit="10"/>
<path d="M39.37 103.59C37.2 102.56 34.23 100.59 34.23 100.59C29.02 96.1002 31.45 89.6802 31.45 89.6802C31.45 89.6802 39.15 97.1002 39.36 101.52V103.59H39.37Z" fill="#BBB32E" stroke="#13110C" stroke-miterlimit="10"/>
<path d="M32.0901 93.25C32.0901 93.25 36.3701 99.81 37.8701 100.67" stroke="#13110C" stroke-miterlimit="10"/>
<path d="M55.92 100.24C52.14 106.45 41.5 104.62 41.5 104.62C41.5 104.62 44.86 97.39 55.92 99.46V100.24Z" fill="#BBB32E" stroke="#13110C" stroke-miterlimit="10"/>
<path d="M43.29 103.59C43.29 103.59 52.33 102.09 53.42 100.67" stroke="#13110C" stroke-miterlimit="10"/>
<path d="M41.5101 96.96L43.2901 98.1L40.9801 104.52L39.3701 104.31L41.5101 96.96Z" fill="#BBB32E" stroke="#13110C" stroke-miterlimit="10"/>
<path d="M44.4001 87.5L48.1101 91.19L44.7701 94.8L41.3301 91.15L44.4001 87.5Z" fill="#E31013"/>
<path d="M28.74 124.38V127.44H30.89H88.45" stroke="#13110C" stroke-miterlimit="10"/>
<path d="M52.38 104.08L30.89 127.44H28.74V124.69L48.36 104.61C48.36 104.61 51.46 104.31 52.38 104.08Z" fill="#E31013" stroke="#13110C" stroke-miterlimit="10"/>
<path d="M53.2 98.7899L55.26 96.3799L67.7 108.69L50.7 127.44H46.02L63.63 108.69L53.2 98.7899Z" fill="#E31013" stroke="#13110C" stroke-miterlimit="10"/>
<path d="M58.9199 107.97C59.1699 105.89 57.4999 106.49 57.4999 106.49C57.7299 104.97 56.6199 104.87 56.6199 104.87C55.1499 104.37 55.2599 109.46 55.2599 109.46C55.2599 109.46 58.8299 108.73 58.9199 107.97Z" fill="white"/>
<path d="M53.47 106.31C51.8 105.94 52.15 107.34 52.15 107.34C50.94 107.03 50.77 107.92 50.77 107.92C50.25 109.07 54.37 109.39 54.37 109.39C54.37 109.39 54.08 106.44 53.47 106.31Z" fill="white"/>
<path d="M50.8601 111.8C50.3701 113.43 51.8001 113.19 51.8001 113.19C51.4001 114.37 52.2801 114.61 52.2801 114.61C53.3901 115.21 54.0001 111.12 54.0001 111.12C54.0001 111.12 51.0401 111.2 50.8601 111.8Z" fill="white"/>
<path d="M56.22 113.51C57.92 113.69 57.41 112.34 57.41 112.34C58.65 112.51 58.72 111.61 58.72 111.61C59.11 110.41 54.97 110.55 54.97 110.55C54.97 110.55 55.59 113.44 56.22 113.51Z" fill="white"/>
<path d="M49.1899 118.9C49.4399 116.82 47.7699 117.42 47.7699 117.42C47.9999 115.9 46.8899 115.8 46.8899 115.8C45.4199 115.3 45.5299 120.39 45.5299 120.39C45.5299 120.39 49.0999 119.66 49.1899 118.9Z" fill="white"/>
<path d="M43.74 117.24C42.07 116.87 42.42 118.27 42.42 118.27C41.21 117.96 41.04 118.85 41.04 118.85C40.52 120 44.64 120.32 44.64 120.32C44.64 120.32 44.36 117.37 43.74 117.24Z" fill="white"/>
<path d="M41.1301 122.73C40.6401 124.36 42.0701 124.12 42.0701 124.12C41.6701 125.3 42.5501 125.54 42.5501 125.54C43.6601 126.14 44.2701 122.05 44.2701 122.05C44.2701 122.05 41.3101 122.13 41.1301 122.73Z" fill="white"/>
<path d="M46.49 124.44C48.19 124.62 47.68 123.27 47.68 123.27C48.92 123.44 48.99 122.54 48.99 122.54C49.38 121.34 45.24 121.48 45.24 121.48C45.24 121.48 45.87 124.37 46.49 124.44Z" fill="white"/>
<path d="M76.6499 127.44C76.1899 114.64 67.6999 108.69 67.6999 108.69L66.4099 110.12C66.4099 110.12 75.0899 119.52 74.4599 127.45H76.6499V127.44Z" fill="#FFEA24" stroke="#13110C" stroke-miterlimit="10"/>
<path d="M65.9 124.19C66.42 123.98 70.46 122.25 70.46 122.25C74.05 120.26 70.88 117.06 70.88 117.06C68.57 114.57 63.23 120.23 63.23 120.23L63.96 121.3C63.96 121.3 68.13 118.1 68.83 118.94C68.83 118.94 70.35 120.09 65.06 122.74L65.9 124.19Z" fill="#FFEA24"/>
<path d="M53.6399 124.19C53.6399 124.19 54.7299 125.36 54.9699 127.44H57.5599C57.5599 127.44 56.4299 123.98 54.9699 122.73L53.6399 124.19Z" fill="#FFEA24" stroke="#13110C" stroke-miterlimit="10"/>
<path d="M54.97 122.73L58.59 118.73C58.59 118.73 62.16 122.88 62.54 127.44H57.55C57.56 127.44 56.96 125.44 54.97 122.73Z" fill="#211C4B" stroke="#13110C" stroke-miterlimit="10"/>
<path d="M56.76 123.82L58.21 126.53L60.59 123.92L57.01 123.8" fill="white"/>
<path d="M67.3599 127.06C72.1699 126.68 71.8599 125.6 71.8599 125.6C71.6699 124.32 66.4099 125.6 66.4099 125.6V124.46C66.4099 124.46 71.4199 121.99 72.7999 123.81C72.7999 123.81 74.2999 126.01 73.1799 127.07H67.3599V127.06Z" fill="#FFEA24"/>
<path d="M65.5401 113.53C65.6001 114.81 61.6001 118.07 61.6001 118.07L62.8501 119.57C62.8501 119.57 68.9701 115.86 68.0401 112.9C68.0401 112.9 66.5101 109.98 64.8701 112.31C64.8701 112.3 65.8901 112.81 65.5401 113.53Z" fill="#FFEA24"/>
<path d="M53.4299 124.74C53.4299 124.74 54.6599 126.13 54.6599 127.44H52.3699C52.3699 127.44 52.4399 126.73 52.1899 125.95L53.4299 124.74Z" fill="white" stroke="#13110C" stroke-miterlimit="10"/>
<path d="M148.16 103.92C148.16 103.92 146.08 102.32 140.57 99.6599C135.06 96.9999 123.71 96.2899 118.54 98.3299C113.37 100.37 106.94 104.9 103.12 111.4C99.2899 117.9 99.9399 127.44 99.9399 127.44H102.45C102.45 127.44 101.45 119.54 104.02 114.13C106.59 108.72 112.27 103.39 118.35 100.73C118.35 100.73 131.08 95.9399 146.78 105.08L148.16 105.7V103.92Z" fill="#FFEA24" stroke="#13110C" stroke-miterlimit="10"/>
<path d="M133.5 120.31C129.79 117.62 125.76 119.56 125.76 119.56C120.88 121.36 121.86 127.44 121.86 127.44H119.73C119.73 127.44 119.02 120.76 122.3 118.78C122.3 118.78 126.83 114.11 134.99 118.78L133.5 120.31Z" fill="#FFEA24" stroke="#13110C" stroke-miterlimit="10"/>
<path d="M146.79 105.08L148.16 105.7L148.26 108.69L131.11 127.44H126.75L146.79 105.08Z" fill="#E31013" stroke="#13110C" stroke-miterlimit="10"/>
<path d="M141.64 118.94C139.97 118.57 140.32 119.97 140.32 119.97C139.11 119.66 138.94 120.55 138.94 120.55C138.42 121.7 142.54 122.02 142.54 122.02C142.54 122.02 142.25 119.08 141.64 118.94Z" fill="white"/>
<path d="M139.23 124.23C138.93 125.91 140.32 125.5 140.32 125.5C140.06 126.72 140.95 126.86 140.95 126.86C142.12 127.33 142.27 123.2 142.27 123.2C142.27 123.2 139.34 123.61 139.23 124.23Z" fill="white"/>
<path d="M143.74 125.88C145.26 126.65 145.27 125.2 145.27 125.2C146.37 125.8 146.75 124.97 146.75 124.97C147.53 123.98 143.61 122.67 143.61 122.67C143.61 122.67 143.18 125.59 143.74 125.88Z" fill="white"/>
<path d="M121.86 127.44C121.86 127.44 121.87 115.39 133.28 120.16L132.01 121.58C132.01 121.58 124.85 117.69 124.04 127.44H121.86Z" fill="white" stroke="#13110C" stroke-miterlimit="10"/>
<path d="M132 121.57C124.22 118.28 124.03 127.12 124.03 127.12L126.74 127.43L132 121.57Z" fill="#13110C" stroke="#13110C" stroke-miterlimit="10"/>
<path d="M119.73 127.44C119.73 127.44 119.07 118.44 124.99 117.22C124.99 117.22 128.52 115.43 134.67 118.61L137.5 115.45C137.5 115.45 132.4 111.3 124.38 112.81C124.38 112.81 118.04 114.22 116.09 122.03C116.09 122.03 115.47 125.86 116.09 127.45H119.73V127.44Z" fill="#211C4B" stroke="#13110C" stroke-miterlimit="10"/>
<path d="M132.77 116.7L135.24 115.19L134.73 117.87L132.77 116.7Z" fill="white"/>
<path d="M128.7 115.73C128.7 115.73 131.24 115.93 131.61 116.26C131.98 116.58 130.93 113.5 130.93 113.5L128.7 115.73Z" fill="white"/>
<path d="M124.87 116.04L127.89 115.8L126.66 113.09L124.87 116.04Z" fill="white"/>
<path d="M121.08 115.19L124.03 116.53L121.32 118.44L121.08 115.19Z" fill="white"/>
<path d="M117.86 119.14L120.57 119.39L119.05 122.27L117.86 119.14Z" fill="white"/>
<path d="M116.44 125.04L118.78 126.71V123.69L116.44 125.04Z" fill="white"/>
<path d="M105.06 123.57C104.92 122.37 110.69 123.1 110.69 123.1L110.9 121.54C102.84 119 102.84 123.79 102.84 123.79C101.97 127.81 110.9 126.7 110.9 126.7V125.11C110.9 125.11 104.86 125.64 104.85 124.05L105.06 123.57Z" fill="#FFEA24"/>
<path d="M107.8 118.86C104.66 117.34 106.72 116.22 106.72 116.22C108.41 115.73 111.64 118.86 111.64 118.86L112.76 117.88C109.14 113.92 105.39 114 105.39 114C105.39 114 103.14 114.63 103.56 117.43C103.56 117.43 104.08 120.38 110.75 121.49L111.16 120.18C111.15 120.18 108.07 118.99 107.8 118.86Z" fill="#FFEA24"/>
<path d="M110.61 114.09C107.93 111.85 110.2 111.27 110.2 111.27C111.95 111.2 114.34 115.02 114.34 115.02L115.66 114.34C113.1 109.63 109.44 108.8 109.44 108.8C109.44 108.8 107.1 108.87 106.84 111.69C106.84 111.69 106.63 114.68 112.84 117.36L113.55 116.18C113.55 116.18 110.84 114.28 110.61 114.09Z" fill="#FFEA24"/>
<path d="M114.07 110.11C111.76 107.49 114.09 107.26 114.09 107.26C115.83 107.46 117.61 111.59 117.61 111.59L119.02 111.12C117.21 106.07 113.71 104.7 113.71 104.7C113.71 104.7 111.39 104.41 110.7 107.16C110.7 107.16 110.04 110.09 115.77 113.67L116.65 112.61C116.65 112.61 114.26 110.33 114.07 110.11Z" fill="#FFEA24"/>
<path d="M118.45 106.98C116.87 103.87 119.19 104.23 119.19 104.23C120.83 104.86 121.51 109.3 121.51 109.3L122.99 109.2C122.5 103.86 119.46 101.65 119.46 101.65C119.46 101.65 117.28 100.79 115.93 103.28C115.93 103.28 114.56 105.95 119.2 110.86L120.32 110.06C120.32 110.05 118.58 107.24 118.45 106.98Z" fill="#FFEA24"/>
<path d="M123.78 105.18C123 101.78 125.16 102.69 125.16 102.69C126.6 103.7 126.19 108.17 126.19 108.17L127.65 108.43C128.47 103.13 126.05 100.25 126.05 100.25C126.05 100.25 124.15 98.8898 122.23 100.98C122.23 100.98 120.26 103.24 123.58 109.12L124.86 108.61C124.85 108.62 123.84 105.48 123.78 105.18Z" fill="#FFEA24"/>
<path d="M129.2 104.83C128.98 101.49 130.89 102.68 130.89 102.68C132.1 103.85 131.03 108.03 131.03 108.03L132.37 108.5C133.95 103.6 132.09 100.51 132.09 100.51C132.09 100.51 130.49 98.9301 128.36 100.62C128.36 100.62 126.15 102.46 128.4 108.54L129.69 108.26C129.69 108.25 129.21 105.12 129.2 104.83Z" fill="#FFEA24"/>
<path d="M134.19 105.59C135.69 102.65 136.71 104.62 136.71 104.62C137.14 106.22 134.12 109.22 134.12 109.22L135.02 110.3C138.83 106.95 138.82 103.39 138.82 103.39C138.82 103.39 138.26 101.24 135.6 101.6C135.6 101.6 132.8 102.04 131.63 108.33L132.87 108.74C132.88 108.74 134.06 105.84 134.19 105.59Z" fill="#FFEA24"/>
<path d="M139.41 107.1C141.25 104.35 142.03 106.43 142.03 106.43C142.27 108.07 138.92 110.7 138.92 110.7L139.69 111.87C143.87 108.99 144.28 105.46 144.28 105.46C144.28 105.46 143.98 103.26 141.3 103.3C141.3 103.3 138.46 103.41 136.57 109.52L137.75 110.07C137.74 110.07 139.25 107.33 139.41 107.1Z" fill="#FFEA24"/>
<path d="M74.1299 116.91H100.94C100.94 116.91 100.48 119.03 100.45 119.24H75.0999L74.1299 116.91Z" fill="#13110C" stroke="#13110C" stroke-miterlimit="10"/>
<path d="M82.8401 125.91L90.1601 133.72L94.7501 129.23L86.7801 121.7L82.8401 125.91Z" fill="#13110C" stroke="#13110C" stroke-miterlimit="10"/>
<path d="M85.23 125.91L90.26 130.64L91.54 129.29L86.89 124.84H86.58L85.23 125.91Z" fill="white" stroke="white" stroke-miterlimit="10"/>
<path d="M67.48 108.47L75.1 98.75V119.24C75.1 119.24 71.81 111.24 67.48 108.47Z" fill="#E31013" stroke="#13110C" stroke-miterlimit="10"/>
<path d="M70.76 105.77C70.76 105.77 73.3 108.01 72.75 112.9" stroke="white" stroke-miterlimit="10"/>
<path d="M55.52 96.6298L55.26 96.3798L62.86 87.4998L66.22 84.8198C66.22 84.8198 71.69 89.8598 69.48 97.7598C69.48 97.7598 67.48 103 64.51 105.53L55.52 96.6298Z" fill="#211C4B" stroke="#13110C" stroke-miterlimit="10"/>
<path d="M60.9399 91.1499C60.9399 91.1499 64.1399 95.1399 60.4299 99.8499" stroke="white" stroke-miterlimit="10"/>
<path d="M65.39 86.6499C65.39 86.6499 72.41 93.2899 64.21 103.58" stroke="white" stroke-miterlimit="10"/>
<path d="M75.95 89.1499C75.95 90.1099 75.18 90.8799 74.22 90.8799C73.27 90.8799 72.49 90.1099 72.49 89.1499C72.49 88.1899 73.26 87.4199 74.22 87.4199C75.17 87.4199 75.95 88.1899 75.95 89.1499Z" fill="#E31013" stroke="#13110C" stroke-miterlimit="10"/>
<path d="M79.11 116.91C78.73 106.79 79.79 88.4302 79.79 88.4302H77.24C77.24 88.4302 75.99 107.13 76.5 116.91H79.11Z" fill="#FFEA24" stroke="#13110C" stroke-miterlimit="10"/>
<path d="M96.31 116.91C101.68 97.3901 108.65 90.0601 108.65 90.0601H105.86C105.86 90.0601 97.5 101.9 94.75 116.91H96.31Z" fill="#FFEA24" stroke="#13110C" stroke-miterlimit="10"/>
<path d="M87.7801 116.91C87.3301 106.92 90.3201 91.0599 90.3201 91.0599L87.8001 90.8799H87.7801C87.7801 90.8799 85.1001 107.34 85.8301 116.91H87.7801Z" fill="white" stroke="#13110C" stroke-miterlimit="10"/>
<path d="M80.67 91.1499L83.74 96.3799L79.78 100.74L83.74 107.56L80.15 111.89L83.74 116.04" stroke="#FFEA24" stroke-miterlimit="10"/>
<path d="M81.76 90.0601L85.23 95.5001" stroke="#FFEA24" stroke-miterlimit="10"/>
<path d="M85.23 97.6499L81.76 100.92L84.57 106.18" stroke="#FFEA24" stroke-miterlimit="10"/>
<path d="M84.23 109.13L81.76 111.97L84.23 114.56" stroke="#FFEA24" stroke-miterlimit="10"/>
<path d="M79.78 113.67L81.76 116.04" stroke="#FFEA24" stroke-miterlimit="10"/>
<path d="M79.78 110.11L82.21 107.14L79.78 103.49" stroke="#FFEA24" stroke-miterlimit="10"/>
<path d="M80.23 97.6498L81.76 95.9798L80.23 92.7798" stroke="#FFEA24" stroke-miterlimit="10"/>
<path d="M85.8299 91.84C86.211 91.84 86.5199 91.531 86.5199 91.15C86.5199 90.7689 86.211 90.46 85.8299 90.46C85.4488 90.46 85.1399 90.7689 85.1399 91.15C85.1399 91.531 85.4488 91.84 85.8299 91.84Z" fill="#FFEA29"/>
<path d="M84.43 102.66C84.8111 102.66 85.12 102.351 85.12 101.97C85.12 101.589 84.8111 101.28 84.43 101.28C84.0489 101.28 83.74 101.589 83.74 101.97C83.74 102.351 84.0489 102.66 84.43 102.66Z" fill="#FFEA29"/>
<path d="M84.23 112.66C84.6111 112.66 84.92 112.351 84.92 111.97C84.92 111.589 84.6111 111.28 84.23 111.28C83.849 111.28 83.54 111.589 83.54 111.97C83.54 112.351 83.849 112.66 84.23 112.66Z" fill="#FFEA29"/>
<path d="M97.48 91.1499L90.82 97.1599L94.75 102.8L88.79 107.82L92.88 112.66L88.79 116.04" stroke="#FFEA29" stroke-miterlimit="10"/>
<path d="M101.7 91.1499L93.96 97.6499L97.15 103.49L91.54 108.5L94.75 112.46L91.54 116.04" stroke="#FFEA29" stroke-miterlimit="10"/>
<path d="M93.5699 92.2598C93.5699 92.6398 93.2599 92.9498 92.8799 92.9498C92.4999 92.9498 92.1899 92.6398 92.1899 92.2598C92.1899 91.8798 92.4999 91.5698 92.8799 91.5698C93.2599 91.5698 93.5699 91.8798 93.5699 92.2598Z" fill="#FFEA29"/>
<path d="M91.0101 102.82C91.3911 102.82 91.7001 102.511 91.7001 102.13C91.7001 101.749 91.3911 101.44 91.0101 101.44C90.629 101.44 90.3201 101.749 90.3201 102.13C90.3201 102.511 90.629 102.82 91.0101 102.82Z" fill="#FFEA29"/>
<path d="M89.48 113.15C89.8611 113.15 90.17 112.841 90.17 112.46C90.17 112.079 89.8611 111.77 89.48 111.77C89.099 111.77 88.79 112.079 88.79 112.46C88.79 112.841 89.099 113.15 89.48 113.15Z" fill="#FFEA29"/>
<path d="M100.95 116.91H98.1499C98.1499 116.91 104.58 95.2199 113.91 88.4299L127.08 84.6299L131.11 87.8999C131.11 87.8999 118.56 95.6499 116.44 99.2699C116.44 99.2799 102.98 105.66 100.95 116.91Z" fill="#E31013" stroke="#13110C" stroke-miterlimit="10"/>
<path d="M125.61 88.0099C126.135 88.0099 126.56 87.5845 126.56 87.0599C126.56 86.5352 126.135 86.1099 125.61 86.1099C125.085 86.1099 124.66 86.5352 124.66 87.0599C124.66 87.5845 125.085 88.0099 125.61 88.0099Z" fill="white"/>
<path d="M115.27 98.0499C115.795 98.0499 116.22 97.6246 116.22 97.0999C116.22 96.5752 115.795 96.1499 115.27 96.1499C114.745 96.1499 114.32 96.5752 114.32 97.0999C114.32 97.6246 114.745 98.0499 115.27 98.0499Z" fill="white"/>
<path d="M107.61 101.97C108.135 101.97 108.56 101.544 108.56 101.02C108.56 100.495 108.135 100.07 107.61 100.07C107.085 100.07 106.66 100.495 106.66 101.02C106.66 101.544 107.085 101.97 107.61 101.97Z" fill="white"/>
<path d="M121.08 87.0601C121.08 87.0601 117.57 92.2501 114.32 92.9501C114.32 92.9501 109.92 96.4101 110.62 99.5301C110.62 99.5301 106.66 106.04 104.03 105.93" stroke="white" stroke-miterlimit="10"/>
<path d="M28.8101 134.89V153.28L28.9101 159.34L47.5501 177.69L104.69 176.92L121.81 158.45L101.97 134.13L28.8101 134.89Z" fill="#13110C" stroke="#13110C" stroke-miterlimit="10"/>
<path d="M100.42 127.4C100.47 131.52 101.96 135.6 101.96 135.6H76.6201C76.6201 135.6 77.5201 128.99 77.1701 127.13L100.42 127.27" fill="#211C4B"/>
<path d="M100.42 127.4C100.47 131.52 101.96 135.6 101.96 135.6H76.6201C76.6201 135.6 77.5201 128.99 77.1701 127.13L100.42 127.27" stroke="#13110C" stroke-miterlimit="10"/>
<path d="M74.62 127.4C74.62 127.4 76.43 139.42 70.09 145.33C70.09 145.33 61.64 155.89 52.34 155.28C52.34 155.28 43.25 155.7 35.06 152.17L30.28 149.76L50.32 127.4H74.62Z" fill="#13110C" stroke="#13110C" stroke-miterlimit="10"/>
<path d="M45.9601 127.4L28.8101 146.15V127.4H45.9601Z" fill="#211C4B" stroke="#13110C" stroke-miterlimit="10"/>
<path d="M30.4201 135C30.5301 136.7 31.7801 135.97 31.7801 135.97C31.8201 137.22 32.7201 137.13 32.7201 137.13C33.9701 137.3 33.1101 133.26 33.1101 133.26C33.1101 133.26 30.3801 134.38 30.4201 135Z" fill="white"/>
<path d="M118.47 136.11C118.47 136.11 115.15 132.46 114.52 127.4H102.61C102.61 127.4 101.42 133.86 110.66 144.73L118.47 136.11Z" fill="#13110C" stroke="#13110C" stroke-miterlimit="10"/>
<path d="M146.18 127.4H131.05L113.44 146.15L121.62 153.92L146.18 127.4Z" fill="#211C4B" stroke="#13110C" stroke-miterlimit="10"/>
<path d="M138.84 157.88H126.37V169.68H138.84V157.88Z" fill="#211C4B"/>
<path d="M128.71 160.59C123.82 159.76 123.91 163.47 123.91 163.47C123.31 167.78 129.29 166.76 129.29 166.76C127.66 171.99 131.98 172.37 131.98 172.37C136.8 172.05 135.04 166.29 135.04 166.29C135.04 166.29 140.18 166.87 140.06 162.67C140.06 162.67 139.91 159.33 134.9 160.03C134.9 160.03 135.57 156 131.69 156.04C131.69 156.05 128.15 156.05 128.71 160.59Z" fill="#FFEA24" stroke="#13110C" stroke-miterlimit="10"/>
<path d="M54.3 174.65C57.55 177.49 61.35 183.12 61.35 183.12C68.32 179.09 80.53 179.3 80.53 179.3C88.28 178.8 100.18 183.12 100.18 183.12L106.79 174.05C106.79 174.05 83.1501 161.1 55.5801 173.69L54.3 174.65Z" fill="#211C4B" stroke="#13110C" stroke-miterlimit="10"/>
<path d="M100.78 172.71C97.7201 173.18 96.1201 180.21 96.1201 180.21L97.6901 180.82C99.0601 175.18 101.2 174.31 101.2 174.31C102.95 175.69 99.8101 181.64 99.8101 181.64L101.82 182.42C101.82 182.42 105.56 173.75 102.01 173.18L100.78 172.71Z" fill="#FFEA24"/>
<path d="M102.52 177.69L99.48 179.69L97.96 175.92L101.21 174.31L102.52 177.69Z" fill="#E31013"/>
<path d="M58.6601 173.32C56.5901 175.62 59.8101 182.08 59.8101 182.08L61.4201 181.56C58.9101 176.33 60.0201 174.3 60.0201 174.3C62.2501 174.26 63.5901 180.86 63.5901 180.86L65.6401 180.19C65.6401 180.19 63.0401 171.12 59.9401 172.92L58.6601 173.32Z" fill="#FFEA24"/>
<path d="M63.16 176.08L62.08 179.55L58.52 177.59L60.01 174.29L63.16 176.08Z" fill="#E31013"/>
<path d="M66.45 193.59C75.3 180.94 82.88 181.57 82.88 181.57C88.92 181.78 92.96 191.9 92.96 191.9C95.26 195.78 94.86 214.46 94.86 214.46V224.6H70.81C70.81 224.61 72.08 210.65 66.45 193.59Z" fill="#FED68A" stroke="#13110C" stroke-miterlimit="10"/>
<path d="M60.0799 224.61C55.3099 211.72 39.5399 189.78 39.5399 189.78C39.5399 189.78 35.9099 191.77 28.9099 192.17C28.9099 192.17 41.7899 211.98 29.8599 224.61H60.0799Z" fill="#FFEA24" stroke="#13110C" stroke-miterlimit="10"/>
<path d="M55.97 224.61C55.97 224.61 54.25 215.63 48.95 212.98C48.95 212.98 54.6499 222.19 52.4599 224.61H55.97Z" fill="#211C4B"/>
<path d="M41.92 204.1C43.91 204.23 46.69 209.14 46.69 209.14C46.69 209.14 46.16 201.32 38.21 194.82C38.21 194.82 42.71 202.64 41.92 204.1Z" fill="#211C4B"/>
<path d="M51.33 223.72C51.33 223.72 50.93 217.62 47.22 214.97" stroke="#211C4B" stroke-miterlimit="10"/>
<path d="M45.6301 212.05C45.6301 212.05 43.6401 205.95 39.9301 205.02C39.9301 205.02 39.6701 197.99 35.8201 195.61" stroke="#211C4B" stroke-miterlimit="10"/>
<path d="M46.6899 211.39C46.6899 210.73 47.2199 210.2 47.8799 210.2C48.5399 210.2 49.0699 210.73 49.0699 211.39C49.0699 212.05 48.5399 212.58 47.8799 212.58C47.2199 212.58 46.6899 212.05 46.6899 211.39Z" fill="#211C4B" stroke="#211C4B" stroke-miterlimit="10"/>
<path d="M37.0101 194.29C37.6673 194.29 38.2001 193.757 38.2001 193.1C38.2001 192.443 37.6673 191.91 37.0101 191.91C36.3528 191.91 35.8201 192.443 35.8201 193.1C35.8201 193.757 36.3528 194.29 37.0101 194.29Z" fill="#211C4B" stroke="#211C4B" stroke-miterlimit="10"/>
<path d="M41.4701 216.45C43.6101 215.13 45.4601 214.26 45.6201 214.5C45.7701 214.75 44.1701 216.02 42.0301 217.35C39.8901 218.67 38.0401 219.54 37.8801 219.29C37.7301 219.05 39.3301 217.78 41.4701 216.45Z" fill="#211C4B" stroke="#211C4B" stroke-miterlimit="10"/>
<path d="M46.16 219.41C45.88 217.36 45.89 215.66 46.18 215.62C46.47 215.58 46.93 217.21 47.21 219.26C47.49 221.31 47.48 223.01 47.19 223.05C46.91 223.1 46.45 221.47 46.16 219.41Z" fill="#211C4B" stroke="#211C4B" stroke-miterlimit="10"/>
<path d="M41.43 211.81C39.79 210.55 38.6 209.34 38.78 209.1C38.96 208.87 40.43 209.7 42.08 210.96C43.72 212.22 44.91 213.43 44.73 213.66C44.55 213.91 43.07 213.07 41.43 211.81Z" fill="#211C4B" stroke="#211C4B" stroke-miterlimit="10"/>
<path d="M33.2299 196.42C34.1699 195.84 35.0599 195.57 35.2099 195.82C35.3599 196.07 34.7299 196.74 33.7899 197.32C32.8499 197.9 31.9599 198.17 31.8099 197.92C31.6599 197.67 32.2899 197 33.2299 196.42Z" fill="#211C4B" stroke="#211C4B" stroke-miterlimit="10"/>
<path d="M35.7601 200.72C35.4801 198.67 35.4901 196.97 35.7801 196.93C36.0701 196.89 36.5301 198.52 36.8101 200.57C37.0901 202.62 37.0801 204.32 36.7901 204.36C36.5001 204.4 36.0401 202.77 35.7601 200.72Z" fill="#211C4B" stroke="#211C4B" stroke-miterlimit="10"/>
<path d="M32.75 194.44C32.06 193.91 31.64 193.29 31.82 193.06C32 192.83 32.7 193.07 33.39 193.6C34.08 194.13 34.5 194.75 34.32 194.98C34.14 195.21 33.44 194.97 32.75 194.44Z" fill="#211C4B" stroke="#211C4B" stroke-miterlimit="10"/>
<path d="M60.08 224.61H63.39C63.39 224.61 51.99 196.68 42.45 187.93C42.45 187.93 40.4 189.39 39.53 189.78C39.53 189.79 55.17 211.72 60.08 224.61Z" fill="#E31013" stroke="#13110C" stroke-miterlimit="10"/>
<path d="M67.3699 224.61H63.3899C63.3899 224.61 51.4199 190.18 28.9099 173.35V161.29C28.9099 161.29 44.4399 170.63 67.3699 224.61Z" fill="#13110C" stroke="#13110C" stroke-miterlimit="10"/>
<path d="M70.0901 224.61H67.3701C67.3701 224.61 49.9801 180.56 28.9101 161.29L28.8201 153.27C28.8101 153.28 51.5901 174.19 70.0901 224.61Z" fill="#E31013" stroke="#13110C" stroke-miterlimit="10"/>
<path d="M94.8701 207.68L111.97 182.5C115.76 177.89 110.64 170.21 110.64 170.21L114.22 167.34C121.39 175.33 116.57 183.41 116.57 183.41C115.96 185.56 104.8 200 104.8 200C96.0001 211.37 96.6101 224.61 96.6101 224.61H94.8701V207.68Z" fill="#E31013" stroke="#13110C" stroke-miterlimit="10"/>
<path d="M94.8701 198.97V207.67L110.95 183.99C110.95 183.99 115.2 179.7 112.61 174.29L110.64 170.2L107.06 173.68C107.06 173.68 110.13 179.52 106.96 182.69L94.8701 198.97Z" fill="#13110C" stroke="#13110C" stroke-miterlimit="10"/>
<path d="M94.8701 198.56C94.8701 198.56 93.9501 193.44 93.3301 192.52L107.05 173.68C107.05 173.68 109.46 178.89 108 181.06L94.8701 198.56Z" fill="#E31013" stroke="#13110C" stroke-miterlimit="10"/>
<path d="M94.8699 224.61V214.47C94.8699 214.47 86.1699 217.49 84.6299 224.61H94.8699Z" fill="#AFA3C7" stroke="#13120D" stroke-width="0.5" stroke-miterlimit="10"/>
<path d="M37.01 162.58C46.83 164.99 54.93 175.43 54.93 175.43C73.15 192.22 70.8 224.61 70.8 224.61H70.08C70.09 224.61 54.53 183.48 37.01 162.58Z" fill="#AFA3C7" stroke="#13120D" stroke-miterlimit="10"/>
<path d="M70.8101 224.61C70.8101 224.61 71.9301 218.35 70.9101 215.63C70.9101 215.63 84.1201 217.79 84.6301 224.61H70.8101Z" fill="#AFA3C7" stroke="#13120D" stroke-width="0.5" stroke-miterlimit="10"/>
<path d="M94.04 217.61C94.04 217.61 89.54 220.12 88.2 223.06" stroke="#13110C" stroke-width="0.5" stroke-miterlimit="10"/>
<path d="M94.04 219.54C94.04 219.54 91.38 220.73 89.74 223.06" stroke="#13110C" stroke-width="0.5" stroke-miterlimit="10"/>
<path d="M94.0399 221.81C94.0399 221.81 92.3999 222.06 91.8899 223.06" stroke="#13110C" stroke-width="0.5" stroke-miterlimit="10"/>
<path d="M93.3299 216.91C93.3299 216.91 87.2899 219.5 86.8799 223.06" stroke="#13110C" stroke-width="0.5" stroke-miterlimit="10"/>
<path d="M82.8901 223.72C82.8901 223.72 78.4901 218.23 72.3501 217.61" stroke="#13110C" stroke-width="0.5" stroke-miterlimit="10"/>
<path d="M80.5301 223.72C80.5301 223.72 76.6001 219.52 72.3401 219.54" stroke="#13110C" stroke-width="0.5" stroke-miterlimit="10"/>
<path d="M77.6101 223.72C77.6101 223.72 75.3101 221.21 72.3401 221.3" stroke="#13110C" stroke-width="0.5" stroke-miterlimit="10"/>
<path d="M74.1801 223.72C74.1801 223.72 73.5801 222.43 72.3401 222.51" stroke="#13110C" stroke-width="0.5" stroke-miterlimit="10"/>
<path d="M69.27 208.19C69.27 208.19 66.92 204.61 61.8 202.46" stroke="#13110C" stroke-width="0.5" stroke-miterlimit="10"/>
<path d="M68.3499 204.37C68.3499 204.37 64.9699 201.03 60.8799 200" stroke="#13110C" stroke-width="0.5" stroke-miterlimit="10"/>
<path d="M67.37 200.65C67.37 200.65 63.95 198.04 59.24 196.87" stroke="#13110C" stroke-width="0.5" stroke-miterlimit="10"/>
<path d="M66.2001 196.93C66.2001 196.93 61.0801 193.84 58.1101 193.59" stroke="#13110C" stroke-width="0.5" stroke-miterlimit="10"/>
<path d="M64.61 193.1C64.61 193.1 59.86 190.63 55.96 189.79" stroke="#13110C" stroke-width="0.5" stroke-miterlimit="10"/>
<path d="M63.39 189.79C63.39 189.79 59.64 187.51 53.96 186.13" stroke="#13110C" stroke-width="0.5" stroke-miterlimit="10"/>
<path d="M61.8 186.12C61.8 186.12 55.46 182.39 51.46 181.57" stroke="#13110C" stroke-width="0.5" stroke-miterlimit="10"/>
<path d="M59.24 182.19C59.24 182.19 52.78 177.69 48.95 177.38" stroke="#13110C" stroke-width="0.5" stroke-miterlimit="10"/>
<path d="M53.9599 176.25C53.9599 176.25 49.3999 173.99 46.6899 173.69" stroke="#13110C" stroke-width="0.5" stroke-miterlimit="10"/>
<path d="M50.3301 171.95C50.3301 171.95 44.8101 168.98 43.5801 169.29" stroke="#13110C" stroke-width="0.5" stroke-miterlimit="10"/>
<path d="M45.9601 168.26C45.9601 168.26 42.4301 166.2 41.3201 166.42" stroke="#13110C" stroke-width="0.5" stroke-miterlimit="10"/>
<path d="M69.2699 211.39C69.2699 211.39 64.5799 205.39 63.3899 205.32" stroke="#13110C" stroke-width="0.5" stroke-miterlimit="10"/>
<path d="M69.27 213.71C69.27 213.71 66.2 210.95 65.53 210.65" stroke="#13110C" stroke-width="0.5" stroke-miterlimit="10"/>
<path d="M70.0901 216.91C70.0901 216.91 67.9201 214.5 67.3701 214.47" stroke="#13110C" stroke-width="0.5" stroke-miterlimit="10"/>
<path d="M70.0901 218.8L68.3501 216.91" stroke="#13110C" stroke-width="0.5" stroke-miterlimit="10"/>
<path d="M94.04 213.71C94.04 213.71 89.64 215.82 86.87 212.98C86.87 212.98 86.15 206.73 88.61 200.65C88.61 200.65 91.48 196.83 86.26 196.42" stroke="#13110C" stroke-miterlimit="10"/>
<path d="M86.2601 196.42C86.2601 196.42 86.8701 198.67 84.6201 197.44C84.6201 197.44 80.2201 197.85 82.8801 201.02" stroke="#13110C" stroke-miterlimit="10"/>
<path d="M84.19 213.71C84.19 213.71 77.94 215.42 73.27 212.98" stroke="#13110C" stroke-miterlimit="10"/>
<path d="M88.62 207.68C94.67 207.41 94.05 210.2 94.05 210.2C94.05 210.2 90.98 212 87.7 210.2C87.7 210.2 87.9 207.71 88.62 207.68Z" stroke="#13110C" stroke-miterlimit="10"/>
<path d="M87.7 206.76C87.7 206.76 89.24 205.33 90.16 205.33" stroke="#13110C" stroke-miterlimit="10"/>
<path d="M73.67 207.66C85.27 205.44 82.88 210.2 82.88 210.2C82.88 210.2 76.84 212.09 73.26 209.07C73.26 209.07 72.55 207.87 73.67 207.66Z" stroke="#13110C" stroke-miterlimit="10"/>
<path d="M83.0901 207.07C83.0901 207.07 81.0201 204.81 78.0701 203.84" stroke="#13110C" stroke-miterlimit="10"/>
<path d="M89.3 209.26C89.3 209.11 89.92 208.98 90.68 208.98C91.44 208.98 92.06 209.11 92.06 209.26C92.06 209.42 91.44 209.54 90.68 209.54C89.92 209.54 89.3 209.42 89.3 209.26Z" stroke="#13110C" stroke-miterlimit="10"/>
<path d="M76.51 208.92C76.51 208.61 77.42 208.36 78.53 208.36C79.65 208.36 80.55 208.61 80.55 208.92C80.55 209.23 79.64 209.48 78.53 209.48C77.41 209.49 76.51 209.24 76.51 208.92Z" fill="#13110C" stroke="#13110C" stroke-miterlimit="10"/>
<path d="M89.7499 191.44H80.6699" stroke="#13110C" stroke-miterlimit="10"/>
<path d="M86.8801 191.91H83.0901" stroke="#13110C" stroke-miterlimit="10"/>
<path d="M86.8801 190.89H83.0901" stroke="#13110C" stroke-miterlimit="10"/>
<path d="M86.3399 188.94L82.8899 186.12" stroke="#13110C" stroke-miterlimit="10"/>
<path d="M86.8799 186.12L82.8899 188.94" stroke="#13110C" stroke-miterlimit="10"/>
<path d="M80.53 181.89C80.53 181.89 68.02 181.28 62.5 185.01C62.5 185.01 65.71 191.06 66.46 193.64C66.47 193.64 72.24 184.47 80.53 181.89Z" fill="#AFA3C7" stroke="#13120D" stroke-miterlimit="10"/>
<path d="M75.4101 183.31C75.4101 183.31 68.4501 183.72 64.6101 185.36" stroke="#13110C" stroke-width="0.5" stroke-miterlimit="10"/>
<path d="M73.04 185.05C73.04 185.05 66.92 185.66 65.53 186.89" stroke="#13110C" stroke-width="0.5" stroke-miterlimit="10"/>
<path d="M70.01 187.53C70.01 187.53 66.47 187.88 65.53 188.53" stroke="#13110C" stroke-width="0.5" stroke-miterlimit="10"/>
<path d="M68.35 189.79C68.35 189.79 66.82 189.66 66.2 190.28" stroke="#13110C" stroke-width="0.5" stroke-miterlimit="10"/>
<path d="M88.6201 127.4H28.8101" stroke="#13110C" stroke-miterlimit="10"/>
<path d="M61.3501 183.12L62.5001 185.01C68.0201 180.97 82.4601 181.23 82.4601 181.23C91.2201 181.52 99.0701 184.65 99.0701 184.65L100.18 183.12C100.18 183.12 88.9401 178.95 80.6701 179.3C80.6701 179.3 66.8201 179.28 61.3501 183.12Z" fill="#FFEA24" stroke="#13110C" stroke-miterlimit="10"/>
<path d="M108.84 171.95L106.79 174.05C106.79 174.05 93.8399 167.69 80.0899 168.27C80.0899 168.27 61.5899 169.09 54.0899 174.66L52.6899 172.87C52.6899 172.87 61.7099 166.53 79.7699 166.1C79.7799 166.09 92.4599 165.62 108.84 171.95Z" fill="#FFEA24" stroke="#13110C" stroke-miterlimit="10"/>
<path d="M79.6901 169.26C77.0101 170.81 78.0701 177.94 78.0701 177.94H79.7601C78.9901 172.19 80.6801 170.6 80.6801 170.6C82.8101 171.25 82.0401 177.94 82.0401 177.94H84.2001C84.2001 177.94 84.5401 168.51 81.0401 169.26H79.6901Z" fill="#FFEA24"/>
<path d="M83.12 173.28L81.01 176.25L78.23 173.28L80.67 170.61L83.12 173.28Z" fill="#E31013"/>
<path d="M72.4499 169.89C69.9899 171.77 71.9499 178.71 71.9499 178.71L73.6299 178.49C72.1299 172.88 73.5999 171.09 73.5999 171.09C75.7999 171.46 75.8899 178.19 75.8899 178.19L78.0299 177.91C78.0299 177.91 77.1599 168.51 73.7799 169.71L72.4499 169.89Z" fill="#FFEA24"/>
<path d="M76.37 173.43L74.65 176.65L71.52 174.05L73.6 171.09L76.37 173.43Z" fill="#E31013"/>
<path d="M86.7999 169.54C83.9199 170.68 83.9199 177.89 83.9199 177.89L85.5899 178.14C85.6699 172.34 87.5699 171.02 87.5699 171.02C89.5899 171.98 87.8399 178.48 87.8399 178.48L89.9699 178.8C89.9699 178.8 91.6899 169.52 88.1099 169.75L86.7999 169.54Z" fill="#FFEA24"/>
<path d="M89.61 174.01L87.08 176.64L84.77 173.29L87.58 171.01L89.61 174.01Z" fill="#E31013"/>
<path d="M65.0501 171.22C62.7401 173.37 65.4701 180.05 65.4701 180.05L67.1601 179.64C65.0401 174.24 66.3501 172.29 66.3501 172.29C68.6301 172.41 69.4301 179.09 69.4301 179.09L71.5801 178.57C71.5801 178.57 69.7001 169.32 66.3801 170.9L65.0501 171.22Z" fill="#FFEA24"/>
<path d="M69.42 174.3L68.01 177.69L64.54 175.48L66.35 172.29L69.42 174.3Z" fill="#E31013"/>
<path d="M93.7699 170.75C90.5499 171.52 89.8999 178.72 89.8999 178.72L91.6899 179.18C92.3099 173.4 94.4799 172.32 94.4799 172.32C96.5699 173.53 94.0999 179.8 94.0999 179.8L96.3799 180.38C96.3799 180.38 99.0799 171.33 95.1899 171.12L93.7699 170.75Z" fill="#FFEA24"/>
<path d="M96.4 175.57L93.43 177.88L91.24 174.25L94.48 172.32L96.4 175.57Z" fill="#E31013"/>
<path d="M141.89 136.54C147.85 137.09 145.56 147.16 145.56 147.16C145.56 152.72 140.06 152 140.06 152C137.86 152.17 138.24 150.57 138.24 150.57C138.24 150.57 131.74 150.24 131.69 147.76L141.89 136.54Z" fill="#FED68A" stroke="#13110C" stroke-miterlimit="10"/>
<path d="M138.51 149.8C138.51 149.8 142.36 149.97 142.25 147.93C142.25 147.93 142.96 146 138.83 146C138.83 146 135.68 146.83 136.13 142.86" stroke="#13110C" stroke-miterlimit="10"/>
<path d="M140.06 145.4C140.06 145.4 144.85 145.55 145.62 146.91" stroke="#13110C" stroke-miterlimit="10"/>
<path d="M139.56 142.54C139.56 142.54 145.49 143.04 145.99 143.37" stroke="#13110C" stroke-miterlimit="10"/>
<path d="M141.43 139.57C141.43 139.57 145.24 139.62 145.67 140.17" stroke="#13110C" stroke-miterlimit="10"/>
<path d="M137.7 151.25C139.87 152.28 142.84 154.25 142.84 154.25C148.05 158.74 145.62 165.16 145.62 165.16C145.62 165.16 137.92 157.74 137.71 153.32V151.25H137.7Z" fill="#BBB32E" stroke="#13110C" stroke-miterlimit="10"/>
<path d="M144.98 161.59C144.98 161.59 140.7 155.03 139.2 154.17" stroke="#13110C" stroke-miterlimit="10"/>
<path d="M121.15 154.6C124.93 148.39 135.57 150.22 135.57 150.22C135.57 150.22 132.21 157.45 121.15 155.38V154.6Z" fill="#BBB32E" stroke="#13110C" stroke-miterlimit="10"/>
<path d="M133.78 151.25C133.78 151.25 124.74 152.75 123.65 154.17" stroke="#13110C" stroke-miterlimit="10"/>
<path d="M135.56 157.88L133.78 156.74L136.09 150.32L137.7 150.53L135.56 157.88Z" fill="#BBB32E" stroke="#13110C" stroke-miterlimit="10"/>
<path d="M132.67 167.34L128.96 163.65L132.3 160.04L135.74 163.69L132.67 167.34Z" fill="#E31013"/>
<path d="M148.33 127.4H146.18H88.6201" stroke="#13110C" stroke-miterlimit="10"/>
<path d="M124.69 150.76L146.18 127.4L148.17 127.44L148.11 130.2L128.72 150.23C128.71 150.23 125.61 150.53 124.69 150.76Z" fill="#E31013" stroke="#13110C" stroke-miterlimit="10"/>
<path d="M123.87 156.05L121.81 158.45L109.37 146.15L126.37 127.4H131.05L113.44 146.15L123.87 156.05Z" fill="#E31013" stroke="#13110C" stroke-miterlimit="10"/>
<path d="M118.15 146.87C117.9 148.95 119.57 148.35 119.57 148.35C119.34 149.87 120.45 149.97 120.45 149.97C121.92 150.47 121.81 145.38 121.81 145.38C121.81 145.38 118.25 146.1 118.15 146.87Z" fill="white"/>
<path d="M123.6 148.53C125.27 148.9 124.92 147.5 124.92 147.5C126.13 147.81 126.3 146.92 126.3 146.92C126.82 145.77 122.7 145.45 122.7 145.45C122.7 145.45 122.99 148.39 123.6 148.53Z" fill="white"/>
<path d="M126.21 143.04C126.7 141.41 125.27 141.65 125.27 141.65C125.67 140.47 124.79 140.23 124.79 140.23C123.68 139.63 123.07 143.72 123.07 143.72C123.07 143.72 126.03 143.64 126.21 143.04Z" fill="white"/>
<path d="M120.85 141.33C119.15 141.15 119.66 142.5 119.66 142.5C118.42 142.33 118.35 143.23 118.35 143.23C117.96 144.43 122.1 144.29 122.1 144.29C122.1 144.29 121.48 141.4 120.85 141.33Z" fill="white"/>
<path d="M127.88 135.94C127.63 138.02 129.3 137.42 129.3 137.42C129.07 138.94 130.18 139.04 130.18 139.04C131.65 139.54 131.54 134.45 131.54 134.45C131.54 134.45 127.97 135.17 127.88 135.94Z" fill="white"/>
<path d="M133.33 137.6C135 137.97 134.65 136.57 134.65 136.57C135.86 136.88 136.03 135.99 136.03 135.99C136.55 134.84 132.43 134.52 132.43 134.52C132.43 134.52 132.71 137.46 133.33 137.6Z" fill="white"/>
<path d="M135.94 132.11C136.43 130.48 135 130.72 135 130.72C135.4 129.54 134.52 129.3 134.52 129.3C133.41 128.7 132.8 132.79 132.8 132.79C132.8 132.79 135.76 132.71 135.94 132.11Z" fill="white"/>
<path d="M130.58 130.4C128.88 130.22 129.39 131.57 129.39 131.57C128.15 131.4 128.08 132.3 128.08 132.3C127.69 133.5 131.83 133.36 131.83 133.36C131.83 133.36 131.21 130.47 130.58 130.4Z" fill="white"/>
<path d="M100.42 127.4C100.88 140.2 109.37 146.15 109.37 146.15L110.66 144.72C110.66 144.72 101.98 135.32 102.61 127.39H100.42V127.4Z" fill="#FFEA24" stroke="#13110C" stroke-miterlimit="10"/>
<path d="M111.17 130.65C110.65 130.86 106.61 132.59 106.61 132.59C103.02 134.58 106.19 137.78 106.19 137.78C108.5 140.27 113.84 134.61 113.84 134.61L113.11 133.54C113.11 133.54 108.94 136.74 108.24 135.9C108.24 135.9 106.72 134.75 112.01 132.1L111.17 130.65Z" fill="#FFEA24"/>
<path d="M123.43 130.65C123.43 130.65 122.34 129.48 122.1 127.4H119.51C119.51 127.4 120.64 130.85 122.1 132.11L123.43 130.65Z" fill="#FFEA24" stroke="#13110C" stroke-miterlimit="10"/>
<path d="M122.1 132.11L118.48 136.11C118.48 136.11 114.91 131.96 114.53 127.4H119.52C119.51 127.4 120.11 129.4 122.1 132.11Z" fill="#211C4B" stroke="#13110C" stroke-miterlimit="10"/>
<path d="M120.31 131.02L118.86 128.31L116.48 130.92L120.06 131.03" fill="white"/>
<path d="M109.71 127.78C104.9 128.16 105.21 129.24 105.21 129.24C105.4 130.52 110.66 129.24 110.66 129.24V130.38C110.66 130.38 105.65 132.85 104.27 131.03C104.27 131.03 102.77 128.83 103.89 127.77H109.71V127.78Z" fill="#FFEA24"/>
<path d="M111.53 141.31C111.47 140.03 115.47 136.77 115.47 136.77L114.22 135.27C114.22 135.27 108.1 138.98 109.03 141.94C109.03 141.94 110.56 144.86 112.2 142.53C112.2 142.54 111.18 142.03 111.53 141.31Z" fill="#FFEA24"/>
<path d="M123.64 130.1C123.64 130.1 122.41 128.71 122.41 127.4H124.7C124.7 127.4 124.63 128.11 124.88 128.89L123.64 130.1Z" fill="white" stroke="#13110C" stroke-miterlimit="10"/>
<path d="M28.9099 150.91C28.9099 150.91 30.9899 152.51 36.4999 155.17C41.9999 157.83 53.3599 158.54 58.5299 156.5C63.6999 154.46 70.1299 149.93 73.9499 143.43C77.7799 136.93 77.1299 127.39 77.1299 127.39H74.6199C74.6199 127.39 75.6199 135.29 73.0499 140.7C70.4799 146.11 64.7999 151.44 58.7199 154.1C58.7199 154.1 45.9899 158.89 30.2899 149.75L28.9099 149.13V150.91Z" fill="#FFEA24" stroke="#13110C" stroke-miterlimit="10"/>
<path d="M43.5701 134.53C47.2801 137.22 51.3101 135.28 51.3101 135.28C56.1901 133.48 55.2101 127.4 55.2101 127.4H57.3401C57.3401 127.4 58.0501 134.08 54.7701 136.06C54.7701 136.06 50.2401 140.73 42.0801 136.06L43.5701 134.53Z" fill="#FFEA24" stroke="#13110C" stroke-miterlimit="10"/>
<path d="M30.2801 149.76L28.9101 149.14L28.8101 146.15L45.9601 127.4H50.3301L30.2801 149.76Z" fill="#E31013" stroke="#13110C" stroke-miterlimit="10"/>
<path d="M35.43 135.9C37.1 136.27 36.75 134.87 36.75 134.87C37.96 135.18 38.13 134.29 38.13 134.29C38.65 133.14 34.53 132.82 34.53 132.82C34.53 132.82 34.82 135.76 35.43 135.9Z" fill="white"/>
<path d="M37.84 130.61C38.14 128.93 36.75 129.34 36.75 129.34C37.01 128.12 36.12 127.98 36.12 127.98C34.95 127.51 34.8 131.64 34.8 131.64C34.8 131.64 37.73 131.23 37.84 130.61Z" fill="white"/>
<path d="M33.33 128.96C31.81 128.19 31.8 129.64 31.8 129.64C30.7 129.04 30.32 129.87 30.32 129.87C29.54 130.86 33.46 132.17 33.46 132.17C33.46 132.17 33.89 129.24 33.33 128.96Z" fill="white"/>
<path d="M55.21 127.4C55.21 127.4 55.2 139.45 43.79 134.68L45.06 133.26C45.06 133.26 52.5 137.15 53.32 127.4H55.21Z" fill="white" stroke="#13110C" stroke-miterlimit="10"/>
<path d="M45.0701 133.26C52.8501 136.55 53.3301 127.4 53.3301 127.4H50.3301L45.0701 133.26Z" fill="#13110C" stroke="#13110C" stroke-miterlimit="10"/>
<path d="M57.3401 127.4C57.3401 127.4 58.0001 136.4 52.0801 137.62C52.0801 137.62 48.5501 139.41 42.4001 136.23L39.5701 139.39C39.5701 139.39 44.6701 143.54 52.6901 142.03C52.6901 142.03 59.0301 140.62 60.9801 132.81C60.9801 132.81 61.6001 128.98 60.9801 127.39H57.3401V127.4Z" fill="#211C4B" stroke="#13110C" stroke-miterlimit="10"/>
<path d="M44.3001 138.14L41.8301 139.65L42.3401 136.97L44.3001 138.14Z" fill="white"/>
<path d="M48.3701 139.11C48.3701 139.11 45.8301 138.91 45.4601 138.58C45.0901 138.26 46.1401 141.34 46.1401 141.34L48.3701 139.11Z" fill="white"/>
<path d="M52.1999 138.8L49.1799 139.04L50.4099 141.75L52.1999 138.8Z" fill="white"/>
<path d="M55.99 139.65L53.04 138.31L55.75 136.4L55.99 139.65Z" fill="white"/>
<path d="M59.21 135.7L56.5 135.45L58.02 132.57L59.21 135.7Z" fill="white"/>
<path d="M60.63 129.79L58.29 128.13V131.14L60.63 129.79Z" fill="white"/>
<path d="M72.0099 131.27C72.1499 132.47 66.3799 131.74 66.3799 131.74L66.1699 133.3C74.2299 135.84 74.2299 131.05 74.2299 131.05C75.0999 127.03 66.1699 128.14 66.1699 128.14V129.73C66.1699 129.73 72.2099 129.2 72.2199 130.79L72.0099 131.27Z" fill="#FFEA24"/>
<path d="M69.2701 135.98C72.4101 137.5 70.3501 138.62 70.3501 138.62C68.6601 139.11 65.4301 135.98 65.4301 135.98L64.3101 136.96C67.9301 140.92 71.6801 140.84 71.6801 140.84C71.6801 140.84 73.9301 140.21 73.5101 137.41C73.5101 137.41 72.9901 134.46 66.3201 133.35L65.9101 134.66C65.9201 134.66 69.0001 135.85 69.2701 135.98Z" fill="#FFEA24"/>
<path d="M66.4599 140.75C69.1399 142.99 66.8699 143.57 66.8699 143.57C65.1199 143.64 62.7299 139.82 62.7299 139.82L61.4199 140.5C63.9799 145.21 67.6399 146.04 67.6399 146.04C67.6399 146.04 69.9799 145.97 70.2399 143.15C70.2399 143.15 70.4499 140.16 64.2399 137.49L63.5299 138.67C63.5199 138.66 66.2299 140.56 66.4599 140.75Z" fill="#FFEA24"/>
<path d="M63 144.73C65.31 147.35 62.98 147.58 62.98 147.58C61.24 147.38 59.46 143.25 59.46 143.25L58.05 143.72C59.86 148.77 63.3601 150.14 63.3601 150.14C63.3601 150.14 65.6801 150.43 66.3701 147.68C66.3701 147.68 67.03 144.75 61.3 141.17L60.42 142.23C60.42 142.22 62.81 144.51 63 144.73Z" fill="#FFEA24"/>
<path d="M58.6201 147.86C60.2001 150.97 57.8801 150.61 57.8801 150.61C56.2401 149.98 55.5601 145.54 55.5601 145.54L54.0801 145.64C54.5701 150.98 57.6101 153.19 57.6101 153.19C57.6101 153.19 59.7901 154.05 61.1401 151.56C61.1401 151.56 62.5101 148.89 57.8701 143.98L56.7501 144.78C56.7501 144.78 58.4901 147.59 58.6201 147.86Z" fill="#FFEA24"/>
<path d="M53.2901 149.65C54.0701 153.05 51.9101 152.14 51.9101 152.14C50.4701 151.13 50.8801 146.66 50.8801 146.66L49.4201 146.4C48.6001 151.7 51.0201 154.58 51.0201 154.58C51.0201 154.58 52.9201 155.94 54.8401 153.85C54.8401 153.85 56.8101 151.59 53.4901 145.71L52.2101 146.22C52.2201 146.22 53.2301 149.36 53.2901 149.65Z" fill="#FFEA24"/>
<path d="M47.87 150.01C48.09 153.35 46.18 152.16 46.18 152.16C44.97 150.99 46.04 146.81 46.04 146.81L44.7 146.34C43.12 151.24 44.98 154.33 44.98 154.33C44.98 154.33 46.58 155.91 48.71 154.22C48.71 154.22 50.92 152.38 48.67 146.3L47.38 146.58C47.38 146.58 47.86 149.72 47.87 150.01Z" fill="#FFEA24"/>
<path d="M42.88 149.25C41.38 152.19 40.36 150.22 40.36 150.22C39.93 148.62 42.95 145.62 42.95 145.62L42.05 144.54C38.24 147.89 38.25 151.45 38.25 151.45C38.25 151.45 38.81 153.6 41.47 153.24C41.47 153.24 44.27 152.8 45.44 146.51L44.2 146.1C44.19 146.1 43.01 148.99 42.88 149.25Z" fill="#FFEA24"/>
<path d="M37.67 147.74C35.83 150.49 35.05 148.41 35.05 148.41C34.81 146.77 38.16 144.14 38.16 144.14L37.39 142.97C33.21 145.85 32.8 149.38 32.8 149.38C32.8 149.38 33.1 151.58 35.78 151.54C35.78 151.54 38.62 151.43 40.51 145.32L39.3301 144.77C39.3301 144.77 37.82 147.5 37.67 147.74Z" fill="#FFEA24"/>
<path d="M102.94 137.93H76.1201C76.1201 137.93 76.5801 135.81 76.6101 135.6H101.96L102.94 137.93Z" fill="#13110C" stroke="#13110C" stroke-miterlimit="10"/>
<path d="M109.59 146.37L101.97 156.09V135.6C101.97 135.6 105.26 143.6 109.59 146.37Z" fill="#E31013" stroke="#13110C" stroke-miterlimit="10"/>
<path d="M106.31 149.07C106.31 149.07 103.77 146.83 104.32 141.94" stroke="white" stroke-miterlimit="10"/>
<path d="M121.55 158.2L121.81 158.45L114.22 167.34L110.86 170.02C110.86 170.02 105.39 164.98 107.6 157.08C107.6 157.08 109.6 151.84 112.57 149.31L121.55 158.2Z" fill="#211C4B" stroke="#13110C" stroke-miterlimit="10"/>
<path d="M116.13 163.69C116.13 163.69 112.93 159.7 116.64 154.99" stroke="white" stroke-miterlimit="10"/>
<path d="M111.68 168.18C111.68 168.18 104.66 161.54 112.86 151.25" stroke="white" stroke-miterlimit="10"/>
<path d="M102.85 167.42C103.806 167.42 104.58 166.645 104.58 165.69C104.58 164.735 103.806 163.96 102.85 163.96C101.895 163.96 101.12 164.735 101.12 165.69C101.12 166.645 101.895 167.42 102.85 167.42Z" fill="#E31013" stroke="#13110C" stroke-miterlimit="10"/>
<path d="M97.96 137.93C98.34 148.05 97.28 166.41 97.28 166.41H99.83C99.83 166.41 101.08 147.71 100.57 137.93H97.96Z" fill="#FFEA24" stroke="#13110C" stroke-miterlimit="10"/>
<path d="M80.7599 137.93C75.3899 157.45 68.4199 164.78 68.4199 164.78H71.2099C71.2099 164.78 79.5699 152.94 82.3199 137.93H80.7599Z" fill="#FFEA24" stroke="#13110C" stroke-miterlimit="10"/>
<path d="M89.29 137.93C89.74 147.92 86.75 163.78 86.75 163.78L89.27 163.96H89.29C89.29 163.96 91.97 147.5 91.24 137.93H89.29Z" fill="white" stroke="#13110C" stroke-miterlimit="10"/>
<path d="M96.4001 163.69L93.3301 158.45L97.2901 154.1L93.3301 147.27L96.9201 142.95L93.3301 138.8" stroke="#FFEA24" stroke-miterlimit="10"/>
<path d="M95.3101 164.77L91.8401 159.34" stroke="#FFEA24" stroke-miterlimit="10"/>
<path d="M91.8401 157.19L95.3101 153.92L92.5001 148.66" stroke="#FFEA24" stroke-miterlimit="10"/>
<path d="M92.8401 145.71L95.3101 142.87L92.8401 140.27" stroke="#FFEA24" stroke-miterlimit="10"/>
<path d="M97.2901 141.17L95.3101 138.8" stroke="#FFEA24" stroke-miterlimit="10"/>
<path d="M97.2901 144.73L94.8701 147.7L97.2901 151.35" stroke="#FFEA24" stroke-miterlimit="10"/>
<path d="M96.8401 157.19L95.3101 158.86L96.8401 162.06" stroke="#FFEA24" stroke-miterlimit="10"/>
<path d="M91.24 164.38C91.6211 164.38 91.93 164.071 91.93 163.69C91.93 163.309 91.6211 163 91.24 163C90.859 163 90.55 163.309 90.55 163.69C90.55 164.071 90.859 164.38 91.24 164.38Z" fill="#FFEA29"/>
<path d="M92.64 153.56C93.021 153.56 93.33 153.251 93.33 152.87C93.33 152.489 93.021 152.18 92.64 152.18C92.2589 152.18 91.95 152.489 91.95 152.87C91.95 153.251 92.2589 153.56 92.64 153.56Z" fill="#FFEA29"/>
<path d="M92.1499 142.87C92.1499 142.49 92.4599 142.18 92.8399 142.18C93.2199 142.18 93.5299 142.49 93.5299 142.87C93.5299 143.25 93.2199 143.56 92.8399 143.56C92.4599 143.56 92.1499 143.25 92.1499 142.87Z" fill="#FFEA29"/>
<path d="M79.5901 163.69L86.2501 157.68L82.3201 152.04L88.2801 147.02L84.1901 142.18L88.2801 138.8" stroke="#FFEA29" stroke-miterlimit="10"/>
<path d="M75.3701 163.69L83.1201 157.19L79.9201 151.35L85.5301 146.34L82.3201 142.37L85.5301 138.8" stroke="#FFEA29" stroke-miterlimit="10"/>
<path d="M84.19 163.27C84.5711 163.27 84.88 162.961 84.88 162.58C84.88 162.199 84.5711 161.89 84.19 161.89C83.8089 161.89 83.5 162.199 83.5 162.58C83.5 162.961 83.8089 163.27 84.19 163.27Z" fill="#FFEA29"/>
<path d="M85.3701 152.71C85.3701 152.33 85.6801 152.02 86.0601 152.02C86.4401 152.02 86.7501 152.33 86.7501 152.71C86.7501 153.09 86.4401 153.4 86.0601 153.4C85.6801 153.4 85.3701 153.09 85.3701 152.71Z" fill="#FFEA29"/>
<path d="M87.5899 143.06C87.971 143.06 88.2799 142.751 88.2799 142.37C88.2799 141.989 87.971 141.68 87.5899 141.68C87.2088 141.68 86.8999 141.989 86.8999 142.37C86.8999 142.751 87.2088 143.06 87.5899 143.06Z" fill="#FFEA29"/>
<path d="M76.12 137.93H78.92C78.92 137.93 72.49 159.62 63.16 166.41L49.99 170.21L45.96 166.94C45.96 166.94 58.51 159.19 60.63 155.57C60.63 155.56 74.09 149.17 76.12 137.93Z" fill="#E31013" stroke="#13110C" stroke-miterlimit="10"/>
<path d="M51.46 168.72C51.9847 168.72 52.41 168.294 52.41 167.77C52.41 167.245 51.9847 166.82 51.46 166.82C50.9353 166.82 50.51 167.245 50.51 167.77C50.51 168.294 50.9353 168.72 51.46 168.72Z" fill="white"/>
<path d="M61.8001 158.69C62.3248 158.69 62.7501 158.265 62.7501 157.74C62.7501 157.215 62.3248 156.79 61.8001 156.79C61.2754 156.79 60.8501 157.215 60.8501 157.74C60.8501 158.265 61.2754 158.69 61.8001 158.69Z" fill="white"/>
<path d="M69.46 154.77C69.9847 154.77 70.41 154.345 70.41 153.82C70.41 153.295 69.9847 152.87 69.46 152.87C68.9353 152.87 68.51 153.295 68.51 153.82C68.51 154.345 68.9353 154.77 69.46 154.77Z" fill="white"/>
<path d="M55.99 167.77C55.99 167.77 59.5 162.58 62.75 161.88C62.75 161.88 67.15 158.42 66.45 155.3C66.45 155.3 70.41 148.79 73.04 148.9" stroke="white" stroke-miterlimit="10"/>
<path d="M77.5 129.57L78.42 130.17L80.71 127.44L90.6 136.79L99.61 127.44L99.9 126.33L99.14 125.68L97.52 126.85L96.57 127.44L86.78 119.24L78.31 126.85L77.3 129.19L77.5 129.57Z" fill="white" stroke="white" stroke-miterlimit="10"/>
<path d="M94.2301 128.93L86.9101 121.12L82.3201 125.61L90.2901 133.14L94.2301 128.93Z" fill="#13110C" stroke="#13110C" stroke-miterlimit="10"/>
<path d="M91.84 128.93L86.81 124.19L85.53 125.54L90.18 130H90.49L91.84 128.93Z" fill="white" stroke="white" stroke-miterlimit="10"/>
<path d="M16.0101 43.2702C16.3801 44.4002 17.0701 45.9802 18.2401 46.6702H13.4101C14.6501 45.6902 15.2201 44.2602 15.4801 43.2502C14.8001 44.4402 13.5101 45.2402 12.0401 45.2402C9.85008 45.2402 8.08008 43.4602 8.08008 41.2802C8.08008 39.0902 9.85008 37.3202 12.0401 37.3202C12.4801 37.3202 12.9101 37.3902 13.3001 37.5202C12.5301 36.8002 12.0401 35.7702 12.0401 34.6202C12.0401 32.4302 13.8101 30.6602 16.0001 30.6602C18.1901 30.6602 19.9601 32.4402 19.9601 34.6202C19.9601 35.8402 19.4101 36.9302 18.5401 37.6602C18.8601 37.5702 19.2001 37.5302 19.5501 37.5302C21.7401 37.5302 23.5101 39.3002 23.5101 41.4902C23.5101 43.6802 21.7401 45.4502 19.5501 45.4502C18.0101 45.4602 16.6601 44.5702 16.0101 43.2702Z" fill="#13110C" stroke="#13110C" stroke-miterlimit="10"/>
<path d="M163.03 211.24C162.66 210.11 161.97 208.53 160.8 207.84H165.63C164.39 208.82 163.82 210.25 163.56 211.26C164.25 210.07 165.53 209.27 167 209.27C169.19 209.27 170.96 211.05 170.96 213.23C170.96 215.42 169.19 217.2 167 217.2C166.56 217.2 166.13 217.13 165.74 216.99C166.51 217.71 167 218.74 167 219.89C167 222.08 165.23 223.85 163.04 223.85C160.85 223.85 159.08 222.07 159.08 219.89C159.08 218.67 159.63 217.58 160.5 216.85C160.18 216.94 159.84 216.98 159.49 216.98C157.3 216.98 155.53 215.2 155.53 213.02C155.53 210.83 157.3 209.06 159.49 209.06C161.04 209.06 162.38 209.95 163.03 211.24Z" fill="#13110C" stroke="#13110C" stroke-miterlimit="10"/>
<path d="M51.15 59.0601C51.67 60.6801 52.68 62.9601 54.36 63.9601H47.4C49.19 62.5401 50 60.4901 50.37 59.0301C49.38 60.7401 47.54 61.9001 45.42 61.9001C42.26 61.9001 39.71 59.3401 39.71 56.1901C39.71 53.0401 42.26 50.4801 45.42 50.4801C46.06 50.4801 46.67 50.5801 47.24 50.7701C46.12 49.7301 45.43 48.2401 45.43 46.6001C45.43 43.4501 47.99 40.8901 51.14 40.8901C54.29 40.8901 56.85 43.4501 56.85 46.6001C56.85 48.3601 56.05 49.9301 54.8 50.9801C55.26 50.8601 55.76 50.7901 56.26 50.7901C59.41 50.7901 61.97 53.3501 61.97 56.5001C61.97 59.6501 59.41 62.2101 56.26 62.2101C54.02 62.2101 52.09 60.9301 51.15 59.0601Z" fill="#13110C" stroke="#13110C" stroke-miterlimit="10"/>
<path d="M129.26 193.94C128.74 192.32 127.73 190.04 126.05 189.04H133.01C131.22 190.46 130.41 192.51 130.04 193.97C131.03 192.26 132.87 191.1 134.99 191.1C138.15 191.1 140.7 193.66 140.7 196.81C140.7 199.96 138.15 202.52 134.99 202.52C134.35 202.52 133.74 202.42 133.17 202.23C134.29 203.27 134.98 204.76 134.98 206.4C134.98 209.55 132.42 212.11 129.27 212.11C126.12 212.11 123.56 209.55 123.56 206.4C123.56 204.64 124.36 203.07 125.61 202.02C125.15 202.14 124.65 202.21 124.15 202.21C121 202.21 118.44 199.65 118.44 196.5C118.44 193.35 121 190.79 124.15 190.79C126.39 190.79 128.33 192.07 129.26 193.94Z" fill="#13110C" stroke="#13110C" stroke-miterlimit="10"/>
</svg>
