<svg width="180" height="254" viewBox="0 0 180 254" fill="none" xmlns="http://www.w3.org/2000/svg">
<rect x="0.5" y="0.5" width="179" height="253" rx="14.5" fill="white" stroke="#1D1D1B"/>
<path d="M122.59 132.02C122.52 132.63 125.81 130.56 125.81 130.56C128.09 129.48 127.86 131.17 127.86 131.17C127.48 131.96 124.46 134.1 124.46 134.1C121.39 136.87 119.66 133.73 119.66 133.73C119.66 133.73 117.29 131.18 120.6 129.38C120.6 129.38 124.34 126.8 125.02 127.35C125.02 127.35 126.34 127.84 124.65 129.37C124.65 129.37 122.04 131.1 122.25 131.49L122.59 132.02Z" fill="#E31013"/>
<path d="M124.29 104.06C123.71 104.25 126.97 106.37 126.97 106.37C128.91 107.99 127.28 108.48 127.28 108.48C126.4 108.47 123.2 106.62 123.2 106.62C119.4 105 121.52 102.11 121.52 102.11C121.52 102.11 122.84 98.8902 125.86 101.14C125.86 101.14 129.77 103.44 129.56 104.3C129.56 104.3 129.66 105.7 127.57 104.81C127.57 104.81 124.9 103.17 124.64 103.52L124.29 104.06Z" fill="#E31013"/>
<path d="M63.7801 88.5098C78.3301 102.44 111.86 96.9298 111.86 96.9298C106.15 107.7 105.98 116.55 105.98 116.55C77.8101 117.85 63.1201 111.56 63.1201 111.56C63.1201 111.56 69.1201 104.75 67.0001 95.5898C66.4801 93.3398 65.4701 90.9598 63.7801 88.5098Z" fill="#13110C" stroke="#13110C" stroke-miterlimit="10"/>
<path d="M100.21 116.68L101 101.95H109.66C109.66 101.95 106.3 109.77 105.98 116.55L100.21 116.68Z" fill="#E31013" stroke="#13110C" stroke-miterlimit="10"/>
<path d="M47.2499 100.7C47.2499 100.7 57.6399 110.31 58.8799 112.57C58.8799 112.57 51.3599 120.22 46.8299 129.04H27.8799L28.1999 114.87L47.2499 100.7Z" fill="#211C4B" stroke="#13110C" stroke-miterlimit="10"/>
<path d="M55.8799 105.58C59.2899 98.5002 55.8799 94.1602 55.8799 94.1602L57.4699 92.9502C63.1299 101.24 57.4699 106.79 57.4699 106.79" fill="white"/>
<path d="M55.8799 105.58C59.2899 98.5002 55.8799 94.1602 55.8799 94.1602L57.4699 92.9502C63.1299 101.24 57.4699 106.79 57.4699 106.79" stroke="#13110C" stroke-miterlimit="10"/>
<path d="M42.4103 75.1987L34.8818 81.0259L40.709 88.5543L48.2374 82.7271L42.4103 75.1987Z" fill="#211C4B" stroke="#13110C" stroke-miterlimit="10"/>
<path d="M65.3101 87.5802C65.3101 87.5802 75.6501 96.8602 97.8001 95.9202C97.8001 95.9202 121.6 95.4902 134.73 87.0002C134.73 87.0002 128.23 83.7302 122.34 69.9402C122.34 69.9402 92.5501 63.5102 89.2201 68.7502L87.2301 70.4202L65.3101 87.5802Z" fill="#211C4B" stroke="#13110C" stroke-miterlimit="10"/>
<path d="M155.87 230.21C156.7 230.21 157.29 230.25 157.66 230.32C158.08 230.42 158.49 230.61 158.88 230.91C159.76 230.2 160.73 229.84 161.78 229.84C162.91 229.84 163.93 230.25 164.82 231.06C165.76 231.9 166.23 232.88 166.23 234V235.55H167.38V237.57C167.34 237.58 166.95 237.61 166.23 237.65V243.89C166.23 245.02 165.76 246.01 164.82 246.85C163.92 247.66 162.91 248.07 161.78 248.07C160.65 248.07 159.62 247.66 158.7 246.83C157.78 246 157.32 245.02 157.32 243.89V234C157.32 233.52 157.42 233.06 157.61 232.59C157.41 232.46 157.23 232.38 157.06 232.34H155.86V230.21H155.87ZM164.08 237.64C163.23 237.54 162.37 237.15 161.52 236.46C160.99 236.04 160.31 235.37 159.48 234.44V243.87C159.48 244.37 159.72 244.83 160.2 245.23C160.68 245.64 161.2 245.84 161.76 245.84C162.32 245.84 162.85 245.64 163.34 245.23C163.83 244.82 164.07 244.37 164.07 243.87V237.64H164.08ZM160.51 232.44L163.22 235.12C163.44 235.35 163.73 235.49 164.08 235.54V234.01C164.08 233.51 163.84 233.06 163.35 232.65C162.86 232.24 162.33 232.03 161.77 232.03C161.34 232.03 160.92 232.17 160.51 232.44Z" fill="#E30B13"/>
<path d="M21.3999 25.9C20.5699 25.9 19.9799 25.86 19.6099 25.79C19.1899 25.69 18.7799 25.5 18.3899 25.2C17.5099 25.91 16.5399 26.27 15.4899 26.27C14.3599 26.27 13.3399 25.86 12.4499 25.05C11.5099 24.21 11.0399 23.23 11.0399 22.11V20.56H9.88989V18.54C9.92989 18.53 10.3199 18.5 11.0399 18.46V12.22C11.0399 11.09 11.5099 10.1 12.4499 9.26004C13.3499 8.45004 14.3599 8.04004 15.4899 8.04004C16.6199 8.04004 17.6499 8.45004 18.5699 9.28004C19.4899 10.11 19.9499 11.09 19.9499 12.22V22.11C19.9499 22.58 19.8499 23.05 19.6599 23.52C19.8599 23.65 20.0399 23.73 20.2099 23.77H21.4099V25.9H21.3999ZM13.1899 18.46C14.0399 18.56 14.8999 18.95 15.7499 19.64C16.2799 20.06 16.9599 20.73 17.7899 21.66V12.23C17.7899 11.73 17.5499 11.27 17.0699 10.87C16.5899 10.46 16.0699 10.26 15.5099 10.26C14.9499 10.26 14.4199 10.46 13.9299 10.87C13.4399 11.28 13.1999 11.73 13.1999 12.23V18.46H13.1899ZM16.7599 23.67L14.0499 20.99C13.8299 20.76 13.5399 20.62 13.1899 20.56V22.09C13.1899 22.59 13.4299 23.04 13.9199 23.45C14.4099 23.86 14.9399 24.07 15.4999 24.07C15.9299 24.07 16.3499 23.94 16.7599 23.67Z" fill="#E30B13"/>
<path d="M148.67 31.54H27.8799V226.56H148.67V31.54Z" stroke="#13110C" stroke-miterlimit="10"/>
<path d="M140.6 31.5398C140.6 31.5398 136.25 44.5998 147.64 62.8098C147.64 62.8098 144.11 61.3798 138.85 64.3298C137.55 65.0598 136.14 66.0598 134.66 67.4098L109.16 31.5298H110.03H140.6V31.5398Z" fill="#FFEA24" stroke="#13110C" stroke-miterlimit="10"/>
<path d="M138.2 64.7098L115.05 31.5298H109.15L134.65 67.4098C134.65 67.4098 137.24 65.2698 138.2 64.7098Z" fill="#13110C" stroke="#13110C" stroke-miterlimit="10"/>
<path d="M119.08 32.9399L126.83 42.0899" stroke="#211C4B" stroke-miterlimit="10"/>
<path d="M136.71 53.5401C135.31 53.4601 129.87 46.8701 129.87 46.8701L140 62.2801C140.01 62.2701 136.79 54.5701 136.71 53.5401Z" fill="#211C4B"/>
<path d="M122.95 34.8398L127.65 40.1098" stroke="#211C4B" stroke-miterlimit="10"/>
<path d="M131.03 45.3799L135.97 51.2299" stroke="#211C4B" stroke-miterlimit="10"/>
<path d="M138.94 54.9399L141.99 61.4499" stroke="#211C4B" stroke-miterlimit="10"/>
<path d="M127.338 42.5463L127.256 45.7153L130.425 45.7974L130.507 42.6284L127.338 42.5463Z" fill="#211C4B"/>
<path d="M140.5 51.56C140.5 52.43 139.8 53.13 138.93 53.13C138.07 53.13 137.36 52.43 137.36 51.56C137.36 50.7 138.06 50 138.93 50C139.8 50 140.5 50.7 140.5 51.56Z" fill="#211C4B"/>
<path d="M131.03 36.9399C131.03 39.1499 130.64 40.9399 130.16 40.9399C129.68 40.9399 129.29 39.1499 129.29 36.9399C129.29 34.7299 129.68 32.9399 130.16 32.9399C130.64 32.9399 131.03 34.7299 131.03 36.9399Z" fill="#211C4B"/>
<path d="M135.5 39.98C133.81 41.4 132.19 42.26 131.88 41.89C131.57 41.52 132.69 40.08 134.38 38.66C136.07 37.24 137.69 36.38 137.99 36.75C138.31 37.11 137.19 38.56 135.5 39.98Z" fill="#211C4B"/>
<path d="M134.54 46.4902C132.78 45.1602 131.59 43.7602 131.88 43.3802C132.17 43.0002 133.83 43.7702 135.59 45.1102C137.35 46.4402 138.54 47.8302 138.25 48.2202C137.95 48.5902 136.29 47.8202 134.54 46.4902Z" fill="#211C4B"/>
<path d="M101.98 31.54L148.67 95.58V85.08L109.15 31.54H101.98Z" fill="#E31013" stroke="#13110C" stroke-miterlimit="10"/>
<path d="M101.98 31.54H85.3101V41.98C85.3101 41.98 91.6301 39.79 94.1701 34.85C94.1701 34.85 100.78 43.17 111.4 45.28H111.99L101.98 31.54Z" fill="#AFA3C7" stroke="#13120D" stroke-width="0.5" stroke-miterlimit="10"/>
<path d="M119.81 56C119.81 56 119.84 73.25 130.16 82.16C130.16 82.16 138.12 92.49 147.63 94.16L119.81 56Z" fill="#AFA3C7" stroke="#13120D" stroke-miterlimit="10"/>
<path d="M94.1701 34.8398C102.28 44.0198 111.99 45.2698 111.99 45.2698L119.5 55.5598C114.1 68.4598 105.98 74.1598 105.98 74.1598C99.4801 78.9098 94.2301 78.0798 94.2301 78.0798C85.2301 71.0798 85.3101 60.6598 85.3101 60.6598V41.9698C85.3101 41.9698 92.0901 39.0098 94.1701 34.8398Z" fill="#FED68A" stroke="#13110C" stroke-miterlimit="10"/>
<path d="M86.23 40.1101C86.23 40.1101 91.9 36.7401 93.31 33.5801" stroke="#13110C" stroke-width="0.5" stroke-miterlimit="10"/>
<path d="M86.23 37.9101C86.23 37.9101 89.98 36.1601 91.56 33.5801" stroke="#13110C" stroke-width="0.5" stroke-miterlimit="10"/>
<path d="M86.23 35.2501C86.23 35.2501 87.73 34.5801 88.9 33.5801" stroke="#13110C" stroke-width="0.5" stroke-miterlimit="10"/>
<path d="M95.1499 32.9399C95.1499 32.9399 100.73 39.9799 109.48 43.2799" stroke="#13110C" stroke-width="0.5" stroke-miterlimit="10"/>
<path d="M97.6499 32.9399C97.6499 32.9399 100.65 37.1399 106.82 40.1099" stroke="#13110C" stroke-width="0.5" stroke-miterlimit="10"/>
<path d="M100.23 32.9399C100.23 32.9399 100.73 34.6999 104.98 37.4699" stroke="#13110C" stroke-width="0.5" stroke-miterlimit="10"/>
<path d="M121.56 60.25V65.08" stroke="#13110C" stroke-width="0.5" stroke-miterlimit="10"/>
<path d="M123.23 62.27V69.75" stroke="#13110C" stroke-width="0.5" stroke-miterlimit="10"/>
<path d="M124.9 65.0801V73.6601" stroke="#13110C" stroke-width="0.5" stroke-miterlimit="10"/>
<path d="M126.9 67.4102V76.8302" stroke="#13110C" stroke-width="0.5" stroke-miterlimit="10"/>
<path d="M128.88 70.0801V78.9101" stroke="#13110C" stroke-width="0.5" stroke-miterlimit="10"/>
<path d="M131.03 73.1602V81.4102" stroke="#13110C" stroke-width="0.5" stroke-miterlimit="10"/>
<path d="M132.98 76.0801V83.6601" stroke="#13110C" stroke-width="0.5" stroke-miterlimit="10"/>
<path d="M135.06 78.9102L134.94 85.3302" stroke="#13110C" stroke-width="0.5" stroke-miterlimit="10"/>
<path d="M137.37 81.4102V87.5802" stroke="#13110C" stroke-width="0.5" stroke-miterlimit="10"/>
<path d="M139.56 84.9102V89.0802" stroke="#13110C" stroke-width="0.5" stroke-miterlimit="10"/>
<path d="M141.99 87.5801V90.7501" stroke="#13110C" stroke-width="0.5" stroke-miterlimit="10"/>
<path d="M143.4 89.9102V91.6602" stroke="#13110C" stroke-width="0.5" stroke-miterlimit="10"/>
<path d="M86.23 46.8502C86.23 46.8502 89.39 44.6802 92.28 47.8002C92.28 47.8002 95.07 52.4802 92.56 57.8802C92.56 57.8802 89 61.3902 91.89 63.9002C91.89 63.9002 94 64.4502 95.14 63.5602C95.14 63.5602 98.55 64.4502 97.64 61.3902" stroke="#13110C" stroke-miterlimit="10"/>
<path d="M93.79 64.5601V65.2901" stroke="#13110C" stroke-miterlimit="10"/>
<path d="M89.77 69.75H99.47" stroke="#13110C" stroke-miterlimit="10"/>
<path d="M93.01 70.0801H95.35" stroke="#13110C" stroke-miterlimit="10"/>
<path d="M93.01 69.1299H95.35" stroke="#13110C" stroke-miterlimit="10"/>
<path d="M96.18 72.1201L94.18 74.5001H95.35L92.79 72.1201" stroke="#13110C" stroke-miterlimit="10"/>
<path d="M92.02 51.6399C89.95 49.4999 86.23 50.9699 86.23 50.9699C86.23 50.9699 86.77 54.8099 90.89 53.5899C90.89 53.5899 93.53 53.1999 92.02 51.6399Z" stroke="#13110C" stroke-miterlimit="10"/>
<path d="M92.4801 54.0298C92.4801 54.0298 89.8201 55.9798 89.3501 55.7598" stroke="#13110C" stroke-miterlimit="10"/>
<path d="M97.3501 46.7901C97.3501 46.7901 105.54 45.4501 110.66 48.8001" stroke="#13110C" stroke-miterlimit="10"/>
<path d="M108.61 52.8102C104.04 49.6902 98.22 51.7002 98.22 51.7002C98.22 51.7002 96.42 55.1702 102.88 54.9102C102.87 54.9002 106.99 54.8102 108.61 52.8102Z" stroke="#13110C" stroke-miterlimit="10"/>
<path d="M98.23 54.3999C98.23 54.3999 101 56.5199 103.29 57.1399" stroke="#13110C" stroke-miterlimit="10"/>
<path d="M89.22 52.6099C89.7447 52.6099 90.17 52.404 90.17 52.1499C90.17 51.8959 89.7447 51.6899 89.22 51.6899C88.6954 51.6899 88.27 51.8959 88.27 52.1499C88.27 52.404 88.6954 52.6099 89.22 52.6099Z" fill="#13110C" stroke="#13110C" stroke-miterlimit="10"/>
<path d="M104.19 52.9601C104.19 53.3101 103.39 53.5901 102.41 53.5901C101.43 53.5901 100.63 53.3001 100.63 52.9601C100.63 52.6101 101.43 52.3301 102.41 52.3301C103.39 52.3301 104.19 52.6201 104.19 52.9601Z" fill="#13110C" stroke="#13110C" stroke-miterlimit="10"/>
<path d="M85.31 31.54H83.14L81.97 33.58C81.97 33.58 72.97 41.32 65.97 61.45C65.97 61.45 61.97 72.41 61.47 89.91L65.3 87.58C65.3 87.58 64.47 77.14 68.97 62.28C68.97 62.28 72.47 49.59 82.97 37.92L85.3 35.75V31.54H85.31Z" fill="#FFEA24" stroke="#13110C" stroke-miterlimit="10"/>
<path d="M73.3999 81.4102L87.2299 70.4102C87.2299 70.4102 86.6399 69.3302 85.3899 61.9502C85.3899 61.9502 85.3099 50.6602 85.3099 49.4702C85.3099 49.4702 74.3899 63.9902 74.1399 80.7402" fill="#E31013"/>
<path d="M73.3999 81.4102L87.2299 70.4102C87.2299 70.4102 86.6399 69.3302 85.3899 61.9502C85.3899 61.9502 85.3099 50.6602 85.3099 49.4702C85.3099 49.4702 74.3899 63.9902 74.1399 80.7402" stroke="#13110C" stroke-miterlimit="10"/>
<path d="M27.8799 129.04H88.2799" stroke="#13110C" stroke-miterlimit="10"/>
<path d="M119.81 56C118.11 62.94 107.22 73.17 107.22 73.17C107.22 73.17 115.73 73.81 122.34 69.94C122.34 69.93 119.85 63.94 119.81 56Z" fill="#AFA3C7" stroke="#13120D" stroke-miterlimit="10"/>
<path d="M110.36 71.8301C110.36 71.8301 116.22 71.4601 120.89 69.3701" stroke="#13110C" stroke-width="0.5" stroke-miterlimit="10"/>
<path d="M112.39 69.7502C112.39 69.7502 118.42 68.8602 120.36 67.7402" stroke="#13110C" stroke-width="0.5" stroke-miterlimit="10"/>
<path d="M114.33 67.4098C114.33 67.4098 118.07 66.9398 119.82 66.0098" stroke="#13110C" stroke-width="0.5" stroke-miterlimit="10"/>
<path d="M116.23 65.0801C116.23 65.0801 119.1 64.8001 119.5 64.6001" stroke="#13110C" stroke-width="0.5" stroke-miterlimit="10"/>
<path d="M117.42 63.1601C117.42 63.1601 118.89 63.2001 119.5 62.8301" stroke="#13110C" stroke-width="0.5" stroke-miterlimit="10"/>
<path d="M81.3701 78.9102H77.8301V82.7502H81.3701V78.9102Z" stroke="#FFEA24" stroke-miterlimit="10"/>
<path d="M90.1699 80.8301H86.6299V84.6701H90.1699V80.8301Z" stroke="#FFEA24" stroke-miterlimit="10"/>
<path d="M99.3701 81.3398H95.8301V85.1798H99.3701V81.3398Z" stroke="#FFEA24" stroke-miterlimit="10"/>
<path d="M108.16 80.8301H104.62V84.6701H108.16V80.8301Z" stroke="#FFEA24" stroke-miterlimit="10"/>
<path d="M117.07 78.8301H113.53V82.6701H117.07V78.8301Z" stroke="#FFEA24" stroke-miterlimit="10"/>
<path d="M79.1899 87.9902H75.6499V91.8302H79.1899V87.9902Z" stroke="#FFEA24" stroke-miterlimit="10"/>
<path d="M84.9101 84.6699H81.3701V88.5099H84.9101V84.6699Z" stroke="#FFEA24" stroke-miterlimit="10"/>
<path d="M94.56 86.0698H91.02V89.9098H94.56V86.0698Z" stroke="#FFEA24" stroke-miterlimit="10"/>
<path d="M103.75 85.6602H100.21V89.5002H103.75V85.6602Z" stroke="#FFEA24" stroke-miterlimit="10"/>
<path d="M113.2 84.6699H109.66V88.5099H113.2V84.6699Z" stroke="#FFEA24" stroke-miterlimit="10"/>
<path d="M122.66 82.5801H119.12V86.4201H122.66V82.5801Z" stroke="#FFEA24" stroke-miterlimit="10"/>
<path d="M98.8901 91.6602H95.3501V94.8902H98.8901V91.6602Z" stroke="#FFEA24" stroke-miterlimit="10"/>
<path d="M89 90.75H85.46V94.16H89V90.75Z" stroke="#FFEA24" stroke-miterlimit="10"/>
<path d="M109 90.3198H105.46V93.6998H109V90.3198Z" stroke="#FFEA24" stroke-miterlimit="10"/>
<path d="M118.84 88.8301H115.3V92.0101H118.84V88.8301Z" stroke="#FFEA24" stroke-miterlimit="10"/>
<path d="M128.67 85.6602H125.13V89.0802H128.67V85.6602Z" stroke="#FFEA24" stroke-miterlimit="10"/>
<path d="M74.8001 83.2598H71.8101V86.2898H74.8001V83.2598Z" stroke="#FFEA24" stroke-miterlimit="10"/>
<path d="M82.45 79.3401L88.96 79.4501L86.37 74.3901L82.45 79.3401Z" fill="#FFEA24"/>
<path d="M107.82 78.9702L112.91 78.3402L110.33 74.6802L107.82 78.9702Z" fill="#FFEA24"/>
<path d="M114.67 77.8502L119.47 76.1702L116.21 73.1602L114.67 77.8502Z" fill="#FFEA24"/>
<path d="M102.41 80.0399L107.41 79.1199L104.65 75.6499L102.41 80.0399Z" fill="#FFEA24"/>
<path d="M89.77 79.4501L94.48 80.0401L92.02 76.8301L89.77 79.4501Z" fill="#FFE922"/>
<path d="M96.1799 79.8701L101 80.0401L99.4699 77.8501L96.1799 78.8301V79.8701Z" fill="#FFE922"/>
<path d="M120.89 75.6501L123.67 74.3901L121.56 72.1201L120.89 75.6501Z" fill="#FFE922"/>
<path d="M123.929 76.7651L121.335 77.7388L122.524 80.9031L125.117 79.9295L123.929 76.7651Z" stroke="#FFEA24" stroke-miterlimit="10"/>
<path d="M63.78 88.5098C63.78 88.5098 71.35 97.2298 91.46 97.5398C91.46 97.5398 107.13 98.6398 116.23 95.9798C116.23 95.9798 130.93 92.3598 135.97 88.0698L134.73 87.0698C134.73 87.0698 125.13 92.4498 115.63 93.8798C115.63 93.8798 100.59 96.7798 92.49 95.9798C92.49 95.9798 83.56 96.0298 72.22 91.6598C72.22 91.6598 66.26 88.8998 65.31 87.5798L63.78 88.5098Z" fill="#FFEA24" stroke="#13110C" stroke-miterlimit="10"/>
<path d="M65.31 87.58C65.31 87.58 63.06 57.58 85.31 35.75V49.48C72.98 66 73.4 81.41 73.4 81.41L65.31 87.58Z" fill="#13110C" stroke="#13110C" stroke-miterlimit="10"/>
<path d="M41.57 78.91C41.57 80.25 40.49 81.33 39.15 81.33C37.81 81.33 36.73 80.24 36.73 78.91C36.73 77.57 37.82 76.48 39.15 76.48C40.49 76.49 41.57 77.57 41.57 78.91Z" fill="#FFEA24" stroke="#13110C" stroke-miterlimit="10"/>
<path d="M47.14 79.45C47.14 80.79 46.0601 81.87 44.7201 81.87C43.3801 81.87 42.3 80.78 42.3 79.45C42.3 78.11 43.3801 77.02 44.7201 77.02C46.0601 77.02 47.14 78.11 47.14 79.45Z" fill="#FFEA24" stroke="#13110C" stroke-miterlimit="10"/>
<path d="M46.4201 85.1798C46.4201 86.5198 45.3401 87.6098 44.0001 87.6098C42.6601 87.6098 41.5801 86.5198 41.5801 85.1798C41.5801 83.8398 42.6601 82.7598 44.0001 82.7598C45.3401 82.7498 46.4201 83.8398 46.4201 85.1798Z" fill="#FFEA24" stroke="#13110C" stroke-miterlimit="10"/>
<path d="M40.89 84.6702C40.89 86.0102 39.8001 87.0902 38.4701 87.0902C37.1301 87.0902 36.05 86.0002 36.05 84.6702C36.05 83.3302 37.1301 82.2402 38.4701 82.2402C39.8101 82.2502 40.89 83.3302 40.89 84.6702Z" fill="#FFEA24" stroke="#13110C" stroke-miterlimit="10"/>
<path d="M43.0501 82.38C43.0501 83.2 42.3801 83.87 41.5601 83.87C40.7401 83.87 40.0701 83.21 40.0701 82.38C40.0701 82.2 40.1001 82.02 40.1601 81.86C40.3701 81.3 40.9101 80.9 41.5501 80.9C42.3801 80.89 43.0501 81.56 43.0501 82.38Z" fill="white" stroke="#13110C" stroke-miterlimit="10"/>
<path d="M35.49 90.0801C35.59 90.0701 45.78 92.3501 47.45 99.9501L47.35 100.62L38.46 107.24C38.46 107.24 31.93 104.53 30.89 101.95C30.89 101.95 30.06 99.4101 31.14 99.2801C31.14 99.2801 29.81 97.5301 31.06 96.5701C31.06 96.5701 30.18 94.4501 31.56 93.6501C31.56 93.6501 30.27 90.6901 33.27 90.4801C33.27 90.5001 33.92 90.2101 35.49 90.0801Z" fill="#FED68A" stroke="#13110C" stroke-miterlimit="10"/>
<path d="M31.5599 93.6602L37.0999 94.6202C37.0999 94.6202 40.9899 96.7002 38.4599 97.6202C38.4599 97.6202 40.8999 99.2901 38.4599 99.9501C38.4599 99.9501 39.4699 101.95 37.0999 102.57C37.0999 102.57 32.3399 102.95 31.1299 102.41" stroke="#13110C" stroke-miterlimit="10"/>
<path d="M38.4701 97.6201L31.0601 96.5801" stroke="#13110C" stroke-miterlimit="10"/>
<path d="M38.4699 99.95L31.1499 99.29" stroke="#13110C" stroke-miterlimit="10"/>
<path d="M36.5201 90.35C35.0301 89.93 33.3501 90.08 33.3501 90.08C28.6001 87.5 29.1401 82.25 29.1401 82.25C29.1401 82.25 35.1801 82.79 36.5201 89.29C36.5201 89.29 36.9701 90.47 36.5201 90.35Z" fill="#BBB32E" stroke="#13110C" stroke-miterlimit="10"/>
<path d="M42.9099 93.44L44.5299 94.82C44.5299 94.82 51.9799 95.68 53.8999 92.42C53.8999 92.42 55.1099 88.13 46.1499 90.35C46.1499 90.36 44.0799 91.1 42.9099 93.44Z" fill="#BBB32E" stroke="#13110C" stroke-miterlimit="10"/>
<path d="M38.4699 87.1001L37.6299 90.7101L39.7999 91.6101L40.7099 88.5501L39.4299 86.8901L38.4699 87.1001Z" fill="#BBB32E" stroke="#13110C" stroke-miterlimit="10"/>
<path d="M30.53 83.8599C30.53 83.8599 33.15 87.5099 34.89 88.5399" stroke="#13110C" stroke-miterlimit="10"/>
<path d="M44.72 93.3699C44.72 93.3699 51.24 92.3299 51.99 91.6099" stroke="#13110C" stroke-miterlimit="10"/>
<path d="M33.99 102.71V104.92V110.25V110.88L36.04 109.07V102.71H33.99Z" fill="#BBB32E" stroke="#13110C" stroke-miterlimit="10"/>
<path d="M61.8001 89.7098C70.5801 102.35 60.3901 110.87 60.3901 110.87L62.0101 112.64C73.6301 101.95 63.7701 88.5098 63.7701 88.5098L61.4701 89.9098L27.8701 115.38" fill="#FFEA24"/>
<path d="M61.8001 89.7098C70.5801 102.35 60.3901 110.87 60.3901 110.87L62.0101 112.64C73.6301 101.95 63.7701 88.5098 63.7701 88.5098L61.4701 89.9098L27.8701 115.38" stroke="#13110C" stroke-miterlimit="10"/>
<path d="M47.25 100.7C47.25 100.7 66.44 117.05 67.69 129.04H69.96C66.45 111.54 49.11 99.2798 49.11 99.2798L47.25 100.7Z" fill="#FFEA24" stroke="#13110C" stroke-miterlimit="10"/>
<path d="M49.1001 129.04C51.6901 122.94 60.1701 114.16 60.1701 114.16L58.8801 112.56C58.8801 112.56 51.5901 119.15 46.8301 129.03H49.1001V129.04Z" fill="#FFEA24" stroke="#13110C" stroke-miterlimit="10"/>
<path d="M61.4799 89.9102L60.1699 90.9002C60.1699 90.9002 67.8999 98.9101 59.6899 109.27L60.9199 110.38C60.9199 110.38 70.5599 102.11 61.4799 89.9102Z" fill="white" stroke="#13110C" stroke-miterlimit="10"/>
<path d="M59.96 91.0698L57.75 92.7498C57.75 92.7498 63.09 100.86 57.48 106.8L59.7 109.28C59.69 109.28 67.93 99.8898 59.96 91.0698Z" fill="#13110C" stroke="#13110C" stroke-miterlimit="10"/>
<path d="M55.6001 94.3701C55.6001 94.3701 59.8701 99.2301 55.8901 105.15C55.8901 105.15 50.3401 99.9901 49.1201 99.2801L55.6001 94.3701Z" fill="#211C4B" stroke="#13110C" stroke-miterlimit="10"/>
<path d="M44.72 115.02C44.72 115.02 43.28 109.15 46.09 109.28L46.84 109.66L47.45 110.39V112.26C47.45 112.26 51.83 111.03 50.17 114.18C50.17 114.17 48.97 115.78 44.72 115.02Z" fill="#FFEA24"/>
<path d="M44.3599 116.91C44.3599 116.91 50.0799 114.98 50.1999 117.79L49.8899 118.57L49.2199 119.24L47.3599 119.4C47.3599 119.4 48.9499 123.66 45.6799 122.27C45.6699 122.27 43.9599 121.21 44.3599 116.91Z" fill="#FFEA24"/>
<path d="M42.8199 116.27C42.8199 116.27 43.5299 122.27 40.7499 121.8L40.0499 121.33L39.5299 120.53L39.7599 118.68C39.7599 118.68 35.2599 119.36 37.2999 116.44C37.3099 116.45 38.6999 114.99 42.8199 116.27Z" fill="#FFEA24"/>
<path d="M42.83 114.61C42.83 114.61 36.82 115.19 37.35 112.42L37.83 111.73L38.64 111.23L40.49 111.5C40.49 111.5 39.91 106.99 42.78 109.09C42.78 109.1 44.21 110.52 42.83 114.61Z" fill="#FFEA24"/>
<path d="M36.3101 126.63C37.26 126.63 38.0301 125.86 38.0301 124.91C38.0301 123.96 37.26 123.19 36.3101 123.19C35.3602 123.19 34.5901 123.96 34.5901 124.91C34.5901 125.86 35.3602 126.63 36.3101 126.63Z" fill="#FFEA24"/>
<path d="M50.2 109.84C51.1499 109.84 51.92 109.07 51.92 108.12C51.92 107.17 51.1499 106.4 50.2 106.4C49.2501 106.4 48.48 107.17 48.48 108.12C48.48 109.07 49.2501 109.84 50.2 109.84Z" fill="#FFEA24"/>
<path d="M29.1001 126.64C29.1001 126.64 30.2501 122.24 36.7801 116.26" stroke="#FFEA24" stroke-miterlimit="10"/>
<path d="M43.4299 108.95C43.4299 108.95 44.5899 104.65 47.2499 101.95" stroke="#FFEA24" stroke-miterlimit="10"/>
<path d="M49.98 115.74C49.98 115.74 54.39 114.2 56.56 112.25" stroke="#FFEA24" stroke-miterlimit="10"/>
<path d="M49.1001 129.04C49.1001 129.04 51.2001 123.65 60.1701 114.16C60.1701 114.16 66.8401 121.94 67.6801 129.04H49.1001Z" fill="#211C4B" stroke="#13110C" stroke-miterlimit="10"/>
<path d="M55.95 119.8L63.36 120.81L59.66 128.21" stroke="white" stroke-miterlimit="10"/>
<path d="M65.4199 124.01L64.1899 126.07L66.6899 127.12" stroke="white" stroke-miterlimit="10"/>
<path d="M57.3601 118.27L63.0501 119.4" stroke="#FFEA24" stroke-miterlimit="10"/>
<path d="M64.5399 121.83L61.6899 127.47L64.5399 128.36" stroke="#FFEA24" stroke-miterlimit="10"/>
<path d="M52.36 137.24C52.36 137.24 51.88 138.78 55.65 139.65C55.65 139.65 56.48 139.68 56.66 140.45L56.57 141.05C56.35 141.4 53.94 141.27 53.94 141.27C51 141.27 52.36 142.67 52.36 142.67C54.59 144.07 57.84 143.68 57.84 143.68C61.17 143.24 60.21 139.82 60.21 139.82" stroke="#13110C" stroke-miterlimit="10"/>
<path d="M63.12 111.56L62.21 112.46L63.89 114.87C63.89 114.87 77.27 120.31 105.45 118.58C105.45 118.58 105.78 117.47 105.97 116.54C105.97 116.55 78.13 117.99 63.12 111.56Z" fill="#FFEA24" stroke="#13110C" stroke-miterlimit="10"/>
<path d="M111.86 96.9299L114.57 96.4199C114.57 96.4199 104.68 112.27 109 129.05H106.82C106.81 129.04 102.98 113.11 111.86 96.9299Z" fill="#FFEA24" stroke="#13110C" stroke-miterlimit="10"/>
<path d="M67.2201 96.4102L74.7901 98.6602L73.9501 114.66C73.9501 114.66 65.3101 112.73 63.1101 111.55C63.1201 111.56 69.1401 105.25 67.2201 96.4102Z" fill="#E31013" stroke="#13110C" stroke-miterlimit="10"/>
<path d="M73.3999 101.95C73.3999 101.95 73.7199 99.0798 71.8099 99.2898C71.8099 99.2898 67.5299 99.5798 69.9699 103.5C69.9699 103.5 72.4699 107.37 71.8099 109.85C71.8099 109.85 69.4799 112.97 67.6899 109.28" stroke="white" stroke-miterlimit="10"/>
<path d="M102.3 105.26C102.3 105.26 102.63 102.51 104.03 103.17C104.03 103.17 107.22 104.48 104.59 107.53C104.59 107.53 101.92 110.52 101.93 112.99C101.93 112.99 103.07 116.46 105.16 113.46" stroke="white" stroke-miterlimit="10"/>
<path d="M79.19 96.4102L81.37 96.6301L80.31 115.64L77.97 115.24L79.19 96.4102Z" fill="#FFEA24" stroke="#13110C" stroke-miterlimit="10"/>
<path d="M85.3101 97.6201L84.5601 116.07L86.8101 116.26L87.9001 97.7701L85.3101 97.6201Z" fill="#FFEA24" stroke="#13110C" stroke-miterlimit="10"/>
<path d="M87.9001 97.77L91.0201 97.84L89.7701 116.48L86.8101 116.26L87.9001 97.77Z" fill="#FFEA24" stroke="#13110C" stroke-miterlimit="10"/>
<path d="M94.62 97.98L93.79 116.73H96.18L97.12 98L94.62 97.98Z" fill="#FFEA24" stroke="#13110C" stroke-miterlimit="10"/>
<path d="M81.3701 96.6299L85.3101 97.6199L84.5601 116.07L80.3101 115.64L81.3701 96.6299Z" fill="#E31013" stroke="#13110C" stroke-miterlimit="10"/>
<path d="M91.02 97.8398L89.77 116.48L93.79 116.73L94.62 97.9799L91.02 97.8398Z" fill="#E31013" stroke="#13110C" stroke-miterlimit="10"/>
<path d="M83.1399 99.29V102.71" stroke="white" stroke-miterlimit="10"/>
<path d="M82.8101 106.03V106.94" stroke="white" stroke-miterlimit="10"/>
<path d="M82.45 109.32V112.73" stroke="white" stroke-miterlimit="10"/>
<path d="M92.47 101.4V104.82" stroke="white" stroke-miterlimit="10"/>
<path d="M92.1499 108.14V109.05" stroke="white" stroke-miterlimit="10"/>
<path d="M91.79 111.43V114.84" stroke="white" stroke-miterlimit="10"/>
<path d="M105.97 118.27C105.23 118.81 106.81 129.04 106.81 129.04H69.9601C68.9501 122.62 64.1201 115.22 64.1201 115.22C64.1201 115.22 79.7801 119.92 105.97 118.27Z" fill="#13110C" stroke="#13110C" stroke-miterlimit="10"/>
<path d="M68.96 122.13C68.96 122.13 85.12 126.49 104.94 125.09" stroke="white" stroke-miterlimit="10"/>
<path d="M68.6 117.42L68.54 120.1" stroke="white" stroke-miterlimit="10"/>
<path d="M71.77 118.27V120.81" stroke="white" stroke-miterlimit="10"/>
<path d="M74.79 118.93V121.61" stroke="white" stroke-miterlimit="10"/>
<path d="M77.97 119.4V122.13" stroke="white" stroke-miterlimit="10"/>
<path d="M80.85 119.8L80.79 122.42" stroke="white" stroke-miterlimit="10"/>
<path d="M84.0901 120.1V122.79" stroke="white" stroke-miterlimit="10"/>
<path d="M87.8999 120.27V123.11" stroke="white" stroke-miterlimit="10"/>
<path d="M91.02 120.77V123.11" stroke="white" stroke-miterlimit="10"/>
<path d="M94.6201 120.77V123.11" stroke="white" stroke-miterlimit="10"/>
<path d="M97.8101 120.77V123.11" stroke="white" stroke-miterlimit="10"/>
<path d="M100.85 120.27V123.11" stroke="white" stroke-miterlimit="10"/>
<path d="M104.15 120.1L104.21 123.11" stroke="white" stroke-miterlimit="10"/>
<path d="M71.77 129.04V125.37C71.77 125.37 91.28 128.03 104.45 127.21V129.05H71.77V129.04Z" fill="#E31013"/>
<path d="M133.93 89.4998L148.67 106.94V103.11L135.97 88.5098L133.93 89.4998Z" fill="#FFEA24" stroke="#13110C" stroke-miterlimit="10"/>
<path d="M148.67 107.36V117.66L127.99 92.28L133.93 89.5L148.67 107.36Z" fill="#211C4B" stroke="#13110C" stroke-miterlimit="10"/>
<path d="M132.65 94.8999L135.97 95.5799" stroke="white" stroke-miterlimit="10"/>
<path d="M134.31 93.7002L133.93 96.9902" stroke="white" stroke-miterlimit="10"/>
<path d="M135.71 98.8301L139.03 99.5201" stroke="white" stroke-miterlimit="10"/>
<path d="M137.37 97.6401L136.99 100.93" stroke="white" stroke-miterlimit="10"/>
<path d="M139.03 102.66L142.36 103.34" stroke="white" stroke-miterlimit="10"/>
<path d="M140.7 101.46L140.31 104.76" stroke="white" stroke-miterlimit="10"/>
<path d="M141.74 106.49L145.06 107.17" stroke="white" stroke-miterlimit="10"/>
<path d="M143.4 105.29L143.02 108.59" stroke="white" stroke-miterlimit="10"/>
<path d="M145.06 109.79L148.38 110.47" stroke="white" stroke-miterlimit="10"/>
<path d="M146.72 108.6L146.34 111.89" stroke="white" stroke-miterlimit="10"/>
<path d="M130.56 92.0098L132.65 92.4198" stroke="white" stroke-miterlimit="10"/>
<path d="M131.03 93.2802L131.61 91.6602" stroke="white" stroke-miterlimit="10"/>
<path d="M127.99 92.2798L125.33 93.2598L148.67 120.77V117.66L127.99 92.2798Z" fill="white" stroke="#13110C" stroke-miterlimit="10"/>
<path d="M125.33 93.2598L120.89 94.6898L148.67 128.08V120.77L125.33 93.2598Z" fill="#13110C" stroke="#13110C" stroke-miterlimit="10"/>
<path d="M148.67 129.04L120.89 94.6899L114.56 96.4099C114.56 96.4099 104.48 111.84 108.99 129.04H148.67H109H148.67Z" fill="#211C4B"/>
<path d="M148.67 129.04L120.89 94.6899L114.56 96.4099C114.56 96.4099 104.48 111.84 108.99 129.04H148.67ZM148.67 129.04H109" stroke="#13110C" stroke-miterlimit="10"/>
<path d="M119.72 117.35C119.27 117.77 123.12 118.34 123.12 118.34C125.55 119.01 124.27 120.13 124.27 120.13C123.47 120.49 119.79 120.13 119.79 120.13C115.66 120.23 116.39 116.72 116.39 116.72C116.39 116.72 116.26 113.24 119.95 114.04C119.95 114.04 124.47 114.52 124.63 115.39C124.63 115.39 125.3 116.62 123.03 116.68C123.03 116.68 119.92 116.29 119.83 116.72L119.72 117.35Z" fill="#E31013"/>
<path d="M121.36 110.57C120.85 110.9 124.54 112.13 124.54 112.13C126.82 113.21 125.37 114.09 125.37 114.09C124.52 114.3 120.95 113.32 120.95 113.32C116.86 112.71 118.19 109.38 118.19 109.38C118.19 109.38 118.66 105.93 122.15 107.35C122.15 107.35 126.52 108.6 126.53 109.47C126.53 109.47 126.98 110.8 124.73 110.47C124.73 110.47 121.74 109.56 121.57 109.96L121.36 110.57Z" fill="#E31013"/>
<path d="M119.63 124.35C119.31 124.87 123.17 124.37 123.17 124.37C125.7 124.35 124.77 125.78 124.77 125.78C124.1 126.34 120.46 127.01 120.46 127.01C116.51 128.24 116.26 124.66 116.26 124.66C116.26 124.66 115.18 121.35 118.94 121.11C118.94 121.11 123.41 120.33 123.81 121.12C123.81 121.12 124.8 122.12 122.62 122.8C122.62 122.8 119.53 123.28 119.55 123.72L119.63 124.35Z" fill="#E31013"/>
<path d="M116.55 95.91L117.52 103.07L111.16 103.58L110.6 104.79L119.26 104.64L117.98 95.48L116.55 95.91Z" fill="#FFEA24"/>
<path d="M110.03 106.58L113.18 111.91L108.34 114.43L108.3 115.57L115.08 112.56L111.01 105.76L110.03 106.58Z" fill="#FFEA24"/>
<path d="M108.06 116.74L112.56 120.99L108.6 124.75L108.88 125.86L114.57 121.1L108.78 115.68L108.06 116.74Z" fill="#FFEA24"/>
<path d="M110.92 103.76L117.42 102.94L116.66 96.3101L114.83 96.5101L110.92 103.76Z" fill="white" stroke="#13110C" stroke-miterlimit="10"/>
<path d="M110.03 106.58L113.18 111.91L108.34 114.43L110.03 106.58Z" fill="white" stroke="#13110C" stroke-miterlimit="10"/>
<path d="M108.06 116.74L112.56 120.99L108.6 124.75L108.06 116.74Z" fill="white" stroke="#13110C" stroke-miterlimit="10"/>
<path d="M117.98 95.4802L119.81 95.2402L120.53 104.64H119.26L117.98 95.4802Z" fill="white"/>
<path d="M114.93 112.31L111.01 105.76L111.02 104.82L119.26 104.64V106.14L113.18 106.58L116.99 112.73L111.86 116.26L116.12 120.74L111.32 125.86L116.99 128.7H114.15L108.88 125.86L114.57 121.1L108.3 115.57" fill="white"/>
<path d="M108.88 125.86L114.15 128.7H109.66" fill="#FFEA24"/>
<path d="M130.98 107.17C130.98 107.17 121.7 116.65 127.86 127.21L127.46 129.05H129.02L129.96 126.96C129.96 126.96 134.52 119.27 133.46 109.8L130.98 107.17Z" fill="#FFEA24" stroke="#13110C" stroke-miterlimit="10"/>
<path d="M128.71 125.02C125.52 117.21 130.9 110.14 130.9 110.14C130.9 110.14 132.3 117.38 128.71 125.02Z" fill="#E31013"/>
<path d="M139.27 120.74C139.27 121.89 138.33 122.83 137.18 122.83C136.03 122.83 135.09 121.89 135.09 120.74C135.09 119.59 136.03 118.65 137.18 118.65C138.34 118.65 139.27 119.59 139.27 120.74Z" fill="#FFEA24"/>
<path d="M52.2601 154.03C52.8401 153.84 49.5801 151.72 49.5801 151.72C47.6401 150.1 49.2701 149.61 49.2701 149.61C50.1501 149.62 53.3501 151.47 53.3501 151.47C57.1501 153.09 55.0301 155.98 55.0301 155.98C55.0301 155.98 53.7101 159.2 50.6901 156.95C50.6901 156.95 46.7801 154.65 46.9901 153.79C46.9901 153.79 46.8901 152.39 48.9801 153.28C48.9801 153.28 51.6501 154.92 51.9101 154.57L52.2601 154.03Z" fill="#E31013"/>
<path d="M112.77 169.58C98.2199 155.65 64.6899 161.16 64.6899 161.16C70.3999 150.39 70.5699 141.54 70.5699 141.54C98.7399 140.24 113.43 146.53 113.43 146.53C113.43 146.53 107.43 153.34 109.55 162.5C110.08 164.74 111.08 167.12 112.77 169.58Z" fill="#13110C" stroke="#13110C" stroke-miterlimit="10"/>
<path d="M76.3399 141.4L75.5499 156.13H66.8999C66.8999 156.13 70.2599 148.31 70.5799 141.53L76.3399 141.4Z" fill="#E31013" stroke="#13110C" stroke-miterlimit="10"/>
<path d="M129.3 157.38C129.3 157.38 118.91 147.77 117.67 145.51C117.67 145.51 125.19 137.86 129.72 129.03H148.67L148.35 143.2L129.3 157.38Z" fill="#211C4B" stroke="#13110C" stroke-miterlimit="10"/>
<path d="M120.67 152.51C117.26 159.59 120.67 163.93 120.67 163.93L119.08 165.14C113.42 156.85 119.08 151.3 119.08 151.3" fill="white"/>
<path d="M120.67 152.51C117.26 159.59 120.67 163.93 120.67 163.93L119.08 165.14C113.42 156.85 119.08 151.3 119.08 151.3" stroke="#13110C" stroke-miterlimit="10"/>
<path d="M135.843 169.555L128.315 175.382L134.142 182.911L141.671 177.084L135.843 169.555Z" fill="#211C4B" stroke="#13110C" stroke-miterlimit="10"/>
<path d="M111.24 170.51C111.24 170.51 100.9 161.23 78.7501 162.17C78.7501 162.17 54.9501 162.61 41.8201 171.1C41.8201 171.1 48.3201 174.37 54.2101 188.16C54.2101 188.16 84.0001 194.59 87.3301 189.35L89.3201 187.68L111.24 170.51Z" fill="#211C4B" stroke="#13110C" stroke-miterlimit="10"/>
<path d="M35.9599 226.55C35.9599 226.55 40.3099 213.49 28.9199 195.28C28.9199 195.28 32.4499 196.71 37.7099 193.76C39.0099 193.03 40.4199 192.03 41.8999 190.68L67.3999 226.56H66.5299H35.9599V226.55Z" fill="#FFEA24" stroke="#13110C" stroke-miterlimit="10"/>
<path d="M38.3601 193.38L61.5101 226.56H67.4101L41.9101 190.68C41.9101 190.68 39.3201 192.82 38.3601 193.38Z" fill="#13110C" stroke="#13110C" stroke-miterlimit="10"/>
<path d="M57.47 225.14L49.73 216" stroke="#211C4B" stroke-miterlimit="10"/>
<path d="M39.84 204.55C41.24 204.63 46.68 211.22 46.68 211.22L36.55 195.81C36.55 195.81 39.76 203.52 39.84 204.55Z" fill="#211C4B"/>
<path d="M53.5999 223.25L48.8999 217.97" stroke="#211C4B" stroke-miterlimit="10"/>
<path d="M45.5301 212.7L40.5801 206.85" stroke="#211C4B" stroke-miterlimit="10"/>
<path d="M37.6201 203.15L34.5701 196.64" stroke="#211C4B" stroke-miterlimit="10"/>
<path d="M46.1351 212.301L46.0549 215.47L49.224 215.55L49.3042 212.381L46.1351 212.301Z" fill="#211C4B"/>
<path d="M36.05 206.52C36.05 205.66 36.75 204.96 37.62 204.96C38.48 204.96 39.19 205.66 39.19 206.52C39.19 207.39 38.49 208.09 37.62 208.09C36.75 208.09 36.05 207.39 36.05 206.52Z" fill="#211C4B"/>
<path d="M45.53 221.15C45.53 218.94 45.92 217.15 46.4 217.15C46.88 217.15 47.27 218.94 47.27 221.15C47.27 223.36 46.88 225.14 46.4 225.14C45.91 225.14 45.53 223.35 45.53 221.15Z" fill="#211C4B"/>
<path d="M41.0501 218.11C42.7401 216.69 44.3601 215.83 44.6701 216.2C44.9801 216.57 43.8601 218.01 42.1701 219.44C40.4801 220.86 38.8601 221.72 38.5601 221.35C38.2501 220.98 39.3701 219.53 41.0501 218.11Z" fill="#211C4B"/>
<path d="M42.0201 211.6C43.7801 212.93 44.9701 214.32 44.6801 214.71C44.3901 215.09 42.7301 214.32 40.9701 212.98C39.2101 211.65 38.0201 210.26 38.3101 209.88C38.6001 209.49 40.2601 210.27 42.0201 211.6Z" fill="#211C4B"/>
<path d="M74.5699 226.55L27.8799 162.51V173.01L67.4099 226.55H74.5699Z" fill="#E31013" stroke="#13110C" stroke-miterlimit="10"/>
<path d="M74.5701 226.55H91.2401V216.11C91.2401 216.11 84.9201 218.3 82.3801 223.25C82.3801 223.25 75.7701 214.93 65.1501 212.82H64.5601L74.5701 226.55Z" fill="#AFA3C7" stroke="#13120D" stroke-width="0.5" stroke-miterlimit="10"/>
<path d="M56.7399 202.09C56.7399 202.09 56.7099 184.84 46.3899 175.92C46.3899 175.92 38.4299 165.6 28.9199 163.92L56.7399 202.09Z" fill="#AFA3C7" stroke="#13120D" stroke-miterlimit="10"/>
<path d="M82.38 223.25C74.27 214.07 64.56 212.82 64.56 212.82L57.05 202.53C62.45 189.63 70.57 183.93 70.57 183.93C77.07 179.18 82.32 180.01 82.32 180.01C91.32 187.01 91.24 197.43 91.24 197.43V216.12C91.24 216.11 84.47 219.08 82.38 223.25Z" fill="#FED68A" stroke="#13110C" stroke-miterlimit="10"/>
<path d="M90.32 217.97C90.32 217.97 84.65 221.34 83.24 224.5" stroke="#13110C" stroke-width="0.5" stroke-miterlimit="10"/>
<path d="M90.32 220.18C90.32 220.18 86.57 221.93 84.99 224.51" stroke="#13110C" stroke-width="0.5" stroke-miterlimit="10"/>
<path d="M90.3199 222.84C90.3199 222.84 88.8199 223.51 87.6499 224.51" stroke="#13110C" stroke-width="0.5" stroke-miterlimit="10"/>
<path d="M81.4101 225.14C81.4101 225.14 75.8301 218.1 67.0801 214.8" stroke="#13110C" stroke-width="0.5" stroke-miterlimit="10"/>
<path d="M78.91 225.14C78.91 225.14 75.91 220.94 69.74 217.97" stroke="#13110C" stroke-width="0.5" stroke-miterlimit="10"/>
<path d="M76.3201 225.14C76.3201 225.14 75.8201 223.38 71.5701 220.61" stroke="#13110C" stroke-width="0.5" stroke-miterlimit="10"/>
<path d="M54.99 197.84V193.01" stroke="#13110C" stroke-width="0.5" stroke-miterlimit="10"/>
<path d="M53.3201 195.81V188.34" stroke="#13110C" stroke-width="0.5" stroke-miterlimit="10"/>
<path d="M51.6599 193.01V184.43" stroke="#13110C" stroke-width="0.5" stroke-miterlimit="10"/>
<path d="M49.6599 190.68V181.26" stroke="#13110C" stroke-width="0.5" stroke-miterlimit="10"/>
<path d="M47.6699 188.01V179.18" stroke="#13110C" stroke-width="0.5" stroke-miterlimit="10"/>
<path d="M45.53 184.93V176.68" stroke="#13110C" stroke-width="0.5" stroke-miterlimit="10"/>
<path d="M43.5701 182.01V174.43" stroke="#13110C" stroke-width="0.5" stroke-miterlimit="10"/>
<path d="M41.5 179.18L41.61 172.76" stroke="#13110C" stroke-width="0.5" stroke-miterlimit="10"/>
<path d="M39.1799 176.68V170.51" stroke="#13110C" stroke-width="0.5" stroke-miterlimit="10"/>
<path d="M36.99 173.18V169.01" stroke="#13110C" stroke-width="0.5" stroke-miterlimit="10"/>
<path d="M34.5701 170.51V167.34" stroke="#13110C" stroke-width="0.5" stroke-miterlimit="10"/>
<path d="M33.1599 168.18V166.43" stroke="#13110C" stroke-width="0.5" stroke-miterlimit="10"/>
<path d="M90.32 211.24C90.32 211.24 87.16 213.41 84.27 210.29C84.27 210.29 81.48 205.61 83.99 200.21C83.99 200.21 87.55 196.7 84.66 194.19C84.66 194.19 82.55 193.64 81.41 194.53C81.41 194.53 78 193.64 78.91 196.7" stroke="#13110C" stroke-miterlimit="10"/>
<path d="M82.77 193.53V192.8" stroke="#13110C" stroke-miterlimit="10"/>
<path d="M86.7801 188.34H77.0801" stroke="#13110C" stroke-miterlimit="10"/>
<path d="M83.54 188.01H81.21" stroke="#13110C" stroke-miterlimit="10"/>
<path d="M83.54 188.96H81.21" stroke="#13110C" stroke-miterlimit="10"/>
<path d="M80.3701 185.97L82.3801 183.59H81.2101L83.7701 185.97" stroke="#13110C" stroke-miterlimit="10"/>
<path d="M84.5399 206.45C86.6099 208.59 90.3299 207.12 90.3299 207.12C90.3299 207.12 89.7899 203.28 85.6699 204.5C85.6599 204.5 83.0199 204.89 84.5399 206.45Z" stroke="#13110C" stroke-miterlimit="10"/>
<path d="M84.0701 204.05C84.0701 204.05 86.7301 202.1 87.2001 202.32" stroke="#13110C" stroke-miterlimit="10"/>
<path d="M79.1999 211.29C79.1999 211.29 71.0099 212.63 65.8899 209.29" stroke="#13110C" stroke-miterlimit="10"/>
<path d="M67.95 205.28C72.52 208.4 78.91 206.51 78.91 206.51C78.91 206.51 80.15 202.93 73.69 203.19C73.69 203.18 69.56 203.28 67.95 205.28Z" stroke="#13110C" stroke-miterlimit="10"/>
<path d="M78.75 203.5C78.75 203.5 75.77 201.22 73.47 200.6" stroke="#13110C" stroke-miterlimit="10"/>
<path d="M86.3899 205.94C86.3899 205.69 86.8099 205.48 87.3399 205.48C87.8599 205.48 88.2899 205.69 88.2899 205.94C88.2899 206.19 87.8699 206.4 87.3399 206.4C86.8099 206.39 86.3899 206.19 86.3899 205.94Z" fill="#13110C" stroke="#13110C" stroke-miterlimit="10"/>
<path d="M72.3701 205.12C72.3701 204.77 73.1701 204.49 74.1501 204.49C75.1301 204.49 75.9301 204.77 75.9301 205.12C75.9301 205.47 75.1301 205.75 74.1501 205.75C73.1701 205.75 72.3701 205.47 72.3701 205.12Z" fill="#13110C" stroke="#13110C" stroke-miterlimit="10"/>
<path d="M91.24 226.55H93.41L94.58 224.51C94.58 224.51 103.58 216.77 110.58 196.64C110.58 196.64 114.58 185.68 115.08 168.18L111.25 170.51C111.25 170.51 112.08 180.95 107.58 195.82C107.58 195.82 104.08 208.51 93.58 220.18L91.25 222.35V226.55H91.24Z" fill="#FFEA24" stroke="#13110C" stroke-miterlimit="10"/>
<path d="M103.16 176.68L89.3301 187.68C89.3301 187.68 89.9201 188.76 91.1701 196.14C91.1701 196.14 91.2501 207.43 91.2501 208.62C91.2501 208.62 102.17 194.1 102.42 177.35" fill="#E31013"/>
<path d="M103.16 176.68L89.3301 187.68C89.3301 187.68 89.9201 188.76 91.1701 196.14C91.1701 196.14 91.2501 207.43 91.2501 208.62C91.2501 208.62 102.17 194.1 102.42 177.35" stroke="#13110C" stroke-miterlimit="10"/>
<path d="M148.67 129.04H88.28" stroke="#13110C" stroke-miterlimit="10"/>
<path d="M56.74 202.09C58.44 195.15 69.33 184.92 69.33 184.92C69.33 184.92 60.82 184.28 54.21 188.15C54.21 188.16 56.7 194.14 56.74 202.09Z" fill="#AFA3C7" stroke="#13120D" stroke-miterlimit="10"/>
<path d="M66.1899 186.26C66.1899 186.26 60.3299 186.63 55.6599 188.72" stroke="#13110C" stroke-width="0.5" stroke-miterlimit="10"/>
<path d="M64.1699 188.34C64.1699 188.34 58.14 189.23 56.2 190.35" stroke="#13110C" stroke-width="0.5" stroke-miterlimit="10"/>
<path d="M62.23 190.68C62.23 190.68 58.49 191.15 56.74 192.08" stroke="#13110C" stroke-width="0.5" stroke-miterlimit="10"/>
<path d="M60.3301 193.01C60.3301 193.01 57.4601 193.29 57.0601 193.49" stroke="#13110C" stroke-width="0.5" stroke-miterlimit="10"/>
<path d="M59.1301 194.93C59.1301 194.93 57.66 194.89 57.05 195.26" stroke="#13110C" stroke-width="0.5" stroke-miterlimit="10"/>
<path d="M98.7299 175.34H95.1899V179.18H98.7299V175.34Z" stroke="#FFEA24" stroke-miterlimit="10"/>
<path d="M89.9299 173.42H86.3899V177.26H89.9299V173.42Z" stroke="#FFEA24" stroke-miterlimit="10"/>
<path d="M80.7299 172.91H77.1899V176.75H80.7299V172.91Z" stroke="#FFEA24" stroke-miterlimit="10"/>
<path d="M71.9299 173.42H68.3899V177.26H71.9299V173.42Z" stroke="#FFEA24" stroke-miterlimit="10"/>
<path d="M63.02 175.42H59.48V179.26H63.02V175.42Z" stroke="#FFEA24" stroke-miterlimit="10"/>
<path d="M100.9 166.26H97.3601V170.1H100.9V166.26Z" stroke="#FFEA24" stroke-miterlimit="10"/>
<path d="M95.1899 169.58H91.6499V173.42H95.1899V169.58Z" stroke="#FFEA24" stroke-miterlimit="10"/>
<path d="M85.54 168.18H82V172.02H85.54V168.18Z" stroke="#FFEA24" stroke-miterlimit="10"/>
<path d="M76.34 168.59H72.8V172.43H76.34V168.59Z" stroke="#FFEA24" stroke-miterlimit="10"/>
<path d="M66.9001 169.58H63.3601V173.42H66.9001V169.58Z" stroke="#FFEA24" stroke-miterlimit="10"/>
<path d="M57.4299 171.67H53.8899V175.51H57.4299V171.67Z" stroke="#FFEA24" stroke-miterlimit="10"/>
<path d="M81.2099 163.19H77.6699V166.42H81.2099V163.19Z" stroke="#FFEA24" stroke-miterlimit="10"/>
<path d="M91.09 163.93H87.55V167.34H91.09V163.93Z" stroke="#FFEA24" stroke-miterlimit="10"/>
<path d="M71.1001 164.39H67.5601V167.77H71.1001V164.39Z" stroke="#FFEA24" stroke-miterlimit="10"/>
<path d="M61.25 166.08H57.71V169.26H61.25V166.08Z" stroke="#FFEA24" stroke-miterlimit="10"/>
<path d="M51.4299 169.01H47.8899V172.43H51.4299V169.01Z" stroke="#FFEA24" stroke-miterlimit="10"/>
<path d="M104.75 171.8H101.76V174.83H104.75V171.8Z" stroke="#FFEA24" stroke-miterlimit="10"/>
<path d="M94.1001 178.74L87.5901 178.64L90.1801 183.7L94.1001 178.74Z" fill="#FFEA24"/>
<path d="M68.7299 179.12L63.6499 179.75L66.2199 183.4L68.7299 179.12Z" fill="#FFEA24"/>
<path d="M61.8801 180.24L57.0801 181.92L60.3501 184.93L61.8801 180.24Z" fill="#FFEA24"/>
<path d="M74.1499 178.04L69.1499 178.97L71.9099 182.44L74.1499 178.04Z" fill="#FFEA24"/>
<path d="M86.7801 178.64L82.0701 178.04L84.5401 181.26L86.7801 178.64Z" fill="#FFE922"/>
<path d="M80.37 178.22L75.55 178.04L77.08 180.24L80.37 179.26V178.22Z" fill="#FFE922"/>
<path d="M55.6599 182.44L52.8799 183.7L54.9899 185.97L55.6599 182.44Z" fill="#FFE922"/>
<path d="M54.0254 177.184L51.4321 178.157L52.6202 181.322L55.2135 180.348L54.0254 177.184Z" stroke="#FFEA24" stroke-miterlimit="10"/>
<path d="M112.77 169.58C112.77 169.58 105.2 160.86 85.0901 160.55C85.0901 160.55 69.4201 159.45 60.3201 162.1C60.3201 162.1 45.6201 165.72 40.5801 170.01L41.8201 171.01C41.8201 171.01 51.4201 165.63 60.9201 164.19C60.9201 164.19 75.9601 161.29 84.0601 162.09C84.0601 162.09 92.9901 162.04 104.33 166.42C104.33 166.42 110.29 169.18 111.24 170.5L112.77 169.58Z" fill="#FFEA24" stroke="#13110C" stroke-miterlimit="10"/>
<path d="M111.24 170.51C111.24 170.51 113.49 200.51 91.24 222.34V208.61C103.57 192.08 103.16 176.67 103.16 176.67L111.24 170.51Z" fill="#13110C" stroke="#13110C" stroke-miterlimit="10"/>
<path d="M134.98 179.18C134.98 177.84 136.06 176.75 137.4 176.75C138.74 176.75 139.82 177.84 139.82 179.18C139.82 180.52 138.73 181.6 137.4 181.6C136.07 181.6 134.98 180.51 134.98 179.18Z" fill="#FFEA24" stroke="#13110C" stroke-miterlimit="10"/>
<path d="M129.41 178.64C129.41 177.3 130.49 176.21 131.83 176.21C133.17 176.21 134.25 177.3 134.25 178.64C134.25 179.98 133.17 181.06 131.83 181.06C130.5 181.07 129.41 179.98 129.41 178.64Z" fill="#FFEA24" stroke="#13110C" stroke-miterlimit="10"/>
<path d="M130.13 172.91C130.13 171.57 131.21 170.49 132.55 170.49C133.89 170.49 134.97 171.58 134.97 172.91C134.97 174.25 133.89 175.34 132.55 175.34C131.22 175.34 130.13 174.25 130.13 172.91Z" fill="#FFEA24" stroke="#13110C" stroke-miterlimit="10"/>
<path d="M135.66 173.42C135.66 172.08 136.74 170.99 138.08 170.99C139.42 170.99 140.5 172.08 140.5 173.42C140.5 174.76 139.42 175.84 138.08 175.84C136.75 175.84 135.66 174.75 135.66 173.42Z" fill="#FFEA24" stroke="#13110C" stroke-miterlimit="10"/>
<path d="M133.5 175.71C133.5 174.89 134.17 174.22 134.99 174.22C135.81 174.22 136.48 174.89 136.48 175.71C136.48 175.9 136.45 176.07 136.39 176.24C136.18 176.8 135.64 177.2 135 177.2C134.17 177.2 133.5 176.53 133.5 175.71Z" fill="white" stroke="#13110C" stroke-miterlimit="10"/>
<path d="M141.06 168.01C140.96 168.02 130.77 165.74 129.1 158.14L129.2 157.47L138.09 150.85C138.09 150.85 144.62 153.56 145.66 156.14C145.66 156.14 146.49 158.68 145.41 158.81C145.41 158.81 146.74 160.56 145.49 161.52C145.49 161.52 146.37 163.65 144.99 164.44C144.99 164.44 146.28 167.4 143.28 167.61C143.28 167.59 142.63 167.88 141.06 168.01Z" fill="#FED68A" stroke="#13110C" stroke-miterlimit="10"/>
<path d="M144.99 164.43L139.45 163.47C139.45 163.47 135.56 161.39 138.09 160.47C138.09 160.47 135.65 158.8 138.09 158.14C138.09 158.14 137.08 156.14 139.45 155.52C139.45 155.52 144.21 155.14 145.42 155.68" stroke="#13110C" stroke-miterlimit="10"/>
<path d="M138.09 160.47L145.49 161.51" stroke="#13110C" stroke-miterlimit="10"/>
<path d="M138.09 158.13L145.41 158.8" stroke="#13110C" stroke-miterlimit="10"/>
<path d="M140.03 167.74C141.52 168.16 143.2 168.01 143.2 168.01C147.95 170.59 147.41 175.84 147.41 175.84C147.41 175.84 141.37 175.3 140.03 168.8C140.03 168.8 139.59 167.62 140.03 167.74Z" fill="#BBB32E" stroke="#13110C" stroke-miterlimit="10"/>
<path d="M133.65 164.64L132.03 163.26C132.03 163.26 124.58 162.4 122.66 165.66C122.66 165.66 121.45 169.95 130.41 167.73C130.41 167.73 132.47 166.99 133.65 164.64Z" fill="#BBB32E" stroke="#13110C" stroke-miterlimit="10"/>
<path d="M138.09 170.99L138.92 167.38L136.76 166.48L135.84 169.54L137.12 171.19L138.09 170.99Z" fill="#BBB32E" stroke="#13110C" stroke-miterlimit="10"/>
<path d="M146.02 174.22C146.02 174.22 143.4 170.57 141.66 169.54" stroke="#13110C" stroke-miterlimit="10"/>
<path d="M131.84 164.72C131.84 164.72 125.32 165.76 124.57 166.48" stroke="#13110C" stroke-miterlimit="10"/>
<path d="M142.56 155.38V153.17V147.83V147.21L140.51 149.01V155.38H142.56Z" fill="#BBB32E" stroke="#13110C" stroke-miterlimit="10"/>
<path d="M114.75 168.37C105.97 155.73 116.16 147.21 116.16 147.21L114.54 145.45C102.92 156.14 112.78 169.58 112.78 169.58L115.08 168.18L148.68 142.71" fill="#FFEA24"/>
<path d="M114.75 168.37C105.97 155.73 116.16 147.21 116.16 147.21L114.54 145.45C102.92 156.14 112.78 169.58 112.78 169.58L115.08 168.18L148.68 142.71" stroke="#13110C" stroke-miterlimit="10"/>
<path d="M129.3 157.38C129.3 157.38 110.11 141.03 108.86 129.04H106.59C110.1 146.54 127.44 158.8 127.44 158.8L129.3 157.38Z" fill="#FFEA24" stroke="#13110C" stroke-miterlimit="10"/>
<path d="M127.45 129.04C124.86 135.14 116.38 143.92 116.38 143.92L117.67 145.52C117.67 145.52 124.96 138.93 129.72 129.04H127.45Z" fill="#FFEA24" stroke="#13110C" stroke-miterlimit="10"/>
<path d="M115.07 168.18L116.38 167.19C116.38 167.19 108.65 159.18 116.86 148.82L115.63 147.71C115.64 147.71 105.99 155.97 115.07 168.18Z" fill="white" stroke="#13110C" stroke-miterlimit="10"/>
<path d="M116.6 167.02L118.81 165.34C118.81 165.34 113.47 157.22 119.08 151.29L116.86 148.81C116.86 148.81 108.62 158.2 116.6 167.02Z" fill="#13110C" stroke="#13110C" stroke-miterlimit="10"/>
<path d="M120.96 163.71C120.96 163.71 116.69 158.85 120.67 152.93C120.67 152.93 126.22 158.09 127.44 158.8L120.96 163.71Z" fill="#211C4B" stroke="#13110C" stroke-miterlimit="10"/>
<path d="M131.84 143.07C131.84 143.07 133.28 148.94 130.47 148.81L129.72 148.43L129.11 147.7V145.83C129.11 145.83 124.73 147.06 126.39 143.91C126.38 143.92 127.59 142.3 131.84 143.07Z" fill="#FFEA24"/>
<path d="M132.19 141.18C132.19 141.18 126.47 143.11 126.35 140.3L126.66 139.52L127.33 138.85L129.19 138.69C129.19 138.69 127.6 134.43 130.87 135.82C130.89 135.82 132.6 136.88 132.19 141.18Z" fill="#FFEA24"/>
<path d="M133.73 141.81C133.73 141.81 133.02 135.81 135.8 136.28L136.5 136.75L137.02 137.55L136.79 139.4C136.79 139.4 141.29 138.72 139.25 141.64C139.25 141.64 137.85 143.1 133.73 141.81Z" fill="#FFEA24"/>
<path d="M133.72 143.47C133.72 143.47 139.73 142.89 139.2 145.66L138.72 146.35L137.91 146.85L136.06 146.58C136.06 146.58 136.64 151.09 133.77 148.99C133.77 148.99 132.35 147.57 133.72 143.47Z" fill="#FFEA24"/>
<path d="M138.51 133.17C138.51 132.22 139.28 131.45 140.23 131.45C141.18 131.45 141.95 132.22 141.95 133.17C141.95 134.12 141.18 134.89 140.23 134.89C139.29 134.9 138.51 134.13 138.51 133.17Z" fill="#FFEA24"/>
<path d="M126.36 151.68C127.31 151.68 128.08 150.91 128.08 149.96C128.08 149.01 127.31 148.24 126.36 148.24C125.41 148.24 124.64 149.01 124.64 149.96C124.64 150.91 125.41 151.68 126.36 151.68Z" fill="#FFEA24"/>
<path d="M147.45 131.45C147.45 131.45 146.3 135.85 139.77 141.83" stroke="#FFEA24" stroke-miterlimit="10"/>
<path d="M133.12 149.14C133.12 149.14 131.96 153.44 129.3 156.14" stroke="#FFEA24" stroke-miterlimit="10"/>
<path d="M126.58 142.34C126.58 142.34 122.17 143.88 120 145.83" stroke="#FFEA24" stroke-miterlimit="10"/>
<path d="M131.84 134.9C131.84 134.9 134.58 128.39 141.21 124.56" stroke="#FFEA24" stroke-miterlimit="10"/>
<path d="M127.45 129.04C127.45 129.04 125.35 134.44 116.38 143.92C116.38 143.92 109.71 136.14 108.87 129.04H127.45Z" fill="#211C4B" stroke="#13110C" stroke-miterlimit="10"/>
<path d="M120.6 138.29L113.2 137.28L116.9 129.87" stroke="white" stroke-miterlimit="10"/>
<path d="M111.14 134.08L112.36 132.02L109.87 130.97" stroke="white" stroke-miterlimit="10"/>
<path d="M119.2 139.82L113.5 138.68" stroke="#FFEA24" stroke-miterlimit="10"/>
<path d="M112.01 136.26L114.86 130.62L112.01 129.73" stroke="#FFEA24" stroke-miterlimit="10"/>
<path d="M113.44 146.53L114.35 145.63L112.67 143.22C112.67 143.22 99.2901 137.78 71.1101 139.51C71.1101 139.51 70.7801 140.62 70.5901 141.55C70.5801 141.54 98.4301 140.1 113.44 146.53Z" fill="#FFEA24" stroke="#13110C" stroke-miterlimit="10"/>
<path d="M64.7 161.16L61.99 161.67C61.99 161.67 71.88 145.83 67.56 129.04H69.74C69.74 129.04 73.57 144.97 64.7 161.16Z" fill="#FFEA24" stroke="#13110C" stroke-miterlimit="10"/>
<path d="M109.33 161.67L101.76 159.42L102.6 143.42C102.6 143.42 111.24 145.35 113.43 146.53C113.44 146.53 107.42 152.84 109.33 161.67Z" fill="#E31013" stroke="#13110C" stroke-miterlimit="10"/>
<path d="M103.16 156.14C103.16 156.14 102.84 159.01 104.75 158.8C104.75 158.8 109.03 158.51 106.59 154.59C106.59 154.59 104.09 150.72 104.75 148.24C104.75 148.24 107.08 145.12 108.87 148.81" stroke="white" stroke-miterlimit="10"/>
<path d="M74.2499 152.83C74.2499 152.83 73.9199 155.57 72.5199 154.92C72.5199 154.92 69.3299 153.61 71.9599 150.56C71.9599 150.56 74.6299 147.57 74.6199 145.1C74.6199 145.1 73.4799 141.63 71.3899 144.63" stroke="white" stroke-miterlimit="10"/>
<path d="M97.3599 161.67L95.1899 161.45L96.2399 142.45L98.5799 142.85L97.3599 161.67Z" fill="#FFEA24" stroke="#13110C" stroke-miterlimit="10"/>
<path d="M91.2399 160.47L91.9999 142.02L89.7399 141.83L88.6599 160.32L91.2399 160.47Z" fill="#FFEA24" stroke="#13110C" stroke-miterlimit="10"/>
<path d="M88.66 160.32L85.54 160.25L86.78 141.61L89.74 141.83L88.66 160.32Z" fill="#FFEA24" stroke="#13110C" stroke-miterlimit="10"/>
<path d="M81.9299 160.1L82.7699 141.36H80.3699L79.4399 160.08L81.9299 160.1Z" fill="#FFEA24" stroke="#13110C" stroke-miterlimit="10"/>
<path d="M95.19 161.45L91.24 160.47L92 142.02L96.24 142.45L95.19 161.45Z" fill="#E31013" stroke="#13110C" stroke-miterlimit="10"/>
<path d="M85.5399 160.25L86.7799 141.61L82.7699 141.36L81.9299 160.1L85.5399 160.25Z" fill="#E31013" stroke="#13110C" stroke-miterlimit="10"/>
<path d="M93.4199 158.8V155.38" stroke="white" stroke-miterlimit="10"/>
<path d="M93.74 152.06V151.15" stroke="white" stroke-miterlimit="10"/>
<path d="M94.1001 148.77V145.36" stroke="white" stroke-miterlimit="10"/>
<path d="M84.0801 156.69V153.27" stroke="white" stroke-miterlimit="10"/>
<path d="M84.4099 149.95V149.03" stroke="white" stroke-miterlimit="10"/>
<path d="M84.77 146.66V143.24" stroke="white" stroke-miterlimit="10"/>
<path d="M70.58 139.82C71.32 139.28 69.74 129.04 69.74 129.04H106.59C107.6 135.47 112.43 142.86 112.43 142.86C112.43 142.86 96.77 138.16 70.58 139.82Z" fill="#13110C" stroke="#13110C" stroke-miterlimit="10"/>
<path d="M107.6 135.95C107.6 135.95 91.4401 131.59 71.6201 132.99" stroke="white" stroke-miterlimit="10"/>
<path d="M107.96 140.67L108.02 137.98" stroke="white" stroke-miterlimit="10"/>
<path d="M104.79 139.82V137.28" stroke="white" stroke-miterlimit="10"/>
<path d="M101.76 139.16V136.48" stroke="white" stroke-miterlimit="10"/>
<path d="M98.5801 138.68V135.95" stroke="white" stroke-miterlimit="10"/>
<path d="M95.7 138.29L95.76 135.67" stroke="white" stroke-miterlimit="10"/>
<path d="M92.46 137.98V135.3" stroke="white" stroke-miterlimit="10"/>
<path d="M88.6599 137.82V134.97" stroke="white" stroke-miterlimit="10"/>
<path d="M85.54 137.32V134.97" stroke="white" stroke-miterlimit="10"/>
<path d="M81.9299 137.32V134.97" stroke="white" stroke-miterlimit="10"/>
<path d="M78.75 137.32V134.97" stroke="white" stroke-miterlimit="10"/>
<path d="M75.7 137.82V134.97" stroke="white" stroke-miterlimit="10"/>
<path d="M72.4101 137.98L72.3501 134.97" stroke="white" stroke-miterlimit="10"/>
<path d="M104.79 129.04V132.71C104.79 132.71 85.2801 130.05 72.1101 130.87V129.03H104.79V129.04Z" fill="#E31013"/>
<path d="M42.6299 168.59L27.8799 151.15V154.98L40.5799 169.58L42.6299 168.59Z" fill="#FFEA24" stroke="#13110C" stroke-miterlimit="10"/>
<path d="M27.8799 150.73V140.43L48.5599 165.81L42.6299 168.59L27.8799 150.73Z" fill="#211C4B" stroke="#13110C" stroke-miterlimit="10"/>
<path d="M43.9101 163.19L40.5801 162.51" stroke="white" stroke-miterlimit="10"/>
<path d="M42.25 164.39L42.63 161.09" stroke="white" stroke-miterlimit="10"/>
<path d="M40.84 159.25L37.52 158.57" stroke="white" stroke-miterlimit="10"/>
<path d="M39.1799 160.45L39.5599 157.15" stroke="white" stroke-miterlimit="10"/>
<path d="M37.52 155.43L34.2 154.75" stroke="white" stroke-miterlimit="10"/>
<path d="M35.8601 156.62L36.2401 153.33" stroke="white" stroke-miterlimit="10"/>
<path d="M34.82 151.6L31.49 150.92" stroke="white" stroke-miterlimit="10"/>
<path d="M33.1599 152.79L33.5399 149.5" stroke="white" stroke-miterlimit="10"/>
<path d="M31.4899 148.29L28.1699 147.61" stroke="white" stroke-miterlimit="10"/>
<path d="M29.8301 149.49L30.2101 146.2" stroke="white" stroke-miterlimit="10"/>
<path d="M45.9899 166.08L43.9099 165.67" stroke="white" stroke-miterlimit="10"/>
<path d="M45.5299 164.81L44.95 166.43" stroke="white" stroke-miterlimit="10"/>
<path d="M48.5599 165.81L51.2299 164.83L27.8799 137.32V140.43L48.5599 165.81Z" fill="white" stroke="#13110C" stroke-miterlimit="10"/>
<path d="M51.2299 164.83L55.6599 163.4L27.8799 130.01V137.32L51.2299 164.83Z" fill="#13110C" stroke="#13110C" stroke-miterlimit="10"/>
<path d="M27.8799 129.04L55.6599 163.4L61.9899 161.67C61.9899 161.67 72.0699 146.25 67.5599 129.04" fill="#211C4B"/>
<path d="M27.8799 129.04L55.6599 163.4L61.9899 161.67C61.9899 161.67 72.0699 146.25 67.5599 129.04H27.8799Z" stroke="#13110C" stroke-miterlimit="10"/>
<path d="M56.83 140.74C57.28 140.32 53.43 139.75 53.43 139.75C51 139.08 52.28 137.95 52.28 137.95C53.08 137.6 56.76 137.95 56.76 137.95C60.89 137.85 60.16 141.36 60.16 141.36C60.16 141.36 60.29 144.84 56.6 144.04C56.6 144.04 52.08 143.56 51.92 142.69C51.92 142.69 51.25 141.46 53.52 141.4C53.52 141.4 56.63 141.79 56.72 141.36L56.83 140.74Z" fill="#E31013"/>
<path d="M55.1899 147.52C55.6999 147.19 52.0099 145.96 52.0099 145.96C49.7299 144.88 51.1799 143.99 51.1799 143.99C52.0299 143.78 55.5999 144.76 55.5999 144.76C59.6899 145.37 58.3599 148.7 58.3599 148.7C58.3599 148.7 57.8899 152.15 54.3999 150.73C54.3999 150.73 50.0299 149.49 50.0199 148.61C50.0199 148.61 49.5699 147.28 51.8199 147.61C51.8199 147.61 54.8099 148.52 54.9799 148.11L55.1899 147.52Z" fill="#E31013"/>
<path d="M56.92 133.74C57.24 133.22 53.38 133.72 53.38 133.72C50.85 133.74 51.78 132.31 51.78 132.31C52.45 131.75 56.09 131.08 56.09 131.08C60.04 129.85 60.29 133.43 60.29 133.43C60.29 133.43 61.37 136.74 57.61 136.98C57.61 136.98 53.14 137.76 52.74 136.97C52.74 136.97 51.75 135.97 53.93 135.29C53.93 135.29 57.02 134.81 57 134.37L56.92 133.74Z" fill="#E31013"/>
<path d="M60 162.17L59.0401 155.02L65.39 154.51L65.95 153.3L57.3 153.45L58.5801 162.6L60 162.17Z" fill="#FFEA24"/>
<path d="M66.52 151.51L63.37 146.18L68.22 143.65L68.26 142.52L61.47 145.53L65.54 152.32L66.52 151.51Z" fill="#FFEA24"/>
<path d="M68.49 141.35L63.99 137.1L67.95 133.34L67.68 132.23L61.99 136.99L67.77 142.41L68.49 141.35Z" fill="#FFEA24"/>
<path d="M65.6299 154.32L59.1399 155.14L59.8999 161.78L61.7199 161.58L65.6299 154.32Z" fill="white" stroke="#13110C" stroke-miterlimit="10"/>
<path d="M66.5201 151.51L63.3701 146.18L68.2201 143.65L66.5201 151.51Z" fill="white" stroke="#13110C" stroke-miterlimit="10"/>
<path d="M68.49 141.35L63.99 137.1L67.95 133.34L68.49 141.35Z" fill="white" stroke="#13110C" stroke-miterlimit="10"/>
<path d="M58.58 162.6L56.74 162.85L56.03 153.45H57.3L58.58 162.6Z" fill="white"/>
<path d="M61.62 145.78L65.5401 152.32L65.53 153.27L57.3 153.45V151.95L63.37 151.51L59.5601 145.36L64.7 141.83L60.44 137.34L65.24 132.23L59.5601 129.38H62.4001L67.68 132.23L61.9901 136.99L68.2601 142.52" fill="white"/>
<path d="M67.6799 132.23L62.3999 129.38H66.8999" fill="#FFEA24"/>
<path d="M45.57 150.92C45.57 150.92 54.85 141.44 48.69 130.88L49.09 129.04H47.53L46.59 131.13C46.59 131.13 42.03 138.82 43.09 148.29L45.57 150.92Z" fill="#FFEA24" stroke="#13110C" stroke-miterlimit="10"/>
<path d="M47.8401 133.07C51.0301 140.88 45.6501 147.95 45.6501 147.95C45.6501 147.95 44.2601 140.71 47.8401 133.07Z" fill="#E31013"/>
<path d="M37.28 137.34C37.28 136.19 38.22 135.25 39.37 135.25C40.52 135.25 41.46 136.19 41.46 137.34C41.46 138.49 40.52 139.43 39.37 139.43C38.22 139.43 37.28 138.5 37.28 137.34Z" fill="#FFEA24"/>
<path d="M44.7201 123.19C44.7201 123.19 41.9801 129.7 35.3501 133.54" stroke="#FFEA24" stroke-miterlimit="10"/>
<path d="M9.09009 39.49L16.0901 48.34L23.1801 39.49L16.1301 30.77L9.09009 39.49Z" fill="#E30B13"/>
<path d="M155.27 216.82L162.27 225.66L169.35 216.82L162.31 208.09L155.27 216.82Z" fill="#E30B13"/>
<path d="M38.1101 55.44L47.1201 66.84L56.2501 55.44L47.1801 44.21L38.1101 55.44Z" fill="#E30B13"/>
<path d="M117.64 200.39L126.65 211.79L135.78 200.39L126.71 189.15L117.64 200.39Z" fill="#E30B13"/>
<path d="M53.9601 126.06C54.0301 125.45 50.7401 127.52 50.7401 127.52C48.4601 128.6 48.6901 126.91 48.6901 126.91C49.0701 126.12 52.0901 123.98 52.0901 123.98C55.1601 121.21 56.8901 124.35 56.8901 124.35C56.8901 124.35 59.2601 126.9 55.9501 128.7C55.9501 128.7 52.2101 131.28 51.5301 130.73C51.5301 130.73 50.2101 130.24 51.9001 128.71C51.9001 128.71 54.5101 126.98 54.3001 126.59L53.9601 126.06Z" fill="#E31013"/>
</svg>
