<svg width="180" height="254" viewBox="0 0 180 254" fill="none" xmlns="http://www.w3.org/2000/svg">
<rect x="0.5" y="0.5" width="179" height="253" rx="14.5" fill="white" stroke="#1D1D1B"/>
<path d="M146.97 32.7598H29.97V223.11H146.97V32.7598Z" fill="white" stroke="#13110C" stroke-miterlimit="10"/>
<path d="M146.97 127.94H29.97V95.8498L46.09 85.5398L68.88 70.4498L106.62 68.7598L134.33 92.6298L147.17 93.9298L146.97 127.94Z" fill="#211C4B" stroke="#13110C" stroke-width="0.5" stroke-miterlimit="10"/>
<path d="M103.23 127.94C92.4901 123.64 72.3701 121.55 72.3701 121.55C72.3701 121.55 73.5701 125.57 73.1201 127.94H103.23Z" fill="#E31013" stroke="#13110C" stroke-miterlimit="10"/>
<path d="M90.61 126.9C90.61 127.36 90.24 127.73 89.78 127.73C89.32 127.73 88.95 127.36 88.95 126.9C88.95 126.44 89.32 126.07 89.78 126.07C90.24 126.07 90.61 126.44 90.61 126.9Z" fill="white" stroke="#13110C" stroke-width="0.5" stroke-miterlimit="10"/>
<path d="M79.01 95.9199L82.57 96.2099C82.57 96.2099 86.01 107.02 85.93 117.16H82.81L79.01 95.9199Z" fill="#FFEA24" stroke="#13110C" stroke-miterlimit="10"/>
<path d="M60.5401 91.8201C51.4701 102.35 46.0901 127.94 46.0901 127.94H48.1601C48.1601 127.94 53.2501 102.91 60.9801 95.6001L61.5701 91.8101H60.5401V91.8201Z" fill="#FFEA24" stroke="#13110C" stroke-miterlimit="10"/>
<path d="M42.1001 127.94L46.8201 123.34V124.91L44.7201 127.94H42.1001Z" fill="#FFEA24"/>
<path d="M29.97 107.97C32.68 102.42 40.16 98.15 40.16 98.15C40.99 98.07 42.11 99.94 42.11 99.94C38.12 100.98 29.98 112.41 29.98 112.41V107.97H29.97Z" fill="#FFEA24"/>
<path d="M37.2 127.94L29.97 121.69L33.7 121.44L34.03 118.75L40.16 123.76L37.07 124.71L37.2 127.94Z" fill="#FFEA24"/>
<path d="M110.48 82.1898C109.71 83.6198 107.34 77.3898 107.34 77.3898C106.99 76.1498 106.14 76.6198 106.14 76.6198C106.14 76.6198 108.24 86.0698 111.52 85.5298C111.52 85.5298 114.46 84.2698 109.79 75.0498C109.79 75.0498 109.08 75.0898 109.55 76.7598C109.55 76.7498 111.22 81.5498 110.48 82.1898Z" fill="#FFEA24" stroke="#13110C" stroke-width="0.5" stroke-miterlimit="10"/>
<path d="M114.51 80.3202C113.74 81.7502 111.38 75.5202 111.38 75.5202C111.03 74.2802 110.18 74.7502 110.18 74.7502C110.18 74.7502 112.28 84.2002 115.56 83.6602C115.56 83.6602 118.5 82.4002 113.83 73.1802C113.83 73.1802 113.13 73.2202 113.59 74.8902C113.58 74.8802 115.25 79.6802 114.51 80.3202Z" fill="#FFEA24" stroke="#13110C" stroke-width="0.5" stroke-miterlimit="10"/>
<path d="M143.87 61.3101H130.3V75.4501H143.87V61.3101Z" fill="#211C4B" stroke="#13110C" stroke-width="0.5" stroke-miterlimit="10"/>
<path d="M74.22 39.3901C74.52 46.8401 75.5 58.5501 78.65 63.7201C78.65 63.7201 85.05 74.0601 87.76 73.9301C87.76 73.9301 97.85 69.2501 102.65 62.8501C102.65 62.8501 95.76 50.6701 97.48 41.0701L96.25 38.8501C96.25 38.8501 86.45 40.7901 84.72 33.3501C84.72 33.3501 77.57 39.2301 74.25 39.9701" fill="#FED68A"/>
<path d="M74.22 39.3901C74.52 46.8401 75.5 58.5501 78.65 63.7201C78.65 63.7201 85.05 74.0601 87.76 73.9301C87.76 73.9301 97.85 69.2501 102.65 62.8501C102.65 62.8501 95.76 50.6701 97.48 41.0701L96.25 38.8501C96.25 38.8501 86.45 40.7901 84.72 33.3501C84.72 33.3501 77.57 39.2301 74.25 39.9701" stroke="#13110C" stroke-miterlimit="10"/>
<path d="M74.1001 32.7598H84.8001C84.8001 32.7598 78.6801 39.0298 74.3601 39.7298L74.1001 32.7598Z" fill="#AFA3C7" stroke="#13120D" stroke-miterlimit="10"/>
<path d="M74.1501 37.1398L74.1001 32.7598" stroke="#13120D" stroke-miterlimit="10"/>
<path d="M74.96 38.3602C74.96 38.3602 81.3 34.9502 82.24 33.7402" stroke="#13120D" stroke-width="0.5" stroke-miterlimit="10"/>
<path d="M74.96 36.5502C74.96 36.5502 78.93 34.8602 80.02 33.7402" stroke="#13120D" stroke-width="0.5" stroke-miterlimit="10"/>
<path d="M74.96 34.8C74.96 34.8 76.74 34.27 77.49 33.52" stroke="#13120D" stroke-width="0.5" stroke-miterlimit="10"/>
<path d="M74.1001 32.7598L74.1501 37.1398L60.1901 76.3998L56.6201 78.6198L73.1101 32.7598H74.1001Z" fill="#FFEA24" stroke="#13110C" stroke-miterlimit="10"/>
<path d="M92.4299 32.7598L125.43 85.7598L129.93 82.3898L99.0499 32.7598H92.4299Z" fill="#13120D" stroke="#13120D" stroke-miterlimit="10"/>
<path d="M84.8 32.7598H92.92L96.1 38.6698C96.11 38.6698 85.97 41.3398 84.8 32.7598Z" fill="#AFA3C7" stroke="#13120D" stroke-width="0.5" stroke-miterlimit="10"/>
<path d="M85.8799 33.73C85.8799 33.73 88.1299 38.91 94.6899 38.05L85.8799 33.73Z" fill="#AFA3C7"/>
<path d="M85.8799 33.73C85.8799 33.73 88.1299 38.91 94.6899 38.05" stroke="#13120D" stroke-width="0.5" stroke-miterlimit="10"/>
<path d="M87.3301 33.73C87.3301 33.73 89.3501 37.57 94.2301 37.15L87.3301 33.73Z" fill="#AFA3C7"/>
<path d="M87.3301 33.73C87.3301 33.73 89.3501 37.57 94.2301 37.15" stroke="#13120D" stroke-width="0.5" stroke-miterlimit="10"/>
<path d="M89.3201 33.73C89.3201 33.73 91.0201 36.05 93.9401 36.04L89.3201 33.73Z" fill="#AFA3C7"/>
<path d="M89.3201 33.73C89.3201 33.73 91.0201 36.05 93.9401 36.04" stroke="#13120D" stroke-width="0.5" stroke-miterlimit="10"/>
<path d="M74.96 43.7002C74.96 43.7002 77.55 41.2001 80.02 42.0101C80.02 42.0101 84.86 42.8202 82.99 51.2002C82.99 51.2002 79.87 58.0102 82.24 58.5802C82.24 58.5802 87.55 59.3302 88.74 56.7702C88.74 56.7702 87.9 54.7402 86.8 56.6502" stroke="#13120D" stroke-width="0.5" stroke-miterlimit="10"/>
<path d="M85.8799 42.2C85.8799 42.2 92.0299 39.95 96.0999 43.2" stroke="#13120D" stroke-width="0.5" stroke-miterlimit="10"/>
<path d="M95.4301 46.64C91.4301 44.08 86.3101 46.08 86.3101 46.08C86.3101 46.08 89.6201 51.64 95.4301 47.08" stroke="#13120D" stroke-miterlimit="10"/>
<path d="M86.6101 47.6401C86.6101 47.6401 88.8101 50.7601 90.7701 51.4501" stroke="#13120D" stroke-miterlimit="10"/>
<path d="M92.68 47.0799C92.68 47.3399 91.92 47.5499 90.99 47.5499C90.06 47.5499 89.3 47.3399 89.3 47.0799C89.3 46.8199 90.05 46.6099 90.99 46.6099C91.93 46.6099 92.68 46.8199 92.68 47.0799Z" stroke="#13120D" stroke-miterlimit="10"/>
<path d="M75.53 45.9002C78.91 44.1702 82.83 46.1602 82.83 46.1602C82.83 46.1602 79.76 50.3302 75.49 46.2502" stroke="#13120D" stroke-miterlimit="10"/>
<path d="M82.4601 47.3799C82.4601 47.3799 80.4701 49.6999 78.8501 50.0899" stroke="#13120D" stroke-miterlimit="10"/>
<path d="M77.4301 46.4101C77.4001 46.6701 78.1401 46.9501 79.0701 47.0501C80.0101 47.1401 80.7801 47.0001 80.8101 46.7401C80.8401 46.4801 80.1001 46.1901 79.1601 46.1001C78.2301 46.0101 77.4601 46.1501 77.4301 46.4101Z" stroke="#13120D" stroke-miterlimit="10"/>
<path d="M81.8401 63C81.8401 63 88.2501 63.75 90.7601 63" stroke="#13110C" stroke-miterlimit="10"/>
<path d="M85.1799 66.7002L87.3299 69.2002H85.1799L87.3299 66.7002" stroke="#13110C" stroke-miterlimit="10"/>
<path d="M60.1899 76.3999L74.0999 38.1499L74.9599 46.6099L65.3799 73.0099L60.1899 76.3999Z" fill="#13120D" stroke="#13120D" stroke-miterlimit="10"/>
<path d="M117.24 61.9998L121.3 59.2598L104.43 32.7598H99.05L117.52 62.4498" fill="#E31013"/>
<path d="M117.24 61.9998L121.3 59.2598L104.43 32.7598H99.05L117.52 62.4498" stroke="#13110C" stroke-miterlimit="10"/>
<path d="M65.3799 73.0099L68.8799 70.4499L75.4299 52.8199L74.9099 48.8799L65.3799 73.0099Z" fill="#E31013" stroke="#13110C" stroke-miterlimit="10"/>
<path d="M68.8799 70.4502L78.6499 63.7302L75.4899 53.2002L68.8799 70.4502Z" fill="#BBB32E" stroke="#13110C" stroke-miterlimit="10"/>
<path d="M71.26 67.3798L74.96 57.2798" stroke="#13110C" stroke-width="0.5" stroke-miterlimit="10"/>
<path d="M73.1101 66.3598L75.4301 59.2598" stroke="#13110C" stroke-width="0.5" stroke-miterlimit="10"/>
<path d="M74.96 64.8999L76.09 61.6099" stroke="#13110C" stroke-width="0.5" stroke-miterlimit="10"/>
<path d="M121.3 59.2598L129.92 58.6698C129.92 58.6698 125.15 54.4398 125.61 32.7598H104.42L121.3 59.2598Z" fill="#BBB32E" stroke="#13110C" stroke-miterlimit="10"/>
<path d="M108.2 33.73L115.43 39.73C115.43 39.73 113.02 40.07 124.83 57.86" fill="#211C4B"/>
<path d="M108.2 33.73L115.43 39.73C115.43 39.73 113.02 40.07 124.83 57.86" stroke="#13110C" stroke-width="0.5" stroke-miterlimit="10"/>
<path d="M115.7 37.0502C115.95 38.4502 115.8 39.6502 115.38 39.7202C114.95 39.8002 114.41 38.7202 114.16 37.3202C113.91 35.9202 114.05 34.7202 114.48 34.6502C114.9 34.5702 115.45 35.6502 115.7 37.0502Z" fill="#211C4B" stroke="#13110C" stroke-width="0.5" stroke-miterlimit="10"/>
<path d="M119.06 38.96C117.52 40.14 115.99 40.74 115.65 40.3C115.31 39.85 116.28 38.53 117.82 37.35C119.36 36.17 120.89 35.57 121.23 36.01C121.58 36.46 120.6 37.78 119.06 38.96Z" fill="#211C4B" stroke="#13110C" stroke-width="0.5" stroke-miterlimit="10"/>
<path d="M118.94 41.72C120.04 42.62 120.72 43.62 120.44 43.95C120.17 44.28 119.06 43.83 117.95 42.93C116.85 42.03 116.17 41.03 116.45 40.7C116.72 40.36 117.83 40.82 118.94 41.72Z" fill="#211C4B" stroke="#13110C" stroke-width="0.5" stroke-miterlimit="10"/>
<path d="M124.89 48.0799C124.89 48.8899 124.23 49.5499 123.43 49.5499C122.62 49.5499 121.96 48.8899 121.96 48.0799C121.96 47.2699 122.62 46.6099 123.43 46.6099C124.23 46.6099 124.89 47.2699 124.89 48.0799Z" fill="#211C4B" stroke="#13110C" stroke-width="0.5" stroke-miterlimit="10"/>
<path d="M124.53 84.3298C124.53 84.3298 104.41 68.8698 103.3 63.3298C103.3 63.3298 94.82 50.9998 97.56 41.0098L124.53 84.3298Z" fill="#AFA3C7" stroke="#13120D" stroke-width="0.5" stroke-miterlimit="10"/>
<path d="M99.05 45.7998V52.1398" stroke="#13110C" stroke-width="0.5" stroke-miterlimit="10"/>
<path d="M100.8 48.0801L100.68 55.6901" stroke="#13110C" stroke-width="0.5" stroke-miterlimit="10"/>
<path d="M102.28 50.9302V59.7402" stroke="#13110C" stroke-width="0.5" stroke-miterlimit="10"/>
<path d="M104.16 53.6099V62.1299" stroke="#13110C" stroke-width="0.5" stroke-miterlimit="10"/>
<path d="M106.15 56.6001L106.02 65.1001" stroke="#13110C" stroke-width="0.5" stroke-miterlimit="10"/>
<path d="M108.2 60.6299V67.7199" stroke="#13110C" stroke-width="0.5" stroke-miterlimit="10"/>
<path d="M110.18 64.8701V69.6601" stroke="#13110C" stroke-width="0.5" stroke-miterlimit="10"/>
<path d="M112.2 68.2598L112.07 72.0698" stroke="#13110C" stroke-width="0.5" stroke-miterlimit="10"/>
<path d="M114.41 71.52V73.64" stroke="#13110C" stroke-width="0.5" stroke-miterlimit="10"/>
<path d="M116.39 74.1899V75.4399" stroke="#13110C" stroke-width="0.5" stroke-miterlimit="10"/>
<path d="M139.78 70.11C139.78 70.11 139.42 76.29 136.99 78.1C136.99 78.1 134.12 77.2 134.88 70.51C134.88 70.51 129.7 70.7 128.23 68.28C128.23 68.28 129.43 65.51 134.89 66.26C134.89 66.26 134.68 60.05 137.09 58.21C137.09 58.21 139.97 59.08 139.29 65.78C139.29 65.78 144.47 65.53 145.97 67.93C145.96 67.92 145.25 70.8 139.78 70.11Z" fill="#FFEA24" stroke="#13110C" stroke-miterlimit="10"/>
<path d="M139.28 67.9598C139.28 69.1698 138.3 70.1598 137.08 70.1598C135.87 70.1598 134.88 69.1798 134.88 67.9598C134.88 67.4298 135.07 66.9498 135.37 66.5698C135.77 66.0798 136.39 65.7598 137.07 65.7598C138.3 65.7698 139.28 66.7498 139.28 67.9598Z" fill="#E31013" stroke="#13110C" stroke-miterlimit="10"/>
<path d="M143.19 88.3699C146.27 82.1399 144.63 77.8099 144.63 77.8099C139.64 80.3699 141.22 87.4499 141.22 87.4499C141.29 90.4699 139.28 87.9099 139.28 87.9099C135.24 80.4999 137.9 77.0799 137.9 77.0799C137.9 77.0799 137.03 79.7299 135.43 76.3999C135.43 76.3999 134.46 84.8899 138.33 88.3599C138.33 88.3599 138.27 90.0699 136.36 87.6399C136.36 87.6399 135.44 84.1599 129.47 85.2099C129.47 85.2099 130.98 90.5199 136.69 90.1999C136.7 90.2099 142.8 88.6299 143.19 88.3699Z" fill="#BBB32E" stroke="#13110C" stroke-miterlimit="10"/>
<path d="M131.19 86.21C131.19 86.21 134.73 88.69 135.98 88.93" stroke="#13110C" stroke-width="0.6" stroke-miterlimit="10"/>
<path d="M143.87 79.77C143.87 79.77 142.27 85.41 142.41 87.12" stroke="#13110C" stroke-width="0.6" stroke-miterlimit="10"/>
<path d="M146.97 103.2C146.61 102.67 140.7 104.58 140.7 104.58C136.37 109.5 132.83 108.58 132.83 108.58C132.83 108.58 132.89 94.0101 134.34 92.6401C134.34 92.6401 137.32 87.7801 145.97 89.6201L146.98 89.8201V103.2H146.97Z" fill="#FED68A" stroke="#13110C" stroke-miterlimit="10"/>
<path d="M140.27 89.6699C140.27 89.6699 138.39 94.7399 142.41 93.2099C146.42 91.6799 146.8 91.0699 146.8 91.0699" stroke="#13110C" stroke-miterlimit="10"/>
<path d="M146.69 92.4199C146.69 92.4199 138.38 94.9299 141.14 97.0299C141.14 97.0299 143.9 97.2899 147.18 95.9799" stroke="#13110C" stroke-miterlimit="10"/>
<path d="M146.69 97.0498C146.69 97.0498 140.41 97.9498 140.9 100.05C140.9 100.05 142.2 101.63 146.69 99.1998" stroke="#13110C" stroke-miterlimit="10"/>
<path d="M145.07 100.11C145.07 100.11 138.57 101.95 139.9 102.8C139.9 102.8 140.56 104.43 146.69 102.2" stroke="#13110C" stroke-miterlimit="10"/>
<path d="M138.3 94.73C138.3 94.73 135.9 102.19 138.3 103.38" stroke="#13110C" stroke-miterlimit="10"/>
<path d="M78.6499 63.73C83.3699 71.52 86.6599 73.58 86.6599 73.58C76.9699 74.82 68.8799 70.45 68.8799 70.45C68.8799 70.45 77.7699 64.39 78.6499 63.73Z" fill="#AFA3C7" stroke="#13120D" stroke-miterlimit="10"/>
<path d="M76.47 66.3599C76.47 66.3599 78.6 67.5499 79.68 67.2599" stroke="#13110C" stroke-width="0.5" stroke-miterlimit="10"/>
<path d="M74.73 67.9502C74.73 67.9502 77.67 70.2602 81.51 70.1602" stroke="#13110C" stroke-width="0.5" stroke-miterlimit="10"/>
<path d="M72.4099 69.6602C72.4099 69.6602 78.5599 72.7802 83.5499 72.4702" stroke="#13110C" stroke-width="0.5" stroke-miterlimit="10"/>
<path d="M106.62 68.4401C97.7699 73.9501 89.1699 73.2301 89.1699 73.2301C89.1699 73.2301 99.2199 67.8901 102.64 63.3301C102.65 63.3301 105.67 67.9701 106.62 68.4401Z" fill="#AFA3C7" stroke="#13120D" stroke-miterlimit="10"/>
<path d="M93.99 72.0698C93.99 72.0698 102.95 69.9298 104.16 68.5498" stroke="#13110C" stroke-width="0.5" stroke-miterlimit="10"/>
<path d="M96.6201 69.6601C96.6201 69.6601 101.41 68.4901 102.65 67.3101" stroke="#13110C" stroke-width="0.5" stroke-miterlimit="10"/>
<path d="M100.09 67.3098C100.09 67.3098 101.57 66.7598 102.28 66.0898" stroke="#13110C" stroke-width="0.5" stroke-miterlimit="10"/>
<path d="M110.15 72.0698C100.64 78.2498 88.1999 78.6198 88.1999 78.6198C73.8599 79.7698 64.4199 73.6498 64.4199 73.6498L68.8799 70.4498C68.8799 70.4498 76.4599 74.7098 86.6599 73.5798C86.6599 73.5798 87.7499 74.6998 89.1699 73.2298C89.1699 73.2298 101.05 72.5598 106.62 68.7598L110.15 72.0698Z" fill="#FFEA24" stroke="#13110C" stroke-miterlimit="10"/>
<path d="M67.8 73.2601C67.8 73.2601 79.38 77.1301 87.72 76.4001C87.72 76.4001 99.54 76.0301 107.04 71.0801" stroke="#13110C" stroke-miterlimit="10"/>
<path d="M50.6399 82.4901C50.6399 82.4901 54.9799 85.2001 55.4599 79.3701L50.6399 82.4901Z" fill="#FFEA24"/>
<path d="M50.6399 82.4901C50.6399 82.4901 54.9799 85.2001 55.4599 79.3701" stroke="#13110C" stroke-miterlimit="10"/>
<path d="M123.23 83.31C110.46 92.93 86.61 95.85 86.61 95.85C65.94 96.96 47.78 84.33 47.78 84.33L50.01 82.88C50.01 82.88 68.63 94.13 84.2 93.72C84.2 93.72 107.49 92.07 121.29 81.77L123.23 83.31Z" fill="#FFEA24" stroke="#13110C" stroke-miterlimit="10"/>
<path d="M63.1799 74.8198C60.7099 86.1398 56.6199 85.7698 56.6199 85.7698V85.4698C53.9799 85.7298 56.3999 78.7698 56.3999 78.7698" fill="#FFEA24"/>
<path d="M63.1799 74.8198C60.7099 86.1398 56.6199 85.7698 56.6199 85.7698V85.4698C53.9799 85.7298 56.3999 78.7698 56.3999 78.7698" stroke="#13110C" stroke-width="0.5" stroke-miterlimit="10"/>
<path d="M58.6199 77.3799C58.6199 77.3799 57.6399 80.7899 58.6199 80.8699C58.6199 80.8699 60.1199 79.0899 60.5399 76.3999L58.6199 77.3799Z" fill="#211C4B" stroke="#13110C" stroke-width="0.5" stroke-miterlimit="10"/>
<path d="M83.6199 88.0202C82.0999 89.3002 82.4499 80.8702 82.4499 80.8702C82.6599 79.2502 81.4999 79.3702 81.4999 79.3702C81.4999 79.3702 79.3399 91.4002 83.1799 92.4202C83.1799 92.4202 86.9999 92.4302 86.2399 79.3702C86.2399 79.3702 85.4499 79.0602 85.1699 81.2402C85.1799 81.2402 84.7399 87.6502 83.6199 88.0202Z" fill="#FFEA24" stroke="#13110C" stroke-width="0.5" stroke-miterlimit="10"/>
<path d="M88.86 87.7298C87.47 89.1698 87.15 80.4198 87.15 80.4198C87.22 78.7298 86.1 78.9398 86.1 78.9398C86.1 78.9398 84.93 91.5598 88.79 92.3198C88.79 92.3198 92.54 92.0498 90.75 78.5798C90.75 78.5798 89.95 78.3198 89.85 80.5998C89.85 80.5998 89.92 87.2598 88.86 87.7298Z" fill="#FFEA24" stroke="#13110C" stroke-width="0.5" stroke-miterlimit="10"/>
<path d="M94.3499 87.3598C93.0299 88.8298 92.2899 80.3598 92.2899 80.3598C92.2799 78.7198 91.1699 78.9798 91.1699 78.9798C91.1699 78.9798 90.6099 91.2798 94.4899 91.8098C94.4899 91.8098 98.2199 91.3398 95.7999 78.3798C95.7999 78.3798 94.9899 78.1698 94.9899 80.3898C94.9899 80.3898 95.3799 86.8498 94.3499 87.3598Z" fill="#FFEA24" stroke="#13110C" stroke-width="0.5" stroke-miterlimit="10"/>
<path d="M100.11 85.7301C98.8999 87.1901 97.5799 79.6301 97.5799 79.6301C97.4599 78.1501 96.3799 78.5001 96.3799 78.5001C96.3799 78.5001 96.6699 89.6501 100.56 89.7301C100.56 89.7301 104.23 88.9301 100.93 77.4901C100.93 77.4901 100.11 77.3901 100.27 79.3801C100.27 79.3801 101.1 85.1601 100.11 85.7301Z" fill="#FFEA24" stroke="#13110C" stroke-width="0.5" stroke-miterlimit="10"/>
<path d="M105.71 83.94C104.64 85.5 102.65 78.0899 102.65 78.0899C102.4 76.6299 101.35 77.08 101.35 77.08C101.35 77.08 102.64 88.1599 106.52 87.8899C106.52 87.8899 110.11 86.7599 105.79 75.6699C105.79 75.6699 104.96 75.64 105.3 77.61C105.29 77.6 106.64 83.28 105.71 83.94Z" fill="#FFEA24" stroke="#13110C" stroke-width="0.5" stroke-miterlimit="10"/>
<path d="M63.45 83.7901C61.83 84.6201 64.19 76.9301 64.19 76.9301C64.76 75.4801 63.74 75.3301 63.74 75.3301C63.74 75.3301 58.95 85.9301 62 87.7401C62 87.7401 65.27 88.6201 67.81 76.4001C67.81 76.4001 67.21 75.9401 66.43 77.8801C66.43 77.8901 64.49 83.7001 63.45 83.7901Z" fill="#FFEA24" stroke="#13110C" stroke-width="0.5" stroke-miterlimit="10"/>
<path d="M68.1399 85.3201C66.5799 86.2601 68.4399 78.4301 68.4399 78.4301C68.9099 76.9501 67.8899 76.8701 67.8899 76.8701C67.8899 76.8701 63.7999 87.7601 66.9599 89.3701C66.9599 89.3701 70.2799 90.0301 72.0199 77.6801C72.0199 77.6801 71.3899 77.2601 70.7399 79.2501C70.7299 79.2401 69.1699 85.1601 68.1399 85.3201Z" fill="#FFEA24" stroke="#13110C" stroke-width="0.5" stroke-miterlimit="10"/>
<path d="M73.3201 86.8799C71.7201 87.9599 73.0801 79.7299 73.0801 79.7299C73.4701 78.1699 72.3601 78.1499 72.3601 78.1499C72.3601 78.1499 68.84 89.6999 72.38 91.1499C72.38 91.1499 76.0101 91.6099 76.8701 78.7099C76.8701 78.7099 76.1601 78.3199 75.6201 80.4199C75.6201 80.4099 74.4201 86.6499 73.3201 86.8799Z" fill="#FFEA24" stroke="#13110C" stroke-width="0.5" stroke-miterlimit="10"/>
<path d="M78.01 87.6698C76.67 88.9098 77.76 80.0698 77.76 80.0698C78.08 78.3798 77.14 78.4298 77.14 78.4298C77.14 78.4298 74.27 90.9298 77.24 92.2798C77.24 92.2798 80.28 92.5698 80.92 78.7798C80.92 78.7798 80.32 78.3998 79.89 80.6698C79.88 80.6598 78.92 87.3598 78.01 87.6698Z" fill="#FFEA24" stroke="#13110C" stroke-width="0.5" stroke-miterlimit="10"/>
<path d="M48.1601 98.8999C48.1601 99.4699 47.7001 99.9399 47.1201 99.9399C46.5501 99.9399 46.0801 99.4799 46.0801 98.8999C46.0801 98.3299 46.5401 97.8599 47.1201 97.8599C47.7001 97.8599 48.1601 98.3299 48.1601 98.8999Z" fill="#FFEA24"/>
<path d="M43.6799 99.4199L37.6799 93.4999H40.9799L41.4299 91.1499L46.5299 95.9199L43.7499 96.5799L43.6799 99.4199Z" fill="#FFEA24"/>
<path d="M38.25 105.42L44.17 99.4199V102.72L46.53 103.17L41.76 108.27L41.1 105.5L38.25 105.42Z" fill="#FFEA24"/>
<path d="M55.83 92.4001L50.46 98.9001L50.17 95.6101L47.79 95.3701L52.09 89.8701L52.99 92.5801L55.83 92.4001Z" fill="#FFEA24"/>
<path d="M52.4699 106.34L47.3899 101.59H50.1799L50.5599 99.71L54.8799 103.53L52.5299 104.05L52.4699 106.34Z" fill="#FFEA24"/>
<path d="M40.11 110.56L33.48 117.44L33.44 113.7L30.76 113.22L36.1 107.37L36.88 110.51L40.11 110.56Z" fill="#FFEA24"/>
<path d="M44.7201 120.86C44.7201 121.65 44.0801 122.28 43.2901 122.28C42.5001 122.28 41.8701 121.64 41.8701 120.86C41.8701 120.07 42.5101 119.44 43.2901 119.44C44.0801 119.44 44.7201 120.08 44.7201 120.86Z" fill="#FFEA24"/>
<path d="M35.4399 117.04L36.0399 119.44C36.0399 119.44 47.6899 113.36 48.9999 105.28L47.7899 104.53C47.7899 104.52 42.6399 113.97 35.4399 117.04Z" fill="#FFEA24"/>
<path d="M50.64 88.18C50.6 88.2 50.57 88.22 50.53 88.24C48.65 89.38 46.09 94.39 46.09 94.39L44.72 92.76C44.72 92.76 47.88 87.66 49.9 86.46" fill="#FFEA24"/>
<path d="M59.3601 93.3499C58.6701 95.9499 53.5001 100.4 53.5001 100.4L52.0701 98.8999C52.0701 98.8999 57.9901 94.0999 58.1801 93.3499C58.3701 92.5999 59.3601 93.3499 59.3601 93.3499Z" fill="#FFEA24"/>
<path d="M57.03 127.94C57.03 127.94 61.08 110.74 62.41 109.88C63.74 109.02 74.28 118.13 73.12 127.94H71.4C71.4 127.94 70.79 116.67 63.24 112.9L59.02 127.94H57.03Z" fill="#FFEA24" stroke="#13110C" stroke-miterlimit="10"/>
<path d="M63.02 115.95C63.02 115.95 67.23 114.94 67.68 119.44C67.68 119.44 66.56 123.18 62.24 123.72C62.24 123.72 60.13 123.05 62.57 121.94C62.57 121.94 67.68 118.2 63.4 118.88C63.41 118.88 60.74 121.5 63.02 115.95Z" fill="#FFEA24" stroke="#13110C" stroke-miterlimit="10"/>
<path d="M64.54 127.94C69.5 127 66.18 125.38 66.18 125.38C63.13 125.94 61.96 125.64 61.96 125.64C61.96 125.64 68.45 119.44 70.17 124.55C70.17 124.55 69.31 127.94 64.54 127.94Z" fill="#FFEA24" stroke="#13110C" stroke-miterlimit="10"/>
<path d="M48.1599 127.94C48.1599 127.94 54.5999 100.25 60.6599 95.9199L61.9599 110.18L57.0199 127.94H48.1599Z" fill="#AFA3C7" stroke="#13120D" stroke-miterlimit="10"/>
<path d="M60.93 98.8999L57.03 106.93L58.27 107.77L60.46 104.8L60.98 108.27L59.36 110.61L55.83 109.45L52.72 117.9L54.59 118.75L56.62 112.67L58.14 113.58L55.83 121.12L51.81 120.41L50.27 127.51" stroke="#13110C" stroke-miterlimit="10"/>
<path d="M52.0701 127.51L53.5601 123.34L55.0601 124.09L54.4601 127.94" stroke="#13110C" stroke-miterlimit="10"/>
<path d="M60.98 95.92C60.98 95.92 73.8 98.82 75.41 100.08C77.02 101.35 78.92 111.24 78.67 116.54L82.57 117.03C82.57 117.03 81.11 99.15 78.92 96.33C78.92 96.33 62.46 91.71 61.97 91.52L60.98 95.92Z" fill="#13110C" stroke="#13110C" stroke-miterlimit="10"/>
<path d="M60.98 96.71L61.39 102.43C61.39 102.43 71.66 105.43 71.77 106.76C71.88 108.09 73.82 115.85 73.82 115.85L78.54 116.58C78.54 116.58 79.03 101.49 75.4 100.09L60.98 96.71Z" fill="#E31013" stroke="#13110C" stroke-miterlimit="10"/>
<path d="M64.0101 99.9301C64.0101 100.39 63.6401 100.76 63.1801 100.76C62.7201 100.76 62.3501 100.39 62.3501 99.9301C62.3501 99.4701 62.7201 99.1001 63.1801 99.1001C63.6401 99.1001 64.0101 99.4801 64.0101 99.9301Z" fill="white" stroke="#13110C" stroke-width="0.5" stroke-miterlimit="10"/>
<path d="M66.92 100.77C66.92 101.23 66.55 101.6 66.09 101.6C65.63 101.6 65.26 101.23 65.26 100.77C65.26 100.31 65.63 99.9399 66.09 99.9399C66.55 99.9399 66.92 100.31 66.92 100.77Z" fill="white" stroke="#13110C" stroke-width="0.5" stroke-miterlimit="10"/>
<path d="M70.0799 101.6C70.0799 102.06 69.7099 102.43 69.2499 102.43C68.7899 102.43 68.4199 102.06 68.4199 101.6C68.4199 101.14 68.7899 100.77 69.2499 100.77C69.7099 100.77 70.0799 101.14 70.0799 101.6Z" fill="white" stroke="#13110C" stroke-width="0.5" stroke-miterlimit="10"/>
<path d="M73.7 103.45C73.7 103.91 73.33 104.28 72.87 104.28C72.41 104.28 72.04 103.91 72.04 103.45C72.04 102.99 72.41 102.62 72.87 102.62C73.33 102.62 73.7 102.99 73.7 103.45Z" fill="white" stroke="#13110C" stroke-width="0.5" stroke-miterlimit="10"/>
<path d="M75.36 106.54C75.36 107 74.99 107.37 74.53 107.37C74.07 107.37 73.7 107 73.7 106.54C73.7 106.08 74.07 105.71 74.53 105.71C74.99 105.71 75.36 106.08 75.36 106.54Z" fill="white" stroke="#13110C" stroke-width="0.5" stroke-miterlimit="10"/>
<path d="M76.19 109.47C76.19 109.93 75.82 110.3 75.36 110.3C74.9 110.3 74.53 109.93 74.53 109.47C74.53 109.01 74.9 108.64 75.36 108.64C75.82 108.64 76.19 109.01 76.19 109.47Z" fill="white" stroke="#13110C" stroke-width="0.5" stroke-miterlimit="10"/>
<path d="M76.7601 113.21C76.7601 113.67 76.3901 114.04 75.9301 114.04C75.4701 114.04 75.1001 113.67 75.1001 113.21C75.1001 112.75 75.4701 112.38 75.9301 112.38C76.3901 112.38 76.7601 112.75 76.7601 113.21Z" fill="white" stroke="#13110C" stroke-width="0.5" stroke-miterlimit="10"/>
<path d="M69.5499 116.07L73.8299 115.86L71.7799 106.65C71.7799 106.65 62.4599 102.05 61.3999 102.44L61.9199 109.66C61.9099 109.65 65.0799 109.94 69.5499 116.07Z" fill="#13110C" stroke="#13110C" stroke-miterlimit="10"/>
<path d="M63.4199 107.58C63.4199 107.58 69.7799 106.87 69.7799 113.38" stroke="white" stroke-miterlimit="10"/>
<path d="M85.93 117.16L91.23 118.88C91.23 118.88 90.33 96.2298 88.83 95.5298L82.47 95.8998C82.47 95.8998 86.39 110.2 85.93 117.16Z" fill="#AFA3C7" stroke="#13120D" stroke-miterlimit="10"/>
<path d="M83.6201 99.6398L89.5101 99.5898" stroke="#13110C" stroke-miterlimit="10"/>
<path d="M84.71 103.45H90.04" stroke="#13110C" stroke-miterlimit="10"/>
<path d="M85.51 106.92L90.32 106.96" stroke="#13110C" stroke-miterlimit="10"/>
<path d="M85.9299 110.1H90.3199" stroke="#13110C" stroke-miterlimit="10"/>
<path d="M86.3501 114.04H90.6101" stroke="#13110C" stroke-miterlimit="10"/>
<path d="M87.29 117.04H90.91" stroke="#13110C" stroke-miterlimit="10"/>
<path d="M91.7701 119.22L94.0501 119.78C94.0501 119.78 93.2501 95.4602 92.1401 94.9502L89.1001 95.4802C89.1001 95.4902 91.8701 113.62 91.7701 119.22Z" fill="#FFEA24" stroke="#13110C" stroke-miterlimit="10"/>
<path d="M94.3999 119.79L97.9199 120.71C97.9199 120.71 97.3999 100.71 99.8499 93.27L92.4299 94.96C92.4299 94.96 94.4499 112.97 94.3999 119.79Z" fill="#AFA3C7" stroke="#13120D" stroke-miterlimit="10"/>
<path d="M93.26 99.0099L98.41 98.6099" stroke="#13110C" stroke-miterlimit="10"/>
<path d="M93.7 102.97L98.06 102.62" stroke="#13110C" stroke-miterlimit="10"/>
<path d="M94.05 106.24L97.81 106.19" stroke="#13110C" stroke-miterlimit="10"/>
<path d="M94.05 109.82H97.62" stroke="#13110C" stroke-miterlimit="10"/>
<path d="M94.49 113.38H97.37" stroke="#13110C" stroke-miterlimit="10"/>
<path d="M94.6899 116.58H97.6199" stroke="#13110C" stroke-miterlimit="10"/>
<path d="M98.4099 120.71L100.09 121C100.09 121 100.4 93.1802 102.76 92.4902L99.8499 93.2702C99.8399 93.2702 97.0199 104.41 98.4099 120.71Z" fill="#FFEA24" stroke="#13110C" stroke-miterlimit="10"/>
<path d="M100.69 121L102.31 121.2C102.31 121.2 102.08 98.1201 104.46 97.9201C104.46 97.9201 117.88 90.9301 121.1 89.9901L121.81 84.3301C121.81 84.3301 109.93 91.1201 102.76 92.4901C102.76 92.4901 100.09 103.21 100.69 121Z" fill="#13110C" stroke="#13110C" stroke-miterlimit="10"/>
<path d="M102.69 121.2H104.55C104.55 121.2 105.28 116.58 109.68 112.55V102.62L120.08 97.6502L121.12 90.2202C121.12 90.2202 105.95 96.6302 104.45 97.9202C104.45 97.9202 101.96 95.0702 102.3 118.55L102.69 121.2Z" fill="#E31013" stroke="#13110C" stroke-miterlimit="10"/>
<path d="M117.55 96.82C118.047 96.82 118.45 96.4171 118.45 95.92C118.45 95.423 118.047 95.02 117.55 95.02C117.053 95.02 116.65 95.423 116.65 95.92C116.65 96.4171 117.053 96.82 117.55 96.82Z" fill="white" stroke="#13110C" stroke-width="0.5" stroke-miterlimit="10"/>
<path d="M115.14 97.17C115.14 97.67 114.74 98.07 114.24 98.07C113.74 98.07 113.34 97.67 113.34 97.17C113.34 96.67 113.74 96.27 114.24 96.27C114.74 96.27 115.14 96.67 115.14 97.17Z" fill="white" stroke="#13110C" stroke-width="0.5" stroke-miterlimit="10"/>
<path d="M111.7 98.61C111.7 99.11 111.3 99.51 110.8 99.51C110.31 99.51 109.9 99.11 109.9 98.61C109.9 98.11 110.3 97.71 110.8 97.71C111.29 97.72 111.7 98.12 111.7 98.61Z" fill="white" stroke="#13110C" stroke-width="0.5" stroke-miterlimit="10"/>
<path d="M107.27 101.31C107.767 101.31 108.17 100.907 108.17 100.41C108.17 99.9127 107.767 99.5098 107.27 99.5098C106.773 99.5098 106.37 99.9127 106.37 100.41C106.37 100.907 106.773 101.31 107.27 101.31Z" fill="white" stroke="#13110C" stroke-width="0.5" stroke-miterlimit="10"/>
<path d="M107.27 103.87C107.27 104.37 106.87 104.77 106.37 104.77C105.88 104.77 105.47 104.37 105.47 103.87C105.47 103.37 105.87 102.97 106.37 102.97C106.87 102.97 107.27 103.37 107.27 103.87Z" fill="white" stroke="#13110C" stroke-width="0.5" stroke-miterlimit="10"/>
<path d="M107.05 107.37C107.05 107.87 106.65 108.27 106.15 108.27C105.66 108.27 105.25 107.87 105.25 107.37C105.25 106.87 105.65 106.47 106.15 106.47C106.65 106.48 107.05 106.88 107.05 107.37Z" fill="white" stroke="#13110C" stroke-width="0.5" stroke-miterlimit="10"/>
<path d="M107.05 110.72C107.05 111.22 106.65 111.62 106.15 111.62C105.66 111.62 105.25 111.22 105.25 110.72C105.25 110.22 105.65 109.82 106.15 109.82C106.65 109.82 107.05 110.22 107.05 110.72Z" fill="white" stroke="#13110C" stroke-width="0.5" stroke-miterlimit="10"/>
<path d="M107.05 114.68C107.05 115.18 106.65 115.58 106.15 115.58C105.66 115.58 105.25 115.18 105.25 114.68C105.25 114.18 105.65 113.78 106.15 113.78C106.65 113.78 107.05 114.19 107.05 114.68Z" fill="white" stroke="#13110C" stroke-width="0.5" stroke-miterlimit="10"/>
<path d="M104.6 121.69C105.25 121.04 103.47 124.75 103.47 124.75C99.9401 125.46 89.9101 121.74 89.9101 121.74C79.6001 117.64 71.1301 118.65 71.1301 118.65L69.5601 116.07C69.5601 116.07 78.0701 116.61 82.5801 117.36C82.5801 117.36 89.7901 117.76 96.1601 120.46C96.1501 120.45 104.36 121.92 104.6 121.69Z" fill="white" stroke="#13110C" stroke-miterlimit="10"/>
<path d="M76.4801 124.21C76.4801 124.67 76.1101 125.04 75.6501 125.04C75.1901 125.04 74.8201 124.67 74.8201 124.21C74.8201 123.75 75.1901 123.38 75.6501 123.38C76.1101 123.38 76.4801 123.75 76.4801 124.21Z" fill="white" stroke="#13110C" stroke-width="0.5" stroke-miterlimit="10"/>
<path d="M80.2301 124.75C80.2301 125.21 79.8601 125.58 79.4001 125.58C78.9401 125.58 78.5701 125.21 78.5701 124.75C78.5701 124.29 78.9401 123.92 79.4001 123.92C79.8601 123.92 80.2301 124.29 80.2301 124.75Z" fill="white" stroke="#13110C" stroke-width="0.5" stroke-miterlimit="10"/>
<path d="M83.4701 125.25C83.4701 125.71 83.1001 126.08 82.6401 126.08C82.1801 126.08 81.8101 125.71 81.8101 125.25C81.8101 124.79 82.1801 124.42 82.6401 124.42C83.0901 124.42 83.4701 124.79 83.4701 125.25Z" fill="white" stroke="#13110C" stroke-width="0.5" stroke-miterlimit="10"/>
<path d="M86.7601 126.07C86.7601 126.53 86.3901 126.9 85.9301 126.9C85.4701 126.9 85.1001 126.53 85.1001 126.07C85.1001 125.61 85.4701 125.24 85.9301 125.24C86.3901 125.24 86.7601 125.61 86.7601 126.07Z" fill="white" stroke="#13110C" stroke-width="0.5" stroke-miterlimit="10"/>
<path d="M103.23 127.73L103.46 124.75C100.96 125.32 88.7201 121.59 88.7201 121.59C87.9701 120.98 84.3801 119.94 84.3801 119.94C80.0401 118.29 71.1201 118.65 71.1201 118.65L72.3701 121.57L89.6401 124.21C89.6401 124.21 102.2 126.73 103.23 127.73Z" fill="#13110C" stroke="#13110C" stroke-miterlimit="10"/>
<path d="M109.68 112.41C109.68 112.41 114.78 108.2 119.69 108.27L120.17 97.7202L109.68 102.62V112.41Z" fill="#13110C" stroke="#13110C" stroke-miterlimit="10"/>
<path d="M111.52 110.07C111.52 110.07 110.83 105.1 113.86 104.62L118.92 102.76" stroke="white" stroke-miterlimit="10"/>
<path d="M103.9 127.94C103.9 127.94 104.1 114.54 111.92 110.86C111.92 110.86 117.12 107.67 119.76 108.65L119.58 110.9C119.58 110.9 107.41 109.71 105.83 126.71L105.92 127.94H103.9Z" fill="#FFEA24" stroke="#13110C" stroke-miterlimit="10"/>
<path d="M117.55 127.73C117.55 127.73 120.53 107.51 120.53 103.38C120.53 103.38 120.82 85.1599 123 83.6699C123 83.6699 124.56 84.0799 125.02 85.0899C125.02 85.0899 122.49 95.7499 122.28 103.86C122.28 103.86 120.74 125.09 119.77 127.72H117.55V127.73Z" fill="#FFEA24" stroke="#13110C" stroke-miterlimit="10"/>
<path d="M125.43 85.76L129.5 89.17L132.3 91.52C132.3 91.52 129.67 95.89 129.93 109.82C129.93 109.82 129.25 125.52 128.23 127.94H119.76L121.97 107.77C121.97 107.76 123.87 84.46 125.43 85.76Z" fill="#AFA3C7" stroke="#13120D" stroke-miterlimit="10"/>
<path d="M122.27 127.73L122.78 121.2H127.5L127.64 113.38H125.54V118.88H123.58V110.72H128.23V102.97L126.03 102.79V108.27L124.53 108.46V100.55H128.23V97.1702H129.48V92.4902H126.92V97.7202H125.32V89.2002L129.5 89.1802" stroke="#13110C" stroke-miterlimit="10"/>
<path d="M124.23 127.94L124.53 123.91L126.63 124.42L126.03 127.94" stroke="#13110C" stroke-miterlimit="10"/>
<path d="M128.23 127.94H130.7C130.7 127.94 133.5 108.55 132.83 103.87C132.83 103.87 133.33 93.0598 134.34 92.6398L132.3 91.5298C132.3 91.5298 129.23 100.07 129.93 108.28C129.93 108.27 129.25 125.38 128.23 127.94Z" fill="#FFEA24" stroke="#13110C" stroke-miterlimit="10"/>
<path d="M131.28 127.23L146.97 111.1V103.19L140.7 104.57C140.7 104.57 136.65 109.16 132.84 108.64L130.7 127.93H131.28V127.23Z" fill="#E31013" stroke="#13110C" stroke-miterlimit="10"/>
<path d="M132.83 127.94L146.97 114.04V111.1L131.28 127.94H132.83Z" fill="#FFEA24" stroke="#13110C" stroke-miterlimit="10"/>
<path d="M145.4 122.8C145.4 123.7 144.67 124.42 143.78 124.42C142.88 124.42 142.16 123.69 142.16 122.8C142.16 121.91 142.88 121.18 143.78 121.18C144.67 121.18 145.4 121.9 145.4 122.8Z" fill="#FFEA24" stroke="#13110C" stroke-miterlimit="10"/>
<path d="M114.69 126.07C110.83 124.8 108.03 127.94 108.03 127.94H106.15C106.15 127.94 106.97 120.81 114.93 126.23" fill="#FFEA24"/>
<path d="M114.69 126.07C110.83 124.8 108.03 127.94 108.03 127.94H106.15C106.15 127.94 106.97 120.81 114.93 126.23" stroke="#13110C" stroke-miterlimit="10"/>
<path d="M115.18 124.19C115.18 124.19 110.36 120.59 111.83 119.78C111.83 119.78 113.22 118.82 115.87 121.82C115.87 121.82 118.09 121.41 115.52 118.61C112.95 115.82 110.92 115.31 108.9 117.69C108.9 117.69 105.27 122.56 114.94 124.35" fill="#FFEA24"/>
<path d="M115.18 124.19C115.18 124.19 110.36 120.59 111.83 119.78C111.83 119.78 113.22 118.82 115.87 121.82C115.87 121.82 118.09 121.41 115.52 118.61C112.95 115.82 110.92 115.31 108.9 117.69C108.9 117.69 105.27 122.56 114.94 124.35" stroke="#13110C" stroke-miterlimit="10"/>
<path d="M119.17 116.07C119.48 109.51 116.33 112.41 116.33 112.41C111.42 114.84 117.54 120.11 117.54 120.11C117.54 120.11 116.45 114.93 117.54 116.58C117.55 116.58 118.89 121.92 119.17 116.07Z" fill="#FFEA24" stroke="#13110C" stroke-miterlimit="10"/>
<path d="M49.08 62.2398C49.31 62.0398 49.52 61.8198 49.72 61.5798L56.46 53.3698L60.16 48.8698C62.06 46.5498 61.73 43.1298 59.41 41.2298L59 40.8898C56.68 38.9898 53.26 39.3198 51.36 41.6398L49.14 44.3398L46.97 41.6598C45.08 39.3298 41.66 38.9698 39.33 40.8598L38.92 41.1898C36.59 43.0798 36.23 46.4998 38.12 48.8298L48.48 61.6098C48.67 61.8398 48.87 62.0498 49.08 62.2398Z" fill="#E30B13"/>
<path d="M15.79 49.4799C15.97 49.3299 16.13 49.1599 16.29 48.9699L21.53 42.5799L24.41 39.0799C25.89 37.2799 25.63 34.6199 23.83 33.1299L23.51 32.8699C21.71 31.3899 19.05 31.6499 17.56 33.4599L15.83 35.5599L14.14 33.4799C12.67 31.6699 10.01 31.3899 8.19998 32.8599L7.87998 33.1199C6.06998 34.5899 5.78998 37.2499 7.25998 39.0599L15.32 48.9999C15.47 49.1699 15.62 49.3399 15.79 49.4799Z" fill="#E30B13"/>
<path d="M21.56 26.9098C20.73 26.9098 20.14 26.8698 19.77 26.7998C19.35 26.6998 18.94 26.5098 18.55 26.2098C17.67 26.9198 16.7 27.2798 15.65 27.2798C14.52 27.2798 13.5 26.8698 12.61 26.0598C11.67 25.2198 11.2 24.2398 11.2 23.1198V21.5698H10.05V19.5498C10.09 19.5398 10.48 19.5098 11.2 19.4698V13.2298C11.2 12.0998 11.67 11.1098 12.61 10.2698C13.5 9.4598 14.52 9.0498 15.65 9.0498C16.78 9.0498 17.81 9.4598 18.73 10.2898C19.65 11.1198 20.11 12.0998 20.11 13.2298V23.1198C20.11 23.5998 20.01 24.0598 19.82 24.5298C20.02 24.6598 20.2 24.7398 20.36 24.7798H21.56V26.9098ZM13.35 19.4798C14.2 19.5798 15.06 19.9698 15.91 20.6598C16.44 21.0798 17.12 21.7498 17.95 22.6798V13.2498C17.95 12.7498 17.71 12.2898 17.23 11.8898C16.75 11.4798 16.22 11.2798 15.67 11.2798C15.11 11.2798 14.58 11.4798 14.09 11.8898C13.6 12.2998 13.36 12.7498 13.36 13.2498V19.4798H13.35ZM16.92 24.6798L14.21 21.9998C13.99 21.7698 13.7 21.6298 13.35 21.5798V23.1098C13.35 23.6098 13.59 24.0598 14.08 24.4698C14.57 24.8798 15.1 25.0898 15.66 25.0898C16.1 25.0798 16.52 24.9498 16.92 24.6798Z" fill="#E30B13"/>
<path d="M29.3799 127.79H146.38V159.87L130.26 170.18L107.47 185.28L69.7299 186.96L42.0199 163.09L29.1799 161.79L29.3799 127.79Z" fill="#211C4B" stroke="#13110C" stroke-width="0.5" stroke-miterlimit="10"/>
<path d="M73.1201 127.79C83.8601 132.09 103.98 134.18 103.98 134.18C103.98 134.18 102.78 130.16 103.23 127.79H73.1201Z" fill="#E31013" stroke="#13110C" stroke-miterlimit="10"/>
<path d="M85.74 128.83C85.74 128.37 86.11 128 86.57 128C87.03 128 87.4 128.37 87.4 128.83C87.4 129.29 87.03 129.66 86.57 129.66C86.12 129.66 85.74 129.29 85.74 128.83Z" fill="white" stroke="#13110C" stroke-width="0.5" stroke-miterlimit="10"/>
<path d="M97.3501 159.8L93.7901 159.51C93.7901 159.51 90.3501 148.7 90.4301 138.56H93.5501L97.3501 159.8Z" fill="#FFEA24" stroke="#13110C" stroke-miterlimit="10"/>
<path d="M115.81 163.91C124.88 153.38 130.26 127.79 130.26 127.79H128.19C128.19 127.79 123.1 152.82 115.37 160.13L114.78 163.92H115.81V163.91Z" fill="#FFEA24" stroke="#13110C" stroke-miterlimit="10"/>
<path d="M134.25 127.79L129.53 132.38V130.81L131.63 127.79H134.25Z" fill="#FFEA24"/>
<path d="M146.38 147.75C143.67 153.3 136.19 157.57 136.19 157.57C135.36 157.65 134.24 155.78 134.24 155.78C138.23 154.74 146.37 143.31 146.37 143.31V147.75H146.38Z" fill="#FFEA24"/>
<path d="M139.15 127.79L146.38 134.03L142.65 134.28L142.32 136.98L136.19 131.96L139.28 131.01L139.15 127.79Z" fill="#FFEA24"/>
<path d="M65.87 173.54C66.64 172.11 69.01 178.34 69.01 178.34C69.36 179.58 70.21 179.11 70.21 179.11C70.21 179.11 68.11 169.66 64.83 170.2C64.83 170.2 61.89 171.46 66.56 180.68C66.56 180.68 67.27 180.64 66.8 178.97C66.8 178.97 65.13 174.18 65.87 173.54Z" fill="#FFEA24" stroke="#13110C" stroke-width="0.5" stroke-miterlimit="10"/>
<path d="M61.84 175.41C62.61 173.98 64.97 180.21 64.97 180.21C65.32 181.45 66.17 180.98 66.17 180.98C66.17 180.98 64.07 171.53 60.79 172.07C60.79 172.07 57.85 173.33 62.52 182.55C62.52 182.55 63.22 182.51 62.76 180.84C62.77 180.84 61.1 176.05 61.84 175.41Z" fill="#FFEA24" stroke="#13110C" stroke-width="0.5" stroke-miterlimit="10"/>
<path d="M46.05 180.28H32.48V194.42H46.05V180.28Z" fill="#211C4B" stroke="#13110C" stroke-width="0.5" stroke-miterlimit="10"/>
<path d="M102.13 216.33C101.83 208.88 100.85 197.17 97.7 192C97.7 192 91.2999 181.66 88.59 181.79C88.59 181.79 78.5 186.47 73.7 192.87C73.7 192.87 80.59 205.05 78.87 214.65L80.1 216.87C80.1 216.87 89.9 214.93 91.63 222.37C91.63 222.37 98.78 216.49 102.1 215.75" fill="#FED68A"/>
<path d="M102.13 216.33C101.83 208.88 100.85 197.17 97.7 192C97.7 192 91.3 181.66 88.59 181.79C88.59 181.79 78.5 186.47 73.7 192.87C73.7 192.87 80.59 205.05 78.87 214.65L80.1 216.87C80.1 216.87 89.9 214.93 91.63 222.37C91.63 222.37 98.78 216.49 102.1 215.75" stroke="#13110C" stroke-miterlimit="10"/>
<path d="M102.26 222.96H91.5601C91.5601 222.96 97.6801 216.69 102 215.99L102.26 222.96Z" fill="#AFA3C7" stroke="#13120D" stroke-miterlimit="10"/>
<path d="M102.2 218.58L102.26 222.96" stroke="#13120D" stroke-miterlimit="10"/>
<path d="M101.39 217.37C101.39 217.37 95.0501 220.78 94.1101 221.99" stroke="#13120D" stroke-width="0.5" stroke-miterlimit="10"/>
<path d="M101.39 219.18C101.39 219.18 97.4201 220.87 96.3301 221.99" stroke="#13120D" stroke-width="0.5" stroke-miterlimit="10"/>
<path d="M101.39 220.93C101.39 220.93 99.6101 221.46 98.8601 222.21" stroke="#13120D" stroke-width="0.5" stroke-miterlimit="10"/>
<path d="M102.26 222.96L102.2 218.58L116.16 179.32L119.73 177.11L103.24 222.96H102.26Z" fill="#FFEA24" stroke="#13110C" stroke-miterlimit="10"/>
<path d="M83.9299 222.96L50.9299 169.96L46.4299 173.33L77.2999 222.96H83.9299Z" fill="#13120D" stroke="#13120D" stroke-miterlimit="10"/>
<path d="M91.55 222.96H83.43L80.25 217.05C80.25 217.05 90.38 214.38 91.55 222.96Z" fill="#AFA3C7" stroke="#13120D" stroke-width="0.5" stroke-miterlimit="10"/>
<path d="M90.4699 221.99C90.4699 221.99 88.2199 216.81 81.6599 217.67L90.4699 221.99Z" fill="#AFA3C7"/>
<path d="M90.4699 221.99C90.4699 221.99 88.2199 216.81 81.6599 217.67" stroke="#13120D" stroke-width="0.5" stroke-miterlimit="10"/>
<path d="M89.0299 221.99C89.0299 221.99 87.0099 218.15 82.1299 218.57L89.0299 221.99Z" fill="#AFA3C7"/>
<path d="M89.0299 221.99C89.0299 221.99 87.0099 218.15 82.1299 218.57" stroke="#13120D" stroke-width="0.5" stroke-miterlimit="10"/>
<path d="M87.0299 221.99C87.0299 221.99 85.3299 219.67 82.4099 219.68L87.0299 221.99Z" fill="#AFA3C7"/>
<path d="M87.0299 221.99C87.0299 221.99 85.3299 219.67 82.4099 219.68" stroke="#13120D" stroke-width="0.5" stroke-miterlimit="10"/>
<path d="M101.39 212.02C101.39 212.02 98.8001 214.52 96.3301 213.71C96.3301 213.71 91.4901 212.9 93.3601 204.52C93.3601 204.52 96.4801 197.71 94.1101 197.14C94.1101 197.14 88.8001 196.39 87.6101 198.95C87.6101 198.95 88.4501 200.98 89.5501 199.07" stroke="#13120D" stroke-width="0.5" stroke-miterlimit="10"/>
<path d="M90.47 213.52C90.47 213.52 84.32 215.77 80.25 212.52" stroke="#13120D" stroke-width="0.5" stroke-miterlimit="10"/>
<path d="M80.9299 209.08C84.9299 211.64 90.0499 209.64 90.0499 209.64C90.0499 209.64 86.7399 204.08 80.9299 208.64" stroke="#13120D" stroke-miterlimit="10"/>
<path d="M89.7401 208.08C89.7401 208.08 87.5401 204.96 85.5801 204.27" stroke="#13120D" stroke-miterlimit="10"/>
<path d="M83.6699 208.65C83.6699 208.39 84.4299 208.18 85.3599 208.18C86.2899 208.18 87.0499 208.39 87.0499 208.65C87.0499 208.91 86.2999 209.12 85.3599 209.12C84.4299 209.12 83.6699 208.91 83.6699 208.65Z" stroke="#13120D" stroke-miterlimit="10"/>
<path d="M100.83 209.83C97.45 211.56 93.53 209.57 93.53 209.57C93.53 209.57 96.6 205.4 100.87 209.48" stroke="#13120D" stroke-miterlimit="10"/>
<path d="M93.8899 208.35C93.8899 208.35 95.8799 206.03 97.4999 205.64" stroke="#13120D" stroke-miterlimit="10"/>
<path d="M98.9199 209.31C98.9499 209.05 98.2099 208.77 97.2799 208.67C96.3399 208.58 95.5699 208.72 95.5399 208.98C95.5099 209.24 96.2499 209.53 97.1899 209.62C98.1199 209.71 98.8899 209.57 98.9199 209.31Z" stroke="#13120D" stroke-miterlimit="10"/>
<path d="M94.5101 192.72C94.5101 192.72 88.1001 191.97 85.5901 192.72" stroke="#13110C" stroke-miterlimit="10"/>
<path d="M91.18 189.02L89.03 186.52H91.18L89.03 189.02" stroke="#13110C" stroke-miterlimit="10"/>
<path d="M116.16 179.32L102.26 217.57L101.39 209.11L110.97 182.71L116.16 179.32Z" fill="#13120D" stroke="#13120D" stroke-miterlimit="10"/>
<path d="M59.1101 193.72L55.05 196.46L71.93 222.96H77.3001L58.8301 193.27" fill="#E31013"/>
<path d="M59.1101 193.72L55.05 196.46L71.93 222.96H77.3001L58.8301 193.27" stroke="#13110C" stroke-miterlimit="10"/>
<path d="M110.97 182.71L107.47 185.28L100.92 202.9L101.44 206.85L110.97 182.71Z" fill="#E31013" stroke="#13110C" stroke-miterlimit="10"/>
<path d="M107.47 185.28L97.7 192L100.86 202.53L107.47 185.28Z" fill="#BBB32E" stroke="#13110C" stroke-miterlimit="10"/>
<path d="M105.09 188.34L101.39 198.45" stroke="#13110C" stroke-width="0.5" stroke-miterlimit="10"/>
<path d="M103.24 189.36L100.92 196.46" stroke="#13110C" stroke-width="0.5" stroke-miterlimit="10"/>
<path d="M101.39 190.82L100.26 194.11" stroke="#13110C" stroke-width="0.5" stroke-miterlimit="10"/>
<path d="M55.0499 196.46L46.4299 197.05C46.4299 197.05 51.1999 201.28 50.7399 222.96H71.9299L55.0499 196.46Z" fill="#BBB32E" stroke="#13110C" stroke-miterlimit="10"/>
<path d="M68.15 221.99L60.92 215.99C60.92 215.99 63.33 215.65 51.52 197.86" fill="#211C4B"/>
<path d="M68.15 221.99L60.92 215.99C60.92 215.99 63.33 215.65 51.52 197.86" stroke="#13110C" stroke-width="0.5" stroke-miterlimit="10"/>
<path d="M60.6501 218.68C60.4001 217.28 60.5501 216.08 60.9701 216.01C61.4001 215.93 61.9401 217.01 62.1901 218.41C62.4401 219.81 62.3001 221.01 61.8701 221.08C61.4501 221.15 60.9001 220.08 60.6501 218.68Z" fill="#211C4B" stroke="#13110C" stroke-width="0.5" stroke-miterlimit="10"/>
<path d="M57.2899 216.76C58.8299 215.58 60.3599 214.98 60.6999 215.42C61.0399 215.87 60.0699 217.19 58.5299 218.37C56.9899 219.55 55.4599 220.15 55.1199 219.71C54.7799 219.27 55.7499 217.95 57.2899 216.76Z" fill="#211C4B" stroke="#13110C" stroke-width="0.5" stroke-miterlimit="10"/>
<path d="M57.41 214C56.31 213.1 55.63 212.1 55.91 211.77C56.18 211.44 57.29 211.89 58.4 212.79C59.5 213.69 60.18 214.69 59.9 215.02C59.63 215.36 58.52 214.9 57.41 214Z" fill="#211C4B" stroke="#13110C" stroke-width="0.5" stroke-miterlimit="10"/>
<path d="M51.46 207.64C51.46 206.83 52.12 206.17 52.92 206.17C53.73 206.17 54.39 206.83 54.39 207.64C54.39 208.45 53.73 209.11 52.92 209.11C52.12 209.11 51.46 208.45 51.46 207.64Z" fill="#211C4B" stroke="#13110C" stroke-width="0.5" stroke-miterlimit="10"/>
<path d="M51.8201 171.39C51.8201 171.39 71.9401 186.85 73.0501 192.39C73.0501 192.39 81.5301 204.72 78.7901 214.71L51.8201 171.39Z" fill="#AFA3C7" stroke="#13120D" stroke-width="0.5" stroke-miterlimit="10"/>
<path d="M77.3 209.92V203.58" stroke="#13110C" stroke-width="0.5" stroke-miterlimit="10"/>
<path d="M75.55 207.64L75.68 200.03" stroke="#13110C" stroke-width="0.5" stroke-miterlimit="10"/>
<path d="M74.0701 204.8V195.98" stroke="#13110C" stroke-width="0.5" stroke-miterlimit="10"/>
<path d="M72.2 202.12V193.59" stroke="#13110C" stroke-width="0.5" stroke-miterlimit="10"/>
<path d="M70.2 199.13L70.33 190.63" stroke="#13110C" stroke-width="0.5" stroke-miterlimit="10"/>
<path d="M68.1499 195.09V188" stroke="#13110C" stroke-width="0.5" stroke-miterlimit="10"/>
<path d="M66.1799 190.85V186.06" stroke="#13110C" stroke-width="0.5" stroke-miterlimit="10"/>
<path d="M64.1499 187.47L64.2799 183.65" stroke="#13110C" stroke-width="0.5" stroke-miterlimit="10"/>
<path d="M61.9399 184.21V182.08" stroke="#13110C" stroke-width="0.5" stroke-miterlimit="10"/>
<path d="M59.96 181.53V180.28" stroke="#13110C" stroke-width="0.5" stroke-miterlimit="10"/>
<path d="M36.5699 185.61C36.5699 185.61 36.9299 179.43 39.3599 177.62C39.3599 177.62 42.2299 178.52 41.4699 185.21C41.4699 185.21 46.6499 185.02 48.1199 187.44C48.1199 187.44 46.9199 190.21 41.4599 189.46C41.4599 189.46 41.6699 195.67 39.2599 197.51C39.2599 197.51 36.3799 196.64 37.0599 189.94C37.0599 189.94 31.8799 190.19 30.3799 187.79C30.3899 187.8 31.0999 184.93 36.5699 185.61Z" fill="#FFEA24" stroke="#13110C" stroke-miterlimit="10"/>
<path d="M37.0701 187.76C37.0701 186.55 38.0501 185.56 39.2701 185.56C40.4801 185.56 41.4701 186.54 41.4701 187.76C41.4701 188.29 41.2801 188.77 40.9801 189.15C40.5801 189.64 39.9601 189.96 39.2801 189.96C38.0501 189.96 37.0701 188.97 37.0701 187.76Z" fill="#E31013" stroke="#13110C" stroke-miterlimit="10"/>
<path d="M33.1599 167.35C30.0799 173.58 31.7199 177.91 31.7199 177.91C36.7099 175.35 35.1299 168.27 35.1299 168.27C35.0599 165.25 37.0699 167.81 37.0699 167.81C41.1099 175.22 38.4499 178.64 38.4499 178.64C38.4499 178.64 39.3199 175.99 40.9199 179.32C40.9199 179.32 41.8899 170.83 38.0199 167.36C38.0199 167.36 38.0799 165.65 39.9899 168.08C39.9899 168.08 40.9099 171.56 46.8799 170.51C46.8799 170.51 45.3699 165.2 39.6599 165.52C39.6499 165.52 33.5499 167.09 33.1599 167.35Z" fill="#BBB32E" stroke="#13110C" stroke-miterlimit="10"/>
<path d="M45.1699 169.52C45.1699 169.52 41.6299 167.04 40.3799 166.8" stroke="#13110C" stroke-width="0.6" stroke-miterlimit="10"/>
<path d="M32.48 175.95C32.48 175.95 34.08 170.31 33.94 168.6" stroke="#13110C" stroke-width="0.6" stroke-miterlimit="10"/>
<path d="M29.3801 152.53C29.7401 153.06 35.6501 151.15 35.6501 151.15C39.9801 146.23 43.5201 147.15 43.5201 147.15C43.5201 147.15 43.4601 161.72 42.0101 163.09C42.0101 163.09 39.0301 167.95 30.3801 166.11L29.3701 165.91V152.53H29.3801Z" fill="#FED68A" stroke="#13110C" stroke-miterlimit="10"/>
<path d="M36.0901 166.05C36.0901 166.05 37.9701 160.98 33.9501 162.51C29.9401 164.04 29.5601 164.65 29.5601 164.65" stroke="#13110C" stroke-miterlimit="10"/>
<path d="M29.6699 163.3C29.6699 163.3 37.9799 160.79 35.2199 158.69C35.2199 158.69 32.4599 158.43 29.1799 159.74" stroke="#13110C" stroke-miterlimit="10"/>
<path d="M29.6699 158.68C29.6699 158.68 35.9499 157.78 35.4599 155.68C35.4599 155.68 34.1599 154.1 29.6699 156.53" stroke="#13110C" stroke-miterlimit="10"/>
<path d="M31.2799 155.61C31.2799 155.61 37.7799 153.77 36.4499 152.92C36.4499 152.92 35.7899 151.29 29.6599 153.52" stroke="#13110C" stroke-miterlimit="10"/>
<path d="M38.05 160.99C38.05 160.99 40.45 153.53 38.05 152.34" stroke="#13110C" stroke-miterlimit="10"/>
<path d="M97.6999 192C92.9799 184.21 89.6899 182.15 89.6899 182.15C99.3799 180.91 107.47 185.28 107.47 185.28C107.47 185.28 98.5799 191.34 97.6999 192Z" fill="#AFA3C7" stroke="#13120D" stroke-miterlimit="10"/>
<path d="M99.8799 189.36C99.8799 189.36 97.7499 188.17 96.6699 188.46" stroke="#13110C" stroke-width="0.5" stroke-miterlimit="10"/>
<path d="M101.62 187.77C101.62 187.77 98.6801 185.46 94.8401 185.56" stroke="#13110C" stroke-width="0.5" stroke-miterlimit="10"/>
<path d="M103.94 186.06C103.94 186.06 97.79 182.94 92.8 183.25" stroke="#13110C" stroke-width="0.5" stroke-miterlimit="10"/>
<path d="M69.73 187.29C78.58 181.78 87.18 182.5 87.18 182.5C87.18 182.5 77.13 187.84 73.71 192.4C73.7 192.39 70.68 187.75 69.73 187.29Z" fill="#AFA3C7" stroke="#13120D" stroke-miterlimit="10"/>
<path d="M82.37 183.65C82.37 183.65 73.42 185.79 72.2 187.17" stroke="#13110C" stroke-width="0.5" stroke-miterlimit="10"/>
<path d="M79.73 186.06C79.73 186.06 74.94 187.23 73.7 188.41" stroke="#13110C" stroke-width="0.5" stroke-miterlimit="10"/>
<path d="M76.2601 188.41C76.2601 188.41 74.7801 188.96 74.0701 189.63" stroke="#13110C" stroke-width="0.5" stroke-miterlimit="10"/>
<path d="M66.2 183.65C75.71 177.47 88.15 177.1 88.15 177.1C102.49 175.95 111.93 182.07 111.93 182.07L107.47 185.27C107.47 185.27 99.89 181.01 89.69 182.14C89.69 182.14 88.6 181.02 87.18 182.49C87.18 182.49 75.3 183.16 69.73 186.96L66.2 183.65Z" fill="#FFEA24" stroke="#13110C" stroke-miterlimit="10"/>
<path d="M108.55 182.46C108.55 182.46 96.9701 178.59 88.6301 179.32C88.6301 179.32 76.8101 179.69 69.3101 184.64" stroke="#13110C" stroke-miterlimit="10"/>
<path d="M125.71 173.24C125.71 173.24 121.37 170.53 120.89 176.36L125.71 173.24Z" fill="#FFEA24"/>
<path d="M125.71 173.24C125.71 173.24 121.37 170.53 120.89 176.36" stroke="#13110C" stroke-miterlimit="10"/>
<path d="M53.1201 172.41C65.8901 162.79 89.7401 159.87 89.7401 159.87C110.41 158.76 128.57 171.39 128.57 171.39L126.34 172.84C126.34 172.84 107.72 161.59 92.1501 162C92.1501 162 68.8601 163.65 55.0601 173.95L53.1201 172.41Z" fill="#FFEA24" stroke="#13110C" stroke-miterlimit="10"/>
<path d="M113.17 180.91C115.64 169.59 119.73 169.96 119.73 169.96V170.26C122.37 170 119.95 176.96 119.95 176.96" fill="#FFEA24"/>
<path d="M113.17 180.91C115.64 169.59 119.73 169.96 119.73 169.96V170.26C122.37 170 119.95 176.96 119.95 176.96" stroke="#13110C" stroke-width="0.5" stroke-miterlimit="10"/>
<path d="M117.73 178.35C117.73 178.35 118.71 174.94 117.73 174.86C117.73 174.86 116.23 176.64 115.81 179.33L117.73 178.35Z" fill="#211C4B" stroke="#13110C" stroke-width="0.5" stroke-miterlimit="10"/>
<path d="M92.73 167.7C94.25 166.42 93.9 174.85 93.9 174.85C93.69 176.47 94.85 176.35 94.85 176.35C94.85 176.35 97.01 164.32 93.17 163.3C93.17 163.3 89.35 163.29 90.11 176.35C90.11 176.35 90.9 176.66 91.18 174.48C91.18 174.48 91.62 168.08 92.73 167.7Z" fill="#FFEA24" stroke="#13110C" stroke-width="0.5" stroke-miterlimit="10"/>
<path d="M87.4901 167.99C88.8801 166.55 89.2001 175.3 89.2001 175.3C89.1301 176.99 90.2501 176.78 90.2501 176.78C90.2501 176.78 91.4201 164.16 87.5601 163.4C87.5601 163.4 83.8101 163.67 85.6001 177.14C85.6001 177.14 86.4001 177.4 86.5001 175.12C86.5101 175.12 86.4301 168.46 87.4901 167.99Z" fill="#FFEA24" stroke="#13110C" stroke-width="0.5" stroke-miterlimit="10"/>
<path d="M81.9999 168.36C83.3199 166.89 84.0599 175.36 84.0599 175.36C84.0699 177 85.1799 176.74 85.1799 176.74C85.1799 176.74 85.7399 164.44 81.8599 163.91C81.8599 163.91 78.1299 164.38 80.5499 177.34C80.5499 177.34 81.3599 177.55 81.3599 175.33C81.3599 175.33 80.9699 168.87 81.9999 168.36Z" fill="#FFEA24" stroke="#13110C" stroke-width="0.5" stroke-miterlimit="10"/>
<path d="M76.24 170C77.45 168.54 78.77 176.1 78.77 176.1C78.89 177.58 79.98 177.23 79.98 177.23C79.98 177.23 79.69 166.08 75.8 166C75.8 166 72.13 166.8 75.43 178.24C75.43 178.24 76.25 178.34 76.09 176.35C76.08 176.34 75.25 170.56 76.24 170Z" fill="#FFEA24" stroke="#13110C" stroke-width="0.5" stroke-miterlimit="10"/>
<path d="M70.6401 171.79C71.7101 170.23 73.7001 177.64 73.7001 177.64C73.9501 179.1 75.0001 178.65 75.0001 178.65C75.0001 178.65 73.7101 167.57 69.8301 167.84C69.8301 167.84 66.2401 168.97 70.5601 180.06C70.5601 180.06 71.3901 180.09 71.0501 178.12C71.0601 178.12 69.7101 172.44 70.6401 171.79Z" fill="#FFEA24" stroke="#13110C" stroke-width="0.5" stroke-miterlimit="10"/>
<path d="M112.9 171.94C114.52 171.11 112.16 178.8 112.16 178.8C111.59 180.25 112.61 180.4 112.61 180.4C112.61 180.4 117.4 169.8 114.35 167.99C114.35 167.99 111.08 167.11 108.54 179.33C108.54 179.33 109.14 179.79 109.92 177.85C109.92 177.83 111.86 172.03 112.9 171.94Z" fill="#FFEA24" stroke="#13110C" stroke-width="0.5" stroke-miterlimit="10"/>
<path d="M108.21 170.41C109.77 169.47 107.91 177.3 107.91 177.3C107.44 178.78 108.46 178.86 108.46 178.86C108.46 178.86 112.55 167.97 109.39 166.36C109.39 166.36 106.07 165.7 104.33 178.05C104.33 178.05 104.96 178.47 105.61 176.48C105.62 176.48 107.18 170.56 108.21 170.41Z" fill="#FFEA24" stroke="#13110C" stroke-width="0.5" stroke-miterlimit="10"/>
<path d="M103.03 168.84C104.63 167.76 103.27 175.99 103.27 175.99C102.88 177.55 103.99 177.57 103.99 177.57C103.99 177.57 107.51 166.02 103.97 164.57C103.97 164.57 100.34 164.11 99.48 177.01C99.48 177.01 100.19 177.4 100.73 175.3C100.74 175.31 101.93 169.08 103.03 168.84Z" fill="#FFEA24" stroke="#13110C" stroke-width="0.5" stroke-miterlimit="10"/>
<path d="M98.3499 168.05C99.6899 166.81 98.5999 175.65 98.5999 175.65C98.2799 177.34 99.2199 177.29 99.2199 177.29C99.2199 177.29 102.09 164.79 99.1199 163.44C99.1199 163.44 96.0799 163.15 95.4399 176.94C95.4399 176.94 96.0399 177.32 96.4699 175.05C96.4699 175.07 97.4299 168.36 98.3499 168.05Z" fill="#FFEA24" stroke="#13110C" stroke-width="0.5" stroke-miterlimit="10"/>
<path d="M128.19 156.82C128.19 156.25 128.65 155.78 129.23 155.78C129.8 155.78 130.27 156.24 130.27 156.82C130.27 157.39 129.81 157.86 129.23 157.86C128.65 157.86 128.19 157.4 128.19 156.82Z" fill="#FFEA24"/>
<path d="M132.67 156.3L138.67 162.22H135.37L134.92 164.58L129.83 159.8L132.6 159.15L132.67 156.3Z" fill="#FFEA24"/>
<path d="M138.1 150.3L132.18 156.3V153L129.83 152.55L134.6 147.45L135.25 150.23L138.1 150.3Z" fill="#FFEA24"/>
<path d="M120.52 163.32L125.89 156.82L126.18 160.11L128.56 160.35L124.26 165.85L123.36 163.14L120.52 163.32Z" fill="#FFEA24"/>
<path d="M123.88 149.39L128.96 154.13H126.17L125.79 156.01L121.47 152.19L123.82 151.67L123.88 149.39Z" fill="#FFEA24"/>
<path d="M136.24 145.17L142.87 138.29L142.91 142.03L145.59 142.5L140.25 148.35L139.47 145.21L136.24 145.17Z" fill="#FFEA24"/>
<path d="M131.63 134.86C131.63 134.07 132.27 133.44 133.06 133.44C133.85 133.44 134.48 134.08 134.48 134.86C134.48 135.65 133.84 136.28 133.06 136.28C132.27 136.28 131.63 135.65 131.63 134.86Z" fill="#FFEA24"/>
<path d="M140.91 138.68L140.31 136.28C140.31 136.28 128.66 142.36 127.35 150.44L128.56 151.19C128.56 151.2 133.71 141.76 140.91 138.68Z" fill="#FFEA24"/>
<path d="M125.71 167.54C125.75 167.52 125.78 167.5 125.82 167.48C127.7 166.34 130.26 161.33 130.26 161.33L131.63 162.96C131.63 162.96 128.47 168.06 126.45 169.26" fill="#FFEA24"/>
<path d="M116.99 162.37C117.68 159.78 122.85 155.32 122.85 155.32L124.28 156.82C124.28 156.82 118.36 161.62 118.17 162.37C117.98 163.12 116.99 162.37 116.99 162.37Z" fill="#FFEA24"/>
<path d="M119.33 127.79C119.33 127.79 115.28 144.99 113.95 145.85C112.62 146.71 102.08 137.6 103.24 127.79H104.96C104.96 127.79 105.57 139.06 113.12 142.83L117.34 127.79H119.33Z" fill="#FFEA24" stroke="#13110C" stroke-miterlimit="10"/>
<path d="M113.33 139.77C113.33 139.77 109.12 140.78 108.67 136.28C108.67 136.28 109.79 132.54 114.11 132C114.11 132 116.22 132.67 113.78 133.78C113.78 133.78 108.67 137.52 112.95 136.84C112.95 136.84 115.61 134.23 113.33 139.77Z" fill="#FFEA24" stroke="#13110C" stroke-miterlimit="10"/>
<path d="M111.82 127.79C106.86 128.73 110.18 130.35 110.18 130.35C113.23 129.79 114.4 130.09 114.4 130.09C114.4 130.09 107.91 136.29 106.19 131.18C106.18 131.17 107.04 127.79 111.82 127.79Z" fill="#FFEA24" stroke="#13110C" stroke-miterlimit="10"/>
<path d="M128.19 127.79C128.19 127.79 121.75 155.48 115.69 159.81L114.39 145.55L119.33 127.79H128.19Z" fill="#AFA3C7" stroke="#13120D" stroke-miterlimit="10"/>
<path d="M115.42 156.82L119.33 148.79L118.08 147.95L115.89 150.92L115.37 147.45L116.99 145.12L120.52 146.28L123.63 137.83L121.76 136.98L119.73 143.05L118.21 142.15L120.52 134.6L124.54 135.31L126.08 128.21" stroke="#13110C" stroke-miterlimit="10"/>
<path d="M124.28 128.21L122.79 132.38L121.29 131.63L121.89 127.79" stroke="#13110C" stroke-miterlimit="10"/>
<path d="M115.37 159.8C115.37 159.8 102.55 156.9 100.94 155.64C99.33 154.37 97.43 144.48 97.68 139.18L93.78 138.69C93.78 138.69 95.24 156.57 97.43 159.39C97.43 159.39 113.89 164.01 114.38 164.2L115.37 159.8Z" fill="#13110C" stroke="#13110C" stroke-miterlimit="10"/>
<path d="M115.37 159.01L114.96 153.29C114.96 153.29 104.69 150.29 104.58 148.96C104.47 147.63 102.53 139.87 102.53 139.87L97.81 139.14C97.81 139.14 97.32 154.23 100.95 155.63L115.37 159.01Z" fill="#E31013" stroke="#13110C" stroke-miterlimit="10"/>
<path d="M112.34 155.79C112.34 155.33 112.71 154.96 113.17 154.96C113.63 154.96 114 155.33 114 155.79C114 156.25 113.63 156.62 113.17 156.62C112.71 156.62 112.34 156.25 112.34 155.79Z" fill="white" stroke="#13110C" stroke-width="0.5" stroke-miterlimit="10"/>
<path d="M109.44 154.96C109.44 154.5 109.81 154.13 110.27 154.13C110.73 154.13 111.1 154.5 111.1 154.96C111.1 155.42 110.73 155.79 110.27 155.79C109.81 155.79 109.44 155.42 109.44 154.96Z" fill="white" stroke="#13110C" stroke-width="0.5" stroke-miterlimit="10"/>
<path d="M106.27 154.13C106.27 153.67 106.64 153.3 107.1 153.3C107.56 153.3 107.93 153.67 107.93 154.13C107.93 154.59 107.56 154.96 107.1 154.96C106.64 154.96 106.27 154.59 106.27 154.13Z" fill="white" stroke="#13110C" stroke-width="0.5" stroke-miterlimit="10"/>
<path d="M102.65 152.27C102.65 151.81 103.02 151.44 103.48 151.44C103.94 151.44 104.31 151.81 104.31 152.27C104.31 152.73 103.94 153.1 103.48 153.1C103.02 153.1 102.65 152.73 102.65 152.27Z" fill="white" stroke="#13110C" stroke-width="0.5" stroke-miterlimit="10"/>
<path d="M100.99 149.19C100.99 148.73 101.36 148.36 101.82 148.36C102.28 148.36 102.65 148.73 102.65 149.19C102.65 149.65 102.28 150.02 101.82 150.02C101.36 150.02 100.99 149.65 100.99 149.19Z" fill="white" stroke="#13110C" stroke-width="0.5" stroke-miterlimit="10"/>
<path d="M100.16 146.26C100.16 145.8 100.53 145.43 100.99 145.43C101.45 145.43 101.82 145.8 101.82 146.26C101.82 146.72 101.45 147.09 100.99 147.09C100.53 147.09 100.16 146.71 100.16 146.26Z" fill="white" stroke="#13110C" stroke-width="0.5" stroke-miterlimit="10"/>
<path d="M99.6001 142.52C99.6001 142.06 99.9701 141.69 100.43 141.69C100.89 141.69 101.26 142.06 101.26 142.52C101.26 142.98 100.89 143.35 100.43 143.35C99.9701 143.35 99.6001 142.98 99.6001 142.52Z" fill="white" stroke="#13110C" stroke-width="0.5" stroke-miterlimit="10"/>
<path d="M106.8 139.66L102.52 139.87L104.57 149.08C104.57 149.08 113.89 153.68 114.95 153.29L114.43 146.07C114.44 146.07 111.27 145.79 106.8 139.66Z" fill="#13110C" stroke="#13110C" stroke-miterlimit="10"/>
<path d="M112.94 148.14C112.94 148.14 106.58 148.85 106.58 142.34" stroke="white" stroke-miterlimit="10"/>
<path d="M90.4201 138.56L85.1201 136.84C85.1201 136.84 86.0201 159.49 87.5201 160.19L93.8801 159.82C93.8801 159.83 89.9601 145.53 90.4201 138.56Z" fill="#AFA3C7" stroke="#13120D" stroke-miterlimit="10"/>
<path d="M92.7301 156.08L86.8401 156.13" stroke="#13110C" stroke-miterlimit="10"/>
<path d="M91.6401 152.27H86.3101" stroke="#13110C" stroke-miterlimit="10"/>
<path d="M90.84 148.81L86.03 148.76" stroke="#13110C" stroke-miterlimit="10"/>
<path d="M90.42 145.62H86.03" stroke="#13110C" stroke-miterlimit="10"/>
<path d="M90 141.69H85.74" stroke="#13110C" stroke-miterlimit="10"/>
<path d="M89.0699 138.68H85.4399" stroke="#13110C" stroke-miterlimit="10"/>
<path d="M84.58 136.5L82.3 135.94C82.3 135.94 83.1 160.26 84.21 160.77L87.25 160.24C87.25 160.23 84.48 142.1 84.58 136.5Z" fill="#FFEA24" stroke="#13110C" stroke-miterlimit="10"/>
<path d="M81.96 135.94L78.44 135.02C78.44 135.02 78.96 155.02 76.51 162.46L83.93 160.77C83.93 160.77 81.91 142.75 81.96 135.94Z" fill="#AFA3C7" stroke="#13120D" stroke-miterlimit="10"/>
<path d="M83.0999 156.71L77.9399 157.11" stroke="#13110C" stroke-miterlimit="10"/>
<path d="M82.65 152.75L78.29 153.11" stroke="#13110C" stroke-miterlimit="10"/>
<path d="M82.3 149.48L78.54 149.53" stroke="#13110C" stroke-miterlimit="10"/>
<path d="M82.3 145.9H78.74" stroke="#13110C" stroke-miterlimit="10"/>
<path d="M81.86 142.35H78.98" stroke="#13110C" stroke-miterlimit="10"/>
<path d="M81.66 139.14H78.74" stroke="#13110C" stroke-miterlimit="10"/>
<path d="M77.9401 135.02L76.2601 134.73C76.2601 134.73 75.9501 162.55 73.5901 163.24L76.5001 162.46C76.5101 162.46 79.3301 151.31 77.9401 135.02Z" fill="#FFEA24" stroke="#13110C" stroke-miterlimit="10"/>
<path d="M75.66 134.72L74.04 134.52C74.04 134.52 74.27 157.6 71.89 157.8C71.89 157.8 58.47 164.79 55.25 165.73L54.54 171.39C54.54 171.39 66.42 164.6 73.59 163.23C73.59 163.24 76.26 152.51 75.66 134.72Z" fill="#13110C" stroke="#13110C" stroke-miterlimit="10"/>
<path d="M73.66 134.52H71.8C71.8 134.52 71.07 139.14 66.67 143.17V153.1L56.27 158.07L55.23 165.5C55.23 165.5 70.4 159.09 71.9 157.8C71.9 157.8 74.39 160.65 74.05 137.17L73.66 134.52Z" fill="#E31013" stroke="#13110C" stroke-miterlimit="10"/>
<path d="M57.9099 159.8C57.9099 159.3 58.3099 158.9 58.8099 158.9C59.2999 158.9 59.7099 159.3 59.7099 159.8C59.7099 160.3 59.3099 160.7 58.8099 160.7C58.3099 160.7 57.9099 160.3 57.9099 159.8Z" fill="white" stroke="#13110C" stroke-width="0.5" stroke-miterlimit="10"/>
<path d="M61.21 158.56C61.21 158.06 61.61 157.66 62.11 157.66C62.61 157.66 63.01 158.06 63.01 158.56C63.01 159.06 62.61 159.46 62.11 159.46C61.61 159.45 61.21 159.05 61.21 158.56Z" fill="white" stroke="#13110C" stroke-width="0.5" stroke-miterlimit="10"/>
<path d="M64.6599 157.11C64.6599 156.61 65.0599 156.21 65.5599 156.21C66.0499 156.21 66.4599 156.61 66.4599 157.11C66.4599 157.61 66.0599 158.01 65.5599 158.01C65.0599 158.01 64.6599 157.61 64.6599 157.11Z" fill="white" stroke="#13110C" stroke-width="0.5" stroke-miterlimit="10"/>
<path d="M69.0799 156.22C69.577 156.22 69.9799 155.817 69.9799 155.32C69.9799 154.823 69.577 154.42 69.0799 154.42C68.5829 154.42 68.1799 154.823 68.1799 155.32C68.1799 155.817 68.5829 156.22 69.0799 156.22Z" fill="white" stroke="#13110C" stroke-width="0.5" stroke-miterlimit="10"/>
<path d="M69.9801 152.76C70.4771 152.76 70.8801 152.357 70.8801 151.86C70.8801 151.363 70.4771 150.96 69.9801 150.96C69.483 150.96 69.0801 151.363 69.0801 151.86C69.0801 152.357 69.483 152.76 69.9801 152.76Z" fill="white" stroke="#13110C" stroke-width="0.5" stroke-miterlimit="10"/>
<path d="M70.2 149.25C70.6971 149.25 71.1 148.847 71.1 148.35C71.1 147.853 70.6971 147.45 70.2 147.45C69.703 147.45 69.3 147.853 69.3 148.35C69.3 148.847 69.703 149.25 70.2 149.25Z" fill="white" stroke="#13110C" stroke-width="0.5" stroke-miterlimit="10"/>
<path d="M70.2 145.91C70.6971 145.91 71.1 145.507 71.1 145.01C71.1 144.513 70.6971 144.11 70.2 144.11C69.703 144.11 69.3 144.513 69.3 145.01C69.3 145.507 69.703 145.91 70.2 145.91Z" fill="white" stroke="#13110C" stroke-width="0.5" stroke-miterlimit="10"/>
<path d="M70.2 141.94C70.6971 141.94 71.1 141.537 71.1 141.04C71.1 140.543 70.6971 140.14 70.2 140.14C69.703 140.14 69.3 140.543 69.3 141.04C69.3 141.537 69.703 141.94 70.2 141.94Z" fill="white" stroke="#13110C" stroke-width="0.5" stroke-miterlimit="10"/>
<path d="M71.75 134.04C71.1 134.69 72.88 130.98 72.88 130.98C76.41 130.27 86.44 133.99 86.44 133.99C96.75 138.09 105.22 137.08 105.22 137.08L106.79 139.66C106.79 139.66 98.28 139.12 93.77 138.37C93.77 138.37 86.56 137.97 80.19 135.27C80.2 135.27 71.99 133.8 71.75 134.04Z" fill="white" stroke="#13110C" stroke-miterlimit="10"/>
<path d="M99.8701 131.52C99.8701 131.06 100.24 130.69 100.7 130.69C101.16 130.69 101.53 131.06 101.53 131.52C101.53 131.98 101.16 132.35 100.7 132.35C100.24 132.35 99.8701 131.98 99.8701 131.52Z" fill="white" stroke="#13110C" stroke-width="0.5" stroke-miterlimit="10"/>
<path d="M96.1201 130.98C96.1201 130.52 96.4901 130.15 96.9501 130.15C97.4101 130.15 97.7801 130.52 97.7801 130.98C97.7801 131.44 97.4101 131.81 96.9501 131.81C96.4901 131.81 96.1201 131.44 96.1201 130.98Z" fill="white" stroke="#13110C" stroke-width="0.5" stroke-miterlimit="10"/>
<path d="M92.8799 130.47C92.8799 130.01 93.2499 129.64 93.7099 129.64C94.1699 129.64 94.5399 130.01 94.5399 130.47C94.5399 130.93 94.1699 131.3 93.7099 131.3C93.2499 131.3 92.8799 130.93 92.8799 130.47Z" fill="white" stroke="#13110C" stroke-width="0.5" stroke-miterlimit="10"/>
<path d="M89.5901 129.66C89.5901 129.2 89.9601 128.83 90.4201 128.83C90.8801 128.83 91.2501 129.2 91.2501 129.66C91.2501 130.12 90.8801 130.49 90.4201 130.49C89.9601 130.49 89.5901 130.12 89.5901 129.66Z" fill="white" stroke="#13110C" stroke-width="0.5" stroke-miterlimit="10"/>
<path d="M73.1199 128L72.8899 130.98C75.3899 130.41 87.6299 134.14 87.6299 134.14C88.3799 134.75 91.9699 135.79 91.9699 135.79C96.3099 137.44 105.23 137.08 105.23 137.08L103.98 134.16L86.7099 131.52C86.7099 131.52 74.1599 129 73.1199 128Z" fill="#13110C" stroke="#13110C" stroke-miterlimit="10"/>
<path d="M66.6699 143.32C66.6699 143.32 61.5699 147.53 56.6599 147.46L56.1799 158.01L66.6699 153.11V143.32Z" fill="#13110C" stroke="#13110C" stroke-miterlimit="10"/>
<path d="M64.8299 145.65C64.8299 145.65 65.5199 150.62 62.4899 151.1L57.4299 152.96" stroke="white" stroke-miterlimit="10"/>
<path d="M72.4501 127.79C72.4501 127.79 72.2501 141.19 64.4301 144.87C64.4301 144.87 59.2301 148.06 56.5901 147.08L56.7701 144.83C56.7701 144.83 68.9401 146.02 70.5201 129.02L70.4301 127.79H72.4501Z" fill="#FFEA24" stroke="#13110C" stroke-miterlimit="10"/>
<path d="M58.8001 128C58.8001 128 55.8201 148.22 55.8201 152.35C55.8201 152.35 55.5301 170.57 53.3501 172.06C53.3501 172.06 51.7901 171.65 51.3301 170.64C51.3301 170.64 53.8601 159.98 54.0701 151.87C54.0701 151.87 55.6101 130.64 56.5801 128.01H58.8001V128Z" fill="#FFEA24" stroke="#13110C" stroke-miterlimit="10"/>
<path d="M50.9301 169.96L46.8601 166.55L44.0601 164.2C44.0601 164.2 46.6901 159.83 46.4301 145.9C46.4301 145.9 47.1101 130.2 48.1301 127.78H56.6001L54.3901 147.95C54.3801 147.96 52.4801 171.26 50.9301 169.96Z" fill="#AFA3C7" stroke="#13120D" stroke-miterlimit="10"/>
<path d="M54.0801 128L53.5701 134.52H48.8501L48.7101 142.35H50.8101V136.84H52.7801V145.01H48.1201V152.75L50.3201 152.93V147.46L51.8201 147.26V155.18H48.1201V158.56H46.8701V163.24H49.4301V158.01H51.0301V166.52L46.8601 166.55" stroke="#13110C" stroke-miterlimit="10"/>
<path d="M52.12 127.79L51.82 131.81L49.72 131.3L50.32 127.79" stroke="#13110C" stroke-miterlimit="10"/>
<path d="M48.12 127.79H45.65C45.65 127.79 42.85 147.18 43.52 151.86C43.52 151.86 43.02 162.67 42.01 163.09L44.05 164.2C44.05 164.2 47.12 155.66 46.42 147.45C46.43 147.46 47.1 130.35 48.12 127.79Z" fill="#FFEA24" stroke="#13110C" stroke-miterlimit="10"/>
<path d="M45.0699 128.49L29.3799 144.62V152.53L35.6499 151.15C35.6499 151.15 39.6999 146.56 43.5099 147.08L45.6499 127.79H45.0699V128.49Z" fill="#E31013" stroke="#13110C" stroke-miterlimit="10"/>
<path d="M43.5299 127.79L29.3799 141.69V144.62L45.0699 127.79H43.5299Z" fill="#FFEA24" stroke="#13110C" stroke-miterlimit="10"/>
<path d="M30.95 132.92C30.95 132.02 31.68 131.3 32.57 131.3C33.4599 131.3 34.1899 132.03 34.1899 132.92C34.1899 133.82 33.47 134.54 32.57 134.54C31.67 134.54 30.95 133.82 30.95 132.92Z" fill="#FFEA24" stroke="#13110C" stroke-miterlimit="10"/>
<path d="M61.6599 129.66C65.5199 130.93 68.3199 127.79 68.3199 127.79H70.1999C70.1999 127.79 69.3799 134.92 61.4199 129.5" fill="#FFEA24"/>
<path d="M61.6599 129.66C65.5199 130.93 68.3199 127.79 68.3199 127.79H70.1999C70.1999 127.79 69.3799 134.92 61.4199 129.5" stroke="#13110C" stroke-miterlimit="10"/>
<path d="M61.17 131.53C61.17 131.53 65.99 135.13 64.52 135.94C64.52 135.94 63.13 136.9 60.48 133.9C60.48 133.9 58.26 134.31 60.83 137.11C63.4 139.9 65.43 140.41 67.45 138.03C67.45 138.03 71.08 133.16 61.41 131.37" fill="#FFEA24"/>
<path d="M61.17 131.53C61.17 131.53 65.99 135.13 64.52 135.94C64.52 135.94 63.13 136.9 60.48 133.9C60.48 133.9 58.26 134.31 60.83 137.11C63.4 139.9 65.43 140.41 67.45 138.03C67.45 138.03 71.08 133.16 61.41 131.37" stroke="#13110C" stroke-miterlimit="10"/>
<path d="M57.1799 139.66C56.8699 146.22 60.0199 143.32 60.0199 143.32C64.9299 140.89 58.8099 135.62 58.8099 135.62C58.8099 135.62 59.8999 140.8 58.8099 139.15C58.7999 139.14 57.4599 133.8 57.1799 139.66Z" fill="#FFEA24" stroke="#13110C" stroke-miterlimit="10"/>
<path d="M127.27 193.49C127.04 193.69 126.83 193.91 126.63 194.15L119.89 202.36L116.19 206.86C114.29 209.18 114.62 212.6 116.94 214.5L117.35 214.84C119.67 216.74 123.09 216.41 124.99 214.09L127.21 211.39L129.38 214.07C131.27 216.4 134.69 216.76 137.02 214.87L137.43 214.54C139.76 212.65 140.12 209.23 138.23 206.9L127.87 194.12C127.68 193.88 127.48 193.67 127.27 193.49Z" fill="#E30B13"/>
<path d="M160.56 206.24C160.38 206.39 160.22 206.56 160.06 206.75L154.82 213.14L151.94 216.64C150.46 218.44 150.72 221.11 152.52 222.59L152.84 222.85C154.64 224.33 157.3 224.07 158.79 222.26L160.52 220.16L162.21 222.24C163.68 224.05 166.34 224.33 168.15 222.86L168.47 222.6C170.28 221.13 170.56 218.47 169.09 216.66L161.03 206.72C160.88 206.55 160.73 206.39 160.56 206.24Z" fill="#E30B13"/>
<path d="M154.79 228.81C155.62 228.81 156.21 228.85 156.58 228.92C157 229.02 157.41 229.21 157.8 229.51C158.68 228.8 159.65 228.44 160.7 228.44C161.83 228.44 162.85 228.85 163.74 229.66C164.68 230.5 165.15 231.48 165.15 232.6V234.15H166.3V236.17C166.26 236.18 165.87 236.21 165.15 236.25V242.49C165.15 243.62 164.68 244.61 163.74 245.45C162.84 246.26 161.83 246.67 160.7 246.67C159.57 246.67 158.54 246.26 157.62 245.43C156.7 244.6 156.24 243.62 156.24 242.49V232.6C156.24 232.12 156.34 231.66 156.53 231.19C156.33 231.06 156.15 230.98 155.98 230.94H154.78V228.81H154.79ZM163 236.25C162.15 236.15 161.29 235.76 160.44 235.07C159.91 234.65 159.23 233.98 158.4 233.05V242.48C158.4 242.98 158.64 243.44 159.12 243.84C159.6 244.25 160.12 244.45 160.68 244.45C161.24 244.45 161.76 244.25 162.26 243.84C162.75 243.43 162.99 242.98 162.99 242.48V236.25H163ZM159.43 231.05L162.14 233.73C162.36 233.96 162.65 234.1 163 234.15V232.62C163 232.12 162.76 231.67 162.27 231.26C161.78 230.85 161.25 230.64 160.69 230.64C160.26 230.64 159.84 230.78 159.43 231.05Z" fill="#E30B13"/>
</svg>
