<svg width="180" height="254" viewBox="0 0 180 254" fill="none" xmlns="http://www.w3.org/2000/svg">
<rect x="0.5" y="0.5" width="179" height="253" rx="14.5" fill="white" stroke="#1D1D1B"/>
<path d="M150.64 125.61V85.33L112.99 63.54L98.87 51.46L77.64 57.32L64.29 71.89L37.8 98.37L28.77 120.19V125.61L89.7 125.53" fill="#211C4B"/>
<path d="M150.64 125.61V85.33L112.99 63.54L98.87 51.46L77.64 57.32L64.29 71.89L37.8 98.37L28.77 120.19V125.61L89.7 125.53" stroke="#13110C" stroke-width="0.5" stroke-miterlimit="10"/>
<path d="M150.64 85.8799V113.31C150.64 113.31 137.19 112.98 130.51 111.29C130.51 111.29 139.92 98.3499 144.39 82.1099L150.64 85.8799Z" fill="#13110C" stroke="#13110C" stroke-miterlimit="10"/>
<path d="M117.1 119.16L124.31 119.09C124.31 119.09 139.79 102.64 143.93 81.82L137.6 78C137.6 78 133.15 92.06 123.73 107.87L117.1 119.16Z" fill="#E31013" stroke="#13110C" stroke-miterlimit="10"/>
<path d="M104.56 119.09C87.1801 104.71 75.2901 99.7899 75.2901 99.7899C75.7401 95.1399 71.3301 87.8999 71.3301 87.8999C71.3301 87.8999 91.5601 93.7699 116.45 119.09H104.56Z" fill="#E31013" stroke="#13110C" stroke-miterlimit="10"/>
<path d="M58.1299 121.66L47.4299 110.83L33.1499 125.61L55.0999 125.53L58.1299 121.66Z" fill="white" stroke="#13110C" stroke-miterlimit="10"/>
<path d="M47.77 110.31L67.55 88.5801C67.55 88.5801 72.17 96.2501 71.64 102.53C71.64 102.53 71.67 108.1 67.8 112.63C67.8 112.63 63.7 117.15 58.13 121.66L47.77 110.31Z" fill="white" stroke="#13110C" stroke-miterlimit="10"/>
<path d="M130.08 73.4702L150.64 85.8802" stroke="#13110C" stroke-miterlimit="10"/>
<path d="M46.3099 73.4702H34.1399V86.1302H46.3099V73.4702Z" fill="#211C4B" stroke="#13110C" stroke-width="0.5" stroke-miterlimit="10"/>
<path d="M38.32 82.1099L37.8 85.1999C38.28 88.2399 41.93 86.9599 41.93 86.9599C42.93 86.6699 42.42 81.7999 42.42 81.7999C43.53 82.7699 46.16 82.3999 46.16 82.3999C47.63 82.6399 47.73 79.5499 47.73 79.5499C46.83 75.9399 41.88 77.2999 41.88 77.2999L42.02 76.8299C44.21 70.7899 39.37 71.2099 39.37 71.2099C35.45 71.1299 37.79 77.7099 37.79 77.7099C37.79 77.7099 32.75 75.7299 32.46 78.8299C32.46 78.8299 31.6 82.3499 34.74 82.5399L38.32 82.1099Z" fill="#FFEA24" stroke="#13110C" stroke-miterlimit="10"/>
<path d="M150.64 26.5898H28.77V224.46H150.64V26.5898Z" stroke="#13110C" stroke-miterlimit="10"/>
<path d="M16.12 40.4399L14.66 42.2199C13.41 43.7499 11.15 43.9699 9.61998 42.7199L9.34998 42.4999C7.81998 41.2499 7.59998 38.9899 8.84998 37.4599L11.29 34.4899L15.73 29.0799C15.86 28.9199 16 28.7799 16.15 28.6499C16.29 28.7699 16.42 28.9099 16.54 29.0599L23.37 37.4899C24.62 39.0299 24.38 41.2799 22.84 42.5299L22.57 42.7499C21.03 43.9999 18.78 43.7599 17.53 42.2199L16.12 40.4399L16.92 39.4999C16.92 39.4999 15.36 43.2499 13.02 45.4899H18.96C18.96 45.4899 16.07 42.5299 16.12 40.4399Z" fill="#13110C"/>
<path d="M16.12 40.4399L14.66 42.2199C13.41 43.7499 11.15 43.9699 9.61998 42.7199L9.34998 42.4999C7.81998 41.2499 7.59998 38.9899 8.84998 37.4599L11.29 34.4899L15.73 29.0799C15.86 28.9199 16 28.7799 16.15 28.6499C16.29 28.7699 16.42 28.9099 16.54 29.0599L23.37 37.4899C24.62 39.0299 24.38 41.2799 22.84 42.5299L22.57 42.7499C21.03 43.9999 18.78 43.7599 17.53 42.2199L16.12 40.4399ZM16.12 40.4399L16.92 39.4999C16.92 39.4999 15.36 43.2499 13.02 45.4899H18.96C18.96 45.4899 16.07 42.5299 16.12 40.4399Z" stroke="#13110C" stroke-miterlimit="10"/>
<path d="M161.49 213.19L162.95 211.41C164.2 209.88 166.46 209.66 167.99 210.91L168.26 211.13C169.79 212.38 170.01 214.64 168.76 216.17L166.32 219.14L161.88 224.55C161.75 224.71 161.61 224.85 161.46 224.98C161.32 224.86 161.19 224.72 161.07 224.57L154.24 216.14C152.99 214.6 153.23 212.35 154.77 211.1L155.04 210.88C156.58 209.63 158.83 209.87 160.08 211.41L161.49 213.19L160.69 214.13C160.69 214.13 162.25 210.38 164.59 208.14H158.65C158.65 208.15 161.54 211.11 161.49 213.19Z" fill="#13110C"/>
<path d="M161.49 213.19L162.95 211.41C164.2 209.88 166.46 209.66 167.99 210.91L168.26 211.13C169.79 212.38 170.01 214.64 168.76 216.17L166.32 219.14L161.88 224.55C161.75 224.71 161.61 224.85 161.46 224.98C161.32 224.86 161.19 224.72 161.07 224.57L154.24 216.14C152.99 214.6 153.23 212.35 154.77 211.1L155.04 210.88C156.58 209.63 158.83 209.87 160.08 211.41L161.49 213.19ZM161.49 213.19L160.69 214.13C160.69 214.13 162.25 210.38 164.59 208.14H158.65C158.65 208.15 161.54 211.11 161.49 213.19Z" stroke="#13110C" stroke-miterlimit="10"/>
<path d="M48.2299 54.2001L46.1399 56.7501C44.3499 58.9401 41.1199 59.2501 38.9299 57.4601L38.5399 57.1401C36.3499 55.3401 36.0399 52.1101 37.8299 49.9301L41.3199 45.6801L47.6799 37.9301C47.8699 37.7001 48.0699 37.4901 48.2899 37.3101C48.4899 37.4901 48.6799 37.6901 48.8499 37.9001L58.6299 49.9601C60.4099 52.1601 60.0799 55.3801 57.8799 57.1701L57.4899 57.4801C55.2899 59.2601 52.0699 58.9201 50.2799 56.7301L48.2299 54.2001L49.3699 52.8501C49.3699 52.8501 47.1399 58.2201 43.7999 61.4201H52.2899C52.2899 61.4201 48.1499 57.1901 48.2299 54.2001Z" fill="#13110C"/>
<path d="M48.2299 54.2001L46.1399 56.7501C44.3499 58.9401 41.1199 59.2501 38.9299 57.4601L38.5399 57.1401C36.3499 55.3401 36.0399 52.1101 37.8299 49.9301L41.3199 45.6801L47.6799 37.9301C47.8699 37.7001 48.0699 37.4901 48.2899 37.3101C48.4899 37.4901 48.6799 37.6901 48.8499 37.9001L58.6299 49.9601C60.4099 52.1601 60.0799 55.3801 57.8799 57.1701L57.4899 57.4801C55.2899 59.2601 52.0699 58.9201 50.2799 56.7301L48.2299 54.2001ZM48.2299 54.2001L49.3699 52.8501C49.3699 52.8501 47.1399 58.2201 43.7999 61.4201H52.2899C52.2899 61.4201 48.1499 57.1901 48.2299 54.2001Z" stroke="#13110C" stroke-miterlimit="10"/>
<path d="M132.42 195.5L134.51 192.95C136.3 190.76 139.53 190.45 141.72 192.24L142.11 192.56C144.3 194.36 144.61 197.59 142.82 199.77L139.33 204.02L132.97 211.77C132.78 212 132.58 212.21 132.36 212.39C132.16 212.21 131.97 212.01 131.8 211.8L122.02 199.74C120.24 197.54 120.57 194.32 122.77 192.53L123.16 192.22C125.36 190.44 128.58 190.78 130.37 192.97L132.42 195.5L131.28 196.85C131.28 196.85 133.51 191.48 136.85 188.28H128.36C128.36 188.28 132.5 192.51 132.42 195.5Z" fill="#13110C"/>
<path d="M132.42 195.5L134.51 192.95C136.3 190.76 139.53 190.45 141.72 192.24L142.11 192.56C144.3 194.36 144.61 197.59 142.82 199.77L139.33 204.02L132.97 211.77C132.78 212 132.58 212.21 132.36 212.39C132.16 212.21 131.97 212.01 131.8 211.8L122.02 199.74C120.24 197.54 120.57 194.32 122.77 192.53L123.16 192.22C125.36 190.44 128.58 190.78 130.37 192.97L132.42 195.5ZM132.42 195.5L131.28 196.85C131.28 196.85 133.51 191.48 136.85 188.28H128.36C128.36 188.28 132.5 192.51 132.42 195.5Z" stroke="#13110C" stroke-miterlimit="10"/>
<path d="M70.7599 59.3798H67.7699C71.3899 36.2698 65.4099 26.5898 65.4099 26.5898H91.5099C91.5099 26.5898 86.1599 39.8898 70.7599 59.3798Z" fill="#FFEA24" stroke="#13110C" stroke-miterlimit="10"/>
<path d="M70.76 59.3798H74.75C74.75 59.3798 86.44 45.5498 95.59 26.5898H91.51C91.51 26.5898 86.5 38.9598 70.76 59.3798Z" fill="#E31013" stroke="#13110C" stroke-miterlimit="10"/>
<path d="M69.1399 56.2999C69.1399 56.2999 77.3099 47.2999 77.6399 40.6299" stroke="#211C4B" stroke-miterlimit="10"/>
<path d="M80.97 36.46C80.97 36.46 84.97 33.13 86.14 28.29" stroke="#211C4B" stroke-miterlimit="10"/>
<path d="M69.97 51.46C69.97 51.46 73.47 48.34 75.3 42.98" stroke="#211C4B" stroke-miterlimit="10"/>
<path d="M80.1399 34.6299C80.1399 34.6299 83.1399 31.6699 83.5599 29.1299" stroke="#211C4B" stroke-miterlimit="10"/>
<path d="M79.1401 39.9598C79.8746 39.9598 80.4701 39.3643 80.4701 38.6298C80.4701 37.8953 79.8746 37.2998 79.1401 37.2998C78.4055 37.2998 77.8101 37.8953 77.8101 38.6298C77.8101 39.3643 78.4055 39.9598 79.1401 39.9598Z" fill="#211C4B" stroke="#211C4B" stroke-miterlimit="10"/>
<path d="M76.97 37.2202C76.6 37.6802 74.55 36.6602 72.4 34.9302C70.24 33.2002 68.8 31.4302 69.17 30.9702C69.54 30.5102 71.59 31.5302 73.74 33.2602C75.89 34.9802 77.34 36.7602 76.97 37.2202Z" fill="#211C4B"/>
<path d="M78.36 36.5C78.01 36.5 77.7 34.66 77.67 32.38C77.64 30.1 77.91 28.26 78.27 28.25C78.62 28.25 78.93 30.09 78.96 32.36C78.98 34.65 78.71 36.5 78.36 36.5Z" fill="#211C4B"/>
<path d="M70.0699 41.5601C69.8999 41.2501 71.1099 40.2801 72.7699 39.4001C74.4299 38.5201 75.8999 38.0601 76.0699 38.3701C76.2399 38.6801 75.0299 39.6501 73.3699 40.5301C71.7099 41.4101 70.2299 41.8701 70.0699 41.5601Z" fill="#211C4B"/>
<path d="M64.29 71.8898C70.92 73.2798 75.31 70.1898 75.31 70.1898C91.97 53.9298 104.27 26.5898 104.27 26.5898H95.6C95.6 26.5898 90.98 37.1298 79.15 53.7098L64.29 71.8898Z" fill="#13110C" stroke="#13110C" stroke-miterlimit="10"/>
<path d="M99.2999 26.5898C99.2999 26.5898 87.8499 51.0398 76.0799 65.0398C76.0799 65.0398 73.6399 67.4798 69.1399 66.4298" stroke="white" stroke-miterlimit="10"/>
<path d="M90.3501 51.4601C90.3501 51.4601 97.7201 63.4601 106.97 65.9601C106.97 65.9601 113.8 67.2901 118.64 54.2901C118.64 54.2901 121.97 46.7901 122.81 29.1201V26.5801H104.27C104.26 26.5901 99.2101 37.6501 90.3501 51.4601Z" fill="#FED68A" stroke="#13110C" stroke-miterlimit="10"/>
<path d="M100 35.0301C100 35.0301 108.93 34.9001 112.01 27.4001C112.12 27.1401 112.22 26.8701 112.31 26.6001H104.27L100 35.0301Z" fill="#AFA3C7" stroke="#13120D" stroke-width="0.5" stroke-miterlimit="10"/>
<path d="M122.27 36.4998C122.27 36.4998 112.83 34.6998 111.78 27.9098L112.31 26.5898H122.81C122.8 26.5898 122.4 35.2498 122.27 36.4998Z" fill="#AFA3C7" stroke="#13120D" stroke-width="0.5" stroke-miterlimit="10"/>
<path d="M101.89 33.5498C101.89 33.5498 107.97 31.8898 110.39 28.2598" stroke="#13110C" stroke-width="0.5" stroke-miterlimit="10"/>
<path d="M103.3 31.4198C103.3 31.4198 107.22 30.6698 108.97 27.8398" stroke="#13110C" stroke-width="0.5" stroke-miterlimit="10"/>
<path d="M103.8 29.63C103.8 29.63 106.47 28.84 107.22 27.71" stroke="#13110C" stroke-width="0.5" stroke-miterlimit="10"/>
<path d="M113.22 28.2598C113.22 28.2598 115.72 34.0098 121.39 35.0298" stroke="#13110C" stroke-width="0.5" stroke-miterlimit="10"/>
<path d="M115.22 28.2598C115.22 28.2598 116.55 32.2198 121.39 33.5498" stroke="#13110C" stroke-width="0.5" stroke-miterlimit="10"/>
<path d="M117.8 28.2998C117.8 28.2998 118.38 30.9098 121.05 31.6498" stroke="#13110C" stroke-width="0.5" stroke-miterlimit="10"/>
<path d="M119.43 28.2598C119.43 28.2598 120.14 30.1198 121.39 30.0898" stroke="#13110C" stroke-width="0.5" stroke-miterlimit="10"/>
<path d="M100.55 36.4999C100.55 36.4999 109.55 36.3799 110.38 36.8799L100.55 36.4999Z" fill="white"/>
<path d="M100.55 36.4999C100.55 36.4999 109.55 36.3799 110.38 36.8799" stroke="#13110C" stroke-miterlimit="10"/>
<path d="M121.39 38.2699C118.72 35.6599 113.89 37.3299 113.89 37.3299C113.89 37.3299 112.31 43.6299 113.89 46.2999C113.89 46.2999 117.47 52.4699 113.89 52.2199C113.89 52.2199 111.81 50.5499 111.31 51.4699C111.31 51.4699 106.73 53.2199 108.48 48.8099" stroke="#13110C" stroke-miterlimit="10"/>
<path d="M111.78 52.2202V53.9602" stroke="#13110C" stroke-miterlimit="10"/>
<path d="M105.51 58.8C105.51 58.8 110.13 57.88 113.89 58.8" stroke="#13110C" stroke-miterlimit="10"/>
<path d="M108.07 62.88L110.39 60.96H109.23L110.89 62.88" stroke="#13110C" stroke-miterlimit="10"/>
<path d="M108.97 39.9601C103.47 38.8801 99.3 41.6201 99.3 41.6201C99.3 41.6201 106.88 46.2101 108.97 41.1301V39.9601Z" stroke="#13110C" stroke-miterlimit="10"/>
<path d="M108.55 42.9902C108.55 42.9902 107.71 45.4102 104.26 46.6502" stroke="#13110C" stroke-miterlimit="10"/>
<path d="M113.89 44.5098C113.89 44.5098 116.22 47.0698 117.81 46.6398" stroke="#13110C" stroke-miterlimit="10"/>
<path d="M120.41 41.6498C116.85 45.3398 113.89 41.6098 113.89 41.6098C113.89 41.6098 115.72 39.4598 120.06 41.0398L120.41 41.6498Z" stroke="#13110C" stroke-miterlimit="10"/>
<path d="M107.22 41.1701C107.22 41.6201 106.4 41.9901 105.39 41.9901C104.38 41.9901 103.56 41.6201 103.56 41.1701C103.56 40.7201 104.38 40.3501 105.39 40.3501C106.4 40.3501 107.22 40.7201 107.22 41.1701Z" fill="#13110C" stroke="#13110C" stroke-miterlimit="10"/>
<path d="M118.06 41.6602C118.06 41.9202 117.65 42.1402 117.14 42.1402C116.63 42.1402 116.22 41.9302 116.22 41.6602C116.22 41.4002 116.63 41.1802 117.14 41.1802C117.65 41.1802 118.06 41.3902 118.06 41.6602Z" fill="#13110C" stroke="#13110C" stroke-miterlimit="10"/>
<path d="M83.6299 60.81C88.3399 61.84 98.9599 61.45 98.9599 61.45C98.9599 61.45 93.9899 57.2 90.3399 51.46C90.3499 51.46 83.8599 60.52 83.6299 60.81Z" fill="#AFA3C7" stroke="#13120D" stroke-width="0.5" stroke-miterlimit="10"/>
<path d="M85.5601 59.8301C85.5601 59.8301 90.9201 60.1701 96.0601 60.2101" stroke="#13110C" stroke-width="0.5" stroke-miterlimit="10"/>
<path d="M87.48 58.0298C87.48 58.0298 89.59 58.3398 94.03 58.3998" stroke="#13110C" stroke-width="0.5" stroke-miterlimit="10"/>
<path d="M88.8601 56.1099C88.8601 56.1099 90.1601 56.4199 92.6101 56.4899" stroke="#13110C" stroke-width="0.5" stroke-miterlimit="10"/>
<path d="M89.7 54.5L91.3 54.65" stroke="#13110C" stroke-width="0.5" stroke-miterlimit="10"/>
<path d="M133.49 75.2798C129.46 49.9698 122.41 35.0298 122.41 35.0298L121.71 41.1798C121.71 41.1798 129.11 62.2798 130.08 73.4798L133.49 75.2798Z" fill="#E31013" stroke="#13110C" stroke-miterlimit="10"/>
<path d="M121.71 41.1699C121.71 41.1699 120.04 56.5999 113 63.5399C113 63.5399 124.66 69.3599 130.09 73.4699C130.08 73.4699 128.59 61.1699 121.71 41.1699Z" fill="#13110C" stroke="#13110C" stroke-miterlimit="10"/>
<path d="M119.3 53.4399C119.3 53.4399 123.33 61.6499 124.31 69.0199L119.3 53.4399Z" fill="white"/>
<path d="M119.3 53.4399C119.3 53.4399 123.33 61.6499 124.31 69.0199" stroke="white" stroke-miterlimit="10"/>
<path d="M147.35 44.5099C148.58 49.9399 143.84 49.4299 143.84 49.4299C143.84 49.4299 138.52 49.5899 140.1 44.5099L143.68 30.8999L147.35 44.5099Z" fill="#FFEA24" stroke="#13110C" stroke-miterlimit="10"/>
<path d="M143.68 41.1802L142.26 53.9602L143.68 57.6802L145.42 53.9602L143.68 41.1802Z" fill="#FFEA24" stroke="#13110C" stroke-miterlimit="10"/>
<path d="M143.84 88.6299H142.26C137.63 87.9599 139.39 78.4599 139.39 78.4599C139.81 76.7099 141.31 63.6299 141.31 63.6299C141.81 54.6299 138.81 50.6299 138.81 50.6299L142.27 53.9699L143.69 57.6799L145.43 53.9699L148.32 51.4699C144.82 60.2199 146.57 69.0299 146.57 69.0299C148.49 78.5899 148.32 84.4699 148.32 84.4699C148.32 87.7199 145.43 88.6399 145.43 88.6399H143.84" fill="#FFEA24"/>
<path d="M143.84 88.6299H142.26C137.63 87.9599 139.39 78.4599 139.39 78.4599C139.81 76.7099 141.31 63.6299 141.31 63.6299C141.81 54.6299 138.81 50.6299 138.81 50.6299L142.27 53.9699L143.69 57.6799L145.43 53.9699L148.32 51.4699C144.82 60.2199 146.57 69.0299 146.57 69.0299C148.49 78.5899 148.32 84.4699 148.32 84.4699C148.32 87.7199 145.43 88.6399 145.43 88.6399H143.84" stroke="#13110C" stroke-miterlimit="10"/>
<path d="M147.72 93.46C147.72 95.76 145.85 97.63 143.55 97.63C143.35 97.63 143.16 97.62 142.97 97.59C140.94 97.31 139.39 95.57 139.39 93.46C139.39 91.16 141.26 89.29 143.56 89.29C145.86 89.29 147.72 91.16 147.72 93.46Z" fill="#FFEA24" stroke="#13110C" stroke-miterlimit="10"/>
<path d="M147.05 104.46C147.88 98.04 144.13 97.96 144.13 97.96H143.05C143.05 97.96 139.88 98.96 140.05 102.54L140.63 112.62H146.8L147.05 104.46Z" fill="#FFEA24" stroke="#13110C" stroke-miterlimit="10"/>
<path d="M147.26 93.3902C147.26 95.1302 146.26 96.5402 145.02 96.5402C143.78 96.5402 142.78 95.1302 142.78 93.3902C142.78 91.6502 143.78 90.2402 145.02 90.2402C146.26 90.2402 147.26 91.6502 147.26 93.3902Z" fill="#BBB32E"/>
<path d="M146.81 56.4902C146.81 56.4902 146.61 56.7502 146.3 57.3202C146.17 57.5602 146.03 57.8502 145.87 58.2102C144.75 60.7502 143.12 66.3402 143.83 76.4202C143.83 76.4202 142.63 91.8202 147.17 87.0102C147.17 87.0102 148.72 86.5002 146.89 73.4802C146.89 73.4802 146.54 72.0202 146.71 72.7502C146.71 72.7502 145.72 59.8402 146.17 57.5702" fill="#BBB32E"/>
<path d="M146.37 112.3H143.55C143.55 112.3 143.04 100.29 144.96 100.4C144.96 100.4 146.11 99.7198 146.57 101.01C147.03 102.3 146.81 105.56 146.37 111.86" fill="#BBB32E"/>
<path d="M42.3 79.5498C42.3 80.7898 41.29 81.7998 40.05 81.7998C38.81 81.7998 37.8 80.7898 37.8 79.5498C37.8 78.9898 38 78.4798 38.34 78.0898C38.75 77.6098 39.36 77.2998 40.05 77.2998C41.3 77.2998 42.3 78.2998 42.3 79.5498Z" fill="white" stroke="#13110C" stroke-miterlimit="10"/>
<path d="M48.91 98.7101C48.76 97.0201 48.31 94.8701 47.79 92.8401C46.9 89.3301 45.82 86.1401 45.82 86.1401H43.7C43.7 86.1401 46.7899 96.5901 47.0299 98.7201H48.91V98.7101Z" fill="#BBB32E" stroke="#13110C" stroke-miterlimit="10"/>
<path d="M48.02 92.42C48.02 92.42 47.98 87.5 55.35 86.13C55.35 86.13 58.4 85.76 55.55 89.45C55.55 89.45 53.03 94.34 49.62 93.94C49.63 93.94 48.19 94.1 48.02 92.42Z" fill="#BBB32E" stroke="#13110C" stroke-miterlimit="10"/>
<path d="M44.9401 92.42C44.9401 92.42 40.8901 88.53 35.3201 92.1C35.3201 92.1 35.4801 94.18 38.2501 94.7C38.2501 94.7 44.4401 96.3 44.9401 94.26C44.9401 94.26 45.5801 94.1 44.9401 92.42Z" fill="#BBB32E" stroke="#13110C" stroke-miterlimit="10"/>
<path d="M37.53 92.4199C37.53 92.4199 41.38 93.6199 43.7 93.1799" stroke="#13110C" stroke-miterlimit="10"/>
<path d="M49.51 92.42C49.51 92.42 52.88 88.29 55.12 87.73" stroke="#13110C" stroke-miterlimit="10"/>
<path d="M28.77 120.19C30.54 117.52 37.52 109.88 37.52 109.88V98.7102C33.99 97.2102 28.77 87.9302 28.77 87.9302V91.9402C28.77 91.9402 32.06 97.8602 35.32 100.59V102.05L31.45 104.6L35.32 107.78V108.93C35.32 108.93 30.8 114.28 28.77 117.65V120.19Z" fill="#FFEA24" stroke="#13110C" stroke-miterlimit="10"/>
<path d="M37.8 98.37C37.8 98.37 39.66 97.03 41.18 98.37V110.4C39.97 111.99 38.0601 110.4 38.0601 110.4L37.8 98.37Z" fill="#FFEA24" stroke="#13110C" stroke-miterlimit="10"/>
<path d="M28.77 91.9399V117.65L35.32 108.93V107.78L31.45 104.6L35.32 102.05V100.59C35.32 100.59 30.75 96.2399 28.77 91.9399Z" fill="#E31518" stroke="#13110C" stroke-miterlimit="10"/>
<path d="M56.9299 109.21C57.8299 103.4 53.2399 100.32 53.2399 100.32C47.4699 97.53 41.1899 99.67 41.1899 99.67V109.36C41.1899 109.36 44.8299 109.98 47.2399 115.39C47.2399 115.39 49.1699 116.58 49.3199 114.5C49.3199 114.5 51.8499 115.66 51.9099 113.55L51.8199 112.81C51.8199 112.81 54.3199 114.06 54.4099 111.92C54.4099 111.92 56.0699 111.77 55.5399 110.26C55.5299 110.25 56.8199 109.92 56.9299 109.21Z" fill="#FED68A" stroke="#13110C" stroke-miterlimit="10"/>
<path d="M49.32 114.5C49.29 113.61 47.78 110.31 47.78 110.31" stroke="#13110C" stroke-miterlimit="10"/>
<path d="M50.45 108.58C50.45 108.58 52.3299 111.53 52.6199 113.08" stroke="#13110C" stroke-miterlimit="10"/>
<path d="M53.75 106C53.75 106 55.46 109.42 55.53 110.25" stroke="#13110C" stroke-miterlimit="10"/>
<path d="M74.66 95.3699C76.98 103.33 72.26 111.83 72.26 111.83C70.79 114.23 58.58 125.57 58.58 125.57L55.24 125.41L64.45 116.08C67.46 114.23 70.56 108.12 70.56 108.12C73.96 98.9899 68.32 90.0399 68.32 90.0399C65.85 84.5499 58.35 78.6099 58.35 78.6099L61.36 75.6699C61.36 75.6699 70.74 84.7599 72.95 91.3499L74.66 95.3699Z" fill="#FFEA24" stroke="#13110C" stroke-miterlimit="10"/>
<path d="M110.05 112.63C86.5899 91.5099 71.3299 87.9099 71.3299 87.9099L68.9199 84.3599C68.9199 84.3599 94.3799 92.9599 109.65 109.96L110.05 112.63Z" fill="#FFEA24" stroke="#13110C" stroke-miterlimit="10"/>
<path d="M109.48 102.5C109.5 101.75 110.06 100.62 110.06 100.62C108.48 98.4501 95.59 84.3501 95.59 84.3501C93.12 81.0801 77.6 67.8501 77.6 67.8501L75.7 69.8001C75.7 69.8001 85.75 77.5901 92.61 84.3601C92.61 84.3601 105.98 98.7901 109.32 103.12" fill="#FFEA24"/>
<path d="M109.48 102.5C109.5 101.75 110.06 100.62 110.06 100.62C108.48 98.4501 95.59 84.3501 95.59 84.3501C93.12 81.0801 77.6 67.8501 77.6 67.8501L75.7 69.8001C75.7 69.8001 85.75 77.5901 92.61 84.3601C92.61 84.3601 105.98 98.7901 109.32 103.12" stroke="#13110C" stroke-miterlimit="10"/>
<path d="M119.3 99.7999C122.3 92.7199 125.85 70.6399 125.85 70.6399L123.83 69.4199C123.83 69.4199 120.64 91.7099 118.05 98.7999L119.3 99.7999Z" fill="#FFEA24" stroke="#13110C" stroke-miterlimit="10"/>
<path d="M123.72 107.88C131.3 96.63 137.59 78.01 137.59 78.01L135.1 76.5C135.1 76.5 130.06 93.05 122.8 105.3L123.72 107.88Z" fill="#FFEA24" stroke="#13110C" stroke-miterlimit="10"/>
<path d="M122.79 106.49C124.36 112.18 122.68 117.61 119.04 118.61C115.4 119.61 111.18 115.82 109.61 110.12C108.04 104.43 109.72 98.9999 113.35 97.9999C116.99 97.0099 121.22 100.8 122.79 106.49Z" fill="#FFEA24" stroke="#13110C" stroke-miterlimit="10"/>
<path d="M120.12 107.76C120.94 111.34 119.96 114.61 117.93 115.08C115.9 115.54 113.6 113.02 112.78 109.44C111.96 105.86 112.94 102.59 114.97 102.13C117 101.66 119.31 104.18 120.12 107.76Z" fill="#E31013" stroke="#13110C" stroke-miterlimit="10"/>
<path d="M114.05 102.3L111.79 98.8101" stroke="#13110C" stroke-miterlimit="10"/>
<path d="M116.2 102.19L116.45 98.23" stroke="#13110C" stroke-miterlimit="10"/>
<path d="M118.05 103.48L119.71 100.62" stroke="#13110C" stroke-miterlimit="10"/>
<path d="M119.51 105.86L122.14 104.59" stroke="#13110C" stroke-miterlimit="10"/>
<path d="M120.28 108.6H123.23" stroke="#13110C" stroke-miterlimit="10"/>
<path d="M120.28 111.77L123.16 113.13" stroke="#13110C" stroke-miterlimit="10"/>
<path d="M119.3 114.17L121.54 116.91" stroke="#13110C" stroke-miterlimit="10"/>
<path d="M117.93 115.07L118.05 118.76" stroke="#13110C" stroke-miterlimit="10"/>
<path d="M115.6 114.41L114.05 117.3" stroke="#13110C" stroke-miterlimit="10"/>
<path d="M113.95 112.45L111.34 114.17" stroke="#13110C" stroke-miterlimit="10"/>
<path d="M112.78 109.44L109.66 109.8" stroke="#13110C" stroke-miterlimit="10"/>
<path d="M112.49 106.94L109.03 106.26" stroke="#13110C" stroke-miterlimit="10"/>
<path d="M112.92 104.29L109.66 101.94" stroke="#13110C" stroke-miterlimit="10"/>
<path d="M66 91.1299H68.35" stroke="#211C4B" stroke-width="0.5" stroke-miterlimit="10"/>
<path d="M64.96 92.4199H68.92" stroke="#211C4B" stroke-width="0.5" stroke-miterlimit="10"/>
<path d="M63.3101 94.2202H69.4701" stroke="#211C4B" stroke-width="0.5" stroke-miterlimit="10"/>
<path d="M62.2 95.8301L69.87 95.9001" stroke="#211C4B" stroke-width="0.5" stroke-miterlimit="10"/>
<path d="M60.6799 97.3501L70.2099 97.4201" stroke="#211C4B" stroke-width="0.5" stroke-miterlimit="10"/>
<path d="M59.24 98.8799H70.83" stroke="#211C4B" stroke-width="0.5" stroke-miterlimit="10"/>
<path d="M58.1299 100.62H70.8299" stroke="#211C4B" stroke-width="0.5" stroke-miterlimit="10"/>
<path d="M56.77 102.04L70.83 102.11" stroke="#211C4B" stroke-width="0.5" stroke-miterlimit="10"/>
<path d="M57.04 103.63H70.83" stroke="#211C4B" stroke-width="0.5" stroke-miterlimit="10"/>
<path d="M57.6499 105.12H70.2099" stroke="#211C4B" stroke-width="0.5" stroke-miterlimit="10"/>
<path d="M58.1299 106.6L70.2099 106.53" stroke="#211C4B" stroke-width="0.5" stroke-miterlimit="10"/>
<path d="M58.1299 108.12H69.4699" stroke="#211C4B" stroke-width="0.5" stroke-miterlimit="10"/>
<path d="M58.1299 109.71H68.6199" stroke="#211C4B" stroke-width="0.5" stroke-miterlimit="10"/>
<path d="M56.77 111.57L67.52 111.64" stroke="#211C4B" stroke-width="0.5" stroke-miterlimit="10"/>
<path d="M55.1201 113.09H66.0001" stroke="#211C4B" stroke-width="0.5" stroke-miterlimit="10"/>
<path d="M53.3701 114.5H64.4801" stroke="#211C4B" stroke-width="0.5" stroke-miterlimit="10"/>
<path d="M54.6399 115.99L62.9599 115.73" stroke="#211C4B" stroke-width="0.5" stroke-miterlimit="10"/>
<path d="M55.53 117.65H61.24" stroke="#211C4B" stroke-width="0.5" stroke-miterlimit="10"/>
<path d="M57.04 119.09L59.73 119.16" stroke="#211C4B" stroke-width="0.5" stroke-miterlimit="10"/>
<path d="M40.6101 123.99V121.37C40.6101 121.37 44.9601 121.8 48.5401 117.37L48.9001 117.92C48.9101 117.92 44.7601 124.62 40.6101 123.99Z" fill="#211C4B" stroke="#13110C" stroke-width="0.5" stroke-miterlimit="10"/>
<path d="M46.95 125.61C46.95 125.61 48.95 121.63 51.99 120.19L52.6199 121.3C52.6199 121.3 48.83 123.4 48.54 125.53L46.95 125.61Z" fill="#211C4B" stroke="#13110C" stroke-width="0.5" stroke-miterlimit="10"/>
<path d="M42.74 125.57L45.22 125.61L50.45 118.82L42.74 125.57Z" fill="#211C4B" stroke="#13110C" stroke-width="0.5" stroke-miterlimit="10"/>
<path d="M46.3 117.37C44.44 116.92 44.76 118.23 44.76 118.23L50.06 124.04C50.06 124.04 51.5 124.14 51.54 123.45C51.58 122.76 46.3 117.37 46.3 117.37Z" fill="#211C4B" stroke="#13110C" stroke-width="0.5" stroke-miterlimit="10"/>
<path d="M66.94 78.5399C66.94 78.5399 64.34 77.6399 66 75.5199C66 75.5199 68.32 73.3999 70.83 77.2799C70.83 77.2799 72.15 81.6999 75.7 81.9699C75.7 81.9699 81.96 81.7499 83.23 82.6499C83.23 82.6499 85.44 84.7299 84.99 86.9399C84.99 86.9399 89.68 85.4999 91.58 89.5999C91.58 89.5999 93.34 94.8799 94.56 95.1999C94.56 95.1999 97.27 96.8499 98.85 94.2199C98.85 94.2199 99.35 90.7799 95.69 91.7699" stroke="white" stroke-miterlimit="10"/>
<path d="M80.3 77.9598C80.7473 77.9598 81.11 77.5972 81.11 77.1498C81.11 76.7025 80.7473 76.3398 80.3 76.3398C79.8526 76.3398 79.49 76.7025 79.49 77.1498C79.49 77.5972 79.8526 77.9598 80.3 77.9598Z" fill="white" stroke="white" stroke-miterlimit="10"/>
<path d="M82.01 86.44C82.01 86.94 81.61 87.34 81.11 87.34C80.61 87.34 80.21 86.94 80.21 86.44C80.21 85.94 80.61 85.54 81.11 85.54C81.61 85.54 82.01 85.95 82.01 86.44Z" fill="white" stroke="white" stroke-miterlimit="10"/>
<path d="M89.3201 90.9098C89.3201 91.3798 88.9401 91.7698 88.4601 91.7698C87.9901 91.7698 87.6001 91.3898 87.6001 90.9098C87.6001 90.4398 87.9801 90.0498 88.4601 90.0498C88.9401 90.0498 89.3201 90.4398 89.3201 90.9098Z" fill="white" stroke="white" stroke-miterlimit="10"/>
<path d="M88.51 84.1402C88.51 84.6402 88.11 85.0402 87.61 85.0402C87.11 85.0402 86.71 84.6402 86.71 84.1402C86.71 83.6402 87.11 83.2402 87.61 83.2402C88.11 83.2402 88.51 83.6402 88.51 84.1402Z" fill="white" stroke="white" stroke-miterlimit="10"/>
<path d="M95.28 88.93C95.28 89.43 94.88 89.83 94.38 89.83C93.88 89.83 93.48 89.43 93.48 88.93C93.48 88.43 93.88 88.03 94.38 88.03C94.88 88.02 95.28 88.43 95.28 88.93Z" fill="white" stroke="white" stroke-miterlimit="10"/>
<path d="M71.25 78.3298C71.25 78.3298 72.31 73.2698 74.52 74.1698C74.52 74.1698 77.95 74.9398 77 77.4598C77 77.4598 76.14 79.1698 74.97 77.9598" stroke="white" stroke-miterlimit="10"/>
<path d="M127.6 73.7402C127.6 73.7402 125.77 75.9602 128.63 76.8002C128.63 76.8002 132.22 77.2202 131.48 80.8202C131.48 80.8202 127.31 85.0502 126.62 86.5802C126.62 86.5802 127.73 89.1702 125.85 90.7002C125.85 90.7002 123.02 92.5002 124.87 95.9802C124.87 95.9802 125.01 101.83 121.53 98.4802" stroke="white" stroke-miterlimit="10"/>
<path d="M128.36 80.7201C128.36 80.7201 125.29 79.0801 128.62 76.8101" stroke="white" stroke-miterlimit="10"/>
<path d="M126.3 82.5701C126.3 82.9801 125.97 83.3101 125.56 83.3101C125.15 83.3101 124.82 82.9801 124.82 82.5701C124.82 82.1601 125.15 81.8301 125.56 81.8301C125.97 81.8301 126.3 82.1601 126.3 82.5701Z" fill="white" stroke="white" stroke-miterlimit="10"/>
<path d="M130.08 87.0598C130.08 87.4498 129.76 87.7698 129.37 87.7698C128.98 87.7698 128.66 87.4498 128.66 87.0598C128.66 86.6698 128.98 86.3498 129.37 86.3498C129.76 86.3398 130.08 86.6598 130.08 87.0598Z" fill="white" stroke="white" stroke-miterlimit="10"/>
<path d="M127.76 93.1402C127.76 93.5202 127.45 93.8302 127.07 93.8302C126.69 93.8302 126.38 93.5202 126.38 93.1402C126.38 92.7602 126.69 92.4502 127.07 92.4502C127.45 92.4502 127.76 92.7602 127.76 93.1402Z" fill="white" stroke="white" stroke-miterlimit="10"/>
<path d="M123.06 95.25C123.06 95.5 122.85 95.71 122.6 95.71C122.35 95.71 122.14 95.5 122.14 95.25C122.14 95 122.35 94.79 122.6 94.79C122.85 94.79 123.06 94.99 123.06 95.25Z" fill="white" stroke="white" stroke-miterlimit="10"/>
<path d="M81.1101 66.7H84.2201L82.6601 64.21L81.1101 66.7Z" fill="#FFEA24"/>
<path d="M90.3499 64.9302L88.1299 68.4602H92.5599" fill="#FFEA24"/>
<path d="M99.1501 65.23L97.1201 68.46H101.18" fill="#FFEA24"/>
<path d="M105.99 66.6099L104.44 69.0899H107.55" fill="#FFEA24"/>
<path d="M113.61 65.6201L111.58 68.8601H115.64" fill="#FFEA24"/>
<path d="M88.47 71.0498L95.28 72.7098L91.51 74.4598L91.87 72.7498L88.47 71.0498Z" fill="#FFEA24"/>
<path d="M93.48 76.23L99.46 77.69L96.15 79.23L96.47 77.73L93.48 76.23Z" fill="#FFEA24"/>
<path d="M97.1799 80.6499L103.01 82.0699L99.7799 83.5699L100.09 82.1099L97.1799 80.6499Z" fill="#FFEA24"/>
<path d="M101.46 85.0698L106.58 86.3198L103.74 87.6398L104.02 86.3598L101.46 85.0698Z" fill="#FFEA24"/>
<path d="M104.56 88.8198L108.59 89.7998L106.36 90.8398L106.58 89.8298L104.56 88.8198Z" fill="#FFEA24"/>
<path d="M107.41 92.1899L109.78 92.7699L108.46 93.3799L108.59 92.7799L107.41 92.1899Z" fill="#FFEA24"/>
<path d="M119.57 69.02L115.03 74.37L119.11 73.57L117.81 72.4L119.57 69.02Z" fill="#FFEA24"/>
<path d="M119.62 75.3799L115.64 80.0799L119.22 79.3699L118.08 78.3499L119.62 75.3799Z" fill="#FFEA24"/>
<path d="M118.98 81.3799L115.62 85.3499L118.65 84.7599L117.68 83.8899L118.98 81.3799Z" fill="#FFEA24"/>
<path d="M117.63 87.1899L115.28 89.9599L117.39 89.5499L116.72 88.9499L117.63 87.1899Z" fill="#FFEA24"/>
<path d="M117.1 91.2202L115.46 93.1502L116.93 92.8602L116.46 92.4402L117.1 91.2202Z" fill="#FFEA24"/>
<path d="M105.51 70.21L99.46 73.13L106.58 74.06L104.56 72.39L105.51 70.21Z" fill="#FFEA24"/>
<path d="M106.58 70.21L112.64 71.05L108.07 74.06L108.59 71.7L106.58 70.21Z" fill="#FFEA24"/>
<path d="M107.67 75.3701L103.14 77.5501L108.46 78.2501L106.96 77.0001L107.67 75.3701Z" fill="#FFEA24"/>
<path d="M108.46 75.3701L113 75.9901L109.58 78.2501L109.97 76.4801L108.46 75.3701Z" fill="#FFEA24"/>
<path d="M109.44 80.1699L105.68 81.9899L110.1 82.5599L108.85 81.5199L109.44 80.1699Z" fill="#FFEA24"/>
<path d="M110.1 80.1699L113.88 80.6899L111.03 82.5599L111.36 81.0999L110.1 80.1699Z" fill="#FFEA24"/>
<path d="M111.08 84.3999L108.16 85.8099L111.59 86.2499L110.62 85.4499L111.08 84.3999Z" fill="#FFEA24"/>
<path d="M111.59 84.3999L114.52 84.7999L112.31 86.2499L112.56 85.1199L111.59 84.3999Z" fill="#FFEA24"/>
<path d="M111.6 88.1099L109.37 89.1799L111.99 89.5199L111.24 88.9099L111.6 88.1099Z" fill="#FFEA24"/>
<path d="M111.99 88.1099L114.21 88.4199L112.53 89.5199L112.72 88.6599L111.99 88.1099Z" fill="#FFEA24"/>
<path d="M112.37 91.3398L111.02 91.9898L112.61 92.1998L112.16 91.8298L112.37 91.3398Z" fill="#FFEA24"/>
<path d="M112.61 91.3398L113.97 91.5298L112.95 92.1998L113.06 91.6698L112.61 91.3398Z" fill="#FFEA24"/>
<path d="M113.18 93.8301L111.97 94.4201L113.39 94.6001L112.99 94.2701L113.18 93.8301Z" fill="#FFEA24"/>
<path d="M113.39 93.8301L114.61 94.0001L113.69 94.6001L113.8 94.1301L113.39 93.8301Z" fill="#FFEA24"/>
<path d="M79.6599 97.96C79.6599 97.96 80.5699 94.12 83.2999 97.35C83.2999 97.35 86.7899 101.59 88.4599 102.04C88.4599 102.04 89.9599 105.38 95.2699 105.41C95.8599 105.41 96.4899 105.38 97.1699 105.29C97.1699 105.29 102.17 107.07 105.67 113.08C105.67 113.08 110.55 117.69 114.51 119.16" stroke="#13110C" stroke-miterlimit="10"/>
<path d="M98.87 108.31C98.87 108.31 95.03 112.95 95.28 105.41" stroke="#13110C" stroke-miterlimit="10"/>
<path d="M98.4199 109.54C97.8199 109.9 97.2199 109.99 97.0699 109.74C96.9199 109.49 97.2799 109 97.8799 108.64C98.4799 108.28 99.0799 108.19 99.2299 108.44C99.3799 108.69 99.0099 109.18 98.4199 109.54Z" fill="#13110C" stroke="#13110C" stroke-miterlimit="10"/>
<path d="M90.7299 101.61C89.9799 102.39 89.1199 102.77 88.7899 102.46C88.4599 102.15 88.8099 101.27 89.5499 100.49C90.2999 99.7102 91.1599 99.3302 91.4899 99.6402C91.8199 99.9502 91.4699 100.83 90.7299 101.61Z" fill="#13110C" stroke="#13110C" stroke-miterlimit="10"/>
<path d="M105.08 112.12C105.08 112.12 100.67 113.42 102.97 114.79" stroke="#13110C" stroke-miterlimit="10"/>
<path d="M102.9 115.39C102.55 115.06 102.38 114.68 102.51 114.53C102.65 114.38 103.04 114.53 103.39 114.86C103.74 115.19 103.91 115.57 103.77 115.72C103.64 115.87 103.25 115.72 102.9 115.39Z" fill="#13110C" stroke="#13110C" stroke-miterlimit="10"/>
<path d="M120.28 118.78C120.28 118.78 127.17 115.17 127.85 109.44C127.85 109.44 128.88 99.94 131.58 98.88C131.58 98.88 138.01 96.94 137.11 93.15C137.11 93.15 136.06 86.14 139.39 86.44" stroke="#13110C" stroke-miterlimit="10"/>
<path d="M135.41 94.5998C136.04 94.5998 136.55 94.0894 136.55 93.4598C136.55 92.8302 136.04 92.3198 135.41 92.3198C134.78 92.3198 134.27 92.8302 134.27 93.4598C134.27 94.0894 134.78 94.5998 135.41 94.5998Z" fill="#13110C" stroke="#13110C" stroke-miterlimit="10"/>
<path d="M134.42 102.19C134.42 102.7 134 103.12 133.49 103.12C132.98 103.12 132.56 102.7 132.56 102.19C132.56 101.68 132.98 101.26 133.49 101.26C134 101.26 134.42 101.67 134.42 102.19Z" fill="#13110C" stroke="#13110C" stroke-miterlimit="10"/>
<path d="M131.02 106.94C131.02 107.46 130.6 107.88 130.08 107.88C129.56 107.88 129.14 107.46 129.14 106.94C129.14 106.42 129.56 106 130.08 106C130.6 106 131.02 106.42 131.02 106.94Z" fill="#13110C" stroke="#13110C" stroke-miterlimit="10"/>
<path d="M127.41 108.6C127.41 109.21 126.91 109.71 126.3 109.71C125.69 109.71 125.19 109.21 125.19 108.6C125.19 107.99 125.69 107.49 126.3 107.49C126.91 107.49 127.41 107.99 127.41 108.6Z" fill="#13110C" stroke="#13110C" stroke-miterlimit="10"/>
<path d="M133.22 98.23C133.22 98.23 134.95 100.67 133.49 102.19" stroke="#13110C" stroke-miterlimit="10"/>
<path d="M134.42 111.6L139.39 103.63" stroke="white" stroke-miterlimit="10"/>
<path d="M118.88 125.53L124.3 119.1C127.8 114.95 130.5 111.29 130.5 111.29C130.5 111.29 140.38 113.47 150.63 113.31V116.92C150.63 116.92 136.15 116.96 131.8 115.08L123.37 125.53H118.88Z" fill="#FFEA24" stroke="#13110C" stroke-miterlimit="10"/>
<path d="M89.7 125.53L150.64 125.61" stroke="#13110C" stroke-miterlimit="10"/>
<path d="M123.38 125.53L129.41 125.56L143.93 125.62L150.64 118.58V116.92C150.64 116.92 138.81 117.23 131.81 115.08L123.38 125.53Z" fill="white" stroke="#13110C" stroke-miterlimit="10"/>
<path d="M132.14 125.55C133.34 124.25 133.27 121.46 133.27 121.46H131.3C131.3 121.46 131.37 124.77 130.87 125.55H132.14Z" fill="#211C4B" stroke="#13110C" stroke-width="0.5" stroke-miterlimit="10"/>
<path d="M134.65 125.39L137.04 121.09L140.31 120.5L140.03 123.66L136.4 125.41L134.65 125.39Z" fill="#211C4B" stroke="#13110C" stroke-width="0.5" stroke-miterlimit="10"/>
<path d="M75.56 99.9102C85.61 104.36 99.9 115.35 99.9 115.35H69.47C69.47 115.35 75.03 110.17 75.56 99.9102Z" fill="#13110C" stroke="#13110C" stroke-miterlimit="10"/>
<path d="M75.7 113.09L78.57 104.06L92.57 113.09H75.7Z" stroke="white" stroke-miterlimit="10"/>
<path d="M78.6201 111.1L79.9001 107.07L86.1401 111.1H78.6201Z" stroke="white" stroke-miterlimit="10"/>
<path d="M68.97 115.54L65.73 118.76L104.56 119.09L100.13 115.54H68.97Z" fill="#FFEA24" stroke="#13110C" stroke-miterlimit="10"/>
<path d="M65.73 118.76L62.96 121.44L121.75 121.66L124.31 119.09L65.73 118.76Z" fill="#E31013" stroke="#13110C" stroke-miterlimit="10"/>
<path d="M62.9601 121.44L58.5801 125.57H61.2401L118.88 125.53L121.75 121.66L62.9601 121.44Z" fill="#13110C" stroke="#13110C" stroke-miterlimit="10"/>
<path d="M67.5199 125.53L64.5199 122.9L62.1499 125.53H67.5199Z" fill="white" stroke="white" stroke-width="0.2" stroke-miterlimit="10"/>
<path d="M75.7001 125.53L72.7101 122.9L70.3301 125.53H75.7001Z" fill="white" stroke="white" stroke-width="0.2" stroke-miterlimit="10"/>
<path d="M84.14 125.35L81.14 122.72L78.77 125.35H84.14Z" fill="white" stroke="white" stroke-width="0.2" stroke-miterlimit="10"/>
<path d="M92.5199 125.44L89.5299 122.81L87.1499 125.44H92.5199Z" fill="white" stroke="white" stroke-width="0.2" stroke-miterlimit="10"/>
<path d="M100.71 125.44L97.7101 122.81L95.3401 125.44H100.71Z" fill="white" stroke="white" stroke-width="0.2" stroke-miterlimit="10"/>
<path d="M109.14 125.26L106.15 122.63L103.77 125.26H109.14Z" fill="white" stroke="white" stroke-width="0.2" stroke-miterlimit="10"/>
<path d="M117.29 125.26L114.3 122.63L111.92 125.26H117.29Z" fill="white" stroke="white" stroke-width="0.2" stroke-miterlimit="10"/>
<path d="M28.77 125.33V165.61L66.41 187.4L80.54 199.48L101.77 193.62L115.12 179.05L141.6 152.58L150.64 130.75V125.33L89.7 125.41" fill="#211C4B"/>
<path d="M28.77 125.33V165.61L66.41 187.4L80.54 199.48L101.77 193.62L115.12 179.05L141.6 152.58L150.64 130.75V125.33L89.7 125.41" stroke="#13110C" stroke-width="0.5" stroke-miterlimit="10"/>
<path d="M28.77 165.06V137.63C28.77 137.63 42.22 137.97 48.9 139.65C48.9 139.65 39.49 152.59 35.02 168.83L28.77 165.06Z" fill="#13110C" stroke="#13110C" stroke-miterlimit="10"/>
<path d="M62.31 131.78L55.1 131.85C55.1 131.85 39.62 148.3 35.48 169.12L41.81 172.94C41.81 172.94 46.26 158.88 55.68 143.07L62.31 131.78Z" fill="#E31013" stroke="#13110C" stroke-miterlimit="10"/>
<path d="M74.85 131.85C92.23 146.23 104.12 151.15 104.12 151.15C103.67 155.8 108.08 163.04 108.08 163.04C108.08 163.04 87.85 157.17 62.96 131.85H74.85Z" fill="#E31013" stroke="#13110C" stroke-miterlimit="10"/>
<path d="M121.02 129.08L131.73 139.91L144.17 124.9L124.25 125.06L121.02 129.08Z" fill="white" stroke="#13110C" stroke-miterlimit="10"/>
<path d="M131.63 140.64L111.85 162.37C111.85 162.37 107.23 154.7 107.76 148.42C107.76 148.42 107.73 142.85 111.6 138.32C111.6 138.32 115.7 133.8 121.27 129.29L131.63 140.64Z" fill="white" stroke="#13110C" stroke-miterlimit="10"/>
<path d="M49.33 177.47L28.77 165.06" stroke="#13110C" stroke-miterlimit="10"/>
<path d="M145.27 164.81H133.1V177.47H145.27V164.81Z" fill="#211C4B" stroke="#13110C" stroke-width="0.5" stroke-miterlimit="10"/>
<path d="M141.08 168.83L141.6 165.74C141.12 162.7 137.47 163.98 137.47 163.98C136.47 164.27 136.98 169.14 136.98 169.14C135.87 168.17 133.24 168.54 133.24 168.54C131.77 168.3 131.67 171.39 131.67 171.39C132.57 175 137.52 173.64 137.52 173.64L137.38 174.11C135.19 180.15 140.03 179.73 140.03 179.73C143.95 179.81 141.61 173.23 141.61 173.23C141.61 173.23 146.65 175.21 146.94 172.11C146.94 172.11 147.8 168.59 144.66 168.4L141.08 168.83Z" fill="#FFEA24" stroke="#13110C" stroke-miterlimit="10"/>
<path d="M108.65 191.56H111.64C108.02 214.67 114 224.35 114 224.35H87.8999C87.8999 224.35 93.2499 211.05 108.65 191.56Z" fill="#FFEA24" stroke="#13110C" stroke-miterlimit="10"/>
<path d="M108.65 191.56H104.66C104.66 191.56 92.9701 205.39 83.8201 224.35H87.9001C87.9001 224.35 92.9101 211.98 108.65 191.56Z" fill="#E31013" stroke="#13110C" stroke-miterlimit="10"/>
<path d="M110.27 194.65C110.27 194.65 102.1 203.65 101.77 210.32" stroke="#211C4B" stroke-miterlimit="10"/>
<path d="M98.44 214.48C98.44 214.48 94.44 217.81 93.27 222.65" stroke="#211C4B" stroke-miterlimit="10"/>
<path d="M109.44 199.48C109.44 199.48 105.94 202.6 104.11 207.96" stroke="#211C4B" stroke-miterlimit="10"/>
<path d="M99.2701 216.31C99.2701 216.31 96.2701 219.27 95.8501 221.81" stroke="#211C4B" stroke-miterlimit="10"/>
<path d="M100.27 213.64C101.004 213.64 101.6 213.045 101.6 212.31C101.6 211.575 101.004 210.98 100.27 210.98C99.5354 210.98 98.9399 211.575 98.9399 212.31C98.9399 213.045 99.5354 213.64 100.27 213.64Z" fill="#211C4B" stroke="#211C4B" stroke-miterlimit="10"/>
<path d="M102.44 213.72C102.81 213.26 104.86 214.28 107.01 216.01C109.17 217.74 110.61 219.51 110.24 219.97C109.87 220.43 107.82 219.41 105.67 217.68C103.52 215.96 102.07 214.19 102.44 213.72Z" fill="#211C4B"/>
<path d="M101.05 214.44C101.4 214.44 101.71 216.28 101.74 218.56C101.77 220.84 101.5 222.68 101.14 222.69C100.79 222.69 100.48 220.85 100.45 218.58C100.43 216.29 100.7 214.44 101.05 214.44Z" fill="#211C4B"/>
<path d="M109.34 209.38C109.51 209.69 108.3 210.66 106.64 211.54C104.98 212.42 103.51 212.88 103.34 212.57C103.17 212.26 104.38 211.29 106.04 210.41C107.7 209.53 109.17 209.07 109.34 209.38Z" fill="#211C4B"/>
<path d="M115.12 179.05C108.49 177.66 104.1 180.75 104.1 180.75C87.4399 197.01 75.1399 224.35 75.1399 224.35H83.8099C83.8099 224.35 88.4299 213.81 100.26 197.23L115.12 179.05Z" fill="#13110C" stroke="#13110C" stroke-miterlimit="10"/>
<path d="M80.1001 224.35C80.1001 224.35 91.5501 199.9 103.32 185.9C103.32 185.9 105.76 183.46 110.26 184.51" stroke="white" stroke-miterlimit="10"/>
<path d="M89.0601 199.48C89.0601 199.48 81.6901 187.48 72.4401 184.98C72.4401 184.98 65.6101 183.65 60.7701 196.65C60.7701 196.65 57.4401 204.15 56.6001 221.82V224.36H75.1401C75.1501 224.35 80.2001 213.29 89.0601 199.48Z" fill="#FED68A" stroke="#13110C" stroke-miterlimit="10"/>
<path d="M79.4101 215.92C79.4101 215.92 70.4801 216.05 67.4001 223.55C67.2901 223.81 67.1901 224.08 67.1001 224.35H75.1401L79.4101 215.92Z" fill="#AFA3C7" stroke="#13120D" stroke-width="0.5" stroke-miterlimit="10"/>
<path d="M57.1401 214.44C57.1401 214.44 66.5801 216.24 67.6301 223.03L67.1001 224.35H56.6001C56.6001 224.35 57.0101 215.69 57.1401 214.44Z" fill="#AFA3C7" stroke="#13120D" stroke-width="0.5" stroke-miterlimit="10"/>
<path d="M77.52 217.39C77.52 217.39 71.44 219.05 69.02 222.68" stroke="#13110C" stroke-width="0.5" stroke-miterlimit="10"/>
<path d="M76.0999 219.52C76.0999 219.52 72.1799 220.27 70.4299 223.1" stroke="#13110C" stroke-width="0.5" stroke-miterlimit="10"/>
<path d="M75.5999 221.31C75.5999 221.31 72.9299 222.1 72.1799 223.23" stroke="#13110C" stroke-width="0.5" stroke-miterlimit="10"/>
<path d="M66.19 222.68C66.19 222.68 63.69 216.93 58.02 215.91" stroke="#13110C" stroke-width="0.5" stroke-miterlimit="10"/>
<path d="M64.19 222.68C64.19 222.68 62.86 218.72 58.02 217.39" stroke="#13110C" stroke-width="0.5" stroke-miterlimit="10"/>
<path d="M61.6001 222.65C61.6001 222.65 61.0201 220.04 58.3501 219.3" stroke="#13110C" stroke-width="0.5" stroke-miterlimit="10"/>
<path d="M59.98 222.68C59.98 222.68 59.27 220.82 58.02 220.85" stroke="#13110C" stroke-width="0.5" stroke-miterlimit="10"/>
<path d="M78.85 214.44C78.85 214.44 69.85 214.56 69.02 214.06L78.85 214.44Z" fill="white"/>
<path d="M78.85 214.44C78.85 214.44 69.85 214.56 69.02 214.06" stroke="#13110C" stroke-miterlimit="10"/>
<path d="M58.02 212.67C60.69 215.28 65.52 213.61 65.52 213.61C65.52 213.61 67.1 207.31 65.52 204.64C65.52 204.64 61.94 198.47 65.52 198.72C65.52 198.72 67.6 200.39 68.1 199.47C68.1 199.47 72.68 197.72 70.93 202.14" stroke="#13110C" stroke-miterlimit="10"/>
<path d="M67.6299 198.72V196.98" stroke="#13110C" stroke-miterlimit="10"/>
<path d="M73.9 192.14C73.9 192.14 69.28 193.06 65.52 192.14" stroke="#13110C" stroke-miterlimit="10"/>
<path d="M71.34 188.06L69.02 189.98H70.18L68.52 188.06" stroke="#13110C" stroke-miterlimit="10"/>
<path d="M70.4399 210.98C75.9399 212.07 80.1099 209.32 80.1099 209.32C80.1099 209.32 72.5299 204.73 70.4399 209.81V210.98Z" stroke="#13110C" stroke-miterlimit="10"/>
<path d="M70.8501 207.96C70.8501 207.96 71.6901 205.54 75.1401 204.3" stroke="#13110C" stroke-miterlimit="10"/>
<path d="M65.5201 206.43C65.5201 206.43 63.1901 203.87 61.6001 204.3" stroke="#13110C" stroke-miterlimit="10"/>
<path d="M59 209.29C62.56 205.6 65.52 209.33 65.52 209.33C65.52 209.33 63.69 211.48 59.35 209.9L59 209.29Z" stroke="#13110C" stroke-miterlimit="10"/>
<path d="M72.1899 209.77C72.1899 209.32 73.0099 208.95 74.0199 208.95C75.0299 208.95 75.8499 209.32 75.8499 209.77C75.8499 210.22 75.0299 210.59 74.0199 210.59C73.0099 210.59 72.1899 210.22 72.1899 209.77Z" fill="#13110C" stroke="#13110C" stroke-miterlimit="10"/>
<path d="M61.3401 209.29C61.3401 209.03 61.7501 208.81 62.2601 208.81C62.7701 208.81 63.1801 209.02 63.1801 209.29C63.1801 209.55 62.7701 209.77 62.2601 209.77C61.7501 209.77 61.3401 209.55 61.3401 209.29Z" fill="#13110C" stroke="#13110C" stroke-miterlimit="10"/>
<path d="M95.78 190.13C91.07 189.1 80.45 189.49 80.45 189.49C80.45 189.49 85.42 193.74 89.07 199.48C89.06 199.48 95.55 190.42 95.78 190.13Z" fill="#AFA3C7" stroke="#13120D" stroke-width="0.5" stroke-miterlimit="10"/>
<path d="M93.8501 191.12C93.8501 191.12 88.4901 190.78 83.3501 190.74" stroke="#13110C" stroke-width="0.5" stroke-miterlimit="10"/>
<path d="M91.9299 192.92C91.9299 192.92 89.8199 192.61 85.3799 192.55" stroke="#13110C" stroke-width="0.5" stroke-miterlimit="10"/>
<path d="M90.55 194.83C90.55 194.83 89.25 194.52 86.8 194.45" stroke="#13110C" stroke-width="0.5" stroke-miterlimit="10"/>
<path d="M89.7001 196.44L88.1101 196.29" stroke="#13110C" stroke-width="0.5" stroke-miterlimit="10"/>
<path d="M45.9199 175.66C49.9499 200.97 56.9999 215.91 56.9999 215.91L57.6999 209.76C57.6999 209.76 50.2999 188.66 49.3299 177.46L45.9199 175.66Z" fill="#E31013" stroke="#13110C" stroke-miterlimit="10"/>
<path d="M57.7001 209.77C57.7001 209.77 59.3701 194.34 66.4101 187.4C66.4101 187.4 54.7501 181.58 49.3201 177.47C49.3301 177.47 50.8201 189.77 57.7001 209.77Z" fill="#13110C" stroke="#13110C" stroke-miterlimit="10"/>
<path d="M60.1101 197.5C60.1101 197.5 56.0801 189.29 55.1001 181.92L60.1101 197.5Z" fill="white"/>
<path d="M60.1101 197.5C60.1101 197.5 56.0801 189.29 55.1001 181.92" stroke="white" stroke-miterlimit="10"/>
<path d="M32.06 206.43C30.83 201 35.57 201.51 35.57 201.51C35.57 201.51 40.89 201.35 39.31 206.43L35.73 220.04L32.06 206.43Z" fill="#FFEA24" stroke="#13110C" stroke-miterlimit="10"/>
<path d="M35.73 209.77L37.15 196.98L35.73 193.27L33.99 196.98L35.73 209.77Z" fill="#FFEA24" stroke="#13110C" stroke-miterlimit="10"/>
<path d="M35.57 162.31H37.15C41.78 162.98 40.02 172.48 40.02 172.48C39.6 174.23 38.1 187.31 38.1 187.31C37.6 196.31 40.6 200.31 40.6 200.31L37.14 196.97L35.72 193.26L33.98 196.97L31.09 199.47C34.59 190.72 32.84 181.91 32.84 181.91C30.92 172.35 31.09 166.47 31.09 166.47C31.09 163.22 33.98 162.3 33.98 162.3H35.57" fill="#FFEA24"/>
<path d="M35.57 162.31H37.15C41.78 162.98 40.02 172.48 40.02 172.48C39.6 174.23 38.1 187.31 38.1 187.31C37.6 196.31 40.6 200.31 40.6 200.31L37.14 196.97L35.72 193.26L33.98 196.97L31.09 199.47C34.59 190.72 32.84 181.91 32.84 181.91C30.92 172.35 31.09 166.47 31.09 166.47C31.09 163.22 33.98 162.3 33.98 162.3H35.57" stroke="#13110C" stroke-miterlimit="10"/>
<path d="M31.6899 157.48C31.6899 155.18 33.5599 153.31 35.8599 153.31C36.0599 153.31 36.2499 153.32 36.4399 153.35C38.4699 153.63 40.0199 155.37 40.0199 157.48C40.0199 159.78 38.1499 161.65 35.8499 161.65C33.5499 161.64 31.6899 159.78 31.6899 157.48Z" fill="#FFEA24" stroke="#13110C" stroke-miterlimit="10"/>
<path d="M32.3499 146.48C31.5199 152.9 35.2699 152.98 35.2699 152.98H36.3499C36.3499 152.98 39.5199 151.98 39.3499 148.4L38.7699 138.32H32.5999L32.3499 146.48Z" fill="#FFEA24" stroke="#13110C" stroke-miterlimit="10"/>
<path d="M34.3799 160.7C35.617 160.7 36.6199 159.29 36.6199 157.55C36.6199 155.81 35.617 154.4 34.3799 154.4C33.1428 154.4 32.1399 155.81 32.1399 157.55C32.1399 159.29 33.1428 160.7 34.3799 160.7Z" fill="#BBB32E"/>
<path d="M32.59 194.45C32.59 194.45 32.79 194.19 33.1 193.62C33.23 193.38 33.37 193.09 33.53 192.73C34.65 190.19 36.28 184.6 35.57 174.52C35.57 174.52 36.77 159.12 32.23 163.93C32.23 163.93 30.68 164.44 32.51 177.46C32.51 177.46 32.86 178.92 32.69 178.19C32.69 178.19 33.68 191.1 33.23 193.37" fill="#BBB32E"/>
<path d="M33.0399 138.64H35.8599C35.8599 138.64 36.3699 150.65 34.4499 150.54C34.4499 150.54 33.2999 151.22 32.8399 149.93C32.3799 148.64 32.5999 145.38 33.0399 139.08" fill="#BBB32E"/>
<path d="M137.1 171.4C137.1 170.16 138.11 169.15 139.35 169.15C140.59 169.15 141.6 170.16 141.6 171.4C141.6 171.96 141.4 172.47 141.06 172.86C140.65 173.34 140.04 173.65 139.35 173.65C138.11 173.65 137.1 172.64 137.1 171.4Z" fill="white" stroke="#13110C" stroke-miterlimit="10"/>
<path d="M130.5 152.24C130.65 153.93 131.1 156.08 131.62 158.11C132.51 161.62 133.59 164.81 133.59 164.81H135.71C135.71 164.81 132.62 154.36 132.38 152.23H130.5V152.24Z" fill="#BBB32E" stroke="#13110C" stroke-miterlimit="10"/>
<path d="M131.38 158.52C131.38 158.52 131.42 163.44 124.05 164.81C124.05 164.81 121 165.18 123.85 161.49C123.85 161.49 126.37 156.6 129.78 157C129.78 157 131.22 156.84 131.38 158.52Z" fill="#BBB32E" stroke="#13110C" stroke-miterlimit="10"/>
<path d="M134.47 158.52C134.47 158.52 138.52 162.41 144.09 158.84C144.09 158.84 143.93 156.76 141.16 156.24C141.16 156.24 134.97 154.64 134.47 156.68C134.47 156.68 133.83 156.84 134.47 158.52Z" fill="#BBB32E" stroke="#13110C" stroke-miterlimit="10"/>
<path d="M141.88 158.52C141.88 158.52 138.03 157.32 135.71 157.76" stroke="#13110C" stroke-miterlimit="10"/>
<path d="M129.9 158.52C129.9 158.52 126.53 162.65 124.29 163.21" stroke="#13110C" stroke-miterlimit="10"/>
<path d="M150.64 130.75C148.87 133.42 141.89 141.06 141.89 141.06V152.24C145.42 153.74 150.64 163.02 150.64 163.02V159.01C150.64 159.01 147.35 153.09 144.09 150.36V148.9L147.96 146.35L144.09 143.17V142.02C144.09 142.02 148.61 136.67 150.64 133.3V130.75Z" fill="#FFEA24" stroke="#13110C" stroke-miterlimit="10"/>
<path d="M141.6 152.58C141.6 152.58 139.74 153.92 138.22 152.58V140.55C139.43 138.96 141.34 140.55 141.34 140.55L141.6 152.58Z" fill="#FFEA24" stroke="#13110C" stroke-miterlimit="10"/>
<path d="M150.64 159V133.3L144.09 142.02V143.17L147.96 146.35L144.09 148.9V150.36C144.09 150.35 148.65 154.71 150.64 159Z" fill="#E31518" stroke="#13110C" stroke-miterlimit="10"/>
<path d="M122.48 141.74C121.58 147.55 126.17 150.63 126.17 150.63C131.94 153.42 138.22 151.28 138.22 151.28V141.59C138.22 141.59 134.58 140.97 132.17 135.56C132.17 135.56 130.24 134.37 130.09 136.45C130.09 136.45 127.56 135.29 127.5 137.4L127.59 138.14C127.59 138.14 125.09 136.89 125 139.03C125 139.03 123.34 139.18 123.87 140.69C123.88 140.69 122.59 141.02 122.48 141.74Z" fill="#FED68A" stroke="#13110C" stroke-miterlimit="10"/>
<path d="M130.09 136.44C130.12 137.33 131.63 140.63 131.63 140.63" stroke="#13110C" stroke-miterlimit="10"/>
<path d="M128.96 142.36C128.96 142.36 127.08 139.41 126.79 137.86" stroke="#13110C" stroke-miterlimit="10"/>
<path d="M125.66 144.95C125.66 144.95 123.95 141.53 123.88 140.7" stroke="#13110C" stroke-miterlimit="10"/>
<path d="M104.75 155.57C102.43 147.61 107.15 139.11 107.15 139.11C108.62 136.71 120.83 125.37 120.83 125.37L124.5 125.26L114.96 134.86C111.95 136.71 108.85 142.82 108.85 142.82C105.45 151.95 111.09 160.9 111.09 160.9C113.56 166.39 121.06 172.33 121.06 172.33L118.05 175.27C118.05 175.27 108.67 166.18 106.46 159.59L104.75 155.57Z" fill="#FFEA24" stroke="#13110C" stroke-miterlimit="10"/>
<path d="M69.3501 138.31C92.8101 159.43 108.07 163.03 108.07 163.03L110.48 166.58C110.48 166.58 85.0201 157.98 69.7501 140.98L69.3501 138.31Z" fill="#FFEA24" stroke="#13110C" stroke-miterlimit="10"/>
<path d="M69.9301 148.44C69.9101 149.19 69.3501 150.32 69.3501 150.32C70.9301 152.49 83.8201 166.59 83.8201 166.59C86.2901 169.86 101.8 183.1 101.8 183.1L103.7 181.15C103.7 181.15 93.6501 173.36 86.7901 166.59C86.7901 166.59 73.4201 152.16 70.0801 147.83" fill="#FFEA24"/>
<path d="M69.9301 148.44C69.9101 149.19 69.3501 150.32 69.3501 150.32C70.9301 152.49 83.8201 166.59 83.8201 166.59C86.2901 169.86 101.8 183.1 101.8 183.1L103.7 181.15C103.7 181.15 93.6501 173.36 86.7901 166.59C86.7901 166.59 73.4201 152.16 70.0801 147.83" stroke="#13110C" stroke-miterlimit="10"/>
<path d="M60.1101 151.15C57.1101 158.23 53.5601 180.31 53.5601 180.31L55.5801 181.53C55.5801 181.53 58.7701 159.24 61.3601 152.15L60.1101 151.15Z" fill="#FFEA24" stroke="#13110C" stroke-miterlimit="10"/>
<path d="M55.6901 143.06C48.1101 154.31 41.8201 172.93 41.8201 172.93L44.3201 174.44C44.3201 174.44 49.3601 157.89 56.6101 145.64L55.6901 143.06Z" fill="#FFEA24" stroke="#13110C" stroke-miterlimit="10"/>
<path d="M56.6199 144.45C55.0499 138.76 56.7299 133.33 60.3699 132.33C64.0099 131.33 68.2299 135.12 69.7999 140.82C71.3699 146.51 69.6899 151.94 66.0599 152.94C62.4099 153.94 58.1899 150.14 56.6199 144.45Z" fill="#FFEA24" stroke="#13110C" stroke-miterlimit="10"/>
<path d="M59.28 143.18C58.46 139.6 59.44 136.33 61.47 135.86C63.5 135.4 65.8 137.92 66.62 141.5C67.44 145.08 66.46 148.35 64.43 148.81C62.41 149.28 60.1 146.76 59.28 143.18Z" fill="#E31013" stroke="#13110C" stroke-miterlimit="10"/>
<path d="M65.3501 148.65L67.6101 152.13" stroke="#13110C" stroke-miterlimit="10"/>
<path d="M63.2099 148.75L62.95 152.71" stroke="#13110C" stroke-miterlimit="10"/>
<path d="M61.3499 147.46L59.6899 150.32" stroke="#13110C" stroke-miterlimit="10"/>
<path d="M59.89 145.08L57.27 146.35" stroke="#13110C" stroke-miterlimit="10"/>
<path d="M59.1199 142.34H56.1799" stroke="#13110C" stroke-miterlimit="10"/>
<path d="M59.12 139.18L56.25 137.81" stroke="#13110C" stroke-miterlimit="10"/>
<path d="M60.1101 136.77L57.8701 134.03" stroke="#13110C" stroke-miterlimit="10"/>
<path d="M61.4701 135.87L61.3501 132.18" stroke="#13110C" stroke-miterlimit="10"/>
<path d="M63.8101 136.53L65.3501 133.64" stroke="#13110C" stroke-miterlimit="10"/>
<path d="M65.46 138.49L68.07 136.77" stroke="#13110C" stroke-miterlimit="10"/>
<path d="M66.6299 141.5L69.7499 141.15" stroke="#13110C" stroke-miterlimit="10"/>
<path d="M66.9099 144L70.3799 144.68" stroke="#13110C" stroke-miterlimit="10"/>
<path d="M66.48 146.65L69.75 149" stroke="#13110C" stroke-miterlimit="10"/>
<path d="M113.41 159.81H111.06" stroke="#211C4B" stroke-width="0.5" stroke-miterlimit="10"/>
<path d="M114.44 158.52H110.48" stroke="#211C4B" stroke-width="0.5" stroke-miterlimit="10"/>
<path d="M116.1 156.72H109.94" stroke="#211C4B" stroke-width="0.5" stroke-miterlimit="10"/>
<path d="M117.2 155.11L109.54 155.04" stroke="#211C4B" stroke-width="0.5" stroke-miterlimit="10"/>
<path d="M118.72 153.59L109.2 153.52" stroke="#211C4B" stroke-width="0.5" stroke-miterlimit="10"/>
<path d="M120.17 152.06H108.58" stroke="#211C4B" stroke-width="0.5" stroke-miterlimit="10"/>
<path d="M121.27 150.32H108.58" stroke="#211C4B" stroke-width="0.5" stroke-miterlimit="10"/>
<path d="M122.63 148.9L108.58 148.83" stroke="#211C4B" stroke-width="0.5" stroke-miterlimit="10"/>
<path d="M122.36 147.31H108.58" stroke="#211C4B" stroke-width="0.5" stroke-miterlimit="10"/>
<path d="M121.76 145.82H109.2" stroke="#211C4B" stroke-width="0.5" stroke-miterlimit="10"/>
<path d="M121.27 144.34L109.2 144.41" stroke="#211C4B" stroke-width="0.5" stroke-miterlimit="10"/>
<path d="M121.27 142.82H109.94" stroke="#211C4B" stroke-width="0.5" stroke-miterlimit="10"/>
<path d="M121.27 141.24H110.78" stroke="#211C4B" stroke-width="0.5" stroke-miterlimit="10"/>
<path d="M122.63 139.37L111.89 139.3" stroke="#211C4B" stroke-width="0.5" stroke-miterlimit="10"/>
<path d="M124.29 137.85H113.41" stroke="#211C4B" stroke-width="0.5" stroke-miterlimit="10"/>
<path d="M126.04 136.44H114.92" stroke="#211C4B" stroke-width="0.5" stroke-miterlimit="10"/>
<path d="M124.77 134.95L116.44 135.21" stroke="#211C4B" stroke-width="0.5" stroke-miterlimit="10"/>
<path d="M123.88 133.3H118.17" stroke="#211C4B" stroke-width="0.5" stroke-miterlimit="10"/>
<path d="M122.36 131.85L119.68 131.78" stroke="#211C4B" stroke-width="0.5" stroke-miterlimit="10"/>
<path d="M138.8 126.95V129.57C138.8 129.57 134.45 129.14 130.87 133.57L130.51 133.02C130.5 133.02 134.64 126.33 138.8 126.95Z" fill="#211C4B" stroke="#13110C" stroke-width="0.5" stroke-miterlimit="10"/>
<path d="M132.46 125.33C132.46 125.33 130.46 129.31 127.42 130.75L126.79 129.64C126.79 129.64 130.58 127.54 130.87 125.41L132.46 125.33Z" fill="#211C4B" stroke="#13110C" stroke-width="0.5" stroke-miterlimit="10"/>
<path d="M136.67 125.37L134.18 125.33L128.96 132.12L136.67 125.37Z" fill="#211C4B" stroke="#13110C" stroke-width="0.5" stroke-miterlimit="10"/>
<path d="M133.11 133.57C134.97 134.02 134.65 132.71 134.65 132.71L129.35 126.9C129.35 126.9 127.91 126.8 127.87 127.49C127.83 128.19 133.11 133.57 133.11 133.57Z" fill="#211C4B" stroke="#13110C" stroke-width="0.5" stroke-miterlimit="10"/>
<path d="M112.46 172.4C112.46 172.4 115.06 173.3 113.4 175.42C113.4 175.42 111.08 177.54 108.57 173.66C108.57 173.66 107.25 169.24 103.7 168.97C103.7 168.97 97.4399 169.19 96.1699 168.29C96.1699 168.29 93.9599 166.21 94.4099 164C94.4099 164 89.7199 165.44 87.8199 161.34C87.8199 161.34 86.0599 156.06 84.8399 155.74C84.8399 155.74 82.1299 154.09 80.5499 156.72C80.5499 156.72 80.0499 160.16 83.7099 159.17" stroke="white" stroke-miterlimit="10"/>
<path d="M99.11 174.61C99.5574 174.61 99.92 174.248 99.92 173.8C99.92 173.353 99.5574 172.99 99.11 172.99C98.6627 172.99 98.3 173.353 98.3 173.8C98.3 174.248 98.6627 174.61 99.11 174.61Z" fill="white" stroke="white" stroke-miterlimit="10"/>
<path d="M97.3999 164.5C97.3999 164 97.7999 163.6 98.2999 163.6C98.7999 163.6 99.1999 164 99.1999 164.5C99.1999 165 98.7999 165.4 98.2999 165.4C97.7999 165.4 97.3999 165 97.3999 164.5Z" fill="white" stroke="white" stroke-miterlimit="10"/>
<path d="M90.0801 160.03C90.0801 159.56 90.4601 159.17 90.9401 159.17C91.4101 159.17 91.8001 159.55 91.8001 160.03C91.8001 160.5 91.4201 160.89 90.9401 160.89C90.4701 160.89 90.0801 160.5 90.0801 160.03Z" fill="white" stroke="white" stroke-miterlimit="10"/>
<path d="M90.8999 166.8C90.8999 166.3 91.2999 165.9 91.7999 165.9C92.2999 165.9 92.6999 166.3 92.6999 166.8C92.6999 167.3 92.2999 167.7 91.7999 167.7C91.2999 167.7 90.8999 167.3 90.8999 166.8Z" fill="white" stroke="white" stroke-miterlimit="10"/>
<path d="M84.1299 162.02C84.1299 161.52 84.5299 161.12 85.0299 161.12C85.5299 161.12 85.9299 161.52 85.9299 162.02C85.9299 162.52 85.5299 162.92 85.0299 162.92C84.5299 162.92 84.1299 162.51 84.1299 162.02Z" fill="white" stroke="white" stroke-miterlimit="10"/>
<path d="M108.16 172.61C108.16 172.61 107.1 177.67 104.89 176.77C104.89 176.77 101.46 176 102.41 173.48C102.41 173.48 103.27 171.77 104.44 172.98" stroke="white" stroke-miterlimit="10"/>
<path d="M51.8101 177.2C51.8101 177.2 53.6401 174.98 50.7801 174.14C50.7801 174.14 47.1901 173.72 47.9301 170.12C47.9301 170.12 52.1001 165.89 52.7901 164.36C52.7901 164.36 51.6801 161.77 53.5601 160.24C53.5601 160.24 56.3901 158.44 54.5401 154.96C54.5401 154.96 54.4001 149.11 57.8801 152.46" stroke="white" stroke-miterlimit="10"/>
<path d="M51.04 170.22C51.04 170.22 54.11 171.86 50.78 174.13" stroke="white" stroke-miterlimit="10"/>
<path d="M53.1101 168.37C53.1101 167.96 53.4401 167.63 53.8501 167.63C54.2601 167.63 54.5901 167.96 54.5901 168.37C54.5901 168.78 54.2601 169.11 53.8501 169.11C53.4401 169.11 53.1101 168.78 53.1101 168.37Z" fill="white" stroke="white" stroke-miterlimit="10"/>
<path d="M49.3301 163.88C49.3301 163.49 49.6501 163.17 50.0401 163.17C50.4301 163.17 50.7501 163.49 50.7501 163.88C50.7501 164.27 50.4301 164.59 50.0401 164.59C49.6501 164.6 49.3301 164.28 49.3301 163.88Z" fill="white" stroke="white" stroke-miterlimit="10"/>
<path d="M51.6499 157.81C51.6499 157.43 51.9599 157.12 52.3399 157.12C52.7199 157.12 53.0299 157.43 53.0299 157.81C53.0299 158.19 52.7199 158.5 52.3399 158.5C51.9499 158.49 51.6499 158.18 51.6499 157.81Z" fill="white" stroke="white" stroke-miterlimit="10"/>
<path d="M56.3401 155.69C56.3401 155.44 56.5501 155.23 56.8001 155.23C57.0501 155.23 57.2601 155.44 57.2601 155.69C57.2601 155.94 57.0501 156.15 56.8001 156.15C56.5501 156.15 56.3401 155.95 56.3401 155.69Z" fill="white" stroke="white" stroke-miterlimit="10"/>
<path d="M98.2999 184.25H95.1899L96.7399 186.73L98.2999 184.25Z" fill="#FFEA24"/>
<path d="M89.0601 186.01L91.2701 182.48H86.8501" fill="#FFEA24"/>
<path d="M80.26 185.72L82.29 182.48H78.23" fill="#FFEA24"/>
<path d="M73.4101 184.33L74.9701 181.85H71.8601" fill="#FFEA24"/>
<path d="M65.8 185.32L67.83 182.09H63.77" fill="#FFEA24"/>
<path d="M90.9399 179.89L84.1299 178.23L87.8999 176.48L87.5299 178.19L90.9399 179.89Z" fill="#FFEA24"/>
<path d="M85.93 174.71L79.95 173.25L83.26 171.71L82.94 173.21L85.93 174.71Z" fill="#FFEA24"/>
<path d="M82.2299 170.3L76.3999 168.87L79.6299 167.38L79.3099 168.84L82.2299 170.3Z" fill="#FFEA24"/>
<path d="M77.9401 165.87L72.8301 164.62L75.6601 163.3L75.3901 164.59L77.9401 165.87Z" fill="#FFEA24"/>
<path d="M74.8501 162.12L70.8201 161.14L73.0501 160.1L72.8301 161.11L74.8501 162.12Z" fill="#FFEA24"/>
<path d="M71.9999 158.75L69.6299 158.17L70.9399 157.57L70.8199 158.16L71.9999 158.75Z" fill="#FFEA24"/>
<path d="M59.8401 181.92L64.3701 176.57L60.2901 177.37L61.5901 178.54L59.8401 181.92Z" fill="#FFEA24"/>
<path d="M59.79 175.56L63.77 170.87L60.19 171.57L61.33 172.59L59.79 175.56Z" fill="#FFEA24"/>
<path d="M60.4299 169.56L63.7899 165.59L60.7599 166.19L61.7299 167.05L60.4299 169.56Z" fill="#FFEA24"/>
<path d="M61.78 163.75L64.13 160.98L62.01 161.39L62.69 162L61.78 163.75Z" fill="#FFEA24"/>
<path d="M62.3101 159.72L63.9401 157.79L62.4701 158.08L62.9401 158.5L62.3101 159.72Z" fill="#FFEA24"/>
<path d="M73.9001 180.73L79.9501 177.81L72.8301 176.88L74.8501 178.55L73.9001 180.73Z" fill="#FFEA24"/>
<path d="M72.83 180.73L66.76 179.89L71.34 176.88L70.82 179.24L72.83 180.73Z" fill="#FFEA24"/>
<path d="M71.7399 175.57L76.2699 173.39L70.9399 172.7L72.4499 173.95L71.7399 175.57Z" fill="#FFEA24"/>
<path d="M70.9399 175.57L66.3999 174.95L69.8199 172.7L69.4299 174.46L70.9399 175.57Z" fill="#FFEA24"/>
<path d="M69.96 170.77L73.73 168.96L69.3 168.38L70.56 169.42L69.96 170.77Z" fill="#FFEA24"/>
<path d="M69.3 170.77L65.53 170.25L68.37 168.38L68.05 169.85L69.3 170.77Z" fill="#FFEA24"/>
<path d="M68.3301 166.54L71.2501 165.13L67.8101 164.69L68.7901 165.49L68.3301 166.54Z" fill="#FFEA24"/>
<path d="M67.8099 166.54L64.8899 166.14L67.0899 164.69L66.8399 165.83L67.8099 166.54Z" fill="#FFEA24"/>
<path d="M67.8099 162.83L70.0299 161.76L67.4199 161.42L68.1599 162.03L67.8099 162.83Z" fill="#FFEA24"/>
<path d="M67.42 162.83L65.2 162.53L66.87 161.42L66.68 162.29L67.42 162.83Z" fill="#FFEA24"/>
<path d="M67.03 159.6L68.39 158.95L66.8 158.74L67.25 159.12L67.03 159.6Z" fill="#FFEA24"/>
<path d="M66.7999 159.6L65.4399 159.42L66.4599 158.74L66.3499 159.27L66.7999 159.6Z" fill="#FFEA24"/>
<path d="M66.22 157.11L67.44 156.52L66.01 156.34L66.42 156.67L66.22 157.11Z" fill="#FFEA24"/>
<path d="M66.01 157.11L64.8 156.94L65.71 156.34L65.61 156.81L66.01 157.11Z" fill="#FFEA24"/>
<path d="M99.7399 152.98C99.7399 152.98 98.8299 156.82 96.0999 153.59C96.0999 153.59 92.6099 149.35 90.9399 148.9C90.9399 148.9 89.4399 145.56 84.1299 145.53C83.5399 145.53 82.9099 145.56 82.2299 145.65C82.2299 145.65 77.2299 143.87 73.7299 137.86C73.7299 137.86 68.8499 133.25 64.8899 131.78" stroke="#13110C" stroke-miterlimit="10"/>
<path d="M80.54 142.63C80.54 142.63 84.38 137.99 84.13 145.53" stroke="#13110C" stroke-miterlimit="10"/>
<path d="M80.99 141.41C81.59 141.05 82.19 140.96 82.34 141.21C82.49 141.46 82.13 141.95 81.53 142.31C80.93 142.67 80.33 142.76 80.18 142.51C80.03 142.25 80.39 141.76 80.99 141.41Z" fill="#13110C" stroke="#13110C" stroke-miterlimit="10"/>
<path d="M88.68 149.33C89.43 148.55 90.29 148.17 90.62 148.48C90.95 148.79 90.6 149.67 89.86 150.45C89.11 151.23 88.25 151.61 87.92 151.3C87.59 150.99 87.93 150.11 88.68 149.33Z" fill="#13110C" stroke="#13110C" stroke-miterlimit="10"/>
<path d="M74.3201 138.82C74.3201 138.82 78.7301 137.52 76.4301 136.15" stroke="#13110C" stroke-miterlimit="10"/>
<path d="M76.5101 135.55C76.8601 135.88 77.0301 136.26 76.9001 136.41C76.7601 136.56 76.3701 136.41 76.0201 136.08C75.6701 135.75 75.5001 135.37 75.6401 135.22C75.7601 135.07 76.1601 135.22 76.5101 135.55Z" fill="#13110C" stroke="#13110C" stroke-miterlimit="10"/>
<path d="M59.12 132.16C59.12 132.16 52.23 135.77 51.55 141.5C51.55 141.5 50.52 151 47.82 152.06C47.82 152.06 41.39 154 42.29 157.79C42.29 157.79 43.34 164.8 40.01 164.5" stroke="#13110C" stroke-miterlimit="10"/>
<path d="M43.9901 158.62C44.6197 158.62 45.1301 158.109 45.1301 157.48C45.1301 156.85 44.6197 156.34 43.9901 156.34C43.3605 156.34 42.8501 156.85 42.8501 157.48C42.8501 158.109 43.3605 158.62 43.9901 158.62Z" fill="#13110C" stroke="#13110C" stroke-miterlimit="10"/>
<path d="M45.92 149.68C46.4336 149.68 46.85 149.263 46.85 148.75C46.85 148.236 46.4336 147.82 45.92 147.82C45.4064 147.82 44.99 148.236 44.99 148.75C44.99 149.263 45.4064 149.68 45.92 149.68Z" fill="#13110C" stroke="#13110C" stroke-miterlimit="10"/>
<path d="M48.3899 144C48.3899 143.48 48.8099 143.06 49.3299 143.06C49.8499 143.06 50.2699 143.48 50.2699 144C50.2699 144.52 49.8499 144.94 49.3299 144.94C48.8099 144.94 48.3899 144.52 48.3899 144Z" fill="#13110C" stroke="#13110C" stroke-miterlimit="10"/>
<path d="M53.11 143.45C53.723 143.45 54.22 142.953 54.22 142.34C54.22 141.727 53.723 141.23 53.11 141.23C52.497 141.23 52 141.727 52 142.34C52 142.953 52.497 143.45 53.11 143.45Z" fill="#13110C" stroke="#13110C" stroke-miterlimit="10"/>
<path d="M46.1801 152.71C46.1801 152.71 44.4501 150.27 45.9101 148.75" stroke="#13110C" stroke-miterlimit="10"/>
<path d="M44.99 139.34L40.02 147.31" stroke="white" stroke-miterlimit="10"/>
<path d="M60.52 125.41L55.1 131.84C51.6 135.99 48.9 139.65 48.9 139.65C48.9 139.65 39.02 137.47 28.77 137.63V134.02C28.77 134.02 43.25 133.98 47.6 135.86L56.03 125.4H60.52V125.41Z" fill="#FFEA24" stroke="#13110C" stroke-miterlimit="10"/>
<path d="M89.7 125.41L28.77 125.33" stroke="#13110C" stroke-miterlimit="10"/>
<path d="M56.03 125.41L50 125.38L33.53 125.21L28.77 132.36V134.02C28.77 134.02 40.6 133.71 47.6 135.86L56.03 125.41Z" fill="white" stroke="#13110C" stroke-miterlimit="10"/>
<path d="M47.2899 125.22C46.0899 126.52 46.1599 129.31 46.1599 129.31H48.1299C48.1299 129.31 48.0599 126 48.5599 125.22H47.2899Z" fill="#211C4B" stroke="#13110C" stroke-width="0.5" stroke-miterlimit="10"/>
<path d="M45.2301 125.23L42.8401 129.52L39.5701 130.12L39.8501 126.96L43.4801 125.2L45.2301 125.23Z" fill="#211C4B" stroke="#13110C" stroke-width="0.5" stroke-miterlimit="10"/>
<path d="M103.85 151.03C93.8 146.58 79.51 135.59 79.51 135.59H109.93C109.94 135.59 104.38 140.77 103.85 151.03Z" fill="#13110C" stroke="#13110C" stroke-miterlimit="10"/>
<path d="M103.7 137.85L100.83 146.88L86.8301 137.85H103.7Z" stroke="white" stroke-miterlimit="10"/>
<path d="M100.79 139.84L99.51 143.87L93.27 139.84H100.79Z" stroke="white" stroke-miterlimit="10"/>
<path d="M110.44 135.4L113.67 132.18L74.8501 131.85L79.2701 135.4H110.44Z" fill="#FFEA24" stroke="#13110C" stroke-miterlimit="10"/>
<path d="M113.67 132.18L116.44 129.5L57.6501 129.28L55.1001 131.85L113.67 132.18Z" fill="#E31013" stroke="#13110C" stroke-miterlimit="10"/>
<path d="M116.44 129.5L120.82 125.37H118.17L60.5199 125.41L57.6499 129.28L116.44 129.5Z" fill="#13110C" stroke="#13110C" stroke-miterlimit="10"/>
<path d="M111.89 125.41L114.88 128.04L117.26 125.41H111.89Z" fill="white" stroke="white" stroke-width="0.2" stroke-miterlimit="10"/>
<path d="M103.7 125.41L106.7 128.04L109.08 125.41H103.7Z" fill="white" stroke="white" stroke-width="0.2" stroke-miterlimit="10"/>
<path d="M95.27 125.59L98.26 128.22L100.64 125.59H95.27Z" fill="white" stroke="white" stroke-width="0.2" stroke-miterlimit="10"/>
<path d="M86.8799 125.5L89.8799 128.13L92.2599 125.5H86.8799Z" fill="white" stroke="white" stroke-width="0.2" stroke-miterlimit="10"/>
<path d="M78.7 125.5L81.69 128.13L84.07 125.5H78.7Z" fill="white" stroke="white" stroke-width="0.2" stroke-miterlimit="10"/>
<path d="M70.26 125.68L73.26 128.31L75.64 125.68H70.26Z" fill="white" stroke="white" stroke-width="0.2" stroke-miterlimit="10"/>
<path d="M62.1101 125.68L65.1101 128.31L67.4901 125.68H62.1101Z" fill="white" stroke="white" stroke-width="0.2" stroke-miterlimit="10"/>
<path d="M155.88 229.2C156.71 229.2 157.3 229.24 157.67 229.31C158.09 229.41 158.5 229.6 158.89 229.9C159.77 229.19 160.74 228.83 161.79 228.83C162.92 228.83 163.94 229.24 164.83 230.05C165.77 230.89 166.24 231.87 166.24 232.99V234.54H167.39V236.56C167.35 236.57 166.96 236.6 166.24 236.64V242.88C166.24 244.01 165.77 245 164.83 245.84C163.93 246.65 162.92 247.06 161.79 247.06C160.66 247.06 159.63 246.65 158.71 245.82C157.79 244.99 157.33 244.01 157.33 242.88V232.99C157.33 232.51 157.43 232.05 157.62 231.58C157.42 231.45 157.24 231.37 157.07 231.33H155.87V229.2H155.88ZM164.09 236.64C163.24 236.54 162.38 236.15 161.53 235.46C161 235.04 160.32 234.37 159.49 233.44V242.87C159.49 243.37 159.73 243.83 160.21 244.23C160.69 244.64 161.21 244.84 161.77 244.84C162.33 244.84 162.85 244.64 163.35 244.23C163.84 243.82 164.08 243.37 164.08 242.87V236.64H164.09ZM160.52 231.44L163.23 234.12C163.45 234.35 163.74 234.49 164.09 234.54V233.01C164.09 232.51 163.85 232.06 163.36 231.65C162.87 231.24 162.34 231.03 161.78 231.03C161.34 231.03 160.92 231.17 160.52 231.44Z" fill="#13110C"/>
<path d="M21.3999 24.9C20.5699 24.9 19.9799 24.86 19.6099 24.79C19.1899 24.69 18.7799 24.5 18.3899 24.2C17.5099 24.91 16.5399 25.27 15.4899 25.27C14.3599 25.27 13.3399 24.86 12.4399 24.05C11.4999 23.21 11.0299 22.23 11.0299 21.11V19.56H9.87988V17.54C9.91988 17.53 10.3099 17.5 11.0299 17.46V11.22C11.0299 10.09 11.4999 9.10004 12.4399 8.26004C13.3399 7.45004 14.3499 7.04004 15.4899 7.04004C16.6199 7.04004 17.6499 7.45004 18.5699 8.28004C19.4899 9.11004 19.9499 10.09 19.9499 11.22V21.11C19.9499 21.59 19.8499 22.05 19.6599 22.52C19.8599 22.65 20.0399 22.73 20.2099 22.77H21.4099V24.9H21.3999ZM13.1899 17.46C14.0399 17.56 14.8999 17.95 15.7499 18.64C16.2799 19.06 16.9599 19.73 17.7899 20.66V11.23C17.7899 10.73 17.5499 10.27 17.0699 9.87004C16.5899 9.46004 16.0699 9.26004 15.5099 9.26004C14.9499 9.26004 14.4199 9.46004 13.9299 9.87004C13.4399 10.28 13.1999 10.73 13.1999 11.23V17.46H13.1899ZM16.7599 22.67L14.0499 19.99C13.8299 19.76 13.5399 19.62 13.1899 19.57V21.1C13.1899 21.6 13.4299 22.05 13.9199 22.46C14.4099 22.87 14.9399 23.08 15.4999 23.08C15.9299 23.07 16.3499 22.94 16.7599 22.67Z" fill="#13110C"/>
</svg>
