<svg width="247" height="353" viewBox="0 0 247 353" fill="none" xmlns="http://www.w3.org/2000/svg">
<path d="M78.6871 244.368C75.3871 249.818 54.7071 274.128 37.5371 260.478C20.3771 246.828 23.9771 223.868 33.0471 208.808C42.1171 193.748 50.3371 176.168 37.7571 162.068C39.5271 177.488 40.0071 187.078 27.9871 199.248C15.9771 211.418 -4.34289 225.728 0.857114 258.638C6.07711 291.548 35.4371 323.048 78.3071 313.598C121.167 304.158 78.6871 244.368 78.6871 244.368Z" fill="url(#paint0_linear_871_250)"/>
<path opacity="0.3" d="M78.6871 244.368C77.0871 247.008 71.3971 254.068 64.0171 259.108C62.8971 266.118 61.7171 272.978 62.0771 280.168C62.3871 286.308 56.4171 292.548 50.1571 292.098C19.3571 289.828 2.7271 257.658 11.5371 229.518C14.5171 220.018 19.3571 211.508 24.1671 202.948C12.1571 214.438 -3.8529 228.998 0.837097 258.628C6.0571 291.538 35.4171 323.038 78.2871 313.588C121.167 304.158 78.6871 244.368 78.6871 244.368Z" fill="#E74668"/>
<path d="M42.1271 179.268C31.1571 181.618 28.2771 179.648 26.9871 172.578C25.6971 165.508 31.8771 155.438 27.2171 143.798C35.2271 157.518 47.6971 154.508 50.6871 164.078C53.6571 173.648 49.9071 177.588 42.1271 179.268Z" fill="#34E7DD"/>
<path opacity="0.3" d="M44.627 268.568C38.727 264.608 32.977 261.678 29.177 255.408C24.927 248.398 23.677 239.278 23.737 231.238C23.807 220.958 27.807 212.228 33.447 203.858C37.257 198.218 42.987 191.178 41.467 183.988C41.407 183.748 41.117 183.758 40.987 183.928C37.887 188.158 36.397 193.318 33.587 197.818C30.297 203.078 26.717 208.198 23.307 213.388C17.747 221.888 14.927 232.328 15.527 242.468C16.387 256.978 25.487 279.998 43.647 275.938C47.297 275.138 47.357 270.388 44.627 268.568Z" fill="#2B81AC"/>
<path d="M44.7771 178.538C45.4271 175.658 44.3971 172.088 43.6171 169.358C42.2271 164.568 39.4671 158.718 34.8471 156.368C34.4671 156.168 34.0971 156.548 34.2771 156.938C36.4771 161.628 38.0171 166.188 38.6271 171.358C38.9671 174.308 38.4671 177.178 39.4071 179.758C40.2571 179.618 41.1671 179.448 42.1471 179.248C43.0771 179.068 43.9471 178.828 44.7771 178.538Z" fill="url(#paint1_linear_871_250)"/>
<path d="M174.947 309.758C168.567 312.258 165.097 323.938 176.277 325.818C189.117 327.958 192.817 328.518 200.427 330.178C208.037 331.838 216.257 338.558 217.127 343.578C219.707 341.238 217.887 332.318 217.887 332.318C217.887 332.318 225.627 339.398 226.447 344.148C227.877 339.818 226.897 331.038 226.897 331.038C226.897 331.038 231.317 336.248 231.957 339.928C235.447 334.978 233.317 324.208 220.537 320.998C207.787 317.758 183.167 306.538 174.947 309.758Z" fill="#34E7DD"/>
<path opacity="0.3" d="M199.707 324.628C194.857 322.128 190.337 316.928 190.287 311.228C183.807 309.438 178.137 308.508 174.947 309.748C168.567 312.248 165.097 323.928 176.277 325.808C189.117 327.948 192.817 328.508 200.427 330.168C208.037 331.828 216.257 338.548 217.127 343.568C218.747 342.088 218.627 338.068 218.327 335.238C212.777 330.198 206.507 328.138 199.707 324.628Z" fill="#E74668"/>
<path d="M174.567 256.698C177.177 250.518 185.817 236.638 199.047 237.808C218.397 239.528 228.557 263.068 219.197 290.898C213.697 307.248 187.317 327.538 176.517 312.618C165.737 297.688 167.197 274.148 174.567 256.698Z" fill="#34E7DD"/>
<path d="M215.797 251.578C213.917 247.598 209.027 244.018 207.377 250.328C207.307 250.628 207.577 250.848 207.757 250.708C209.717 249.208 211.367 249.108 213.047 251.278C214.657 253.368 215.697 256.568 215.937 259.548C216.217 262.938 214.557 266.338 211.857 264.068C210.187 262.668 208.897 259.148 209.777 256.618C210.327 255.028 211.517 254.988 212.197 256.308C212.737 257.338 211.847 258.298 211.647 259.298C211.607 259.498 211.717 259.668 211.857 259.678C213.697 259.938 213.857 256.568 213.207 254.958C212.257 252.618 209.767 252.898 208.727 254.918C205.847 260.508 211.027 270.218 215.787 266.448C219.577 263.468 217.597 255.388 215.797 251.578Z" fill="#2EA48D"/>
<path opacity="0.3" d="M200.017 307.608C190.887 303.988 184.427 295.538 181.127 286.518C177.517 276.628 177.077 266.108 179.227 255.828C179.967 252.298 181.127 248.198 182.907 244.428C178.727 248.538 175.877 253.588 174.577 256.698C167.207 274.148 165.747 297.708 176.547 312.608C183.207 321.808 195.807 317.598 205.777 309.188C203.787 308.868 201.847 308.328 200.017 307.608Z" fill="#E74668"/>
<path d="M113.207 167.848C106.987 172.898 89.947 179.678 89.037 167.168C88.117 154.658 99.327 148.758 99.327 148.758C99.327 148.758 93.857 139.198 77.197 141.808C60.537 144.418 56.507 163.208 56.097 164.458C55.687 165.708 68.517 153.618 67.737 159.648C67.237 163.478 61.217 171.748 66.847 180.298C68.927 175.288 71.427 170.738 72.957 172.268C74.487 173.788 77.227 188.368 81.947 186.948C81.297 183.838 82.317 180.408 86.067 180.948C89.827 181.488 95.687 187.148 104.957 181.248C114.227 175.348 113.207 167.848 113.207 167.848Z" fill="#2BCACA"/>
<path d="M113.207 167.848C106.987 172.898 89.9471 179.678 89.0371 167.168C88.1171 154.658 99.3271 148.758 99.3271 148.758C99.3271 148.758 93.8571 139.198 77.1971 141.808C65.2071 143.678 59.7671 153.948 57.4971 160.018C59.1971 157.448 62.5271 154.028 64.7671 152.298C79.8171 140.668 94.7071 146.948 92.2671 148.968C87.0271 153.318 80.6071 160.928 84.8671 169.468C89.3471 178.428 96.3771 177.808 101.007 177.608C104.847 177.438 108.307 174.628 112.067 173.538C113.527 170.318 113.207 167.848 113.207 167.848Z" fill="#2BA5B3"/>
<path d="M83.937 151.238C77.017 155.548 67.917 166.488 65.217 176.998C65.597 178.088 66.127 179.178 66.847 180.298C67.967 177.588 69.217 175.038 70.367 173.478C70.797 172.098 71.287 170.708 71.907 169.268C74.667 162.848 79.047 156.288 84.257 151.638C84.477 151.448 84.187 151.078 83.937 151.238Z" fill="#2E788D"/>
<path d="M82.107 183.208C81.077 178.388 81.417 173.008 81.937 168.148C81.977 167.718 81.337 167.698 81.217 168.048C79.417 173.228 77.797 178.628 78.637 184.158C78.707 184.608 78.797 185.098 78.897 185.608C79.807 186.698 80.807 187.298 81.947 186.958C81.667 185.648 81.707 184.298 82.107 183.208Z" fill="#2E788D"/>
<path d="M73.9971 150.658C68.0871 152.428 61.7271 155.958 57.1971 160.838C56.5171 162.768 56.2071 164.138 56.0871 164.458C55.9271 164.958 57.8171 163.368 60.1271 161.648C64.0571 157.238 68.7571 153.518 74.1871 151.138C74.4671 151.008 74.2671 150.568 73.9971 150.658Z" fill="#2E788D"/>
<path d="M95.597 145.348C96.747 146.428 97.3671 148.728 95.8671 151.048C97.5371 151.888 101.517 149.078 101.517 147.668C101.537 146.288 96.297 144.518 95.597 145.348Z" fill="#2E788D"/>
<path d="M176.337 165.978C182.557 171.018 199.597 177.808 200.507 165.298C201.427 152.798 190.207 146.888 190.207 146.888C190.207 146.888 195.677 137.338 212.327 139.938C228.977 142.548 233.017 161.338 233.427 162.588C233.837 163.848 221.007 151.748 221.787 157.778C222.287 161.608 228.307 169.878 222.677 178.428C220.597 173.418 218.097 168.868 216.567 170.388C215.037 171.908 212.297 186.488 207.577 185.068C208.227 181.978 207.197 178.528 203.457 179.068C199.697 179.588 193.837 185.268 184.567 179.368C175.317 173.468 176.337 165.978 176.337 165.978Z" fill="#2BCACA"/>
<path d="M176.337 165.978C182.557 171.018 199.597 177.808 200.507 165.298C201.427 152.798 190.207 146.888 190.207 146.888C190.207 146.888 195.677 137.338 212.337 139.938C224.317 141.808 229.767 152.078 232.037 158.148C230.337 155.578 227.007 152.158 224.767 150.428C209.727 138.798 194.827 145.068 197.267 147.098C202.507 151.448 208.917 159.058 204.647 167.598C200.167 176.558 193.137 175.938 188.507 175.738C184.667 175.568 181.207 172.758 177.447 171.668C176.007 168.448 176.337 165.978 176.337 165.978Z" fill="#2BA5B3"/>
<path d="M205.607 149.368C212.527 153.678 221.627 164.618 224.327 175.128C223.947 176.218 223.417 177.328 222.697 178.438C221.567 175.728 220.327 173.178 219.187 171.618C218.757 170.238 218.267 168.858 217.647 167.408C214.887 160.978 210.507 154.428 205.297 149.778C205.067 149.578 205.357 149.208 205.607 149.368Z" fill="#2E788D"/>
<path d="M207.427 181.328C208.467 176.508 208.117 171.128 207.597 166.268C207.557 165.838 208.197 165.798 208.307 166.168C210.107 171.348 211.727 176.748 210.887 182.278C210.817 182.728 210.727 183.218 210.647 183.728C209.737 184.818 208.717 185.418 207.597 185.078C207.867 183.778 207.827 182.428 207.427 181.328Z" fill="#2E788D"/>
<path d="M215.557 148.788C221.467 150.558 227.827 154.088 232.357 158.968C233.037 160.898 233.347 162.268 233.467 162.588C233.627 163.088 231.737 161.508 229.427 159.778C225.497 155.368 220.797 151.648 215.367 149.268C215.067 149.138 215.267 148.698 215.557 148.788Z" fill="#2E788D"/>
<path d="M193.957 143.468C192.807 144.548 192.187 146.848 193.677 149.168C192.017 150.008 188.027 147.178 188.027 145.788C188.017 144.418 193.257 142.638 193.957 143.468Z" fill="#2E788D"/>
<path d="M129.587 123.128C127.997 135.918 112.087 164.948 99.4571 190.038C86.8471 215.148 75.6171 248.898 72.6971 261.938C61.3571 312.608 107.437 333.098 148.517 327.298C178.097 323.128 206.307 301.668 203.217 253.318C200.127 204.968 172.527 145.658 173.497 122.858C174.447 100.038 129.587 123.128 129.587 123.128Z" fill="url(#paint2_linear_871_250)"/>
<path d="M140.867 128.478C140.907 134.308 134.017 164.798 127.857 179.428C121.707 194.068 106.577 240.448 106.697 258.788C106.807 277.138 115.567 310.168 152.677 309.368C191.427 308.528 202.397 284.628 199.347 251.828C195.837 214.058 167.227 145.828 169.627 128.708C172.007 111.598 140.867 128.478 140.867 128.478Z" fill="url(#paint3_linear_871_250)"/>
<path d="M199.377 270.258C189.257 276.908 177.307 281.078 165.577 283.028C155.897 284.618 146.487 282.958 137.017 280.898C130.767 279.538 124.477 279.518 118.367 277.508C117.617 277.268 116.877 278.048 117.087 278.788C118.687 284.358 126.707 283.898 131.337 284.648C142.477 286.478 152.357 289.508 163.827 288.248C176.597 286.858 189.017 282.888 198.677 275.098C198.967 273.538 199.207 271.918 199.377 270.258Z" fill="#DC9D56"/>
<path d="M197.767 240.628C197.427 238.698 197.027 236.728 196.607 234.708C192.217 237.528 187.687 240.138 182.587 242.128C172.647 245.998 161.667 247.948 151.037 248.268C138.297 248.668 120.947 246.848 109.397 239.288C109.127 240.538 108.867 241.768 108.627 242.978C118.467 251.148 137.907 252.368 148.227 252.868C162.687 253.548 183.447 249.888 197.767 240.628Z" fill="#DC9D56"/>
<path d="M156.987 218.858C167.927 218.658 181.127 216.688 190.427 209.998C190.087 208.768 189.737 207.528 189.377 206.298C178.877 210.338 168.587 213.428 157.007 213.918C149.747 214.218 142.267 213.848 134.997 213.578C128.507 213.338 123.317 210.568 117.637 208.758C117.367 209.628 117.097 210.488 116.847 211.368C129.037 218.388 142.667 219.108 156.987 218.858Z" fill="#DC9D56"/>
<path d="M135.317 156.088C146.807 160.898 161.707 159.808 174.537 156.388C174.157 154.998 173.787 153.648 173.427 152.318C169.107 152.968 164.797 153.648 160.457 154.048C152.057 154.828 144.257 153.578 136.347 152.048C136.007 153.398 135.667 154.738 135.317 156.088Z" fill="#DC9D56"/>
<path d="M181.447 179.808C181.017 178.388 180.587 176.988 180.157 175.578C170.507 178.348 160.827 179.878 150.307 179.788C144.807 179.748 135.367 180.138 128.577 177.648C128.337 178.258 128.097 178.858 127.857 179.418C127.617 179.998 127.347 180.648 127.077 181.348C132.477 184.388 140.347 184.918 145.767 185.288C157.767 186.118 170.597 185.038 181.447 179.808Z" fill="#DC9D56"/>
<path opacity="0.3" d="M169.347 313.118C141.747 324.508 99.6271 307.598 91.2071 274.868C82.1971 239.778 100.207 205.748 114.877 175.008C119.227 165.918 123.327 156.748 126.977 147.358C128.347 143.838 143.287 132.368 155.577 133.188C171.667 134.278 173.347 143.538 175.917 140.658C174.227 133.508 173.247 127.428 173.447 122.828C174.407 100.018 129.567 123.108 129.567 123.108C127.977 135.898 112.067 164.928 99.4371 190.018C86.8271 215.128 75.5971 248.878 72.6771 261.918C61.3371 312.588 107.417 333.078 148.497 327.278C172.447 323.898 195.467 309.198 201.747 278.078C196.437 293.108 182.867 307.538 169.347 313.118Z" fill="#E74668"/>
<path d="M136.637 30.4078C135.607 27.9078 134.487 20.4078 137.827 19.2878C141.157 18.1778 145.057 29.8578 145.057 29.8578L136.637 30.4078Z" fill="#F1AD55"/>
<path d="M164.487 30.9578C165.327 28.1778 169.757 20.1178 172.537 20.9478C175.317 21.7878 172.537 32.0678 172.537 32.0678L164.487 30.9578Z" fill="#F1AD55"/>
<path d="M202.637 78.6978C199.647 83.9078 201.117 102.688 201.117 102.688C201.117 102.688 206.867 90.1378 216.067 96.1378C214.957 85.9278 221.197 83.7978 228.087 86.2678C225.307 76.2778 238.557 62.2278 238.557 62.2278C238.557 62.2278 211.297 63.6478 202.637 78.6978Z" fill="url(#paint4_linear_871_250)"/>
<path d="M199.137 76.7279C200.337 70.4579 203.797 65.7679 213.797 62.9879C223.777 60.2079 236.237 61.9279 243.517 53.4179C249.777 46.1279 244.187 66.2379 227.957 68.6679C209.347 71.4479 204.517 79.1079 202.457 84.7479C200.427 90.3879 199.137 76.7279 199.137 76.7279Z" fill="#2E788D"/>
<path d="M214.577 90.3178C213.177 87.0878 210.187 80.0578 209.317 80.6178C208.647 81.0478 211.427 87.9178 212.587 90.7978C213.237 92.4178 213.747 93.8078 214.287 95.1678C214.867 95.4078 215.477 95.7178 216.097 96.1278C215.997 95.2378 215.987 94.4378 215.987 93.6578C215.527 92.5478 215.067 91.4378 214.577 90.3178Z" fill="#2E788D"/>
<path d="M227.887 86.1778C227.957 86.2078 228.027 86.2178 228.117 86.2478C227.807 85.1178 227.717 83.9378 227.777 82.7278C224.147 80.1878 218.937 77.3778 216.967 77.0378C216.757 76.9978 223.717 83.3378 227.887 86.1778Z" fill="#2E788D"/>
<path d="M99.387 78.6878C102.377 83.8978 100.907 102.678 100.907 102.678C100.907 102.678 95.157 90.1278 85.957 96.1078C87.067 85.8978 80.827 83.7778 73.937 86.2378C76.717 76.2478 63.467 62.1978 63.467 62.1978C63.467 62.1978 90.737 63.6478 99.387 78.6878Z" fill="url(#paint5_linear_871_250)"/>
<path d="M102.887 76.7279C101.677 70.4579 98.2271 65.7679 88.2271 62.9879C78.2471 60.2079 65.7871 61.9279 58.4871 53.4179C52.2371 46.1279 57.8171 66.2379 74.0471 68.6679C92.6571 71.4479 97.4871 79.1079 99.5471 84.7479C101.607 90.3879 102.887 76.7279 102.887 76.7279Z" fill="#2E788D"/>
<path d="M87.467 90.3178C88.867 87.0878 91.857 80.0578 92.727 80.6178C93.397 81.0478 90.617 87.9178 89.467 90.7978C88.817 92.4178 88.317 93.8178 87.767 95.1678C87.187 95.4078 86.577 95.7178 85.957 96.1278C86.057 95.2378 86.067 94.4378 86.057 93.6778C86.497 92.5478 86.967 91.4378 87.467 90.3178Z" fill="#2E788D"/>
<path d="M74.1571 86.1778C74.0871 86.2078 73.9971 86.2178 73.9271 86.2478C74.2371 85.1178 74.3271 83.9378 74.2671 82.7278C77.8971 80.1778 83.1071 77.3778 85.0671 77.0378C85.2671 76.9978 78.3071 83.3378 74.1571 86.1778Z" fill="#2E788D"/>
<path d="M115.457 43.0579C112.397 39.9979 105.167 22.7879 107.127 20.8179C109.067 18.8779 123.517 35.5579 123.517 35.5579L115.457 43.0579Z" fill="#F1AD55"/>
<path d="M189.017 45.5479C192.077 42.4879 199.317 25.2779 197.347 23.3079C195.407 21.3679 180.967 38.0479 180.967 38.0479L189.017 45.5479Z" fill="#F1AD55"/>
<path d="M196.437 57.9178C198.107 56.8778 217.687 46.0278 218.927 47.9178C220.177 49.7878 199.967 68.5578 199.967 68.5578L196.437 57.9178Z" fill="#F1AD55"/>
<path d="M110.797 58.2078C109.127 57.1578 89.5471 46.3178 88.2871 48.1978C87.0371 50.0678 107.247 68.8378 107.247 68.8378L110.797 58.2078Z" fill="#F1AD55"/>
<path d="M109.107 47.3679C106.187 52.5279 100.917 70.3579 99.7271 79.1279C98.5371 87.8979 96.497 101.508 107.127 114.238C116.407 125.348 127.117 130.758 135.867 133.628C144.637 136.498 162.587 137.998 176.487 131.328C187.927 125.858 200.777 114.338 202.367 103.078C203.957 91.8179 205.057 68.0279 197.467 53.0679C189.867 38.1079 171.047 26.9679 153.127 27.4979C135.227 28.0079 118.577 30.6179 109.107 47.3679Z" fill="url(#paint6_linear_871_250)"/>
<path d="M109.107 47.3679C106.187 52.5279 100.917 70.3579 99.7271 79.1279C98.5371 87.8979 96.497 101.508 107.127 114.238C116.407 125.348 127.117 130.758 135.867 133.628C144.637 136.498 162.587 137.998 176.487 131.328C187.927 125.858 200.777 114.338 202.367 103.078C203.957 91.8179 205.057 68.0279 197.467 53.0679C189.867 38.1079 171.047 26.9679 153.127 27.4979C135.227 28.0079 118.577 30.6179 109.107 47.3679Z" fill="url(#paint7_radial_871_250)"/>
<path opacity="0.3" d="M171.457 129.268C161.747 133.008 146.747 131.368 137.047 128.188C125.597 124.428 110.117 110.488 107.467 104.628C101.627 91.7477 103.967 73.7677 107.637 60.3577C109.267 54.3977 110.787 47.5877 113.247 41.4177C111.747 43.1777 110.357 45.1377 109.097 47.3577C106.177 52.5177 100.907 70.3477 99.717 79.1177C98.527 87.8877 96.487 101.498 107.117 114.228C116.397 125.338 127.107 130.748 135.857 133.618C144.627 136.488 162.577 137.988 176.477 131.318C187.917 125.838 200.767 114.328 202.357 103.068C203.197 97.1277 203.887 87.6777 203.247 77.8877C202.697 81.9777 203.927 116.718 171.457 129.268Z" fill="#EF4D54"/>
<path opacity="0.3" d="M141.457 96.6277C139.237 96.7677 138.817 94.3977 142.567 92.3177C146.327 90.2277 158.947 87.0377 167.707 92.1877C171.577 94.4577 170.627 96.9077 168.827 96.2177C167.017 95.5277 160.497 93.4377 154.797 93.5777C149.097 93.7077 141.457 96.6277 141.457 96.6277Z" fill="#F74D84"/>
<path opacity="0.23" d="M154.447 48.5779C159.237 47.9579 161.517 86.7379 161.517 86.7379L148.397 87.5779C148.407 87.5679 148.237 49.3979 154.447 48.5779Z" fill="#FC6258"/>
<path opacity="0.3" d="M176.377 91.2078C173.527 88.6678 172.437 70.0478 180.597 63.5478C188.747 57.0378 200.047 73.0378 195.447 90.0178C186.897 95.1778 176.377 91.2078 176.377 91.2078Z" fill="#F74D84"/>
<path d="M156.707 36.3779C151.077 36.5479 147.357 34.3879 148.557 27.9279C149.767 21.4579 153.407 3.08787 156.097 3.06787C158.807 3.05787 161.457 26.3879 161.897 28.8879C162.327 31.3779 161.157 36.2379 156.707 36.3779Z" fill="#F1AD55"/>
<path d="M176.827 65.6178C175.577 62.8078 186.917 57.4578 188.297 61.5078C189.417 64.8378 178.257 68.8378 176.827 65.6178Z" fill="#2E788D"/>
<path d="M169.547 118.928C169.757 119.618 171.517 123.088 172.427 122.798C173.317 122.518 174.557 117.578 174.397 117.298C174.247 117.008 169.547 118.928 169.547 118.928Z" fill="white"/>
<path d="M141.917 120.038C141.717 120.728 140.007 124.218 139.097 123.958C138.187 123.688 136.917 118.768 137.047 118.488C137.187 118.188 141.917 120.038 141.917 120.038Z" fill="white"/>
<path d="M187.717 73.6677C186.497 71.8977 184.257 72.1477 182.497 72.9577C180.367 73.9377 178.857 75.4577 178.227 77.7377C178.127 78.0777 178.597 78.2477 178.777 77.9677C179.667 76.6177 181.077 75.6377 182.467 74.8477C184.007 73.9677 185.757 74.1277 187.457 74.1277C187.677 74.1177 187.847 73.8477 187.717 73.6677Z" fill="#2E788D"/>
<path opacity="0.3" d="M132.157 92.2478C135.067 89.5778 136.057 71.9178 127.537 65.3078C119.017 58.6978 107.457 73.7778 112.427 91.2678C121.357 96.4878 132.157 92.2478 132.157 92.2478Z" fill="#F74D84"/>
<path d="M132.127 65.2779C133.387 62.3579 120.827 58.5879 119.457 62.7779C118.347 66.2479 130.697 68.6279 132.127 65.2779Z" fill="#2E788D"/>
<path d="M175.257 92.3077C174.517 89.1577 177.557 76.6777 186.257 76.4077C194.957 76.1377 197.027 87.6677 195.427 91.7377C193.827 95.8177 175.707 94.2277 175.257 92.3077Z" fill="#F7D92D"/>
<path d="M176.487 88.6878C179.157 86.1478 183.547 84.5178 186.337 84.7178C189.287 84.9278 192.817 85.8478 195.577 87.5978C195.377 82.7578 192.717 76.2378 186.247 76.4378C179.467 76.6478 176.267 84.4678 175.647 89.1178C175.897 88.9578 176.197 88.8178 176.487 88.6878Z" fill="#F6AA31"/>
<path d="M189.387 86.3578C189.417 90.0878 187.217 93.1278 184.487 93.1378C181.767 93.1478 179.527 90.1478 179.497 86.4178C179.467 82.6878 181.667 79.6478 184.387 79.6378C187.137 79.6178 189.357 82.6278 189.387 86.3578Z" fill="#673A28"/>
<path d="M175.607 92.4878C174.657 92.4878 175.127 85.7178 177.217 81.3078C179.857 75.7778 187.267 71.7378 193.347 78.4278C197.427 82.9278 196.437 90.2678 195.117 91.4778C195.107 89.5078 195.147 87.7878 193.527 83.7578C191.387 78.4378 183.777 74.0278 178.577 83.2878C176.167 87.5678 176.287 90.4778 175.607 92.4878Z" fill="#2E788D"/>
<path d="M191.357 85.4978C191.367 87.3978 189.837 88.9478 187.937 88.9578C186.037 88.9678 184.497 87.4378 184.477 85.5378C184.467 83.6378 185.997 82.0878 187.897 82.0778C189.787 82.0578 191.347 83.5978 191.357 85.4978Z" fill="white"/>
<path opacity="0.4" d="M183.547 88.9879C183.557 90.5779 182.287 91.8779 180.687 91.8779C179.097 91.8879 177.807 90.5979 177.797 89.0079C177.787 87.4179 179.077 86.1179 180.657 86.1179C182.247 86.1179 183.537 87.3979 183.547 88.9879Z" fill="white"/>
<path d="M132.497 92.8578C133.187 89.6978 130.007 77.2678 121.297 77.0978C112.597 76.9278 110.667 88.4878 112.327 92.5478C113.987 96.6178 132.067 94.7878 132.497 92.8578Z" fill="#F7D92D"/>
<path d="M131.527 89.6478C128.747 87.0478 124.167 85.4378 121.307 85.6578C118.247 85.9178 114.627 86.9178 111.797 88.7478C111.927 83.7578 114.607 76.9777 121.297 77.0877C128.297 77.2177 131.717 85.2478 132.427 90.0478C132.137 89.9078 131.857 89.7678 131.527 89.6478Z" fill="#F6AA31"/>
<path d="M118.177 87.3977C118.207 91.2577 120.497 94.3577 123.317 94.3477C126.137 94.3377 128.407 91.1877 128.377 87.3377C128.347 83.4777 126.037 80.3777 123.217 80.3877C120.417 80.3977 118.147 83.5377 118.177 87.3977Z" fill="#673A28"/>
<path d="M132.497 93.5478C133.477 93.5478 132.907 86.5377 130.687 82.0177C127.897 76.3477 120.167 72.2477 113.977 79.2477C109.827 83.9577 110.927 91.5477 112.317 92.7677C112.297 90.7377 112.247 88.9477 113.857 84.7677C115.997 79.2377 123.807 74.5877 129.307 84.0877C131.847 88.4777 131.757 91.4778 132.497 93.5478Z" fill="#2E788D"/>
<path d="M130.607 86.4479C130.617 88.4179 129.037 90.0179 127.077 90.0179C125.107 90.0279 123.507 88.4479 123.507 86.4879C123.497 84.5179 125.077 82.9179 127.037 82.9179C128.997 82.8979 130.597 84.4879 130.607 86.4479Z" fill="white"/>
<path opacity="0.4" d="M122.527 90.0577C122.537 91.7077 121.207 93.0377 119.577 93.0477C117.937 93.0577 116.587 91.7277 116.587 90.0877C116.577 88.4377 117.907 87.1077 119.537 87.0977C121.187 87.0877 122.527 88.3977 122.527 90.0577Z" fill="white"/>
<path d="M120.207 74.2479C121.457 72.4079 124.517 72.0079 126.347 72.8179C128.547 73.7979 129.377 75.9779 130.077 78.3179C130.177 78.6679 129.707 78.8579 129.507 78.5579C128.577 77.1779 127.097 76.1779 125.647 75.3779C124.027 74.4979 122.227 74.6679 120.477 74.6979C120.267 74.7279 120.077 74.4479 120.207 74.2479Z" fill="#2E788D"/>
<path d="M155.347 126.298C155.377 126.298 155.407 126.298 155.437 126.298C155.707 126.268 155.937 126.118 156.077 125.888C158.447 121.808 164.087 120.708 169.077 119.748L170.197 119.538C177.117 118.158 179.027 112.498 179.097 112.258C179.237 111.818 178.997 111.348 178.557 111.208C178.117 111.068 177.647 111.308 177.507 111.728C177.437 111.928 175.797 116.708 169.867 117.888L168.747 118.098C164.017 119.018 158.217 120.138 155.227 124.138C150.137 119.158 142.537 117.938 139.407 117.658C136.227 117.358 134.767 115.158 133.707 113.548C133.507 113.248 133.327 112.978 133.157 112.758C132.887 112.388 132.367 112.308 131.997 112.588C131.627 112.858 131.547 113.378 131.827 113.748C131.987 113.958 132.137 114.198 132.327 114.468C133.447 116.138 135.307 118.948 139.257 119.318C141.677 119.548 149.927 120.698 154.737 126.028C154.887 126.208 155.117 126.298 155.347 126.298Z" fill="#2E788D"/>
<path d="M129.827 115.808C129.917 115.808 130.017 115.798 130.097 115.768C132.447 114.968 134.387 111.748 135.057 109.928C135.217 109.488 134.987 109.018 134.557 108.848C134.127 108.688 133.647 108.918 133.497 109.348C132.897 110.968 131.257 113.618 129.567 114.188C129.127 114.328 128.897 114.808 129.047 115.248C129.147 115.578 129.477 115.808 129.827 115.808Z" fill="#2E788D"/>
<path d="M181.737 114.118C182.277 114.108 182.647 113.718 182.627 113.268C182.617 112.798 182.247 112.448 181.777 112.458C180.247 112.458 177.807 110.698 177.487 109.368C177.377 108.928 176.917 108.648 176.477 108.758C176.027 108.868 175.757 109.328 175.867 109.768C176.417 112.008 179.667 114.118 181.737 114.118Z" fill="#2E788D"/>
<path opacity="0.23" d="M139.797 102.148C139.177 97.6778 148.537 94.8978 154.787 94.6178C161.037 94.3378 169.157 97.9678 169.377 100.758C169.587 103.538 159.387 103.818 154.377 103.818C149.387 103.818 139.797 102.148 139.797 102.148Z" fill="#FC6258"/>
<path d="M144.347 107.128C147.057 103.458 150.187 113.098 150.187 113.098C150.187 113.098 142.407 109.768 144.347 107.128Z" fill="#2E788D"/>
<path d="M166.117 106.838C163.427 103.168 160.277 112.808 160.277 112.808C160.277 112.808 168.067 109.498 166.117 106.838Z" fill="#2E788D"/>
<path opacity="0.22" d="M146.837 99.0879C146.727 97.0979 163.787 95.8579 163.917 99.0879C164.077 102.318 146.977 101.568 146.837 99.0879Z" fill="#FC6258"/>
<path d="M137.827 98.7878C137.827 98.7878 144.217 92.6778 156.027 92.3878C167.137 92.1278 172.147 98.7878 172.147 98.7878C172.147 98.7878 164.227 94.2078 156.027 94.3478C147.677 94.4878 137.827 98.7878 137.827 98.7878Z" fill="#2E788D"/>
<path d="M188.847 44.6779C188.847 44.6779 220.937 18.5379 223.247 19.9879C225.547 21.4379 197.687 58.1879 196.247 59.8579C188.797 56.9379 188.847 44.6779 188.847 44.6779Z" fill="#F1AD55"/>
<path d="M206.917 41.0579C202.677 45.5979 196.877 52.7179 190.077 52.2779C191.087 55.3879 192.917 58.5479 196.227 59.8379C197.237 58.6779 211.037 40.4879 218.567 29.0879C214.827 33.2279 210.737 36.9679 206.917 41.0579Z" fill="#E0904E"/>
<path d="M117.417 43.8377C117.417 43.8377 83.5971 17.1477 81.3071 18.5877C79.0071 20.0377 108.587 57.3377 110.037 59.0077C119.907 53.7477 117.417 43.8377 117.417 43.8377Z" fill="#F1AD55"/>
<path d="M113.207 51.1079C104.377 46.3179 97.427 40.9679 91.507 32.6979C88.447 28.3979 84.097 23.7879 81.177 18.8679C80.997 22.5379 108.627 57.3879 110.037 59.0279C113.597 57.1379 115.527 54.6479 116.567 52.2379C115.467 52.0579 114.357 51.7179 113.207 51.1079Z" fill="#E0904E"/>
<path d="M168.937 33.3278C168.187 31.3178 189.357 1.01785 191.857 2.26785C194.347 3.51785 180.817 37.9278 180.817 37.9278C180.817 37.9278 171.147 39.2978 168.937 33.3278Z" fill="#F1AD55"/>
<path d="M138.717 31.0977C139.357 29.0377 118.297 -1.21232 115.797 0.0376823C113.287 1.28768 126.837 35.6777 126.837 35.6777C126.837 35.6777 136.147 39.2977 138.717 31.0977Z" fill="#F1AD55"/>
<path d="M156.707 30.9879C154.117 24.9979 152.457 19.4379 152.497 12.8479C152.507 11.8379 152.597 10.7179 152.767 9.54785C150.967 15.4879 149.307 23.9579 148.567 27.9279C147.357 34.3979 151.087 36.5479 156.717 36.3779C158.557 36.3179 159.837 35.4379 160.677 34.2779C159.047 34.0079 157.567 33.0179 156.707 30.9879Z" fill="#E0904E"/>
<path d="M182.357 32.8177C177.297 29.3377 176.437 23.7077 177.867 18.3877C172.877 25.4677 168.587 32.3977 168.927 33.3277C171.147 39.3177 180.807 37.9077 180.807 37.9077C180.807 37.9077 181.577 35.9677 182.687 33.0177C182.587 32.9377 182.467 32.8877 182.357 32.8177Z" fill="#E0904E"/>
<path d="M136.737 31.9679C130.187 27.9579 125.497 21.8279 121.937 15.1179C119.787 11.0579 116.817 6.36787 115.527 1.56787C116.107 8.41787 126.837 35.6779 126.837 35.6779C126.837 35.6779 134.927 38.8079 138.107 32.5879C137.657 32.4479 137.197 32.2479 136.737 31.9679Z" fill="#E0904E"/>
<path d="M124.627 50.8279C123.507 46.3879 122.957 39.1579 126.017 38.0479C129.077 36.9379 132.817 44.1279 133.937 48.8579C130.287 54.5879 124.627 50.8279 124.627 50.8279Z" fill="#F1AD55"/>
<path d="M125.717 44.9578C124.957 43.2278 124.467 41.5078 124.397 39.7778C123.247 42.4578 123.777 47.4478 124.627 50.8278C124.627 50.8278 129.657 54.1578 133.287 49.7378C130.167 49.4578 126.797 47.4078 125.717 44.9578Z" fill="#E0904E"/>
<path d="M172.477 49.8879C173.587 45.5779 176.017 38.7379 179.767 39.8479C182.217 40.5679 181.847 51.6679 181.847 51.6679C181.847 51.6679 176.437 55.4279 172.477 49.8879Z" fill="#F1AD55"/>
<path d="M180.487 51.7077C177.567 49.9177 175.247 46.8377 174.827 43.3977C173.767 45.4277 172.987 47.9177 172.477 49.8977C175.627 54.2777 179.677 52.8177 181.207 52.0377C180.957 51.9477 180.717 51.8477 180.487 51.7077Z" fill="#E0904E"/>
<path d="M102.187 68.0579C98.4971 78.1979 96.6271 96.4079 102.267 106.668C98.9971 95.1679 100.247 78.0779 102.187 68.0579Z" fill="#2E788D"/>
<path d="M201.947 66.4779C201.877 66.2179 203.027 90.4179 202.667 100.368C202.667 100.938 207.477 87.6379 201.947 66.4779Z" fill="#2E788D"/>
<path d="M84.087 19.5779C89.207 28.9379 99.267 36.7679 108.607 39.6379C109.787 40.0079 110.807 39.8179 111.607 39.3279C103.767 33.2579 90.077 22.8879 84.087 19.5779Z" fill="#FFBD76"/>
<path d="M116.247 0.0678711C117.187 3.00787 119.177 6.16787 120.027 7.75787C122.647 12.7379 125.777 17.6579 130.887 20.3579C131.597 20.7379 132.287 20.8679 132.947 20.8379C127.127 12.1179 118.687 0.927871 116.247 0.0678711Z" fill="#FFBD76"/>
<path d="M161.267 24.2879C160.227 16.7679 158.187 3.03788 156.107 3.05788C155.697 3.05788 155.267 3.48788 154.827 4.20788C154.447 10.6779 156.537 18.0479 159.417 22.8879C159.847 23.6079 160.517 24.0779 161.267 24.2879Z" fill="#FFBD76"/>
<path d="M191.837 2.2478C191.117 1.8778 188.807 4.1878 185.927 7.6978C184.507 12.5778 184.047 17.9778 183.887 21.8078C183.817 23.4578 184.557 24.5778 185.597 25.1878C189.217 15.2578 193.327 2.9878 191.837 2.2478Z" fill="#FFBD76"/>
<path d="M223.237 19.9779C221.787 19.0679 208.597 29.0579 198.967 36.5879C199.147 36.6479 199.337 36.6879 199.547 36.6879C205.057 36.8179 209.897 32.2879 213.987 29.1179C216.327 27.3179 220.007 25.1079 222.587 22.4079C223.277 21.0579 223.547 20.1779 223.237 19.9779Z" fill="#FFBD76"/>
<path d="M80.877 317.288C74.257 319.888 70.647 332.028 82.267 333.968C95.607 336.198 99.447 336.758 107.357 338.488C115.267 340.218 123.797 347.208 124.707 352.418C127.387 349.978 125.497 340.718 125.497 340.718C125.497 340.718 133.537 348.078 134.387 352.998C135.857 348.518 134.857 339.378 134.857 339.378C134.857 339.378 139.447 344.778 140.117 348.628C143.737 343.478 141.517 332.298 128.257 328.958C114.987 325.608 89.407 313.948 80.877 317.288Z" fill="#34E7DD"/>
<path opacity="0.3" d="M117.907 339.798C113.177 334.878 106.597 332.608 101.877 327.798C99.707 325.588 97.867 322.208 97.297 318.948C90.347 316.988 84.257 315.958 80.857 317.278C74.237 319.878 70.627 332.018 82.247 333.958C95.587 336.188 99.427 336.748 107.337 338.478C115.247 340.208 123.777 347.198 124.687 352.408C125.337 351.808 125.727 350.808 125.937 349.618C123.407 346.198 120.797 342.838 117.907 339.798Z" fill="#E74668"/>
<path d="M109.727 241.478C103.877 240.958 98.8871 243.308 94.8871 246.658C98.1371 244.658 101.887 243.438 106.137 243.818C125.227 245.508 135.247 268.738 126.027 296.198C124.867 299.648 122.757 303.278 120.057 306.708C118.567 309.588 104.377 321.158 102.127 323.128C117.677 321.458 127.417 305.468 130.517 296.238C140.167 267.538 129.687 243.248 109.727 241.478Z" fill="#2EA48D"/>
<path d="M80.4771 262.158C83.1971 255.728 92.1671 241.318 105.907 242.538C126.007 244.308 136.567 268.778 126.847 297.688C121.137 314.678 93.7371 335.748 82.5271 320.238C71.3071 304.758 72.8071 280.288 80.4771 262.158Z" fill="#34E7DD"/>
<path d="M116.877 258.218C113.777 253.398 105.777 249.068 103.117 256.718C102.987 257.078 103.427 257.358 103.727 257.188C106.917 255.368 109.637 255.248 112.387 257.868C115.037 260.378 116.727 264.268 117.137 267.858C117.607 271.958 114.887 276.068 110.447 273.338C107.697 271.638 105.597 267.378 107.047 264.328C107.957 262.408 109.877 262.358 111.017 263.958C111.897 265.208 110.447 266.358 110.127 267.578C110.067 267.818 110.237 268.018 110.477 268.048C113.507 268.348 113.767 264.288 112.687 262.328C111.127 259.488 107.057 259.848 105.347 262.288C100.627 269.058 109.107 280.788 116.897 276.218C123.087 272.568 119.837 262.828 116.877 258.218Z" fill="#2EA48D"/>
<path opacity="0.3" d="M106.927 315.038C97.4471 311.278 90.7371 302.498 87.2971 293.128C83.5371 282.858 83.0871 271.928 85.3271 261.238C86.0971 257.578 87.2971 253.308 89.1571 249.398C84.8171 253.668 81.8571 258.918 80.4971 262.148C72.8271 280.258 71.3271 304.748 82.5371 320.228C89.4571 329.798 102.547 325.418 112.897 316.678C110.837 316.358 108.807 315.788 106.927 315.038Z" fill="#E74668"/>
<path d="M75.897 276.088C75.967 275.688 75.377 275.518 75.287 275.918C74.107 281.408 73.867 286.868 73.767 292.468C73.677 298.028 72.977 303.818 75.187 309.048C75.347 309.428 76.067 309.448 76.007 308.938C74.667 298.198 73.947 286.808 75.897 276.088Z" fill="#2EA48D"/>
<path d="M183.267 169.328C187.437 168.458 221.127 196.818 211.397 210.578C204.847 219.838 191.397 195.028 191.397 195.028L183.267 169.328Z" fill="#34E7DD"/>
<path d="M130.227 204.888C130.227 204.888 116.777 229.698 110.227 220.438C100.507 206.678 134.197 178.318 138.357 179.188L130.227 204.888Z" fill="#34E7DD"/>
<path d="M193.767 259.368H126.787C122.667 259.368 119.317 256.028 119.317 251.898V148.548C119.317 144.428 122.657 141.078 126.787 141.078H193.767C197.887 141.078 201.237 144.418 201.237 148.548V251.898C201.237 256.018 197.887 259.368 193.767 259.368Z" fill="white" stroke="black" stroke-width="0.5266" stroke-miterlimit="10"/>
<path d="M137.307 154.248V177.568H140.877V181.448H128.767V177.568H132.627V154.248H128.767V150.368H141.287V154.248H137.307ZM152.677 154.248L143.097 165.048L152.947 177.568H154.407V181.448H146.077V177.568H147.097L137.797 165.198L147.377 154.248H146.187V150.368H154.107V154.248H152.677Z" fill="black"/>
<path d="M189.107 207.328C189.197 207.368 189.287 207.398 189.377 207.438C190.147 207.708 190.587 208.438 190.457 209.258C190.347 209.998 189.677 210.568 188.897 210.588C188.847 210.588 188.797 210.588 188.747 210.588C182.417 210.588 176.077 210.588 169.747 210.588C168.677 210.588 167.947 209.858 168.027 208.838C168.077 208.168 168.437 207.718 169.047 207.468C169.157 207.418 169.277 207.378 169.387 207.328C175.957 207.328 182.537 207.328 189.107 207.328Z" fill="black"/>
<path d="M185.977 229.928C185.977 230.188 185.977 230.388 185.977 230.578C185.977 234.048 185.977 244.128 185.977 247.598C185.977 249.148 185.057 250.078 183.537 250.078C180.677 250.078 177.827 250.078 174.967 250.078C173.437 250.078 172.517 249.148 172.517 247.608C172.517 244.138 172.517 234.058 172.517 230.588C172.517 230.398 172.517 230.198 172.517 229.928C172.327 229.928 172.157 229.928 171.997 229.928C170.967 229.928 169.927 229.948 168.897 229.918C167.997 229.898 167.327 229.458 166.947 228.628C166.557 227.788 166.657 226.988 167.227 226.248C167.347 226.098 167.487 225.958 167.617 225.818C170.887 222.528 174.157 219.238 177.427 215.958C178.647 214.728 179.857 214.728 181.077 215.958C184.357 219.258 187.647 222.558 190.927 225.858C191.387 226.318 191.747 226.818 191.777 227.498C191.837 228.838 190.887 229.888 189.557 229.918C188.387 229.948 187.217 229.928 185.977 229.928Z" fill="black"/>
<path d="M210.077 201.368C209.217 199.138 201.887 185.638 193.347 185.188C183.567 184.658 182.627 196.838 182.627 196.838C182.627 196.838 187.137 191.398 189.217 192.508C187.977 193.418 187.077 197.718 187.537 199.148C188.767 196.658 191.207 195.608 192.557 195.448C191.897 196.868 190.357 200.818 191.967 203.098C193.367 199.818 196.477 198.058 197.937 198.698C203.927 214.978 207.147 212.778 207.147 212.778L210.077 201.368Z" fill="#34E7DD"/>
<path d="M208.197 195.618C206.407 192.348 202.967 190.478 200.107 188.288C200.067 188.258 200.027 188.298 200.057 188.338C202.287 190.688 204.737 192.838 206.747 195.388C208.447 197.548 209.217 200.698 210.147 203.278C210.177 203.348 210.287 203.328 210.287 203.258C209.987 200.408 209.607 198.178 208.197 195.618Z" fill="#2EA48D"/>
<path d="M211.947 209.318C212.017 209.078 211.667 208.958 211.527 209.118C207.447 213.818 202.387 206.528 201.157 203.258C200.407 201.268 200.357 199.438 198.587 198.088C196.117 196.208 192.657 199.798 192.147 202.028C192.087 202.258 192.457 202.378 192.527 202.148C193.357 199.798 198.167 196.228 199.147 201.838C199.327 202.888 199.427 203.878 199.677 204.918C200.257 207.398 201.887 209.558 203.697 211.258C206.627 214.038 210.777 213.138 211.947 209.318Z" fill="#2EA48D"/>
<path d="M114.637 222.698C114.637 222.698 117.857 224.898 123.847 208.618C125.317 207.978 128.427 209.738 129.817 213.018C131.427 210.738 129.877 206.788 129.227 205.368C130.577 205.538 133.017 206.588 134.247 209.068C134.717 207.638 133.817 203.338 132.567 202.428C134.647 201.308 139.157 206.758 139.157 206.758C139.157 206.758 138.217 194.578 128.437 195.108C119.897 195.568 112.567 209.068 111.707 211.288L114.637 222.698Z" fill="#34E7DD"/>
<path d="M111.487 213.188C111.487 213.268 111.597 213.278 111.627 213.208C112.567 210.628 113.327 207.488 115.027 205.318C117.037 202.768 119.487 200.618 121.717 198.268C121.747 198.228 121.707 198.188 121.667 198.218C118.797 200.408 115.367 202.278 113.577 205.548C112.177 208.108 111.797 210.338 111.487 213.188Z" fill="#2EA48D"/>
<path d="M118.087 221.198C119.887 219.498 121.517 217.338 122.107 214.858C122.347 213.818 122.447 212.828 122.637 211.778C123.617 206.168 128.427 209.738 129.257 212.088C129.337 212.318 129.697 212.198 129.637 211.968C129.127 209.738 125.667 206.148 123.197 208.028C121.417 209.378 121.377 211.208 120.627 213.198C119.397 216.468 114.337 223.758 110.257 219.058C110.117 218.898 109.767 219.018 109.837 219.258C111.007 223.068 115.157 223.968 118.087 221.198Z" fill="#2EA48D"/>
<defs>
<linearGradient id="paint0_linear_871_250" x1="19.8315" y1="166.146" x2="63.2249" y2="324.166" gradientUnits="userSpaceOnUse">
<stop stop-color="#2DAAA1"/>
<stop offset="0.7669" stop-color="#33C6B1"/>
<stop offset="1" stop-color="#35D0B6"/>
</linearGradient>
<linearGradient id="paint1_linear_871_250" x1="34.2215" y1="168.04" x2="44.9792" y2="168.04" gradientUnits="userSpaceOnUse">
<stop stop-color="#2DAAA1"/>
<stop offset="0.7669" stop-color="#33C6B1"/>
<stop offset="1" stop-color="#35D0B6"/>
</linearGradient>
<linearGradient id="paint2_linear_871_250" x1="137.195" y1="328.246" x2="137.195" y2="112.778" gradientUnits="userSpaceOnUse">
<stop stop-color="#34E3B0"/>
<stop offset="0.3422" stop-color="#35DECC"/>
<stop offset="0.4462" stop-color="#35DCD6"/>
<stop offset="0.6276" stop-color="#34D9D4"/>
<stop offset="0.7573" stop-color="#33D0CE"/>
<stop offset="0.8709" stop-color="#30C0C4"/>
<stop offset="0.9747" stop-color="#2CAAB6"/>
<stop offset="0.9946" stop-color="#2BA5B3"/>
</linearGradient>
<linearGradient id="paint3_linear_871_250" x1="153.265" y1="309.377" x2="153.265" y2="121.038" gradientUnits="userSpaceOnUse">
<stop stop-color="#FBDD7C"/>
<stop offset="0.424" stop-color="#FBDB7A"/>
<stop offset="0.5819" stop-color="#F9D475"/>
<stop offset="0.6954" stop-color="#F7C86B"/>
<stop offset="0.787" stop-color="#F3B75D"/>
<stop offset="0.828" stop-color="#F1AD55"/>
</linearGradient>
<linearGradient id="paint4_linear_871_250" x1="223.516" y1="87.7342" x2="209.335" y2="67.3124" gradientUnits="userSpaceOnUse">
<stop offset="0.00537636" stop-color="#35CFA4"/>
<stop offset="1" stop-color="#27A1B9"/>
</linearGradient>
<linearGradient id="paint5_linear_871_250" x1="78.5026" y1="87.7235" x2="92.6843" y2="67.3007" gradientUnits="userSpaceOnUse">
<stop offset="0.00537636" stop-color="#35CFA4"/>
<stop offset="1" stop-color="#27A1B9"/>
</linearGradient>
<linearGradient id="paint6_linear_871_250" x1="151.439" y1="136.067" x2="150.742" y2="27.4863" gradientUnits="userSpaceOnUse">
<stop stop-color="#F15376"/>
<stop offset="0.2485" stop-color="#F25B70"/>
<stop offset="0.6437" stop-color="#F47360"/>
<stop offset="1" stop-color="#F78D4D"/>
</linearGradient>
<radialGradient id="paint7_radial_871_250" cx="0" cy="0" r="1" gradientUnits="userSpaceOnUse" gradientTransform="translate(157.785 76.3559) rotate(-0.366935) scale(67.0187 67.0675)">
<stop stop-color="#36E5AF"/>
<stop offset="0.3784" stop-color="#36DCBD"/>
<stop offset="1" stop-color="#36C9DD"/>
</radialGradient>
</defs>
</svg>
