<svg width="233" height="330" viewBox="0 0 233 330" fill="none" xmlns="http://www.w3.org/2000/svg">
<path d="M232.412 294.404C231.092 289.444 227.792 285.184 223.642 282.094C218.482 278.254 211.952 276.204 205.412 276.194C203.642 276.194 201.872 276.344 200.132 276.654C192.772 277.964 186.632 281.724 180.752 285.724C174.872 289.734 169.212 293.984 162.902 296.554C158.312 298.434 153.292 299.334 148.262 299.334C147.092 299.174 145.882 298.954 144.632 298.654C128.612 294.774 113.192 285.064 100.442 274.374C100.112 274.104 99.6822 273.984 99.2622 274.054C98.8422 274.124 98.4722 274.384 98.2622 274.744C96.6422 277.514 95.0422 280.294 93.4822 283.104C92.7522 284.424 92.0222 285.764 91.3022 287.094C90.9822 287.694 91.1222 288.434 91.6422 288.874C108.202 302.694 128.212 314.334 148.142 315.924C148.152 315.924 148.152 315.924 148.152 315.924C148.172 315.924 148.202 315.934 148.222 315.934C151.002 316.314 153.802 316.504 156.602 316.504C166.992 316.504 177.372 313.924 186.342 308.934C191.392 306.114 195.892 302.714 201.032 301.254C201.602 301.084 202.242 300.974 202.762 300.974C203.092 300.974 203.372 301.024 203.582 301.094C203.782 301.164 203.902 301.244 204.002 301.364C204.122 301.504 204.222 301.714 204.272 302.134C204.332 302.544 204.322 303.094 204.352 303.724C204.492 306.484 205.792 309.004 207.692 310.944C209.602 312.884 212.142 314.274 214.932 314.754C215.732 314.894 216.542 314.964 217.342 314.964C222.072 314.954 226.662 312.694 229.522 309.114C231.862 306.174 232.982 302.534 232.982 298.914C232.992 297.394 232.802 295.874 232.412 294.404Z" fill="url(#paint0_linear_871_251)"/>
<path d="M126.992 303.784C128.052 299.134 126.992 293.224 122.752 289.874C119.122 287.874 115.582 285.664 112.162 283.314C111.352 283.364 110.552 283.544 109.782 283.854C106.172 285.314 104.272 289.294 103.422 293.074C103.092 294.524 102.892 296.044 102.942 297.534C109.112 301.834 115.582 305.694 122.242 308.744C123.172 308.744 126.192 307.284 126.992 303.784Z" fill="#9C3D39"/>
<path d="M38.7722 219.634C46.9022 224.284 56.0822 225.354 61.0122 221.524L60.2622 159.974C59.2922 161.074 30.1322 166.194 23.1722 189.824C22.9822 190.944 22.8922 192.034 22.8322 193.114C24.2422 202.834 31.4422 212.594 38.7722 219.634Z" fill="url(#paint1_linear_871_251)"/>
<path d="M31.0822 176.104C28.9722 178.384 27.0922 180.974 25.5722 183.924C27.7022 188.464 32.8022 192.284 39.7722 193.574C37.1522 192.094 31.3422 184.064 31.0822 176.104Z" fill="#9C3D39"/>
<path d="M38.7222 219.584C40.4922 220.604 42.3022 221.464 44.1222 222.134C44.5722 221.274 44.8122 220.654 44.7722 220.534C44.5422 219.854 44.0922 210.574 38.6222 204.004C35.8722 208.214 32.7322 209.434 29.8422 209.274C32.4822 213.054 35.5822 216.564 38.7222 219.584Z" fill="#9C3D39"/>
<path d="M60.2622 159.875V159.985C60.3022 159.935 60.3122 159.905 60.2622 159.875Z" fill="#9C3D39"/>
<path d="M60.2622 159.984C59.8122 160.494 53.3822 161.864 45.8922 165.504C42.7922 172.134 44.2322 182.094 45.7422 187.674C48.6422 193.224 54.6222 188.614 60.5022 179.914L60.2622 159.984Z" fill="#9C3D39"/>
<path opacity="0.81" d="M139.102 310.715C131.392 307.155 129.852 300.705 130.532 293.765C119.662 288.905 109.392 281.895 100.432 274.385C100.102 274.115 99.6722 273.995 99.2622 274.065C98.8422 274.135 98.4722 274.395 98.2622 274.755C96.6422 277.525 95.0422 280.305 93.4822 283.115C92.7522 284.435 92.0222 285.775 91.3022 287.105C90.9822 287.705 91.1222 288.445 91.6422 288.885C108.202 302.705 128.212 314.345 148.142 315.925C148.152 315.925 148.152 315.925 148.152 315.925C148.172 315.925 148.202 315.935 148.222 315.935C151.002 316.315 153.802 316.505 156.602 316.505C159.312 316.505 162.012 316.305 164.692 315.955C163.272 315.845 152.322 316.815 139.102 310.715Z" fill="url(#paint2_linear_871_251)" fill-opacity="0.5"/>
<path d="M86.7022 163.124C86.7722 163.184 86.8122 163.224 86.8122 163.224C86.6922 162.734 86.6622 162.734 86.7022 163.124Z" fill="#FFD09C"/>
<path d="M46.4622 223.264C47.2822 225.794 51.9722 257.544 54.0122 264.594C58.5022 280.144 63.7622 302.724 60.2022 314.774C57.9722 322.344 60.6322 321.754 63.3422 322.684C73.4422 326.184 73.3422 328.904 81.0222 322.454C81.6422 321.934 87.8722 301.624 86.5922 298.684C80.1622 283.964 89.6022 267.304 91.6522 261.374L46.4622 223.264Z" fill="#B13C34"/>
<path d="M114.922 267.494C116.502 252.194 114.602 236.674 111.722 221.814C121.552 207.874 137.022 194.174 105.502 170.734C104.582 166.464 100.752 159.304 100.792 159.984C101.492 136.874 64.7622 151.714 64.7622 151.714C59.3522 161.444 47.7422 171.064 36.2922 203.004C35.9222 218.374 54.9222 261.524 61.3422 267.004C62.8322 267.684 64.8422 269.764 71.3522 274.404C81.7622 282.064 97.7822 298.234 94.5922 318.394C94.0722 321.674 92.4722 321.024 94.9422 322.804C95.9222 323.514 97.3822 325.164 98.5422 325.344C105.922 326.484 106.422 327.254 113.492 324.704C115.072 321.274 119.642 302.594 119.682 294.514C114.532 286.324 113.722 276.994 114.922 267.494Z" fill="url(#paint3_linear_871_251)"/>
<path d="M96.8222 257.784C102.002 262.414 109.312 264.114 115.162 264.674C115.792 256.434 115.442 248.154 114.532 239.954C112.642 244.624 107.062 255.824 96.8222 257.784Z" fill="#9C3D39"/>
<path d="M98.5622 157.494C97.3922 156.424 74.1022 151.974 62.3122 154.874C56.6122 161.054 48.1722 170.864 41.9422 183.434C39.5322 186.234 35.3022 190.394 30.5022 191.704C32.3522 192.544 35.1522 192.804 35.8822 192.804C35.3022 194.414 35.4922 195.594 32.6722 199.004C33.4222 198.794 34.1722 198.554 34.9022 198.284C35.0822 201.744 36.2122 210.684 37.6022 215.564C43.0522 234.614 55.9922 262.984 61.2222 267.354C65.7422 267.824 78.3922 275.624 85.0722 280.294C85.4422 280.554 85.9722 280.464 86.2022 280.064C89.5822 274.424 89.7122 268.444 89.6122 264.554C82.1522 242.574 86.0222 211.254 97.6222 195.864C90.6322 178.344 98.7922 159.894 98.5622 157.494Z" fill="url(#paint4_linear_871_251)"/>
<path d="M75.6922 326.884C75.6922 326.884 64.0222 326.784 59.9122 325.174C58.6722 324.124 56.5122 319.754 56.8122 316.724C56.8122 316.724 58.9022 312.214 65.3022 310.744C71.8622 309.234 80.8722 311.164 83.0122 316.744L83.6022 322.714C81.0522 325.744 77.5722 326.884 75.6922 326.884Z" fill="#C84637"/>
<path d="M109.912 328.684C107.972 329.204 98.0422 329.254 93.6322 327.494C92.4022 326.464 90.8222 322.504 91.1222 319.654C91.5922 317.284 92.7522 315.074 94.4122 313.504C95.5222 312.464 111.482 310.264 115.382 318.304C115.852 319.054 115.712 321.844 115.712 321.844C115.262 325.084 111.852 328.164 109.912 328.684Z" fill="#C84637"/>
<path d="M61.8722 166.744C83.1822 168.564 102.342 166.144 106.472 166.204C106.412 166.174 106.342 166.154 106.282 166.124C106.062 166.034 105.852 165.954 105.642 165.874C105.392 165.774 105.142 165.684 104.892 165.594C104.692 165.524 104.492 165.454 104.302 165.384C104.042 165.294 103.802 165.214 103.552 165.134C103.382 165.074 103.202 165.024 103.042 164.974C102.772 164.894 102.522 164.824 102.262 164.744C102.132 164.704 102.002 164.664 101.872 164.634C101.502 164.534 101.142 164.454 100.802 164.374C100.762 163.224 100.742 162.094 100.752 160.984L63.1022 154.354C63.0122 154.484 62.9322 154.624 62.8422 154.754C62.6622 154.794 62.4722 154.834 62.2922 154.874C61.8822 155.314 61.4522 155.784 61.0222 156.264C61.0022 156.294 60.9722 156.314 60.9522 156.344C60.0122 157.384 59.0022 158.534 57.9722 159.734C57.8822 160.694 60.1122 164.994 61.8722 166.744Z" fill="#BE5C3F"/>
<path d="M60.0122 41.0044C59.3522 34.0044 58.6922 27.0144 58.0422 20.0244C57.5222 14.4844 56.7122 8.35436 52.5922 4.80436C47.2622 0.204356 39.1022 2.24436 33.0222 5.77436C26.9422 9.30436 21.3422 14.3644 18.8522 21.1044C15.0022 31.5544 19.8322 43.9544 28.3722 50.7344C36.9122 57.5144 48.3222 59.3744 59.0722 58.3844L60.0122 41.0044Z" fill="url(#paint5_linear_871_251)"/>
<path d="M61.8722 42.3645C61.2122 35.3745 60.5522 28.3745 59.9022 21.3845C59.3822 15.8445 58.5722 9.72446 54.4522 6.16446C49.1222 1.56446 40.9622 3.60446 34.8822 7.13446C28.8022 10.6645 23.2022 15.7245 20.7122 22.4745C16.8622 32.9245 21.6922 45.3245 30.2322 52.1045C38.7822 58.8745 50.1822 60.7445 60.9322 59.7545L61.8722 42.3645Z" fill="url(#paint6_linear_871_251)"/>
<path d="M48.9822 42.1145C48.6422 41.6245 47.6622 34.2045 47.7022 34.0145C40.7122 25.2045 32.2722 28.5045 31.0822 28.2645C33.4722 29.4545 35.9422 31.7845 37.7422 34.3745C29.7422 31.9445 23.3222 36.0745 16.9522 39.5645C23.7222 39.4945 28.8822 40.6145 33.6622 44.3745C26.5822 45.0145 24.8222 47.0745 22.5122 52.1745C26.6222 50.3345 34.8022 52.8945 37.3122 53.7445C41.1922 50.1945 50.6222 48.5545 51.9222 47.3145C51.4322 45.7045 49.5722 43.1945 48.9822 42.1145Z" fill="#FFD7AB"/>
<path d="M55.6622 2.66446C50.3322 -1.93554 42.1722 0.104464 36.0922 3.63446C34.4122 4.61446 32.7722 5.71446 31.2222 6.93446C32.6922 8.72446 33.9422 10.7345 35.0422 12.7845C38.6422 19.4945 41.2022 26.8045 42.5922 34.3445C43.7022 40.3745 44.4322 47.2345 49.1022 51.0045C52.8522 54.0345 57.8822 53.8545 62.3822 51.8945L63.0922 38.8645C62.4322 31.8745 61.7722 24.8745 61.1122 17.8845C60.5922 12.3445 59.7822 6.22446 55.6622 2.66446Z" fill="url(#paint7_linear_871_251)"/>
<path d="M88.0222 158.224C128.872 164.444 172.362 147.974 199.842 115.894C195.472 115.324 191.112 114.764 186.742 114.194C189.382 111.394 192.022 108.584 194.652 105.784C178.082 101.784 168.002 84.6244 161.552 68.3044C159.942 64.2243 158.652 60.1943 157.402 56.2543C153.672 44.4643 144.822 17.8143 104.322 16.6443C88.3022 16.1843 69.6722 20.7643 55.4422 29.6843C45.1222 36.1443 36.2422 44.6043 30.1922 54.9243C26.8722 60.5943 24.0922 66.7444 19.5522 71.4144C14.9422 76.1444 8.64217 78.4644 2.35217 76.6644C2.95217 79.0044 3.88217 81.2743 4.61217 83.5943C2.34217 88.7743 4.45217 101.174 7.64217 105.934C14.1822 115.684 18.1422 122.214 26.9722 129.764C44.4022 144.634 65.6322 154.814 88.0222 158.224Z" fill="url(#paint8_radial_871_251)"/>
<path d="M119.992 18.8545C106.642 15.5945 95.7122 12.7645 85.9422 3.3645C86.2522 7.8545 87.0522 11.6545 90.0822 14.8045C87.7322 14.9845 83.6522 13.4545 81.9322 11.7945C81.7322 15.6245 82.4922 18.7145 84.0822 22.2145C99.1322 19.6645 114.852 21.2445 129.092 26.7245C128.422 26.3145 127.762 25.8945 127.092 25.4745L119.992 18.8545Z" fill="#9C3D39"/>
<path d="M88.0222 158.224C128.872 164.444 172.362 147.974 199.842 115.894C195.472 115.324 191.112 114.764 186.742 114.194C189.382 111.394 192.022 108.584 194.652 105.784C178.082 101.784 168.002 84.6244 161.552 68.3044C159.942 64.2243 158.652 60.1943 157.402 56.2543C153.672 44.4643 144.822 17.8143 104.322 16.6443C88.3022 16.1843 69.6722 20.7643 55.4422 29.6843C45.1222 36.1443 36.2422 44.6043 30.1922 54.9243C26.8722 60.5943 24.0922 66.7444 19.5522 71.4144C14.9422 76.1444 8.64217 78.4644 2.35217 76.6644C2.95217 79.0044 3.88217 81.2743 4.61217 83.5943C2.34217 88.7743 4.45217 101.174 7.64217 105.934C14.1822 115.684 18.1422 122.214 26.9722 129.764C44.4022 144.634 65.6322 154.814 88.0222 158.224Z" fill="url(#paint9_radial_871_251)"/>
<path d="M104.052 16.6145C97.1622 16.4145 90.2322 17.0145 82.9322 18.6245C75.8222 25.6345 70.4222 37.7645 73.3722 54.1045C77.6822 38.4645 96.7122 18.6745 116.222 17.8645C112.142 16.9745 108.372 16.7345 104.052 16.6145Z" fill="#9C3D39"/>
<path d="M55.4622 29.6945C55.3322 29.7745 55.2122 29.8645 55.0922 29.9345C57.3822 35.2345 61.0922 41.1645 65.5122 42.8845C63.7422 36.6345 64.6222 28.3445 65.1722 24.5645C61.7822 26.0845 58.5122 27.7845 55.4622 29.6945Z" fill="#9C3D39"/>
<path d="M149.302 38.3444C145.492 32.6844 140.042 27.1044 131.992 23.0144C122.662 23.3844 107.242 31.8844 102.212 41.0644C111.032 36.8044 139.202 29.4244 149.302 38.3444Z" fill="#9C3D39"/>
<path d="M159.932 65.1443C159.932 65.1443 151.972 78.7843 147.322 82.9743C156.172 84.0743 167.892 77.4743 169.442 75.9343C170.992 74.3943 159.932 65.1443 159.932 65.1443Z" fill="#9C3D39"/>
<path d="M172.132 88.7244C163.702 92.7944 146.862 104.004 132.112 115.524C157.102 116.454 176.392 108.644 188.072 103.354C181.712 100.164 176.472 94.9244 172.132 88.7244Z" fill="#9C3D39"/>
<path d="M30.6022 95.4244C22.7422 86.3044 20.5222 76.7144 19.9422 71.0044C19.8122 71.1444 19.7022 71.2844 19.5722 71.4144C14.9622 76.1444 8.66219 78.4644 2.37219 76.6644C2.97219 79.0044 3.90219 81.2744 4.63219 83.5944C4.24219 84.4844 3.99219 85.5844 3.84219 86.8244C10.7522 92.0944 21.2222 94.4144 30.6022 95.4244Z" fill="#9C3D39"/>
<path d="M83.7222 119.855C84.4722 115.675 88.5822 86.3645 90.0122 82.1745C93.0222 73.3445 100.082 66.4145 107.652 62.4645C124.682 53.5745 147.562 64.3845 145.512 84.8745C144.322 96.7645 136.282 110.665 132.072 117.275L83.7222 119.855Z" fill="#FFB980"/>
<path d="M86.7022 119.824C87.3322 116.264 93.5322 93.8443 94.7222 90.2743C97.2322 82.7643 102.492 74.0443 108.802 70.6743C121.072 65.9343 134.512 69.9243 140.212 76.8143C143.202 87.2143 132.072 108.634 122.912 116.984L86.7022 119.824Z" fill="#76262C"/>
<path d="M86.7022 119.824C87.2922 116.454 87.5022 106.314 93.1622 89.9644C95.6122 82.8844 100.652 77.4444 106.492 74.1944C113.062 70.5444 129.512 72.3344 133.392 77.9244C140.082 87.1144 126.762 113.484 123.322 117.524L86.7022 119.824Z" fill="#FDE6E9"/>
<path d="M127.102 80.8443C123.222 75.2543 109.132 75.8243 101.002 82.0443C97.9122 84.4043 95.4622 86.8043 93.4722 89.1843C93.3722 89.4443 93.2522 89.6943 93.1622 89.9643C87.5022 106.324 87.2922 116.464 86.7022 119.824L120.122 117.724C127.492 106.934 132.712 88.5543 127.102 80.8443Z" fill="white"/>
<path d="M32.2222 101.334C29.4322 97.0644 22.3722 69.9844 38.5122 55.7544C50.6622 45.0444 55.1222 83.7144 61.9022 106.774L32.2222 101.334Z" fill="#FFB980"/>
<path d="M50.9922 65.0144C44.0922 61.8044 35.5222 63.0244 34.1222 65.0744C28.2822 72.6344 33.0322 92.2644 35.9322 98.5644L61.9122 106.784C58.0322 94.0444 55.0322 76.9644 50.9922 65.0144Z" fill="#76262C"/>
<path d="M52.0322 68.4845C49.3922 64.9045 38.0422 66.6845 36.7522 68.1045C29.7722 75.7945 34.5522 95.4845 37.3222 101.695L61.9122 106.775C58.3622 94.7345 55.7322 79.7845 52.0322 68.4845Z" fill="#FDE6E9"/>
<path d="M52.0322 68.4845C51.4522 67.6945 50.4222 67.1745 49.1922 66.8445C33.3322 74.1145 37.7822 94.9745 40.9122 102.154L61.9122 106.774C58.3622 94.7345 55.7322 79.7845 52.0322 68.4845Z" fill="white"/>
<path d="M113.252 117.034C120.522 117.034 126.412 111.174 126.412 103.934C126.412 96.7045 120.522 90.8345 113.252 90.8345C105.982 90.8345 100.092 96.6945 100.092 103.934C100.092 111.164 105.982 117.034 113.252 117.034Z" fill="url(#paint10_linear_871_251)"/>
<path d="M113.252 113.124C118.352 113.124 122.492 109.014 122.492 103.934C122.492 98.8544 118.352 94.7444 113.252 94.7444C108.152 94.7444 104.012 98.8544 104.012 103.934C104.022 109.004 108.152 113.124 113.252 113.124Z" fill="#76262C"/>
<path opacity="0.26" d="M125.232 109.354C122.472 105.534 118.092 103.844 114.802 105.554C111.332 107.364 110.312 112.324 112.302 116.974C112.622 116.994 112.932 117.024 113.252 117.024C118.582 117.034 123.152 113.874 125.232 109.354Z" fill="white"/>
<path d="M111.402 93.7743C112.662 95.9543 112.272 98.5343 110.522 99.5343C108.772 100.544 106.332 99.5843 105.062 97.4143C103.802 95.2343 104.192 92.6543 105.942 91.6543C107.692 90.6443 110.132 91.5943 111.402 93.7743Z" fill="white"/>
<path d="M60.5322 92.7143C61.1922 99.9143 56.5422 106.224 50.1522 106.804C43.7522 107.384 38.0422 102.014 37.3822 94.8043C36.7222 87.6043 41.3722 81.2943 47.7622 80.7143C54.1622 80.1443 59.8722 85.5143 60.5322 92.7143Z" fill="url(#paint11_linear_871_251)"/>
<path d="M57.0821 93.0243C57.5421 98.0743 54.2821 102.504 49.7921 102.914C45.3021 103.324 41.2921 99.5543 40.8321 94.4943C40.3721 89.4443 43.6321 85.0143 48.1221 84.6043C52.6121 84.2043 56.6221 87.9743 57.0821 93.0243Z" fill="#76262C"/>
<path opacity="0.26" d="M59.9822 98.2143C57.2022 94.6343 53.2022 93.2943 50.4622 95.2643C47.5822 97.3443 47.1322 102.364 49.3022 106.844C49.5822 106.844 49.8622 106.844 50.1522 106.814C54.8322 106.384 58.5722 102.884 59.9822 98.2143Z" fill="white"/>
<path d="M46.4022 83.7943C47.7122 85.8643 47.6022 88.4643 46.1522 89.6043C44.7022 90.7443 42.4722 89.9943 41.1622 87.9243C39.8522 85.8543 39.9622 83.2543 41.4122 82.1143C42.8522 80.9743 45.0922 81.7243 46.4022 83.7943Z" fill="white"/>
<path d="M199.842 115.904C195.472 115.334 191.112 114.774 186.742 114.204C189.382 111.404 192.022 108.594 194.652 105.794C190.432 104.774 186.642 102.894 183.212 100.404C168.352 106.974 151.172 111.884 133.802 114.424C120.992 116.304 103.272 118.004 95.6722 113.834C94.1022 110.964 87.7622 100.034 81.5922 99.0843C71.1222 97.4743 59.6422 106.164 49.4122 102.904C32.3722 97.4643 16.3522 89.3043 3.72221 76.9843C3.27221 76.8943 2.82221 76.7943 2.37221 76.6643C2.54221 79.6643 3.24221 81.5043 4.14221 83.6043C2.22221 84.5543 0.752211 84.2443 0.132211 84.2743C-0.967789 87.8643 5.06221 108.164 8.36221 113.884C14.2222 124.054 22.3722 131.964 31.2122 139.524C48.6122 154.394 63.9622 161.084 86.3522 164.494C127.182 170.714 172.362 147.974 199.842 115.904Z" fill="url(#paint12_radial_871_251)"/>
<path d="M58.8522 92.9144C63.7722 89.3944 86.3422 93.5244 87.3922 97.8344C87.4922 99.9044 88.2822 107.524 87.8422 110.924C86.7322 113.264 84.1722 115.534 81.5022 116.074C71.5722 118.094 51.9422 111.904 43.6622 105.924C42.5822 105.144 53.9222 96.4244 58.8522 92.9144Z" fill="#FE9E2E"/>
<path d="M43.9222 106.114C43.9422 106.124 43.9722 106.144 43.9922 106.164C43.9722 106.144 43.9522 106.124 43.9222 106.114ZM43.8422 106.054C43.8722 106.074 43.8922 106.094 43.9222 106.104C43.8922 106.084 43.8622 106.064 43.8422 106.054ZM43.6622 105.924C43.6922 105.944 43.7122 105.964 43.7422 105.984C43.7122 105.964 43.6822 105.944 43.6622 105.924ZM58.8522 92.9143C54.1522 96.2743 43.5922 104.374 43.5922 105.774C43.5922 104.364 54.1422 96.2743 58.8522 92.9143Z" fill="white"/>
<path d="M65.7322 91.5945C62.7622 91.5945 60.2722 91.9645 58.9422 92.8545C58.9122 92.8745 58.8822 92.8945 58.8522 92.9145C54.1522 96.2745 43.5922 104.374 43.5922 105.774C43.5922 105.844 43.6122 105.894 43.6622 105.924C43.6922 105.944 43.7122 105.964 43.7422 105.984L43.7522 105.994C43.7822 106.014 43.8022 106.024 43.8222 106.044L43.8322 106.054C43.8522 106.074 43.8822 106.094 43.9122 106.104C43.9122 106.104 43.9222 106.104 43.9222 106.114C43.9422 106.124 43.9622 106.144 43.9922 106.164C44.0022 106.164 44.0022 106.174 44.0122 106.174C44.0322 106.184 44.0622 106.204 44.0822 106.214C44.0922 106.224 44.1022 106.224 44.1122 106.234C44.1222 106.244 44.1422 106.254 44.1522 106.264C44.1722 106.274 44.2022 106.294 44.2222 106.314C46.2622 107.704 48.8922 109.094 51.8422 110.384C52.3622 110.384 52.8722 110.374 53.3922 110.374C53.9422 110.374 54.5022 110.374 55.0522 110.384C45.7022 107.354 59.2422 96.2845 65.7622 91.5845C65.7522 91.5945 65.7422 91.5945 65.7322 91.5945Z" fill="#FEBB6D"/>
<path d="M83.8822 111.324C80.7922 111.684 64.9122 112.354 56.6322 110.534C45.6822 108.134 45.6722 105.504 44.7622 105.184C42.9622 104.554 42.5922 108.914 44.2422 110.184C45.1822 110.894 54.0422 116.814 54.0422 116.814L57.5122 121.794C57.5122 121.794 61.8322 123.154 63.8422 123.094C63.3222 121.824 63.0522 120.504 63.1422 119.384C68.8722 118.634 79.2722 116.654 81.6722 116.364C82.4122 116.074 84.6022 111.464 83.8822 111.324Z" fill="#76262C"/>
<path opacity="0.16" d="M52.5422 109.484C45.6822 107.424 45.5422 105.454 44.7622 105.184C42.9622 104.554 42.5922 108.914 44.2422 110.184C45.5122 111.154 54.7522 117.004 58.2022 118.974C55.4922 115.504 53.6922 112.234 52.5422 109.484Z" fill="white"/>
<path d="M186.162 20.5444C184.942 20.1044 183.702 19.8544 182.452 19.7344C175.772 21.1344 170.252 26.0844 166.122 31.2644C160.402 38.4544 156.272 47.2744 154.502 56.4244C155.422 57.8944 156.282 59.3744 157.082 60.7844C159.982 65.9744 162.202 71.4344 163.732 77.0944C170.932 78.4844 178.352 78.6344 185.582 77.4244C191.222 76.4844 197.072 74.5544 200.802 70.0544C207.122 62.4344 205.042 50.8444 201.842 41.3944C198.912 32.7844 194.502 23.5044 186.162 20.5444Z" fill="url(#paint13_linear_871_251)"/>
<path d="M190.382 25.6145C176.082 26.3745 162.802 37.7645 155.532 51.3345C161.232 59.7645 165.622 68.8545 167.902 78.5545C172.912 78.9645 177.972 78.7945 182.942 77.9645C188.582 77.0245 194.432 75.0945 198.162 70.5945C204.482 62.9745 202.402 51.3845 199.202 41.9345C197.202 36.0545 194.522 29.8845 190.382 25.6145Z" fill="url(#paint14_linear_871_251)"/>
<path d="M169.472 72.6044C175.402 71.8744 182.752 72.9544 186.492 74.9644C180.872 69.6044 175.422 63.6444 165.992 62.9844C168.832 61.3144 173.422 59.5944 176.582 59.7844C173.162 57.9644 166.052 54.8544 156.152 58.8144C160.042 65.9544 160.642 68.9044 163.562 77.0344C165.932 78.0044 173.172 81.4644 175.252 84.5044C175.232 80.0044 174.682 75.5144 169.472 72.6044Z" fill="#FFD7AB"/>
<path d="M186.162 20.5443C177.772 17.5643 168.472 22.2743 162.142 28.7443C157.502 33.4943 153.832 39.1643 149.752 44.4343C148.962 45.4543 148.592 48.3543 149.892 49.9543C153.112 53.9343 154.962 57.0143 157.072 60.7843C157.552 61.6443 157.992 62.5143 158.432 63.3743C161.312 61.5843 163.932 59.1543 166.122 56.5443C170.822 50.9543 174.512 44.3543 180.102 39.7243C185.692 35.0943 194.212 32.9643 199.852 37.4743C199.982 37.3343 200.092 37.1743 200.222 37.0243C197.312 29.8443 193.092 23.0043 186.162 20.5443Z" fill="url(#paint15_linear_871_251)"/>
<path d="M25.4322 63.4044C26.4522 66.1144 27.6822 68.9044 28.9622 70.6544C29.0222 65.6544 30.3422 57.8144 32.0322 52.0344C31.4022 52.9844 30.7822 53.9344 30.2022 54.9144C28.5822 57.7144 27.0722 60.6244 25.4322 63.4044Z" fill="#9C3D39"/>
<path d="M125.512 46.9644C118.872 47.2144 108.962 54.6444 108.962 54.6444C108.962 54.6444 120.122 52.7644 137.922 63.5244C135.442 56.3544 129.092 49.6144 125.512 46.9644Z" fill="#9C3D39"/>
<path d="M229.532 309.114C231.872 306.174 232.992 302.534 232.992 298.914C232.992 297.394 232.792 295.884 232.412 294.414L231.012 294.774L232.412 294.404C231.092 289.444 227.792 285.184 223.642 282.094C218.482 278.254 211.952 276.204 205.412 276.194C203.642 276.194 201.872 276.344 200.132 276.654C195.242 277.524 190.902 279.484 186.802 281.874C183.542 285.064 182.652 288.284 184.882 293.964C187.402 300.394 193.082 303.454 196.352 303.144C197.882 302.374 199.432 301.724 201.052 301.264C201.622 301.094 202.262 300.984 202.782 300.984C203.112 300.984 203.392 301.034 203.602 301.104C203.802 301.174 203.922 301.254 204.022 301.374C204.142 301.514 204.242 301.724 204.292 302.144C204.352 302.554 204.342 303.104 204.372 303.734C204.512 306.494 205.812 309.014 207.712 310.954C209.622 312.894 212.162 314.284 214.952 314.764C215.752 314.904 216.562 314.964 217.362 314.964C222.082 314.954 226.662 312.694 229.532 309.114Z" fill="#FFD09C"/>
<path d="M182.902 296.395C180.832 291.945 181.572 288.245 182.772 284.375C182.092 284.825 181.412 285.275 180.742 285.725C179.062 286.875 177.392 288.035 175.722 289.185C175.022 293.165 175.952 297.445 178.152 300.715C180.582 304.345 184.412 306.735 188.472 307.495C188.562 307.515 188.662 307.515 188.762 307.535C190.562 306.455 192.322 305.355 194.092 304.355C189.462 303.985 185.022 300.955 182.902 296.395Z" fill="#9C3D39"/>
<path d="M144.622 298.664C141.222 297.834 137.852 296.734 134.522 295.434C136.062 297.194 137.582 299.414 138.452 301.894C139.642 305.294 140.612 311.494 137.922 314.254C138.752 314.454 139.592 314.654 140.422 314.824C143.402 314.024 146.342 311.994 147.802 309.604C151.022 304.364 148.872 299.334 148.252 299.334C147.082 299.184 145.882 298.964 144.622 298.664Z" fill="#9C3D39"/>
<path d="M160.322 303.674C162.372 308.374 165.712 310.934 170.642 312.764C169.682 306.694 167.592 297.144 171.822 291.774C168.932 293.624 165.992 295.284 162.892 296.554C161.532 297.104 160.132 297.574 158.702 297.954C158.922 299.714 159.412 301.594 160.322 303.674Z" fill="#9C3D39"/>
<path d="M112.462 318.284C111.222 316.244 109.332 315.084 107.352 314.274C102.052 312.954 98.6122 313.354 95.1622 313.814C93.9422 314.954 92.5322 315.894 92.2222 317.984C92.1222 318.664 95.2622 320.464 105.402 320.504C110.312 320.514 112.802 318.834 112.462 318.284Z" fill="url(#paint16_linear_871_251)"/>
<path d="M79.8522 313.874C76.2222 310.734 71.0722 310.364 66.2222 311.094C61.9422 311.734 58.6322 314.884 57.6722 316.084C59.4822 317.154 64.5422 318.014 70.9622 318.094C79.5722 318.204 80.4522 315.704 79.8522 313.874Z" fill="url(#paint17_linear_871_251)"/>
<path d="M61.7722 316.154C61.7722 316.154 60.3722 318.444 60.0822 319.224C60.4222 320.374 61.8522 322.554 61.8522 322.554L61.7722 316.154Z" fill="#932F30"/>
<path d="M69.2022 316.344L67.2722 319.804L69.4122 324.514L69.6622 319.454L69.2022 316.344Z" fill="#932F30"/>
<path d="M99.8322 317.844L97.9822 321.844L99.3922 326.734L100.702 321.774L99.8322 317.844Z" fill="#932F30"/>
<path d="M107.892 319.114L106.482 322.154L106.642 325.954C106.642 325.954 108.092 323.054 108.262 322.464C108.352 321.904 107.892 319.114 107.892 319.114Z" fill="#932F30"/>
<path d="M94.4522 318.375C94.4522 318.375 93.2522 319.745 92.9422 321.065C93.2622 322.165 94.4522 323.905 94.4522 323.905V318.375Z" fill="#932F30"/>
<path d="M117.712 308.644C118.592 304.344 119.302 300.004 119.562 296.674C116.582 300.924 109.002 306.074 98.2922 305.824C104.392 309.934 111.872 310.044 117.712 308.644Z" fill="#9C3D39"/>
<path d="M73.4422 305.024C63.1522 303.294 61.2922 296.014 60.6522 294.744C61.2222 299.244 61.5022 303.554 61.3222 307.384C64.0122 308.104 67.4822 308.104 73.4422 305.024Z" fill="#9C3D39"/>
<path d="M114.432 274.324C112.542 279.134 107.412 284.614 93.2922 287.914C103.212 290.284 110.862 289.524 116.102 286.744C114.882 282.744 114.392 278.574 114.432 274.324Z" fill="#9C3D39"/>
<path d="M75.6622 285.934C67.2122 285.384 60.7622 280.014 56.8122 275.034C57.8522 279.224 58.8222 283.584 59.5922 287.924C64.0022 289.904 70.2622 290.514 75.6622 285.934Z" fill="#9C3D39"/>
<path d="M45.4322 106.784C45.2422 106.974 45.6022 109.064 47.9822 110.554C49.6222 111.574 52.0022 111.404 52.3922 110.954C52.7422 110.544 51.1622 109.244 48.5322 107.894C46.2722 106.724 45.5422 106.664 45.4322 106.784Z" fill="#FEFEFE"/>
<path opacity="0.45" d="M232.932 297.924C232.862 296.734 232.712 295.554 232.412 294.404L231.012 294.764L232.412 294.395C231.092 289.435 227.792 285.174 223.642 282.084C221.382 280.404 218.842 279.084 216.172 278.104C212.822 279.964 209.882 282.834 208.422 285.464C205.292 291.114 205.932 298.754 210.372 303.454C214.812 308.154 222.882 309.124 228.022 305.194C230.382 303.394 232.012 300.764 232.932 297.924Z" fill="#FFF64D"/>
<path opacity="0.81" d="M44.9922 236.484C47.0022 241.454 49.1322 246.344 51.2122 250.724C55.1722 259.074 58.9322 265.614 61.2222 267.534C65.7422 268.004 78.3922 275.854 85.0722 280.554C85.4422 280.824 85.9722 280.724 86.2022 280.324C87.1422 278.744 87.8322 277.134 88.3422 275.544C78.0822 257.464 53.6422 237.964 44.9922 236.484Z" fill="url(#paint18_linear_871_251)" fill-opacity="0.25"/>
<path opacity="0.37" d="M199.842 115.904C195.472 115.334 191.112 114.774 186.742 114.204C189.382 111.404 192.012 108.594 194.652 105.794C193.272 105.464 186.302 103.354 183.012 100.354C176.702 104.724 160.252 112.354 149.552 114.274C151.202 122.184 117.912 158.434 69.3622 153.944C60.6822 140.924 27.0022 120.604 30.1122 97.3943C28.9922 96.4043 4.80221 78.0343 3.72221 76.9843C3.27221 76.8943 2.82221 76.7943 2.37221 76.6643C2.54221 79.6643 3.24221 81.5043 4.14221 83.6043C2.22221 84.5543 0.752211 84.2443 0.132211 84.2743C-0.967789 87.8643 5.06221 108.164 8.36221 113.884C14.2222 124.054 22.3722 131.964 31.2122 139.524C48.6122 154.394 63.9622 161.084 86.3522 164.494C127.182 170.714 172.362 147.974 199.842 115.904Z" fill="url(#paint19_linear_871_251)"/>
<path opacity="0.19" d="M77.8522 25.9545C68.5322 27.6145 59.3922 30.5445 53.3522 34.9545C47.3122 39.3645 44.9622 45.3845 49.0622 49.8145C51.0422 51.9445 54.9522 53.7045 59.5522 53.3845C62.5722 53.1745 65.3222 52.1145 67.9122 51.0945C87.5722 43.3545 107.232 35.6045 126.892 27.8645C127.822 27.4945 128.842 27.0645 129.132 26.4745C129.652 25.4445 127.752 24.7145 126.062 24.3545C112.242 21.3745 92.6822 23.3145 77.8522 25.9545Z" fill="#FFF64D"/>
<path d="M83.6022 322.704L83.5422 322.094C82.9622 322.624 79.8722 324.874 76.3222 325.404C69.6322 326.014 60.2422 324.584 58.7722 323.664C59.1022 324.164 59.6422 324.944 59.9122 325.174C64.0222 326.794 75.6922 326.884 75.6922 326.884C77.5722 326.884 81.0522 325.744 83.6022 322.704Z" fill="#932F30"/>
<path opacity="0.81" d="M116.892 204.634C117.022 207.094 111.922 214.804 109.372 218.464C110.152 215.574 111.742 205.764 111.532 204.224C111.532 202.174 107.872 194.684 107.772 193.794C108.492 194.444 115.772 199.834 116.892 204.634Z" fill="#9C3D39"/>
<path d="M63.2722 129.714C64.2522 130.984 68.8122 135.584 72.3522 135.934C75.0422 136.384 84.1522 133.094 86.7722 130.484C87.3422 130.134 83.3522 134.784 82.0722 135.634C79.0822 137.564 73.9922 139.454 71.4522 139.134C69.9722 138.824 64.3422 135.574 64.3422 135.574C63.5022 136.334 62.0022 137.314 60.7822 137.174C59.6722 136.714 56.8222 135.524 54.0422 132.284C52.1722 130.104 51.4422 128.234 51.7422 128.554C52.1922 129.034 55.7622 132.744 59.3122 133.944C61.0322 134.524 62.1422 134.184 62.6322 133.414C63.5522 131.984 63.2722 130.524 63.2722 129.714Z" fill="#76262C"/>
<path d="M104.902 165.724C116.922 167.444 139.102 181.114 143.832 203.084C141.592 215.374 135.042 222.774 128.132 227.244C125.802 228.754 122.412 229.794 120.152 230.704C118.882 231.814 106.442 233.264 104.962 232.744L106.982 221.384C106.982 221.384 116.552 208.464 116.722 204.764C115.282 199.384 112.072 196.644 103.802 194.204C95.5322 191.754 93.3922 167.824 104.902 165.724Z" fill="url(#paint20_linear_871_251)"/>
<path d="M106.012 165.924C102.802 168.014 100.332 174.834 100.852 182.484C106.772 173.064 114.262 170.414 120.052 171.774C115.022 168.684 110.042 166.694 106.012 165.924Z" fill="#9C3D39"/>
<path d="M137.872 188.894C134.292 183.324 129.662 178.664 124.802 174.994C118.632 177.144 113.562 186.384 115.522 197.974C121.912 184.454 132.902 185.694 137.872 188.894Z" fill="#9C3D39"/>
<path d="M120.162 230.694C122.242 229.854 125.282 228.894 127.572 227.574C125.882 222.254 121.462 215.534 114.562 215.534C118.132 218.344 120.432 225.384 119.962 230.804C120.032 230.774 120.112 230.734 120.162 230.694Z" fill="#9C3D39"/>
<path d="M141.552 211.024C138.722 204.924 129.132 200.584 118.822 205.604C130.362 207.744 133.842 218.594 131.872 224.454C135.712 221.214 139.192 216.854 141.552 211.024Z" fill="#9C3D39"/>
<path d="M143.782 202.874C143.142 205.674 141.172 212.764 136.392 218.234C131.142 224.264 124.082 227.364 119.832 228.604C119.762 229.444 119.592 230.284 119.302 231.074C119.702 230.944 120.002 230.814 120.152 230.694C122.412 229.784 125.802 228.734 128.132 227.234C135.032 222.774 141.582 215.364 143.832 203.074C143.822 203.014 143.802 202.944 143.782 202.874Z" fill="#932F30"/>
<path d="M44.8322 211.014C36.2122 211.314 32.4122 213.174 29.6822 218.024C28.9222 221.654 34.9722 236.554 34.9722 236.554L34.1022 248.064C32.5322 248.194 20.8522 243.704 19.9022 242.304C17.9422 240.864 14.9222 239.004 13.0422 236.964C7.46221 230.924 2.97221 222.114 3.85221 209.664C13.9122 189.564 38.7922 181.854 50.8622 183.174C61.4922 188.074 53.4522 210.714 44.8322 211.014Z" fill="url(#paint21_linear_871_251)"/>
<path d="M34.6822 185.244C40.6322 185.374 47.2222 189.804 50.6122 200.404C53.0222 193.134 52.3322 185.914 49.7422 183.084C45.6422 182.824 40.3322 183.514 34.6822 185.244Z" fill="#9C3D39"/>
<path d="M32.5522 211.754C37.3322 201.024 34.7222 190.814 29.2822 187.194C23.6622 189.534 18.0122 192.904 13.1622 197.404C18.7722 195.534 29.7222 197.074 32.5522 211.754Z" fill="#9C3D39"/>
<path d="M20.0722 242.454C20.9722 237.084 24.9422 230.834 29.1022 229.004C22.4222 227.284 16.4622 232.684 13.5122 237.424C15.4022 239.274 18.1022 240.964 19.9122 242.294C19.9322 242.344 20.0122 242.404 20.0722 242.454Z" fill="#9C3D39"/>
<path d="M10.1122 233.334C9.66221 227.164 15.7322 217.524 27.4422 218.324C18.7122 210.894 8.33221 212.704 4.08221 217.904C4.91221 224.154 7.20221 229.234 10.1122 233.334Z" fill="#9C3D39"/>
<path d="M3.85221 209.654C2.97221 222.114 7.46221 230.914 13.0422 236.954C14.9222 238.994 17.9422 240.854 19.9022 242.294C20.0122 242.454 20.2722 242.654 20.6222 242.874C20.5422 242.034 20.5922 241.174 20.7322 240.344C16.9222 238.084 10.8622 233.324 7.27221 226.174C4.01221 219.684 3.86221 212.324 3.94221 209.454C3.92221 209.524 3.88221 209.584 3.85221 209.654Z" fill="#932F30"/>
<path d="M84.6722 111.094C84.5922 110.894 84.3222 110.634 84.0322 110.594L83.8022 110.584C82.3622 110.754 77.8222 111.004 72.6522 111.004C67.1822 111.004 60.9422 110.724 56.8022 109.814C51.3822 108.624 48.7322 107.394 47.3622 106.464C46.6722 106.004 46.3122 105.624 46.0222 105.324C45.8822 105.164 45.7622 105.024 45.6222 104.884C45.4822 104.744 45.2922 104.584 45.0222 104.484C44.8322 104.424 44.6322 104.384 44.4322 104.384C44.0622 104.384 43.7022 104.524 43.4322 104.734C43.0322 105.054 42.8122 105.484 42.6622 105.944C42.5122 106.404 42.4422 106.914 42.4422 107.434C42.4422 108.044 42.5322 108.664 42.7422 109.254C42.9522 109.834 43.2822 110.384 43.7922 110.784C44.0622 110.994 44.7822 111.484 45.7522 112.144C48.4022 113.944 52.7822 116.874 53.5222 117.354L56.9122 122.214C57.0122 122.354 57.1422 122.454 57.3022 122.504C57.3122 122.504 58.3622 122.834 59.6722 123.164C60.9922 123.494 62.5622 123.834 63.7322 123.834H63.8822C64.1322 123.824 64.3522 123.704 64.4922 123.494C64.6222 123.284 64.6522 123.034 64.5622 122.804C64.1722 121.844 63.9522 120.874 63.9122 120.024C66.7422 119.634 70.4522 119.004 73.8122 118.424C77.4222 117.804 80.6422 117.234 81.7922 117.094L81.9722 117.054C82.2622 116.924 82.3922 116.784 82.5422 116.624C83.0222 116.074 83.5322 115.164 83.9822 114.204C84.2022 113.734 84.4022 113.254 84.5422 112.814C84.6822 112.374 84.7922 112.004 84.7922 111.604C84.7722 111.464 84.7622 111.294 84.6722 111.094ZM82.0422 114.654C81.8522 114.984 81.6722 115.274 81.5222 115.464L81.3722 115.644C80.0122 115.824 76.9822 116.364 73.5222 116.964C69.9122 117.584 65.8822 118.274 63.0422 118.644C62.6922 118.684 62.4222 118.964 62.3922 119.324C62.3822 119.494 62.3722 119.654 62.3722 119.824C62.3722 120.614 62.5222 121.444 62.7622 122.274C61.9222 122.164 60.9022 121.954 60.0222 121.724C59.3822 121.564 58.8122 121.404 58.4022 121.284C58.2322 121.234 58.0922 121.194 57.9822 121.164L54.6622 116.394L54.4622 116.204C54.4522 116.204 52.2422 114.724 49.9122 113.164C48.7422 112.384 47.5522 111.574 46.5922 110.924C45.6322 110.274 44.8922 109.764 44.7022 109.614C44.4922 109.464 44.2922 109.164 44.1522 108.764C44.0122 108.374 43.9322 107.904 43.9322 107.444C43.9322 106.934 44.0322 106.444 44.1722 106.164C44.2422 106.024 44.3122 105.944 44.3522 105.914L44.4122 105.884L44.4922 105.904C44.5322 105.924 44.7522 106.174 45.1022 106.544C45.6522 107.114 46.5722 107.894 48.2922 108.714C50.0222 109.544 52.5722 110.424 56.4722 111.274C60.8422 112.224 67.1222 112.494 72.6422 112.504C77.1722 112.504 81.1522 112.324 83.1622 112.154C83.1322 112.274 83.0922 112.384 83.0422 112.524C82.8022 113.164 82.4122 113.994 82.0422 114.654Z" fill="#602229"/>
<path d="M40.4722 38.9243C47.3222 40.6743 53.4722 47.2843 53.4722 47.2843C53.4722 47.2843 43.4422 45.7843 29.6922 52.0743C31.9422 45.8143 37.4222 40.7143 40.4722 38.9243Z" fill="#9C3D39"/>
<path d="M109.912 328.684C111.132 328.354 112.942 327.004 114.222 325.244C113.302 325.834 110.702 327.454 109.522 327.654C100.472 328.634 94.5622 326.854 92.4622 325.804C92.8422 326.564 93.2522 327.184 93.6322 327.494C98.0422 329.254 107.972 329.214 109.912 328.684Z" fill="#932F30"/>
<path opacity="0.22" d="M205.122 280.184C205.592 279.294 205.782 278.204 205.582 277.234C204.032 277.264 202.492 277.394 200.972 277.664C193.612 278.974 187.472 282.734 181.592 286.734C175.712 290.744 170.052 294.994 163.742 297.564C160.882 298.734 157.852 299.524 154.752 299.954C158.152 300.564 161.912 300.294 165.312 299.674C178.582 297.264 191.252 291.674 201.952 283.494C203.172 282.564 204.402 281.554 205.122 280.184Z" fill="#FFF64D"/>
<path d="M100.762 277.604H33.7822C29.6622 277.604 26.3122 274.264 26.3122 270.134V166.784C26.3122 162.664 29.6522 159.314 33.7822 159.314H100.762C104.882 159.314 108.232 162.654 108.232 166.784V270.134C108.232 274.254 104.882 277.604 100.762 277.604Z" fill="white" stroke="black" stroke-width="0.5266" stroke-miterlimit="10"/>
<path d="M35.8122 209.774C35.7222 209.734 35.6322 209.704 35.5422 209.664C34.7722 209.394 34.3322 208.664 34.4622 207.844C34.5722 207.104 35.2422 206.534 36.0222 206.514C36.0722 206.514 36.1222 206.514 36.1722 206.514C42.5022 206.514 48.8422 206.514 55.1722 206.514C56.2422 206.514 56.9722 207.244 56.8922 208.264C56.8422 208.934 56.4822 209.384 55.8722 209.634C55.7622 209.684 55.6422 209.724 55.5322 209.774C48.9622 209.774 42.3922 209.774 35.8122 209.774Z" fill="black"/>
<path d="M38.9422 187.164C38.9422 186.904 38.9422 186.704 38.9422 186.514C38.9422 183.044 38.9422 172.964 38.9422 169.494C38.9422 167.944 39.8622 167.014 41.3822 167.014C44.2422 167.014 47.0922 167.014 49.9522 167.014C51.4822 167.014 52.4022 167.944 52.4022 169.484C52.4022 172.954 52.4022 183.034 52.4022 186.504C52.4022 186.694 52.4022 186.894 52.4022 187.164C52.5922 187.164 52.7622 187.164 52.9222 187.164C53.9522 187.164 54.9922 187.144 56.0222 187.174C56.9222 187.194 57.5922 187.634 57.9722 188.464C58.3622 189.304 58.2622 190.104 57.6922 190.844C57.5722 190.994 57.4322 191.134 57.3022 191.274C54.0322 194.564 50.7622 197.854 47.4922 201.134C46.2722 202.364 45.0622 202.364 43.8422 201.134C40.5622 197.834 37.2722 194.534 33.9922 191.234C33.5322 190.774 33.1722 190.274 33.1422 189.594C33.0822 188.254 34.0322 187.204 35.3622 187.174C36.5322 187.154 37.7022 187.164 38.9422 187.164Z" fill="black"/>
<path d="M89.5422 242.234L97.9522 265.674H101.412V269.554H89.1722V265.674H93.2322L90.8222 258.624H79.5422L77.1322 265.674H81.0722V269.554H68.7422V265.674H72.4922L80.8622 242.234H78.6122V238.484H91.7922V242.234H89.5422ZM85.2922 242.234H85.1522L80.7622 254.974H89.5922L85.2922 242.234Z" fill="black"/>
<path d="M112.162 215.844C112.162 215.844 97.9822 213.804 95.9722 215.134C93.9622 216.464 92.9022 220.484 92.6522 222.654C92.3922 226.484 95.9222 235.974 101.112 238.054C106.722 240.314 108.922 237.674 108.922 237.674C108.922 237.674 116.932 235.524 118.272 233.464C119.622 231.404 120.072 229.344 120.072 229.344C120.072 229.344 116.302 218.534 112.162 215.844Z" fill="url(#paint22_linear_871_251)"/>
<path d="M108.922 237.684C108.922 237.684 116.932 235.534 118.272 233.474C119.622 231.414 120.072 229.354 120.072 229.354C120.072 229.354 120.062 229.314 120.042 229.254C119.442 231.034 117.822 233.964 113.562 235.104C107.232 236.794 103.152 235.214 103.152 235.214C105.002 237.234 108.922 237.684 108.922 237.684Z" fill="#932F30"/>
<path d="M113.982 225.034C111.612 222.514 110.302 219.704 109.842 216.944C109.692 216.034 108.872 215.334 107.832 215.234C103.762 214.834 98.0422 214.404 96.2922 214.974C95.7522 215.544 95.4422 216.344 95.5522 217.004C96.1322 220.554 99.3222 230.294 101.542 230.434C111.012 231.034 115.132 226.254 113.982 225.034Z" fill="url(#paint23_linear_871_251)"/>
<path d="M98.7522 235.504C96.9322 233.904 95.5222 232.384 94.0522 229.164C94.2422 230.364 95.8622 234.124 97.5822 235.764C98.8222 236.944 101.142 238.814 105.262 239.244C107.862 239.514 108.932 237.684 108.932 237.684C108.932 237.684 109.312 237.584 109.902 237.404C109.272 237.104 108.132 236.894 107.842 236.894C107.472 237.944 103.592 238.724 98.7522 235.504Z" fill="#932F30"/>
<path d="M94.3722 229.984C94.7622 230.894 95.2122 231.784 95.7122 232.644C95.7922 230.534 96.2022 228.434 96.9722 226.454C95.7822 227.344 94.8822 228.594 94.3722 229.984Z" fill="#932F30"/>
<path d="M92.9422 225.554C93.3522 223.904 93.9522 222.304 94.7822 220.824C93.9322 221.574 93.2322 222.474 92.6522 223.444C92.6722 224.064 92.7822 224.784 92.9422 225.554Z" fill="#932F30"/>
<path d="M20.7222 241.824C20.7222 241.824 21.1722 243.884 22.5222 245.944C23.8722 248.004 31.8722 250.154 31.8722 250.154C31.8722 250.154 34.0722 252.784 39.6822 250.534C44.8722 248.444 48.4022 238.964 48.1422 235.134C47.8922 232.964 46.8322 228.954 44.8222 227.614C42.8122 226.274 28.6322 228.324 28.6322 228.324C24.4922 230.994 20.7222 241.824 20.7222 241.824Z" fill="url(#paint24_linear_871_251)"/>
<path d="M37.6322 247.694C37.6322 247.694 33.5522 249.274 27.2222 247.584C22.9622 246.444 21.3422 243.514 20.7422 241.734C20.7222 241.784 20.7122 241.834 20.7122 241.834C20.7122 241.834 21.1622 243.894 22.5122 245.954C23.8622 248.014 31.8622 250.164 31.8622 250.164C31.8622 250.164 35.7922 249.694 37.6322 247.694Z" fill="#932F30"/>
<path d="M39.2521 242.884C41.4721 242.744 44.6621 233.004 45.2421 229.454C45.3421 228.794 45.0421 227.994 44.5021 227.424C42.7421 226.854 37.0321 227.284 32.9621 227.684C31.9221 227.784 31.1021 228.494 30.9521 229.394C30.5021 232.154 29.1821 234.964 26.8121 237.484C25.6621 238.714 29.7821 243.494 39.2521 242.884Z" fill="url(#paint25_linear_871_251)"/>
<path d="M32.9622 249.354C32.6622 249.344 31.5322 249.564 30.9022 249.864C31.4922 250.034 31.8722 250.144 31.8722 250.144C31.8722 250.144 32.9522 251.964 35.5422 251.704C39.6522 251.284 41.9822 249.404 43.2222 248.224C44.9422 246.594 46.5522 242.834 46.7522 241.624C45.2822 244.844 43.8722 246.364 42.0522 247.964C37.2122 251.184 33.3222 250.404 32.9622 249.354Z" fill="#932F30"/>
<path d="M43.8221 238.924C44.5821 240.894 44.9921 242.994 45.0821 245.114C45.5821 244.254 46.0321 243.354 46.4221 242.454C45.9121 241.054 45.0221 239.804 43.8221 238.924Z" fill="#932F30"/>
<path d="M48.1421 235.904C47.5621 234.934 46.8521 234.034 46.0121 233.284C46.8421 234.764 47.4421 236.364 47.8521 238.014C48.0121 237.244 48.1221 236.524 48.1421 235.904Z" fill="#932F30"/>
<defs>
<linearGradient id="paint0_linear_871_251" x1="182.713" y1="295.285" x2="117.563" y2="295.285" gradientUnits="userSpaceOnUse">
<stop stop-color="#FA7C30"/>
<stop offset="0.2303" stop-color="#F76C36"/>
<stop offset="0.5485" stop-color="#F3593D"/>
<stop offset="0.6428" stop-color="#ED563C"/>
<stop offset="0.765" stop-color="#DD4F3A"/>
<stop offset="0.9018" stop-color="#C34336"/>
<stop offset="1" stop-color="#AB3933"/>
</linearGradient>
<linearGradient id="paint1_linear_871_251" x1="40.0839" y1="162.296" x2="45.0415" y2="210.312" gradientUnits="userSpaceOnUse">
<stop stop-color="#F3593D"/>
<stop offset="0.2089" stop-color="#ED563C"/>
<stop offset="0.4795" stop-color="#DD4F3A"/>
<stop offset="0.7826" stop-color="#C34336"/>
<stop offset="1" stop-color="#AB3933"/>
</linearGradient>
<linearGradient id="paint2_linear_871_251" x1="91.1253" y1="295.283" x2="164.694" y2="295.283" gradientUnits="userSpaceOnUse">
<stop stop-color="white"/>
<stop offset="0.2092" stop-color="#F1DDDC"/>
<stop offset="0.5582" stop-color="#D69E9B"/>
<stop offset="0.6535" stop-color="#DCADAB"/>
<stop offset="0.8382" stop-color="#EDD5D4"/>
<stop offset="1" stop-color="#FEFDFD"/>
</linearGradient>
<linearGradient id="paint3_linear_871_251" x1="80.2874" y1="183.639" x2="80.2874" y2="333.296" gradientUnits="userSpaceOnUse">
<stop stop-color="#FA7C30"/>
<stop offset="0.1588" stop-color="#F76C36"/>
<stop offset="0.3781" stop-color="#F3593D"/>
<stop offset="0.487" stop-color="#ED573C"/>
<stop offset="0.6279" stop-color="#DD4F3A"/>
<stop offset="0.7865" stop-color="#C24436"/>
<stop offset="0.9569" stop-color="#9E3431"/>
<stop offset="1" stop-color="#932F30"/>
</linearGradient>
<linearGradient id="paint4_linear_871_251" x1="64.5348" y1="203.464" x2="64.5348" y2="240.449" gradientUnits="userSpaceOnUse">
<stop offset="0.017" stop-color="#FFD09C"/>
<stop offset="1" stop-color="#F9BD8A"/>
</linearGradient>
<linearGradient id="paint5_linear_871_251" x1="29.5265" y1="1.82456" x2="47.8486" y2="51.7846" gradientUnits="userSpaceOnUse">
<stop stop-color="#76262C"/>
<stop offset="0.1773" stop-color="#7C2A2C"/>
<stop offset="0.4064" stop-color="#8C352D"/>
<stop offset="0.5998" stop-color="#9F422D"/>
<stop offset="0.7998" stop-color="#B7532D"/>
<stop offset="1" stop-color="#D3672E"/>
</linearGradient>
<linearGradient id="paint6_linear_871_251" x1="52.8717" y1="53.4772" x2="35.9119" y2="17.8809" gradientUnits="userSpaceOnUse">
<stop stop-color="#FFD4A7"/>
<stop offset="0.9516" stop-color="#FFB96D"/>
</linearGradient>
<linearGradient id="paint7_linear_871_251" x1="41.4682" y1="-2.55484" x2="59.7903" y2="47.4052" gradientUnits="userSpaceOnUse">
<stop stop-color="#76262C"/>
<stop offset="0.1773" stop-color="#7C2A2C"/>
<stop offset="0.4064" stop-color="#8C352D"/>
<stop offset="0.5998" stop-color="#9F422D"/>
<stop offset="0.7998" stop-color="#B7532D"/>
<stop offset="1" stop-color="#D3672E"/>
</linearGradient>
<radialGradient id="paint8_radial_871_251" cx="0" cy="0" r="1" gradientUnits="userSpaceOnUse" gradientTransform="translate(94.1114 41.9918) scale(66.7919 66.454)">
<stop offset="0.00096858" stop-color="#FE9128"/>
<stop offset="0.2249" stop-color="#FE8B2A"/>
<stop offset="0.515" stop-color="#FE7B30"/>
<stop offset="0.84" stop-color="#FF613A"/>
<stop offset="0.8677" stop-color="#FF5E3B"/>
</radialGradient>
<radialGradient id="paint9_radial_871_251" cx="0" cy="0" r="1" gradientUnits="userSpaceOnUse" gradientTransform="translate(94.1114 41.9918) scale(66.7919 66.454)">
<stop offset="0.00096858" stop-color="#FE9128"/>
<stop offset="0.2249" stop-color="#FE8B2A"/>
<stop offset="0.515" stop-color="#FE7B30"/>
<stop offset="0.84" stop-color="#FF613A"/>
<stop offset="0.8677" stop-color="#FF5E3B"/>
</radialGradient>
<linearGradient id="paint10_linear_871_251" x1="106.055" y1="112.941" x2="118.697" y2="97.1285" gradientUnits="userSpaceOnUse">
<stop stop-color="#FDA80D"/>
<stop offset="0.9894" stop-color="#AE1702"/>
</linearGradient>
<linearGradient id="paint11_linear_871_251" x1="42.8836" y1="102.958" x2="53.5464" y2="86.8193" gradientUnits="userSpaceOnUse">
<stop stop-color="#FDA80D"/>
<stop offset="0.9894" stop-color="#AE1702"/>
</linearGradient>
<radialGradient id="paint12_radial_871_251" cx="0" cy="0" r="1" gradientUnits="userSpaceOnUse" gradientTransform="translate(71.3313 108.771) scale(58.9186 58.6205)">
<stop offset="0.00403747" stop-color="white"/>
<stop offset="0.0375" stop-color="#FFFCF8"/>
<stop offset="0.1899" stop-color="#FFEEDB"/>
<stop offset="0.3529" stop-color="#FFE3C4"/>
<stop offset="0.5292" stop-color="#FFDCB4"/>
<stop offset="0.7285" stop-color="#FFD7AB"/>
<stop offset="1" stop-color="#FFD6A8"/>
</radialGradient>
<linearGradient id="paint13_linear_871_251" x1="203.006" y1="36.6011" x2="154.73" y2="69.4149" gradientUnits="userSpaceOnUse">
<stop stop-color="#76262C"/>
<stop offset="0.1785" stop-color="#7C2A2C"/>
<stop offset="0.4096" stop-color="#8C352C"/>
<stop offset="0.6697" stop-color="#A7482D"/>
<stop offset="0.9492" stop-color="#CB622E"/>
<stop offset="1" stop-color="#D3672E"/>
</linearGradient>
<linearGradient id="paint14_linear_871_251" x1="148.309" y1="76.1761" x2="194.073" y2="45.9908" gradientUnits="userSpaceOnUse">
<stop stop-color="#FFD4A7"/>
<stop offset="0.9516" stop-color="#FFB96D"/>
</linearGradient>
<linearGradient id="paint15_linear_871_251" x1="194.222" y1="23.6889" x2="146.158" y2="56.3588" gradientUnits="userSpaceOnUse">
<stop stop-color="#76262C"/>
<stop offset="0.1785" stop-color="#7C2A2C"/>
<stop offset="0.4096" stop-color="#8C352C"/>
<stop offset="0.6697" stop-color="#A7482D"/>
<stop offset="0.9492" stop-color="#CB622E"/>
<stop offset="1" stop-color="#D3672E"/>
</linearGradient>
<linearGradient id="paint16_linear_871_251" x1="102.393" y1="323.017" x2="102.32" y2="313.346" gradientUnits="userSpaceOnUse">
<stop stop-color="#FE7831"/>
<stop offset="0.2165" stop-color="#FE7532"/>
<stop offset="0.3552" stop-color="#FE6D35"/>
<stop offset="0.4719" stop-color="#FF5E3B"/>
<stop offset="0.6021" stop-color="#F95C3B"/>
<stop offset="0.7708" stop-color="#E95439"/>
<stop offset="0.9598" stop-color="#CF4937"/>
<stop offset="1" stop-color="#C84637"/>
</linearGradient>
<linearGradient id="paint17_linear_871_251" x1="68.8351" y1="321.031" x2="68.8351" y2="310.924" gradientUnits="userSpaceOnUse">
<stop stop-color="#FE7931"/>
<stop offset="0.321" stop-color="#FF6837"/>
<stop offset="0.4719" stop-color="#FF5E3B"/>
<stop offset="0.6021" stop-color="#F95C3B"/>
<stop offset="0.7708" stop-color="#E95439"/>
<stop offset="0.9598" stop-color="#CF4937"/>
<stop offset="1" stop-color="#C84637"/>
</linearGradient>
<linearGradient id="paint18_linear_871_251" x1="69.975" y1="233.66" x2="63.1018" y2="280.174" gradientUnits="userSpaceOnUse">
<stop stop-color="white"/>
<stop offset="0.5934" stop-color="#E6C3C1"/>
<stop offset="1" stop-color="#D69E9B"/>
</linearGradient>
<linearGradient id="paint19_linear_871_251" x1="99.0894" y1="109.121" x2="93.9234" y2="162.775" gradientUnits="userSpaceOnUse">
<stop offset="0.1528" stop-color="white"/>
<stop offset="0.3086" stop-color="#F8E7DF"/>
<stop offset="0.6512" stop-color="#E7A88E"/>
<stop offset="1" stop-color="#D46436"/>
</linearGradient>
<linearGradient id="paint20_linear_871_251" x1="127.018" y1="177.585" x2="98.93" y2="232.479" gradientUnits="userSpaceOnUse">
<stop offset="0.00096858" stop-color="#FE9128"/>
<stop offset="0.4406" stop-color="#FF7632"/>
<stop offset="0.7583" stop-color="#FF5F3B"/>
<stop offset="0.8115" stop-color="#FF5E3B"/>
<stop offset="0.856" stop-color="#F95B3A"/>
<stop offset="0.9137" stop-color="#E95439"/>
<stop offset="0.9783" stop-color="#CF4936"/>
<stop offset="1" stop-color="#C44435"/>
</linearGradient>
<linearGradient id="paint21_linear_871_251" x1="26.4956" y1="189.146" x2="40.0247" y2="249.307" gradientUnits="userSpaceOnUse">
<stop offset="0.00096858" stop-color="#FE9128"/>
<stop offset="0.4406" stop-color="#FF7632"/>
<stop offset="0.7583" stop-color="#FF5F3B"/>
<stop offset="0.8115" stop-color="#FF5E3B"/>
<stop offset="0.856" stop-color="#F95B3A"/>
<stop offset="0.9137" stop-color="#E95439"/>
<stop offset="0.9783" stop-color="#CF4936"/>
<stop offset="1" stop-color="#C44435"/>
</linearGradient>
<linearGradient id="paint22_linear_871_251" x1="129.976" y1="179.099" x2="101.887" y2="233.993" gradientUnits="userSpaceOnUse">
<stop offset="0.00096858" stop-color="#FE9128"/>
<stop offset="0.4406" stop-color="#FF7632"/>
<stop offset="0.7583" stop-color="#FF5F3B"/>
<stop offset="0.8115" stop-color="#FF5E3B"/>
<stop offset="0.856" stop-color="#F95B3A"/>
<stop offset="0.9137" stop-color="#E95439"/>
<stop offset="0.9783" stop-color="#CF4936"/>
<stop offset="1" stop-color="#C44435"/>
</linearGradient>
<linearGradient id="paint23_linear_871_251" x1="93.9543" y1="221.587" x2="120.969" y2="224.71" gradientUnits="userSpaceOnUse">
<stop offset="0.00096858" stop-color="#FE9128"/>
<stop offset="0.9949" stop-color="#FF5E3B"/>
</linearGradient>
<linearGradient id="paint24_linear_871_251" x1="10.8188" y1="191.561" x2="38.9078" y2="246.455" gradientUnits="userSpaceOnUse">
<stop offset="0.00096858" stop-color="#FE9128"/>
<stop offset="0.4406" stop-color="#FF7632"/>
<stop offset="0.7583" stop-color="#FF5F3B"/>
<stop offset="0.8115" stop-color="#FF5E3B"/>
<stop offset="0.856" stop-color="#F95B3A"/>
<stop offset="0.9137" stop-color="#E95439"/>
<stop offset="0.9783" stop-color="#CF4936"/>
<stop offset="1" stop-color="#C44435"/>
</linearGradient>
<linearGradient id="paint25_linear_871_251" x1="46.841" y1="234.049" x2="19.8265" y2="237.172" gradientUnits="userSpaceOnUse">
<stop offset="0.00096858" stop-color="#FE9128"/>
<stop offset="0.9949" stop-color="#FF5E3B"/>
</linearGradient>
</defs>
</svg>
