<svg width="99" height="99" viewBox="0 0 99 99" fill="none" xmlns="http://www.w3.org/2000/svg">
<rect x="1.93524" y="1.06476" width="96" height="96" rx="9" fill="white"/>
<g clip-path="url(#clip0_1_2)">
<path d="M31.9352 76.0648C31.9352 81.0354 27.9058 85.0648 22.9352 85.0648C17.9647 85.0648 13.9352 81.0354 13.9352 76.0648C13.9352 71.0942 17.9647 67.0648 22.9352 67.0648C27.9058 67.0648 31.9352 71.0942 31.9352 76.0648Z" fill="black"/>
<path d="M85.9352 22.0648C85.9352 27.0354 81.9058 31.0648 76.9352 31.0648C71.9646 31.0648 67.9352 27.0354 67.9352 22.0648C67.9352 17.0942 71.9646 13.0648 76.9352 13.0648C81.9058 13.0648 85.9352 17.0942 85.9352 22.0648Z" fill="black"/>
</g>
<rect x="1.93524" y="1.06476" width="96" height="96" rx="9" stroke="black" stroke-width="2"/>
<defs>
<clipPath id="clip0_1_2">
<rect width="72" height="72" fill="white" transform="translate(13.9352 13.0648)"/>
</clipPath>
</defs>
</svg>
