<svg width="180" height="254" viewBox="0 0 180 254" fill="none" xmlns="http://www.w3.org/2000/svg">
<rect x="0.5" y="0.5" width="179" height="253" rx="14.5" fill="white" stroke="#1D1D1B"/>
<path d="M90.41 58.3899C90.77 58.0799 91.1 57.7399 91.41 57.3599L101.96 44.4999L107.75 37.4399C110.73 33.8099 110.2 28.4499 106.57 25.4699L105.93 24.9399C102.3 21.9599 96.94 22.4899 93.96 26.1199L90.5 30.3599L87.1 26.1699C84.14 22.5199 78.79 21.9599 75.14 24.9199L74.5 25.4399C70.85 28.3999 70.29 33.7499 73.25 37.3999L89.48 57.4099C89.76 57.7699 90.07 58.0999 90.41 58.3899Z" fill="#E30B13"/>
<path d="M90.23 146.29C90.59 145.98 90.92 145.64 91.23 145.26L101.78 132.4L107.57 125.34C110.55 121.71 110.02 116.35 106.39 113.37L105.75 112.84C102.12 109.86 96.76 110.39 93.78 114.02L90.31 118.25L86.91 114.06C83.95 110.41 78.6 109.85 74.95 112.81L74.31 113.33C70.66 116.29 70.1 121.64 73.06 125.29L89.29 145.3C89.58 145.68 89.89 146 90.23 146.29Z" fill="#E30B13"/>
<path d="M90.23 197.05C89.87 197.36 89.54 197.7 89.23 198.08L78.68 210.94L72.89 218C69.91 221.63 70.44 226.99 74.07 229.97L74.71 230.5C78.34 233.48 83.7 232.95 86.68 229.32L90.15 225.09L93.55 229.28C96.51 232.93 101.86 233.49 105.51 230.53L106.15 230.01C109.8 227.05 110.36 221.7 107.4 218.05L91.17 198.04C90.88 197.67 90.57 197.34 90.23 197.05Z" fill="#E30B13"/>
<path d="M162.07 205.38C161.89 205.53 161.73 205.7 161.57 205.89L156.33 212.28L153.45 215.78C151.97 217.58 152.23 220.24 154.03 221.73L154.35 221.99C156.15 223.47 158.81 223.21 160.3 221.41L162.03 219.31L163.72 221.39C165.19 223.2 167.85 223.48 169.66 222.01L169.98 221.75C171.79 220.28 172.07 217.62 170.6 215.81L162.54 205.87C162.39 205.69 162.23 205.52 162.07 205.38Z" fill="#E30B13"/>
<path d="M17.28 49.4998C17.46 49.3498 17.62 49.1798 17.78 48.9898L23.02 42.5998L25.9 39.0998C27.38 37.2998 27.12 34.6398 25.32 33.1498L25 32.8898C23.2 31.4098 20.54 31.6698 19.05 33.4698L17.32 35.5698L15.63 33.4898C14.16 31.6798 11.5 31.3998 9.69 32.8698L9.37 33.1298C7.56 34.5998 7.28 37.2598 8.75 39.0698L16.81 49.0098C16.96 49.1898 17.11 49.3498 17.28 49.4998Z" fill="#E30B13"/>
<path d="M17.84 26.8002C16.5 26.8002 15.29 26.3402 14.23 25.4102C13.26 24.5702 12.55 23.4802 12.09 22.1302L14.24 21.3702C14.53 22.2502 14.98 22.9602 15.57 23.5202C16.24 24.1602 17.01 24.4802 17.86 24.4802C18.93 24.4802 19.85 24.0602 20.62 23.2202C21.39 22.3802 21.78 21.4302 21.78 20.3702C21.78 19.3202 21.45 18.4702 20.79 17.8202C20.13 17.1602 19.27 16.8402 18.2 16.8402C17.71 16.8402 17.32 16.9002 17.04 17.0302C16.76 17.1602 16.42 17.4002 16.03 17.7702L14.41 16.1702L19.64 11.2602H14.6V13.5102H12.35V8.9502H23.84V10.4002L19.36 14.6402C20.78 14.9102 21.91 15.5702 22.76 16.6302C23.61 17.6902 24.03 18.9402 24.03 20.4002C24.03 22.1002 23.42 23.5902 22.2 24.8802C20.97 26.1502 19.52 26.8002 17.84 26.8002Z" fill="#E30B13"/>
<path d="M161.34 229.26C162.68 229.26 163.89 229.72 164.95 230.65C165.92 231.49 166.63 232.58 167.09 233.93L164.94 234.69C164.65 233.81 164.2 233.1 163.61 232.54C162.94 231.9 162.17 231.58 161.32 231.58C160.25 231.58 159.33 232 158.56 232.84C157.79 233.68 157.4 234.63 157.4 235.69C157.4 236.74 157.73 237.59 158.39 238.24C159.05 238.9 159.91 239.22 160.98 239.22C161.47 239.22 161.86 239.16 162.14 239.03C162.42 238.9 162.76 238.66 163.15 238.29L164.77 239.89L159.54 244.8H164.58V242.55H166.83V247.11H155.34V245.66L159.82 241.42C158.4 241.15 157.27 240.49 156.42 239.43C155.57 238.37 155.15 237.12 155.15 235.66C155.15 233.96 155.76 232.47 156.98 231.18C158.21 229.9 159.66 229.26 161.34 229.26Z" fill="#E30B13"/>
</svg>
