<svg width="12" height="8" viewBox="0 0 12 8" fill="none" xmlns="http://www.w3.org/2000/svg">
<path d="M0.215918 0.244393C0.147475 0.321473 0.0931728 0.413041 0.056122 0.513851C0.0190712 0.614661 -2.80065e-07 0.722734 -2.75294e-07 0.83188C-2.70524e-07 0.941024 0.0190712 1.0491 0.056122 1.14991C0.0931729 1.25072 0.147475 1.34228 0.215918 1.41936L5.10184 6.93575C5.15624 6.99729 5.22085 7.04611 5.29198 7.07942C5.3631 7.11274 5.43935 7.12988 5.51635 7.12988C5.59336 7.12988 5.66961 7.11274 5.74073 7.07942C5.81186 7.04611 5.87647 6.99729 5.93086 6.93575L10.8168 1.41936C11.1049 1.09409 11.1049 0.569668 10.8168 0.244393C10.5287 -0.0808808 10.0642 -0.0808808 9.77611 0.244393L5.51341 5.05049L1.25072 0.237756C0.968503 -0.0808797 0.498137 -0.0808807 0.215918 0.244393Z" fill="#5D74A3"/>
</svg>
