<svg width="17" height="15" viewBox="0 0 17 15" fill="none" xmlns="http://www.w3.org/2000/svg">
<path d="M8.14999 12.5664L4.27208 14.8595C4.10076 14.9666 3.92166 15.0124 3.73478 14.9971C3.54789 14.9818 3.38436 14.9207 3.2442 14.8137C3.10403 14.7067 2.99501 14.5728 2.91714 14.4119C2.83927 14.2511 2.8237 14.0716 2.87042 13.8735L3.8983 9.53946L0.464246 6.62717C0.308506 6.48959 0.211324 6.33273 0.172701 6.15662C0.134078 5.98051 0.145602 5.80868 0.207275 5.64112C0.269571 5.47296 0.363015 5.33537 0.487606 5.22836C0.612198 5.12135 0.783511 5.05255 1.00155 5.02198L5.53357 4.63214L7.28564 0.550354C7.36351 0.366903 7.48436 0.229314 7.6482 0.137588C7.81204 0.0458629 7.9793 0 8.14999 0C8.32131 0 8.48857 0.0458629 8.65178 0.137588C8.815 0.229314 8.93585 0.366903 9.01435 0.550354L10.7664 4.63214L15.2984 5.02198C15.5165 5.05255 15.6878 5.12135 15.8124 5.22836C15.937 5.33537 16.0304 5.47296 16.0927 5.64112C16.155 5.80929 16.1668 5.98143 16.1282 6.15754C16.0896 6.33365 15.9921 6.4902 15.8357 6.62717L12.4017 9.53946L13.4296 13.8735C13.4763 14.0722 13.4607 14.252 13.3828 14.4128C13.305 14.5737 13.196 14.7073 13.0558 14.8137C12.9156 14.9207 12.7521 14.9818 12.5652 14.9971C12.3783 15.0124 12.1992 14.9666 12.0279 14.8595L8.14999 12.5664Z" fill="white"/>
</svg>
