<svg width="20" height="19" viewBox="0 0 20 19" fill="none" xmlns="http://www.w3.org/2000/svg">
<path d="M9.9995 15.9174L5.15211 18.8221C4.93797 18.9576 4.71409 19.0157 4.48048 18.9964C4.24687 18.977 4.04246 18.8995 3.86726 18.764C3.69205 18.6285 3.55578 18.4588 3.45844 18.2551C3.3611 18.0514 3.34164 17.8241 3.40004 17.5731L4.68489 12.0833L0.392319 8.39442C0.197644 8.22014 0.0761673 8.02146 0.027888 7.79839C-0.0203912 7.57531 -0.00598538 7.35766 0.0711057 7.14542C0.148975 6.93242 0.26578 6.75814 0.42152 6.62259C0.577259 6.48704 0.791401 6.3999 1.06395 6.36117L6.72897 5.86738L8.91906 0.697115C9.0164 0.464743 9.16746 0.290464 9.37226 0.174279C9.57706 0.058093 9.78614 0 9.9995 0C10.2136 0 10.4227 0.058093 10.6267 0.174279C10.8308 0.290464 10.9818 0.464743 11.0799 0.697115L13.27 5.86738L18.9351 6.36117C19.2076 6.3999 19.4217 6.48704 19.5775 6.62259C19.7332 6.75814 19.85 6.93242 19.9279 7.14542C20.0058 7.35843 20.0206 7.57647 19.9723 7.79955C19.924 8.02263 19.8021 8.22092 19.6067 8.39442L15.3141 12.0833L16.599 17.5731C16.6574 17.8248 16.6379 18.0526 16.5406 18.2563C16.4432 18.46 16.307 18.6292 16.1317 18.764C15.9565 18.8995 15.7521 18.977 15.5185 18.9964C15.2849 19.0157 15.061 18.9576 14.8469 18.8221L9.9995 15.9174Z" fill="#FFA800"/>
</svg>
