<svg width="116" height="116" viewBox="0 0 116 116" fill="none" xmlns="http://www.w3.org/2000/svg">
<rect x="1.25" y="0.932007" width="113.367" height="113.367" rx="15.75" fill="white" stroke="#3B5585" stroke-width="1.5"/>
<path d="M49.2951 32.0554H49.3422C51.2716 32.0554 52.8245 30.5025 52.8245 28.5731H48.3539V28.6013C44.467 28.8387 40.8172 30.5507 38.1498 33.3878C35.4824 36.2249 33.9984 39.9732 34.0008 43.8673H34.5702C34.3509 44.388 34.3304 44.9711 34.5126 45.5059C34.6948 46.0407 35.0669 46.49 35.5585 46.7685C35.2737 46.9539 35.0398 47.2075 34.8779 47.5062C34.716 47.8049 34.6313 48.1394 34.6314 48.4791C34.6314 50.9027 35.6338 53.0839 37.2409 54.6439C36.8291 55.6651 36.5538 56.8322 36.4291 58.1592L28.6478 50.3615C27.589 49.3262 25.8243 50.1262 25.8949 51.6086C26.0125 54.5498 27.2125 57.4439 29.4478 59.6793C31.3789 61.6201 33.9116 62.8479 36.6314 63.1616C36.7256 63.7122 36.8385 64.2534 36.975 64.7852H26.2007C24.7184 64.7852 24.036 66.597 25.1184 67.6087C26.9412 69.2833 29.2325 70.3602 31.685 70.695C34.1374 71.0298 36.6336 70.6064 38.8385 69.4817C39.1115 69.9758 39.4032 70.4535 39.7138 70.9217C37.9143 71.8822 36.3859 73.2809 35.2702 74.9885C34.1544 76.6961 33.4872 78.6574 33.3302 80.6912C33.2126 82.1736 34.9538 83.0207 36.0361 82.0324L43.4339 75.1359C43.9845 75.6112 44.5609 76.0606 45.1609 76.4771C45.0458 77.0835 44.9766 77.6978 44.9539 78.3147C44.8362 81.5148 45.9421 84.456 47.8716 86.7148C48.8363 87.8442 50.6951 87.2325 50.7422 85.7266L50.9822 79.3406C53.1014 80.0048 55.3096 80.3412 57.5305 80.3383C59.7473 80.3413 61.9516 80.0057 64.067 79.343L64.2952 85.4442C64.3423 86.9501 66.2011 87.5619 67.1659 86.4325C69.0953 84.1736 70.2012 81.2324 70.0835 78.0324C70.0649 77.5056 70.0122 76.9806 69.9259 76.4606C70.4906 76.0653 71.0388 75.6418 71.5612 75.1947L78.9072 82.0324C79.9895 83.0442 81.7542 82.1736 81.6366 80.6912C81.4013 77.75 80.0836 74.8794 77.7542 72.6911C77.0269 72.0058 76.2176 71.4131 75.3448 70.9264C75.6675 70.4405 75.9697 69.9412 76.2507 69.4299C77.9337 70.2606 79.7856 70.6922 81.6625 70.6911C84.8625 70.6911 87.7802 69.4676 89.9449 67.4676C91.0508 66.4558 90.3449 64.6205 88.8625 64.6205H78.1283C78.2612 64.0795 78.3711 63.5331 78.4577 62.9828C81.1503 62.6443 83.6524 61.4152 85.566 59.491C87.8249 57.2322 89.0249 54.3145 89.1425 51.3498C89.2131 49.8674 87.4249 49.0439 86.366 50.1027L78.6013 57.8675C78.4816 56.6648 78.1818 55.4869 77.7118 54.3733C79.2202 52.782 80.0593 50.6718 80.0554 48.4791C80.0554 48.1414 79.9716 47.809 79.8114 47.5116C79.6512 47.2143 79.4198 46.9614 79.1377 46.7756C79.6335 46.4992 80.0098 46.0496 80.1947 45.513C80.3797 44.9764 80.3602 44.3905 80.1401 43.8673H81.0601C81.0625 40.014 79.6093 36.3019 76.9915 33.4742C74.3737 30.6466 70.7845 28.912 66.9423 28.6178V28.5731H62.2364C62.2364 30.5025 63.7894 32.0554 65.7188 32.0554H65.7658V32.8319H65.7188C63.7894 32.8319 62.2364 34.3849 62.2364 36.3143H66.0317C66.5485 38.466 67.7744 40.381 69.512 41.7512C71.2496 43.1213 73.3978 43.8667 75.6107 43.8673H75.8883C75.6682 44.3905 75.6487 44.9764 75.8337 45.513C76.0186 46.0496 76.395 46.4992 76.8907 46.7756C76.6086 46.9614 76.3772 47.2143 76.217 47.5116C76.0568 47.809 75.973 48.1414 75.973 48.4791C75.973 49.4156 75.6859 50.2839 75.1965 51.0039C73.133 49.2768 70.2671 48.3615 66.8906 47.8862C66.9606 47.5598 66.9604 47.2223 66.8899 46.8961C66.8195 46.5698 66.6804 46.2623 66.482 45.9939C66.2836 45.7255 66.0304 45.5024 65.7391 45.3394C65.4479 45.1764 65.1252 45.0772 64.7927 45.0484C64.4602 45.0196 64.1253 45.062 63.8104 45.1725C63.4955 45.2831 63.2077 45.4594 62.9661 45.6898C62.7246 45.9201 62.5348 46.1992 62.4094 46.5085C62.284 46.8179 62.2258 47.1503 62.2388 47.4838C60.6701 47.4208 59.1003 47.3918 57.5305 47.3968C55.9116 47.3968 54.3375 47.4203 52.8245 47.4838V47.3968C52.8241 47.0671 52.7543 46.7412 52.6199 46.4402C52.4854 46.1392 52.2891 45.8698 52.0439 45.6495C51.7986 45.4293 51.5098 45.263 51.1961 45.1614C50.8825 45.0599 50.551 45.0255 50.2232 45.0603C49.8953 45.0951 49.5785 45.1984 49.2931 45.3635C49.0078 45.5286 48.7603 45.7518 48.5668 46.0187C48.3732 46.2856 48.2379 46.5902 48.1696 46.9127C48.1014 47.2352 48.1016 47.5685 48.1704 47.8909C44.6692 48.385 41.7162 49.3544 39.6362 51.2086C39.0364 50.4252 38.7122 49.4657 38.7138 48.4791C38.7138 47.7733 38.3538 47.1474 37.8079 46.7827C38.307 46.5076 38.6865 46.0575 38.8734 45.5192C39.0602 44.9809 39.0411 44.3924 38.8197 43.8673H39.4503C41.6631 43.8667 43.8113 43.1213 45.5489 41.7512C47.2866 40.381 48.5125 38.466 49.0292 36.3143H52.8245C52.8245 34.3849 51.2716 32.8319 49.3422 32.8319H49.2951V32.0554Z" fill="#F1621C"/>
</svg>
