<svg width="116" height="116" viewBox="0 0 116 116" fill="none" xmlns="http://www.w3.org/2000/svg">
<rect x="1.25" y="1.61401" width="113.367" height="113.367" rx="15.75" fill="white" stroke="#3B5585" stroke-width="1.5"/>
<g clip-path="url(#clip0_174_28472)">
<path d="M97.7321 58.2975C97.7321 55.9346 95.6935 51.6174 91.2163 47.7259C88.6608 45.5278 85.7483 43.7827 82.6048 42.5659C82.5002 42.5268 82.3849 42.5279 82.2811 42.5691C82.1774 42.6103 82.0926 42.6886 82.0434 42.7887C82.0219 42.8302 82.0005 42.8702 81.9762 42.9116L80.6062 45.183C78.2958 49.1725 77.08 53.7014 77.0818 58.3117C77.0835 62.9219 78.3028 67.4498 80.6162 71.4376L80.6491 71.4933L81.8977 73.779C81.9639 73.9004 82.0719 73.9937 82.2017 74.0415C82.3315 74.0893 82.4742 74.0884 82.6034 74.039C93.1078 69.929 97.7321 61.9389 97.7321 58.2975ZM84.3148 58.2775C83.8414 58.3394 83.3605 58.2515 82.9396 58.0262C82.5187 57.8008 82.1789 57.4494 81.968 57.0211C81.757 56.5928 81.6854 56.1092 81.7633 55.6382C81.8411 55.1672 82.0646 54.7323 82.4021 54.3948C82.7397 54.0572 83.1746 53.8338 83.6456 53.7559C84.1166 53.678 84.6002 53.7496 85.0285 53.9606C85.4568 54.1715 85.8082 54.5113 86.0336 54.9322C86.2589 55.3531 86.3467 55.834 86.2848 56.3074C86.2195 56.807 85.9909 57.271 85.6347 57.6273C85.2784 57.9835 84.8144 58.2121 84.3148 58.2775Z" fill="#0066FF"/>
<path d="M72.5104 58.2974C72.5084 52.8779 73.9418 47.5545 76.6647 42.8687L76.6818 42.8387L77.3418 41.743C77.3895 41.6649 77.4178 41.5765 77.4242 41.4853C77.4307 41.394 77.4151 41.3025 77.3789 41.2185C77.3426 41.1345 77.2867 41.0605 77.2159 41.0026C77.1451 40.9447 77.0614 40.9046 76.9718 40.8858C75.1225 40.499 73.2484 40.2417 71.3632 40.1158C71.1409 40.1014 70.9278 40.0219 70.7503 39.8872C67.996 37.7929 62.536 34.13 56.9702 33.1886C56.5899 33.1256 56.1998 33.1598 55.8362 33.288C55.4726 33.4163 55.1474 33.6344 54.8908 33.9221C54.6342 34.2098 54.4545 34.5577 54.3684 34.9335C54.2824 35.3093 54.2928 35.7008 54.3987 36.0715L55.9159 41.3815C55.9554 41.5191 55.9417 41.6665 55.8777 41.7946C55.8137 41.9226 55.7039 42.022 55.5702 42.073C50.3058 44.0287 45.7715 47.6087 42.4643 50.3373C42.2619 50.503 42.0088 50.5942 41.7473 50.5958C41.4857 50.5973 41.2316 50.5091 41.0272 50.3459C40.5777 49.9888 40.1162 49.6368 39.6429 49.2902C33.98 45.1544 27.327 44.6101 27.047 44.5901C26.6915 44.5633 26.3347 44.6199 26.005 44.7556C25.6753 44.8913 25.3819 45.1022 25.1483 45.3715C24.9146 45.6408 24.7473 45.961 24.6595 46.3066C24.5717 46.6521 24.566 47.0134 24.6427 47.3616C24.7027 47.6373 25.9556 53.1745 29.1714 57.5917C29.3161 57.7897 29.3941 58.0286 29.3941 58.2738C29.3941 58.5191 29.3161 58.758 29.1714 58.956C25.9556 63.3717 24.7027 68.9104 24.6427 69.1861C24.566 69.5342 24.5717 69.8955 24.6595 70.2411C24.7473 70.5866 24.9146 70.9068 25.1483 71.1762C25.3819 71.4455 25.6753 71.6564 26.005 71.792C26.3347 71.9277 26.6915 71.9844 27.047 71.9575C27.3328 71.9375 33.98 71.3861 39.6357 67.2604C40.0977 66.9213 40.5486 66.5775 40.9886 66.2289C41.1931 66.0659 41.4474 65.9779 41.709 65.9797C41.9705 65.9816 42.2235 66.073 42.4258 66.2389C45.7472 68.9804 50.2901 72.5647 55.5688 74.5247C55.7022 74.5757 55.8117 74.6748 55.8757 74.8025C55.9397 74.9303 55.9535 75.0773 55.9145 75.2147L54.3916 80.5262C54.2857 80.8969 54.2753 81.2884 54.3613 81.6642C54.4473 82.04 54.627 82.3879 54.8836 82.6756C55.1403 82.9633 55.4655 83.1814 55.8291 83.3097C56.1926 83.4379 56.5827 83.4721 56.9631 83.4091C59.4145 82.9948 64.3746 81.5719 70.6846 76.719C70.8649 76.5815 71.0813 76.4996 71.3075 76.4833C73.1903 76.36 75.0624 76.107 76.9104 75.7262C76.9976 75.7078 77.0794 75.6694 77.1491 75.6139C77.2188 75.5583 77.2745 75.4872 77.3119 75.4063C77.3492 75.3254 77.3671 75.2368 77.3641 75.1478C77.3612 75.0587 77.3374 74.9715 77.2947 74.8933L76.6504 73.709C73.9354 69.0268 72.5071 63.7098 72.5104 58.2974Z" fill="#0066FF"/>
</g>
<defs>
<clipPath id="clip0_174_28472">
<rect width="73.1436" height="73.1436" fill="white" transform="translate(24.5884 21.7256)"/>
</clipPath>
</defs>
</svg>
