<svg width="116" height="116" viewBox="0 0 116 116" fill="none" xmlns="http://www.w3.org/2000/svg">
<rect x="1.25" y="1.25" width="113.367" height="113.367" rx="15.75" fill="white" stroke="#3B5585" stroke-width="1.5"/>
<g clip-path="url(#clip0_283_6856)">
<path d="M56.2338 34.4914C54.8212 35.5739 53.9944 36.7923 53.7653 38.3796C53.587 39.604 53.7876 40.7595 54.4078 41.8137C56.021 44.5585 57.6565 47.2932 59.3082 50.0138C59.7217 50.6949 60.2364 51.3152 60.8647 52.1849C58.832 52.1849 56.9715 52.1768 55.109 52.1869C53.666 52.195 52.221 52.2336 50.7781 52.2356C50.1194 52.2356 49.7911 52.4687 49.6675 53.1742C49.1466 56.1278 46.9335 58.2057 43.6139 58.8869C42.8519 59.043 42.0534 59.0227 41.2832 59.1504C40.9813 59.1991 40.5719 59.3592 40.4564 59.5903C40.2456 60.0079 40.6023 60.2492 40.9792 60.4316C43.5024 61.656 44.2604 63.4623 43.2998 66.0956C43.0262 66.8457 42.5438 67.5167 42.2013 68.2465C42.0878 68.4898 41.9804 68.9033 42.1 69.0473C42.2641 69.2439 42.6431 69.3068 42.939 69.3311C43.2065 69.3534 43.4821 69.2338 43.7578 69.1993C46.3823 68.879 48.0016 70.2109 48.1678 72.8544C48.2063 73.4585 48.2144 74.0748 48.1272 74.6708C48.0502 75.1958 48.2123 75.5303 48.5933 75.8526C49.3655 76.5074 50.1214 77.1804 50.8612 77.8717C51.5786 78.5427 51.6171 79.2786 50.9747 80.0064C50.087 81.0119 49.177 81.9951 48.2225 83.0513C46.8322 82.4167 45.4379 81.7843 44.0456 81.1457C42.6674 80.5132 41.2873 79.8807 39.9132 79.2401C39.6639 79.1225 39.4106 78.9928 39.1998 78.8184C38.3507 78.1191 38.3426 77.6974 39.139 76.9554C39.8443 76.3006 40.5516 75.6479 41.2609 74.9992C41.5933 74.6931 41.8061 74.3606 41.4211 73.9653C41.038 73.572 40.6975 73.7828 40.3733 74.0869C39.6883 74.7255 39.0134 75.3762 38.296 75.9783C38.0953 76.1466 37.7609 76.256 37.4975 76.2378C36.172 76.1445 34.9885 75.6499 33.9752 74.7944C32.0539 73.1726 31.225 70.9893 30.767 68.5222C32.21 68.0215 33.6124 67.537 35.0128 67.0484C35.3715 66.9227 35.7242 66.7829 36.0829 66.6633C36.5064 66.5214 36.7496 66.2457 36.5875 65.8058C36.4193 65.3476 36.0342 65.3557 35.635 65.4956C34.346 65.9456 33.0551 66.3916 31.7681 66.8457C30.0718 67.4437 30.0556 67.4559 29.1558 65.8889C27.423 62.8724 27.5102 59.7383 28.5498 56.4765C30.5055 57.0482 32.3903 57.6036 34.2792 58.149C34.494 58.2118 34.7737 58.3213 34.9297 58.2382C35.1364 58.1267 35.4161 57.7942 35.3695 57.6482C35.2884 57.3908 35.0229 57.0867 34.7696 57.0056C33.1807 56.4948 31.5979 55.9211 29.9685 55.6048C28.6086 55.3413 28.1242 54.6845 28.0351 53.3607C27.9013 51.4004 27.8385 49.4725 28.5478 47.6014C29.2044 45.862 30.39 44.6153 32.0681 43.8085C32.4795 43.6098 32.7166 43.6503 33.0166 44.0173C34.5507 45.9005 36.1112 47.7636 37.6799 49.6164C37.8582 49.8273 38.1399 50.0077 38.4034 50.0705C38.5452 50.103 38.8877 49.8678 38.9019 49.7279C38.9303 49.4664 38.8614 49.1238 38.6993 48.9251C37.4752 47.4088 36.2187 45.9208 34.9702 44.4227C34.873 44.3051 34.7899 44.1713 34.6744 44.0781C33.6043 43.2165 33.6874 42.1948 34.1413 41.0352C35.2742 38.1262 37.5076 36.7031 40.4746 36.2997C41.417 36.1719 42.3898 36.2875 43.3484 36.2713C43.8632 36.2632 44.0881 36.5024 44.2421 36.9889C45.0751 39.6121 45.9425 42.2232 46.814 44.8342C46.897 45.0836 47.0369 45.3775 47.2416 45.4992C47.3997 45.5944 47.7928 45.5377 47.9124 45.4018C48.0563 45.2376 48.1191 44.8869 48.0502 44.666C47.4827 42.8334 46.8768 41.0109 46.2809 39.1884C46.0134 38.3715 45.7662 37.5484 45.4642 36.7456C45.3082 36.328 45.3994 36.0544 45.6932 35.7422C47.88 33.4291 50.547 32.8696 53.5485 33.6014C54.4037 33.8123 55.2245 34.1528 56.2338 34.4914Z" fill="#FF5153"/>
<path d="M69.4111 35.0225C69.4902 38.6188 70.9007 40.3784 73.6752 40.3825C76.549 40.3886 77.9453 38.6837 78.0548 35.0124C82.7019 35.0124 87.351 35.0124 92.0022 35.0124C91.9008 37.1552 89.864 39.0567 87.582 39.1641C86.9761 39.1925 86.3661 39.1885 85.7581 39.1763C85.2818 39.1662 84.9737 39.3506 84.8866 39.8291C84.3739 42.6753 82.6816 44.7815 80.5617 46.5878C77.2867 49.3793 73.507 51.3213 69.4942 52.7809C66.2597 53.9587 62.5226 52.6816 60.6621 49.7928C58.8442 46.9669 57.1236 44.074 55.4942 41.1346C53.9093 38.2762 55.9725 35.0165 59.3286 34.9759C62.5185 34.9354 65.7105 34.9658 68.9025 34.9698C69.0747 34.9719 69.245 35.0063 69.4111 35.0225Z" fill="#FF5153"/>
<path d="M69.0766 80.3876C66.9284 80.7099 64.8794 81.0302 62.8244 81.3079C62.5346 81.3464 62.186 81.2228 61.9165 81.0768C60.4249 80.2761 58.8522 79.7672 57.1579 79.6436C56.6898 79.6091 56.248 79.6071 56.2095 80.2092C56.1709 80.8092 56.6229 80.87 57.0809 80.9045C61.6956 81.2613 64.9281 84.4542 65.3577 89.0924C65.4124 89.6823 65.4206 90.2783 65.4591 91C60.0378 88.5066 54.7645 86.082 49.3857 83.6088C49.8721 83.0939 50.3119 82.654 50.7213 82.1898C51.2543 81.5836 51.8177 80.9957 52.2697 80.3308C52.7966 79.5544 52.7986 78.6725 52.4358 77.8171C57.8936 75.281 65.2118 76.7041 69.0766 80.3876Z" fill="#FF5153"/>
<path d="M88.7432 33.6522C87.9082 33.8408 87.4685 33.6705 87.13 32.7988C85.4114 28.3653 80.8697 25.7785 76.1416 26.3097C70.0049 26.9989 63.856 27.6071 57.7153 28.2538C51.2199 28.9369 44.7265 29.6384 38.2311 30.3094C34.5204 30.6925 30.9636 30.1168 27.6014 28.4666C26.6246 27.9882 25.6639 27.4794 24.6992 26.9787C24.2939 26.7678 23.7873 26.5631 24.0953 25.9732C24.3973 25.3974 24.8512 25.6387 25.2667 25.8738C27.7027 27.2463 30.2401 28.345 33.0044 28.8944C35.1 29.312 37.1834 29.1559 39.2789 28.9309C43.9098 28.4301 48.5427 27.9598 53.1756 27.4753C58.1855 26.9503 63.1954 26.4151 68.2052 25.8941C71.1256 25.59 74.0419 25.213 76.9704 25.0265C82.2782 24.6859 87.2638 28.2923 88.7128 33.3988C88.7311 33.4657 88.7311 33.5428 88.7432 33.6522Z" fill="#FF5153"/>
<path d="M70.6737 36.103C70.6615 34.4022 72.0335 32.9872 73.7136 32.9669C75.3978 32.9446 76.7982 34.3333 76.8144 36.0402C76.8306 37.7532 75.4728 39.152 73.7765 39.1682C72.0862 39.1844 70.6858 37.8018 70.6737 36.103Z" fill="#FF5153"/>
<path d="M58.0051 53.46C59.0711 53.2451 59.8534 53.3425 60.6844 54.0358C62.7941 55.7974 63.9999 57.9037 63.6757 60.6911C63.5804 61.5 63.323 62.3291 62.9603 63.0589C62.4455 64.0948 61.7666 65.0476 61.1525 66.0328C60.9276 66.3937 60.6357 66.6106 60.2121 66.3308C59.7987 66.0571 59.8656 65.7125 60.0987 65.3496C60.5769 64.6057 61.0532 63.8617 61.5173 63.1096C63.1609 60.4559 62.7171 57.5124 60.3662 55.4731C59.6082 54.8162 58.8401 54.1716 58.0051 53.46Z" fill="#FF5153"/>
<path d="M50.7517 53.5918C51.7427 53.462 52.527 53.2776 53.2141 54.0094C53.9376 54.7797 54.8496 55.4021 55.4637 56.2454C57.3059 58.7794 57.0546 61.4554 55.7048 64.113C55.6055 64.3097 55.1414 64.484 54.9185 64.4191C54.4584 64.2894 54.5172 63.8961 54.6429 63.4826C54.9489 62.475 55.3421 61.4675 55.4454 60.4336C55.6217 58.6679 54.9144 57.1719 53.5728 56.0001C52.6831 55.2237 51.7772 54.4655 50.7517 53.5918Z" fill="#FF5153"/>
<path d="M48.9644 57.4395C49.2116 57.1111 49.4366 56.8131 49.6615 56.5151C50.9869 57.3848 51.9516 60.0627 51.4227 61.504C51.3416 61.723 50.9545 61.8304 50.7093 61.9906C50.5512 61.7169 50.2351 61.429 50.2594 61.1736C50.3972 59.7465 49.9675 58.5423 48.9644 57.4395Z" fill="#FF5153"/>
</g>
<defs>
<clipPath id="clip0_283_6856">
<rect width="68" height="66" fill="white" transform="translate(24 25)"/>
</clipPath>
</defs>
</svg>
