<svg width="116" height="116" viewBox="0 0 116 116" fill="none" xmlns="http://www.w3.org/2000/svg">
<rect x="1.25" y="1.25" width="113.367" height="113.367" rx="15.75" fill="white" stroke="#3B5585" stroke-width="1.5"/>
<path d="M39.7907 21.2828L37.2877 21.9824C38.7491 27.1904 40.7546 29.9266 43.0399 31.3568C45.3563 32.8182 48.0303 32.9426 50.953 32.6783C54.8396 32.3207 59.2237 31.1858 63.701 32.8493C64.9137 33.3934 66.1885 34.0852 67.541 35.0025C68.2561 34.7848 68.878 34.505 69.4998 34.3029C69.4998 34.3029 69.9973 32.7094 69.1889 30.6728C68.4893 28.885 66.7481 26.6307 62.3485 25.045L61.4779 27.4702C64.183 28.4652 65.6443 29.6934 66.3906 30.8593C66.4994 31.0304 66.5771 31.1858 66.6548 31.3413C66.0641 31.0304 65.4578 30.7505 64.867 30.5329C60.4985 28.5118 57.0005 28.3875 54.2022 28.0765C52.7098 27.9211 51.4505 27.7345 50.4089 26.9883C49.3673 26.2265 48.59 24.9051 47.9215 22.6042L45.434 23.3349C46.3202 26.382 47.5017 28.061 48.8853 29.0715C49.5072 29.5224 50.1757 29.8488 50.8908 30.082C48.4345 30.2142 46.1181 30.1862 44.408 29.1648C42.5113 27.9677 41.0033 25.6047 39.7907 21.2828ZM53.7047 21.8424C53.5648 23.5836 53.8757 24.9984 54.3888 26.1488C55.5858 26.298 56.6274 26.3198 57.7157 26.5064C56.8762 25.5736 56.13 24.1433 56.2854 22.029L53.7047 21.8424ZM72.407 23.9412L70.7125 25.8845C71.9873 27.0038 72.3448 28.3408 72.3448 29.4757C71.6608 28.8663 71.0389 28.4605 70.3082 28.0921C71.4276 29.4011 71.583 31.7237 71.6608 32.9736L74.0705 33.2379C74.0705 33.2379 76.8066 27.7656 72.407 23.9412ZM59.8611 34.7226C57.1405 35.0335 55.6947 34.3184 54.8241 36.868C54.8241 36.868 57.7468 41.2055 65.5355 41.0966C65.1002 42.8689 65.3023 44.1748 65.3023 45.745C65.3023 50.9686 61.1048 55.5237 51.8547 55.5237C47.1597 55.5237 41.4542 56.3632 37.1012 58.7107C34.0075 60.3741 31.5869 62.7838 30.5157 66.1263L31.7299 67.8209L34.0541 67.8519V77.4441L31.2184 81.8437L32.0331 94.5917H34.7226L34.9558 84.3311C36.2928 83.5538 39.3554 81.5328 41.9672 78.4235C45.5118 74.2415 48.2324 68.1629 45.0298 60.6384L47.424 59.6279C50.0513 65.7998 49.1341 71.1478 46.8332 75.4541C51.2328 75.3142 55.0106 75.0344 58.2132 74.5058L57.4825 65.7532L60.0632 65.5355L62.5195 94.5917H65.1935L65.6443 75.6718C67.7742 74.7701 72.6247 71.4587 74.8944 59.9544C75.1743 58.5552 75.3297 57.3737 75.4075 56.3632C75.765 53.798 75.9671 50.9064 76.0293 47.6106L72.2205 46.4135H83.9269L85.0618 43.8483C83.958 43.895 82.6365 43.3198 82.6365 43.3198L82.9008 42.0761H85.3571L72.065 35.189C70.5881 35.7487 69.0334 36.4794 67.9452 37.3655C67.0746 36.7436 64.0586 34.8003 59.8611 34.7226ZM74.7079 69.9507C73.1999 72.7646 71.583 74.8634 70.1839 76.3558L77.5062 79.5895L74.257 86.974L76.589 88.0622L81.7815 77.9882L74.8944 72.1738C74.8322 71.8163 74.7545 71.1167 74.7079 69.9507ZM50.7975 77.8483C49.0408 77.9571 47.1752 78.0348 45.1853 78.0659C43.8328 79.8537 42.2781 81.5794 40.6613 82.9164L42.0138 94.5762H44.6723V84.471C45.8072 83.5382 48.5433 81.1596 50.7975 77.8483Z" fill="#FFA800"/>
</svg>
