<svg width="116" height="116" viewBox="0 0 116 116" fill="none" xmlns="http://www.w3.org/2000/svg">
<rect x="1.25" y="1.61401" width="113.367" height="113.367" rx="15.75" fill="white" stroke="#3B5585" stroke-width="1.5"/>
<path d="M54.9872 93C53.6973 92.861 52.3999 92.7573 51.1155 92.5758C46.5913 91.9367 42.3001 90.6622 38.7322 87.6704C34.5715 84.1822 32.7894 79.6455 33.0206 74.2899C33.2648 68.5843 35.8484 63.9457 39.7724 59.9591C41.3308 58.3753 42.9992 56.897 44.6265 55.3817C44.7626 55.2538 44.9844 55.1483 45.1671 55.1464C48.0956 55.1316 51.0223 55.1353 54.0757 55.1353C53.9508 55.4058 53.8669 55.604 53.77 55.7948C52.8901 57.5509 51.9916 59.296 51.136 61.0632C50.6774 62.008 50.9869 63.0732 51.8108 63.653C52.5881 64.1995 53.6749 64.1606 54.3851 63.5048C54.648 63.2621 54.8493 62.9305 55.0171 62.6063C55.8317 61.028 56.6239 59.4405 57.4721 57.7584C57.6175 58.0011 57.7256 58.1622 57.8132 58.3327C58.5533 59.7961 59.2822 61.2651 60.0297 62.7249C60.6392 63.916 61.8565 64.3551 62.9395 63.7993C63.9928 63.2584 64.3507 62.0487 63.7728 60.8798C62.9545 59.2237 62.1137 57.5769 61.2861 55.9263C61.1742 55.704 61.0773 55.4761 60.9394 55.176C61.1798 55.1594 61.3513 55.1353 61.5247 55.1353C64.222 55.1334 66.9176 55.1297 69.6149 55.1408C69.8517 55.1427 70.1574 55.1816 70.314 55.3261C72.8566 57.6917 75.5279 59.9332 77.6362 62.7268C80.7493 66.8522 82.3617 71.4501 81.9311 76.6333C81.4334 82.6187 78.352 86.9516 73.0896 89.7859C69.8554 91.5291 66.3341 92.3257 62.7065 92.7258C61.808 92.824 60.9095 92.9074 60.0092 92.9981C58.3371 93 56.6612 93 54.9872 93Z" fill="#E41F14"/>
<path d="M57.5113 50.9746C53.8148 50.9746 50.1164 50.9598 46.4199 50.9913C45.87 50.995 45.5885 50.8135 45.3406 50.3577C44.5427 48.8998 43.592 47.5123 42.906 46.0063C41.0773 41.9957 41.8509 38.1721 45.0479 35.1192C46.2018 34.017 47.4787 33.0408 48.6755 31.9811C49.2104 31.5069 49.7194 30.9938 50.1854 30.451C50.7148 29.8341 50.9459 29.0931 50.9366 28.2706C50.9217 26.9072 50.9236 25.5438 50.9366 24.1804C50.9497 22.8744 51.8109 22.0129 53.1288 22.0092C56.035 21.9981 58.943 22 61.8491 22.0092C63.2062 22.0129 64.0581 22.8706 64.0693 24.2248C64.0805 25.4734 64.1159 26.722 64.06 27.9668C64.004 29.2172 64.457 30.2324 65.3406 31.0642C66.1161 31.794 66.9605 32.4498 67.749 33.1667C68.7948 34.1152 69.9188 35.0044 70.8285 36.0696C73.3302 38.9965 73.6899 42.3235 72.1726 45.7858C71.4251 47.4901 70.3849 49.0684 69.4342 50.6782C69.3261 50.8616 68.9365 50.9617 68.6755 50.9617C64.9529 50.9802 61.2321 50.9746 57.5113 50.9746Z" fill="#E41F14"/>
</svg>
