<svg width="116" height="116" viewBox="0 0 116 116" fill="none" xmlns="http://www.w3.org/2000/svg">
<rect x="1.25" y="0.932007" width="113.367" height="113.367" rx="15.75" fill="white" stroke="#3B5585" stroke-width="1.5"/>
<g clip-path="url(#clip0_203_8960)">
<path d="M30.6012 55.4104C29.6546 54.3531 28.6771 53.3493 27.8108 52.2592C27.2758 51.5845 27.463 51.1896 28.28 50.8708C28.564 50.7597 28.8644 50.6856 29.1628 50.6095C29.4344 50.5396 29.7122 50.4923 29.9118 50.4512C29.1484 49.5112 28.2923 48.6246 27.6359 47.6085C26.5823 45.9794 26.7819 45.6051 28.6813 45.1711C29.0743 45.0806 29.4797 45.0394 29.9571 44.9654C29.7472 44.6383 29.5579 44.3463 29.3727 44.0521C28.5166 42.6946 28.1339 41.2012 28.068 39.6051C28.0413 38.9325 28.2635 38.5129 28.957 38.4162C29.9365 38.2804 30.914 38.1467 31.7865 38.0274C31.6898 37.0895 31.4964 36.1063 31.5108 35.1251C31.5231 34.1193 31.7577 34.0041 32.7599 34.0617C35.8116 34.2324 38.2913 35.627 40.4664 37.6634C42.4749 39.5413 43.9853 41.7895 45.3167 44.1776C46.9239 47.0593 49.3583 48.8941 52.6199 49.4124C57.0895 50.1221 60.9459 48.7336 63.3474 44.6692C64.9895 41.8903 65.7571 38.8091 66.4033 35.6908C66.8066 33.7408 67.4178 31.8752 68.6072 30.2482C69.6628 28.8022 71.0313 27.8005 72.8484 27.5948C73.4081 27.531 74.0131 27.6462 74.5666 27.7964C76.0236 28.1913 77.4476 28.7035 78.9107 29.0717C80.5487 29.4851 81.1702 30.9928 80.1722 32.3607C79.917 32.7103 79.5939 33.0106 79.2749 33.3089C77.6369 34.8433 77.2377 36.6802 77.9291 38.7823C78.6247 40.8948 79.9746 42.6123 81.3143 44.3339C82.7753 46.2119 84.3681 47.9829 85.3929 50.1838C89.6484 59.3329 85.1315 70.4669 75.7478 73.721C74.7909 74.0521 74.3444 74.4944 74.0501 75.457C73.085 78.5999 71.4511 81.3048 68.5187 83.0429C68.3705 83.1313 68.2141 83.409 68.2429 83.5612C68.5413 85.0422 68.85 86.5231 69.2369 87.9836C69.2945 88.1995 69.7699 88.3867 70.0765 88.4381C71.8215 88.724 73.5748 88.9709 75.326 89.2177C75.7437 89.2773 76.1368 89.3822 76.0668 89.8903C75.9948 90.4169 75.5544 90.3798 75.1593 90.3243C73.8423 90.1351 72.5273 89.9397 71.1486 89.8492C71.9573 90.4621 72.7681 91.073 73.5768 91.686C73.76 91.8259 74.009 91.9287 74.1119 92.1138C74.2415 92.3421 74.2497 92.6383 74.3115 92.9037C74.0193 92.9284 73.6427 93.0826 73.4513 92.9551C72.5747 92.375 71.7536 91.7168 70.9099 91.0874C70.6259 90.8756 70.3378 90.674 69.8439 90.3181C70.0394 91.108 70.1814 91.6798 70.3255 92.2516C70.4016 92.5499 70.5662 92.8543 70.5395 93.1402C70.5107 93.4364 70.3008 93.7161 70.1691 94.0021C69.9407 93.8128 69.5826 93.6688 69.5044 93.4302C69.1957 92.5087 68.9755 91.5585 68.7204 90.6184C68.6874 90.5012 68.6442 90.386 68.5537 90.1207C67.7779 91.143 67.0906 92.0809 66.3642 92.988C66.2098 93.1814 65.9217 93.3768 65.6912 93.3788C65.2221 93.385 65.0739 92.8666 65.4134 92.4038C66.1892 91.3507 66.9733 90.3017 67.7882 89.2794C68.1051 88.8845 68.2038 88.5142 68.0804 88.0185C67.7305 86.6054 67.4219 85.18 67.0803 83.6805C64.3845 84.6267 61.7937 84.1515 59.1947 83.191C59.0671 84.7192 58.9622 86.1488 58.8181 87.5763C58.777 87.9856 58.9231 88.1707 59.2832 88.3147C60.664 88.8639 62.0345 89.4378 63.4091 90.0014C63.798 90.1618 64.2528 90.3202 64.0326 90.8612C63.8145 91.4001 63.3741 91.2047 62.9852 91.0463C61.9974 90.6431 61.0097 90.2359 59.9026 89.9541C60.5014 90.82 61.127 91.6716 61.6847 92.5663C61.8287 92.7967 61.9007 93.278 61.7629 93.4364C61.3924 93.8622 61.0447 93.5886 60.7792 93.206C60.0816 92.1982 59.3799 91.1923 58.5444 89.989C58.3716 91.1635 58.2543 92.1323 58.0711 93.0867C58.0217 93.3439 57.8057 93.7141 57.5999 93.7635C57.0978 93.8869 56.9229 93.5166 56.9764 93.0641C57.1039 92.0007 57.248 90.9393 57.4044 89.7401C57.0875 89.9458 56.8755 90.0734 56.6759 90.2153C55.7334 90.8838 54.793 91.5502 53.8567 92.227C53.5192 92.4697 53.1406 92.5684 52.9554 92.1508C52.8648 91.9472 53.013 91.4926 53.2044 91.3384C53.9822 90.711 54.7724 90.0734 55.6429 89.5962C57.1657 88.759 58.0073 87.64 57.855 85.8135C57.783 84.9578 58.0217 84.0795 58.0505 83.2115C58.0588 82.9729 57.8756 82.6212 57.6719 82.5019C54.4041 80.5684 52.0376 77.8636 50.5127 74.3894C50.381 74.0891 49.953 73.8238 49.6114 73.7271C46.4321 72.8283 43.6128 71.3452 41.4171 68.8193C39.9972 67.1841 39.0074 65.3144 38.5403 63.1958C38.423 62.6651 38.1925 62.4347 37.6863 62.2948C35.6491 61.7374 33.6941 60.9599 31.9429 59.7669C31.1424 59.2218 30.3934 58.5821 29.6978 57.9074C28.8582 57.095 28.922 56.6322 29.846 55.9205C30.1279 55.7024 30.4386 55.5194 30.6012 55.4104ZM70.9346 65.0141C71.0148 64.9092 71.0971 64.8043 71.1774 64.6994C70.9552 64.6232 70.7226 64.4608 70.5168 64.4896C70.2514 64.5286 69.9201 64.6541 69.7678 64.8557C68.5331 66.4868 66.9877 67.6942 65.0842 68.4429C64.6891 68.5993 64.3269 68.8502 64.5924 69.276C64.7076 69.4632 65.2344 69.5681 65.4855 69.4734C67.5988 68.6877 69.3151 67.3548 70.6403 65.5303C70.7556 65.372 70.8379 65.1868 70.9346 65.0141ZM42.7774 57.5701C42.586 57.7429 42.3452 57.8581 42.3246 58.0062C42.2917 58.2222 42.3473 58.5245 42.4872 58.6788C43.3659 59.6435 44.2611 60.5958 45.1994 61.5029C45.3702 61.6675 45.7633 61.6037 46.0534 61.6469C46.0226 61.3363 46.1049 60.9249 45.9382 60.7316C45.1171 59.7854 44.2322 58.8948 43.3577 57.9959C43.2074 57.8396 43.0058 57.7347 42.7774 57.5701ZM52.8401 66.6678C52.6837 66.3531 52.657 66.2009 52.5685 66.1371C51.8647 65.6291 51.163 65.1128 50.4242 64.6603C50.2946 64.5801 49.8954 64.722 49.7945 64.8762C49.6958 65.0285 49.7308 65.4398 49.8604 65.5365C50.5518 66.0549 51.2721 66.5465 52.0293 66.962C52.1878 67.0483 52.5376 66.7871 52.8401 66.6678ZM57.0669 68.3812C56.9434 68.5046 56.6656 68.661 56.6224 68.8667C56.5874 69.0394 56.785 69.3994 56.9496 69.4508C57.6987 69.6894 58.4662 69.8807 59.242 70.0082C59.4231 70.037 59.7503 69.7861 59.8326 69.5886C59.8882 69.4549 59.6721 69.0641 59.5054 69.0106C58.7564 68.77 57.9826 68.6095 57.0669 68.3812ZM73.513 34.6356C73.9246 34.1193 74.293 33.8601 74.3485 33.5434C74.4288 33.0806 74.0419 32.7227 73.5851 32.8358C73.264 32.914 72.8504 33.2554 72.7887 33.5454C72.7372 33.782 73.1467 34.1173 73.513 34.6356Z" fill="#0B6673"/>
<path d="M80.629 24.6719C82.4317 25.0545 83.154 25.7148 83.3104 27.095C83.4606 28.4073 82.835 29.6209 81.6724 30.1824C81.162 28.5554 79.845 28.0967 78.3366 27.7758C77.1246 27.5187 75.9804 26.9572 74.7725 26.6548C73.9514 26.4491 73.0748 26.4553 72.0808 26.3524C71.4491 25.5256 71.9491 23.625 72.8834 22.7508C73.8321 21.8602 74.9618 21.7594 76.0957 22.469C76.2582 22.5718 76.5072 22.578 76.711 22.5636C77.1925 22.5286 77.674 22.4011 78.1535 22.4073C79.596 22.4237 80.3533 23.1251 80.629 24.6719Z" fill="#0B6673"/>
<path d="M81.5036 42.7378C80.4953 41.121 79.1701 39.6791 78.7914 37.7169C78.421 35.7998 79.0775 35.1663 80.9665 35.59C83.154 36.0796 84.2549 38.2825 83.4298 40.5245C83.0923 41.4419 82.5017 42.1351 81.5036 42.7378Z" fill="#0B6673"/>
<path d="M80.0754 34.2592C80.666 33.5022 81.2258 32.7864 81.8534 31.9822C83.2671 32.2413 84.7735 32.6239 86.1234 33.4467C86.3744 33.601 86.5123 33.9383 86.7037 34.1934C86.4465 34.3785 86.1954 34.5698 85.932 34.7425C85.8497 34.796 85.7345 34.796 85.6398 34.831C84.3742 35.3226 83.1622 35.7052 81.8863 34.7138C81.4295 34.36 80.6722 34.397 80.0754 34.2592Z" fill="#0B6673"/>
</g>
<defs>
<clipPath id="clip0_203_8960">
<rect width="60" height="72" fill="white" transform="translate(27 22)"/>
</clipPath>
</defs>
</svg>
